<?xml version="1.0" encoding="utf-8"?>
<!-- Generator: Adobe Illustrator 23.0.3, SVG Export Plug-In . SVG Version: 6.00 Build 0)  -->
<svg version="1.1" id="Livello_1" xmlns="http://www.w3.org/2000/svg" xmlns:xlink="http://www.w3.org/1999/xlink" x="0px" y="0px"
	 viewBox="0 0 184.3 184.3" style="enable-background:new 0 0 184.3 184.3;" xml:space="preserve">
<style type="text/css">
	.st0{fill:none;stroke:#000000;stroke-width:5;stroke-linecap:round;stroke-miterlimit:10;}
	.st1{fill:#1D1D1B;stroke:#000000;stroke-width:5;stroke-linecap:round;stroke-miterlimit:10;}
	.st2{fill:#1D1D1B;stroke:#000000;stroke-width:6.5;stroke-linecap:round;stroke-miterlimit:10;}
</style>
<g>
	<g>
		<polyline class="st0" points="36,27 36,104.3 148,103.3 		"/>
		<g>
			<circle class="st1" cx="82" cy="50.1" r="4"/>
			<circle class="st2" cx="112" cy="50.1" r="9.2"/>
			<circle class="st1" cx="82" cy="86.1" r="4"/>
			<circle class="st1" cx="52" cy="50.1" r="7.1"/>
			<circle class="st1" cx="112" cy="86.1" r="7.1"/>
		</g>
	</g>
</g>
<circle class="st1" cx="52" cy="86.1" r="4"/>
<g>
	<path d="M101.1,113.8l-6.8,8.9l4.3-10.4c0.1-0.5,0.5-0.8,0.8-0.8c0.1,0,0.2,0.1,0.4,0.2l0.6,0.3l0.6,0.3
		C101.8,112.7,101.7,113.2,101.1,113.8z M91.9,123.5l1.9-14.9c0.2-1.1-0.1-1.8-0.8-1.8h-1c-0.2,0-1.2,0-1.2,0
		c-0.7,0-1.1,0.6-0.8,1.8L91.9,123.5z M94.6,139.7c0.6,1.5,0.8,2.4,0.8,3.8v12.4v1.7c0,0.5-0.4,1.1-1.1,1.1h-5.5
		c-0.6,0-1.1-0.4-1.1-1.1v-1.7v-1.8H58.5v1.8v1.7c0,0.5-0.4,1.1-1.1,1.1h-5.5c-0.6,0-1.1-0.4-1.1-1.1v-1.7v-12.4
		c0-1.4,0.2-2.4,0.8-3.8l6.9-14.4c0.7-1.7,2.9-3.1,4.8-3.1h19.5c1.9,0,4,1.4,4.9,3.1L94.6,139.7z M57,139.1h32.2l-4.7-9.9
		c-1-1.9-1.8-2.3-3.8-2.3H65.5c-0.3,0-0.5,0-0.7,0c-1.5,0.2-2.2,0.7-3,2.3L57,139.1z M61.5,146.3c0-1.9-1.6-3.4-3.5-3.4
		s-3.4,1.5-3.4,3.4c0,1.9,1.5,3.5,3.4,3.5S61.5,148.2,61.5,146.3z M91.7,146.3c0-1.9-1.6-3.4-3.5-3.4s-3.4,1.5-3.4,3.4
		c0,1.9,1.5,3.5,3.4,3.5C90.1,149.8,91.7,148.2,91.7,146.3z M89.6,123.6l-4.3-10.4c-0.2-0.5-0.5-0.8-0.8-0.8c-0.1,0-0.2,0-0.3,0
		s-0.1,0.1-0.2,0.1l-0.6,0.3l-0.5,0.4c-0.5,0.3-0.4,0.8,0.1,1.5L89.6,123.6z M133.1,144l-3.2,12l-0.4,1.6c-0.1,0.5-0.7,0.8-1.3,0.7
		l-5.3-1.4c-0.5-0.1-0.8-0.7-0.7-1.3l0.4-1.6l0.5-1.7l-26.1-7v-2c0-0.8-0.1-1.8-0.3-2.6c1.4-0.1,2.6-1.1,3.1-2.5
		c0.5-1.8-0.6-3.7-2.4-4.2c-1.2-0.2-2.3,0.1-3.2,0.8l-2.4-5.1c0.1-0.1,0.2-0.3,0.3-0.4l10.4-12.1c1-1.2,2.5-1.8,4-1.9
		c0.5,0,1,0,1.4,0.1l18.5,4.8c1.9,0.5,3.6,2.4,3.9,4.2l3,15.7C133.5,141.6,133.4,142.7,133.1,144z M128.5,138.5l-2-10.8
		c-0.4-2.1-1.2-2.7-3.1-3.3l-14.7-4c-0.7-0.2-1.3-0.2-1.8-0.2c-0.8,0.1-1.6,0.6-2.4,1.6l-7.2,8.3L128.5,138.5z M126.5,141.9
		c-0.2-0.1-0.4-0.1-0.6-0.1c-0.2,0-0.4,0-0.6,0c-1.4,0.1-2.5,1.1-2.9,2.5c-0.5,1.8,0.5,3.7,2.3,4.2c1.8,0.5,3.7-0.6,4.2-2.4
		C129.5,144.3,128.3,142.4,126.5,141.9z"/>
</g>
</svg>
