<?xml version="1.0" encoding="utf-8"?>
<!-- Generator: Adobe Illustrator 23.0.3, SVG Export Plug-In . SVG Version: 6.00 Build 0)  -->
<svg version="1.1" id="Livello_1" xmlns="http://www.w3.org/2000/svg" xmlns:xlink="http://www.w3.org/1999/xlink" x="0px" y="0px"
	 viewBox="0 0 184.3 184.3" style="enable-background:new 0 0 184.3 184.3;" xml:space="preserve">
<style type="text/css">
	.st0{fill:none;stroke:#FFFFFF;stroke-width:5.5155;stroke-linecap:round;stroke-miterlimit:10;}
	.st1{fill:#E2E2E4;stroke:#FFFFFF;stroke-width:5.5155;stroke-linecap:round;stroke-miterlimit:10;}
	.st2{fill:#E2E2E4;stroke:#FFFFFF;stroke-width:7.1701;stroke-linecap:round;stroke-miterlimit:10;}
	.st3{fill:#FFFFFF;}
</style>
<g>
	<g>
		<polyline class="st0" points="30.5,26.2 30.5,111.6 153.7,110.5 		"/>
		<g>
			<ellipse class="st1" cx="81.1" cy="51.7" rx="4.4" ry="4.4"/>
			<ellipse class="st2" cx="114.1" cy="51.7" rx="10.1" ry="10.2"/>
			<ellipse class="st1" cx="81.1" cy="91.5" rx="4.4" ry="4.4"/>
			<ellipse class="st1" cx="48.1" cy="51.7" rx="7.8" ry="7.8"/>
			<ellipse class="st1" cx="114.1" cy="91.5" rx="7.8" ry="7.8"/>
		</g>
	</g>
</g>
<ellipse class="st1" cx="48.1" cy="91.5" rx="4.4" ry="4.4"/>
<path class="st3" d="M61.4,129.4c0,3.9,1.4,6.6,5.9,10.6c3.4,3.1,4.6,4.9,4.6,7.4c0,2.4-1.1,3.3-2.8,3.3s-2.8-0.9-2.8-3.3v-2.4h-5
	v2.1c0,5.4,2.7,8.5,7.9,8.5c5.2,0,7.9-3.1,7.9-8.5c0-3.9-1.4-6.7-5.9-10.6c-3.5-3.1-4.6-4.9-4.6-7.4c0-2.4,1-3.3,2.7-3.3
	s2.6,0.9,2.6,3.3v1.4h5.1v-1.1c0-5.4-2.7-8.5-7.8-8.5C64.1,120.9,61.4,123.9,61.4,129.4z M85,129c0-2.4,1.1-3.3,2.8-3.3
	s2.8,0.9,2.8,3.3v18.3c0,2.4-1.1,3.3-2.8,3.3s-2.8-0.9-2.8-3.3V129z M79.7,146.9c0,5.4,2.9,8.5,8.1,8.5c5.3,0,8.1-3.1,8.1-8.5v-17.6
	c0-5.4-2.8-8.5-8.1-8.5c-5.2,0-8.1,3.1-8.1,8.5V146.9z M117.3,129.5c0,3.6-1.2,6.3-5.3,10.6c-3.9,4.2-5.3,7-5.3,10.8v4.2h15.4v-4.8
	h-10.1c-0.1-0.3-0.1-0.5-0.1-0.8c0-1.8,0.9-3.4,4.1-6.8c4.9-5.3,6.6-8.9,6.6-13.4c0-5.4-2.8-8.5-7.9-8.5c-5.3,0-7.9,3.1-7.9,8.5v3.3
	h5V129c0-2.4,1.1-3.3,2.8-3.3S117.3,126.5,117.3,129.5z"/>
</svg>
