<?xml version="1.0" encoding="utf-8"?>
<!-- Generator: Adobe Illustrator 23.0.3, SVG Export Plug-In . SVG Version: 6.00 Build 0)  -->
<svg version="1.1" id="Livello_1" xmlns="http://www.w3.org/2000/svg" xmlns:xlink="http://www.w3.org/1999/xlink" x="0px" y="0px"
	 viewBox="0 0 184.3 184.3" style="enable-background:new 0 0 184.3 184.3;" xml:space="preserve">
<style type="text/css">
	.st0{fill:none;stroke:#000000;stroke-width:5.5155;stroke-linecap:round;stroke-miterlimit:10;}
	.st1{fill:#1D1D1B;stroke:#000000;stroke-width:5.5155;stroke-linecap:round;stroke-miterlimit:10;}
	.st2{fill:#1D1D1B;stroke:#000000;stroke-width:7.1701;stroke-linecap:round;stroke-miterlimit:10;}
</style>
<g>
	<g>
		<polyline class="st0" points="30.5,26.2 30.5,111.6 153.7,110.5 		"/>
		<g>
			<ellipse class="st1" cx="81.1" cy="51.7" rx="4.4" ry="4.4"/>
			<ellipse class="st2" cx="114.1" cy="51.7" rx="10.1" ry="10.2"/>
			<ellipse class="st1" cx="81.1" cy="91.5" rx="4.4" ry="4.4"/>
			<ellipse class="st1" cx="48.1" cy="51.7" rx="7.8" ry="7.8"/>
			<ellipse class="st1" cx="114.1" cy="91.5" rx="7.8" ry="7.8"/>
		</g>
	</g>
</g>
<ellipse class="st1" cx="48.1" cy="91.5" rx="4.4" ry="4.4"/>
<path d="M41,141.3h2.3v6c0,2.3-1,3.1-2.6,3.1c-1.6,0-2.6-0.8-2.6-3.1v-17.6c0-2.3,1-3.3,2.6-3.3c1.6,0,2.6,0.9,2.6,3.3v3.5h4.9v-3.2
	c0-5.2-2.6-8.2-7.6-8.2c-5.1,0-7.6,3-7.6,8.2v17c0,5.2,2.6,8.2,7.6,8.2c5,0,7.6-3,7.6-8.2v-10.4H41V141.3z M67.4,154.8
	c-0.5-1.2-0.5-2.3-0.5-3.9v-5.1c0-3.4-0.8-5.8-3.4-6.9v-0.1c2.3-1.1,3.4-3.2,3.4-6.6v-2.5c0-5.1-2.3-7.5-7.6-7.5h-7.8v32.6h5.1
	v-13.2h1.8c2.3,0,3.3,1.1,3.3,4.2v5.1c0,2.6,0.2,3.1,0.5,4H67.4z M59,126.9c1.9,0,2.6,1,2.6,3.3v3.3c0,2.6-1.2,3.4-3.1,3.4h-2v-10
	H59z M81.5,122.2H74l-5.2,32.6h4.7l0.8-5.9h6.3l0.9,5.9h5.1L81.5,122.2z M77.5,128L77.5,128l2.5,16.5H75L77.5,128z M89.1,154.8h13.5
	v-4.6h-8.4v-27.9h-5.1V154.8z M111.7,147c0,5.2,2.8,8.2,7.8,8.2c5.1,0,7.8-3,7.8-8.2v-6c0-4.8-1.9-7.5-5.7-7.5c-2.3,0-3.8,1-4.6,2.8
	h-0.1v-5.9c0-3.1,1-4,2.8-4c1.6,0,2.6,0.9,2.6,3.3v1.1h4.9v-0.8c0-5.2-2.6-8.2-7.6-8.2c-5.3,0-7.8,3-7.8,8.5V147z M119.5,138.3
	c1.6,0,2.6,0.9,2.6,3.3v5.8c0,2.3-1,3.1-2.6,3.1s-2.6-0.8-2.6-3.1v-5.8C116.8,139.2,117.9,138.3,119.5,138.3z M137.6,122.2h-7.1
	v32.6h4.5v-23h0.1l3.7,23h4.9l3.4-23.4h0.1v23.4h4.8v-32.6h-7.1l-3.4,23.1h-0.1L137.6,122.2z"/>
</svg>
