<?xml version="1.0" encoding="utf-8"?>
<!-- Generator: Adobe Illustrator 23.0.3, SVG Export Plug-In . SVG Version: 6.00 Build 0)  -->
<svg version="1.1" id="Livello_1" xmlns="http://www.w3.org/2000/svg" xmlns:xlink="http://www.w3.org/1999/xlink" x="0px" y="0px"
	 viewBox="0 0 184.3 184.3" style="enable-background:new 0 0 184.3 184.3;" xml:space="preserve">
<style type="text/css">
	.st0{fill:none;stroke:#000000;stroke-width:5.5155;stroke-linecap:round;stroke-miterlimit:10;}
	.st1{fill:#1D1D1B;stroke:#000000;stroke-width:5.5155;stroke-linecap:round;stroke-miterlimit:10;}
	.st2{fill:#1D1D1B;stroke:#000000;stroke-width:7.1701;stroke-linecap:round;stroke-miterlimit:10;}
</style>
<g>
	<g>
		<polyline class="st0" points="29.5,20.2 29.5,105.6 152.7,104.5 		"/>
		<g>
			<ellipse class="st1" cx="80.1" cy="45.7" rx="4.4" ry="4.4"/>
			<ellipse class="st2" cx="113.1" cy="45.7" rx="10.1" ry="10.2"/>
			<ellipse class="st1" cx="80.1" cy="85.5" rx="4.4" ry="4.4"/>
			<ellipse class="st1" cx="47.1" cy="45.7" rx="7.8" ry="7.8"/>
			<ellipse class="st1" cx="113.1" cy="85.5" rx="7.8" ry="7.8"/>
		</g>
	</g>
</g>
<ellipse class="st1" cx="47.1" cy="85.5" rx="4.4" ry="4.4"/>
<path d="M51.8,139l7.4,2.1c-1.1,3.9-3,6.6-5.7,8.5c-2.6,1.9-5.9,2.9-10,2.9c-5.1,0-9.2-1.5-12.5-4.8c-3.2-3.2-4.8-7.4-4.8-12.9
	c0-5.7,1.5-10.3,4.8-13.5c3.2-3.2,7.6-4.8,12.9-4.8c4.6,0,8.5,1.2,11.3,3.8c1.8,1.4,3,3.5,4,6.4l-7.6,1.7c-0.4-1.9-1.3-3.2-2.9-4.3
	c-1.3-1-3.2-1.5-5.2-1.5c-2.9,0-5.2,1-6.8,2.8c-1.8,1.9-2.6,4.9-2.6,9.1c0,4.4,0.8,7.5,2.5,9.4c1.8,1.9,4,2.9,6.7,2.9
	c2.1,0,3.9-0.6,5.3-1.8C50.1,143.4,51.2,141.6,51.8,139z M100,151.8h-8.3l-3.3-7.8H73.2l-3.2,7.8h-8.1L76.6,117h8.1L100,151.8z
	 M85.9,138l-5.3-12.8L75.5,138H85.9z M134.6,147.4c1.9,1.2,4,2.3,6.2,3l-2.9,5.1c-1.2-0.3-2.3-0.8-3.4-1.3c-0.2-0.1-1.9-1.1-5.1-3.1
	c-2.4,1-5.3,1.4-8.4,1.4c-5.7,0-10.3-1.5-13.6-4.8c-3.3-3.2-5-7.5-5-13.3c0-5.6,1.7-10.2,5-13.3c3.3-3.2,7.8-4.8,13.4-4.8
	s10.1,1.5,13.4,4.8c3.3,3.2,5,7.5,5,13.3c0,3-0.4,5.6-1.3,8C137.2,144.1,136.1,145.9,134.6,147.4z M128.4,143.4
	c1-1.1,1.8-2.4,2.3-3.9c0.4-1.5,0.7-3.2,0.7-5.2c0-4-1-7.1-2.9-9.1c-1.9-2-4.5-3-7.6-3c-3.2,0-5.7,1-7.6,3c-1.9,2-2.9,5-2.9,9.1
	s1,7.1,2.9,9.2c1.9,2,4.4,3,7.4,3c1.2,0,2.2-0.2,3.2-0.6c-1.5-1-3.2-1.7-4.7-2.2l2.1-4.1C123.8,140.7,126.1,141.9,128.4,143.4z
	 M145,151.8V117h7.7v34.8H145z"/>
</svg>
