<?xml version="1.0" encoding="utf-8"?>
<!-- Generator: Adobe Illustrator 23.0.3, SVG Export Plug-In . SVG Version: 6.00 Build 0)  -->
<svg version="1.1" id="Livello_1" xmlns="http://www.w3.org/2000/svg" xmlns:xlink="http://www.w3.org/1999/xlink" x="0px" y="0px"
	 viewBox="0 0 184.3 184.3" style="enable-background:new 0 0 184.3 184.3;" xml:space="preserve">
<style type="text/css">
	.st0{fill:none;stroke:#000000;stroke-width:5.5155;stroke-linecap:round;stroke-miterlimit:10;}
	.st1{fill:#1D1D1B;stroke:#000000;stroke-width:5.5155;stroke-linecap:round;stroke-miterlimit:10;}
	.st2{fill:#1D1D1B;stroke:#000000;stroke-width:7.1701;stroke-linecap:round;stroke-miterlimit:10;}
</style>
<g>
	<g>
		<polyline class="st0" points="26.5,22.2 26.5,107.6 85,106.5 		"/>
		<g>
			<ellipse class="st1" cx="77.1" cy="47.7" rx="4.4" ry="4.4"/>
			<ellipse class="st2" cx="110.1" cy="47.7" rx="10.1" ry="10.2"/>
			<ellipse class="st1" cx="77.1" cy="87.5" rx="4.4" ry="4.4"/>
			<ellipse class="st1" cx="44.1" cy="47.7" rx="7.8" ry="7.8"/>
		</g>
	</g>
</g>
<ellipse class="st1" cx="44.1" cy="87.5" rx="4.4" ry="4.4"/>
<g id="Layer_x0020_1">
	<path d="M100.8,73.4c4.5,0,8.1,3.2,8.9,7.5h28.8c0.8-4.3,4.5-7.5,8.9-7.5c5.1,0,9.1,4.1,9.1,9.1s-4.1,9.1-9.1,9.1
		c-4.5,0-8.1-3.2-8.9-7.5h-12l1.8,46.6l10.3,6.6v19.1l-22.3-0.4l-2-15.7l-1.1,16.1h-3.8v-19.2l10.2-6.6l1.2-46.6h-11
		c-0.8,4.3-4.6,7.5-9,7.5c-5.1,0-9.1-4.1-9.1-9.1C91.7,77.4,95.9,73.4,100.8,73.4z"/>
</g>
</svg>
