<?xml version="1.0" encoding="utf-8"?>
<!-- Generator: Adobe Illustrator 23.0.3, SVG Export Plug-In . SVG Version: 6.00 Build 0)  -->
<svg version="1.1" id="Livello_1" xmlns="http://www.w3.org/2000/svg" xmlns:xlink="http://www.w3.org/1999/xlink" x="0px" y="0px"
	 viewBox="0 0 184.3 184.3" style="enable-background:new 0 0 184.3 184.3;" xml:space="preserve">
<style type="text/css">
	.st0{fill:none;stroke:#000000;stroke-width:5.5155;stroke-linecap:round;stroke-miterlimit:10;}
	.st1{fill:#1D1D1B;stroke:#000000;stroke-width:5.5155;stroke-linecap:round;stroke-miterlimit:10;}
	.st2{fill:#1D1D1B;stroke:#000000;stroke-width:7.1701;stroke-linecap:round;stroke-miterlimit:10;}
</style>
<g>
	<g>
		<polyline class="st0" points="30.5,26.2 30.5,111.6 153.7,110.5 		"/>
		<g>
			<ellipse class="st1" cx="81.1" cy="51.7" rx="4.4" ry="4.4"/>
			<ellipse class="st2" cx="114.1" cy="51.7" rx="10.1" ry="10.2"/>
			<ellipse class="st1" cx="81.1" cy="91.5" rx="4.4" ry="4.4"/>
			<ellipse class="st1" cx="48.1" cy="51.7" rx="7.8" ry="7.8"/>
			<ellipse class="st1" cx="114.1" cy="91.5" rx="7.8" ry="7.8"/>
		</g>
	</g>
</g>
<ellipse class="st1" cx="48.1" cy="91.5" rx="4.4" ry="4.4"/>
<path d="M62.9,138.2c0-3.4,0.5-6.3,1.6-8.6c0.7-1.7,1.8-3.2,3.1-4.6c1.3-1.3,2.8-2.3,4.3-3c2-0.8,4.5-1.3,7.2-1.3
	c4.9,0,8.9,1.6,11.8,4.6c3,3.1,4.5,7.4,4.5,12.8c0,5.4-1.5,9.6-4.4,12.7c-3,3.1-6.9,4.6-11.7,4.6c-5,0-8.9-1.5-11.9-4.5
	C64.4,147.7,62.9,143.5,62.9,138.2z M69.9,138c0,3.8,0.8,6.6,2.6,8.6c1.7,1.9,4,2.9,6.7,2.9c2.7,0,4.9-1,6.6-2.9
	c1.7-1.9,2.5-4.8,2.5-8.7c0-3.8-0.8-6.7-2.5-8.6s-3.9-2.8-6.7-2.8c-2.8,0-5.1,1-6.7,2.9C70.8,131.2,69.9,134.1,69.9,138z
	 M116.1,131.9c0,2.6-1.1,3.4-3.1,3.4h-2v4.6h1.7c2.3,0,3.4,1.1,3.4,4.2v2.6c0,2.9-1,3.7-2.7,3.7s-2.7-0.9-2.7-3.2v-3.1H106v2.7
	c0,5.2,2.6,8.2,7.6,8.2c5.1,0,7.7-3,7.7-8.2v-2.5c0-3.3-1-5.7-3.6-6.8v-0.1c2.4-1,3.6-3.1,3.6-6.6v-0.8c0-5.2-2.6-8.2-7.7-8.2
	c-5,0-7.6,3-7.6,8.2v1.7h4.8v-2.1c0-2.3,1-3.2,2.7-3.2s2.7,0.8,2.7,3.7V131.9z"/>
</svg>
