<?xml version="1.0" encoding="utf-8"?>
<!-- Generator: Adobe Illustrator 23.0.3, SVG Export Plug-In . SVG Version: 6.00 Build 0)  -->
<svg version="1.1" id="Livello_1" xmlns="http://www.w3.org/2000/svg" xmlns:xlink="http://www.w3.org/1999/xlink" x="0px" y="0px"
	 viewBox="0 0 184.3 184.3" style="enable-background:new 0 0 184.3 184.3;" xml:space="preserve">
<style type="text/css">
	.st0{fill:none;stroke:#000000;stroke-width:5.5155;stroke-linecap:round;stroke-miterlimit:10;}
	.st1{fill:#1D1D1B;stroke:#000000;stroke-width:5.5155;stroke-linecap:round;stroke-miterlimit:10;}
	.st2{fill:#1D1D1B;stroke:#000000;stroke-width:7.1701;stroke-linecap:round;stroke-miterlimit:10;}
</style>
<g>
	<g>
		<polyline class="st0" points="30.5,26.2 30.5,111.6 153.7,110.5 		"/>
		<g>
			<ellipse class="st1" cx="81.1" cy="51.7" rx="4.4" ry="4.4"/>
			<ellipse class="st2" cx="114.1" cy="51.7" rx="10.1" ry="10.2"/>
			<ellipse class="st1" cx="81.1" cy="91.5" rx="4.4" ry="4.4"/>
			<ellipse class="st1" cx="48.1" cy="51.7" rx="7.8" ry="7.8"/>
			<ellipse class="st1" cx="114.1" cy="91.5" rx="7.8" ry="7.8"/>
		</g>
	</g>
</g>
<ellipse class="st1" cx="48.1" cy="91.5" rx="4.4" ry="4.4"/>
<path d="M41.2,141.8h2.4v6.2c0,2.4-1.1,3.2-2.7,3.2c-1.7,0-2.7-0.8-2.7-3.2v-18.2c0-2.4,1.1-3.4,2.7-3.4c1.7,0,2.7,0.9,2.7,3.4v3.6
	h5.1v-3.3c0-5.4-2.7-8.5-7.9-8.5s-7.9,3.1-7.9,8.5v17.6c0,5.4,2.7,8.5,7.9,8.5s7.9-3.1,7.9-8.5V137h-7.4V141.8z M68.6,155.8
	c-0.6-1.2-0.6-2.4-0.6-4.1v-5.2c0-3.5-0.9-6-3.6-7.1v-0.1c2.4-1.1,3.5-3.3,3.5-6.8v-2.6c0-5.2-2.4-7.8-7.9-7.8h-8v33.8h5.3v-13.7
	h1.8c2.4,0,3.5,1.2,3.5,4.3v5.3c0,2.7,0.2,3.2,0.4,4.1H68.6z M60,126.9c1.9,0,2.7,1.1,2.7,3.4v3.4c0,2.7-1.2,3.6-3.2,3.6h-2.1v-10.4
	H60z M83.3,122.1h-7.8l-5.4,33.8H75l0.9-6.1h6.5l0.9,6.1h5.4L83.3,122.1z M79.1,128L79.1,128l2.6,17.1h-5.1L79.1,128z M91.1,155.8
	h14V151h-8.7v-29h-5.3V155.8z M120.3,141.3h6v14.5h5.4v-33.8h-5.4v14.5h-6v-14.5H115v33.8h5.3V141.3z M135.6,155.8h8.4
	c5.3,0,7.9-2.9,7.9-8.3v-17.1c0-5.4-2.6-8.4-7.9-8.4h-8.4V155.8z M143.9,126.9c1.7,0,2.7,0.9,2.7,3.2v17.6c0,2.4-1,3.2-2.7,3.2h-3
	v-24.1H143.9z"/>
</svg>
