<?xml version="1.0" encoding="utf-8"?>
<!-- Generator: Adobe Illustrator 23.0.3, SVG Export Plug-In . SVG Version: 6.00 Build 0)  -->
<svg version="1.1" id="Livello_1" xmlns="http://www.w3.org/2000/svg" xmlns:xlink="http://www.w3.org/1999/xlink" x="0px" y="0px"
	 viewBox="0 0 184.3 184.3" style="enable-background:new 0 0 184.3 184.3;" xml:space="preserve">
<style type="text/css">
	.st0{fill:none;stroke:#000000;stroke-width:5.5155;stroke-linecap:round;stroke-miterlimit:10;}
	.st1{fill:#1D1D1B;stroke:#000000;stroke-width:5.5155;stroke-linecap:round;stroke-miterlimit:10;}
	.st2{fill:#1D1D1B;stroke:#000000;stroke-width:7.1701;stroke-linecap:round;stroke-miterlimit:10;}
</style>
<g>
	<g>
		<polyline class="st0" points="30.5,26.2 30.5,111.6 153.7,110.5 		"/>
		<g>
			<ellipse class="st1" cx="81.1" cy="51.7" rx="4.4" ry="4.4"/>
			<ellipse class="st2" cx="114.1" cy="51.7" rx="10.1" ry="10.2"/>
			<ellipse class="st1" cx="81.1" cy="91.5" rx="4.4" ry="4.4"/>
			<ellipse class="st1" cx="48.1" cy="51.7" rx="7.8" ry="7.8"/>
			<ellipse class="st1" cx="114.1" cy="91.5" rx="7.8" ry="7.8"/>
		</g>
	</g>
</g>
<ellipse class="st1" cx="48.1" cy="91.5" rx="4.4" ry="4.4"/>
<path d="M71.9,156.1h5.5v-33.8h-4.8v20.3h-0.1l-5.3-20.3h-6.7v33.8h4.8v-24.5h0.1L71.9,156.1z M86.1,130c0-2.4,1.1-3.3,2.8-3.3
	s2.8,0.9,2.8,3.3v18.3c0,2.4-1.1,3.3-2.8,3.3s-2.8-0.9-2.8-3.3V130z M80.8,147.9c0,5.4,2.8,8.5,8.1,8.5c5.2,0,8.1-3.1,8.1-8.5v-17.6
	c0-5.4-2.9-8.5-8.1-8.5c-5.3,0-8.1,3.1-8.1,8.5V147.9z M118.4,130.5c0,3.6-1.1,6.3-5.2,10.6c-4,4.2-5.3,7-5.3,10.8v4.2h15.3v-4.8
	h-10c-0.1-0.3-0.1-0.5-0.1-0.8c0-1.8,0.9-3.4,4-6.8c4.9-5.3,6.6-8.9,6.6-13.4c0-5.4-2.7-8.5-7.9-8.5c-5.2,0-7.9,3.1-7.9,8.5v3.3h5
	V130c0-2.4,1.1-3.3,2.8-3.3S118.4,127.5,118.4,130.5z"/>
</svg>
