<?xml version="1.0" encoding="utf-8"?>
<!-- Generator: Adobe Illustrator 23.0.3, SVG Export Plug-In . SVG Version: 6.00 Build 0)  -->
<svg version="1.1" id="Livello_1" xmlns="http://www.w3.org/2000/svg" xmlns:xlink="http://www.w3.org/1999/xlink" x="0px" y="0px"
	 viewBox="0 0 184.3 184.3" style="enable-background:new 0 0 184.3 184.3;" xml:space="preserve">
<style type="text/css">
	.st0{fill:none;stroke:#000000;stroke-width:5.5155;stroke-linecap:round;stroke-miterlimit:10;}
	.st1{fill:#1D1D1B;stroke:#000000;stroke-width:5.5155;stroke-linecap:round;stroke-miterlimit:10;}
	.st2{fill:#1D1D1B;stroke:#000000;stroke-width:7.1701;stroke-linecap:round;stroke-miterlimit:10;}
</style>
<g>
	<g>
		<polyline class="st0" points="30.5,26.2 30.5,111.6 153.7,110.5 		"/>
		<g>
			<ellipse class="st1" cx="81.1" cy="51.7" rx="4.4" ry="4.4"/>
			<ellipse class="st2" cx="114.1" cy="51.7" rx="10.1" ry="10.2"/>
			<ellipse class="st1" cx="81.1" cy="91.5" rx="4.4" ry="4.4"/>
			<ellipse class="st1" cx="48.1" cy="51.7" rx="7.8" ry="7.8"/>
			<ellipse class="st1" cx="114.1" cy="91.5" rx="7.8" ry="7.8"/>
		</g>
	</g>
</g>
<ellipse class="st1" cx="48.1" cy="91.5" rx="4.4" ry="4.4"/>
<path d="M40.2,142.1h2.4v6.1c0,2.4-1.1,3.3-2.8,3.3c-1.6,0-2.7-0.9-2.7-3.3v-18c0-2.4,1.1-3.3,2.7-3.3c1.7,0,2.8,0.9,2.8,3.3v3.6
	h4.9v-3.3c0-5.3-2.7-8.4-7.8-8.4s-7.8,3.1-7.8,8.4v17.3c0,5.3,2.7,8.4,7.8,8.4s7.8-3.1,7.8-8.4v-10.6h-7.3V142.1z M67.2,155.9
	c-0.5-1.3-0.6-2.4-0.6-4.1v-5.1c0-3.5-0.8-5.9-3.4-7.1v-0.1c2.3-1.1,3.4-3.3,3.4-6.8v-2.6c0-5.1-2.4-7.6-7.8-7.6h-7.9v33.3h5.3
	v-13.6H58c2.4,0,3.4,1.1,3.4,4.3v5.2c0,2.8,0.2,3.3,0.4,4.1H67.2z M58.7,127.3c1.9,0,2.7,1.1,2.7,3.4v3.3c0,2.7-1.2,3.6-3.1,3.6
	h-2.1v-10.3H58.7z M81.7,122.6H74l-5.3,33.3h4.8l0.9-6.1h6.4l0.9,6.1H87L81.7,122.6z M77.5,128.4L77.5,128.4l2.6,16.9H75L77.5,128.4
	z M89.4,155.9h13.9v-4.8h-8.6v-28.6h-5.3V155.9z M123,132.6c0,2.6-1.2,3.5-3.2,3.5h-2v4.8h1.8c2.4,0,3.4,1.1,3.4,4.3v2.6
	c0,2.9-1.1,3.8-2.8,3.8c-1.6,0-2.7-0.9-2.7-3.3v-3.1h-4.9v2.8c0,5.3,2.6,8.4,7.8,8.4c5.2,0,7.8-3.1,7.8-8.4v-2.6
	c0-3.4-1-5.8-3.6-6.9v-0.1c2.5-1,3.6-3.2,3.6-6.8v-0.9c0-5.3-2.6-8.4-7.8-8.4c-5.1,0-7.8,3.1-7.8,8.4v1.8h4.9v-2.2
	c0-2.4,1.1-3.3,2.7-3.3c1.7,0,2.8,0.8,2.8,3.8V132.6z M139,122.6h-7.3v33.3h4.6v-23.6h0.1l3.8,23.6h5l3.5-23.9h0.1v23.9h4.9v-33.3
	h-7.3l-3.5,23.6h-0.1L139,122.6z"/>
</svg>
