<?xml version="1.0" encoding="utf-8"?>
<!-- Generator: Adobe Illustrator 23.0.3, SVG Export Plug-In . SVG Version: 6.00 Build 0)  -->
<svg version="1.1" id="Livello_1" xmlns="http://www.w3.org/2000/svg" xmlns:xlink="http://www.w3.org/1999/xlink" x="0px" y="0px"
	 viewBox="0 0 184.3 184.3" style="enable-background:new 0 0 184.3 184.3;" xml:space="preserve">
<style type="text/css">
	.st0{fill:none;stroke:#FFFFFF;stroke-width:5.5155;stroke-linecap:round;stroke-miterlimit:10;}
	.st1{fill:#E2E2E4;stroke:#FFFFFF;stroke-width:5.5155;stroke-linecap:round;stroke-miterlimit:10;}
	.st2{fill:#E2E2E4;stroke:#FFFFFF;stroke-width:7.1701;stroke-linecap:round;stroke-miterlimit:10;}
	.st3{fill:#FFFFFF;}
</style>
<g>
	<g>
		<polyline class="st0" points="30.5,26.2 30.5,111.6 153.7,110.5 		"/>
		<g>
			<ellipse class="st1" cx="81.1" cy="51.7" rx="4.4" ry="4.4"/>
			<ellipse class="st2" cx="114.1" cy="51.7" rx="10.1" ry="10.2"/>
			<ellipse class="st1" cx="81.1" cy="91.5" rx="4.4" ry="4.4"/>
			<ellipse class="st1" cx="48.1" cy="51.7" rx="7.8" ry="7.8"/>
			<ellipse class="st1" cx="114.1" cy="91.5" rx="7.8" ry="7.8"/>
		</g>
	</g>
</g>
<ellipse class="st1" cx="48.1" cy="91.5" rx="4.4" ry="4.4"/>
<path class="st3" d="M52.1,121.2h-7.8v33.8h5.3v-12.7h2.5c5.3,0,7.9-2.9,7.9-8.4v-4.4C60,124.2,57.4,121.2,52.1,121.2z M52.1,126
	c1.7,0,2.6,0.8,2.6,3.2v5.1c0,2.4-0.9,3.2-2.6,3.2h-2.5V126H52.1z M69.9,121.2h-7.4v33.8h4.6v-24h0.1l3.9,24h5.1l3.6-24.3h0.1v24.3
	h5.1v-33.8h-7.4l-3.6,24h-0.1L69.9,121.2z M106.7,129.5c0,3.6-1.2,6.3-5.3,10.6c-3.9,4.2-5.3,7-5.3,10.8v4.2h15.4v-4.8h-10.1
	c0-0.3,0-0.5,0-0.8c0-1.8,0.9-3.4,4-6.8c4.9-5.3,6.6-8.9,6.6-13.4c0-5.4-2.7-8.5-7.9-8.5c-5.2,0-7.9,3.1-7.9,8.5v3.3h5.1V129
	c0-2.4,1.1-3.3,2.8-3.3S106.7,126.5,106.7,129.5z M115.3,149.9v5.1h5.1v-5.1H115.3z M124,144.1v2.8c0,5.4,2.8,8.5,7.9,8.5
	c5.3,0,7.9-3.1,7.9-8.5v-7.5c0-5-2-7.8-5.9-7.8c-2.1,0-3.6,0.9-4.6,2.4h-0.1l0.4-8.1h9.3v-4.8h-14l-1,19.6h5.1v-1.1
	c0-2.4,1.1-3.3,2.8-3.3c1.7,0,2.8,0.9,2.8,3.3v7.5c0,2.4-1.1,3.3-2.8,3.3c-1.7,0-2.8-0.9-2.8-3.3v-3.2H124z"/>
</svg>
