<?xml version="1.0" encoding="utf-8"?>
<!-- Generator: Adobe Illustrator 23.0.3, SVG Export Plug-In . SVG Version: 6.00 Build 0)  -->
<svg version="1.1" id="Livello_1" xmlns="http://www.w3.org/2000/svg" xmlns:xlink="http://www.w3.org/1999/xlink" x="0px" y="0px"
	 viewBox="0 0 184.3 184.3" style="enable-background:new 0 0 184.3 184.3;" xml:space="preserve">
<style type="text/css">
	.st0{fill:none;stroke:#FFFFFF;stroke-width:5.5155;stroke-linecap:round;stroke-miterlimit:10;}
	.st1{fill:#E2E2E4;stroke:#FFFFFF;stroke-width:5.5155;stroke-linecap:round;stroke-miterlimit:10;}
	.st2{fill:#E2E2E4;stroke:#FFFFFF;stroke-width:7.1701;stroke-linecap:round;stroke-miterlimit:10;}
	.st3{fill-rule:evenodd;clip-rule:evenodd;}
	.st4{fill-rule:evenodd;clip-rule:evenodd;fill:#FFFFFF;}
</style>
<g>
	<g>
		<polyline class="st0" points="30.5,26.2 30.5,111.6 153.7,110.5 		"/>
		<g>
			<ellipse class="st1" cx="81.1" cy="51.7" rx="4.4" ry="4.4"/>
			<ellipse class="st2" cx="114.1" cy="51.7" rx="10.1" ry="10.2"/>
			<ellipse class="st1" cx="81.1" cy="91.5" rx="4.4" ry="4.4"/>
			<ellipse class="st1" cx="48.1" cy="51.7" rx="7.8" ry="7.8"/>
			<ellipse class="st1" cx="114.1" cy="91.5" rx="7.8" ry="7.8"/>
		</g>
	</g>
</g>
<ellipse class="st1" cx="48.1" cy="91.5" rx="4.4" ry="4.4"/>
<path class="st3" d="M98.8,147h0.7v-2C99.4,145.7,99.2,146.4,98.8,147z"/>
<path class="st3" d="M99.5,135.7c-0.3,0.3-0.6,0.5-1,0.7c-0.8,0.5-1.7,0.8-2.7,0.8c-0.1,0-0.3,0-0.5,0c0.4,0.4,0.7,0.9,1,1.4
	c0.5,0.3,1,0.6,1.5,1.1c0.9,0.9,1.4,2,1.6,3.2V135.7z"/>
<path class="st4" d="M140.2,144.9c0,4.3-3.6,7.8-7.8,7.8H97.2c-3,0-5.6-1.8-6.9-4.3l-4.2,4.2h-28l20.2-20.2
	c-0.8-5.1,0.9-10.6,4.8-14.5l6.3-6.3V74.7l0,0c0-4.3,3.6-7.8,7.8-7.8h35.1c4.3,0,7.8,3.5,7.8,7.8v0.1h0.1L140.2,144.9L140.2,144.9z
	 M102.6,144.7h36V74.8H91.1v35.1l20.5-20.5c1.6-1.6,4.3-1.6,5.9,0s1.6,4.3,0,5.9L100,113l0.1,0.1c1.6-1.6,4.3-1.6,5.9,0
	c1.6,1.6,1.6,4.2-0.1,5.9l0.1,0.1c1.6-1.6,4.3-1.6,5.9,0c1.6,1.6,1.6,4.3,0,5.9l0,0c1.6-1.6,4.3-1.6,6,0c1.6,1.6,1.6,4.3-0.1,5.9
	h-0.1L107,141.6C105.7,142.9,104.1,143.9,102.6,144.7z M120.1,102.3c-0.5,0-0.9-0.2-1.2-0.7c-0.4-0.7-0.2-1.5,0.5-2
	c2.6-1.6,4.1-4.4,4.1-7.4c0-4.9-3.9-8.8-8.8-8.8c-3.2,0-6.1,1.6-7.6,4.3c-0.4,0.7-1.3,0.9-2,0.5c-0.7-0.5-0.9-1.3-0.5-2
	c2-3.6,5.9-5.7,10-5.7c6.4,0,11.6,5.3,11.6,11.6c0,4.1-2.1,7.8-5.6,9.9C120.7,102.3,120.4,102.3,120.1,102.3z"/>
</svg>
