<?xml version="1.0" encoding="utf-8"?>
<!-- Generator: Adobe Illustrator 23.0.3, SVG Export Plug-In . SVG Version: 6.00 Build 0)  -->
<svg version="1.1" id="Livello_1" xmlns="http://www.w3.org/2000/svg" xmlns:xlink="http://www.w3.org/1999/xlink" x="0px" y="0px"
	 viewBox="0 0 184.3 184.3" style="enable-background:new 0 0 184.3 184.3;" xml:space="preserve">
<style type="text/css">
	.st0{fill:none;stroke:#000000;stroke-width:5.5155;stroke-linecap:round;stroke-miterlimit:10;}
	.st1{fill:#1D1D1B;stroke:#000000;stroke-width:5.5155;stroke-linecap:round;stroke-miterlimit:10;}
	.st2{fill:#1D1D1B;stroke:#000000;stroke-width:7.1701;stroke-linecap:round;stroke-miterlimit:10;}
	.st3{fill-rule:evenodd;clip-rule:evenodd;fill:#FFFFFF;}
	.st4{fill-rule:evenodd;clip-rule:evenodd;}
</style>
<g>
	<g>
		<polyline class="st0" points="30.5,26.2 30.5,111.6 89,111.1 		"/>
		<g>
			<ellipse class="st1" cx="81.1" cy="51.7" rx="4.4" ry="4.4"/>
			<ellipse class="st2" cx="114.1" cy="51.7" rx="10.1" ry="10.2"/>
			<ellipse class="st1" cx="81.1" cy="91.5" rx="4.4" ry="4.4"/>
			<ellipse class="st1" cx="48.1" cy="51.7" rx="7.8" ry="7.8"/>
		</g>
	</g>
</g>
<ellipse class="st1" cx="48.1" cy="91.5" rx="4.4" ry="4.4"/>
<path class="st3" d="M98.8,147h0.7v-2C99.4,145.7,99.2,146.4,98.8,147z"/>
<path class="st3" d="M99.5,135.7c-0.3,0.3-0.6,0.5-1,0.7c-0.8,0.5-1.7,0.8-2.7,0.8c-0.1,0-0.3,0-0.5,0c0.4,0.4,0.7,0.9,1,1.4
	c0.5,0.3,1,0.6,1.5,1.1c0.9,0.9,1.4,2,1.6,3.2V135.7z"/>
<g id="Layer_x0020_1">
	<path class="st4" d="M131.8,99c0-10.5-8.1-19.2-18.2-19.2S95.4,88.4,95.4,99c0,4.8,0.9,9.7,1.7,14.3c0.8,4.5,1.6,9.2,1.6,13.7
		c0,6.8,5.2,12.3,11.5,12.3s11.6-5.5,11.6-12.3c0-0.9-0.1-1.8-0.2-2.6c-0.8-4.2,2.1-9,4.8-11.9C129.9,109,131.8,104.1,131.8,99z
		 M137.6,97l13.2-7l-1.5-3.1l-13.2,7L137.6,97z M149.3,131.9l1.5-3.1l-13.2-7l-1.5,3.1L149.3,131.9z M135.2,111.2h16.6v-3.5h-16.6
		V111.2z M115.8,87c-7.3-1.4-13.7,4.5-13.7,12c0,4.2,0.8,8.4,1.6,13c0.2,1.4,0.5,2.9,0.8,4.4c0.5,3.1,2.9,5.3,5.7,5.3
		c2.8,0,5.2-2.1,5.7-5c0-0.6,2-6.2-2.1-11.4c-2.1-2.7-5.1-4.3-8.4-4.5c-0.1-0.6-0.1-1.2-0.1-1.8c0-5.3,4.5-9.5,9.9-8.6
		c6.4,1.3,8.9,9.8,4.3,14.8l2.3,2.4C128.3,100.8,124.9,88.8,115.8,87z M111.2,107.4c3,3.9,1.5,8,1.5,8.6c-0.2,1.2-1.3,2.2-2.6,2.2
		c-1.2,0-2.3-1-2.5-2.3c-0.2-1.5-0.5-3.1-0.8-4.5c-0.5-2.4-0.9-4.8-1.2-7.1C107.9,104.5,109.9,105.7,111.2,107.4z M118.4,125.1
		c0.1,0.6,0.2,1.3,0.2,1.9c0,4.8-3.7,8.8-8.3,8.8c-4.5,0-8.2-4-8.2-8.8c0-4.8-0.8-9.7-1.6-14.3c-0.8-4.5-1.6-9.2-1.6-13.7
		c0-8.6,6.6-15.7,14.9-15.7c8.2,0,14.9,7,14.9,15.7c0,4.2-1.6,8.1-4.4,11.1C120.6,113.7,117.3,119.6,118.4,125.1z"/>
</g>
</svg>
