<?xml version="1.0" encoding="utf-8"?>
<!-- Generator: Adobe Illustrator 23.0.3, SVG Export Plug-In . SVG Version: 6.00 Build 0)  -->
<svg version="1.1" id="Livello_1" xmlns="http://www.w3.org/2000/svg" xmlns:xlink="http://www.w3.org/1999/xlink" x="0px" y="0px"
	 viewBox="0 0 184.3 184.3" style="enable-background:new 0 0 184.3 184.3;" xml:space="preserve">
<style type="text/css">
	.st0{fill:none;stroke:#000000;stroke-width:5.5155;stroke-linecap:round;stroke-miterlimit:10;}
	.st1{fill:#1D1D1B;stroke:#000000;stroke-width:5.5155;stroke-linecap:round;stroke-miterlimit:10;}
	.st2{fill:#1D1D1B;stroke:#000000;stroke-width:7.1701;stroke-linecap:round;stroke-miterlimit:10;}
	.st3{fill-rule:evenodd;clip-rule:evenodd;fill:#FFFFFF;}
	.st4{fill-rule:evenodd;clip-rule:evenodd;}
</style>
<g>
	<g>
		<polyline class="st0" points="30.5,26.2 30.5,111.6 89,111.1 		"/>
		<g>
			<ellipse class="st1" cx="81.1" cy="51.7" rx="4.4" ry="4.4"/>
			<ellipse class="st2" cx="114.1" cy="51.7" rx="10.1" ry="10.2"/>
			<ellipse class="st1" cx="81.1" cy="91.5" rx="4.4" ry="4.4"/>
			<ellipse class="st1" cx="48.1" cy="51.7" rx="7.8" ry="7.8"/>
		</g>
	</g>
</g>
<ellipse class="st1" cx="48.1" cy="91.5" rx="4.4" ry="4.4"/>
<path class="st3" d="M98.8,147h0.7v-2C99.4,145.7,99.2,146.4,98.8,147z"/>
<g id="Layer_x0020_1">
	<path class="st4" d="M138.1,115.5c-2.7,0-5.2,0.5-7.6,1.5l-5.5-10.7h7.7c0.8,0,1.6,0.7,1.6,1.5c0,0.9-0.7,1.6-1.6,1.6h-1.6
		c-0.8,0-1.6,0.7-1.6,1.6c0,0.9,0.7,1.6,1.6,1.6h1.6c2.6,0,4.7-2.1,4.7-4.7c0-2.5-2.1-4.7-4.7-4.7h-10.3c-0.6,0-1,0.3-1.4,0.8
		c-0.3,0.5-0.3,1,0,1.6l2.7,5.3h-22.7l-2.3-4.6h3.6c0.9,0,1.6-0.7,1.6-1.6s-0.7-1.6-1.6-1.6H92.2c-0.9,0-1.6,0.7-1.6,1.6
		s0.7,1.6,1.6,1.6h3.1l3.1,6.1l-3.6,5.5c-2.8-1.4-5.9-2.3-9.2-2.3c-10.7,0-19.5,8.8-19.5,19.5c0,10.8,8.8,19.5,19.5,19.5
		c10.2,0,18.6-7.9,19.5-17.9h4.6l-1.8,5.9h-1c-0.8,0-1.6,0.7-1.6,1.6s0.7,1.6,1.6,1.6h5.7c0.9,0,1.6-0.7,1.6-1.6s-0.7-1.6-1.6-1.6
		h-1.3l2-6.8l13.1-20.2l1.6,3c-5.5,3.4-9.2,9.6-9.2,16.5c0,10.7,8.8,19.5,19.5,19.5c10.8,0,19.5-8.8,19.5-19.5
		C157.6,124.2,148.9,115.5,138.1,115.5z M99.9,115.5l9.2,18h-4.2c-0.5-5.7-3.3-10.7-7.6-13.9L99.9,115.5z M101.8,133.4H88.4
		l7.3-11.3C99,124.8,101.4,128.9,101.8,133.4z M85.5,151.3c-9.1,0-16.3-7.4-16.3-16.3c0-9.1,7.4-16.4,16.3-16.4
		c2.7,0,5.3,0.7,7.6,1.8l-8.9,13.7c-0.3,0.5-0.3,1.1-0.1,1.6c0.3,0.5,0.8,0.8,1.4,0.8h16.3C101,144.8,94,151.3,85.5,151.3z
		 M111.8,131.8l-9.2-18h20.8L111.8,131.8z M138.1,151.3c-9.1,0-16.4-7.4-16.4-16.3c0-5.8,3.1-10.9,7.6-13.7l7.5,14.5
		c0.3,0.6,0.8,0.9,1.4,0.9c0.2,0,0.5-0.1,0.7-0.2c0.8-0.4,1-1.3,0.7-2.1l-7.5-14.5c1.9-0.8,3.9-1.2,6.1-1.2
		c9.1,0,16.3,7.4,16.3,16.4C154.5,144,147.1,151.3,138.1,151.3z"/>
</g>
</svg>
