<?xml version="1.0" encoding="utf-8"?>
<!-- Generator: Adobe Illustrator 23.0.3, SVG Export Plug-In . SVG Version: 6.00 Build 0)  -->
<svg version="1.1" id="Livello_1" xmlns="http://www.w3.org/2000/svg" xmlns:xlink="http://www.w3.org/1999/xlink" x="0px" y="0px"
	 viewBox="0 0 184.3 184.3" style="enable-background:new 0 0 184.3 184.3;" xml:space="preserve">
<style type="text/css">
	.st0{fill:none;stroke:#FFFFFF;stroke-width:5.5155;stroke-linecap:round;stroke-miterlimit:10;}
	.st1{fill:#E2E2E4;stroke:#FFFFFF;stroke-width:5.5155;stroke-linecap:round;stroke-miterlimit:10;}
	.st2{fill:#E2E2E4;stroke:#FFFFFF;stroke-width:7.1701;stroke-linecap:round;stroke-miterlimit:10;}
	.st3{fill-rule:evenodd;clip-rule:evenodd;}
	.st4{fill-rule:evenodd;clip-rule:evenodd;fill:#FEFEFE;}
</style>
<g>
	<g>
		<polyline class="st0" points="24.9,30.1 24.9,115.6 83.4,115.1 		"/>
		<g>
			<ellipse class="st1" cx="75.5" cy="55.7" rx="4.4" ry="4.4"/>
			<ellipse class="st2" cx="108.5" cy="55.7" rx="10.1" ry="10.2"/>
			<ellipse class="st1" cx="75.5" cy="95.5" rx="4.4" ry="4.4"/>
			<ellipse class="st1" cx="42.5" cy="55.7" rx="7.8" ry="7.8"/>
		</g>
	</g>
</g>
<ellipse class="st1" cx="42.5" cy="95.5" rx="4.4" ry="4.4"/>
<path class="st3" d="M98.8,147h0.7v-2C99.4,145.7,99.2,146.4,98.8,147z"/>
<path class="st3" d="M94,139.7c-0.3,0.3-0.6,0.5-1,0.7c-0.8,0.5-1.7,0.8-2.7,0.8c-0.1,0-0.3,0-0.5,0c0.4,0.4,0.7,0.9,1,1.4
	c0.5,0.3,1,0.6,1.5,1.1c0.9,0.9,1.4,2,1.6,3.2V139.7z"/>
<g id="Layer_x0020_1">
	<g id="_2664757780464">
		<g>
			<path class="st4" d="M114.6,97.1c-0.4-0.2-0.8-0.9-1.1-1.3l0.4-0.7c1.7-3.1,3.8-5.3,7.4-6.6c5.6-2,11,0,14.6,4.4
				c4.1,5,3.1,14.2-1.5,17.3c0.6-2.7,0.6-1.2,0.6-4.5c0-5.9-6.1-10.8-11.7-10.8C116.8,94.9,117.2,96.4,114.6,97.1z M111.4,94
				c-2.2-1.1-4.5-2.5-7.7-2.5c-8.3,0-15.1,6.9-12.9,14.5c0.3,1,0.8,1.6,1,2.5c-0.8,1-1.7,0.8-3.3,3.2c-3,4.5-2,10.1,2.3,13.3
				c3.1,2.3,3.7,2,8.8,2c7.8,0,13.6,0.2,21.2,0.2c-0.3,0.5-2.7,3.6-3.4,3.6c-1.1,0-4.1-0.5-4.8,2.9c-0.3,1.6,0.8,4.3,3.7,4.3
				c2.3,0,3.6-1.7,3.6-4.1c0-2.1-0.9,0.1,1.9-3.5c0.9-1.2,1.6-1.4,2.1-2.9c0,0,0-0.1,0-0.1l0-0.1c0,0,0-0.1,0-0.1
				c5.8,0,11.7,0.8,15.1-3.5c2.3-2.8,2.5-6.5,0.4-9.5c-0.9-1.4-1.1-1.6-2.5-2.5c0.7-1,1.8-1.9,2.9-4.3c1.9-4,1.8-9.3-0.2-13.4
				l-2.3-3.4c-2.8-2.9-4.1-3.9-8.3-5.2c-3-0.9-5.7-0.7-8.5,0.3C117.1,86.8,112.2,90.6,111.4,94z"/>
			<path class="st4" d="M151.1,109.7c0-2.1-1.6-1.8-4.6-2.8c-1.4-0.5-4.2-1.8-4.3,0.4c-0.1,1.7,4.4,2.5,6.8,3.3
				C149.9,110.9,151.1,110.9,151.1,109.7z"/>
			<path class="st4" d="M105.1,85.2c0,0.8,0.7,1.3,1.2,1.7c0.9,0.6,4.1,3.9,5.1,3.9c0.8,0,1.3-0.6,1.3-1.6c0-0.8-5.3-5.4-5.9-5.4
				C106.3,83.8,105.1,83.8,105.1,85.2z"/>
			<path class="st4" d="M118.6,75.7c0,0.6,0.9,3.3,1.1,4.1c0.3,1.1,0.6,3.5,1.8,3.5c2.7,0,1.2-3.1,0.5-5.5c-0.3-1.1-0.6-3.5-1.8-3.5
				C119.3,74.3,118.6,74.8,118.6,75.7z"/>
			<path class="st4" d="M134,83.8c0,1.2,1.5,2.5,2.8,0.1c0.4-0.7,0.7-1.2,1.1-1.8c0.5-1,1.9-3.3,1.9-4.1c0-0.9-1.7-2.2-3,0.1
				C136.3,79.1,134,82.9,134,83.8z"/>
			<path class="st4" d="M143.2,95.8c1,0,5.1-1.3,6.5-1.6c2-0.6,1.8-1,1.4-2.7c-2-0.4-3.4,0.4-6.2,1.1
				C141.8,93.4,141.9,93.8,143.2,95.8z"/>
			<path class="st4" d="M100.1,136.3c0,0.9,1.3,2.3,2.9,0.4c0.3-0.4,0.2-0.4,0.6-0.8c0.3-0.3,0.4-0.4,0.6-0.7
				c0.5-0.6,2.2-2.5,2.2-3.2c0-0.8-1-2.5-3-0.3c-0.5,0.5-0.8,0.9-1.2,1.4C101.8,133.8,100.1,135.7,100.1,136.3z"/>
			<path class="st4" d="M104,145.6c0,0.6,0.1,0.6,0.2,1.1c2.4,0.6,1.9-0.3,4.9-3.7c2.3-2.6-0.2-4.2-1.8-2.1c-0.4,0.6-0.8,1-1.2,1.5
				C105.1,143.6,104,144.6,104,145.6z"/>
		</g>
	</g>
</g>
</svg>
