<?xml version="1.0" encoding="utf-8"?>
<!-- Generator: Adobe Illustrator 23.0.3, SVG Export Plug-In . SVG Version: 6.00 Build 0)  -->
<svg version="1.1" id="Livello_1" xmlns="http://www.w3.org/2000/svg" xmlns:xlink="http://www.w3.org/1999/xlink" x="0px" y="0px"
	 viewBox="0 0 184.3 184.3" style="enable-background:new 0 0 184.3 184.3;" xml:space="preserve">
<style type="text/css">
	.st0{fill:none;stroke:#000000;stroke-width:5.5155;stroke-linecap:round;stroke-miterlimit:10;}
	.st1{fill:#1D1D1B;stroke:#000000;stroke-width:5.5155;stroke-linecap:round;stroke-miterlimit:10;}
	.st2{fill:#1D1D1B;stroke:#000000;stroke-width:7.1701;stroke-linecap:round;stroke-miterlimit:10;}
</style>
<g>
	<g>
		<polyline class="st0" points="30.5,26.2 30.5,111.6 153.7,110.5 		"/>
		<g>
			<ellipse class="st1" cx="81.1" cy="51.7" rx="4.4" ry="4.4"/>
			<ellipse class="st2" cx="114.1" cy="51.7" rx="10.1" ry="10.2"/>
			<ellipse class="st1" cx="81.1" cy="91.5" rx="4.4" ry="4.4"/>
			<ellipse class="st1" cx="48.1" cy="51.7" rx="7.8" ry="7.8"/>
			<ellipse class="st1" cx="114.1" cy="91.5" rx="7.8" ry="7.8"/>
		</g>
	</g>
</g>
<ellipse class="st1" cx="48.1" cy="91.5" rx="4.4" ry="4.4"/>
<path d="M52,126.9c0,2.6,2.1,4.8,4.8,4.8c2.7,0,4.8-2.1,4.8-4.8c0-2.7-2.1-4.8-4.8-4.8C54.2,122.1,52,124.2,52,126.9z M54.5,126.9
	c0-1.3,1.1-2.4,2.3-2.4c1.3,0,2.4,1.1,2.4,2.4c0,1.3-1.1,2.4-2.4,2.4C55.5,129.3,54.5,128.2,54.5,126.9z M74.6,143.7v4.8
	c0,2.4-1.1,3.3-2.8,3.3s-2.8-0.9-2.8-3.3v-18.3c0-2.4,1.1-3.3,2.8-3.3s2.8,0.9,2.8,3.3v3.6h5.1v-3.3c0-5.4-2.8-8.5-7.9-8.5
	s-7.9,3.1-7.9,8.5v17.6c0,5.4,2.8,8.5,7.9,8.5s7.9-3.1,7.9-8.5v-4.4H74.6z M81.2,156.3h4.6l13.3-33.8h-4.6L81.2,156.3z M100.1,126.9
	c0,2.6,2.1,4.8,4.8,4.8c2.6,0,4.8-2.1,4.8-4.8c0-2.7-2.1-4.8-4.8-4.8C102.2,122.1,100.1,124.2,100.1,126.9z M102.5,126.9
	c0-1.3,1.1-2.4,2.4-2.4c1.3,0,2.3,1.1,2.3,2.4c0,1.3-1.1,2.4-2.3,2.4C103.6,129.3,102.5,128.2,102.5,126.9z M117.6,127.4h8.8v-4.8
	h-14.1v33.8h5.3v-13.9h6.9v-4.8h-6.9V127.4z"/>
</svg>
