<?xml version="1.0" encoding="utf-8"?>
<!-- Generator: Adobe Illustrator 23.0.3, SVG Export Plug-In . SVG Version: 6.00 Build 0)  -->
<svg version="1.1" id="Livello_1" xmlns="http://www.w3.org/2000/svg" xmlns:xlink="http://www.w3.org/1999/xlink" x="0px" y="0px"
	 viewBox="0 0 184.3 184.3" style="enable-background:new 0 0 184.3 184.3;" xml:space="preserve">
<style type="text/css">
	.st0{fill:none;stroke:#FFFFFF;stroke-width:5.5155;stroke-linecap:round;stroke-miterlimit:10;}
	.st1{fill:#E2E2E4;stroke:#FFFFFF;stroke-width:5.5155;stroke-linecap:round;stroke-miterlimit:10;}
	.st2{fill:#E2E2E4;stroke:#FFFFFF;stroke-width:7.1701;stroke-linecap:round;stroke-miterlimit:10;}
	.st3{fill:#E2E2E4;}
	.st4{fill-rule:evenodd;clip-rule:evenodd;fill:#E2E2E4;}
</style>
<g>
	<g>
		<polyline class="st0" points="30.5,26.2 30.5,111.6 153.7,110.5 		"/>
		<g>
			<ellipse class="st1" cx="81.1" cy="51.7" rx="4.4" ry="4.4"/>
			<ellipse class="st2" cx="114.1" cy="51.7" rx="10.1" ry="10.2"/>
			<ellipse class="st1" cx="81.1" cy="91.5" rx="4.4" ry="4.4"/>
			<ellipse class="st1" cx="48.1" cy="51.7" rx="7.8" ry="7.8"/>
			<ellipse class="st1" cx="114.1" cy="91.5" rx="7.8" ry="7.8"/>
		</g>
	</g>
</g>
<ellipse class="st1" cx="48.1" cy="91.5" rx="4.4" ry="4.4"/>
<path class="st3" d="M59.8,132.4c0-2.2,0.5-3.9,1.5-5c1-1.1,2.3-1.6,4-1.6c1.8,0,3.1,0.5,4.2,1.6c1,1.1,1.5,2.7,1.5,5
	c0,2.2-0.5,3.9-1.5,5c-1,1-2.4,1.6-4.1,1.6c-1.7,0-3.1-0.5-4.1-1.6S59.8,134.7,59.8,132.4z M63.6,132.4c0,1.6,0.2,2.7,0.5,3.3
	c0.3,0.4,0.7,0.6,1.2,0.6c0.5,0,0.9-0.2,1.2-0.6c0.4-0.6,0.5-1.6,0.5-3.3c0-1.6-0.2-2.7-0.5-3.2c-0.3-0.5-0.7-0.6-1.2-0.6
	c-0.5,0-0.9,0.2-1.2,0.6C63.8,129.7,63.6,130.8,63.6,132.4z M69.1,152.5h-3.6l13.4-26.7h3.5L69.1,152.5z M76.9,145.8
	c0-2.2,0.5-3.9,1.5-5s2.3-1.6,4.1-1.6c1.7,0,3.1,0.5,4.1,1.6c1,1.1,1.5,2.8,1.5,5c0,2.3-0.5,4-1.5,5.1c-1,1.1-2.4,1.6-4.1,1.6
	c-1.7,0-3.1-0.5-4.1-1.6S76.9,148.1,76.9,145.8z M80.7,145.8c0,1.6,0.2,2.7,0.5,3.3c0.3,0.5,0.7,0.6,1.2,0.6c0.5,0,1-0.2,1.2-0.6
	c0.4-0.5,0.5-1.7,0.5-3.3c0-1.6-0.2-2.7-0.5-3.3c-0.3-0.4-0.7-0.6-1.2-0.6c-0.5,0-0.9,0.2-1.2,0.6C80.8,143.1,80.7,144.2,80.7,145.8
	z"/>
<path class="st4" d="M110.7,125.6c-0.8-1.1-1.5-2.2-2.1-3.2c-0.1-0.1-0.2-0.3-0.4-0.4c-0.6-0.4-1.3-0.2-1.7,0.4
	c-0.6,1-1.3,2-2.2,3.2c-3.7,5.5-9.3,13.7-9.3,18.4c0,3.4,1.4,6.5,3.7,8.8c2.2,2.2,5.3,3.6,8.8,3.6c3.4,0,6.5-1.4,8.8-3.7
	c2.3-2.3,3.7-5.3,3.7-8.8C120,139.2,114.4,131.1,110.7,125.6z M114.7,151.1c-1.8,1.8-4.3,2.9-7.1,2.9c-2.8,0-5.2-1.1-7.1-2.9
	c-1.9-1.9-3-4.3-3-7.1c0-3.9,5.3-11.8,8.9-17c0.4-0.6,0.8-1.3,1.2-1.7c0.4,0.5,0.7,1.1,1.1,1.7c3.5,5.2,8.9,13.1,8.9,17
	C117.5,146.7,116.4,149.2,114.7,151.1z"/>
<path class="st4" d="M114.9,143.1c-0.7,0-1.2,0.5-1.3,1.1c0,1-0.4,2-0.9,2.8c-0.5,0.9-1.3,1.6-2.1,2.1c-0.6,0.3-0.8,1.1-0.5,1.6
	c0.4,0.7,1.1,0.9,1.7,0.5c1.2-0.7,2.3-1.7,3-3c0.7-1.1,1.2-2.6,1.2-4C116,143.7,115.5,143.2,114.9,143.1z"/>
</svg>
