<?xml version="1.0" encoding="utf-8"?>
<!-- Generator: Adobe Illustrator 23.0.3, SVG Export Plug-In . SVG Version: 6.00 Build 0)  -->
<svg version="1.1" id="Layer_1" xmlns="http://www.w3.org/2000/svg" xmlns:xlink="http://www.w3.org/1999/xlink" x="0px" y="0px"
	 viewBox="0 0 184.3 184.3" style="enable-background:new 0 0 184.3 184.3;" xml:space="preserve">
<g id="Layer_x0020_1">
	<path d="M35.4,112l1.3,34H20.1l17.3,0.2l-9.5-0.2v2h133.9c2.7-0.5,0.7,0.7,2.5-2l-12.8,0.2c0.4-16.9,1.3-57.8-2.5-85.9
		c-2-14.6-9.7-24.3-20.3-24.3c-16,0.2-17.6,14.2-17.6,26.6c0,9.4,0.4,19.1,0,28.4c-9.5-14-13.5-8.8-24.3-17.8
		c0.2-15.7-4.1-5.4-2.7-13c0.9-4.9,0.4,0.9,2.3-3.8c-2.3-2.7-3.8-5.8-7.2-7.6c-3.4,2.2-5,4.9-7.4,7.6c0.9,1.8,3.8,2.9,1.6,7
		c-1.4,2.7-2.2-1.6-2,9.7c-2.9,2.3-9.7,5.6-13.1,7.4c-9,5.2-5.4,2.7-11,10.6c-2.9,4.3-15.3,22.3-16.2,26.5
		C33.9,116.5,34.6,114.7,35.4,112z M77.3,77.1c-5.2,2-20.3,9.4-23.4,13.9c-14.6,21.4-14.2,17.5,27.7,17.5c8.1,0,16.2,0,24.3,0
		c4.9,0,7.9,0.2,5.8-5.2c-0.5-1.3-4-6.3-4.9-7.9c-5.6-8.3-4.1-6.7-13-11.3C90.3,81.9,80.7,75.8,77.3,77.1z M39.3,146.2
		c-1.3-3.2-0.4-22.3-0.5-27.4c0-16.7,2.7-14.4,12.4-30.2c3.2-5.2,26.6-16.2,26.8-16.2c2.3-0.4,25.2,12.1,27.4,15.1l11.3,17.6
		c2.5,4.1,2,7.2,2,12.8v25.2c-0.7,3.2,0.5,1.8-2.2,3.2l-1.3-16.7c0-5.2,0.5-12.8-0.7-16.9c-4-0.9-60.1-1.4-68.2-0.7
		c-6.5,0.5-4.3,9-4.3,23c0,2.2,0.2,5.4,0.2,7.4C42.2,146.7,42.9,146,39.3,146.2z M73.2,66.3l11.3-0.2v6.3c-7-2.9-4.3-2.7-11.2,0
		L73.2,66.3z M74.8,56.4c1.4-3.2,1.6-2.5,4.1-4.9c2.5,2.2,2.7,1.4,4.1,4.9h-4.1H74.8z"/>
</g>
</svg>
