<?xml version="1.0" encoding="utf-8"?>
<!-- Generator: Adobe Illustrator 23.0.3, SVG Export Plug-In . SVG Version: 6.00 Build 0)  -->
<svg version="1.1" id="Layer_1" xmlns="http://www.w3.org/2000/svg" xmlns:xlink="http://www.w3.org/1999/xlink" x="0px" y="0px"
	 viewBox="0 0 184.3 184.3" style="enable-background:new 0 0 184.3 184.3;" xml:space="preserve">
<g id="Layer_x0020_1">
	<g id="_2422862830304">
		<path d="M77.7,116.2c-18,8.3-35.1,2-39.1,31h106.6c-0.7-12.2-6.3-19.6-14.6-23.6c-13.1-6.1-24.5-0.9-24.8-13.1
			c-0.4-10.1,2.7-4.5,4.5-14.2c2.3-12.6,2.2-1.8,5.4-14c2.7-10.1-0.9-5-0.2-11.2c0.5-5.6,3.1-12.6-0.9-21.1
			c-9-18.7-41.6-17.3-46.6,4c-1.6,7,0,10.8,0.5,17.1c0.4,3.4-3.6,4.9,0.9,15.5c1.8,4.3,2.3,1.3,3.6,5.8c0.9,3.1,0.4,4.9,1.8,8.1
			C77.5,105.6,79.7,102,77.7,116.2z"/>
		<path d="M124,100c3.2,2.9,7.7,2.7,12.4,3.8l-0.2,5.9c-3.6,1.4-8.3,2-10.8,4.5c1.6,1.4,8.6,2.3,13.1,5.2c15.7,11-5.9,9,39.1,9.2
			c-0.5-14.6-12.2-14.6-22.9-18.9l0.9-6.3c4-1.4,7.2-0.5,11.3-3.4c-8.1-17.1,5-44.8-21.4-44.6C119.8,55.8,131.5,83.5,124,100z"/>
		<path d="M17.2,100.2c3.6,2.2,7.7,2.7,12.6,3.1l-0.2,6.7c-10.4,4.1-22.7,4.3-23,18.9c41,0.2,24.5,2.2,38.7-8.6
			c4-3.1,12.4-4.5,13.5-5.6c-3.6-3.8-6.7-2-10.8-5.2l-0.2-5.4l12.4-2.9c-1.1-5.6-2.7-6.7-3.1-13.9C56.5,73.6,59.5,56.1,39,55.8
			c-10.6-0.2-16.9,5.4-17.8,15.1C19.6,83.8,22.6,88.5,17.2,100.2z"/>
	</g>
</g>
</svg>
