<?xml version="1.0" encoding="utf-8"?>
<!-- Generator: Adobe Illustrator 23.0.3, SVG Export Plug-In . SVG Version: 6.00 Build 0)  -->
<svg version="1.1" id="Layer_1" xmlns="http://www.w3.org/2000/svg" xmlns:xlink="http://www.w3.org/1999/xlink" x="0px" y="0px"
	 viewBox="0 0 184.3 184.3" style="enable-background:new 0 0 184.3 184.3;" xml:space="preserve">
<g id="Layer_x0020_1">
	<path d="M17.7,146.4c7.9,1.8,16.9-1.1,24.7,1.3c8.6,2.7,25.7,10.3,36,14c6.3,2.3,12.2,6.3,19.1,2.3l57.4-43
		c22.3-17.3,7.6-26.8-3.1-24.1c-5.8,1.4-41,22.3-48.4,26.8c-3.8,2.3-1.4,0.4-3.2,3.4c-2.2,4-4.3,7.4-9.7,8.8c-8.3,2.2-18.9-5-27.7-9
		c-7.2-3.2-6.1-2.3-5.9-6.3c10.1,2.3,27.5,18.2,37.3,9.4c5.8-5.2,4.3-13.9-1.1-17.8c-5.6-4.3-38-18.7-43-18.2
		c-10.1,0.7-21.2,4-31.9,5L17.7,146.4z M102.7,120.2c6.7-4,12.8-7.6,19.6-11.3c3.4-2,16.9-8.8,19.1-12.4
		c-12.1-0.9-12.4,1.4-22.1,5.9c-6.7,3.1-14,6.3-20,10.1c0.5,1.4,0.9,2.9,1.4,4.1L102.7,120.2z M65.6,88.7
		c14.2,5.4,24.7,8.6,41.4,5.4c11.9-2.3,25.9-9.4,26.8-21.4c-4.3,3.6-4,5.6-13,9.9c-5,2.5-12.2,4.3-18.4,5
		c-14.9,1.6-26.3-1.3-38.7-6.7c-7.9-5.2-9.4-5.6-16.4-13.7c1.6,7.4,2.5,8.3,6.8,12.8C57.7,84.2,60.4,85.4,65.6,88.7z M61.5,76.1
		c15.7,5.6,22.7,10.6,42.7,7.7c13.5-2,26.6-7.6,29.9-22.1c-11.2,7.9-11.2,11.7-27.7,14.6c-8.6,1.4-15.5,1.4-23.9,0
		c-12.4-2.2-22.5-6.8-30.8-15.3c-0.7-0.7-1.1-1.1-1.6-1.6c-0.2-0.2-0.7-0.7-0.9-0.9L48,57.5c-0.2-0.2-0.4-0.4-0.5-0.5
		c1.3,7.9,4.5,9.9,7.7,13.3l4.5,3.8C60.9,75.3,60.9,75.2,61.5,76.1z M95.5,41.7c4.7-0.2,8.1-0.2,8.8,4.5l-3.2,2.3L95.5,41.7z
		 M78.2,34.5c2.9-3.1,4,1.8,5.6,3.4C81.6,38.1,74.8,38.1,78.2,34.5z M77.5,31.2c-4.3,1.6-11.3,5.2-6.3,9.9
		c4.1,3.8,12.4,1.3,17.3,2.3l5.2,6.8c-4-0.4-4.5-0.4-8.1-1.6c-1.8-0.5-1.6-0.9-4-0.9c-9.9,0.4-0.7,10.8,15.3,7
		c3.6,2.5,5.2,6.3,10.3,2.7c-0.5-2.7-1.3-2.2-2.2-4.9c4.7-2,11-5.2,5.8-11.2c-8.6-9.9-18.5,3.1-23.4-8.8c6.3,0.5,5.4,2.7,12.4,1.6
		c-2.2-8.1-11.3-3.4-16-5.2c-3.6-1.3-0.2-2-6.7-1.3C76.4,30.5,76.8,28.4,77.5,31.2z M81.1,22.4c10.8-1.3,25.7,1.4,34.2,7.7
		c11.2,8.3,14.6,19.6,5.6,27.7c-5,4.5-13.1,7.2-20,8.3c-8.5,1.3-18.7-0.2-26.1-2.9C47.4,53.4,48.3,26.4,81.1,22.4z M133.8,45.3
		c-2.5-7.4-6.5-12.8-13.9-17.5c-5.9-3.8-14.6-7.2-23.2-8.5c-49.9-7.4-68.9,34-25.6,50.2C92.3,77.5,133.8,75.9,133.8,45.3z"/>
</g>
</svg>
