<?xml version="1.0" encoding="utf-8"?>
<!-- Generator: Adobe Illustrator 23.0.3, SVG Export Plug-In . SVG Version: 6.00 Build 0)  -->
<svg version="1.1" id="Layer_1" xmlns="http://www.w3.org/2000/svg" xmlns:xlink="http://www.w3.org/1999/xlink" x="0px" y="0px"
	 viewBox="0 0 184.3 184.3" style="enable-background:new 0 0 184.3 184.3;" xml:space="preserve">
<style type="text/css">
	.st0{fill:#FFFFFF;}
</style>
<g id="Layer_x0020_1">
	<path class="st0" d="M92.1,20.8L92.1,20.8c-2.3,0-4.7,0.2-7,0.9c-7.4,1.8-12.1,5.6-16.9,10.4c-7,7.4-5.9,15.7-7.2,20.2
		c-0.4,1.4-1.8,1.6-2.2,4.9c-0.4,3.1-0.2,9.5,1.8,11.9c1.1,1.3,1.8,1.3,3.2,1.8l1.3,0.5c11.3,11.9,5.6,20.7,23.4,26.8l2.7,0.2v0.2
		h0.9H93v-0.2l2.7-0.2c17.8-6.1,12.1-14.8,23.4-26.8l1.3-0.5c1.4-0.5,2.2-0.5,3.2-1.8c1.8-2.3,2.2-8.8,1.8-11.9
		c-0.4-3.2-1.6-3.4-2-4.9c-1.3-4.5-0.4-12.8-7.2-20.2c-4.7-5-9.4-8.6-16.9-10.4C96.8,21,94.5,20.8,92.1,20.8z M129,109.3
		c4,2,7.7,2.5,11.7,4.3c6.8,2.9,11.2,11.9,13.3,18.9c4.9,16-4,18.7-16.7,23.4c-10.8,3.8-23,6.7-35.3,7.4c-2.2,0.2-5.6,0.2-9.9,0.2
		l0,0c-4.1,0-7.7,0-9.9-0.2c-12.2-0.9-24.7-3.6-35.3-7.4c-13-4.5-21.8-7.4-16.7-23.4c2.2-7,6.5-16.2,13.3-18.9
		c4.1-1.6,7.7-2.3,11.9-4.3c4.5-1.3,8.1-2.7,12.2-4.1c4.3,5,13.3,21.6,16,24.3l1.3-20.3h6.5l0,0h0.9h0.9l0,0h6.5l1.3,20.3
		c2.7-2.7,11.7-19.3,16-24.3C121.1,106.6,124.5,108.1,129,109.3z"/>
</g>
</svg>
