<?xml version="1.0" encoding="utf-8"?>
<!-- Generator: Adobe Illustrator 23.0.3, SVG Export Plug-In . SVG Version: 6.00 Build 0)  -->
<svg version="1.1" id="Layer_1" xmlns="http://www.w3.org/2000/svg" xmlns:xlink="http://www.w3.org/1999/xlink" x="0px" y="0px"
	 viewBox="0 0 184.3 184.3" style="enable-background:new 0 0 184.3 184.3;" xml:space="preserve">
<g id="Layer_x0020_1">
	<g id="_2429232012832">
		<path d="M105.6,136.7h12.2l0.2,14.8l-12.2,0.2L105.6,136.7z M66.2,137.1l12.2-0.4l0.2,14.9l-12.4-0.2V137.1z M105.6,111.5l5-0.2
			h7.2l0.2,10.6v4.3l-3.1,0.4h-0.9h-8.5L105.6,111.5z M85.8,111.5c4,0,9.5-0.5,12.1,0.5l0.5,13.9L86,126.4v-14.9H85.8z M66.2,111.5
			l12.4-0.2v14.8L66,126.3L66.2,111.5z M105.6,86.1H118v15.1H106L105.6,86.1z M85.8,86.3L98,85.9l0.2,14.9l-12.6,0.4L85.8,86.3z
			 M66,85.9h12.6v15.3H66V85.9z M60.1,54.1v104.8h25.6l0.2-22.3h12.4l0.4,22.1l25.4,0.2c0.9-8.3,0.5-100.8,0.2-112.3l-8.1-0.2
			c-0.9,12.6-10.6,22.7-23.4,23c-6.3,0.2-13.1-2.5-17.5-6.3c-4.3-3.8-6.7-10.4-7.6-16.2l-7.7-0.4v7.6H60.1z"/>
		<path d="M139.4,136.5l12.2,0.5v14.4l-12.6,0.2L139.4,136.5z M139.3,111.5l12.2,0.2v14.2c-3.4,1.3-8.5,0.9-12.4,0.4L139.3,111.5z
			 M151.7,86.3l0.2,14.9l-12.8,0.2l0.5-15.3L151.7,86.3z M129.5,158.8h31.7l0.4-80.3h-32L129.5,158.8z"/>
		<path d="M32.3,136.7l12.4,0.2l0.2,14.6l-12.4,0.4L32.3,136.7z M32.9,111.3l11.9,0.2v14.8l-12.6,0.2L32.9,111.3z M32.5,85.9h12.6
			v15.5H32.5V85.9z M22.6,158.8l31.7,0.2l0.4-80.3l-32,0.2L22.6,158.8z"/>
		<path d="M88.5,33.4l7.4,0.2v8.1l8.3,0.5v7l-8.3,0.2l-0.2,8.3l-7.4-0.5L88,49.2h-8.1l0.2-7.6h8.1L88.5,33.4z M87.2,26
			c-27.4,7-14.8,46.3,10.3,39.1c9.7-2.9,16.9-12.1,14.2-24.5C109.4,30.9,99.3,22.8,87.2,26z"/>
	</g>
</g>
</svg>
