<?xml version="1.0" encoding="utf-8"?>
<!-- Generator: Adobe Illustrator 23.0.3, SVG Export Plug-In . SVG Version: 6.00 Build 0)  -->
<svg version="1.1" id="Layer_1" xmlns="http://www.w3.org/2000/svg" xmlns:xlink="http://www.w3.org/1999/xlink" x="0px" y="0px"
	 viewBox="0 0 184.3 184.3" style="enable-background:new 0 0 184.3 184.3;" xml:space="preserve">
<style type="text/css">
	.st0{fill:#FFFFFF;}
</style>
<g id="Layer_x0020_1">
	<g id="_2429456588464">
		<path class="st0" d="M114.9,115.2h10.3v25.6h-10.3V115.2z M87.2,115.2h10.4v25.6H87.4v-25.6H87.2z M59.5,115.2h10.3v25.6H59.5
			V115.2z M97.3,91H85V76.1c-1.1,0.2-0.7,0-2.5,1.6l-7,5.8c-1.6,1.3-3.1,2.5-4.7,3.8L66.1,91V75.7l-14,11.5c-0.9,0.7-1.6,1.3-2.3,2
			c-0.9,0.9-2.2,1.4-2.2,2.2v49.1H38c-0.7,0-0.9,0.2-0.9,0.9v12.8c0,0.9,0.4,0.7,1.1,0.5c0.9,0,1.6-0.2,2.3,0c2.2,0.2,2.2,0,4.1,0
			c1.4,0,1.8,0.2,2.7,0.2c1.1,0,1.3-0.2,2.7-0.2c1.4,0,1.8,0.2,2.7,0.2c1.1,0,1.3-0.2,2.7-0.2s1.8,0.2,2.7,0.2
			c1.1,0,1.3-0.2,2.7-0.2c1.4,0,1.8,0.2,2.7,0.2c1.1,0,1.3-0.2,2.7-0.2s1.8,0.2,2.7,0.2c1.1,0,1.3-0.2,2.7-0.2
			c1.4,0,1.8,0.2,2.7,0.2c1.1,0,1.3-0.2,2.7-0.2c1.4,0,1.8,0.2,2.7,0.2c1.1,0,1.3-0.2,2.7-0.2c1.4,0,1.8,0.2,2.7,0.2
			c1.1,0,1.3-0.2,2.7-0.2c1.4,0,1.8,0.2,2.7,0.2c1.1,0,1.3-0.2,2.7-0.2s1.8,0.2,2.7,0.2c1.1,0,1.3-0.2,2.7-0.2
			c1.4,0,1.8,0.2,2.7,0.2c1.1,0,1.3-0.2,2.7-0.2c1.4,0,1.8,0.2,2.7,0.2c1.1,0,1.3-0.2,2.7-0.2c1.4,0,1.8,0.2,2.7,0.2
			c1.1,0,1.3-0.2,2.7-0.2c1.4,0,1.8,0.2,2.7,0.2c1.1,0,1.3-0.2,2.7-0.2s1.8,0.2,2.7,0.2c1.1,0,1.3-0.2,2.7-0.2
			c1.4,0,1.8,0.2,2.7,0.2c1.1,0,1.3-0.2,2.7-0.2s1.8,0.2,2.7,0.2c1.1,0,1.3-0.2,2.7-0.2s1.8,0.2,2.7,0.2c1.1,0,1.3-0.2,2.7-0.2
			c2.2,0,2.2,0.5,4.3,0v-11.2c0-3.8,1.6-2.9-10.3-2.9V91h-7.4c0-5.6-0.5-12.8-0.5-18.5c0-2-0.2-2.7-0.2-4.3s0-3.2,0-4.9
			c0-2-0.4-2.7-0.2-4.7c0-5,1.8-4.1-9.5-4.1c-1.4,0-0.5,4.9-1.1,8.5l-0.5,23.4c0,2-0.4,3.1-0.4,4.7h-7.4c0-3.2-0.2-5.8-0.2-9.2
			c0-2-0.2-2.7-0.2-4.3s0-3.2,0-4.9c0-2-0.4-2.5-0.4-4.3c0-1.6,0-3.2,0-4.9c0-2-0.4-2.7-0.4-4.7c0-5,1.8-4.1-9.5-4.1
			c-1.4,0-0.7,4.9-1.1,8.5c-0.4,2.7,0,6.5-0.2,9.2c-0.2,1.3,0,3.2,0,4.7l0.7,9.4C97.6,88.2,97.3,89.1,97.3,91z"/>
		<path class="st0" d="M130.4,38.3c-2.5,0-3.8,1.8-3.8,4.3c-7.6,0-2.7,10.4,1.8,5.9c0.5-0.5,1.1-1.3,1.1-2.3
			c3.2,0.4,3.8-0.5,5.2-3.2c1.6,0,2.5-0.2,3.2-0.7c0.7-0.5,1.4-1.4,1.6-2.5c7.7,0,6.1-10.4,1.1-10.4c-1.8,0-3.2-0.2-4.7,1.4
			c-1.3,1.3-1.1,2.2-1.6,2.7c-0.5,0.7-1.8,0.7-2.7,1.6C130.9,36.1,130.7,37,130.4,38.3z"/>
		<path class="st0" d="M109,38.3c-2.7,0-4,1.8-4.1,4.3c-2.5,0-3.8,1.4-3.8,3.8c0,3.8,6.7,4.7,6.8-0.4c1.6,0.2,1.8,0.4,3.4-0.5
			c0.9-0.5,1.6-1.4,1.8-2.9c1.8,0,2.5,0,3.4-0.9c2.2-1.8,0.5-1.8,2.3-2.3c0.7-0.2,1.8-0.2,3.1-1.3c2.5-2.2,2.7-9-4.1-9
			c-4,0-4,3.8-5.2,4.5C111.3,34.5,109,35.1,109,38.3z"/>
	</g>
</g>
</svg>
