<?xml version="1.0" encoding="utf-8"?>
<!-- Generator: Adobe Illustrator 23.0.3, SVG Export Plug-In . SVG Version: 6.00 Build 0)  -->
<svg version="1.1" id="Layer_1" xmlns="http://www.w3.org/2000/svg" xmlns:xlink="http://www.w3.org/1999/xlink" x="0px" y="0px"
	 viewBox="0 0 184.3 184.3" style="enable-background:new 0 0 184.3 184.3;" xml:space="preserve">
<style type="text/css">
	.st0{fill:#FFFFFF;}
</style>
<g id="Layer_x0020_1">
	<g id="_2429393499744">
		<path class="st0" d="M15.8,87.2c7.2-3.6,14.4-7.4,21.8-10.8c1.8-0.9,3.8-2.3,5.9-2.2c4,0.2,3.1,1.1,6.7-0.9
			c3.6-1.8,7-3.4,10.6-5.2c7.4-3.8,14.6-7.4,21.8-11c3.6-1.8,7-3.6,10.8-5.6c2.7-1.4,8.1-4.5,10.6-5.2l1.1,2.7
			c-3.1,1.1-17.8,9-22,11L50,76.7c-2,1.1-2.2,2.7-3.6,4.7c-0.9,1.3-3.6,2.2-5.2,3.1c-2.3,1.3-21.2,11.2-22.3,10.6
			C18.1,93.5,15.8,89,15.8,87.2z M127.4,31.2l4,7.9l-2.3,1.1c-0.9-0.9-3.6-6.3-4-7.9L127.4,31.2z M115.3,24.4L127.7,49
			c-1.8,0.7-5,1.8-3.4,4.7c1.3,2.3,1.1-1.4,3.6,4.9c5.2,13.1,8.5,29.2,6.5,43.6l-0.5-1.1c0-0.2-0.2-0.7-0.2-0.9
			c-1.6-10.3-3.2-16.4-7-26.5l-6.5-15.5c0.2-0.9,1.1-1.8,0.2-3.2c-1.4-2.5-4.5,0-6.1,0.5l-12.4-24.7L115.3,24.4z M122.7,27.8
			c-1.3-1.3-2-3.6-2.9-5.2s-1.4-4.3-4-4c-0.9,0.2-13.5,6.7-16.2,7.9c-2,0.9-4.3,1.6-3.4,4.5l5.2,10.6c-0.2,0.5-53.1,27.5-54.5,27.7
			c-2.9,0.7-3.4-1.4-7.4,0.5L15.1,82.1C9.3,85,10,88.4,12.9,94c2.5,4.9,4.5,7.9,11.2,4.3c7-3.6,18.4-8.8,24.5-12.2
			c2.5-1.4,2.5-4,4-5.2L95,59.3c3.8-1.8,8.5-4.7,12.2-6.1c1.3,1.4,2.2,4,3.1,5.8c1.4,2.9,2.2,2.5,5,1.6c2.9,3.2,9,21.6,10.4,26.6
			c4.1,14.2,2.5,19.1,3.6,24.5c0.5,2.3,3.1,4.1,5.8,2.7c5-2.9,4.5-25.6,3.6-32.2c-0.9-7.6-3.1-15.5-5.6-22.5c-0.7-1.8-2.3-5-2.5-6.7
			c1.3-1.1,3.1-1.3,2.3-3.6c-0.4-1.3-1.6-3.1-2.2-4.5c1.8-1.8,6.1-2,5.9-4.9c0-0.7-5.9-13.1-7.2-14.2
			C127.9,24.4,124.9,27.2,122.7,27.8z"/>
		<path class="st0" d="M94.3,138.1c0.4-1.8,3.8-10.1,4.5-11.2h34.9l-21.6,20.7C108.8,146.9,97.3,139.2,94.3,138.1z M157.8,88.3
			l4.9,46.3l-19.6-11L157.8,88.3z M160.1,71.9c-0.7-1.1-4-13-4.5-15.1c2,0.9,9,4.3,10.6,5.4C165.5,63.6,161.2,70.6,160.1,71.9z
			 M171.8,39.5c1.1-0.7,2-1.6,1.4-3.2c-1.3-4-5.6,0.4-6.5,0.9c-21.4,16.4-18.7,11.2-15.5,22.9c1.6,5.6,3.2,11,4.7,16.6
			c0.7,2.5-1.3,5.6-2.2,7.9l-9.4,22.5c-1.8,4.5-4.7,10.4-6.1,15.1c-4.3,0.5-33.3,0-40.5,0.2c-3.8,0-3.6,1.8-4.9,5.2
			c-0.9,2.5-1.8,4.7-2.9,7.2c-0.9,2-0.5,2.3-2.5,2.7l-12.4,2.7c-5.6,1.3-11.2,2.5-16.6,3.6c-4.7,0.9-3.6,0.7-5.6,4.5l-7.4,13
			c-1.8,3.6,1.6,5.9,3.8,3.4l7.6-13c0.7,2,3.4,6.3,4.7,8.3c1.1,1.8,3.6,8.1,6.5,5c2-2-1.8-6.7-2.9-8.6c-1.4-2.5-3.4-5.4-4.5-7.9
			c6.1-1.6,18.4-4.1,25.4-5.6c4.7-1.1,3.6-1.4,7.4,0.7c4.7,2.5,8.6,4.9,13.1,7.4c1.3,0.7,2.3,1.3,3.4,1.8c1.6,1.1,2,0.9,4.1,1.1
			c11.3,1.8,24.8,3.6,35.6,5.4c5.4,0.9,5.6-3.1,3.4-4.3c-2.2-1.1-32.8-4.5-35.5-5.8c0.7-1.1,1.8-1.8,2.9-2.7l5.6-5.4
			c1.3-0.9,1.6-1.8,2.7-2.7l11.3-10.4l13,7.2c4,2.2,10.6,6.8,13.7,6.3c1.8-2.5,1.3-2.7,0.9-6.1l-6.1-56c0.2-1.4,7.7-12.8,8.6-14.4
			c0.9-1.4,2.9-3.8,0.9-5.4c-1.6-1.4-12.8-5.9-14.9-7.9L171.8,39.5z"/>
		<path class="st0" d="M105.8,109.3c5.6,2,14.4,6.7,14.2,1.6c-0.2-2.5-4.1-3.1-6.5-4l-15.3-5.6c-1.1-0.4-3.1-1.3-4-1.3
			c-1.4,0-2.5,1.3-2.5,2.7c0.2,2.3,4.1,2.9,6.5,3.8C100.6,107.5,103.1,108.4,105.8,109.3z"/>
		<path class="st0" d="M109,84.3c-4.3,1.4,0.9,6.3,2.9,8.8c2.3,2.9,5.2,7.6,7.9,6.7c1.1-0.4,1.4-1.3,1.4-2.2c0-1.8-6.5-8.8-7.9-10.4
			C112.4,85.9,111.2,83.6,109,84.3z"/>
		<path class="st0" d="M102.2,76.4c-2,1.1-1.6,2.9-0.5,4.3c0.9,1.1,2,2.7,4,1.8C108.8,80.7,104.9,74.9,102.2,76.4z"/>
		<path class="st0" d="M81.7,96.5c-4,2.9,2.5,6.1,4.7,4.5C89.4,98.7,84.4,94.6,81.7,96.5z"/>
	</g>
</g>
</svg>
