<?xml version="1.0" encoding="utf-8"?>
<!-- Generator: Adobe Illustrator 23.0.3, SVG Export Plug-In . SVG Version: 6.00 Build 0)  -->
<svg version="1.1" id="Layer_1" xmlns="http://www.w3.org/2000/svg" xmlns:xlink="http://www.w3.org/1999/xlink" x="0px" y="0px"
	 viewBox="0 0 184.3 184.3" style="enable-background:new 0 0 184.3 184.3;" xml:space="preserve">
<g id="Layer_x0020_1">
	<path d="M105.8,21.7c4.1,0,7.6,1.4,10.4,4.3c2.9,2.9,4.3,6.3,4.3,10.4c0,4-1.4,7.6-4.3,10.4s-6.3,4.3-10.4,4.3s-7.6-1.4-10.3-4.3
		c-2.9-2.9-4.3-6.3-4.3-10.4s1.4-7.6,4.3-10.4C98.2,23.1,101.8,21.7,105.8,21.7z M113.9,67.6l-22,70c-1.3,4-1.8,6.7-1.8,7.9
		c0,0.9,0.4,1.6,0.9,2.2c0.5,0.7,1.3,1.1,1.8,1.1c1.1,0,2.2-0.5,3.2-1.6c2.9-2.5,6.5-7.2,10.6-13.9l3.4,2
		c-10.1,18.2-20.9,27.4-32.2,27.4c-4.3,0-7.7-1.3-10.4-3.6c-2.5-2.3-3.8-5.4-3.8-9c0-2.5,0.5-5.6,1.8-9.4l15.1-47.5
		c1.4-4.5,2.2-8.1,2.2-10.3c0-1.4-0.7-2.7-2-4c-1.3-1.1-3.2-1.6-5.6-1.6c-1.1,0-2.3,0-3.8,0.2l1.3-4.1l34.9-5.6h6.3
		C113.9,67.8,113.9,67.6,113.9,67.6z"/>
</g>
</svg>
