<?xml version="1.0" encoding="utf-8"?>
<!-- Generator: Adobe Illustrator 23.0.3, SVG Export Plug-In . SVG Version: 6.00 Build 0)  -->
<svg version="1.1" id="Layer_1" xmlns="http://www.w3.org/2000/svg" xmlns:xlink="http://www.w3.org/1999/xlink" x="0px" y="0px"
	 viewBox="0 0 184.3 184.3" style="enable-background:new 0 0 184.3 184.3;" xml:space="preserve">
<style type="text/css">
	.st0{fill:#FFFFFF;}
</style>
<g id="Layer_x0020_1">
	<path class="st0" d="M99.7,53c2.3,0,4.2,0.8,5.8,2.4c1.6,1.6,2.4,3.5,2.4,5.8c0,2.2-0.8,4.2-2.4,5.8s-3.5,2.4-5.8,2.4
		S95.5,68.6,94,67c-1.6-1.6-2.4-3.5-2.4-5.8s0.8-4.2,2.4-5.8C95.5,53.8,97.5,53,99.7,53z M104.2,78.5L92,117.4c-0.7,2.2-1,3.7-1,4.4
		c0,0.5,0.2,0.9,0.5,1.2c0.3,0.4,0.7,0.6,1,0.6c0.6,0,1.2-0.3,1.8-0.9c1.6-1.4,3.6-4,5.9-7.7l1.9,1.1c-5.6,10.1-11.6,15.2-17.9,15.2
		c-2.4,0-4.3-0.7-5.8-2c-1.4-1.3-2.1-3-2.1-5c0-1.4,0.3-3.1,1-5.2l8.4-26.4c0.8-2.5,1.2-4.5,1.2-5.7c0-0.8-0.4-1.5-1.1-2.2
		c-0.7-0.6-1.8-0.9-3.1-0.9c-0.6,0-1.3,0-2.1,0.1l0.7-2.3l19.4-3.1h3.5C104.2,78.6,104.2,78.5,104.2,78.5z"/>
</g>
</svg>
