<?xml version="1.0" encoding="utf-8"?>
<!-- Generator: Adobe Illustrator 23.0.3, SVG Export Plug-In . SVG Version: 6.00 Build 0)  -->
<svg version="1.1" id="Livello_1" xmlns="http://www.w3.org/2000/svg" xmlns:xlink="http://www.w3.org/1999/xlink" x="0px" y="0px"
	 viewBox="0 0 184.3 184.3" style="enable-background:new 0 0 184.3 184.3;" xml:space="preserve">
<style type="text/css">
	.st0{fill-rule:evenodd;clip-rule:evenodd;}
</style>
<g id="Layer_x0020_1">
	<path class="st0" d="M126.2,70.1c1.1-1.1,2.5-2,3.5-2.8l26.3,45.6c0.9,1.5,0.5,2.2,0.2,4.1c-0.2,1.3-0.3,3.2-0.8,4.1
		c-4.6-8.5-9.8-16.8-14.6-25.5C139.6,93.7,126.5,71.3,126.2,70.1z M58.5,62.5c5.1,4.3,5.1,10.9,0.6,15.2
		c-7.6,7.2-19.8-1.3-15.8-11.1l3.9-7.2c1.3-1.9,3.7-4.4,5.3-5.9c1.7-1.6,4.2-3.3,6-5.1c-7.1-0.8-13.6,1-18.9,3.9
		c-2.4,1.3-4.9,3.2-6.6,4.8c-6,5.6-10.2,15.1-9.9,24.4c0.2,6,2.7,13.1,4.1,18.7c3.1,12,6.6,24.1,9.6,36.1
		c5.1,20.2,23.6,30.2,41.2,24.6c2.9-0.9,5.5-2.3,7.7-3.7c2.7-1.8,4.1-3.3,6.1-5.4c1.8-2,3.4-4.2,4.7-6.7c5.3-10.1,4.6-17.9,1.8-28
		c-3.3-12-6.4-24.1-9.6-36.2c-3-11.7-3.7-15.9-10.9-23.4c-3.1-3.3-5.5-4.2-6.3-5.2c2.6-1.1,10.4-6.3,13.9-7.3
		C85,50.4,85.2,53.4,87,58c2.6,6.6,7.7,11.8,14.2,14.5c4.4,1.8,7.3,2,12.4,2c2.4,2.7,0.1,2.7,4.5,4.2c1.4,0.5,5.1,1.6,6,2.4
		c-0.1,2.4-2,6.6-1.6,8.7c1.8,1.7,6.5,1.2,8.3,2.9c0.3,2.1-2.2,6.2-2,7.8c0.5,1.5,5.9,1.7,8.3,3c0.6,2.6-1.9,6.6-1.3,9.4
		c1.8,1,7.2,1.3,8.2,2.9c0.3,1.5-2.2,5.7-2,7.8c1.1,1.3,5.9,2.6,8,3.4c2.4,0.9,6.2,3.1,8.7,2.4c1-2,1.6-7.8,1.9-10.7
		c0.9-6,1.6-4.8-1.3-9.5c-6.2-10.4-12-21.3-18.2-31.7c-1.6-2.7-3.1-5.4-4.6-8c-3.3-5.8-3.9-5.4-2.5-7.8c11.4-18.6-4.3-43.3-27-39.6
		c-6.5,1-13.4,5.6-15.7,9.3c7.2-1.5,8.4-2,16.2-1c4.8,0.7,8.8,4.3,8.5,9.7c-0.6,11.4-17.2,12.5-18.6,0.4c2.4-0.4,5.2-1.2,7.1,0.3
		c4.6,3.8,7.5-4.8-1.9-5.2C90,35.1,69.6,47.4,60.1,54.7l-4.7,4c-2.7,2.6-6.6,7.3-5.6,11.5c1.3,5.5,7.9,3.1,5.3-0.3
		c-0.7-1-1.3-1-0.5-2.9C55.3,65.5,57.4,63.3,58.5,62.5z"/>
</g>
</svg>
