<?xml version="1.0" encoding="utf-8"?>
<!-- Generator: Adobe Illustrator 23.1.0, SVG Export Plug-In . SVG Version: 6.00 Build 0)  -->
<svg version="1.1" id="Livello_1" xmlns="http://www.w3.org/2000/svg" xmlns:xlink="http://www.w3.org/1999/xlink" x="0px" y="0px"
	 viewBox="0 0 184.3 184.3" style="enable-background:new 0 0 184.3 184.3;" xml:space="preserve">
<style type="text/css">
	.st0{display:none;}
	.st1{display:inline;fill-rule:evenodd;clip-rule:evenodd;fill:#FFFFFF;}
	.st2{fill-rule:evenodd;clip-rule:evenodd;}
</style>
<g id="Layer_x0020_1" class="st0">
	<path class="st1" d="M116.4,139.2c0-6.2,9.2-6.6,9.2,0.3c0,1.8-2.2,4.2-4.5,4.2C118.8,143.7,116.4,141.5,116.4,139.2z M20.8,31.7
		v-1.1c0-1.9,2.1-3.6,4.7-3.6h17.9c5.4,0,5.9,4.2,6.9,7.6l3.1,11c1.8-0.4,3.3-1.6,5.8-1.6H143c3.5,0,6.7,1.6,8.5,3.4
		c3.3,3.2,3.9,5.7,3.9,10.1c0,2.7-8.2,34.5-9.2,38.6c-1.7,6.7-2.1,12.8-7.5,16.4c-1.5,1-3.6,1.9-5.9,2c-5,0.3-10.7,0-15.8,0H69.2
		c-2.7,0-5.3-0.3-7.2,0.7c-4.1,2.2-3.3,8,1.3,9.1c1.9,0.5,52.1,0.2,55.2,0.2c4.9,0,8.5,0.3,12.2,3.6c2.6,2.4,4.9,6,4.9,10.8
		c0,12-13.6,19.5-23.9,11.3c-4.7-3.7-6.6-11.3-4.5-15.8H90.7c1,4.2,1.2,6.8-0.7,10.9c-0.7,1.4-1.8,3.2-2.9,4.2
		c-10.9,9.6-24.7,0.9-24.7-10.1c0-5.9,1.8-5-0.5-5.3c-3.3-0.4-6.9-2.5-8.9-4.9c-3.5-4.3-3.5-6.7-3.5-11.7c0-4.3,4.4-10.1,8.9-11.9
		c0.7-0.3,1.5-0.5,2.2-0.8c-0.4-0.8-1-3.3-1.2-4.3l-3.6-12.9c-2.7-10.6-7-23.7-9.8-34.4c-1.3-5.3-3.6-12.2-4.8-17.3
		c-2.3,0-16.3,0.4-17.8-0.4C21,34.8,20.8,33.5,20.8,31.7z M77.1,143.7c-2.7,0-4.8-2.1-4.8-4.8c0-5.9,9.2-6.1,9.2,0.3
		C81.5,141.4,79.2,143.7,77.1,143.7z M68.1,95L76,95c2.5-0.1,1.7-0.5,3,4.9c0.4,1.4,0.9,3.2,1,4.6c-1.7,0-3.5,0-5.3,0
		c-2.2,0-3.1,0.3-4.1-1.1C70,102.5,68.3,96.4,68.1,95z M88.1,95h8.6v9.4h-6.5c-0.4-1.6-0.7-3.2-1.1-4.7L88.1,95z M124.4,104.5
		l1.8-8.7c0.4-1.3,0.9-0.8,4.5-0.8c1.8,0,3.7,0,5.5,0c-0.8,1.7-1.3,6.8-2.3,8.2c-0.9,1.4-1.8,1.3-4,1.3
		C128,104.5,126.2,104.5,124.4,104.5z M113.6,104.5h-6.8V95h9.4l-1.6,7.3C114.4,103.3,114.5,104.5,113.6,104.5z M118.3,85h-11.6
		V74.8h13.7c-0.1,1.5-0.7,3.5-1,5C119.1,81.4,118.4,83.4,118.3,85z M62.3,74.8h11c0.5,1,0.9,3.7,1.2,5.1c0.5,1.8,0.8,3.4,1.2,5.1
		H65.2c-0.3-0.7-0.5-1.6-0.7-2.5L62.3,74.8z M138.5,85h-10c0.1-1.4,0.7-3.7,1-5c0.4-1.9,0.7-3.5,1.1-5.2h10.5L138.5,85z M83.6,74.8
		h13.1V85c-12.2,0-10.6,0.8-11.3-2.1L83.6,74.8z M57.3,56.6c0-1.1,0.5-1.7,1.2-2.2C59.9,53.6,67,54,68.9,54l2.4,11H59.5
		C59.4,63.2,57.3,58.4,57.3,56.6z M143.6,64.8h-10.8l1.6-7.9c0.2-1.1,0.5-1.6,0.5-2.9h8.1c2.7,0,2.6,2.6,2.1,4.5
		C144.6,60.6,144,62.7,143.6,64.8z M79.2,54h17.6v10.8H81.5c-0.4-1.8-0.8-3.4-1.2-5.4C79.9,57.6,79.4,55.8,79.2,54z M122.5,64.8
		h-15.8V54h18.1c-0.4,0.8-0.9,4.1-1.2,5.4C123.3,61.3,122.9,63,122.5,64.8z"/>
</g>
<circle class="st2" cx="92.4" cy="92.1" r="88.1"/>
</svg>
