<?xml version="1.0" encoding="utf-8"?>
<!-- Generator: Adobe Illustrator 23.1.0, SVG Export Plug-In . SVG Version: 6.00 Build 0)  -->
<svg version="1.1" id="Livello_1" xmlns="http://www.w3.org/2000/svg" xmlns:xlink="http://www.w3.org/1999/xlink" x="0px" y="0px"
	 viewBox="0 0 184.3 184.3" style="enable-background:new 0 0 184.3 184.3;" xml:space="preserve">
<style type="text/css">
	.st0{fill-rule:evenodd;clip-rule:evenodd;fill:#0000FF;}
</style>
<g id="Layer_x0020_1">
	<path class="st0" d="M89.7,1.7h4.7c8.7,0.3,17.3,2.3,24.8,6c1.8,0.9,3.3,1.6,5,2.7C132,15,138.9,21.3,144,28.6
		c11.5,16.4,15.4,39.5,8,58.2c-0.6,1.5-0.9,2.6-1.6,4.1c-0.6,1.4-1.2,2.5-1.9,3.8c-1.2,2.4-2.6,4.6-4,6.9l-45.5,76
		c-1.4,2.3-2.4,5-5.9,5c-3.3-0.2-4.4-2.5-6-5l-4.8-7.2c-8.3-13.5-17.5-27.8-25.5-41.2c-2.9-4.7-5.8-9.1-8.6-13.9
		c-5.7-9.6-12.2-18.1-16-28.5c-3.2-8.6-3.6-15.1-3.6-24.3c0-19.1,11.6-38.3,26.8-49.1c3.1-2.2,6-3.9,9.5-5.6C72.4,4,81,2,89.7,1.7z"
		/>
</g>
</svg>
