<?xml version="1.0" encoding="utf-8"?>
<!-- Generator: Adobe Illustrator 23.0.3, SVG Export Plug-In . SVG Version: 6.00 Build 0)  -->
<svg version="1.1" id="Layer_1" xmlns="http://www.w3.org/2000/svg" xmlns:xlink="http://www.w3.org/1999/xlink" x="0px" y="0px"
	 viewBox="0 0 184.3 184.3" style="enable-background:new 0 0 184.3 184.3;" xml:space="preserve">
<style type="text/css">
	.st0{fill:#FFFFFF;}
</style>
<g id="Layer_x0020_1">
	<path class="st0" d="M50.7,117.4c0-1.4,0.2-2.2,1.1-3.2c0,0,0,0,0-0.2l0.9-0.7c0.7-0.5,2.2-0.4,3.4-0.4c0.9,0,1.3,0.7,1.8,1.3
		c1.1,1.1,0.9,1.6,0.9,3.4c0,1.1-0.5,1.8-1.1,2.2l-0.5,0.4c-1.4,0.9-0.7,0.7-2.7,0.7c-0.5,0-2.3-1.3-2.3-1.3
		C51.8,119.8,50.7,118,50.7,117.4z M62.6,116.5c0-1.6-0.5-1.4-0.9-2.9c-0.2-0.9-1.6-2.3-2.5-3.1c-0.4-0.4-0.5-0.5-1.1-0.7
		c-1.4-0.5-2.2-0.9-3.8-0.9l-3.1,0.9l-1.6,1.3c-0.2,0.2-0.5,0.5-0.7,0.7c-0.7,0.7-0.5,0.9-1.1,1.8c-0.7,1.1-0.5,3.6-0.4,4.9
		c0,0.5,0.2,0.7,0.4,1.1c0.7,1.1,1.6,2.3,2.5,3.1c0.4,0.2,0.5,0.2,0.9,0.5c0.9,0.5,0.5,0.7,2.2,0.7c0.9,0,2.9,0.2,3.8-0.2
		c0.5-0.2,0.5-0.2,0.9-0.5c0.4-0.4,1.6-0.9,2.3-1.8l1.1-1.8c0.2-0.7,0.2-0.5,0.4-1.1C62.4,118.2,62.6,117.6,62.6,116.5z M71.6,113.7
		v17.3c0,0.2,0.5,2.9-1.3,2.9h-20c-1.6,0-2-3.4,0.7-3.4h17.1c0.2-0.4,0.5-0.4,0.5-0.9v-17.3c0.5-1.6,1.4-1.4,2.7-1.1
		C72,112.8,71.6,112.9,71.6,113.7z M65,116.2v6.7c0,0.7-0.2,1.1-0.2,1.6c0,1.3,0.4,0.9,0,2.5c-0.9,0-1.3-0.2-2.2-0.2H50.6
		c-6.5,0-6.3,9.5-1.3,10.1c2.3,0.4,20.3,0.4,22.3,0c4.1-0.5,3.2-5.8,3.8-7.9c1.4,0,3.1,0.7,3.1-1.1v-19.4c0-2.2-8.1-1.3-10.1-0.7
		C64.2,109,65,113.3,65,116.2z M81.2,111.3v19.3c0,4.3,0.9,6.7,5.9,6.7h45.2c2.2,0,5.9-0.9,5.9-4v-18.4c0-2.3-50-10.8-56.5-7.2
		C80.6,108.3,81.2,109.9,81.2,111.3z M34.4,118.5v37.3c0,2.3,8.6,1.8,8.6,0v-5c0-0.9-0.2-1.1-0.2-1.8c1.1-0.9,0.5-0.2,2.2-0.2h93.2
		c0.9,0,2-0.5,2.3,0.2l-0.2,6.8c3.8,4.3,9.4,0.4,9.4,0.4c-0.4-19.8,0-19.3-0.9-36.5c-2-3.2-3.8-4.7-7.4-5.4c-0.5,0-1.1,0.7-1.1,1.3
		v21.4c0,3.1,0.4,3.2-2,3.1c-11.9,0-90.4,1.6-95,0.2c-0.9-0.4-0.4-28.3-0.4-31.3c0-0.4-0.2-0.5-0.2-0.9c-2.9-1.3-8.3,3.2-8.5,5.9
		C34.5,115.5,34.4,116.7,34.4,118.5z"/>
	<path class="st0" d="M110.1,62.7c2.2,0,4.9,1.3,3.2,3.6c-0.9,1.3-3.2,1.1-3.2,1.1C109.6,67.2,109.1,62.7,110.1,62.7z M83.5,81.1
		h15.3c9.5-0.4,11-8.1,11.2-8.1c0.9,0,2.7,0.2,4,0c8.3-1.8,7-16-2.5-16H74c-2,0-1.6,1.3-1.4,2.7c0,1.8-0.2,10.6,0,11.5
		C73.4,75.7,78.6,81.1,83.5,81.1z"/>
	<path class="st0" d="M129.2,84.9c1.8,0,4-0.7,4-2.9V30.5c0-0.5-0.7-2-1.1-2.3c-0.9-1.1-2.3-0.9-4-0.9c-3.1,0-4.7,5.2-5.2,7.7
		c-0.2,1.3,0,14.6,0,17.3c0,3.8-0.7,3.6,1.4,4.7c0.9,0.4,1.8,1.3,2.2,2.2c0.5,1.3-0.4,22.3,0.2,23.8
		C127.1,83.6,128.3,84.9,129.2,84.9z"/>
	<path class="st0" d="M50.4,28.5V46c0,2.9,3.4,3.6,4,4.3c0,0.2-0.2,28.1-0.2,30.6c0,2.2,1.4,3.8,2.7,3.8h1.3c0.9,0,2.5-1.6,2.5-2.5
		v-31c0-0.7-0.4-1.1,0.4-1.3c1.3-0.4,3.2-1.4,3.2-2.9c0.2-1.8,0-13.7,0-16.7c0-1.4,0.7-2.7-0.9-3.1c-2.2-0.4-1.4,2-1.4,2.2v12.4
		c0,0.5-0.4,0.5-0.9,0.5c-1.1,0-0.5-1.3-0.5-2V28c0-0.9-2.3-1.1-2.3,0c0,2.9,0.2,12.1,0,14.2c-2.3,0.5-1.4-0.2-1.4-2.9V28.5
		c0-1.8-2.5-2.2-2.5-0.2v12.2c0,0.9,0.5,1.8-0.9,1.8c-1.1,0-0.5-1.4-0.5-2.5V28.2C53.1,26.4,50.4,26.7,50.4,28.5z"/>
	<path class="st0" d="M82.4,48c0-4.3,7.6-6.8,11.7-6.3l4.1,1.8c1.3,1.3,4,3.6,3.6,5.2c-5.9,0-11.9-0.2-17.8-0.2
		c-0.9,0-1.1,0.2-1.8,0.2C81.9,48.5,82.4,48.3,82.4,48z M78.8,52.3h26.1c2.9,0-1.3-16.6-16-13.9c-5.2,0.9-12.2,7.6-11.2,12.8
		C77.9,51.7,78.3,52.3,78.8,52.3z"/>
	<path class="st0" d="M105.5,40.8c0,1.3,0.5,0.9,0.9,1.8c1.1,3.1,2.5,0.5,4-0.2c0.7-0.4,0.4,0.2,1.1-0.5c0.9-0.7,0.5-0.4,1.3-0.7
		c0.7-0.4,0.2-0.4,1.3-0.7c1.1-0.4,1.1-0.9,0.4-2.3l-0.9-1.3c-0.2-0.2,0,0-0.2-0.2c-0.9-0.7-1.4,0.4-2.3,0.7l-4.7,2.7
		C105.8,40.4,105.5,40.6,105.5,40.8z"/>
	<path class="st0" d="M89.8,29.2v5c0,0.5-0.4,1.1,0.4,1.6c0.5,0.5,0.9,0.2,1.6,0.2c0.7,0,1.1,0.4,1.8-0.2c0.7-0.5,0.4-0.9,0.4-1.6
		l0.2-6.5c-0.2-0.9-0.4-0.2-0.5-1.3h-3.4c0,1.1-0.2,0.4-0.5,1.3C89.6,28.3,89.8,28.5,89.8,29.2z"/>
	<path class="st0" d="M101.5,38.2c0.7,0,0.7-1.1,1.1-1.6c0.9-1.1,0.2-0.7,1.1-1.8l1.6-2.5c0.2-0.2,1.1-0.9,0.4-2
		c-0.4-0.5-0.2-0.2-0.9-0.4c-1.1-0.4-1.8-2.2-2.9-0.2l-2.7,4.9c-0.2,0.4-1.4,1.4-0.4,2.2c0.4,0.4,0.5,0.2,1.1,0.5
		c0.2,0.2,0.2,0.2,0.4,0.4C100.1,37.9,101.1,38.2,101.5,38.2z"/>
	<path class="st0" d="M69.1,39.9c0,0.9,0.9,0.7,1.6,1.3c1.1,0.7,3.4,2,4.3,2.7c0.9,0.7,1.8,0.9,2.3-0.9c0.4-1.3,0.9-0.7,0.9-1.6
		s-1.3-1.4-2.2-1.8c-0.7-0.4-0.4-0.4-0.9-0.5c-0.4-0.4-0.5-0.2-0.9-0.5c-0.5-0.2-0.4-0.4-0.9-0.5c-0.5-0.2-0.5-0.2-0.9-0.4
		c0,0-1.3-1.4-2.2-0.2C70,37.7,69.1,39.1,69.1,39.9z"/>
	<path class="st0" d="M78.1,31.2c0,1.1,1.1,1.8,1.6,2.9l1.4,2.5c0.4,0.5,0.5,2.9,2.9,0.9c0.5-0.5,2.5-0.7,1.3-2.2
		c-1.3-1.4-0.4-0.7-1.1-1.8c-0.5-0.5-0.2-0.4-0.5-0.9c-0.2-0.5-0.4-0.4-0.5-0.9l-1.3-2.3C81.2,28.5,78.1,30.3,78.1,31.2z"/>
</g>
</svg>
