<?xml version="1.0" encoding="utf-8"?>
<!-- Generator: Adobe Illustrator 23.0.3, SVG Export Plug-In . SVG Version: 6.00 Build 0)  -->
<svg version="1.1" id="Layer_1" xmlns="http://www.w3.org/2000/svg" xmlns:xlink="http://www.w3.org/1999/xlink" x="0px" y="0px"
	 viewBox="0 0 184.3 184.3" style="enable-background:new 0 0 184.3 184.3;" xml:space="preserve">
<style type="text/css">
	.st0{fill:#FFFFFF;}
</style>
<g id="Layer_x0020_1">
	<path class="st0" d="M41,73.9c0-1.8,0.2-2.7,1.3-4.1c0,0,0-0.2,0.2-0.2l0.9-0.9c0.9-0.7,2.7-0.5,4.3-0.5c1.1,0,1.6,0.9,2.2,1.6
		c1.4,1.3,1.1,1.8,1.1,4.3c0,1.3-0.7,2.2-1.4,2.7l-0.7,0.5c-1.6,1.1-0.9,0.9-3.4,0.9c-0.7,0-2.9-1.4-2.9-1.6
		C42.4,76.6,41,74.6,41,73.9z M55.6,72.8c0-2-0.5-1.6-1.1-3.4c-0.4-1.3-2-2.9-3.1-3.8c-0.5-0.4-0.7-0.7-1.3-0.9
		c-1.8-0.7-2.7-1.1-4.7-1.1l-3.8,1.3l-2,1.3c-0.2,0.2-0.5,0.7-0.9,1.1c-0.9,0.9-0.7,1.3-1.4,2.2c-0.9,1.3-0.5,4.5-0.5,6.1
		c0,0.5,0.2,0.9,0.4,1.3c0.9,1.3,1.8,2.9,3.2,3.8c0.4,0.4,0.7,0.4,1.1,0.5C42.6,82,42.1,82,44,82c1.1,0,3.6,0.2,4.7-0.2
		c0.7-0.2,0.7-0.4,1.3-0.7c0.5-0.4,2.2-1.1,3.1-2.2l1.3-2.2c0.2-0.9,0-0.5,0.5-1.4C55.4,74.8,55.6,74,55.6,72.8z M66.7,69.2v21.2
		c0,0.4,0.7,3.6-1.6,3.6H40.4c-1.8,0-2.3-4.1,0.9-4.1h21.1c0.4-0.4,0.5-0.5,0.5-1.1V67.6c0.5-2,1.8-1.8,3.4-1.4
		C67.3,67.9,66.7,68.5,66.7,69.2z M58.6,72.4v8.3c0,1.1-0.2,1.4-0.2,2.2c0,1.4,0.5,1.1,0,3.1c-1.3,0-1.4-0.2-2.7-0.2H40.8
		c-7.9,0-7.7,11.7-1.6,12.4c2.9,0.4,25,0.4,27.7,0c5-0.9,4-7.2,4.5-9.7c1.6,0,3.8,0.9,3.8-1.3V63.1c0-2.7-10.1-1.4-12.2-0.9
		C57.7,63.4,58.6,68.6,58.6,72.4z M78.4,66.1v23.8c0,5.4,1.3,8.3,7.4,8.3h55.6c2.7,0,7.2-0.9,7.2-4.7V70.8c0-2.9-61.6-13.1-69.7-8.8
		C77.7,62.5,78.4,64.5,78.4,66.1z M20.8,75.1v46.1c0,2.9,10.8,2.2,10.8,0v-6.3c0-1.1-0.2-1.3-0.2-2.2c1.4-1.3,0.5-0.2,2.7-0.2h115
		c1.3,0,2.3-0.9,2.9,0l-0.2,8.3c4.7,5.4,11.5,0.5,11.5,0.5c-0.5-24.5,0-23.8-1.1-45c-2.5-4-4.7-5.8-9.2-6.7c-0.7,0-1.3,0.9-1.3,1.6
		v26.5c0,3.8,0.5,4-2.5,3.8c-14.8,0-111.4,1.8-117.2,0.2c-1.3-0.4-0.5-34.7-0.5-38.5c0-0.5-0.2-0.5-0.2-1.1
		c-3.4-1.6-10.3,4-10.4,7.4C21,71.5,20.8,73,20.8,75.1z"/>
</g>
</svg>
