<?xml version="1.0" encoding="utf-8"?>
<!-- Generator: Adobe Illustrator 23.0.3, SVG Export Plug-In . SVG Version: 6.00 Build 0)  -->
<svg version="1.1" id="Layer_1" xmlns="http://www.w3.org/2000/svg" xmlns:xlink="http://www.w3.org/1999/xlink" x="0px" y="0px"
	 viewBox="0 0 184.3 184.3" style="enable-background:new 0 0 184.3 184.3;" xml:space="preserve">
<style type="text/css">
	.st0{fill:#FFFFFF;}
</style>
<g id="Layer_x0020_1">
	<g id="_2748603870784">
		<path class="st0" d="M136.1,116h10.1v9h-25.4c0.9-1.6,1.4-1.8,3.2-2.7c1.6-0.7,2.5-1.4,4-2.2C129.9,119.1,134.6,116,136.1,116z
			 M70.2,116h10.1v9H54.7c1.1-2,4.3-3.4,7.2-4.9C63.9,119.1,68.6,116,70.2,116z M104.2,119.4c-0.2-2,1.6-5.9,5.8-6.3
			c3.4-0.2,5.9,2.5,6.3,5.6c0.4,6.3-8.5,8.6-11.2,2.9C104.9,121.6,104.2,119.6,104.2,119.4z M38.1,119.4c-0.4-2,1.4-5.9,5.8-6.3
			c7.6-0.5,8.5,11.3,0.5,11.9c-2.2,0.2-4.7-1.3-5.6-3.2C38.9,121.6,38.1,119.6,38.1,119.4z M20.1,140.1h5.9v-9h63v9H95v-9h63v9h5.9
			v-32.9H158v18h-5.9v-9.7c0-2.5-2.7-5.2-5.2-5.2c-14.6,0-10.8-1.3-19.1,3.1c-1.8,0.9-4.3,2.2-5.9,3.4c-0.5-5.2-5.6-9.4-12.4-9.4
			c-5.8,0-11.2,5.4-11.2,11.2c0,2.9,0,4,1.4,6.8h-4.5V95.1h-5.9v30.1h-3.1v-9.7c0-2.3-2.9-5.2-5.2-5.2H68.2c-2.7,0-9,5.2-12.4,5.9
			c-3.2-13.9-23.6-10.6-23.6,2.2c0,2.9,0,4,1.4,6.8h-7.6V95.1h-5.9C20.1,95.1,20.1,140.1,20.1,140.1z"/>
		<path class="st0" d="M136.1,65.1h10.1v9h-25.4c1.1-2,4.3-3.4,7-4.9C129.9,68.1,134.6,65.1,136.1,65.1z M70.2,65.1h10.1v9H54.7
			c1.3-2.3,8.3-5.4,11-7C66.9,66.5,68.6,65.1,70.2,65.1z M104.2,68.5c-0.2-1.8,1.6-5.9,5.8-6.3c7.6-0.5,8.5,11.3,0.5,11.9
			c-2.2,0.2-4.7-1.3-5.6-3.2C104.9,70.5,104.2,68.7,104.2,68.5z M38.1,68.5c-0.4-2,1.8-5.9,5.8-6.3c3.4-0.2,5.9,2.5,6.1,5.6
			c0.2,3.2-2.5,5.9-5.6,6.3C41.2,74.2,38.7,71.5,38.1,68.5z M20.1,89.2h5.9v-9h63v9H95v-9h63v9h5.9V56.1H158v18h-5.9v-9.7
			c0-2.3-2.9-5.2-5.2-5.2h-12.8c-2.7,0-9,5.2-12.4,5.9c-3.2-13.9-23.6-10.8-23.6,2.2c0,2.9,0,4,1.4,6.7H95V44.2h-5.9v30.1H86
			c0-6.5,0.9-10.4-1.8-13.1c-1.1-1.3-1.8-1.8-3.8-1.8c-14.2,0-10.4-1.3-18.7,3.1c-1.8,0.9-4.3,2.2-5.9,3.4c0-4.1-5.4-9.4-10.8-9.4
			c-11.2,0-15.3,10.3-11.2,18h-7.6V44.2h-5.9L20.1,89.2L20.1,89.2z"/>
	</g>
</g>
</svg>
