<?xml version="1.0" encoding="utf-8"?>
<!-- Generator: Adobe Illustrator 23.0.3, SVG Export Plug-In . SVG Version: 6.00 Build 0)  -->
<svg version="1.1" id="Layer_1" xmlns="http://www.w3.org/2000/svg" xmlns:xlink="http://www.w3.org/1999/xlink" x="0px" y="0px"
	 viewBox="0 0 184.3 184.3" style="enable-background:new 0 0 184.3 184.3;" xml:space="preserve">
<style type="text/css">
	.st0{fill:#010101;}
	.st1{fill:#020202;}
</style>
<g id="Layer_x0020_1">
	<g id="_2748477597984">
		<path class="st0" d="M99,136.5V82.3c1.4,11.9,19.6,43.7,30.4,53.1l5.8,4.5c0.2,0.2,0.2,0.2,0.4,0.4c0.2,0.2,0.2,0.4,0.4,0.4
			c0.2,0.2,0.2,0.2,0.4,0.4L99,140.8C99,140.8,99,136.5,99,136.5z M16.5,150.9h151.7v-10.1h-10.8L98.8,60.6
			c-1.8,1.3-5.9,7.6-7.4,9.9L40.1,141H16.7L16.5,150.9z"/>
		<path class="st0" d="M23,75l8.5,4.5c-0.7,3.1-6.1,10.4-8.5,13.1c-1.8,2.2-2.5,2.2-3.6,4.3c2,1.6,6.1,3.6,8.5,4.7
			c-2,6.5-10.4,14.9-12.1,17.6l1.8,1.4c4,2.7,11.7,4.9,16.2,5.9l0.2,10.1c2.7,0,2.3,0.9,5.6-3.6c1.3-1.8,2.7-3.6,4-5.6l16.2-22.3
			c2.7-3.6,5.8-7.6,8.1-11.2c-0.9-2.9-6.3-7.6-9-14.4c1.8-1.6,4.1-2.3,6.3-3.8l2.2-1.8c-8.8-6.7-17.8-25.7-21.1-37.6l-1.1-2.7
			c0-0.2-0.2-0.4-0.2-0.4C42.5,44,36.7,56.8,30.6,65.8c-1.3,1.8-2.2,3.1-3.2,4.5c-1.1,1.4-0.7,0.9-2,2.2C23.6,73.9,23.9,73.2,23,75z
			"/>
		<path class="st1" d="M167.7,76.6c-15.7,6.8-27.9-4.1-28.1-16.2c-0.2-6.5,1.8-8.5,4.1-12.6c-12.4,3.2-19.6,21.1-9.5,32.4
			C144.3,91.7,161.4,88.8,167.7,76.6z"/>
	</g>
</g>
</svg>
