<?xml version="1.0" encoding="utf-8"?>
<!-- Generator: Adobe Illustrator 23.0.3, SVG Export Plug-In . SVG Version: 6.00 Build 0)  -->
<svg version="1.1" id="Layer_1" xmlns="http://www.w3.org/2000/svg" xmlns:xlink="http://www.w3.org/1999/xlink" x="0px" y="0px"
	 viewBox="0 0 184.3 184.3" style="enable-background:new 0 0 184.3 184.3;" xml:space="preserve">
<g id="Layer_x0020_1">
	<g id="_2748482645200">
		<path d="M29.7,90.8c2.9-0.9,5.9-2.7,8.8-4l61.9-28.3v-7.7c-2.2,0-46.3,20.5-55.4,24.7L17.7,87.9c-6.3,2.7-5,1.1-4.9,10.6l8.8-3.6
			v35.3l78.8-0.2v-7.9H29.7V90.8z"/>
		<path d="M62.3,117.6h38c-0.2-16.9,2.2-17.6-10.1-17.6H62.3V117.6z"/>
		<path d="M53,111.7c-3.2,0-6.7-0.2-9.9,0c-3.8,0.2-4.5,1.8-3.6,5c3.1,1.6,14.6,1.4,18.5,0.4c1.4-2.9,1.6-15.1,0.2-16.7
			c-1.8-2-4.9-0.9-5.2,2.2C52.8,105.2,53,109.1,53,111.7z"/>
		<path d="M41.4,97.1c-7,2.7-3.2,14,4.7,11.2C53,105.9,49.7,93.8,41.4,97.1z"/>
	</g>
	<g id="_2748482644528">
		<path d="M135.4,43.6c9-0.9,12.8,5.9,13.7,6.8c0.9,0.9,5,0.7,8.3,4.3c0.4,0.4,0.7,0.5,1.1,1.1c4,4.5,4.5,11.7,1.3,17.1
			c-1.6,2.5,0.5,2.9,1.6,3.6c5.9,3.6,9,11.5,5.4,18.5c-2.9,5.9-9.4,9.4-16.2,7.7c-4.1-0.9-2.2-2-5.9,0.2c-0.7,0.4-2.5,1.1-2.9,1.3
			c-0.7,0.7-0.7,2.2,0.2,2.7c1.8,1.3,4.3-1.8,6.1-1.3c2.9,0.7,4.1,1.3,7.4,0.9c5.6-0.4,10.1-3.2,13.1-7.7c0.5-0.9,1.1-1.6,1.6-2.7
			c3.2-7,1.4-13.7-2.5-18.9c-1.8-2.3-4-2.7-3.6-4.7c0.2-0.9,0.7-2,1.1-3.1c0.2-1.1,0.5-2.3,0.5-3.4c0.2-5-1.6-9.4-4.1-12.2
			c-4.9-5.8-9-5.2-10.1-6.5c-1.8-2-1.8-2.2-4.3-4c-5.6-4-13.7-4-19.3-0.5c-2,1.3-3.1,2.2-4.5,4c-2.5,3.1-1.6,3.8-3.6,4.5
			c-4.1,1.6-7.4,4.3-9.2,7.6c-2.2,3.8-3.2,8.5-2.2,13.3c1.1,4.1,2,2.7-0.4,5.9c-7,9.4-3.1,23,7.6,27.2c8.3,3.2,11.9-0.5,14,0.5
			c0.9,0.5,1.8,1.1,2.9,1.3c1.3,0.4,2.3-0.4,2.5-1.6c0.2-1.8-1.8-1.6-4.7-3.4c-2.2-1.4-2,0.5-6.7,0.9c-2.5,0.2-4.9-0.2-7-1.1
			c-3.4-1.4-6.7-4.7-7.9-8.6c-1.6-5.2-0.2-11.3,2.9-14c1.6-1.4,2.7-2.2,1.8-4c-2.2-4.1-2.9-8.8-0.7-13.3c1.8-3.8,4.9-6.5,9-7.7
			c1.6-0.5,1.6-0.4,2.3-2C125.3,47.9,129.5,44.2,135.4,43.6z"/>
		<path d="M139.5,95.8c-0.2-2.2,0-7.9,0-10.8c0-1.8,0-1.4,0.9-2.7l8.1-13.3c0.4-1.8-1.8-3.6-3.4-0.9l-5.6,8.6c0-1.8,0.5-5.9-0.7-6.8
			c-1.1-0.7-2.2-0.2-2.5,0.7c-0.4,0.7,0,15.5-0.2,18.4l-6.7-5.6c-2.7-2.7-4-0.2-3.6,1.1c0.2,0.7,1.8,1.8,2.3,2.5l6.7,5.6
			c0.5,0.5,0.5,0.7,1.3,1.1c0.2,4,0,8.3,0,12.2v36.5c0.2,2,2.9,2,3.2,0.4c0.4-1.3-0.2-41.9,0.2-42.5c1.8-1.6,4-3.1,5.8-4.3
			c0.9-0.7,2-1.4,2.9-2.2c0.7-0.5,2.3-1.6,2.5-2.5c0.2-1.4-1.3-2.5-2.7-1.8c-0.9,0.5-2,1.6-2.9,2.2c-1.1,0.7-1.8,1.4-2.9,2.2
			C141.3,94.6,140.4,95.3,139.5,95.8z"/>
	</g>
</g>
</svg>
