<?xml version="1.0" encoding="utf-8"?>
<!-- Generator: Adobe Illustrator 23.0.3, SVG Export Plug-In . SVG Version: 6.00 Build 0)  -->
<svg version="1.1" id="Layer_1" xmlns="http://www.w3.org/2000/svg" xmlns:xlink="http://www.w3.org/1999/xlink" x="0px" y="0px"
	 viewBox="0 0 184.3 184.3" style="enable-background:new 0 0 184.3 184.3;" xml:space="preserve">
<style type="text/css">
	.st0{fill:#FFFFFF;}
</style>
<g id="Layer_x0020_1">
	<g id="_2748482644912">
		<path class="st0" d="M79.2,63.6C79.2,63.7,79.4,63.7,79.2,63.6c-0.5,0.7-0.9,1.1-1.4,1.8c-0.4,0.5-0.7,1.1-1.1,1.8
			c-0.4,0.7-1.4,3.8-1.4,4l-0.2,1.6c-0.2,2.3,0,4.7,0,7c0,1.1,0,2.2,0,3.2c0,0.5,0,1.3,0,1.8c0,1.4,0.2,1.3-0.2,1.4h-1.8h-3.6h-2.9
			h-3.4h-2.9h-3.6H54h-3.4c-4.1,0-5,1.6-5,5.6c0,1.8,0,3.8,0,5.6c0,2.3,0,2.9,1.1,4.3c0.4,0.2,0.2,0.2,0.5,0.5
			c0.2,0.2,0.2,0.2,0.4,0.2c0.4,0.2,0.2,0,0.4,0.4c0.7,0,1.8,0.2,2.7,0.2H54h2.9h3.6h2.9h3.4h2.9h3.6h2.9h3.4h2.9h3.4h2.9h3.6h2.9
			h3.4h2.9h3.6h2.9h3.4h2.9h3.6h2.9h3.4h2.9h3.4h2.9h3.6h2.9h3.4h2.9h3.6h2.9h3.2v-0.9c0-7.6,0.2-15.8-0.2-23.4
			c-0.2-1.1-1.1-4.9-1.1-5.2L153,70l-0.2-0.4l-2.2-2.9c-0.4-0.2-0.2,0-0.5-0.4c-0.2-0.2-0.2-0.2-0.2-0.2c-0.2-0.2-0.2,0-0.2-0.2
			c-0.5-0.2-0.2,0-0.5-0.4l-2.5-2c-0.7-0.2-1.3-0.5-1.8-0.7c-0.5-0.2-1.3-0.5-1.8-0.9c-0.5,0-2.2-0.5-2.7-0.7
			c-2.2-0.4-3.8-0.7-6.1-0.7c-2.3,0-4.5,0-6.8,0h-2.9h-3.4h-2.9h-3.6h-2.9h-3.4h-2.9h-3.4h-2.9h-3.4h-2.9h-3.4c-0.9,0-2,0.2-2.5-0.2
			c0,0-0.2,0-0.2,0.2l-0.9,0.2C81.2,61.6,80.3,63,79.2,63.6z"/>
		<path class="st0" d="M28.7,54.4v2.9v3.4v2.9V67v2.9v3.4v2.9v3.4v2.9v3.4v2.9v3.4v2.9v3.4v2.9v3.4v2.9v3.4v2.9v3.4v2.9v3.4v2.9v3.4
			l-0.2,2.7c0.2,0.2,0.2-0.4,0.2,0.5c0.7,1.6,0.9,2,2.7,2.7l0.4,0.2c1.4,0.2,2.3,0.2,3.4-0.5c1.3-0.7,1.1-1.1,1.6-2.3
			c0.5-4.3-0.2-9.4,0.2-13.9h110c0.2,1.1,0,9.9,0,11.9c0,5.6,4.5,5.6,6.5,4.5c1.3-0.7,2-2,2-4.1c0-2,0-4,0-5.9
			c0-2.3,0.2-10.3-0.2-12.1c-0.2-1.4-1.3-2-2.5-2.5c-2-0.4-4.7-0.2-6.8-0.2H143h-3.4h-2.9h-3.6h-2.9h-3.4h-2.9h-3.4h-2.9H114h-2.9
			h-3.4h-2.9h-3.6h-2.9h-3.4H92h-3.6h-2.9h-3.4h-2.9h-3.4h-2.9h-3.6h-2.9H63h-2.9h-3.6H54h-3.4h-2.9h-3.4h-2.9h-4.3
			c-0.4-14.6,0.2-29.9,0-44.8c0-2.2-0.2-13.9,0.2-15.1l-0.2-0.5c-0.4-0.9-0.5-1.8-1.6-2.5c-0.9-0.5-2.3-0.9-3.6-0.5
			C28.7,48.8,28.7,51.1,28.7,54.4z"/>
		<path class="st0" d="M54.2,52.8c-0.5,0.5-2,0.9-2.7,1.4c-4.3,2.9-4.7,5.8-5.4,6.7l-0.5,2.7l0.2,3.4l0.7,2.5
			c0.4,0.2,1.1,1.8,1.4,2.3c1.8,2.5,3.2,3.4,5.8,4.7c0.5,0.2,0.2,0,0.5,0.4l2.9,0.5l3.4-0.2l2.9-0.9c0.2-0.2-0.2-0.2,0.4-0.2
			c0.4-0.4,0.9-0.5,1.4-0.9c0.2-0.2,0.5-0.4,0.7-0.5c0.5-0.4,0.2-0.2,0.7-0.4c0.2-0.4,0-0.2,0.4-0.4l1.1-0.9
			c0.2-0.4,0.7-0.9,0.9-1.4c0.4-0.5,0.5-1.1,0.9-1.4c0.2-0.5,0-0.2,0.2-0.4l0.9-2.9l0.2-3.4l-0.5-2.9L70.2,60
			c-1.1-2.5-2.3-4.1-4.7-5.8c-0.5-0.4-2-1.1-2.3-1.4L60.7,52l-3.4-0.2L54.2,52.8z"/>
	</g>
</g>
</svg>
