<?xml version="1.0" encoding="utf-8"?>
<!-- Generator: Adobe Illustrator 23.0.3, SVG Export Plug-In . SVG Version: 6.00 Build 0)  -->
<svg version="1.1" id="Layer_1" xmlns="http://www.w3.org/2000/svg" xmlns:xlink="http://www.w3.org/1999/xlink" x="0px" y="0px"
	 viewBox="0 0 184.3 184.3" style="enable-background:new 0 0 184.3 184.3;" xml:space="preserve">
<g id="Layer_x0020_1">
	<path d="M84.7,19.3c-13.5-7.2-28.3-4-36.4,9.5c-3.2,5.4-2.9,7.6-2.9,15.5c-2.7,1.4-3.4,1.4-5,4.1c-2.9,4.7-3.1,7.7-0.9,12.6
		c-3.8,5.6-8.3,10.8-8.3,20c0,7.4,3.2,13.1,7.4,16.9c4.1,3.6,5.4,2.3,7.2,4.5c2,2.5,5.2,26.1,38.9,26.1c0,8.8,1.3,32.8-1.8,38.2
		c-2.3,4.3-4,2.2-4.9,5.9h28.3c-1.3-4.7-3.4-1.4-5.6-7.7c-1.6-4.5-0.9-21.4-0.9-27.4c0-5.4-0.9-7.6-0.9-13.3
		c10.8-5.8,4.7-1.6,14.2-1.6c14.8,0,24.5-10.1,28.8-21.1c4.9-12.2-1.6-11.2,4.9-20.2c13.9-19.4,4.1-50.2-23.8-50.2
		c-0.4-5-2.9-10.1-6.8-13.9l-0.4,22.3l6.1,9.5l0.7,48.8H68.1V49L100,32.1l0.2-20.5c-1.8,0.2-3.6,0.5-5.4,1.3
		C89.7,14.5,88.3,16.8,84.7,19.3z"/>
</g>
</svg>
