<?xml version="1.0" encoding="utf-8"?>
<!-- Generator: Adobe Illustrator 23.0.3, SVG Export Plug-In . SVG Version: 6.00 Build 0)  -->
<svg version="1.1" id="Layer_1" xmlns="http://www.w3.org/2000/svg" xmlns:xlink="http://www.w3.org/1999/xlink" x="0px" y="0px"
	 viewBox="0 0 184.3 184.3" style="enable-background:new 0 0 184.3 184.3;" xml:space="preserve">
<style type="text/css">
	.st0{fill:#FFFFFF;}
</style>
<g id="Layer_x0020_1">
	<path class="st0" d="M63.5,133.5c2.2-1.6,3.2,3.4,1.6-6.7c-0.5-2.9-0.7-5.8-1.1-8.6c-1.4-10.4-2.2-16,0.2-26.5
		c0.4-1.6,1.8-6.3,2.5-7.2c1.1-1.3,2.5-0.5,3.2,0.2c3.2,2.9,5.6,3.6,9.7,5c0.2,1.6-0.2,4.9-0.2,6.5c0,2.2,0.4,4.1,0.5,6.1
		c1.8,14.6,2.3,22.5-0.5,37.6c-0.7,3.6-1.6,7.7-2.5,11.2c-1.8,5.9-2,4.9-7.4,2.7c-3.1-1.3-3.8-0.9-4.1-2.9l-2.3-17.3
		C63.3,133.3,63.3,133.6,63.5,133.5z M82.6,79.3c-3.8-0.2-7-3.8-8.1-6.8c-1.3-4.1,0.4-8.5,1.8-12.1c3.4-8.8,3.4-5.8,7.2-7.6
		c5-2.3,9-8.6,6.8-14.4c-3.8-10.1-18.5-7.7-21.1,3.1c-0.9,3.6,0.4,5,0,6.7c-0.2,0.9-1.1,1.8-1.6,2.3c-2,1.8-4,3.2-5.8,5.4
		c-9.2,10.4-14.4,16.7-21.2,30.8c-4.9,9.9-8.8,22.7-10.4,34.2c-0.2,2-1.6,12.4-0.9,13.7c0.5,0.5,5.6-0.4,7.6,0
		c0.5,2.5-3.2,23.4-2.7,25.7c4.5,0.2,9.4-0.2,13.9-0.4c1.3,0,2.3,0,2.7-0.9c0.5-1.4-0.5-1.8-1.4-2c-1.8-0.7-3.4-1.4-5-2.2
		c-2.9-1.3-2.3-1.4-1.6-4.3c0.9-2.5,4.9-16,5.2-16.6h5.2l7.4,25.6c6.3,0.2,13.5-0.4,19.8-0.5l14.8-0.5c1.6-0.4,1.8-2.3,0.4-3.1
		c-8.1-4-6.5,0-4-12.4c1.3-6.3,1.3-12.1,2.2-18.4c0.7,0.4,1.3,2.9,1.4,3.8c0.4,1.4,0.9,2.5,1.3,4c1.6,5.2,3.2,11.5,4.3,16.9
		c0.4,1.8,1.1,7.9,1.8,8.8c0.2,0,16.6-0.2,17.3-0.7c0.5-0.4,1.1-1.3,0.5-2c-0.5-0.9-4.9-2.2-6.5-2.5c-2.3-0.7-2.2-0.9-2.5-3.4
		l-4.7-31.7c-2.3-15.7-4.7-25.6,2.9-40.7c0.9-1.8,5.6-10.1,7.6-10.4c1.4-0.2,1.8,1.4,3.1,3.1c0.9,1.1,1.8,2.3,2.5,3.4
		c2.7,3.4,5.6,6.5,8.6,9.5l9.7,8.3c0.9,0.5,0.9,1.1,0.2,1.8c-0.7,0.9-0.7,1.1-0.7,2.5l3.1-0.4l0.4-1.6c1.3,0,1.8,1.3,4.7,2
		c0,2.3-5.2,27.9-5.9,30.8c-0.9,5-2,10.3-3.1,15.3c-0.4,2.2-2.9,14.4-2.9,15.5c0.7,0.2,2,0.4,2.7,0.4c0.5-1.3,9.7-48.1,10.8-53.5
		c0.2-1.3,0.5-2.5,0.9-3.8c0.2-1.1,0.5-3.2,0.7-4c2-0.4,3.8-1.6,3.2-4c-0.4-1.6-2.2-2.3-3.8-3.6c-13.5-9.7-22.5-22.3-26.6-38.7
		c-2.5-9.7,5.9-2.2,11.7-9c5-5.9,2.2-16.4-7.6-16.7c-5.9-0.2-11.2,4.5-12.1,9.5c-0.5,2.9,0.5,3.8-2.2,5c-3.1,1.6-8.5,4.9-11,7.2
		c-2.2,2-3.6,2.9-5.6,5.2c-2.3,2.5-4.3,5-6.5,8.1c-3.1,4.3-5.4,9.4-7.4,14.6C83.7,75.5,83.1,77.3,82.6,79.3z"/>
</g>
</svg>
