<?xml version="1.0" encoding="utf-8"?>
<!-- Generator: Adobe Illustrator 23.0.3, SVG Export Plug-In . SVG Version: 6.00 Build 0)  -->
<svg version="1.1" id="Layer_1" xmlns="http://www.w3.org/2000/svg" xmlns:xlink="http://www.w3.org/1999/xlink" x="0px" y="0px"
	 viewBox="0 0 184.3 184.3" style="enable-background:new 0 0 184.3 184.3;" xml:space="preserve">
<style type="text/css">
	.st0{fill:#FFFFFF;}
</style>
<g id="Layer_x0020_1">
	<g id="_2748482614064">
		<path class="st0" d="M131.2,125.3c0-10.1,8.6-7.9,8.6-3.6v7.2h-8.6V125.3z M120.4,106.6c0,3.4,0,3.4,2.9,3.6v36.9
			c0,12.4-4.3,10.1,23,10.1c1.6,0,2.2-0.5,2.2-2.2v-44.8h2.9c0-7.9,3.4-5.8-28.8-5.8C120.9,104.5,120.4,105,120.4,106.6z"/>
		<path class="st0" d="M43,123.2c0-2.9,1.6-5,4.3-5s4.3,2.2,4.3,5v5.8H43V123.2z M32.2,106.6v3.6h2.9v47h24.5v-47h2.9v-5H38
			C34.9,105.2,32.2,103,32.2,106.6z"/>
		<path class="st0" d="M108,134.7h5v5h-5V134.7z M69.1,134.7h5v5h-5V134.7z M63.3,128.9v28.3h17.3c0-7-1.1-14,2.7-18.2
			c5.4-5.9,18.9-4.7,18.9,9.5v8.6h16.6v-30.4H65.3C63.7,126.8,63.3,127.3,63.3,128.9z"/>
		<path class="st0" d="M87.1,93.7c0-1.6,2-3.6,3.6-3.6c3.4,0,5,1.6,5,5v5.8h-8.6V93.7z M71.3,84.3h5v27.4H106V84.3h5v-7.9h-3.6v2.9
			h-3.6v-2.9h-3.6v2.9h-3.6v-2.9H93v2.9h-3.6v-2.9h-3.6v2.9h-3.6v-2.9h-3.6v2.9H75v-2.9h-3.6v7.9H71.3z"/>
		<path class="st0" d="M90,27.8c0,17.3,1.6,12.4-6.7,30.2c-0.9,2.2-1.8,3.4-2.5,5.4c-1.4,3.4-3.6,7-4.5,10.8h30.4L95.4,48.7
			c-4-8.1-3.1-6.3-3.1-16.4c5.6,0,12.4,0.9,15.1-2.9c-6.3,0-5.6-0.9-9.5-2c-2.7-0.7-2.9-0.4-4.1-0.2L90,27.8z"/>
		<polygon class="st0" points="63.3,123.9 119.7,123.9 119.7,115.3 63.3,115.3 		"/>
		<path class="st0" d="M137.7,42.9h-2.9c0,16.2-0.9,16-7.4,33.1c-0.9,2.5-2.2,4.9-2.9,8.1h22.3c-2.2-4.5-3.6-9.7-5.2-14.9
			c-4.1-12.2-4.9-8.8-4.9-21.2c7,0,10.6,1.1,15.1-2.9c-4.7,0-4,0.4-7.6-1.3C139.5,41.6,140.4,42.9,137.7,42.9z"/>
		<path class="st0" d="M120.4,87.7v2.9h4.3v11.5H147V90.6h4.3c0-5.6,0.5-5-5.8-5c-2.3,0-2.2,1.3-2.2,3.6h-2.9v-3.6h-2.9v3.6h-3.6
			v-3.6h-2.9v3.6h-3.6v-3.6C122.4,85.6,120.4,84.8,120.4,87.7z"/>
		<path class="st0" d="M32.2,87.7v2.9h4.3v11.5h21.6c0-12.6-1.1-11.5,4.3-11.5v-5c-7.4,0-7.2-0.5-7.2,3.6h-2.9
			c0-3.8,0.7-2.2-1.4-3.6c-2.9,0.7-2.2,0.2-2.2,3.6h-2.9c-0.2-3.8,0.7-2.2-1.4-3.6c-2.9,0.7-2.2,0.2-2.2,3.6h-2.9c0-4,0-3.6-5-3.6
			C32.6,85.6,32.2,86.1,32.2,87.7z"/>
		<path class="st0" d="M36.5,84.3h21.6C57.9,81.6,51.6,65,50,60.5c-0.4-1.1-1.4-3.6-1.8-4.7c-0.9-3.6-0.4-8.8-0.4-12.8h-1.4
			c0,15.5-0.4,14.6-7,31.3C38.5,77.5,37.2,81.2,36.5,84.3z"/>
		<path class="st0" d="M48.8,48.1c5.6,0,10.3,0.7,14.6-2.9c-7.6,0-7-2.9-14.6-2.9V48.1z"/>
	</g>
</g>
</svg>
