<?xml version="1.0" encoding="utf-8"?>
<!-- Generator: Adobe Illustrator 23.0.3, SVG Export Plug-In . SVG Version: 6.00 Build 0)  -->
<svg version="1.1" id="Layer_1" xmlns="http://www.w3.org/2000/svg" xmlns:xlink="http://www.w3.org/1999/xlink" x="0px" y="0px"
	 viewBox="0 0 184.3 184.3" style="enable-background:new 0 0 184.3 184.3;" xml:space="preserve">
<style type="text/css">
	.st0{fill:#FFFFFF;}
</style>
<g id="Layer_x0020_1">
	<path class="st0" d="M29.9,147.7v-6.5c7-0.4,11-0.9,11.9-1.4c0.9-0.7,1.6-2,2-3.8c0.4-2.9,0.5-10.3,0.5-22V70.5
		c0-14.8-0.4-22.7-0.9-24.1c-0.2-0.7-0.7-1.4-1.3-1.8c-1.1-0.7-5.2-1.3-12.2-1.6v-6.5C40.5,36.8,48.8,37,55.1,37
		c9.7,0,18.7-0.2,26.8-0.5V43c-6.5,0.4-10.4,0.9-11.5,1.4c-0.7,0.4-1.3,0.7-1.6,1.4c-0.5,0.9-0.9,4-1.1,9.2
		c-0.2,7.6-0.4,15.3-0.4,23.2v6.7c5.4,0.2,14.2,0.4,26.1,0.4c10.6,0,18.4-0.2,23.4-0.4c0-17.3-0.2-28.6-0.5-34.2
		c-0.2-3.1-0.7-4.9-1.6-5.6c-1.3-0.9-5.2-1.6-12.2-2v-6.5c13.1,0.4,22,0.5,26.6,0.5c7.9,0,16.4-0.2,25.2-0.5v6.5
		c-6.7,0.4-10.8,0.9-11.7,1.4c-0.7,0.4-1.1,0.9-1.4,1.4c-0.5,1.1-0.7,5.4-0.9,13c-0.4,11.5-0.5,20.9-0.5,28.1l0.5,36
		c0.2,8.3,0.4,12.8,0.7,14c0.4,1.3,0.9,2.2,1.8,2.5c0.9,0.5,4.7,0.9,11.7,1.4v6.5l-8.8-0.2c-6.5-0.2-11.7-0.4-15.5-0.4
		c-7.7,0-16.9,0.2-27.5,0.5v-6.5c7-0.4,11-0.9,11.9-1.8c0.9-0.9,1.6-3.1,1.8-6.5c0.4-6.1,0.5-18.9,0.7-38.7c-5.9,0-12.4,0-19.6,0
		c-11.3,0-21.2,0.2-29.9,0.4v5.2c0,13.9,0.2,24.3,0.5,31.3c0.4,4.7,0.9,7.4,2,8.1c0.9,0.7,5,1.4,12.1,1.8v6.5l-9.4-0.2
		c-5.9-0.2-11.2-0.4-15.8-0.4L29.9,147.7z"/>
</g>
</svg>
