<?xml version="1.0" encoding="utf-8"?>
<!-- Generator: Adobe Illustrator 23.0.3, SVG Export Plug-In . SVG Version: 6.00 Build 0)  -->
<svg version="1.1" id="Layer_1" xmlns="http://www.w3.org/2000/svg" xmlns:xlink="http://www.w3.org/1999/xlink" x="0px" y="0px"
	 viewBox="0 0 184.3 184.3" style="enable-background:new 0 0 184.3 184.3;" xml:space="preserve">
<g id="Layer_x0020_1">
	<g id="_2748705019696">
		<path d="M31.6,126.1v1.3c0,2.5,2.5,5.2,5.2,5.2c4.5,0,4.9-1.6,7-5.2l4.3-7.4c0.5-0.9,2.5-4.3,2.9-4.7c0,9.5-0.5,8.5-1.6,17.6
			l-1.8,12.8c-0.4,2.5-1.8,8.3,3.4,8.3v17.3c0,3.6,2.3,6.1,5.8,6.5c3.2,0.4,6.5-2.5,6.5-5.6V154H68v17.5c0,3.4,2.5,5.9,5.8,6.3
			c3.2,0.2,6.5-2.5,6.5-5.6V154c5.2,0,3.8-5.8,3.4-8.3c-0.2-1.6-0.4-2.7-0.5-4.3l-2.9-21.2c0-1.6,0-3.2,0-4.9l0.9,1.3
			c0.4,0.5,0.5,0.7,0.9,1.4l8.1,13.9c1.3,2,2.5,3.6,5.4,3.6c4,0,5-2.5,6.3-4.9l7.2-12.1V165c0,3.1-0.4,4.9,0.9,7
			c2.9,4.9,11,3.2,11.3-2.5c0.4-4-0.4-30.6,0.2-32.2c0.5-1.4,1.4-1.4,2.2-1.4c3.2,0,2.2,6.3,2.2,9.5V169c0.2,5.8,7.9,8.3,11.2,3.1
			c1.3-2,1.1-3.6,1.1-6.8v-46.6c0.2,0.2,0.2,0,0.4,0.4l5.4,9.2c2.3,4,3.2,7.4,8.1,7.4c2.7,0,5.4-2.5,5.4-5.2c0-3.6-0.9-3.6-2.5-6.8
			l-18.4-31.5c-1.3-1.8-2.5-2.7-5.6-2.7h-14.6c-4.5,0-5.4,2.3-7,5.2l-11.3,19.4c-0.7,1.3-1.4,2.5-2.2,4c-0.9-0.5-4.1-6.7-4.9-8.1
			l-8.5-14.4c-2.2-3.8-4.1-8.6-7.9-8.6h-18c-0.9,0-2.2,0.9-2.7,1.3c-0.7,0.5-1.3,1.4-1.6,2.2l-9,15.3c-2,3.4-3.8,6.7-5.9,10.1
			C35.9,117.5,31.6,124.1,31.6,126.1z"/>
		<path d="M54.3,65.3c-3.2-0.4-5.6-0.4-8.6,1.6c-1.8,1.3-2.9,2.3-3.6,4.7c-0.5,2.2-1.6,10.1,0.5,11.9c1.8,1.6,7.4,0.7,8.3-0.9
			c1.1-2.2-1.4-8.5,1.6-10.8c0,2,0.5,3.6,1.1,5c0.7,1.6,1.4,2.3,2.5,3.6c0.7,0.9,2.5,2.2,3.4,2.7c5.2,2.7,12.2,1.6,15.7-2.7
			c2.2-2.5,3.6-5,3.6-8.6c3.1,2.3,0.5,8.6,1.6,10.6c0.9,1.8,6.5,2.7,8.3,1.3c2.2-1.6,1.3-9.5,0.7-11.9c-0.7-3.1-3.2-5-5.9-5.9
			c-2.3-0.9-3.8-0.5-5.9-0.4l-2-2.9c-2.7-3.2-8.6-5.2-13.5-3.6c-1.1,0.4-2.3,0.9-3.2,1.4C56.8,61.5,55.4,63.1,54.3,65.3z"/>
		<path d="M110.1,73.7c0,12.2,14,18,22.5,9.5c7.7-7.7,2.9-22.3-9.7-22.3C116.2,61.1,110.1,67.1,110.1,73.7z"/>
	</g>
	<polygon points="35.2,52.5 35.2,91.2 28,91.2 28,56.6 20.1,61.3 14.7,52 89.4,8.8 92.1,7.1 94.8,8.8 125.9,26.8 125.9,6.4 
		140.5,6.4 140.5,35 169.5,52 164.1,61.3 158.9,58.3 158.9,91.2 151.7,91.2 151.7,54.1 92.1,19.7 	"/>
</g>
</svg>
