<?xml version="1.0" encoding="utf-8"?>
<!-- Generator: Adobe Illustrator 23.0.3, SVG Export Plug-In . SVG Version: 6.00 Build 0)  -->
<svg version="1.1" id="Layer_1" xmlns="http://www.w3.org/2000/svg" xmlns:xlink="http://www.w3.org/1999/xlink" x="0px" y="0px"
	 viewBox="0 0 184.3 184.3" style="enable-background:new 0 0 184.3 184.3;" xml:space="preserve">
<style type="text/css">
	.st0{fill:#FFFFFF;}
</style>
<g id="Layer_x0020_1">
	<g id="_2748603134096">
		<path class="st0" d="M55.5,115.3l9.7,0.2v10.1h-9.7V115.3z M38.1,91.2h9.4l0.2,10.4h-9.7c-0.7-1.8-0.5-3.1-0.5-5.4
			c0-0.9,0-2.3,0-3.1C37.7,91.4,38.1,91.4,38.1,91.2z M36.8,116.9l0.7-0.9l0.9-0.7c7.7-0.4,9.4-0.7,9.9,4v15.5h25l-0.2-54.5H30.5
			l-0.2,54.5l6.7,0.2L36.8,116.9z"/>
		<path class="st0" d="M139.6,75.2c1.8-1.4,6.7-1.3,9.9-0.4l-0.2,10.1c-2.7,0.5-7.4,1.1-9.7-0.4V75.2z M128.4,134.9l0.2-14.2
			l0.7-0.7h0.9c1.1-0.5,6.5-1.6,7.6,0.2l1.1,0.5l0.7,0.9l0.2,13.5h14.9l0.2-66.4l-33.1-0.4v66.6H128.4z"/>
		<path class="st0" d="M85.1,97.7l7.9,0.2c1.1,3.1,0.9,5.2,0.2,8.6h-8.3L85.1,97.7z M101.1,98.6c1.1-0.9-0.4-0.4,1.6-0.9
			c0.2,0,2-0.2,2.2-0.2c2.2,0,2.5,0,4.1,0.7v8.3l-7.9-0.2V98.6z M91,134.8c-0.2-3.8-0.9-10.4,0.5-13.1c0.5-1.6-0.4-1.1,1.8-1.6
			c1.4-0.9,6.3-1.4,7.4,0c2.7,0.9,2.2,2.3,2.2,6.1c0,2.9,0,5.6-0.2,8.5l12.8,0.2v-47H78.6l-0.2,47L91,134.8z"/>
		<path class="st0" d="M30,76.1V77l43.2-0.2l0.2-1.1C71.9,73.7,53.6,55,51.8,55C49.4,55,31.6,73.9,30,76.1z"/>
		<path class="st0" d="M95.7,66.7c-3.1,2.3-6.1,5.9-9,8.8c-2,2-7.7,6.8-7.7,9l35.8-0.2c1.1-0.9,1.6-0.2-2.5-4L98.6,66.9l-0.9-0.7
			h-0.9L95.7,66.7z"/>
		<path class="st0" d="M136.5,48.9l-0.7,0.9l-0.7,0.7l-0.7,0.9l-0.7,0.7l-0.7,0.7l-0.7,0.7l-0.7,0.7l-0.9,0.7l-0.9,0.9l-0.7,0.9
			l-0.7,0.7l-0.7,0.7l-0.7,0.7l-0.7,0.7l-0.7,0.9l-1.1,0.7l-0.9,0.7l-0.9,0.7l-0.5,2c4.9,0.5,29.3,0.9,32.4-0.2v-0.9
			c-2.7-3.2-5.4-5.6-8.5-8.6C143.6,52.9,140.3,47.8,136.5,48.9z"/>
		<path class="st0" d="M128.4,134.9H122V68.3l33.1,0.4c-0.9-2-1.3-1.1-7.6-1.1l-25.9,0.2l-0.4,67.3c1.6,0.2,2.2,0.4,3.8,0.4
			C128.6,135.5,128.4,134.9,128.4,134.9z"/>
		<path class="st0" d="M114.8,84.4l-35.8,0.2l4.3,0.7C87.8,85.3,112.4,85.8,114.8,84.4z"/>
		<path class="st0" d="M139.6,84.5c2.3,1.4,7,1.1,9.7,0.4l0.2-10.1c-3.2-0.9-8.1-1.1-9.9,0.4l9.2-0.4l0.2,9.9L139.6,84.5z"/>
		<path class="st0" d="M91,134.8c0.9-2,0.5-3.2,0.5-6.3c0-2.3,0-4.7,0-7C90.1,124.3,90.8,131,91,134.8z"/>
		<path class="st0" d="M137.8,120.2c-1.1-2-6.5-0.7-7.6-0.2L137.8,120.2z"/>
		<path class="st0" d="M109,98.2c-1.6-0.5-1.8-0.7-4.1-0.7c-0.2,0-2.2,0.2-2.2,0.2c-1.8,0.5-0.5-0.2-1.6,0.9L109,98.2z"/>
		<path class="st0" d="M100.7,120c-1.1-1.4-5.9-0.9-7.4,0H100.7z"/>
		<path class="st0" d="M38.1,101.5L38.3,91c-0.2,0.4-0.4,0.2-0.5,1.8c-0.2,0.9,0,2.2,0,3.1C37.5,98.4,37.4,99.7,38.1,101.5z"/>
		<path class="st0" d="M96.6,66c-1.3-0.2-1.1-0.4-1.1,0.7L96.6,66z"/>
		<path class="st0" d="M98.6,66.9c0-1.3,0.4-0.9-0.9-0.7L98.6,66.9z"/>
		<path class="st0" d="M73.2,75.9L73,77C74.1,76.1,74.1,76.6,73.2,75.9z"/>
		<path class="st0" d="M30,77v-0.9C28.9,76.8,28.9,76.3,30,77z"/>
		<path class="st0" d="M154.2,63.7v0.9C155.3,63.8,155.3,64.4,154.2,63.7z"/>
		<path class="st0" d="M136.5,48.9l-0.7,0.9L136.5,48.9z"/>
		<path class="st0" d="M135.8,49.8l-0.7,0.7L135.8,49.8z"/>
		<path class="st0" d="M135.1,50.5l-0.7,0.9L135.1,50.5z"/>
		<path class="st0" d="M134.4,51.2l-0.7,0.7L134.4,51.2z"/>
		<path class="st0" d="M133.5,52.1l-0.7,0.7L133.5,52.1z"/>
		<path class="st0" d="M132.8,52.9l-0.7,0.7L132.8,52.9z"/>
		<path class="st0" d="M132,53.6l-0.7,0.7L132,53.6z"/>
		<path class="st0" d="M131.3,54.3l-0.9,0.7L131.3,54.3z"/>
		<path class="st0" d="M130.4,55.2l-0.7,0.7L130.4,55.2z"/>
		<path class="st0" d="M129.7,55.9l-0.7,0.9L129.7,55.9z"/>
		<path class="st0" d="M128.8,56.6l-0.7,0.7L128.8,56.6z"/>
		<path class="st0" d="M128.1,57.5l-0.7,0.7L128.1,57.5z"/>
		<path class="st0" d="M127.4,58.3l-0.7,0.7L127.4,58.3z"/>
		<path class="st0" d="M126.6,59l-0.7,0.7L126.6,59z"/>
		<path class="st0" d="M125.7,59.7l-0.7,0.9L125.7,59.7z"/>
		<path class="st0" d="M125,60.6l-0.7,0.7L125,60.6z"/>
		<path class="st0" d="M124.3,61.3l-0.9,0.7L124.3,61.3z"/>
		<path class="st0" d="M123.4,62.2l-0.9,0.7L123.4,62.2z"/>
		<path class="st0" d="M38.3,115.3l-0.9,0.7L38.3,115.3z"/>
		<path class="st0" d="M37.5,116l-0.7,0.9L37.5,116z"/>
		<path class="st0" d="M129.3,119.8l-0.7,0.7L129.3,119.8z"/>
		<path class="st0" d="M139.6,121.6l-0.7-0.9L139.6,121.6z"/>
	</g>
</g>
</svg>
