<?xml version="1.0" encoding="utf-8"?>
<!-- Generator: Adobe Illustrator 23.0.3, SVG Export Plug-In . SVG Version: 6.00 Build 0)  -->
<svg version="1.1" id="Layer_1" xmlns="http://www.w3.org/2000/svg" xmlns:xlink="http://www.w3.org/1999/xlink" x="0px" y="0px"
	 viewBox="0 0 184.3 184.3" style="enable-background:new 0 0 184.3 184.3;" xml:space="preserve">
<style type="text/css">
	.st0{fill:#050706;}
</style>
<g id="Layer_x0020_1">
	<path class="st0" d="M112.1,106.2l2.5,2.7c2.7,3.2,4.1,3.6,4.1,6.1v25l-6.7-0.5C112.1,139.5,112.1,106.2,112.1,106.2z M90.7,66v7
		h4.5v-7.4c0-3.6-3.2-3.2-4.1-1.8C90.5,64.4,90.7,65.1,90.7,66z M50.9,119.7h4.5c0-1.4,0.2-8.1-0.4-9c-0.4-0.5-1.1-1.3-2-1.3
		c-2.2,0-2.2,2.2-2.2,4C50.9,115.5,50.9,117.7,50.9,119.7z M95.2,94.1c0.2-1.6,0-4.3,0-6.1c0-2,0-4-2.2-4.1c-2.2-0.2-2.5,1.8-2.3,4
		c0,1.8-0.2,4.7,0,6.3C90.7,94.1,95.2,94.1,95.2,94.1z M143.4,137.3C141.5,146,144.5,133.2,143.4,137.3z M129.4,132.6
		c-0.2-1.8,0-4.3,0-6.3c0-2.2,0-4.1,2.3-4c2.2,0,2.2,2.2,2.2,4.1c0,1.8,0.2,4.1,0,5.9L129.4,132.6z M84.9,132.3c0-2.2,0-4.1,0-6.3
		c0-2,0-4,2.3-4c0.9,0,1.6,0.7,2,1.3c0.5,0.9,0.4,7.9,0.2,9H84.9z M74.9,132.5c0-2.2,0-4.3,0-6.3c0-1.1-0.4-4.1,2.3-4
		c2.2,0.2,2.2,2.2,2.2,4.1c0,2,0,4,0,6.1L74.9,132.5z M42.1,116.4c0-1.6-0.2-1.6,0.7-2.5c1.8-2.3,8.1-11,9.4-12.2L62.6,113
		c0.5,0.7,0.7,0.9,1.4,1.4c0,5.2,0.4,24.1-0.2,25.6l-7.6,0.9v-12.2c0-5.6-6.5-4.9-6.8-1.1c-0.2,2.5,0,10.8,0,14.2l-7.2,1.1v-26.5
		H42.1z M92.3,46.8l7.7,21.6h-1.4v39.8L92,99.5c-2.5-3.2-1.3-2.7-4.7-2.9V65.9h-2.5L92.3,46.8z M20.5,154.1
		c23.4-4.7,48.1-6.3,72.2-6.3c16.4,0,33.3,1.1,49.3,3.1c10.4,1.4,23,3.6,32.9,6.5l9.9,3.2c-0.5-1.1-2.7-2.9-3.8-3.6
		c-4.1-3.1-9.2-5.4-14.2-7.2c-3.4-1.3-7-2.5-10.8-3.4l-11.5-2.7v-30.4c0-0.4,0.2-0.4,0.5-0.5l0.2-0.2c-0.7-0.9-1.4-1.8-2.2-2.9
		l-4.3-5.6c-0.5-0.7-1.8-2-2.2-2.9h-24.8V68.2h4.9l-10.4-31.9H94.1v-6.7h3.4c0.2-0.9,0.2-2,0-2.9h-3.4v-3.2h-2.7l-0.2,3.2
		c-1.1,0-2.3-0.2-3.4,0.2v2.7h3.4c0,5.9,0.5,6.8-1.3,11.3c-1.3,3.2-10.1,25.7-10.4,27.2c1.1,0.4,3.1,0.9,4,1.6l-0.2,26.6l-32-0.2
		v-5.9l3.1-0.2v-2.3l-3.1-0.2v-2.7h-2.3v2.7h-2.9V90h3.1v5.8l-0.7,0.5c-0.4,0.4-0.2,0.4-0.5,0.5l-2.5,3.4
		c-2.3,3.2-8.6,11.2-10.1,13.7l3.1,1.3v27.7l-11.2,2.7c-7.7,2-23.2,7.4-27.9,13.3l10.4-3.1C13.3,155.5,16.9,154.8,20.5,154.1z"/>
</g>
</svg>
