<?xml version="1.0" encoding="utf-8"?>
<!-- Generator: Adobe Illustrator 23.0.3, SVG Export Plug-In . SVG Version: 6.00 Build 0)  -->
<svg version="1.1" id="Layer_1" xmlns="http://www.w3.org/2000/svg" xmlns:xlink="http://www.w3.org/1999/xlink" x="0px" y="0px"
	 viewBox="0 0 184.3 184.3" style="enable-background:new 0 0 184.3 184.3;" xml:space="preserve">
<style type="text/css">
	.st0{fill:#FFFFFF;}
</style>
<g id="Layer_x0020_1">
	<g id="_2748586409808">
		<path class="st0" d="M123.3,43.5c0,4,4.9,5.9,7,9.4L86.4,96.6c-0.9-1.4-4.3-4.3-5.6-5.8L69.7,79.6c-2.3-2.3-4-4.7-7.6-4.7
			s-6.3,3.6-9.4,6.8L36.5,98c-1.4,1.4-2.5,2.5-4,4c-2.7,2.7-2.9,2.9-2.9,6.5c0,2.2,1.3,3.4,2.5,4.5c1.8,1.8,2.7,2.3,5.6,2.3
			s5.2-3.2,7-4.9c2.2-2.3,16.7-16.6,17.5-17.6c1.1,0.7,9.7,9.7,11.3,11.3c2,2,3.8,3.8,5.8,5.8c2.9,2.9,3.6,4.5,7.9,4.5
			c2.9,0,5.2-3.1,7.6-5.4c4.5-4.5,44.5-44.8,45.9-45.9c3.8,2.5,6.1,8.5,10.3,6.7c4.1-1.8,2.7-8.6,3.2-14.9l0.5-12.4
			c0-1.3-1.3-2.5-2-2.9c-2.2-1.3-14.2,0.2-18.2,0.2c-1.4,0-7.7,0.2-9,0.9C124.4,40.9,123.3,42.2,123.3,43.5z"/>
		<path class="st0" d="M121.9,92.4v49.9c0,2,0.9,2.9,2.9,2.9h15.1c1.6,0,2.5-1.3,2.5-2.9V75c0-0.7-1.1-1.4-1.4-1.6
			c-1.1,0.2-1.8,1.4-2.5,2.2c-0.9,0.9-1.6,1.6-2.5,2.3L124,89.7C123.5,90.3,121.9,91.5,121.9,92.4z"/>
		<path class="st0" d="M94,119.2v21.4c0,2-0.7,4.7,2.7,4.7h15.1c2.2,0,2.5-1.6,2.5-3.4V99.6C111.6,101.4,96.1,118.7,94,119.2z"/>
		<path class="st0" d="M68.4,145.3h15.1c2.2,0,2.9-1.3,2.9-3.4v-20.3c-7,0-10.6-5.2-15.8-10.4c-0.9-0.9-3.6-4-4.7-4.1
			c0,1.6-0.2,35.8,0.2,36.7C66.2,144.6,67.3,145.3,68.4,145.3z"/>
		<path class="st0" d="M37.8,122.7v19.1c0,2.5,0.5,3.6,2.9,3.6h15.1c3.2,0,2.5-4.3,2.5-7.6v-30.6c-1.4,0.4-11.3,11.3-13.9,13
			C42.3,121.8,40.7,121.9,37.8,122.7z"/>
	</g>
</g>
</svg>
