<?xml version="1.0" encoding="utf-8"?>
<!-- Generator: Adobe Illustrator 23.0.3, SVG Export Plug-In . SVG Version: 6.00 Build 0)  -->
<svg version="1.1" id="Layer_1" xmlns="http://www.w3.org/2000/svg" xmlns:xlink="http://www.w3.org/1999/xlink" x="0px" y="0px"
	 viewBox="0 0 184.3 184.3" style="enable-background:new 0 0 184.3 184.3;" xml:space="preserve">
<g id="Layer_x0020_1">
	<path d="M35,119.8v-11.9V97.5V86.3V75.5V64.4v-11v-4h-7.2l-0.4-0.2c-0.9-0.7-2-1.8-1.6-3.1c0.9-3.1,10.6-2,13.3-2
		c16.9,0,33.8,0.5,50.6,0c0-2.5-0.4-5.4,0.5-7.7l0.2-0.5l3.6-0.2l0.2,0.7c0.9,2.2,0.7,5.2,0.7,7.7l63.5,0.2l-0.5,5.2l-8.1,0.2
		l-0.2,3.8v11v11.2v11v11.2v11l-0.2,11.3c0.9,0,1.8-0.2,2.5-0.2c1.8-0.2,4.9-0.4,5.9,1.4c0.5,0.9,0.4,1.8,0,2.7l-0.2,0.5l-44.1,0.7
		c0.7,2.2,4.9,8.1,5.9,9.9c1.8,2.9,6.8,8.6,5.6,12.1l-0.2,0.5l-0.5,0.2c-3.2,0.9-3.8-0.9-5-3.2c-0.9-1.3-1.1-2.2-2.5-2.9l-0.4-0.2
		v-0.5c-0.4-2.3-4.3-7.7-5.9-9.7v-0.2l0,0c-0.4-0.9-0.9-1.6-1.4-2.3c-0.2-0.4-0.4-0.5-0.5-0.9c-0.4-0.4-0.5-0.4-0.9-0.7l-0.4-0.2
		l-0.2-1.3h-9.7l-2.7,0.2c0,5.6,0.7,18.9-0.7,22.1l-0.4,0.5l-3.6-0.2l-0.2-0.5c-0.9-2.3-0.9-9.5-0.7-12.2c0-3.2,0.2-6.7,0.2-9.9
		h-2.9l-9.7,0.2l-0.2,1.3l-0.2,0.2c-0.4,0.4-0.7,0.4-0.9,0.9c-0.7,0.9-1.4,2.2-2,3.2v0.2l-0.2,0.2c-1.6,2-5.4,7.2-5.8,9.7l-0.2,0.5
		l-0.4,0.2c-1.3,0.9-1.6,1.8-2.3,3.1c-1.3,2.3-1.8,4-5,3.2l-0.5-0.2l-0.2-0.5c-1.3-3.4,4.7-11,6.7-13.7c1.6-2.3,3.8-5.4,5-8.1H28.3
		h-0.2c-3.6-0.7-3.8-4.7,0-5.4c1.1-0.2,2.9-0.2,4,0C33.4,119.6,34.1,119.8,35,119.8z M40.4,49.8v69.7c0.4,0,0.5,0,0.9,0
		c1.3,0,2.5,0.2,3.6,0.2c4,0.2,8.1,0.2,12.1,0.2c11.9,0.2,23.8,0.2,35.5,0.2s23.8,0,35.5-0.2c4.1,0,8.1-0.2,12.2-0.2
		c1.3,0,2.5,0,3.6-0.2c0.2,0,0.5,0,0.7,0l-0.2-69.8L40.4,49.8z M44.4,57.3c-0.4-4.9,5-3.6,8.1-3.6c2.3,0,7.7-0.9,9.2,1.3
		c0.4,0.5,0.5,1.3,0.4,2c-0.7,2.5-6.8,2.3-8.8,2.3c-1.6,0-7-0.4-8.3-1.3l-0.4-0.4L44.4,57.3L44.4,57.3z M44.2,73.9
		c-0.2-5,4.3-3.8,7.6-3.8c2.9,0,6.7-0.5,9.2,0.5l0.4,0.2l0.2,0.4c0.4,1.1,0.5,2.2-0.2,3.2c-1.3,1.6-4.9,1.1-6.8,1.1
		c-2.9,0-7,0.5-9.7-0.7l-0.5-0.2L44.2,73.9z M45.6,62.6c1.6-0.7,6.7-0.9,7.9-0.9c2,0,7.9-0.2,8.5,2.3c0.2,0.9-0.2,1.6-0.7,2.2
		c-1.8,2.2-7.6,1.1-10.1,1.1c-2.2,0-6.7,0.9-7-2.2C44,63.8,44,62.6,45.6,62.6z M101.8,81.1c-5.2,0-4-3.6-4-7.4c0-3.4-0.2-7,0-10.4
		c0-1.8,0.2-4.3,1.6-5.4c2-1.6,6.3,0.2,8.3,0.9c2.3,0.9,4.5,2.3,6.5,4c4.1,3.8,8.6,11.5,6.5,17.3l-0.2,0.5l-0.5,0.2
		C114,81.5,107.7,81.1,101.8,81.1z M96.7,82l23.6,0.2l0.2,0.2c3.2,2.5,1.1,9.5-0.4,12.4c-2.7,6.3-7.7,11.7-13.9,14.8
		c-7.2,3.8-15.5,4-23,0.7c-14.8-6.5-21.6-23.4-14.4-38C71.9,66,77.5,61.1,84,58.4c2.5-1.1,10.3-3.4,12.2-0.2l0.2,0.2L96.7,82z
		 M103.2,63.3v12.4h12.4C114.6,69.2,109.7,64.4,103.2,63.3z M91.3,62.4c-7.7,0.9-14.8,6.1-17.8,13.3c-3.4,8.3-2,17.5,4.1,24.1
		c6.7,7.2,16.6,9.2,25.6,5.6c7.4-3.1,12.4-10.3,13.3-18L91.7,87L91.3,62.4z"/>
</g>
</svg>
