<?xml version="1.0" encoding="utf-8"?>
<!-- Generator: Adobe Illustrator 23.0.3, SVG Export Plug-In . SVG Version: 6.00 Build 0)  -->
<svg version="1.1" id="Layer_1" xmlns="http://www.w3.org/2000/svg" xmlns:xlink="http://www.w3.org/1999/xlink" x="0px" y="0px"
	 viewBox="0 0 184.3 184.3" style="enable-background:new 0 0 184.3 184.3;" xml:space="preserve">
<style type="text/css">
	.st0{fill:#010100;}
</style>
<g id="Layer_x0020_1">
	<g id="_2748705047152">
		<path class="st0" d="M153.2,81.7c0-0.9,0.7-1.1,1.4-1.1c1.3,0,1.8,2.2-0.2,2.2C153.6,82.7,153.2,82.2,153.2,81.7z M151.2,74.3
			c-1.8,0-4.5,1.1-5.8,1.8c-2,0.9-3.2,1.6-4.7,2.9c-3.2,2.7-7.7,2.5-12.2,3.2c-3.6,0.5-13.5,1.8-17.3,1.6c-1.3-0.2-2.5,0-3.8-0.2
			c-2.3,0-4.9-0.5-7.4-0.5c0,1.6,0.2,2,0.2,3.6c0,4.7,0.5,17.5-1.3,20.7c-1.3,2.2-3.6,3.8-6.8,3.8c-2.5,0-2.9-0.9-4.7-1.4v20.5
			c5,2.7,4-3.1,4-8.1c0-1.6-0.4-1.6-0.4-3.1l1.1,1.6c0.4,0.7,0.7,1.3,1.1,2c0.7,1.3,4,7.4,4.7,7.7c1.3,0.9,3.6,0.5,3.6-1.3
			c0-2.7-3.6-11.7-3.6-13.5c0-0.9,0.2-0.2,0.5-1.4c4.3,0,8.6,1.8,13.9-0.9c4.5-2.3,10.1-1.8,15.1-1.4c1.3,0.2,2.9,0.5,4.3,0.5
			c0.7,2.9,1.3,15.5,2.3,16.9c0.7,0.9,2.3,0.9,3.2,0.2c1.3-1.1,2.2-13.5,2.7-16.6c0.2-1.3,0.9-2.2,1.4-3.4c1.6-3.8,3.2-9.4,5.2-13.9
			c2.5-5.6,3.8-5,7.6-5c3.2,0,5.4,2,7,2c1.3,0,3.1-1.6,3.1-3.1c0-1.3-1.6-2.3-2.2-3.2l-5.9-10.3c0.5-0.2,0.9-0.4,1.3-0.7
			c0.9-0.7,0.5-0.2,0.7-1.3c-3.4-0.9-3.2,2-4.1-0.9c-0.2-0.9,0.2-0.9-0.7-1.3C152,71.8,151.2,73.2,151.2,74.3z"/>
		<path class="st0" d="M69.9,123.2v27.5c0,5.4,3.1,8.1,6.3,8.5h1.6c3.2-0.4,6.5-2.9,6.5-7.4v-16h77.9v-2H84.1V120
			C81.9,120.4,76.2,123.2,69.9,123.2z"/>
		<path class="st0" d="M40.2,92.8l0.4,10.6c-0.7,0.4-1.1,0.5-1.4,1.3c0.4,1.1,1.1,1.6,1.4,2.9c1.8-0.9,1.1-0.9,2.5-0.2
			c2.5,1.3,6.7,0.4,6.7-5l1.1,0.9c0.2-2.2,1.3-4.5-1.4-5c0-8.6,0-20.7,3.1-28.6l0.7-1.6v23.8c0.7-0.5,0.5-0.9,0.7-2l4.5-21.2
			c0.5-2.7-0.2-7-0.7-9.9c-0.2-1.1-0.4-4.9-1.1-4.9c-3.4,0-7,3.2-8.6,5.2c-5.2,6.1-7.4,18.9-7.4,27.2c0,1.4-0.2,1.6-0.4,3.1
			C40.2,90.3,40.2,91.7,40.2,92.8z"/>
		<path class="st0" d="M84.1,91.9V68l0.9,2.2c4.1,12.2,2,32.6,2.7,34.6c1.4,4.7,9,4.5,9-2.3c0-12.2,1.3-22.3-2.9-34.6
			c-1.8-5.8-6.3-13.9-13.1-14l-1.4,9.9c-0.2,1.6-0.7,3.4-0.4,4.9L83.6,91C83.7,91.7,83.7,91.4,84.1,91.9z"/>
		<path class="st0" d="M66.5,33.8L66.5,33.8L66.5,33.8z M67.5,25h2c1.8,0.2,3.8,0.7,5.8,1.8c2.7,1.4,0.7,1.8,5.2,1.8
			c7.6,0,14.9,4.5,5.9,7.2c-3.8,1.1-5.8,1.1-9.7,1.1c-6.5,0-8.6-2.2-10.1-2.5c2.2,3.2,10.8,5,14.6,5C81,47.8,68.4,55.2,60,47.1
			c-3.6-3.2-4-6.5-4-10.6C56,31.4,60.9,25.5,67.5,25z"/>
		<path class="st0" d="M59.6,159.2c5,0,7.9-2.9,7.9-7.9v-28.1c-6.3,0-12.6-2.9-14.4-3.1c0,4-0.4,31.1,0.4,33.8
			C54,156.5,56.6,159.2,59.6,159.2z"/>
		<path class="st0" d="M24,117.7c-0.9,0-1.4,0.2-1.4-0.9v-0.9C24,116,24.3,116.4,24,117.7z M26,126.8c1.3-0.2,3.4-2,4.7-2.5l9.4-5.6
			c1.6-0.9,3.2-2,4.9-2.9c-0.4-1.6-5.4-8.1-6.8-10.6c-3.1,0.7-13.5,9-16.9,9c-0.9,0-1.3-0.5-0.9,0.9L26,126.8z"/>
		<path class="st0" d="M61.4,66.7c16.7,0,15.1,1.1,15.5-3.1l1.4-9.9H59.4C60.3,57.7,60.5,62.6,61.4,66.7z"/>
		<path class="st0" d="M74.4,70.9c0,2,3.4,2.5,3.4-0.2C77.6,68.7,74.4,68.5,74.4,70.9z"/>
		<path class="st0" d="M61.1,72.7c1.3,0,1.4-0.7,2-1.8c-0.4-0.7-0.5-1.6-1.6-1.6C58.5,69.2,59.4,72.7,61.1,72.7z"/>
	</g>
</g>
</svg>
