<?xml version="1.0" encoding="utf-8"?>
<!-- Generator: Adobe Illustrator 23.0.3, SVG Export Plug-In . SVG Version: 6.00 Build 0)  -->
<svg version="1.1" id="Layer_1" xmlns="http://www.w3.org/2000/svg" xmlns:xlink="http://www.w3.org/1999/xlink" x="0px" y="0px"
	 viewBox="0 0 184.3 184.3" style="enable-background:new 0 0 184.3 184.3;" xml:space="preserve">
<style type="text/css">
	.st0{fill:#FFFFFF;}
</style>
<g id="Layer_x0020_1">
	<g id="_2748485257088">
		<path class="st0" d="M98.9,69.5c-0.2-6.1-1.4-6.8,4.3-6.8c20.5,0.2,18,0.2,24.3-13.9l5.8,0.2l0.7,6.1h10.1l-0.9,9
			c-5,1.8-8.3-0.7-13,2.9c-0.2,0.2-0.2,0.2-0.4,0.4C125.7,70.2,103,70,98.9,69.5z M96.7,57.6c-6.8-2.9-20-11-28.4-15.1l-6.8-3.6
			c-3.2-1.3-2.7-0.2-2.7-0.2c0.5,2.3-0.2,0.9,1.4,2.3c0,0,2,1.3,2.2,1.3L91.9,58c0.9,0.5,1.4,0.7,2.3,1.3l2.5,1.8v9l-28.1,0.5
			c-3.8,0-6.7-1.1-7.4,1.8c2.7,1.6,54.4,0,64.3-0.9c11.3-1.1-5-4.3,34.6-5.6l-9.9,12.6c-3.6,1.8-74.3-0.9-87.1,0.2L60,79.6
			c0.4,0.9-0.5,1.8,4.3,1.8c1.8,0,3.8-0.2,5.6-0.2c25.2-0.2,53.5,0.5,77.8,0c-3.6,4.9-12.6,4.1-18.7,4.3c-8.1,0.2-16.2,0.5-24.3,0.7
			l-43.7,0.7c-2.3,0.5-1.4-0.4-2.3,1.6c0.2,0.2,0.5,0,0.5,0.2c0.5,1.1,61.2-0.5,62.3-0.5c32.9-0.5,25-3.2,35.3-13.9
			c2.2-2.3,6.7-7,6.7-10.3c-4.1-1.8-12.6,0.5-17.5,0.4l0.9-11.3l-10.6,0.2L136,47h-9.5c-7.9,13.5-0.9,14.2-27.4,13.9l0-35.5
			c0-3.2,0.5-3.1-1.3-4.5c-1.6,1.4-0.9-0.2-1.1,3.1L96.7,57.6z"/>
		<path class="st0" d="M151.8,109.8c-0.5,11.2-7.9,21.2-14.2,28.8c-1.6,1.8-1.4,2-3.2,3.6l-3.4,3.4c-3.6,3.2-12.2,8.3-18.4,10.6
			c-21.4,7.9-44.1,5.2-62.5-8.1l-11.3-10.1c-4.9-5.4-13.1-20.7-13.1-28.4c6.1,0,4.9,0.2,5.6-1.8c-2.2-1.1-5.9-0.5-8.3-0.7
			c0.4,18,14.9,37.1,30.6,46.3c2.7,1.6,6.7,3.4,10.3,5c29.9,12.8,69.3-1.3,84.1-28.8c3.6-6.8,6.7-14.4,7.2-22.3
			c-1.4,0-2.9-0.2-4.1,0c-0.7,0-1.3,0-2,0.2c-2,0.2-0.9,0.2-1.8,0.5C147.5,109.8,146.4,110,151.8,109.8z"/>
		<path class="st0" d="M38.2,69.8c-2.5-6.1,0.5-11.3,6.8-11.2c4.5,0.2,8.8,4.7,6.1,11.3L38.2,69.8z M35.4,70.2H21
			c0.9,4.3,1.8,8.3,4.1,11.2l10.3,0.4l0.2,7.4h14.2c2.9-0.5,1.8,0.4,2-2.3l-14.2,0.2v-7.2L26,79.2l-2.3-6.3l26.6-0.2
			c0.5,0,1.4-0.2,2-0.2c2-0.4,0.7,0,1.8-0.5c0.2-1.8,0.2-7.2-0.7-9.9c-1.3-3.2-3.1-4.9-7.2-5.6c-4-0.5-7.7,1.4-9.4,3.4
			C34.8,62.6,35,66.2,35.4,70.2z"/>
		<path class="st0" d="M48.1,107.1c1.4-1.1,1.6-0.7,2.5-1.6c0.5-0.5,1.4-1.8,1.6-2.3l4.9,4.3L48.1,107.1z M32.7,108
			c0.7,2.5-0.9,1.8,8.8,1.8c4.1,0,28.8,1.3,31.5-1.1c-1.8-3.1-4.3,0.4-12.2-2.5c-2.2-0.9-2.9-1.3-4.3-2.7l-3.1-4.3
			c-3.2,2.2-3.4,4.7-7.9,6.7C41.5,107.5,34.6,106.9,32.7,108z"/>
		<path class="st0" d="M55.7,95.9c0.2-7,2.5-18.2,3.8-25.7l2.9-19.3c1.3-7.4,0.9-4.7-0.7-5.6c-1.6,0.9-1.1-1.4-2.2,5.9
			c-0.4,2.2-0.7,4.3-1.1,6.5c-0.7,4.3-1.3,8.8-2,13.3l-3.1,19.8C52.6,95,52.3,95,55.7,95.9z"/>
		<path class="st0" d="M105.7,133.7c1.4,1.1,6.3,2.9,8.6,2.7l5.6-1.6c3.1-0.9,3.4-0.4,5-2c-2-1.8,0.2-0.9-2.5-0.7
			c-1.6,0.2-3.4,1.4-7.4-2.7l-7,2.7C104.5,133.6,107,132.3,105.7,133.7z"/>
		<path class="st0" d="M56.2,120.6c1.4,1.6,2,1.4,4.3,2c0.7,0.2,2.3,0.5,2.9,0.5c2.9,0.4,1.8-0.2,4.7-0.9l2.2-0.5
			c0.2,0,0.4-0.2,0.5-0.2c2.2-0.7,2.9,0,4.7,0.4c-1.3-2.7-1.1-1.6,0.2-4c-3.6,0.9-7,3.6-9.4-2c-3.4,2.3-0.9,1.8-5.4,2.5
			C58.4,118.8,57.5,118.8,56.2,120.6z"/>
		<path class="st0" d="M56.4,144.9c5.6,3.2,8.8,2,12.1,1.3c4.3-1.3,3.1-1.8,7-0.4c-0.7-2.2-0.7-1.8-0.2-4c-1.1,0.5-3.2,1.6-5,1.3
			c-1.6-0.2-2-0.7-2.9-1.3l-2.7-1.8c-1.4,2.7-0.5,1.4-4.3,2.3C58.2,142.9,57,143.3,56.4,144.9z"/>
		<path class="st0" d="M89.7,120.6c0.2,0.2,0.4,0.2,0.5,0.4c0.2,0.2,0.4,0.4,0.5,0.4c1.1,0.5,2.2,1.3,6.3,1.8l2.5-0.2
			c7.7-2.2,6.1-2.5,9.7-1.1l-0.4-3.8c-4.5,1.8-6.8,1.4-9.5-1.8c-4.3,3.6-4.1,1.3-7.6,2.9L89.7,120.6z"/>
		<path class="st0" d="M107.4,148c-0.5-1.8-0.5-1.8,0.2-3.6c-1.3,0.5-7.4,3.6-9.2-2.2l-1.8,1.4c-3.1,2-5.8,0.5-8.3,3.4
			c3.8,2.9,8.6,2.9,13.7,1.4c0.2,0,0.4-0.2,0.5-0.2C106.1,146.9,103.6,146.9,107.4,148z"/>
		<path class="st0" d="M75.1,132.3c1.8,3.2,8.3,2.9,10.8,2.2l4.9-1.4c4.7-1.3,2.2,3.2,3.8-3.2c-4,2.2-4.9,2-7.4,0.5
			c-2.2-1.3-1.8-1.4-2.2-2.5l-1.1,0.9c-1.1,0.9-0.2,0.4-1.3,0.9c-0.7,0.4-1.8,0.5-2.7,0.7C77.8,130.9,76.6,131,75.1,132.3z"/>
		<path class="st0" d="M39.7,79c0.5,2-1.8,1.6,6.7,1.8c8.1,0,6.1,0.4,6.8-1.8l-2.7-0.9c-1.3-0.2-3.1,0-4.3,0
			C43.8,78.1,41.3,77.6,39.7,79z"/>
		<path class="st0" d="M136.2,108.7c0.9,0.7,0,0.5,1.8,1.1c6.1,1.4,6.5-0.2,6.8-1.8c-1.4-0.9-1.6-0.5-4-0.5H138
			C133.8,108.4,138,107.5,136.2,108.7z"/>
		<path class="st0" d="M30.9,88c-0.7-2.9,0.5-0.5-2.2-2.2c-0.2-5.2,0.5-2.9-1.8-3.6C24.7,85.9,27.1,91.1,30.9,88z"/>
		<path class="st0" d="M117.4,108.7c0.7,0.5,0,1.1,4,1.3c4.9,0.2,3.6-0.7,4.1-1.3c-0.9-2,0-1.3-3.4-1.4h-2.9
			C115.3,108.4,119.1,107.5,117.4,108.7z"/>
		<path class="st0" d="M127.3,108.7c0,0-0.2,2.5,5.2,0.9c1.8-0.5,0.9-0.4,1.8-0.9c-1.1-1.6,1.3-1.3-3.2-1.4
			C126.1,107.1,128.2,108,127.3,108.7z"/>
		<path class="st0" d="M90.8,108.7c0,0-0.4,2.5,5,1.1c1.6-0.5,1.1-0.5,1.8-1.1c-1.1-1.6,1.3-1.3-3.2-1.4
			C89.5,107.3,91.5,108,90.8,108.7z"/>
		<path class="st0" d="M33.2,88.9c0.5-0.7,1.3,1.3,1.3-3.1c0-4.7-0.5-2.2-1.3-3.1c-1.3,0.9-1.4-0.9-1.4,3.1
			C31.8,90,31.8,88.2,33.2,88.9z"/>
		<path class="st0" d="M82.9,108.7c0.7,0.5-1.6,1.3,3.1,1.3c5.4,0,1.6-0.2,3.1-1.3c-0.9-1.4,1.3-1.4-3.1-1.4
			C80.9,107.3,83.8,107.8,82.9,108.7z"/>
		<path class="st0" d="M108.4,108.7l3.2,1.3l2.2-0.2c1.8-0.5,0.9-0.4,1.8-0.9c-1.1-1.6,1.3-1.3-3.2-1.4
			C107.5,107.3,109.2,108.4,108.4,108.7z"/>
		<path class="st0" d="M99.4,108.7l3.2,1.3c2.5,0.2,3.2-0.7,3.8-1.3c-1.1-1.8,1.4-1.3-3.1-1.4C98.2,107.3,100.2,108.2,99.4,108.7z"
			/>
		<path class="st0" d="M74.8,108.7c0,0,0.4,1.4,3.6,1.3c4.1-0.2,2.2-0.2,2.5-2c-1.3-0.7-1.3-0.7-3.2-0.7
			C73,107.6,75.9,107.8,74.8,108.7z"/>
		<path class="st0" d="M149.5,69.1c0.4,0.5,0.2,2,3.1,1.4c1.6-0.4,1.8-0.9,1.8-2.3C150.7,66.1,151.3,67.5,149.5,69.1z"/>
		<path class="st0" d="M108.3,68.2c0.9-1.3,0.9,0.5,1.1-1.8c0.2-3.6-0.2-1.3-1.1-2.2c-1.3,0.7-1.1-0.9-1.3,1.4
			C106.5,69.3,107.2,67.5,108.3,68.2z"/>
		<path class="st0" d="M133.8,61.9c0.9-0.2,1.8,0.9,1.8-1.8c0-2.5-0.9-1.6-1.8-1.8C132.6,59.8,132.6,60.5,133.8,61.9z"/>
		<polygon class="st0" points="138.1,61.2 140.3,62.1 140.5,58.1 138.1,59.2 		"/>
		<path class="st0" d="M138.1,61.2c0.7,1.1-1.3,1.1,2,0.9c1.1-2,0.9-2.3,0-4.1c-3.8,0-1.1,0-2,1.1l2.3-0.9l-0.2,4L138.1,61.2z"/>
	</g>
</g>
</svg>
