<?xml version="1.0" encoding="utf-8"?>
<!-- Generator: Adobe Illustrator 23.0.3, SVG Export Plug-In . SVG Version: 6.00 Build 0)  -->
<svg version="1.1" id="Layer_1" xmlns="http://www.w3.org/2000/svg" xmlns:xlink="http://www.w3.org/1999/xlink" x="0px" y="0px"
	 viewBox="0 0 184.3 184.3" style="enable-background:new 0 0 184.3 184.3;" xml:space="preserve">
<g id="Layer_x0020_1">
	<path d="M65.8,10.7H62c-1.6,0.7-3.1,0.9-4.9,1.8C45.5,19.2,48,39.7,62,39.7C73.6,39.7,79.9,25,73.7,16c-0.7-0.9-2.5-2.7-3.4-3.4
		C68.5,11.5,67.3,11.5,65.8,10.7z M78.6,57.5h11.2c-0.4,1.8-0.9,2.7-1.4,4.3c-0.9,2.3-0.4,2-2.3,3.1c-2.3,1.3-4.9,2.9-7.4,3.6
		C78.6,68.5,78.6,57.5,78.6,57.5z M27.3,161.8v3.2c0.9,1.4,1.6,2.7,2.7,3.6c3.8,2.7,9.9,4,12.4-2c3.2-7.6,8.1-20.5,11.3-27.2
		c2.5-5.4,4.7-26.6,5.2-33.1h3.6c1.4,7.6,5.4,19.4,7.6,27.9c1.3,5-0.9,30.6,0.5,34.9c0.4,1.4,1.4,2.5,2.5,3.2
		c2,1.3,10.8,2.7,12.6-3.6c0.4-1.6,1.1-31.7,0.5-34.7c-0.5-3.2-1.6-6.5-2.3-9.7c-1.6-6.3-3.1-12.8-4.7-19.3
		c-1.1-4.1-1.1-18.7-0.7-23.2c2.3-0.9,5.6-2.7,8.1-4c1.3-0.7,2.5-1.4,4-2.2c1.3-0.7,3.1-1.3,4.3-2c4.3-2.7,4.9-11.9,7.7-16.4
		c3.1,0,9.5,0.4,12.2-0.2c3.8-0.7,4.7-3.8,4.3-7.9c3.6,0,9.7,0.7,12.4-0.7l0.2-2.9l25-0.2v-5.8c-3.8-0.2-4.9-0.5-5.6,0.9l-0.5,1.6
		l-27.2,0.2c-0.5-2.9-0.9-3.6-4.3-3.6h-22c-32,0-31-2.5-30.8,6.7c-3.6,0-17.1-0.4-19.3,0.4c-5.2,1.6-4.5,8.5-4.5,14.6
		c0,13-0.2,25.7-0.2,38.7c0,6.1-0.7,12.2-1.3,18.4c-1.6,18.5-0.4,12.6-8.1,30.6c-1.1,2.3-2,4.5-2.9,6.8c-0.5,1.1-0.9,2.2-1.4,3.2
		L27.3,161.8z"/>
</g>
</svg>
