<?xml version="1.0" encoding="utf-8"?>
<!-- Generator: Adobe Illustrator 23.0.3, SVG Export Plug-In . SVG Version: 6.00 Build 0)  -->
<svg version="1.1" id="Layer_1" xmlns="http://www.w3.org/2000/svg" xmlns:xlink="http://www.w3.org/1999/xlink" x="0px" y="0px"
	 viewBox="0 0 184.3 184.3" style="enable-background:new 0 0 184.3 184.3;" xml:space="preserve">
<g id="Layer_x0020_1">
	<g id="_2748586240896">
		<path d="M33.2,74.3v11.5l11.7-4.5v73.4h106v-11l-95-0.2V76.8l23.8-9c7.9-3.1,15.8-6.1,23.9-9l35.6-13.5c1.8-0.7,11-4,11.9-4.7
			V29.5c-1.1,0-12.6,4.7-14.6,5.4c-14.6,5.4-29.3,11.3-44.1,16.7L48.1,68.5C43.3,70.5,38.1,72.1,33.2,74.3z"/>
		<path d="M136.2,83.5l5.9,1.3c-0.7,2.2-1.6,3.4-3.1,4.3c-1.6,1.1-3.8,1.8-5.9,1.1L136.2,83.5z M70.6,95.2
			c0.4,0.9,0.2,12.2,0.2,13.9l5.4,0.2V96.6c0-0.7,0-0.4,0.2-0.5c0.9-1.1,2.2-3.4,3.1-4.3v15.7c-0.2,0.5-1.6,2.9-2,3.4
			c-1.3,1.8-0.9,1.6-0.9,4.1v16.2c0,1.8,0.2,2.9,1.1,4c0.9,1.1,2.5,1.4,4.1,0.7c2.9-1.3,2.2-5.2,2.2-8.6c0-3.6,0-7,0-10.6
			c0-2.2,0.5-2.5,1.4-4c0.7-1.1,1.3-2.2,2-3.2c0.5,4.3-0.9,3.6,1.3,8.5l5.9,14c0.7,2,2,5.2,5.4,3.8c1.3-0.5,1.8-1.1,2.2-2.5
			c0.2-1.6-0.5-2.7-0.9-4l-5.9-14c-0.5-1.3,0.2-2,0.9-3.2c0.7-1.1,1.1-2,1.8-3.1c0.4-0.4-0.2-0.2,0.5-0.4l18,0.2V133
			c0.4,2,2,3.6,4.3,3.1c2.5-0.5,2.9-2.7,2.9-4.9c0-5.2,0-10.4,0-15.8c0-7.7-0.5-5.2,3.2-12.8c1.6-3.4,3.8-7.2,5-10.6
			c3.2,0.5,5.6,0.4,8.1-1.3c1.6-1.1,3.6-3.1,4-5.8c1.6,0.2,4.3,0.5,5.2-2.3c0.9-2.9-1.3-4.1-2.9-5.2l-7.4-5
			c-0.9-0.5-1.6-1.3-2.5-1.6l0.5-5.9c-2,1.3-4.1,4.7-5.9,6.1c-2.3,1.8-3.8,4.5-5.9,6.1c-2.2,1.8-3.6,4.5-5.9,6.1
			c-1.3,0.9-2,2-2.9,3.1c-1.8,2-1.1,1.6-4.5,1.6c-8.1,0-16.2,0-24.3,0c-2.9,0-9.4-0.4-11.7,0.5C73.3,89.2,70.8,91.7,70.6,95.2z"/>
		<path d="M76.4,95.9c-0.4,0.2-0.2-0.2-0.2,0.5V109l-5.4-0.2c0.2-1.6,0.2-13-0.2-13.9v14h5.8V95.9z"/>
		<path d="M116.4,132.8v-24.3l-18-0.2c-0.7,0.2-0.2,0-0.5,0.4c1.6-0.7,15.3-0.2,18.4-0.2C116.2,111.4,116,131.5,116.4,132.8z"/>
	</g>
</g>
</svg>
