<?xml version="1.0" encoding="utf-8"?>
<!-- Generator: Adobe Illustrator 23.0.3, SVG Export Plug-In . SVG Version: 6.00 Build 0)  -->
<svg version="1.1" id="Layer_1" xmlns="http://www.w3.org/2000/svg" xmlns:xlink="http://www.w3.org/1999/xlink" x="0px" y="0px"
	 viewBox="0 0 184.3 184.3" style="enable-background:new 0 0 184.3 184.3;" xml:space="preserve">
<style type="text/css">
	.st0{fill:#FFFFFF;}
</style>
<g id="Layer_x0020_1">
	<g id="_2748482631984">
		<path class="st0" d="M10,66.9v2c3.1,5.4-0.7,5.4,12.4,3.6c20.3-2.9,16.7,0.5,25.4,12.6c3.6,4.9,4.5,5.9,6.8,12.8
			c2,5.8,4.1,7.7,7.4,11.7c6.8,8.8,11.7,14.2,10.4,28.1c-1.1,11.2-6.8,6.3-7.2,11.9c0.5,0.4,0.9,0.5,1.3,0.7h5.8
			c2.2-1.3,3.2-3.4,3.2-3.4c1.6-1.8,1.3-0.2,2.9-0.9c0.2-5-1.6-10.3-1.3-16.4c0.4-5.4,1.3-11.2,1.6-16.7c6.5,4,11,21.1,7.4,29.7
			c-1.4,3.8-6.3,3.1-6.3,7c0.5,0.4,0.9,0.5,1.3,0.7H87c2.2-1.3,3.2-3.4,3.2-3.4c1.6-1.8,1.3-0.2,2.9-0.9c0.2-5.2-2.5-16.2-0.2-26.5
			c0.5-2.9,1.8-4.7,2.2-7.9c7,1.4,12.6,4,20.9,2.2c8.6-1.8,3.6-0.2,14.2,6.3c0.4,2.9-0.2,4.3,2.2,5.8c2.9-1.8,0.9-2.7,2.7-5.2
			l3.8,0.5c0.9,2.9,0.5,4.1,3.2,4.7c2-2.2,1.1-4,2-7c4.3,2.2,5.8,11.9,5.9,15.8c0.5,12.8-2.7,7.4-6.7,15.1l1.4,0.4
			c2,0.2,4-0.2,5.4,0c4.1,0.4,3.4-1.8,4.1-5.6l2.7-0.7c0.7-4.3-0.9-7.2-1.6-11.5c-0.7-5.8-0.4-8.6-0.5-14c3.6,3.1,5.6,11,5.8,15.7
			c0.5,14.4-2.7,7.6-6.7,15.7c0.4,0.2,0.2,0.4,0.2,0.5h8.8c1.6-0.7,1.4-3.1,2.2-5.8c1.6-0.7,1.6,0.2,2.7-0.5
			c0.7-4.7-2.5-12.6-2.3-18.9c0.2-10.3-1.4-7.9-3.6-16.2c-4.1-14.8,2.9-9.2,4.3-34.4c4.9,8.6-1.8,29,4.3,46.4c1.8-3.1,2-5.8,3.4-8.3
			v-4.3c-10.1-21.1,10.1-50.2-22.9-50.2c-7.9,0-15.8-0.2-23.6,0.5C110.9,59.9,96,57.4,79.8,57c-10.8-0.2-11.3,1.1-21.4-2.5
			c-6.7-2.3-11.3-4-16.2-7.7c1.4-2.9,2.7-6.3,0.9-10.3l-0.7-1.3c-0.5-0.9-0.5-0.5-1.1-1.3c0.4,5-0.5,6.7-2.5,9.4
			c-8.6,0.4-4.9-5.8-11.5-7.6c4.1,6.7,0.7,6.5-1.3,11.5c-5.2-0.9-7.4-3.4-11.7,0.5c2,3.6,2.7,2.3,6.8,4C21.5,57.9,13.4,64.6,10,66.9
			z"/>
		<path class="st0" d="M151.1,150.1C150.9,150.1,150.9,150.1,151.1,150.1c-1.8-0.4-3.6,0-5.6,0h-0.4H151.1z"/>
	</g>
</g>
</svg>
