<?xml version="1.0" encoding="utf-8"?>
<!-- Generator: Adobe Illustrator 23.0.3, SVG Export Plug-In . SVG Version: 6.00 Build 0)  -->
<svg version="1.1" id="Layer_1" xmlns="http://www.w3.org/2000/svg" xmlns:xlink="http://www.w3.org/1999/xlink" x="0px" y="0px"
	 viewBox="0 0 184.3 184.3" style="enable-background:new 0 0 184.3 184.3;" xml:space="preserve">
<style type="text/css">
	.st0{fill:#111224;}
	.st1{fill:#FCFCFC;}
</style>
<g id="Layer_x0020_1">
	<g id="_2748482665296">
		<path d="M14.9,68.4v1.8c2.9,5-0.7,5,11.5,3.4c19.1-2.7,15.8,0.5,23.8,11.9c3.2,4.7,4.3,5.6,6.5,11.9c1.8,5.4,4,7.2,6.8,11
			c6.3,8.3,11.2,13.3,9.7,26.3c-1.1,10.4-6.3,5.9-6.7,11.2c0.5,0.2,0.9,0.5,1.3,0.7h5.6c2-1.1,3.1-3.2,3.1-3.2
			c1.6-1.6,1.3-0.2,2.7-0.9c0-4.9-1.6-9.7-1.3-15.3c0.4-5,1.1-10.4,1.6-15.7c6.1,3.8,10.3,19.6,7,27.9c-1.4,3.4-5.9,2.9-5.8,6.5
			c0.4,0.4,0.9,0.5,1.3,0.7h5.6c2-1.1,3.1-3.2,3.1-3.2c1.6-1.6,1.3-0.2,2.7-0.9c0-4.9-2.5-15.1-0.2-24.8c0.5-2.7,1.6-4.5,2.2-7.4
			c6.7,1.3,11.9,3.8,19.4,2c8.1-1.8,3.4-0.2,13.3,5.8c0.4,2.9-0.2,4.1,2,5.4c2.5-1.8,0.7-2.5,2.5-4.9l3.6,0.4
			c0.9,2.7,0.5,3.8,3.1,4.3c1.8-2,0.9-3.8,1.8-6.5c4.1,2,5.4,11.2,5.6,14.9c0.5,12.1-2.5,7-6.3,14.2l1.4,0.4c1.8,0.2,3.6-0.2,5,0
			c3.8,0.4,3.2-1.8,4-5.2l2.5-0.5c0.5-4-0.9-6.8-1.4-10.8c-0.7-5.4-0.2-8.1-0.4-13.1c3.4,2.9,5.2,10.3,5.4,14.8
			c0.5,13.5-2.5,7-6.3,14.8c0.4,0.2,0.2,0.4,0.2,0.4h8.3c1.4-0.7,1.3-2.9,2-5.4c1.4-0.5,1.4,0.2,2.5-0.5c0.5-4.3-2.3-11.9-2.2-17.8
			c0.2-9.7-1.3-7.6-3.4-15.1c-3.8-13.9,2.7-8.5,4-32.2c4.7,8.1-1.8,27.2,4,43.6c1.8-2.9,2-5.4,3.2-7.9v-3.8
			c-9.4-19.6,9.4-47.2-21.4-47c-7.4,0-14.9-0.2-22.1,0.5C110.1,62,96.1,59.6,81,59.3c-10.1-0.2-10.6,0.9-20-2.3
			c-6.3-2.2-10.6-3.6-15.3-7.2c1.4-2.7,2.5-5.9,0.9-9.5c0,0-0.7-1.1-0.7-1.3c-0.5-0.7-0.5-0.5-1.1-1.1c0.4,4.7-0.5,6.3-2.5,8.8
			c-8.1,0.4-4.7-5.4-10.8-7.2c4,6.3,0.7,5.9-1.3,10.8c-5-0.9-7-3.2-11.2,0.5c2,3.4,2.5,2.2,6.5,3.8C25.7,60,18.3,66.3,14.9,68.4z"/>
		<path class="st0" d="M147.2,146.4C147.2,146.4,147.2,146.2,147.2,146.4c-1.6-0.2-3.4,0-5.2,0h-0.4H147.2z"/>
		<path class="st1" d="M147,146.2C147.2,146.2,147.2,146.4,147,146.2h3.8c0,0,0.2-0.2-0.2-0.4c3.6-7.7,6.8-1.3,6.3-14.8
			c-0.2-4.5-2-11.9-5.4-14.8c0.2,5-0.4,7.7,0.4,13.1c0.5,4,2.2,6.8,1.4,10.8l-2.5,0.5C150.3,144.6,151,146.6,147,146.2z"/>
	</g>
</g>
</svg>
