<?xml version="1.0" encoding="utf-8"?>
<!-- Generator: Adobe Illustrator 23.0.3, SVG Export Plug-In . SVG Version: 6.00 Build 0)  -->
<svg version="1.1" id="Layer_1" xmlns="http://www.w3.org/2000/svg" xmlns:xlink="http://www.w3.org/1999/xlink" x="0px" y="0px"
	 viewBox="0 0 184.3 184.3" style="enable-background:new 0 0 184.3 184.3;" xml:space="preserve">
<style type="text/css">
	.st0{fill:#FFFFFF;}
</style>
<g id="Layer_x0020_1">
	<g id="_2748705082256">
		<path class="st0" d="M109.1,83.1c4.7,0,4.7,7.6,0,7.6C104.1,90.6,104.5,83.1,109.1,83.1z M65.2,90.6c-4.7,0-4.7-7.6,0-7.6
			C70.3,83.1,70.1,90.6,65.2,90.6z M45.4,68.8c-5,0-19.6,1.3-19.6,6.7c0,7.7,3.6,10.4,12.2,9.4c5.8-0.9,12.4-0.5,18.2-3.2
			c4.1,17.8,5.2,16.6,7,38.5c0.9,9.7-0.4,11.7,5.4,17.3c3.4,3.4,11.2,5.4,17.8,5.4l-0.5-4c-17.8-0.2-20.7-12.6-9.7-21.1
			c3.6-2.9,4.5-5.4,3.4-11.7c-1.4-9.2,0.5-15.5-9-22.3c-6.7-4.9-11.3-9.4-4.7-20.2c7.9-13.1,28.1-15.3,38.7-4.7
			c6.1,6.3,10.8,15.8,2.3,22.3c-2.7,2.2-7.6,5.2-9,8.3c-0.5,1.4-1.1,2.7-1.6,4.5c-0.7,2.9-1.4,6.3-1.4,10.3c2.2-1.4,3.6-3.8,9.2-7
			c3.8-2.2,6.8-3.4,11.7-4.7c0.4-3.6,2.2-7,2.5-11.2c4,1.8,21.6,4.9,26.6,2.3c3.2-1.4,3.6-5,3.6-8.5c0-2.2-4.1-4.1-6.3-4.9
			c-5.9-1.8-13.1-2.2-19.4-1.1c-1.1,0.2-4.5,1.4-5,1.1c-4-2,16.4-8.1,12.4-24.3c-2.5-11-13.3-18.2-22-24.1c-1.6-1.1-2.5-2.2-4.7-2.3
			c1.1,2,2.3,3.4,4,5.2l4,5.6c2.9,4.5,11,16.7,3.1,20.9c-8.5,4.5-6.7,1.4-14.9-2.5c-8.1-4-21.2-3.1-28.8,1.8
			c-3.1,2.2-3.2,4.7-11,0.9C47.9,45.4,68.1,24,70.4,19.7c-2.9,0.2-12.6,7.7-15.8,10.4c-7,6.3-14.6,16.2-9.9,26.3
			s13.7,11.7,11.5,13.9C55.9,71.2,51.4,68.8,45.4,68.8z"/>
		<path class="st0" d="M104.1,134.2c0-11-2.9-8.6,14.8-8.6v-14.2h10.1v14.2h14.2v10.1h-14.2v14.2c-3.4,0.9-6.7,0.9-10.1,0v-11.2
			c0-3.4,0.9-3.1-8.6-2.9C107.7,135.6,104.1,136.3,104.1,134.2z M111.3,103.2c-7.7,0-10.6-3.8-10.6,8.6c-2.3,0.2-7.4,1.8-8.1,3.6
			c-0.9,1.6,1.3,6.8,2.2,8.6c-12.1,8.1-0.5,10.8-0.5,13.1c0,4.5-5.9,8.1,2.3,10.8c3.8,1.3,3.4,0.2,4,4.1c1.1,8.5,1.8,5.8,9.4,5.8
			c2.5,0,2.9,6.7,6.7,6.7c3.1,0,4.7-2.9,7.6-3.6c2.2,0.4,6.7,7.2,10.1,1.1c0.7-1.3,1.6-2.7,2.5-4.1c5.6,0,10.6,4.7,10.6-8.6
			c2.3-0.2,8.1-1.6,8.1-4.5c0-1.8-1.6-5.2-2-7c2.7-4.1,8.3-5.8,2.9-10.4c-1.1-1.1-2.2-2-2.9-3.2c1.3-5.2,5.2-8.3-1.6-10.4
			c-5-1.6-3.2-0.9-4-2.2c0-0.2-0.2-0.4-0.2-0.4c-0.2,0.4-0.2-6.3-2.2-7.6c-1.6-1.1-6.3-0.2-8.3,0.4c-0.9-1.6-1.6-2.7-2.5-4.1
			c-4.1-7-7.4,0.5-10.6,0.5c-2.3,0-6.7-7.2-10.3-1.3C112.6,100.5,112,101.8,111.3,103.2z"/>
		<path class="st0" d="M77.8,125c5.6,0,5.6,6.7,0,6.7C74,131.5,74.2,125,77.8,125z M85,135.6v-7.6c0-3.4,0.9-4.7,1.1-7.6
			c-3.1,0.7-12.6,1.3-13.3,7.4C72.1,132.7,79.3,135.6,85,135.6z"/>
	</g>
</g>
</svg>
