<?xml version="1.0" encoding="utf-8"?>
<!-- Generator: Adobe Illustrator 23.0.3, SVG Export Plug-In . SVG Version: 6.00 Build 0)  -->
<svg version="1.1" id="Layer_1" xmlns="http://www.w3.org/2000/svg" xmlns:xlink="http://www.w3.org/1999/xlink" x="0px" y="0px"
	 viewBox="0 0 184.3 184.3" style="enable-background:new 0 0 184.3 184.3;" xml:space="preserve">
<g id="Layer_x0020_1">
	<path d="M108.4,41.1h12.1c1.3,0,1.4,0.2,2.7,0.4v10.4h-14.8V41.1z M140.8,82c0-3.6,5-3.4,5,0C145.9,84.9,140.8,85,140.8,82z
		 M136.5,81.3c0,9.5,13.5,10.1,13.5-0.4c0-1.4-1.3-3.4-2-4.1C143.9,72.4,136.5,75.7,136.5,81.3z M109.9,82c-6.7,0-5.4-8.8-0.7-8.8
		c2.7,0,4.5,1.6,4.9,4C114.4,79.5,112.2,82,109.9,82z M98.4,77.5c0,3.4,1.3,5.8,3.1,7.7c5.8,6.3,19.3,4.3,19.3-8.6
		c0-8.5-12.1-14-19.1-7C100,71.2,98.4,74.2,98.4,77.5z M78.2,148h11.5V93.3h-4.3L78.2,148z M94.4,148h11.7l-7.4-54.9h-4.3V148z
		 M122.7,148c-0.2-3.2-12.2-43.6-14.2-52c-0.7-3.4-0.2-2.9-4.9-2.9c0,3.6,3.2,26.3,4.1,32.6c0.9,5.6,1.4,10.8,2.2,16.4
		c0.2,1.6,0.4,2.5,0.5,4.1c0.2,2.3,0.2,2,2.7,2C116.5,148,119.6,148,122.7,148z M61.6,148c3.1,0,5.9,0,9,0c3.8,0,2.7,0.7,3.6-5.8
		c0.9-6.1,6.5-45,6.5-49.1c-5.4,0-3.6-1.6-7.6,13L65.4,134C64.5,137.1,61.8,145.9,61.6,148z M127.7,148h12.8l-17.8-41
		c-0.9-1.8-5.6-12.6-5.8-13.9h-4.3c0.2,1.8,1.3,4.7,1.8,6.7c0.7,2.5,1.3,4.3,2,7l9.5,34.2C126.3,142.6,127.5,146.4,127.7,148z
		 M43.8,148h12.8l15.1-54.9h-3.8l-15.1,34c-0.9,2.3-1.8,4.7-3.1,7l-4.5,10.3C44.7,145.7,44,147,43.8,148z M145.9,148H161l-19.6-30.6
		c-4-6.3-13.1-19.6-15.5-24.3h-4L145.9,148z M23.3,148h15.5c0.2-1.3,2.2-5.6,2.7-7c0.9-2.2,2-4.3,2.9-6.7l16.4-37.6
		c0.5-1.3,1.3-2.5,1.4-3.6h-4L23.3,148z M49.2,75.5L49.2,75.5z M49.2,75.5c2.2,0,4-0.5,7-0.4c0.2,0,1.6,0.4,1.6,0.4
		c0.9,0.4,0.5,0.2,1.1,0.9c0.2,0.2,0.5,0.9,0.7,1.3c0.4,0.7,0.4,0.5,0.7,1.3c1.8,3.4,3.6,6.5,5.2,9.7h5.8c-1.3-2.2-7-12.1-7.4-13.5
		c2.5,0.5,3.4-0.2,6.7,0c3.2,0,3.2,1.1,4.3,3.4c0.9,1.8,4.9,8.6,5.2,10.3h6.1c-0.5-1.3-1.1-2-1.8-3.2c-0.7-1.3-1.1-2.2-1.6-3.4
		c-0.9-1.4-3.4-5.4-3.4-7c2.5,0.5,11,0,14.8,0c0-2.9,0.9-2.9,1.1-5H24.9c3.2,6.3,6.7,12.2,10.1,18.5h5.8c-0.4-1.4-6.1-11.5-7-13.1
		c2.3,0,7.9-1.4,9.7,0.7l6.5,12.4h6.1c-2-3.1-3.6-7-5.2-9.7C50.1,77.5,49.6,76.9,49.2,75.5z M97.8,66.1c1.1-0.4,1.4-0.7,2.3-1.4
		c0.9-0.5,1.4-1.1,2.3-1.4c10.1-5.2,22.7,2.9,22.7,14.2v3.1h6.3c3.6-15.8,22.1-11.9,23.2,0c5.6,0,4.7,1.3,4.7-7.7
		c0-4.3,0-8.5,0-12.8l-27.5-7.2c-4.5-1.1-3.2,1.3-3.2-16.7h-23.8c-7.2,0-7,7.6-7,11.7C98,53.9,97.8,60,97.8,66.1z"/>
</g>
</svg>
