<?xml version="1.0" encoding="utf-8"?>
<!-- Generator: Adobe Illustrator 23.0.3, SVG Export Plug-In . SVG Version: 6.00 Build 0)  -->
<svg version="1.1" id="Layer_1" xmlns="http://www.w3.org/2000/svg" xmlns:xlink="http://www.w3.org/1999/xlink" x="0px" y="0px"
	 viewBox="0 0 184.3 184.3" style="enable-background:new 0 0 184.3 184.3;" xml:space="preserve">
<style type="text/css">
	.st0{fill:#FFFFFF;}
</style>
<g id="Layer_x0020_1">
	<g id="_2748585539712">
		<path class="st0" d="M65.1,90.8c0,3.6-0.2,4.9,0.9,8.5c0.7,2.5,1.6,4.5,2.9,6.7c4,7.2,13.5,13.1,22,13.1c7.2,0,9.2-0.7,14.9-3.6
			c0.7-0.4,1.3-0.9,2-1.3c2.7-2,4.5-3.8,6.5-6.5l2.5-4.1c2.5-5.8,3.2-12.2,1.6-18.5s-5.4-11.3-10.4-15.1c-2.5-1.8-5.6-3.4-8.6-4.1
			c-6.5-1.8-12.8-0.9-18.7,1.6c-1.8,0.7-4.3,2.5-5.8,3.8c-2.7,2.2-5.8,5.9-7,9C66.3,83.1,65.1,87,65.1,90.8z"/>
		<path class="st0" d="M135.4,115.8v19.6h-19.6c-2.9,0-2.2,5-2.2,8.6c0,0.9,0.9,2.2,1.6,2.2h26.1c2.3,0,4.9-2.5,4.9-4.9v-25.6
			c0-2.9-4.9-2.2-8.3-2.2C136.5,113.7,135.4,114.4,135.4,115.8z"/>
		<path class="st0" d="M113.7,40.6c0,3.6-0.7,8.3,2.2,8.3h19.6v19.6c0,2.9,4.9,2.2,8.3,2.2c1.3,0,2.5-0.9,2.5-1.6V42.9
			c0-2.3-2.5-4.9-4.9-4.9h-25.6C114.4,38.1,113.7,39.1,113.7,40.6z"/>
		<path class="st0" d="M38.1,42.9v25.6c0,2.9,4.9,2.2,8.3,2.2c1.4,0,2.5-0.9,2.5-2.2V48.9h19.6c2.9,0,2.2-4.9,2.2-8.3
			c0-1.4-0.7-2.5-2.2-2.5H42.9C40.4,38.1,38.1,40.4,38.1,42.9z"/>
		<path class="st0" d="M38.1,115.8v25.6c0,2.3,2.5,4.9,4.9,4.9h25.6c2.9,0,2.2-4.9,2.2-8.3c0-1.4-0.7-2.5-2.2-2.5H48.9v-19.6
			c0-2.9-5-2.2-8.3-2.2C39.1,113.7,38.1,114.4,38.1,115.8z"/>
	</g>
</g>
</svg>
