<?xml version="1.0" encoding="utf-8"?>
<!-- Generator: Adobe Illustrator 23.0.3, SVG Export Plug-In . SVG Version: 6.00 Build 0)  -->
<svg version="1.1" id="Layer_1" xmlns="http://www.w3.org/2000/svg" xmlns:xlink="http://www.w3.org/1999/xlink" x="0px" y="0px"
	 viewBox="0 0 184.3 184.3" style="enable-background:new 0 0 184.3 184.3;" xml:space="preserve">
<g id="Layer_x0020_1">
	<path d="M91.6,165c0-1.4,0.2-21.2-0.2-22.1L70,123.4c-2.2-2-4.3-3.8-6.7-5.9c-1.8-1.8-2-0.7-1.6-4.1c0.4-4.9,1.4-13,1.4-17.1
		c-2.2,0.4-7.7,2-9.2,3.2l-6.3,5.6c-1.3,1.1-2.2,2-3.2,2.9c-2,1.6-2.3,1.8-2.5,3.4l-3.2,21.1c-0.5,3.6,0.4,7.4,0.7,11
		c0.9,7.2,1.8,14.4,2.7,21.6c1.3,0.4,10.1,0.2,12.1,0.2v-25.6c0-0.4,0-1.6,0-1.8c0.2-1.1,0-0.7,1.3-0.7V165
		C56.5,165.1,88.7,165.1,91.6,165z M111.2,51l5.4-0.4c0.2-4.7,0.2-13.9-2.9-17.6C111.9,35.5,111,47,111.2,51z M67.3,50.5l6.3,0.5
		c-0.2-4.3-0.7-16.4-3.1-18.7C67.4,36.1,66.9,44.7,67.3,50.5z M70.9,55.9c2.5,0,5.9,0.5,8.8,0.9c7.7,0.5,16.9,0.5,24.7,0
		c2.9-0.2,6.5-0.9,9-0.9c0.2,13.5-4.9,34.6-21.2,34.6C76.8,90.4,70.7,71.5,70.9,55.9z M67.1,55.3c0.2,10.3,1.6,19.6,6.3,27.2
		c3.6,6.3,10.8,13,21.8,11.3c9.2-1.4,14.6-8.3,17.8-15.7c2.7-6.3,4-14,4-21.1c0-2.3-0.4-1.8,1.6-2.5c4.7-1.4,2.2-3.1-2-3.8
		c0,1.4-0.9,1.1-5,1.4c-2,0.2-4.1,0.2-6.1,0.4c-8.3,0.4-17.3,0.4-25.6,0c-4.3-0.2-8.3-0.5-12.2-0.9l-0.5-0.9
		C57.5,53,66.7,55,67.1,55.3z M98.8,44.3l-13.1,0.2c-0.5-2.9-4-21.1-3.8-22.5c2.9-1.4,7-1.8,10.6-1.8c2,0,9.7,0.9,10.1,2.5
		C102.7,23.3,99.1,42.2,98.8,44.3z M80.8,23.5c-3.2,1.3-6.1,3.6-8.3,5.9c-1.3,1.6-1.3,1.1-0.4,3.1c1.8,4.3,2.5,11.3,2.5,16.6
		c0,2.9-0.7,2,7,2.3c7.6,0.4,20.9,0.4,27.9-0.4c0.4-6.3,0.4-11.9,2.3-17.5c0.7-1.8,1.3-1.6,0-3.2c-2.2-2.9-5-4.9-8.5-6.7
		c-0.2-2.2,0.4-2.5-4.3-3.6c-2.2-0.5-4.7-0.9-7-0.9c-2.7,0-7.7,0.5-10.3,1.8C80.8,21.5,81.1,22,80.8,23.5z M95.2,114.5
		c1.1-0.9,2.2-1.3,2.7-2.5c0.5-1.6-0.2-2.9-0.7-4.3c-1.1-2.9-1.3-5.6-4.9-5.6c-3.6,0-3.8,2.5-4.9,5.6c-0.5,1.3-1.3,2.7-0.7,4.3
		c0.5,1.4,1.6,1.6,2.7,2.5L87.6,127l-0.2-0.2l-0.4-0.2c0,0,0,0-0.2-0.2l-10.4-12.8c-4.5-5.4-3.2-12.4-3.4-20.3L64.4,96
		c-0.7,5.9-1.1,11.7-1.6,17.6c-0.2,1.8,0.5,2.2,1.6,3.1l25.2,22.7c0.9,0.7,1.4,1.6,2.5,2.2c0.5-0.7,1.1-1.3,1.8-1.8l5.4-4.9
		c2.3-2.5,4.9-4.3,7.2-6.7c2.3-2.3,13.1-11.3,14.6-13.1l-1.8-18.9c-0.5-0.5-3.6-1.3-4.3-1.4c-1.4-0.4-3.1-1.1-4.3-1.3
		c-0.2,7.7,1.1,15.1-3.2,20.3l-10.4,13c-0.7-0.7-1.1-4.7-1.3-5.9C95.7,118.9,95.2,116.2,95.2,114.5z M92.6,165
		c0-1.4-0.2-21.2,0.2-22.1l21.4-19.4c2.2-2,4.3-3.8,6.7-5.9c1.8-1.8,2-0.7,1.6-4.1c-0.4-4.9-1.4-13-1.6-17.1c2.3,0.4,7.7,2,9.2,3.2
		l6.5,5.6c1.3,1.1,2.2,2,3.2,2.9c2,1.6,2.3,1.8,2.5,3.4l3.2,21.1c0.5,3.6-0.4,7.4-0.7,11c-0.9,7.2-1.8,14.4-2.7,21.6
		c-1.3,0.4-10.1,0.2-12.1,0.2v-25.6c0-0.4,0-1.6,0-1.8c-0.2-1.1,0-0.7-1.3-0.7V165C127.7,165.1,95.7,165.1,92.6,165z"/>
</g>
</svg>
