<?xml version="1.0" encoding="utf-8"?>
<!-- Generator: Adobe Illustrator 23.0.3, SVG Export Plug-In . SVG Version: 6.00 Build 0)  -->
<svg version="1.1" id="Layer_1" xmlns="http://www.w3.org/2000/svg" xmlns:xlink="http://www.w3.org/1999/xlink" x="0px" y="0px"
	 viewBox="0 0 184.3 184.3" style="enable-background:new 0 0 184.3 184.3;" xml:space="preserve">
<style type="text/css">
	.st0{fill:#FFFFFF;}
</style>
<g id="Layer_x0020_1">
	<path class="st0" d="M23.4,106.3c4.7-1.4,9.7-3.6,14.9-5c28.1-8.3,62.3-9.5,90.7-3.4c17.5,3.8,18.4,5.6,31.7,9.4
		c0.9-1.3,1.4-2.9,2-4.7c-3.8-0.7-11-4-15.3-5.2c-15.8-4.7-35.3-8.1-51.8-8.1v-4.3l-22-7.7l0.2,8.6l8.1,3.1c-8.1,1.1-18.9,2-27,2
		c-8.5,0-21.1-0.7-29,0.2l-0.2,8.6c-1.6,1.1-3.2,1.1-4.3,2.2L23.4,106.3z"/>
	<polygon class="st0" points="69.8,91.9 69.8,96.6 114.5,96.6 114.5,87.6 69.8,87.6 	"/>
	<polygon class="st0" points="69.8,96.6 114.5,96.6 114.5,87.7 69.8,87.6 	"/>
	<polygon class="st0" points="69.8,96.6 114.5,96.6 114.5,87.6 70,87.6 	"/>
	<polygon class="st0" points="69.8,96.6 114.5,96.6 114.5,87.7 70,87.7 	"/>
	<polygon class="st0" points="69.8,96.6 114.5,96.6 114.5,87.7 70,87.7 	"/>
	<polygon class="st0" points="69.8,96.6 114.5,96.6 114.5,87.7 70,87.7 	"/>
	<polygon class="st0" points="69.8,96.6 114.5,96.6 114.5,87.7 70,87.7 	"/>
	<polygon class="st0" points="69.8,96.6 114.5,96.6 114.5,87.7 70,87.7 	"/>
	<path class="st0" d="M76.3,94v1.1c4.3,0.4,24.5,0.2,31.7,0.2v-6.5C97.7,89,86.4,88.6,76.3,89V94z"/>
	<path class="st0" d="M76.3,95.1c8.6,0.5,22,0.2,31.7,0.2v-6.5L76.3,89V95.1z"/>
	<polygon class="st0" points="76.3,95.1 108.2,95.3 108,88.8 76.3,89 	"/>
	<polygon class="st0" points="76.3,95.1 108,95.3 108,88.8 76.3,89 	"/>
	<polygon class="st0" points="76.3,95.1 108.2,95.3 108,88.8 76.3,89 	"/>
	<polygon class="st0" points="76.3,95.1 108,95.3 108,89 76.5,89 	"/>
	<polygon class="st0" points="76.5,95.1 107.8,95.3 108,89 76.3,89 	"/>
	<polygon class="st0" points="76.3,95.1 108,95.3 108,89 76.5,89 	"/>
	<path class="st0" d="M81.2,92.6l21.8,7.7v-8.6c-1.6-1.1-19.3-7.4-22-7.9L81.2,92.6L81.2,92.6z"/>
	<path class="st0" d="M81.3,92.6l21.8,7.7v-8.6c-2.3-1.4-18.2-6.8-22-7.9L81.3,92.6z"/>
	<path class="st0" d="M81.2,86.1v6.7l21.8,7.7c0.4-10.8,1.6-8.5-9.9-12.4c-3.8-1.3-8.3-3.4-11.9-4.3V86.1z"/>
	<polygon class="st0" points="81.2,92.8 102.9,100.3 103.1,91.7 81.2,83.8 	"/>
	<polygon class="st0" points="81.2,92.8 102.9,100.3 103.1,91.7 81.2,83.8 	"/>
	<polygon class="st0" points="81.2,92.8 103.1,100.3 103.1,91.7 81.2,83.8 	"/>
	<polygon class="st0" points="81.2,92.6 103.1,100.3 103.1,91.7 81.2,83.8 	"/>
	<polygon class="st0" points="84.4,92.6 100.1,98 99.9,91.7 84.4,86.3 	"/>
	<polygon class="st0" points="84.4,92.6 99.9,98 100.1,91.7 84.4,86.3 	"/>
	<polygon class="st0" points="84.4,92.4 100.1,98 100.1,91.7 84.4,86.3 	"/>
	<polygon class="st0" points="84.4,92.6 100.1,98 100.1,91.7 84.4,86.3 	"/>
	<path class="st0" d="M84.4,92.2c1.1,0.7,13.9,5.2,15.7,5.6v-6.3l-15.5-5.4L84.4,92.2z"/>
	<polygon class="st0" points="84.4,92.6 99.9,98 100.1,91.7 84.4,86.3 	"/>
	<polygon class="st0" points="84.4,92.2 99.9,98 100.1,91.7 84.4,86.3 	"/>
	<polygon class="st0" points="84.4,92.6 99.9,98 100.1,91.9 84.4,86.3 	"/>
</g>
</svg>
