<?xml version="1.0" encoding="utf-8"?>
<!-- Generator: Adobe Illustrator 23.0.3, SVG Export Plug-In . SVG Version: 6.00 Build 0)  -->
<svg version="1.1" id="Layer_1" xmlns="http://www.w3.org/2000/svg" xmlns:xlink="http://www.w3.org/1999/xlink" x="0px" y="0px"
	 viewBox="0 0 184.3 184.3" style="enable-background:new 0 0 184.3 184.3;" xml:space="preserve">
<style type="text/css">
	.st0{fill:#FFFFFF;}
</style>
<g id="Layer_x0020_1">
	<g id="_2748703765232">
		<path class="st0" d="M29,52.4v98.8c2.3-0.5,5-1.8,7.4-2.7c2.3-0.9,4.7-1.8,7.2-2.7l14.6-5.6c3.4-1.4,2.2-1.3,7,0.7l21.8,8.8
			c1.4,0,22-8.3,25.6-9.7c1.8-0.7,1.6-0.2,3.6,0.5c4,1.4,26.8,11.3,29,11.5V103c-1.4,0.9-2.3,2-4.9,3.6c-1.4,0.9-4,2.3-5.6,2.7v27.5
			c-1.1-0.2-1.3-0.5-2.2-0.9l-16.4-6.7c-3.6-1.4-2.2-1.6-9.4,1.3c-3.2,1.3-6.1,2.3-9.4,3.6c-3.2,1.3-5.9,2.3-9.4,3.6
			c-2.2,0.9-2.5,0.2-4.7-0.7c-1.6-0.7-3.1-1.3-4.7-2c-1.8-0.7-18.2-7.4-18.5-7.4l-15.8,6.1c-1.8,0.7-4,1.4-5.4,2.2V58.5l21.2-10.6
			c1.3,0,14.2,7.7,16.6,8.3l2-4.7c0.7-1.6,2-3.2,2.3-4.7l-20.7-11c-1.3,0.4-3.1,1.3-4.1,2L29,52.4z"/>
		<path class="st0" d="M118.8,98c-5,0-8.6-0.4-13.1-2.5c-9-4.5-15.8-13.5-15.8-23.8c0-9,2.2-14.9,8.3-21.2
			c10.3-10.4,28.1-10.3,38.5,0.2C155.1,69,140.4,98,118.8,98z M87.8,94.7l-1.1,0.9c-3.2-0.5-1.8-0.5-7.4,3.6l-10.6,8.1
			c-0.9,0.7-4.9,3.2-4.9,4.3l0.2,2.3c-0.2,1.3-0.9,0.5-0.9,1.6c0,1.8,1.1,3.6,2.2,4.5c1.3,0.9,3.4,2.2,4.7,1.3
			c1.4-0.9,0-0.9,2.2-0.5c2.7,0.4,2.2-0.2,6.5-3.4c1.4-1.1,2.5-2,4-3.1l11.9-9c-0.5-2.5-0.9-2.9,0-4.3c1.6,0.4,18,13.5,38.7,4
			c12.2-5.8,22-19.1,22-32.2c0-8.1-0.2-11.9-4-19.4c-1.1-2-2.2-4-3.4-5.6C131.6,25.2,96.3,27.6,83.7,53c-5.4,10.8-5.9,21.2-0.9,32.9
			C84,89.1,87.6,93.6,87.8,94.7z"/>
		<path class="st0" d="M116.1,73.1c-2.9-0.7-18.5-11.2-20.9-11.3c-0.4,1.3-0.7,2.3-1.1,3.6l19.3,11c1.3,0.7,5.4,3.2,6.7,3.6V46.8h-4
			V73.1z"/>
		<path class="st0" d="M124.7,92.7c1.4,0,3.1-0.9,4-1.3V71.7c1.6,1.1,3.6,2.2,5.4,3.2c1.1,0.5,1.6,0.9,2.7,1.6
			c1.3,0.5,1.8,1.3,3.1,1.6c0.4-1.3,0.9-2.5,1.1-4c-2-1.1-14.6-8.6-16.2-9C124.7,65.2,124.7,92.7,124.7,92.7z"/>
		<path class="st0" d="M116.4,88.4V94h3.6c0-10.6,1.6-8.1-6.1-12.4L94.1,70.2c-0.9,0-0.4,0.2-0.4,1.3c0.2,4.1,0.2,3.2,3.1,5
			c2.2,1.3,4.3,2.5,6.8,4l9.9,5.6C115,86.6,116.4,87.3,116.4,88.4z"/>
		<path class="st0" d="M124.7,60.2c1.6,0.4,6.7,3.6,8.1,4.5c2.9,1.6,5.2,3.1,8.1,4.5c0-5.9-1.1-5-4.7-7.2l-7.6-4.3v-7.9
			c-1.3-0.7-2.3-1.3-4-1.6C124.7,48.1,124.7,60.2,124.7,60.2z"/>
	</g>
</g>
</svg>
