<?xml version="1.0" encoding="utf-8"?>
<!-- Generator: Adobe Illustrator 23.0.3, SVG Export Plug-In . SVG Version: 6.00 Build 0)  -->
<svg version="1.1" id="Layer_1" xmlns="http://www.w3.org/2000/svg" xmlns:xlink="http://www.w3.org/1999/xlink" x="0px" y="0px"
	 viewBox="0 0 184.3 184.3" style="enable-background:new 0 0 184.3 184.3;" xml:space="preserve">
<style type="text/css">
	.st0{fill:#FFFFFF;}
</style>
<g id="Layer_x0020_1">
	<g id="_2748613019312">
		<path class="st0" d="M67,148.1h14.8v4.1H67V148.1z M81.6,133.3v9.5H69.7c0.9-0.9,1.8-1.6,2.7-2.3c1.1-0.9,2-1.6,2.9-2.5l4.7-3.6
			C80.8,133.7,80.3,133.7,81.6,133.3z M67,138.2v-10.6h13c-0.5,0.9-0.5,0.7-1.3,1.4c-0.7,0.5-1.1,0.9-1.6,1.4
			c-1.1,0.9-2.2,1.6-3.2,2.5C72.7,133.7,67.9,137.8,67,138.2z M81.6,112.6v9.9H69.7L81.6,112.6z M67,117.6v-11h13.3L67,117.6z
			 M81.6,92.1v9.5H69.7C71.3,100.2,80.1,92.4,81.6,92.1z M67,96.8V86.1h13l-3.1,2.7C75.4,90.1,68.1,96.4,67,96.8z M153.6,65.1h3.1
			v17.8h-3.1V65.1z M81.6,71.2v9.9H69.7c0.5-0.9,0.5-0.7,1.3-1.4C73.8,77.7,79,72.8,81.6,71.2z M67,76.2V65.1h13.7
			c-0.5,0.7-2.3,2.2-3.2,2.9C74.5,70.1,69.5,74.6,67,76.2z M74.4,33.4l6.5,23.2H67.5C68.1,54.6,73.8,34.3,74.4,33.4z M69.3,26.7
			l-2,7.4c-0.7,2.5-1.4,5-2.2,7.4L61,56.4H32.8c0.7-1.1,19.8-16.2,22.7-18.5c1.6-1.3,2.9-2.3,4.5-3.6C61.8,32.7,67.7,27.6,69.3,26.7
			z M69.3,26.7L69.3,26.7z M78.5,24.8l8.6,4c13.9,5.8,30.2,13.7,44.5,19.8l16.9,7.4c0.5,0.4,0.5,0.4,1.1,0.7H87.3L83,41
			c-0.7-2.7-1.4-5.2-2.2-7.9c-0.5-1.4-0.7-2.7-1.3-4C79.2,27.5,78.7,26.2,78.5,24.8z M21.4,59.3c0,2.3-0.5,5.8,2.7,5.8H60v87.1H44.3
			c-0.7,0-1.8,0.9-2,1.3c-0.5,0.9-2.5,12.2,2.7,12.2h58.3c4.1,0,3.4-5.4,3.4-8.8c0-2.5-0.9-4.7-3.4-4.7H88.4V65.1h62.5v17.5
			c0,2.2-2.3-0.9-2.3,7.2c0,2.2,0.9,5.4,1.4,7c0.5,1.4,1.1,1.6,1.6,2.5c0.7,1.4,0.4,2,2.5,2l0.4,3.4c2.7,0.5,4.5,1.3,4.5,4.1
			c0,2.3-1.3,4-3.6,3.6c-4-0.7-2-3.6-4.3-3.6c-3.2,0,0,6.1,3.8,6.1c2.2,0,4,0.2,5.6-2c1.8-2.7,1.8-6.1-0.5-8.5
			c-1.6-1.8-2.9-0.5-2.9-3.2c2.9,0,1.1-0.7,2.9-2.7c2.7-3.2,2.3-7.9,2.3-12.4c0-1.6-1.1-2.7-2.3-3.1v-18c1.1,0,1.6,0.2,2.3-0.7
			c0.9-0.9,1.8-7-1.1-7.7c-3.6-0.9,0.2,1.8-9-2.2c-3.6-1.6-7-3.1-10.6-4.7l-21.1-9.4c-8.3-3.4-17.8-8.1-26.3-11.7L83.5,24
			c-1.3-0.5-4.3-2.2-5.6-2.3c-0.2-2.5-4.3-5.4-6.5-0.4c-0.9,1.8-7.7,6.8-9.4,8.1C61,30.3,60,31.1,58.9,32L36,50.3
			c-2.2,1.8-4.5,3.2-6.5,5.2c-1.8,1.6-1.6,1.1-4.7,1.1C22.7,56.4,21.4,57.2,21.4,59.3z"/>
		<path class="st0" d="M21.4,70.5C21.4,82,19.3,80,45,80c5,0,4.1-4.9,4.1-9.9c0-2.3-2-3.8-4.5-3.8H25.9
			C23.2,66.3,21.4,67.8,21.4,70.5z"/>
	</g>
</g>
</svg>
