<?xml version="1.0" encoding="utf-8"?>
<!-- Generator: Adobe Illustrator 23.0.3, SVG Export Plug-In . SVG Version: 6.00 Build 0)  -->
<svg version="1.1" id="Layer_1" xmlns="http://www.w3.org/2000/svg" xmlns:xlink="http://www.w3.org/1999/xlink" x="0px" y="0px"
	 viewBox="0 0 184.3 184.3" style="enable-background:new 0 0 184.3 184.3;" xml:space="preserve">
<style type="text/css">
	.st0{fill:#111111;}
</style>
<g id="Layer_x0020_1">
	<g id="_2748340026416">
		<path d="M89.3,155.3c0.9,0.2,2,0.5,3.1,0.5c1.1-0.2,2.2-0.4,2.9-0.7c-0.4,1.4-1.1,3.1-1.6,4.7l-1.4,4.1L89.3,155.3z M89.6,151.5
			c1.6,0.9,3.8,0.9,5.2,0c0.4,0.5,0.5,0.5,0.7,1.1c-2.3,1.1-4.3,1.3-6.7,0C89.1,152.1,89.3,151.9,89.6,151.5z M91.2,17.4
			c3.1-0.9,4.3,1.8,3.4,4c-0.4,0.5-0.9,1.1-1.6,1.3c-1.6,0.5-3.1-0.4-3.6-1.6c-0.2-0.5-0.2-1.8,0.2-2.3
			C90.3,17.4,91.1,17.4,91.2,17.4z M101,10.6c-2.2,0-2.3,0.2-3.4,0.2l-0.4,7.7c-0.5-2.2-3.1-4-5.2-3.8c-3.8,0.2-6.3,4.1-4.7,7.6
			c0.9,1.8,2.5,3.1,4.7,3.1c1.8,0,3.1-0.7,4.1-1.8c1.4-1.6,1.3-2.7,1.4-3.1v16H86.7V10.8c-0.9,0-1.8-0.2-3.1-0.2v-5H101V10.6z
			 M39,172.1v0.4c0.4,0.2,0.5,0.5,1.1,0.5c0.2-1.3,0.4-1.3,0.9-1.6c0.4-0.2,0.9-2,1.3-2.5c0.5-1.4,2.9-7,3.1-7.7
			c0.5,0.2,0.5,0.2,0.9,0.4c0-0.7,0.2-0.7,0.4-1.3l3.6-8.6c0.2-0.4,0.2-0.7,0.4-1.1l4.3-10.6c0.4-0.7,0.7-1.6,0.9-2.2l2.2-5.4
			c0.2-0.7,0.2-0.5,0.5-1.1l1.6-4.3c0.5,0.2,0.7,0.5,1.3,0.5l1.6-4.3c0.2-0.5,0.2-0.4,0.5-1.1c0.2-0.4,0.2-0.7,0.4-1.1l1.6-4.1
			c1.6-4.1,4.1-10.6,5.9-14.4c0.4-0.7,0.5-1.4,0.9-2.2l1.3-3.2c0.2-0.4,0.2-0.5,0.5-1.1l14-34.6v70.2h1.6v11.7
			c0,7.4,0.2,2.7-1.4,5.6c-1.3,2.5-2.9,2.9-2.3,4.3l1.8,5.2c2,6.1,2,4.3,2,10.4c0.4,0.2,0.9,0,0.9,0.5v10.3c0.2,1.4,0.2,0,0.5,1.1
			c0.2,0.2,0,1.3,0,1.6h1.4c0-0.4,0-1.4,0-1.6c0.4-1.1,0.4,0.4,0.5-1.1v-10.3c0.2-0.5,0.5-0.4,0.9-0.5c0-1.1-0.2-2.7,0-3.6
			c0-0.5,0.2-0.9,0.5-1.4l3.2-9.7c0.5-1.4,0.7-1.4-0.2-2.5l-1.6-2c-0.9-1.3-0.5-1.3-2-2v-16h1.6V61l9.4,22.9
			c0.4,0.7,0.5,1.3,0.9,2.2c0.4,0.7,0.5,1.4,0.9,2.2l14.8,36.5c0.2,0.5,0.2,0.7,0.4,1.1c0.2,0.7,0.5,1.6,0.9,2
			c0.5-0.2,0.7-0.4,1.1-0.5l4.1,10.6c0.4,0.7,0.5,1.6,0.9,2.2l3.1,7.4c1.3,3.6,3.4,8.1,4.9,11.7l0.9,2.3c0.4-0.2,0.4-0.2,0.9-0.4
			l4,9.9c0.5,0.7,0.9,0.2,1.3,2c0.5-0.2,0.5-0.2,1.1-0.5v-0.2c-1.1-1.3-0.2-1.6-0.7-2.9l-4-9.4l0.7-0.5c-0.4-0.7-0.5-1.4-0.9-2.2
			c-1.4-3.1-3.1-7.7-4.3-10.8l-4.7-11.7c-0.5-1.4-3.8-8.8-4-9.9l0.9-0.5c0,0,0.2,0,0.2-0.2l-1.6-4.3c-0.2-0.4-0.2-0.5-0.5-1.1
			l-3.2-7.9c-0.2-0.5-0.2-0.5-0.4-1.1L104.4,65c-0.7-2-3.4-7.9-3.6-9c-0.2-0.9,0-2.2,0-3.1c6.1,0,4.9,1.1,4.9-3.8h-3.4
			c0.2-0.9,0-0.2,0.2-0.5c0.5-1.3,0.9-3.2,0.9-4.7h4.3V27.3l0.9-0.2c0-1.4,0.7-1.4,0.2-2.9c-0.2-0.4-0.2,0-0.2-1.1
			c-1.3,0-0.9,0.5-0.9-2.3V10.6h-2.7c0-4.3,0.7-7.2-1.8-8.6h-0.2l-0.2-0.2H81.7c-0.9,0.7-2.2,1.1-2.2,3.2c0,1.8,0,3.8,0,5.6
			c-4,0-3.1-1.3-3.1,8.3c0,3.6-0.4,24.5,0.2,25c0.4,0.4,4.1,0.2,4.7,0.2c0.2,1.6,0,1.3,0.4,2.5c0.4,1.4,0.2,1.4,0.9,2.5
			c-0.9,0-3.2-0.4-3.8,0.2c-0.5,0.5-0.2,3.1,0,3.6c0.9,0.5,3.8,0.2,5.2,0.2c0,0.9,0.2,2-0.2,2.9L72.2,84.8
			c-1.8,4.1-3.6,9.2-5.4,13.1l-2.2,5.6c-0.2,0.5-0.4,0.7-0.5,1.3l-5.4,13.3c-0.4,0.9-0.5,1.4-0.9,2.2c-0.4,0.9-1.6,3.8-1.6,4.5
			l1.1,0.5c-0.4,0.7-0.5,1.3-0.9,2.2c-0.4,0.7-0.5,1.3-0.9,2.2l-0.9,2.2c-0.2,0.4-0.2,0.7-0.4,1.1l-4.9,11.9
			c-0.4,0.7-0.5,1.3-0.9,2.2l-4.3,10.8c-0.2,0.5-0.2,0.5-0.5,1.1l-0.4,0.9c0,0,0,0.2-0.2,0.2v0.2c0.2,0.7,0,0,0.5,0.7l-0.9,2.2
			c-0.2,0.4-0.2,0.4-0.2,0.9l-2.7,6.8c-0.2,1.3,0.5,0.2,0,1.4H39z"/>
		<path class="st0" d="M90,20.5c0.2,0.9,1.3,2,2.5,1.8c0.4,0,0.5-0.2,0.9-0.4c0.5-0.4,1.1-1.3,1.1-2C93.9,16.7,89.4,17.8,90,20.5z"
			/>
	</g>
</g>
</svg>
