<?xml version="1.0" encoding="utf-8"?>
<!-- Generator: Adobe Illustrator 23.0.3, SVG Export Plug-In . SVG Version: 6.00 Build 0)  -->
<svg version="1.1" id="Layer_1" xmlns="http://www.w3.org/2000/svg" xmlns:xlink="http://www.w3.org/1999/xlink" x="0px" y="0px"
	 viewBox="0 0 184.3 184.3" style="enable-background:new 0 0 184.3 184.3;" xml:space="preserve">
<g id="Layer_x0020_1">
	<path d="M93.2,47.1L108.5,66c0.4,0.5,0.5,1.1,1.1,1.6c14.4,18.9,33.1,43.6,45.5,62.3c0.5,0.5,1.1,0.2,1.6,1.4
		c0.7-0.2,0.7-0.2,1.4-0.4v-0.2c-1.3-0.9-0.2-1.3-0.9-2.2c-17.1-23.9-32.4-51.1-49.9-76.5c-7.6-11.9,4-11.7,4-26.3c0-2.2,0-4,0-5.9
		v-7.6c-8.3,0,0.7-4.1-5.8-6.3c-0.2,0-0.4-0.2-0.4-0.2H79.3c-1.3,0.5-2.7,0.9-2.7,2.5c0,1.3,0,2.7,0,4c-4.9,0-4-0.9-4,6.1
		c0,30.1,16.9,15.7-5.6,48.1C52.5,87.1,40.6,109,26.9,129c-0.4,0.9,0.5,0.2,0,1.1l-0.5,0.5v0.4c0.5,0.2,0.7,0.4,1.4,0.4
		c0.4-0.9,0.5-0.9,1.3-1.3c0.5-0.2,1.3-1.4,1.4-1.8C47.6,102.7,72.3,71.9,93.2,47.1z"/>
	<polygon points="22.8,94.4 92.1,170.4 161.4,94.4 165.4,98 94.1,176.2 92.1,178.3 90.1,176.2 18.8,98 	"/>
	<path d="M105.1,131.3c0.5,0.7,1.1,1.3,1.6,1.6c0.5,0.4,1.3,0.5,2,0.5c1.3,0,2.2-0.4,2.9-1.3c0.7-0.9,1.3-2.2,1.3-4.1v-7
		c0-2-0.4-3.4-1.3-4.1c-0.7-0.9-1.8-1.3-2.9-1.3s-2,0.4-2.7,0.9c-0.5,0.5-1.1,1.8-1.4,3.4c-0.2,1.1-0.5,2-1.1,2.5
		c-1.1,1.3-2.5,2.2-4.5,2.9c-2,0.7-4,1.1-5.9,1.1c-2.3,0-4.7-0.5-6.7-1.6c-2.2-1.1-4-2.9-5.4-5.2c-1.6-2.3-2.3-5.2-2.3-8.5V106
		c0-4,1.4-7.2,4.3-9.9c2.9-2.5,6.8-4,11.9-4c3.1,0,5.6,0.4,7.7,1.3c1.3,0.5,2.5,1.4,4,2.9c0.9,0.9,1.4,1.4,2,1.6
		c0.5,0.2,1.1,0.4,1.6,0.4c1.1,0,2-0.4,2.9-1.3c0.9-0.9,1.3-1.8,1.3-2.9c0-1.1-0.5-2.3-1.6-3.6c-1.6-1.8-3.6-3.2-6.3-4.3
		C102.9,84.7,99.1,84,95,84c-4.9,0-9.2,1.1-13.1,3.1c-3.1,1.6-5.8,4.1-8.1,7.6c-2.2,3.4-3.2,7.2-3.2,11.3v5.6
		c0,4.3,0.9,8.3,2.9,11.9c2,3.8,4.7,6.5,8.3,8.5c3.4,2,7.2,3.1,11.2,3.1c2.3,0,4.5-0.2,6.7-0.9C101.3,133.3,103.3,132.4,105.1,131.3
		z"/>
</g>
</svg>
