<?xml version="1.0" encoding="utf-8"?>
<!-- Generator: Adobe Illustrator 23.0.3, SVG Export Plug-In . SVG Version: 6.00 Build 0)  -->
<svg version="1.1" id="Layer_1" xmlns="http://www.w3.org/2000/svg" xmlns:xlink="http://www.w3.org/1999/xlink" x="0px" y="0px"
	 viewBox="0 0 184.3 184.3" style="enable-background:new 0 0 184.3 184.3;" xml:space="preserve">
<g id="Layer_x0020_1">
	<g id="_2748603135600">
		<path d="M95.3,122.6l22.9,8.3c1.1,0.4,0.9,0.5,1.3,1.8c0.7,2.9,1.8,6.5,2.2,9.2c-1.6-0.2-23-6.8-26.1-7.7L95.3,122.6z M95.5,105.8
			l10.8,3.8c1.6,0.5,9.7,3.2,10.4,4c0.4,0.9,2.2,9.9,2.2,11.3L95.5,117V105.8z M95.3,89.4c1.8,0.2,13,4.3,16.2,5.4
			c1.1,0.4,1.6,0.4,2,0.9c0.4,0.4,2.3,10.8,2.3,12.1l-20.7-7.2L95.3,89.4L95.3,89.4z M95.5,72.5l16.2,6.1l2.2,10.4
			c-1.4-0.2-3.4-1.1-4.9-1.6l-9-3.1c-0.7-0.2-1.6-0.5-2.3-0.9c-1.4-0.5-1.6-0.4-2-1.1L95.5,72.5z M95.5,56.1l13.9,6.7
			c0.9,0.5,0.9,2,0.9,2.9c0.4,1.8,1.1,5,1.3,6.8c-0.9-0.2-15.5-5.9-16-6.3L95.5,56.1z M109.7,57.9c-1.1-0.4-8.8-4.9-10.4-5.9
			c-4.5-2.7-4-1.6-4-4.5c0-2.5-0.2-5.6,0-8.1c0.7,0.4,1.8,1.3,2.5,1.8l7,4.9c2.7,2,2.5,1.1,3.2,4.9
			C108.6,53.3,109.3,55.6,109.7,57.9z M93.1,155H130c-0.7-5.8-2.2-11.5-3.1-17.3s-2.2-11.5-3.2-17.3l-12.6-68.6
			c-2-10.6,0.2-7.4-6.8-13.3c-1.4-1.3-9.7-8.6-11.2-9.4V155z"/>
		<path d="M58.6,145.4c0.2-1.6,1.3-10.6,1.8-11.2c0.4-0.4,7.7-3.2,8.8-3.6c2.9-1.3,6.1-2.5,9-3.6c1.6-0.7,7.9-3.6,9-3.6v11.3
			L73,140.2C70.5,141.1,60.2,145.2,58.6,145.4z M62.2,117.7c1.4-0.7,24.1-11,25-11.2v11.3l-26.6,11L62.2,117.7z M64.7,100.4
			c1.8-1.1,3.8-1.8,5.6-2.7c2.7-1.3,16.2-7.7,16.9-7.9V101c-0.7,0.5-10.3,4.7-12.1,5.4c-2.2,0.9-10.4,4.7-12.2,5.2L64.7,100.4z
			 M66,95.4c0.2-2.7,0.9-6.8,1.3-9.7c0.2-1.3,0-1.3,0.9-1.8c2.9-1.8,18-10.4,18.9-10.8v11.3L66,95.4z M68.5,78.5
			c-0.2-1.6,0.9-7,1.3-9c0.4-2.5,0.2-2,2.2-3.2c1.1-0.7,2-1.4,3.1-2c1.6-0.9,11.3-7.9,12.4-8.1v11.3c-1.3,0.9-3.4,2-4.7,2.9
			C80.2,71.6,69.2,78.3,68.5,78.5z M71,61.7c0-1.4,1.3-6.3,1.6-7.9c0.4-1.6,0.2-2.5,1.3-3.6l7.9-6.5c1.1-0.9,4.5-4,5.4-4.1v11.3
			L71,61.7z M91,29.3c-1.6,0.7-8.6,8.1-11,9.9l-7.9,7.2c-1.4,1.3-1.4,0.9-1.8,3.2c-3.4,22.9-8.1,47-11.7,70
			c-0.9,5.9-1.8,11.7-2.9,17.5c-0.7,4.1-2.5,14.2-2.9,17.6H91V29.3z"/>
		<path d="M44.2,88.7c1.3,0.2,9.4,3.8,11.5,4.7c0.9,0.4,3.1,1.3,3.6,1.6v4.7c-1.3,0-12.8-4.7-15.7-5.4L44.2,88.7z M44.9,79.7
			c0.9,0.2,13.9,5.4,14.8,5.9v4.9l-7.7-2.7c-2.3-0.9-5.2-2-7.6-2.7L44.9,79.7z M45.8,70.9L60,76.8v4.9c-0.9,0-14-4.9-14.8-5.2
			L45.8,70.9z M46.2,62.1c1.1,0,12.8,4.9,14.4,5.8v4.7c-1.8-0.2-11.7-4.3-14.8-5L46.2,62.1z M37.3,155h13.9c0.4-1.1,2-11.2,1.8-12.1
			l-12.8-3.2l0.4-5.4c0.9-0.2,5.6,1.4,6.7,1.8c1.3,0.4,5.6,2,6.7,1.8l0.5-3.6l-13.5-4l0.4-5.4c2.2,0.2,11.5,4.3,14,4.5l0.5-3.6
			l-14.2-4.3l0.4-5.4c0.9,0,10.8,3.4,13,4.3l1.4,0.4c0.7,0,0.9-2.9,1.1-3.6c-1.3-0.7-5.8-2-7.6-2.5c-1.3-0.4-6.5-1.8-7.4-2.3
			l0.4-5.2c2.9,0.4,11.7,4.5,15.1,5.2c0.4-0.5,0.5-1.3,0.5-1.8c0-0.5,0.2-1.3,0.2-2l-15.8-5l0.4-5.4c1.1,0,7.2,2.5,8.6,2.9
			c1.4,0.5,2.7,1.1,4.1,1.6c4,1.4,3.1,0.9,3.2,2.3c0.5-2.5,2.9-16.4,2.9-18.2c0.2-6.7,0.2-14.6,0-21.2l-17.5-7.4
			c-0.7,8.1-1.1,16.2-1.8,24.1c-0.5,4-0.5,8.3-0.9,12.2c-0.4,4-0.7,8.1-0.9,12.1c-0.5,7.9-1.4,16.2-1.8,24.1
			C38.8,134.1,37,153.5,37.3,155z"/>
		<path d="M126.1,116.4c3.2-0.7,17.8-5.2,19.3-5l0.4,5.2l-0.2,0.2c0,0-0.2,0-0.2,0.2c-1.4,0.7-19.6,4.9-19.8,4.9L126.1,116.4z
			 M127,108.2c1.8-0.7,17.3-5.2,18.4-5.2c0.2,6.3,0.9,5.6-2.2,6.3c-4.7,1.1-13,3.6-16.6,4.1L127,108.2z M127.7,99.7
			c0.9-0.5,16.4-5.2,16.9-5.2l0.2,5.6l-17.6,4.7L127.7,99.7z M128.4,91.4c0.5-0.4,15.1-4.9,16-4.9l0.2,5.2l-16.6,4.7L128.4,91.4z
			 M129.1,83c0.7-0.5,13.7-5.2,14.6-5.2l0.2,5.9L129,88.2L129.1,83z M127.7,79c-0.7,11.7-2,23.4-2.9,35.1c-0.2,2.9-0.2,2.9,0.4,5.6
			c0.2,1.3,0.7,4.3,1.1,5.2c2.7-0.2,17.5-4.7,19.6-4.5l0.2,6.1l-18.5,4c-0.2,1.1,0.2,2.9,0.5,3.8c1.8,0,7-1.3,9.2-1.8
			c1.6-0.2,7.9-1.8,9-1.6l0.5,6.7l-17.3,2.3c-0.2,0.9,2.5,14.4,2.9,14.8c0.4,0.4,7.4,0.2,8.6,0.2c2.7,0,5.8,0.2,8.6,0l-4.3-83
			c-1.4,0.4-7.2,2.7-9,3.4C134.2,76.5,129.3,77.9,127.7,79z"/>
		<path d="M26.4,153.5v1.4h9l7.2-97.6l-8.1,12.8c-1.6,2.7-1.3,2-1.6,5.6c-1.3,17.3-3.1,34.9-4.3,52
			C28.3,130.7,26.7,152.6,26.4,153.5z"/>
		<path d="M157.9,155v-1.1c-0.5-1.1-4.7-56.9-5.2-63.4c-0.5-5.2,0.2-5.6-2-9.4c-0.5-1.1-3.4-7-4.1-7.6l5.2,81.4H157.9z"/>
	</g>
</g>
</svg>
