<?xml version="1.0" encoding="utf-8"?>
<!-- Generator: Adobe Illustrator 23.0.3, SVG Export Plug-In . SVG Version: 6.00 Build 0)  -->
<svg version="1.1" id="Layer_1" xmlns="http://www.w3.org/2000/svg" xmlns:xlink="http://www.w3.org/1999/xlink" x="0px" y="0px"
	 viewBox="0 0 184.3 184.3" style="enable-background:new 0 0 184.3 184.3;" xml:space="preserve">
<style type="text/css">
	.st0{fill:#FFFFFF;}
</style>
<g id="Layer_x0020_1">
	<g id="_2748612968496">
		<path class="st0" d="M68.4,88.2c0,2.5,0,4.9,0,7.4c0,3.1,0.5,4.3,0.5,6.8l-7.7-6.1L68.4,88.2z M42.3,81.7
			c-1.3-0.9-1.8-1.1-1.8-2.7c0-2.3,1.3-6.7,2.2-7.9c2.2-2.9,4.3-1.8,7.9-1.8c-0.2,1.8-2.5,4.9-3.6,6.5C45.9,77.2,43.6,81,42.3,81.7z
			 M31.9,73.4c-1.1-0.7-2.5-2-3.6-2.3c-0.4,1.6-2.3,3.6-3.2,5c3.2,2.2,6.1,4.9,9.2,7.4c3.2,2.3,5.9,4.9,9.2,7.2l51.7,39.6
			c1.8,1.3,3.1,2.5,5,3.6l-7.7,16c-1.6,3.6-0.4,2.7,7.4,2.7h59.6c-0.2-2.9-16.2-27-18.4-30.2l-4-5.6c-6.5-8.3-12.4-16.6-18.4-0.4
			c-2,5.4-0.9,5.2-6.1,10.4c-3.1,3.2-3.1,2.2-7.7,3.2l-16.7-13c-3.4-2.7-4.9-3.8-6.7-8.1c-5.2-13.5-2.9-14.2,0-28.1
			c2.5-12.1,0.4-9.5-15.1-21.4c-6.8-5.2-11.9-3.2-22.1-1.8C34.4,59.2,35.7,57.2,31.9,73.4z"/>
		<path class="st0" d="M32.8,109.2c0,9.4,3.1,4.5,0,19.8l-4.5,20.2c-2.2,8.8-1.1,7.2,17.8,7.2c6.1,0,4.9-6.5-0.9-7.4
			c-2.9-0.4-2.2-0.2-4-1.4c0-2.3,1.3-5.8,1.8-7.7c1.8-6.5,5.9-18.7,5.9-24.3c1.3,0.9,4,5.2,4.7,6.8c2.9,6.5-1.4,21.1-1.4,31.1
			c0,1.8,1.8,2.7,3.6,2.7c5.2,0,17.5,1.3,17.5-2.3c0-6.3-8.6-4-8.6-6.8l1.8-11.3c3.1-14.9,4-11.7-2.3-24.3c-3.2-6.5-2.5-4.3-7.7-8.5
			L42.9,92.7c-1.4-1.1-3.2-2.9-4.9-3.2C35.9,93,32.8,103.8,32.8,109.2z"/>
		<path class="st0" d="M65.4,39.6c0,0.9,18.2,6.7,20.2,7.2c2.5,0.9,4.7,2.2,7.2,1.4c0-3.6-1.3-3.2-1.4-7.4
			c-0.4-12.2-14.2-17.3-22-9.5C67.9,32.9,65.4,36.9,65.4,39.6z"/>
		<path class="st0" d="M66.1,45.5c0,2,0.7,3.8,1.3,5.8c0.7,2.9,0.4,3.2-0.4,5.8c3.6,1.8,6.7,4.5,10.1,6.5c0.7-1.1,0.5-0.5,0.9-1.8
			c2.5,0,4.1,1.3,5.9,0.5c1.8-1.1,0.2-2,2.9-5.2c1.6-2,2.2,0.2,1.1-4.9c-0.4-2-0.2-0.5,0-2.7c-4.9-1.1-17.8-6.7-21.1-6.8
			C67,42.8,66.1,45,66.1,45.5z"/>
	</g>
</g>
</svg>
