<?xml version="1.0" encoding="utf-8"?>
<!-- Generator: Adobe Illustrator 23.0.3, SVG Export Plug-In . SVG Version: 6.00 Build 0)  -->
<svg version="1.1" id="Layer_1" xmlns="http://www.w3.org/2000/svg" xmlns:xlink="http://www.w3.org/1999/xlink" x="0px" y="0px"
	 viewBox="0 0 184.3 184.3" style="enable-background:new 0 0 184.3 184.3;" xml:space="preserve">
<style type="text/css">
	.st0{fill:#FFFFFF;}
</style>
<g id="Layer_x0020_1">
	<g id="_2748603138320">
		<path class="st0" d="M81.3,74.8V48.3c5.4,0,10.8,2.3,14.6,5.9c8.5,7.7,7.2,16.2,7.2,27H87.8C83.5,81.3,81.3,78.9,81.3,74.8z
			 M51.2,47.8v19.8H14.9c-2.2,0-4.7,2.5-4.7,4.9v28.6c0,2.2,2.5,4.9,4.7,4.9h91.6c2.5,0,2-4.1,2-5.6c10.4,0,8.5,1.4,13.9,12.8
			c0.5,0.9,0.7,1.4,1.1,2.3c1.4,3.1,3.1,5.4,6.5,6.8c2,0.9,9.2,2.7,11.9,2.7c1.1,0,2.5-0.9,3.1-1.4c2.7-2.5,2.5-7-0.7-8.8
			c-1.4-0.9-5-1.6-7-2.2c-3.4-0.9-2.5,0.2-4.7-4.5c-1.1-2.2-1.8-4-2.7-6.1c-0.7-1.6-2.2-5-3.1-6.1c-5.6-7-10.8-6.5-18.2-6.5V68.8
			c0-7.2-4.1-14.2-7.7-17.8c-4.1-4-11.2-8.1-17.5-8.1H55.9C53.8,42.9,51.2,45.6,51.2,47.8z"/>
		<path class="st0" d="M101.6,135.8H38.5c-4.9,0-9.2-2.5-10.8-6.3c-3.8-8.6,3.2-15.5,10.1-15.5h64.6c4.9,0,8.8,2.5,10.6,6.5
			C116,126.8,112.1,135.8,101.6,135.8z M21.2,123.6v2.7c0,7.4,7.7,15.1,14.9,15.1h68.4c7.4,0,14.9-7.7,14.9-15.1v-2.7
			c0-7.4-7.7-15.1-14.9-15.1H36.1C28.7,108.4,21.2,116.2,21.2,123.6z"/>
		<path class="st0" d="M133.1,103c0,1.3,1.8,4.5,2.3,5.6c0.9,1.6,2,1.6,5.6,2.5c4.1,1.1,8.3,2.7,8.3,8.3c0,6.5-6.7,10.1-12.6,7.2
			c1.6,7,8.1,10.4,14.6,11.3l16.9,2.5c2,0.4,3.6,0.7,5.8,0.7l-4.7-3.2c-2.5-1.8-3.2-1.6-4.3-4c-1.6-3.6-3.2-7.4-4.5-11.5
			c-2.3-7.2-3.8-11.5-4.7-19.3l-0.5-9c0-0.9,0.2-1.6,0.2-2.5c0-5.8,1.8-10.6,2-13.3l-15.7,9c-2.2,1.6-4.5,4.1-5.9,6.3
			C134.9,95.7,133.1,100,133.1,103z"/>
		<path class="st0" d="M51.2,124.3c0,11.9,16.4,11.9,16.4,0c0-4.3-3.6-7.6-8.8-7.6C54.8,116.7,51.2,120.5,51.2,124.3z"/>
		<path class="st0" d="M94.8,124.3c0,11.9,16.4,11.9,16.4,0c0-4.1-3.6-7.6-8.8-7.6C98.6,116.7,94.8,120.3,94.8,124.3z"/>
		<path class="st0" d="M73,124.3c0,11.9,16.4,12.1,16.4,0c0-4.1-3.6-7.6-8.8-7.6C76.8,116.7,73,120.5,73,124.3z"/>
		<path class="st0" d="M29.3,124.3c0,11.9,16.4,11.9,16.4,0c0-4.1-3.6-7.6-8.8-7.6C33.1,116.7,29.3,120.5,29.3,124.3z"/>
	</g>
</g>
</svg>
