<?xml version="1.0" encoding="utf-8"?>
<!-- Generator: Adobe Illustrator 23.0.3, SVG Export Plug-In . SVG Version: 6.00 Build 0)  -->
<svg version="1.1" id="Layer_1" xmlns="http://www.w3.org/2000/svg" xmlns:xlink="http://www.w3.org/1999/xlink" x="0px" y="0px"
	 viewBox="0 0 184.3 184.3" style="enable-background:new 0 0 184.3 184.3;" xml:space="preserve">
<style type="text/css">
	.st0{fill:#010101;}
</style>
<g id="Layer_x0020_1">
	<g id="_2747160455392">
		<path d="M114.4,52.8c-0.5-0.2-1.4-0.5-2.2-0.7c-7.4-2-13.1,4.3-9.5,9c4.3,5.6,14.4,4,15.3-2c0.5-3.4,0.5-7.7,0.9-11.3
			c0.2-3.8,0.5-7.6,0.9-11.2c0.2-1.6,1.6-21.6,1.6-22.7l-36.7,8.3l-2.5,36.7c-2.9-1.1-5.8-1.8-9-0.4c-2.2,0.9-4.7,3.2-3.8,6.7
			c1.3,5,9.7,7.2,14.2,3.4c2.5-2.2,2.2-4.3,2.5-8.5L88.3,30l28.4-6.3L114.4,52.8z"/>
		<path d="M52.1,40.6c-1.3-1.3-1.6-2-3.6-2.9c-6.1-3.1-12.2,0.2-10.8,5.9c0.7,3.1,3.6,5.4,6.5,6.5c2.5,0.7,5.8,0.7,7.7-0.9
			c1.6-1.6,4.7-7.9,5.9-10.3c1.6-2.9,3.1-5.8,4.5-8.5c1.4-2.9,3.1-5.6,4.5-8.3c1.6-2.9,3.1-5.8,4.7-8.5c2.3,1.8,3.6,4,4.7,8.1
			c0.4,1.6,0.9,4,0.4,5.6c-0.7,1.8-2.5,2.3-3.1,3.2c2.5-0.5,4.3-2,5.2-4.3c1.3-4-1.1-11.3-3.1-14.9c-0.7-1.3-1.1-1.8-2.2-2.5
			c-0.9-0.4-2.3-1.4-3.2-1.6l-13.5,25c-0.7,1.4-1.4,2.7-2.2,4.1L52.1,40.6C52.1,40.4,52.1,40.6,52.1,40.6z"/>
		<path d="M124.6,11.2l8.3,9.9c1.4,1.6,2.7,3.2,4.1,5c0.9,1.3,3.6,4.1,4.1,5.2c-2.2,0.4-4,2.3-4.7,4.3c-2,5.2,4.7,8.1,9,2.7
			c1.6-2,1.8-4.3,0-6.5l-16.2-19.4c-0.2-0.4,0,0-0.2-0.4c2.7-1.8,8.3-0.9,9.7,0.2c0.9,0.9,0.7,2,1.4,2.7c0.4-4.1-2.3-5.4-6.1-5.9
			c-1.8-0.2-4-0.5-5.8-0.2c-1.4,0.2-2,0.9-2.9,1.6L124.6,11.2z"/>
	</g>
	<g id="_2747160453344">
		<path class="st0" d="M68.3,140.8h54v31.5h-54V140.8z M63.6,154.2h-8.8v-36H136v36h-8.8v-18H63.6V154.2z M68.3,91.2h36v17.6
			c0,0.5,0.2,0.5,0.7,0.5h17.5v4.3h-54L68.3,91.2L68.3,91.2z M108.8,93.3l11.5,11.3h-11.5V93.3z M63.6,113.5h-8.5c-2.7,0-5,2-5,4.7
			v35.6c0,1.3,0.5,2.5,1.1,3.4c0.5,0.7,1.8,1.6,3.1,1.6h9.4V177H127v-18.2h9.4c2.5,0,4.3-2.3,4.3-4.9v-35.6c0-2.7-2.3-4.7-5-4.7
			h-8.5v-8.5c0-0.5-0.7-0.9-1.1-1.4l-5.8-5.8c-0.5-0.5-0.7-0.9-1.1-1.3c-1.6-1.4-9.9-10.3-10.6-10.3h-45V113.5z"/>
		<path class="st0" d="M72.8,154.7v4H118c0-2.9,0.5-4.7-0.5-4.7H73.3C73,154.2,72.8,154.3,72.8,154.7z"/>
		<polygon class="st0" points="72.8,149.8 118,149.8 118,145.2 72.8,145.2 		"/>
		<polygon class="st0" points="72.8,167.8 118,167.8 118,163.2 72.8,163.2 		"/>
		<path class="st0" d="M122.5,124.8c0,3.6,4.7,2.9,4.7,0.2C127.2,121.9,122.5,121.9,122.5,124.8z"/>
		<path class="st0" d="M113.3,125c0,3.2,4.7,2.9,4.7,0.2C118,121.8,113.3,122.1,113.3,125z"/>
	</g>
</g>
</svg>
