<?xml version="1.0" encoding="utf-8"?>
<!-- Generator: Adobe Illustrator 23.0.3, SVG Export Plug-In . SVG Version: 6.00 Build 0)  -->
<svg version="1.1" id="Layer_1" xmlns="http://www.w3.org/2000/svg" xmlns:xlink="http://www.w3.org/1999/xlink" x="0px" y="0px"
	 viewBox="0 0 184.3 184.3" style="enable-background:new 0 0 184.3 184.3;" xml:space="preserve">
<style type="text/css">
	.st0{fill:#FFFFFF;}
</style>
<g id="Layer_x0020_1">
	<g id="_2748599365312">
		<path class="st0" d="M35.8,112.6l1.1,0.5c0.4,0.2,0.4,0.2,0.5,0.2c0.5,0.2,0.2,0.2,0.5,0.4c0.5,0.2,6.7,3.6,6.8,4
			c0.5,0.2,7,3.6,7.6,4.5c0.5,0,2.9,1.3,3.1,1.8c0.7,0.2,0.4,0,0.7,0.5c1.1,0.2,2.5,1.3,3.6,1.8c0.7,0.5,2.9,1.6,3.2,2
			c2.7,0.9,6.1,4.3,7,7c0.4,0.4,0.4,0.7,0.4,1.3c0.7,0.9,0.5,4.5-2.2,4.7c-0.4,0-0.9,0-1.3,0c-0.2,0-0.2,0-0.4-0.2
			c-0.4-0.2-0.2-0.2-0.4-0.2c-0.5,0-8.6-4.5-10.1-5.6l-0.2-0.2c-1.1-0.4-2.9-1.6-4-2.2c-0.7-0.4-3.2-1.8-3.8-2.3
			c-0.5-0.2-6.5-3.6-6.8-4c-1.1-0.4-3.6-2-4.7-2.5c-1.4-0.9-3.1-1.8-4.1-2.9c-1.6-1.4-5.2-5.4-5.9-8.1c-0.5-0.5-2.5-5.6-2.3-6.8
			v-0.2l-0.2-1.1c-0.2-0.9-0.4-3.4,0.2-4c0-0.7,0.2-1.6,0.5-2c0.2-0.7,0.4-1.3,0.9-1.8c0.4-0.5,0.5-0.9,1.3-1.3
			c0.2-0.2-0.2,0,0.2-0.4c0,0,0.2-0.2,0.4-0.2c0.5-0.4,0.5-0.2,0.9-0.2c0.7-0.7,2.3-0.5,3.2-0.5c0.5,0,1.1,0.2,1.4,0.4l1.3,0.5
			c0.9,0,2.7,1.3,3.6,1.8c0.9,0.5,2.9,1.4,3.2,2c0.9,0.2,1.4,0.7,2.2,1.3c0.5,0.4,1.4,0.7,1.8,1.3l-9.4,5.4L35.8,112.6L35.8,112.6z
			 M159.7,88.3c0,0.7-0.4,1.3-0.7,1.8c-0.2,0.4-0.4,0.5-0.5,0.9c-0.5,0.5-0.2,0.4-0.7,0.5c-0.2,0.4,0,0.2-0.4,0.4
			c-0.4,0.4,0,0-0.4,0.2c-0.2,0.5-2.3,1.8-3.1,2l-7.6,4.5c-0.2,0.4-2.7,1.6-3.4,2c-0.7,0.4-2.9,1.8-3.4,1.8l-0.7,0.5
			c-0.2,0.2-0.4,0.2-0.7,0.4c-0.5,0.4-0.9,0.5-1.4,0.7c-1.8,1.1-7.4,4.3-8.5,4.7l-0.7,0.5c-1.3,0.7-5.4,3.2-5.9,3.2l-1.4,1.1
			c-2,1.1-9,5.2-9.9,5.6c-0.5,0.7-2.3,1.4-3.2,2c-0.7,0.4-2.9,1.8-3.6,1.8c-0.4,0.5-1.1,0.9-1.8,1.3l-5.8,3.2l-1.3,0.9
			c-0.4,0.2-0.9,0.5-1.4,0.7c-0.9,0.5-1.6,1.1-2.5,1.6c-0.9,0.5-4.7,2.9-5.2,2.9c-0.5,0.5-2.7,1.8-3.8,2.3c-1.1,0.5-2.7,1.8-3.8,2.2
			l-2.5,1.4l-0.9-4l-0.4-0.5c-1.8-3.6-1.1-2.9-4.1-6.8c-1.6-2-3.6-3.2-5.8-4.5l-0.9-0.7c-0.5-0.2-10.3-5.8-10.6-6.1
			c-1.3-0.4-2.7-1.6-4-2.2c-0.9-0.5-3.2-1.6-3.6-2.3c-0.5-0.2-1.8-0.9-2.5-1.3l-0.7-0.5c-0.5-0.2-0.2,0-0.5-0.2
			c-0.5-0.4-0.2-0.2-0.4-0.5l4.7-2.5c0.4-0.5,2.9-1.8,3.6-2.2c0.9-0.5,0.9-0.7,1.8-0.2l8.8,5.2l5.9,3.2c0.7,0.5,1.4,0.7,1.8,1.3
			c0.7,0,2.5,1.3,3.2,1.8c0.5,0.4,1.1,0.5,1.6,0.9c1.1,0.7,0.5,0.4,1.6,0.2c0.4-0.5,0.2-0.4,0.7-0.5c0.2-0.2,0.5-0.2,0.7-0.4
			l4.1-2.3c1.6-0.9,4.3-2.7,5.8-3.2c0.2-0.5,2.7-1.6,3.4-2c0.7-0.5,2.7-1.8,3.4-1.8c0.5-0.7,7-4.3,7.6-4.5c0.4-0.5,4.1-2.5,5-3.1
			c0.9-0.5,1.8-1.1,2.5-1.6c0.7-0.5,1.8-1.3,2.5-1.3c0.5-0.7,3.1-1.8,3.8-2.3c1.3-0.7,2.9-1.8,4.1-2.2c0.2-0.4,6.3-3.8,6.8-4
			c0.2-0.4-0.2-0.2,0.4-0.4c0.5-0.4,2.3-1.6,3.1-1.6c0.4-0.5,0.4-0.4,0.9-0.7c0.4-0.2,0.5-0.4,0.9-0.5c1.3-0.7,4.9-2.9,5.8-3.2
			l0.4-0.4c0.2,0,0.4-0.2,0.5-0.2c1.1-0.7,5.4-3.2,5.9-3.2l0.9-0.7c0.4-0.2,0.5-0.4,0.9-0.5c2.9-1.6,4.5-3.2,5.9-1.3
			c0.5,0,2.7,1.3,3.1,1.6c0.5,0.2,0.4,0.2,0.7,0.5c0.5,0,0.5,0.2,1.1,0.5c1.8,1.3,4.5,4,4.5,5.9c0.4,0.4,0.4,0.5,0.5,1.1l0.2,2.3
			c0,0.2,0,0.5-0.2,0.5C159.7,88.1,159.8,88.1,159.7,88.3z M154.1,65.6c-0.5,0.7-4.5,2.9-5.6,3.4c-1.4,0.9-4.3,2.7-5.8,3.2
			c-0.2,0.4-6.3,3.8-6.8,3.8c-0.5,0.7-7.4,4.3-7.7,4.5l-7.7,4.7c-0.9,0.5-1.8,1.3-2.7,1.4c-0.5,0.7-2.9,1.8-3.8,2.3
			c-1.1,0.5-2.9,1.8-4,2.2c-0.4,0.5-2.5,1.6-3.2,2c-0.5,0.4-1.1,0.7-1.6,1.1c-0.4,0.2-0.5,0.4-0.9,0.5c-0.5,0.4-0.4,0.2-0.9,0.4
			c-0.4,0.4-0.2,0.4-0.7,0.5c-0.5,0.4-2.5,1.6-3.1,1.6L98.6,98c-0.4,0.2-0.7,0.4-0.9,0.5c-1.4,0.9-4.5,2.7-5.6,3.2
			c-0.2,0.4-1.3,0.7-1.6,1.1c-0.5,0.4-1.1,0.5-1.6,1.1c-0.7,0.4-2.9,1.8-3.4,1.8c-0.5,0.7-4.9,2.9-5.6,3.4c-1.6,0.9-4.1,2.7-5.6,3.2
			c-0.9,1.3-2.5-0.4-3.6-0.9l-2.9-1.6c-0.2-0.2-0.4-0.2-0.4-0.4c-0.4-0.2-0.2-0.2-0.2-0.2c-0.9-0.4-4.5-2.5-5.9-3.2
			c-0.4-0.2-0.5-0.4-0.9-0.5l-0.9-0.7c-0.7,0-4.3-2.3-5.2-2.9c-0.9-0.5-4.7-2.5-5-2.9c-1.3-0.5-2.9-1.6-4.1-2.2
			c-0.9-0.5-3.2-1.6-3.8-2.3c-0.7,0-1.1-0.5-2-0.9c-2-1.1-3.2-2-5.4-2.9c0.5-0.7,7-4.3,7.4-4.3l7.7-4.5l0,0c0,0,0,0,0.2,0
			c0.9-0.7,6.3-3.8,6.7-3.8l0.2-0.2c1.3-1.1,10.8-6.3,11.2-6.5c0.4-0.4,4.9-2.9,5.9-3.6c0.5-0.4,0.4-0.2,0.9-0.4
			c0.4-0.5,1.3-0.9,1.8-1.3c0.5-0.4,1.3-0.7,1.8-1.1c1.1-0.7,2.7-1.8,4-2.2c0.4-0.4,9.9-5.9,10.6-5.9l7.6-4.3
			c0.4-0.5,2.7-1.6,3.4-2.2c0.9-0.5,2.7-1.8,3.6-1.8c0.2-0.4-0.2-0.2,0.5-0.4c0.4-0.5,2.2-1.4,2.9-1.6c0.5-0.7,2.5-1.8,3.6-2.2
			c1.3-0.7,2.7-1.1,4.3-1.3c0.9-0.2,2.5-0.2,3.2,0.2c2.3,0.4,4.3,1.6,6.1,2.5c1.1,0.5,4.7,2.3,5.2,3.2c1.1,0.2,2.5,1.3,3.6,1.8
			c0.9,0.5,2.9,1.4,3.2,2c0.9,0.4,5.2,2.9,6.7,3.8l0.7,0.5c0,0,0.2,0,0.2,0.2c0.5,0,2.5,1.3,2.9,1.6c0.4,0.2,0.4,0,0.5,0.2
			c0.4,0.2,0.2,0.2,0.4,0.4c0.7,0.2,2.9,1.6,3.8,2.2l3.6,2.2c-0.5,0.5-1.3,0.9-1.8,1.3C155.2,65.2,154.8,65.6,154.1,65.6z
			 M113.9,38.4l-4,2.3l-0.5,0.4c-1.8,1.1-9.4,5.6-10.1,5.6c-0.2,0.2,0,0.2-0.4,0.4c0,0,0,0-0.2,0l-3.2,2c-1.1,0.5-2.7,1.8-3.8,2.2
			c-0.4,0.5-2.7,1.6-3.4,2.2c-0.9,0.5-2.7,1.8-3.4,1.8l-1.4,1.1c-0.5,0.4-0.9,0.5-1.4,0.7c-0.9,0.5-1.8,1.1-2.7,1.6
			c-1.6,0.9-4.1,2.7-5.6,3.2c-0.2,0.4-6.3,3.8-6.8,4c-0.4,0.4-0.2,0.2-0.5,0.5L61.6,69c-1.4,0.9-4.3,2.7-5.6,3.2c0,0,0,0,0,0.2
			L55.3,73c-0.4,0.2-0.5,0.4-0.9,0.5c-1.1,0.5-4.7,2.7-5.2,2.9c-0.2,0.2,0,0.2-0.4,0.4c-0.9,0.7-7.2,4.1-7.6,4.3
			c-0.2,0.4-4.3,2.7-5,3.1c-0.9,0.5-1.8,1.1-2.7,1.6C32.6,86.3,31.7,87,31,87c-0.4,0.5-3.1,2-3.8,2.3c-0.9,0.5-3.1,2-3.8,2.2
			c-0.2,0.2,0,0-0.2,0.2c-0.2,0.2-0.2,0.2-0.4,0.2c-0.5,1.1-1.3,1.4-2,3.6c-2,5.6-0.4,9.9,0.7,14.6c0.2,0.2,0.5,1.1,0.5,1.4
			c0.2,0.7,0.5,1.1,0.5,1.6c0.7,0.5,1.3,2.3,1.8,3.2c2.3,4.1,5.8,7.7,5.9,8.3l0.2,0.2c0.9,0.5,1.6,1.4,2.5,2.2
			c2,1.6,4.9,3.1,7.4,4.5c0.4,0.2,0.5,0.2,0.9,0.5l0.7,0.5c0.7,0,2.7,1.4,3.4,1.8l3.2,2c0.4,0.2,7.2,3.8,7.7,4.5
			c0.5,0,2.5,1.3,3.1,1.6c0.7,0.2,0.2,0,0.4,0.4c0.7,0.2,2.7,1.4,3.4,1.8c0.5,0.4,3.2,1.6,3.4,1.8c1.4,0.4,2.2,0.7,4,0.5
			c2.5-0.5,5.6-3.2,6.8-3.4c0.5-0.7,7.2-4.3,7.6-4.5c0.2-0.4,4.3-2.5,5-3.1c0.9-0.5,4.5-2.7,5.2-2.9l1.1-0.7
			c0.4-0.2,0.5-0.4,0.9-0.5c1.4-0.9,4.9-2.9,5.9-3.2c0.2-0.4,2.7-1.6,3.2-2c0.7-0.4,2.7-1.8,3.4-1.8l5.6-3.4
			c1.3-0.9,4.5-2.9,5.8-3.2c0.2-0.4,6.1-3.8,6.8-4c0.4-0.5,1.3-0.9,1.8-1.3c1.3-0.7,4.9-2.9,5.8-3.2l2.5-1.6
			c1.4-0.9,7.4-4.3,7.9-4.5c0.2-0.2,0-0.2,0.4-0.4l7.4-4.1c0.4-0.5,5.2-3.1,6.1-3.6c2.3-1.4,4-2,4.5-5.2c0.4-4.5-1.1-6.3-2.2-9.7
			c-0.2-0.2-1.6-2.3-1.8-2.7c-3.6-4.7-6.7-5.4-7.4-6.3c0.9-0.7,6.8-4.1,7.6-4.3c0.4-0.5,1.3-0.9,1.8-1.3v-5.2
			c-0.7-0.2-2.2-1.1-2.9-1.6l-2.7-1.8c-0.5,0-10.1-5.6-10.3-5.9c-1.3-0.5-2.9-1.6-4.1-2.2c-0.9-0.5-3.2-1.6-3.8-2.3
			c-0.5,0-1.3-0.5-1.8-0.9s-1.1-0.5-1.6-0.9c-0.5-0.4-2.9-1.6-3.2-2c-1.1-0.4-2.9-1.6-4-2.2c-0.5-0.4-3.2-1.6-3.6-2.2
			c-0.9,0-3.2-1.3-5.2-1.4c-1.1-0.2-2,0-2.9,0.2C115.4,37.9,114.5,38.4,113.9,38.4z"/>
		<path class="st0" d="M70.6,75.9C70.4,75.9,70.4,75.9,70.6,75.9C70.4,76,70.4,76,70.6,75.9l-0.4,0.4c-0.9,0.7-6.8,4-7.2,4l-3.6,2
			C58.7,82.7,56.5,84,56,84c-0.2,0.2,0,0-0.5,0.4l-0.4,0.2c-0.2,0.2-0.4,0.2-0.7,0.4c-0.5,0.4-0.9,0.5-1.4,0.9
			c-0.9,0.5-2,1.1-2.9,1.4c0.4,0.7,0.4,0.4,0.7,0.9c0.4,0,0.7,0.2,0.9,0.5c1.3,0.5,2.9,1.6,4.1,2.3c0.9,0.5,3.2,1.8,3.8,2.3
			c0.7,0.2,2.5,1.3,2.9,1.6c0.5,0.2,0.4,0.2,0.7,0.5c0.9,0.2,2.5,1.4,3.4,1.8c0.5,0.4,1.1,0.7,1.6,1.1c0.5,0.2,1.3,0.5,1.4,0.9
			c1.3,0.5,3.2,2.2,4.3,2.2c0.4-0.4,2.2-1.4,2.9-1.4c0.4-0.5,1.1-0.7,1.8-1.3c0.5-0.4,1.3-0.7,2-1.1c1.3-0.7,2.7-1.6,4-2.2
			c0.2-0.4,4.1-2.5,5-2.9c0.9-0.5,1.1-0.7,1.8-0.9c0.4-0.5,2.9-2,3.6-2c0.2-0.4-0.2,0,0.4-0.4c0,0,0.4-0.2,0.5-0.2
			c0.4-0.2,0.5-0.2,0.9-0.5c1.1-0.5,1.4-0.5,1.4-1.3c-0.7-0.2-2.5-1.4-3.2-1.8L92,83.8c-1.1-0.4-2.9-1.6-4-2.3
			c-0.7-0.4-1.3-0.7-1.8-1.3c-0.7-0.4-1.4-0.7-1.8-1.3c-0.7-0.2-7-4-8.5-5c-0.7-0.5-0.9-0.9-1.8-0.4C73.3,74.4,71.3,75.7,70.6,75.9z
			"/>
		<path class="st0" d="M146.3,83.6l-6.8,3.8c-0.2,0.2,0,0.2-0.4,0.4l-5.2,3.1c-1.4,0.9-4.5,2.7-5.8,3.2c-0.2,0.2-6.1,3.8-6.8,4
			c-0.4,0.5-1.1,0.7-1.8,1.3c-0.5,0.4-1.3,0.7-2,1.1c-1.1,0.7-2.9,1.8-4,2.2l-2.5,1.4c-1.4,0.9-7.4,4.5-8.1,4.5l-0.9,0.7
			c-1.6,0.9-5.8,3.4-6.7,3.8c-0.4,0.5-2.5,1.6-3.2,2c-1.1,0.5-2.5,1.8-3.6,1.8c-0.5,0.7-4.5,2.7-5.6,3.2c-1.6,0.9-4.1,2.5-5.8,3.2
			l-1.4,0.9c0.2,0.5,2.7,4.3,3.1,4.7l5.9-3.2c0.4-0.4,2.5-1.6,3.2-1.8c0.9-0.5,2.3-1.6,3.4-1.8c0.5-0.7,2.9-1.8,3.8-2.3
			c1.3-0.7,2.9-1.8,4.1-2.2c0.2-0.4,9.7-5.9,10.3-5.9c0.4-0.5,1.1-0.7,1.8-1.3c1.3-0.7,4.9-3.1,5.9-3.2l3.2-2
			c0.7-0.4,2.9-1.8,3.4-1.8l1.3-0.9c2.2-1.3,8.8-5.2,10.1-5.6c0.4-0.5,4-2.3,5-3.1c0.7-0.5,1.3-0.7,1.8-0.9c0.4-0.4,0.4-0.4,0.9-0.7
			c0.4-0.2,0.5-0.4,0.9-0.5c1.3-0.7,5-3.1,5.9-3.2c0.5-1.1,2.9-0.9,1.6-3.8c-0.4-0.2-0.4-0.2-0.9-0.5c-0.4-0.2-0.5-0.4-0.5-0.5
			c-0.7-0.4-1.3-0.9-2.2-0.7C147.6,82.7,146.9,83.2,146.3,83.6z"/>
		<path class="st0" d="M113.6,51.7c-0.2,0.4-10.1,5.8-10.4,5.9l-3.8,2.2c-0.9,0.5-2.9,1.6-3.8,2l-7,4c-0.4,0.4,0.2,0-0.4,0.4
			c-1.1,0.9-6.7,3.8-7,3.8c-0.2,0.4,0,0-0.2,0.4L79.9,71c0.7,1.1,3.4,1.8,4.5,2.9l0.7-0.2c0.2-0.2,9.7-5.6,10.3-5.8
			c0.2-0.2,0.2-0.2,0.4-0.4c0.5-0.4-0.5,0.4,0.2-0.2l1.4-0.7c1.4-0.9,4.9-2.9,5.8-3.2c0.4-0.4,6.1-3.6,6.8-3.8
			c0.2-0.4-0.2,0,0.4-0.4c1.4-1.1,10.6-5.9,11-5.9l1.3-0.7c-0.2-0.4-0.2-0.4-0.2-0.5c-0.5-0.2-0.5-0.2-0.9-0.5l-0.4-0.2
			c-0.2-0.2-0.2,0-0.4-0.4c-0.5,0-2.2-0.9-2.5-1.4C116.8,49.8,115,51.2,113.6,51.7z"/>
		<path class="st0" d="M120.8,58.8l-3.2,2c-0.7,0.5-2.7,1.6-3.4,1.8c-0.7,0.9-11.2,6.3-11.3,6.3c-0.4,0.4-6.1,3.6-6.7,3.8L95.8,73
			c0,0-0.4,0.2-0.5,0.2c-1.3,0.7-5.4,2.9-5.8,3.4l0.7,0.5c0.5,0.2,0.5,0.2,1.1,0.5l0.9,0.5c0.5,0.2,1.4,0.9,1.8,0.9
			c0.5,0.2,1.3-0.5,2-0.7c0.4-0.4,6.3-3.8,7-3.8c0.2-0.4-0.2,0,0.4-0.4l1.4-0.7c1.3-0.7,4.7-2.9,5.8-3.1l0.4-0.2
			c0,0,0.4-0.2,0.5-0.2c1.3-0.7,5.6-3.2,6.1-3.2c0.5-0.7,2-1.3,2.7-1.8c1.6-0.9,7.4-4.3,8.3-4.7l0.5-0.4c0.9-0.5,3.1-1.6,3.2-2.2
			c-0.9-0.4-2-1.1-2.9-1.6c-1.3-0.7-1.4-1.3-2.7-0.5C125.1,56.4,122,58.2,120.8,58.8z"/>
		<path class="st0" d="M135.7,61.3c-0.5,0.7-2.9,1.8-3.8,2.3c-1.1,0.5-2.9,1.8-4,2.2c-0.2,0.4-2.7,1.6-3.2,2
			c-0.9,0.5-2.5,1.6-3.4,1.8c-0.7,0.9-4.3,2.7-5.6,3.2c-1.6,0.9-4.1,2.5-5.8,3.1c-0.4,0.4-2.7,1.6-3.2,2c-0.9,0.5-2.5,1.6-3.4,1.8
			c-0.7,0.9-3.2,2-4.3,2.7c0.7,0.7,3.8,2.2,4.5,2.9c1.3-0.5,5.6-3.2,6.5-3.4c0.4-0.5,0.5-0.5,0.9-0.7c0.4-0.2,0.5-0.4,0.9-0.5
			l5.9-3.2c0.2-0.4,9.7-5.6,10.4-5.8c0.5-0.7,7.4-4.3,7.7-4.5l5.8-3.4l-0.9-0.7c-0.4-0.2-0.7-0.4-1.1-0.5c-0.5-0.4-0.4-0.2-0.7-0.5
			c-0.9-0.2-0.7-0.5-1.4-0.7C136.3,60.7,136.6,61.3,135.7,61.3z"/>
	</g>
</g>
</svg>
