<?xml version="1.0" encoding="utf-8"?>
<!-- Generator: Adobe Illustrator 23.0.3, SVG Export Plug-In . SVG Version: 6.00 Build 0)  -->
<svg version="1.1" id="Layer_1" xmlns="http://www.w3.org/2000/svg" xmlns:xlink="http://www.w3.org/1999/xlink" x="0px" y="0px"
	 viewBox="0 0 184.3 184.3" style="enable-background:new 0 0 184.3 184.3;" xml:space="preserve">
<style type="text/css">
	.st0{fill:#101010;}
	.st1{fill:#FDFDFD;}
	.st2{fill:#141414;}
	.st3{fill:#151515;}
	.st4{fill:#171717;}
</style>
<g id="Layer_x0020_1">
	<path class="st0" d="M147.2,121.2c3.1-1.1,14.8-0.5,18.5-0.4v5h-18.5V121.2z M77.7,120.7h30.2v5.2H78.1L77.7,120.7z M18.7,120.9
		l18.7-0.2v4.9l-18.5,0.2L18.7,120.9z M156.2,77.5l6.3,0.4l-0.2,40.9H156L156.2,77.5z M88.9,77.7h6.5l-0.2,41.2l-6.3-0.4V77.7z
		 M22.3,77.7l6.3,0.2l-0.2,41h-6.1V77.7z M97.1,91.4l57.1,0.4l-0.2,26.8c-7.7,1.3-0.5-3.1-9.5-14.2c-7.2-9-22.9-11.3-34.2-2
		c-4,3.2-6.8,8.6-7.7,16.4l-5.2-0.2l-0.2-24.1V91.4z M30.5,91.5l56.5-0.2l-0.4,27.5l-4.5-0.2c-1.8-9-2.2-10.6-7.4-15.8
		c-3.2-3.4-9.9-6.7-16.7-6.5c-3.4,0-7.2,0.9-9.9,2c-8.3,3.8-12.8,11.2-13.9,20.3h-3.8l-0.2-16.6L30.5,91.5z M153.5,90.1h-3.4
		c-1.1-0.9-1.3,2.3-0.9-5.4l5,0.2c0.2,0.7,0.4,2,0.4,2.7C154.4,90.3,154.9,89.6,153.5,90.1z M142.9,85.1l5.2-0.2v5.2l-5.4-0.2
		L142.9,85.1z M140.9,90.1h-4.3c-1.1-1.1-0.9-0.9-0.5-5.2l5.6,0.2C142,92.3,142,89.4,140.9,90.1z M134.8,90.3l-4.7-0.2
		c-0.5-0.9-0.5,0.2-0.7-2.3c0-0.9,0.2-1.8,0.2-2.9l5.6,0.2C135.3,86.9,135.7,88.7,134.8,90.3z M128.3,90.3l-4.5-0.2
		c-1.1-0.9-0.7,0.9-0.9-2.2c0-0.5,0.2-2,0.2-2.9l5.6-0.2C128.8,87,129,88.7,128.3,90.3z M116.8,85.1l5.2,0.2v5l-5.4,0.2L116.8,85.1z
		 M110.3,85.1l5,0.2l0.2,5.2l-5.2-0.2V85.1z M103.8,85.1h5v5.2l-5.2-0.2L103.8,85.1z M97.1,85.1l5.2-0.2v5.4L97,90.1L97.1,85.1z
		 M86.3,90.1h-3.6c-0.7-0.7-1.1,1.3-0.7-5.4l5,0.5C87.2,92.1,87.4,89.2,86.3,90.1z M75.7,85.1l5.2,0.2v4.9l-5.4-0.2L75.7,85.1z
		 M69.2,85.1l5.2,0.2v4.9l-5.4-0.2L69.2,85.1z M62.8,85.1l5,0.2l0.2,4.9l-5.6,0.2L62.8,85.1z M56.3,85.1h5.2v5l-5.4,0.2L56.3,85.1z
		 M49.6,85.1h5.2v5h-5.4L49.6,85.1z M43.1,85.1l5,0.2v5l-5-0.2V85.1z M36.7,85.1h5.2v5.2l-5.4-0.2L36.7,85.1z M30.7,85.1h4.7v5.2
		l-4.9-0.2L30.7,85.1z M30.7,79.7h56.2L86.7,84H30.5L30.7,79.7z M97.3,79.7l56.7,0.2c0.5,3.8,0.9,4.1-2.5,4.3l-54.2-0.4V79.7z
		 M159.2,75.7c-2.5-0.2-0.9-0.2-1.4-1.1c1.4-1.1-1.8-0.9,2-0.7c1.8,0.2,0.9,0.5,1.1,0.7C160.5,75.3,161.2,75.9,159.2,75.7z
		 M93.5,74.1l-0.2,1.6h-2.2c-0.7-0.7-0.9,1.4-0.7-1.6c0.9-0.4,0.2-0.5,1.6-0.5C94.3,73.7,93,73.9,93.5,74.1z M162.3,72.1l-8.3-0.4
		c0.7-1.3-1.8-1.3,2.2-1.6c0.5,0,2.3,0.2,3.1,0.2c8.1,0,4.1-0.2,5.6,0.9C163.9,72.3,165.4,71.9,162.3,72.1z M91.6,72.1
		c-6.3,0-4.1,0.2-5-0.9c0.7-0.5,0.2-0.9,3.2-1.1c9.9-0.2,7.4,0.2,7.7,1.6C95.9,72.3,93.5,71.9,91.6,72.1z M152.4,68.5
		c-0.7,1.8-0.5,2.7-0.2,4.9c2.5,0.9,2-0.5,3.8,1.3c-1.3,2.5-2,2.9-3.4,3.1H98.2c-1.6-1.1,0,0.2-1.3-1.3l-1.4-1.8
		c0.2-0.2,0.4-0.4,0.5-0.2l3.6-0.7v-5.2l-3.6,0.4c-1.1,1.4,1.3,0-1.3,0.9c-1.6-0.5-1.1,1.1-1.4-0.9h-2.2c-2,0.2-0.9,0-2.7,0
		l-3.6-0.5v5c1.3,0.4,1.4,0.2,2,0.4c0.2,0,0.4,0.2,0.5,0.2l1.1,0.5c0.2,0,0.4,0.2,0.5,0.2L88,76.1c-1.1,1.3-0.2,1.3-2.2,1.6H31.6
		c-1.3-0.7-2.7-2.3-3.2-3.8c-0.9-0.7-0.2-0.9-1.3,0l-0.9,1.8h-2l-0.7-1.8l-0.4-0.5l-1.4,0.5l0.5,1.6l-1.8,0.9
		c-1.1,3.1-0.2,35.3-0.4,41.9l-3.4,0.9c0.2,11.3-2.3,8.3,16.7,8.5c5,0.2,5.9,1.1,5.8-5.9c-0.2-4.1,0-2.2-2.7-3.6
		c0.4-11.3,10.3-20.3,22-20.2c10.4,0.2,22.3,9.4,21.2,20.5l-4,0.2c-0.2,2.9-0.5,6.1,0.4,8.8l32.9,0.2c0.9-2.9,0.5-6.1,0.4-9
		l-4.9-0.2c-0.4-16.9,22.9-29.2,38-13.3c1.8,2,2.9,3.8,4.1,6.7c3.1,7.7,0.4,6.3,0.4,6.5c-0.2,0.2-0.7,0.4-0.9,0.5
		c-1.4,1.1-0.2-0.9-1.1,0.9l0.2,7.6H167c0.4-0.9,0.2-0.2,0.5-1.6v-6.5c-1.8-1.4-1.1-0.4-3.1-1.3c-0.9-9.2,0.2-28.6-0.2-39.6
		c-0.2-4.7-0.2-1.3-1.8-4.1l3.8-1.3l0.4-5l-3.6,0.4c-2.2,1.1-1.3,1.4-1.8-0.5H158c-0.7-0.7-0.4,0.2-1.1-1.4
		c-0.2-0.2-0.4-1.3-0.5-1.4l-0.7,3.1L152.4,68.5z"/>
	<polygon class="st1" points="88.9,118.5 95.2,118.9 95.3,77.7 88.9,77.7 	"/>
	<path class="st2" d="M19.7,71.7c0.4-2.7,1.6-1.8,4.7-1.6c2.3,0,4.7-0.5,6.5,0.5c-0.4,2.9-1.6,1.8-4.7,1.8
		C23.9,72.1,21.5,72.8,19.7,71.7z M25.1,68.3c-2.7-0.2,0,0.4-1.3-0.9c0,0,1.3-2.9,2.9,0C26,68.1,28,68.5,25.1,68.3z M25.7,64
		c-3.8-0.5-5.4-5.6-0.5-5.6C29.8,58.2,28.4,62.7,25.7,64z M18.1,73.5l3.6,0.4l1.6-0.5l0.2,0.5h3.6c1.1-0.9,0.4-0.9,1.3,0
		c4.9-0.2,4.3,0.2,4.3-5l-3.8-0.5c0-3.2-0.7-2.7,0.2-4.7c1.1-2.3,1.3-2.2,1.1-5.4c-7.6-4-11.7-0.9-9,4.9c1.1,2.2,1.1,1.8,0.7,5
		l-3.6,0.5L18.1,73.5z"/>
	<path class="st3" d="M89.4,59.3c2.3-1.3,3.2-1.1,5.9-0.4c0.2,1.8-0.5,4.7-2.5,4.9C90.7,64.2,89,61.7,89.4,59.3z M88.3,68.9
		c1.8,0,0.7,0.2,2.7,0l-0.4-2.2l2.7-0.2v2.3c0.4,2-0.2,0.4,1.4,0.9c2.5-0.9,0.2,0.4,1.3-0.9c-1.8-6.7,1.4-4,1.3-9.7
		c-0.7-2-4.3-3.4-7.4-2.3c-3.6,1.3-2.7,4.1-1.6,6.8C89.2,65.3,89,66.2,88.3,68.9z"/>
	<path class="st4" d="M162.5,58.8c0.2,2.7-0.7,3.8-2.7,5.2c-2.5-0.9-3.4-2.3-3.2-5.2C158.3,57.9,160.9,58.4,162.5,58.8z M156.4,65.4
		c0.2,0.2,0.4,1.3,0.5,1.4c0.7,1.6,0.2,0.7,1.1,1.4l-0.2-1.6l2-0.5c1.6,1.1,0.9-0.4,1.3,2.2c0.5,1.8-0.4,1.6,1.8,0.5
		c-1.4-7,2.5-4.9,1.3-9.9c-2.2-3.4-7.6-3.6-9.7-0.2C153.8,62,155.5,62.6,156.4,65.4z"/>
</g>
</svg>
