<?xml version="1.0" encoding="utf-8"?>
<!-- Generator: Adobe Illustrator 23.0.3, SVG Export Plug-In . SVG Version: 6.00 Build 0)  -->
<svg version="1.1" id="Layer_1" xmlns="http://www.w3.org/2000/svg" xmlns:xlink="http://www.w3.org/1999/xlink" x="0px" y="0px"
	 viewBox="0 0 184.3 184.3" style="enable-background:new 0 0 184.3 184.3;" xml:space="preserve">
<style type="text/css">
	.st0{fill:#FFFFFF;}
</style>
<g id="Layer_x0020_1">
	<path class="st0" d="M64.1,159h57.4v9.5H64.1V159z M106.6,130.4v17.8H73.6l1.4-35.5c32.8-7.7,11-0.7,35.6-13.7
		c0.2,5.6,1.4,5.2,1.4,8.1C112,115.3,106.6,121.9,106.6,130.4z M81.9,33.4c0-8.6-1.1-17.8,12.2-17.8c2.9,0,5.9,2.7,7.4,5
		c3.1,5.2,2.3,15.5,2.3,22.3H97v12.2c7.2,0.2,14.2,2.7,21.8,2.7l-1.6,8.1c-5.2,0.2-3.1-0.4-6.7,1.4c0,5.2-0.9,8.1-1.8,13.1
		c-2.5,12.1-16.6,19.8-29.5,19.8c3.4-14.6,2.7-4.9,2.7-23.2H67c0-12.4-0.5-18.7,19.1-23.2c0-3.6,0.4-8.6-0.4-12.1
		C84.6,36.8,81.9,37,81.9,33.4z M70.9,23.8c0,25,1.3,9.9,4.1,22c-5.2,2.9-9.4,3.8-13.3,8.5C54.2,63.4,56,75.3,56,88.1h15.1
		c-0.5,5.6-1.3,4.7-3.1,9.2c-1.3,3.2-1.8,5.9-2.7,9.5c-3.1,13.7-2.3,26.8-2.3,41.4c-13.9,0-11-4.1-11,31.5h80.6v-31.5h-14.9
		c0-37.6,8.6-28.3,4-49.1c-5.4-23.8-1.3-5.4-1.3-22h8.3l1.4-28.8c-7,0-7.4-1.3-15.1-1.3c0-18.7,3.4-42.5-24.7-42.5
		C81.2,4.6,70.9,14.7,70.9,23.8z"/>
</g>
</svg>
