<?xml version="1.0" encoding="utf-8"?>
<!-- Generator: Adobe Illustrator 23.0.3, SVG Export Plug-In . SVG Version: 6.00 Build 0)  -->
<svg version="1.1" id="Layer_1" xmlns="http://www.w3.org/2000/svg" xmlns:xlink="http://www.w3.org/1999/xlink" x="0px" y="0px"
	 viewBox="0 0 184.3 184.3" style="enable-background:new 0 0 184.3 184.3;" xml:space="preserve">
<g id="Layer_x0020_1">
	<g id="_2748603187632">
		<path d="M60.7,110.1H45.6v58.9h11.3v-47.5h3.8l8.1,41.4c3.2,10.8,16.9,7.4,17.5-1.6l-5.4-27.5c-2.9-14.8-6.3-12.2,21.8-12.2
			c4.9,0,2.2,5.8,1.1,11.5c-0.9,4.9-1.8,9.5-2.9,14.2c-1.3,5.8-7.2,20.5,5,22.5c11.3,1.8,12.4-19.1,15.3-33.5
			c0.9-4.7,2.5-9.9,2.5-14.6h3.8v47.5h11.3v-58.9c-13.3,0-11.7,1.1-21.8-1.8c-4.3-1.3-18.9,4.7-24.8,4.7c-4,0-21.1-5.4-23.6-5.2
			C64.7,108.1,64.8,110.1,60.7,110.1z"/>
		<path d="M60.7,81.5c15.8,0,11.7,16.2,2.9,16.2h-2.9v6.7c5.2,0,10.6,2,15.8,3.1c21.8,4.5,9.2,4.5,31,0c5.2-1.1,10.6-3.1,15.8-3.1
			v-6.7c-15.8,0-11.7-16.2-2.9-16.2h2.9V51c-1.8,0.9-29.7,7.2-31.3,7.2S62.5,51.9,60.7,51V81.5z"/>
		<path d="M75.8,28.2c0,27.7,32.4,22.1,32.4,3.8C108.2,6.4,75.8,12.2,75.8,28.2z"/>
		<path d="M54.9,96.8c4.9,0,15.3,1.3,15.3-6.7c0-7.9-6.8-7.6-11.3-7.6V70.1c-2.7,2-7,10.1-9,13.9c-1.8,3.1-2.7,5.2-1.6,8.1
			C49.2,95,51.2,96.8,54.9,96.8z"/>
		<path d="M125.3,82.4c-17.6,0-12.1,14.2-3.8,14.2c5.2,0,20.7,1.4,12.8-12.8c-2-3.6-6.3-11.9-9-13.9V82.4z"/>
		<path d="M74.9,51v2c5.4,0.2,13.1,3.4,17.1,3.4c4,0,11.7-3.2,17.1-3.4v-2C103.2,49.6,80.1,49.1,74.9,51z"/>
	</g>
</g>
</svg>
