<?xml version="1.0" encoding="utf-8"?>
<!-- Generator: Adobe Illustrator 23.0.3, SVG Export Plug-In . SVG Version: 6.00 Build 0)  -->
<svg version="1.1" id="Layer_1" xmlns="http://www.w3.org/2000/svg" xmlns:xlink="http://www.w3.org/1999/xlink" x="0px" y="0px"
	 viewBox="0 0 184.3 184.3" style="enable-background:new 0 0 184.3 184.3;" xml:space="preserve">
<style type="text/css">
	.st0{fill:#FFFFFF;}
</style>
<g id="Layer_x0020_1">
	<g id="_2748717983968">
		<path class="st0" d="M39.5,147.6v-36.2h109.8v37.1c0,2.5-1.8,4.3-4.3,4.3H43.5C41.2,152.6,39.5,150.3,39.5,147.6z M133.1,87.8
			h16.2v13.7h-31l7.4-7C126.7,93.8,132.2,87.8,133.1,87.8z M70.3,101.5l7.9-7.6c1.4-1.1,3.8-3.8,5.9-5.6c0.9-0.9,1.8-0.5,3.4-0.5
			c10.3,0.2,20.7,0,31,0c-0.9,1.4-5.9,5.8-7.7,7.7l-4,3.6c-2.3,2.3-1.3,2.3-5.6,2.3C91,101.5,80.6,101.5,70.3,101.5z M55.6,101.5
			H39.4V87.8h31c-1.1,1.6-7.2,6.8-9,8.6C60.4,97.5,56.6,101.5,55.6,101.5z M37.7,77c-0.2-2.9-2.7-6.7-2.7-10.6
			c0-3.8,7.2-4.9,11.7-6.5c3.6-1.3,2.5-1.3,8.6,1.8c1.4,0.7,2.7,1.3,4.1,2c1.8,0.9,7.2,3.1,8.1,4.1C64.9,68,40.3,77,37.7,77z
			 M62.9,54.3c1.6-0.2,11-3.4,13.1-4.1c1.6-0.5,18.5-6.1,19.4-5.9l11.9,5.8c1.1,0.5,1.8,0.7,2.9,1.3l2.2,1.1
			c0.5,0.4,0.4,0.2,0.7,0.5l-19.6,6.3c-1.6,0.5-12.2,4.1-13.1,4c-0.4-0.2-2.3-1.3-2.9-1.4l-9.2-4.3C67.6,56.9,63.5,55.2,62.9,54.3z
			 M135.1,31.7c1.6,0,2.7,0.2,4,1.6c0.7,0.9,3.4,9.4,3.4,10.3c-0.9,0.4-14.6,4.9-15.1,4.9c-2.2,0-15.5-7.6-18.2-8.3
			c0.5-0.7,1.8-0.9,2.9-1.3l16.4-5.2C129.7,33.1,133.7,31.7,135.1,31.7z M25.1,66.6c0,2.3,0.7,4.1,1.3,5.8c0.5,2,1.1,3.6,1.8,5.6
			c2.3,6.8,2,4.5,2,12.4v57.4c0,4.7,1.6,7.9,4,10.3c2.2,2.2,5.9,4.3,10.3,4.3h99.7c8.6,0,14.9-6.3,14.9-14.9V78.5H65.6
			c1.1-0.9,4-1.4,5.4-2l83.5-27L149,32c-2-5.9-7.2-10.3-13.1-10.3c-2.7,0-5.6,0.9-7.7,1.6L84,37.6c-2.5,0.7-4.7,1.6-7.4,2.3
			l-29.3,9.4c-2.3,0.7-4.9,1.6-7.4,2.3C34,53.3,28.2,55.4,26,62.1C25.9,63.3,25.1,65.9,25.1,66.6z"/>
		<path class="st0" d="M86.9,139.7v-15.3l13.1,7.9L86.9,139.7z M80.6,121.7v20c0,3.1,1.6,5.6,4.9,5.6c2.5,0,9.9-5,12.4-6.5l9-5.2
			c2-1.8,2-4.7,0.5-6.7c-0.7-0.9-1.8-1.3-2.9-2c-2-1.3-16.7-10.3-18.4-10.3C82.9,116.8,80.6,118.2,80.6,121.7z"/>
	</g>
</g>
</svg>
