<?xml version="1.0" encoding="utf-8"?>
<!-- Generator: Adobe Illustrator 23.0.3, SVG Export Plug-In . SVG Version: 6.00 Build 0)  -->
<svg version="1.1" id="Layer_1" xmlns="http://www.w3.org/2000/svg" xmlns:xlink="http://www.w3.org/1999/xlink" x="0px" y="0px"
	 viewBox="0 0 184.3 184.3" style="enable-background:new 0 0 184.3 184.3;" xml:space="preserve">
<style type="text/css">
	.st0{fill:#FFFFFF;}
</style>
<g id="Layer_x0020_1">
	<g id="_2747160410848">
		<path class="st0" d="M99,87.9c0.5-0.9,4.5-4.3,5.4-5c0.5-0.4,0.9-0.9,1.4-1.3c0.5-0.4,0.7-0.9,1.6-0.9c1.6,0,3.2,0.4,4.7-0.2
			c5.9-1.8,7.4-9,3.4-13c-4.3-4.3-11.3-2.5-13,2.9c-0.4,1.1-0.4,3.8-0.9,4.5c-0.4,0.4-0.9,0.7-1.4,1.3l-4,3.6c-0.7,0.5-2,2-2.7,2.3
			l-4.3-4.7c-2.9-3.2-6.5-7-9.5-10.4c-0.9-1.1-1.8-1.8-2.7-2.9l-5.4-5.9c-1.8-2-3.6-4-5.4-5.9L55.4,40.4c-0.5-0.7-4.9-5.8-5.4-5.9
			c-1.6,1.8-5,7.4-6.3,9.7c-1.8,3.6-3.4,7.2-4.9,11.3c-5.8,17.6-3.6,36.7,4.9,52.7c2.2,4.3,6.7,10.6,10.1,14
			c0.7,0.7,3.4,3.4,3.8,4.1c-0.4,0.5-0.9,0.9-1.3,1.4c-1.1,1.3-2.9,3.6-3.8,5c-1.6,2.5-2.3,4.9-3.6,7.7c-9,1.6-15.8,4.7-21.1,11.5
			c-0.7,1.1-3.8,5.4-3.8,7c3.8,0.5,10.4,0.2,14.4,0.2s41.2,0.2,43.9-0.2c-0.2-1.3-2.9-5.6-3.4-6.5c-2.5-3.2-7-7.4-11-9.2
			c-2.7-1.3-6.7-2.2-7.4-2.5c-0.2-2,3.8-7.7,4.7-8.8c1.3,0.2,6.3,3.2,7.9,4.1c15.1,7.6,33.5,9,49.7,4.1c3.6-1.1,14-5.2,16.2-7.6
			c-0.4-0.7-4.1-4.7-4.9-5.6l-5-5.6C124.6,116.3,100.6,91,99,87.9z"/>
		<path class="st0" d="M116.6,33c0.7,0.5,3.6,0.5,4.9,0.5c1.6,0.2,3.2,0.5,4.7,0.9c14,3.8,23.9,14.8,25.2,29.7
			c0.5,5.8-0.2,5.2,5.8,4.3c3.4-0.5,3.8,0,2.7-7.4c-2.7-17.8-15.3-30.8-31-34.7c-2.7-0.7-6.7-1.4-9.5-1.4c-2,0-1.8,0.2-2.3,3.2
			C116.6,29.4,115.9,31.9,116.6,33z"/>
		<path class="st0" d="M111.2,53.9c1.1,0.7,2.7,0.5,4.1,0.9c1.3,0.2,2.7,0.5,3.8,1.1c5.9,2.3,10.1,7.6,11.2,13.9
			c0.2,1.4,0.2,3.2,0.9,4.3c1.1,0.2,7.7-0.4,8.3-0.9c1.1-0.9-0.4-7-0.7-8.3c-1.4-4.9-4.1-9-6.8-11.7c-2.7-2.7-6.7-5.4-11.7-6.8
			c-1.3-0.4-7-1.8-7.7-0.7C111.6,46.5,110.9,52.4,111.2,53.9z"/>
	</g>
</g>
</svg>
