<?xml version="1.0" encoding="utf-8"?>
<!-- Generator: Adobe Illustrator 23.0.3, SVG Export Plug-In . SVG Version: 6.00 Build 0)  -->
<svg version="1.1" id="Layer_1" xmlns="http://www.w3.org/2000/svg" xmlns:xlink="http://www.w3.org/1999/xlink" x="0px" y="0px"
	 viewBox="0 0 184.3 184.3" style="enable-background:new 0 0 184.3 184.3;" xml:space="preserve">
<style type="text/css">
	.st0{fill:#FFFFFF;}
</style>
<g id="Layer_x0020_1">
	<g id="_2748717923456">
		<path class="st0" d="M105,147.4c19.6-2.3,59.6-18.7,59.4-31.1c-0.2-16.7-22.3,2.5-22.3,2.5c-31.1,19.6-69.7,19.8-100.4-0.5
			c-4-2.7-10.6-9.9-16.2-8.8c-4,0.7-10.4,6.5,0.4,15.5C44.7,140.7,73.3,151.1,105,147.4z"/>
		<path class="st0" d="M144.6,93c-16.6-9.7-15.5,13-51.8,13.1c-37.3,0.2-36.2-23-53.1-13.1c-1.6,19.1,36,27.7,51.8,27.9
			C107.9,121.1,146.2,112.1,144.6,93z"/>
		<path class="st0" d="M124.1,71.6c-13.3-4-17.8,11.2-39.8,6.5c-7.6-1.6-12.6-6.7-16.9-7.4c-9.5-1.6-10.8,8.5-5.9,13.1
			c12.1,11.2,36.5,13,56.3,3.1C125.9,82.7,127.2,80.8,124.1,71.6z"/>
		<path class="st0" d="M96.7,66.2c19.8-6.1,10.1-35.8-9.7-29.2C69.4,43,76.6,72.3,96.7,66.2z"/>
	</g>
</g>
</svg>
