<?xml version="1.0" encoding="utf-8"?>
<!-- Generator: Adobe Illustrator 23.0.3, SVG Export Plug-In . SVG Version: 6.00 Build 0)  -->
<svg version="1.1" id="Layer_1" xmlns="http://www.w3.org/2000/svg" xmlns:xlink="http://www.w3.org/1999/xlink" x="0px" y="0px"
	 viewBox="0 0 184.3 184.3" style="enable-background:new 0 0 184.3 184.3;" xml:space="preserve">
<style type="text/css">
	.st0{fill:#FFFFFF;}
</style>
<g id="Layer_x0020_1">
	<g id="_2748603165744">
		<path class="st0" d="M51.4,154.8l81.7-0.2l-0.2,13.7l6.1,0.2H50.5l0.9-0.2V154.8z M67.2,95.4H116h0.9l2.3,52.7H64.7L67.2,95.4z
			 M88.6,88.9h-9c0.2-6.5,1.1-55.4,2.9-59c0.4-0.7,8.1-10.8,9.9-11.7c1.8,3.8,7.9,9.7,8.8,11.7c1.8,3.8,2.5,52.7,2.9,59.2h-9
			c0-7,0-14.2,0-21.4c0-4.5,2.2-18.5-3.1-19.1c-5.9-0.5-3.6,13.9-3.6,18.4C88.6,74.1,88.6,81.5,88.6,88.9z M46.9,175.1h90.4
			c3.1-2.7,2-7,2-12.6c0-12.1,1.6-14.6-6.3-14.6c-2.5,0-4.7,0.2-7.2-0.2l-2-45c-0.9-15.7,2-13.5-12.8-14.2
			c-0.5-15.7-1.3-31.5-1.8-47.2c-0.2-3.6,0-7.7-0.4-11.2C108.4,25.4,96.5,12.6,93.3,9h-2.5c-4.1,4.7-6.8,8.5-10.8,13.3
			c-6.3,7.7-4.3,5.8-4.9,19.1c-0.7,15.7-1.4,31.5-1.8,47.2c-15.1,0.2-12.1-4.1-13.5,29.5c-0.5,9.7-1.3,19.8-1.3,29.5
			c-5.4,0.5-9-0.7-13.1,1.3l-0.4,20C44.9,173,45.1,173.5,46.9,175.1z"/>
		<path class="st0" d="M91.7,132.8c-11.5,0-17.3-1.8-15.1,5.8c4.1,1.3,26.8,1.3,30.8,0C109.7,131,103.7,132.8,91.7,132.8z"/>
		<path class="st0" d="M76.7,118.8c-2.9,8.3,9,5.8,15.7,5.8c6.7,0,17.6,2.3,14.9-5.8C103.7,117.7,80.2,117.7,76.7,118.8z"/>
		<path class="st0" d="M81.4,110h21.2c4.7,0,6.1-1.8,4.7-5.8l-4.7-0.9l-21.6,0.2C73.3,103.5,74.4,110,81.4,110z"/>
		<path class="st0" d="M88.6,35.1v3.8c0,7,6.7,7,6.7,0v-3.8C95.3,28.4,88.6,28.4,88.6,35.1z"/>
	</g>
</g>
</svg>
