<?xml version="1.0" encoding="utf-8"?>
<!-- Generator: Adobe Illustrator 23.0.3, SVG Export Plug-In . SVG Version: 6.00 Build 0)  -->
<svg version="1.1" id="Layer_1" xmlns="http://www.w3.org/2000/svg" xmlns:xlink="http://www.w3.org/1999/xlink" x="0px" y="0px"
	 viewBox="0 0 184.3 184.3" style="enable-background:new 0 0 184.3 184.3;" xml:space="preserve">
<style type="text/css">
	.st0{fill:#FFFFFF;}
</style>
<g id="Layer_x0020_1">
	<path class="st0" d="M96.2,122l0.2-0.9H113l0.2,16.2c-0.2,0.9,0.2,0.4-0.5,0.7H96.4L96.2,122z M87.9,122v15.8L71.7,138
		c-1.1,0-0.5-0.9-0.5-3.6c0-1.4,0-2.9,0-4.5c0-2.2-0.2-6.8,0.2-8.6l16.4-0.2L87.9,122z M46.4,121.3c0-0.7,2.2-0.4,3.6-0.4
		c2.9,0,11.3-0.2,13.1,0.2c0.4,1.8,0.2,6.1,0.2,8.3c0,1.4,0,2.9,0,4.3c0,1.6,0.4,3.6-0.4,4c-0.2,0.9-6.3,0.5-8.1,0.5h-6.7
		c-1.3,0-1.3,0.2-1.8-0.5c-0.7-0.5-0.5-0.2-0.5-1.4v-13.3C45.8,120.9,46,121.4,46.4,121.3z M121.8,96.2h15.8l0.2,16.2
		c0,1.3-0.7,0.7-3.6,0.7c-2.9,0-11.3,0.2-13.1-0.2l-0.2-16.4L121.8,96.2z M71,111.2V96.2c4.7-0.4,12.1-0.4,16.9-0.2
		c0.2,3.1,0.4,14.2-0.2,16.9H71V111.2z M46.4,112.6V96.4h16.2c1.3,0.2,0.7,0.2,0.7,3.6c0,3.2,0.2,10.8,0,13.1l-16.2,0.2
		C46.2,112.8,46.5,113.3,46.4,112.6z M137.8,71.8V88h-16l-0.9-0.2V71.2l16.2-0.2C138,71.4,137.6,70.9,137.8,71.8z M96.2,71.9
		c0-1.3,0.2-0.9,3.6-0.9c1.4,0,2.9,0,4.5,0c2.7,0,5.9-0.2,8.6,0.2l0.2,15.1c0,1.6,0.2,1.4-0.9,1.6h-16V71.9z M46.4,71.8
		c0-1.3,0.9-0.7,3.6-0.7c3.1,0,11.2-0.2,13.1,0.2v16.2c-0.2,0.7,0.2,0.4-0.9,0.5H46.4V71.8z M96.2,62.6V46.4h16.2
		c0.9,0.2,0.4-0.2,0.7,0.7L113,63.3H99.8C96.6,63.3,96.4,63.7,96.2,62.6z M71.7,46.4l16.2,0.2v15.8l-0.4,0.9H71.2
		C70.8,61.7,71,53,71,50.2C71,46.9,70.5,46.4,71.7,46.4z M137.8,62.9c-0.2,0.4-0.2,0.4-1.8,0.4c-3.1,0-13.5,0.2-15.1-0.2
		c-0.5-1.8-0.2-6.5-0.2-8.6c0-10.4-1.6-8.6,8.8-8.6c9.7,0,8.6-0.7,8.6,4.5C138.3,53,138.7,61.9,137.8,62.9z M37.9,45.1v94
		c0,1.1,0,2.3,0,3.4c0,1.3,0.5,1.6,1.3,2.3c1.3,1.6,3.1,1.4,5.4,1.4c8.5,0,97.4,0.2,98.6-0.2c0.9-0.2,3.1-2,3.1-3.6
		c0.2-4.1,0-14.9,0-19.6V44.8c0-2.7,0.4-4.3-1.6-5.8c-2-1.6-3.4-1.1-6.7-1.1H46.2c-3.2,0-5-0.5-7,1.4C37.5,41.2,37.9,42.2,37.9,45.1
		z"/>
</g>
</svg>
