<?xml version="1.0" encoding="utf-8"?>
<!-- Generator: Adobe Illustrator 23.0.3, SVG Export Plug-In . SVG Version: 6.00 Build 0)  -->
<svg version="1.1" id="Layer_1" xmlns="http://www.w3.org/2000/svg" xmlns:xlink="http://www.w3.org/1999/xlink" x="0px" y="0px"
	 viewBox="0 0 184.3 184.3" style="enable-background:new 0 0 184.3 184.3;" xml:space="preserve">
<style type="text/css">
	.st0{fill:#FFFFFF;}
</style>
<g id="Layer_x0020_1">
	<g id="_2747160429888">
		<path class="st0" d="M65.5,138c0.5-2,10.6-26.3,10.8-27.5c1.8,0,5.9,1.8,7.7,2.5c2.7,0.9,5,1.8,7.7,2.7c1.4,0.5,2.2,0.9,3.6,1.3
			l11.7,4c-0.4,0.2,0,0.2-0.5,0.4l-35.6,14.6C69.1,136.6,67.1,137.7,65.5,138z M51.4,166.5h-0.9c-2.3-0.2-4.5-2-4.5-4
			c0-2.9,1.1-4.5,2.2-7.2l26.1-65c0.7-2.2,1.6-4,2.3-5.9l7-17.6c-2.2-1.6-4.1-5.4-4.1-9.4c0-11.7,13.9-15.8,20.7-9.9
			c6.8,6.1,5.8,15.8,0.7,19.3c0.9,1.8,1.6,4,2.3,5.9l16.4,41c0.7,2,18.7,46.3,18.7,47.2c0,3.1-1.6,5.6-4.1,5.6h-1.8
			c-4,0-5.4-7.6-7.4-11.5l-11.5-29.3c-1.1,0.2-45,18.4-50.4,20.3c-1.3,0.5-1.1,0.4-1.6,1.6L55,163.8
			C54.3,165.6,52.9,166.5,51.4,166.5z M83.5,105.6c1.6-0.4,3.2-1.3,4.9-1.8l9.9-4.1c1.4-0.5,4-1.8,5-1.8c0.2,1.6,6.3,15.5,6.7,17.5
			c-1.1-0.2-5.6-1.8-6.7-2.3l-13.3-4.7C88.3,107.8,84,106.5,83.5,105.6z M80.8,100.1l11.5-28.4l2,5c0.7,1.8,1.3,3.2,2,4.9
			c0.7,1.6,3.8,9.2,4,10.3L83.3,99C82.4,99.5,81.7,99.9,80.8,100.1z"/>
		<path class="st0" d="M37.2,57.4c0,13.5,4.9,26.3,13.1,35.6c1.1,1.3,2.5,3.4,4.1,4c1.6,0.5,4.5,0,4.5-3.4c0-1.8-3.4-4.7-5.4-7.4
			C44.9,74.5,42.1,61,45.3,45.9c0.9-4.3,2.5-7.9,4.5-11.5l3.8-5.9c0.5-0.7,0.9-1.1,1.4-1.8c2.5-2.9,4-3.6,4-6.1
			c0-1.1-1.1-2.5-2.5-2.9h-1.1c-1.1,0.2-2.5,1.1-4.1,3.1c-3.6,4.5-5.9,7-8.6,13C39.7,40.1,37.2,48.4,37.2,57.4z"/>
		<path class="st0" d="M125.2,20.7c0,2.3,0.9,2.9,2.5,4.5c7.6,7.6,12.6,21.1,12.6,32.2c0,7.7-2.2,15.5-4.7,20.9
			c-1.8,3.6-4.9,8.6-7.7,11.5c-1.6,1.6-2.7,2.2-2.7,4.7c0,2.2,2.3,3.4,4.3,2.9c2.2-0.7,6.3-6.3,7.7-8.5c6.1-8.3,9.7-20.5,9.7-31
			c0-10.8-3.1-20.3-7.7-28.3c-0.9-1.6-1.8-2.9-2.9-4.3l-3.2-4c-1.6-2.2-3.1-3.1-4.3-3.2h-1.1C126.1,18.2,125.2,19.8,125.2,20.7z"/>
		<path class="st0" d="M116.2,30c0,2.9,2.5,3.8,5.6,8.5c0.5,0.9,1.3,2,1.6,2.9c2.9,4.9,3.8,11.3,3.8,17.6c0,5.6-2,10.8-3.8,14.6
			c-1.6,3.1-3.2,5.8-5.6,8.1c-3.6,3.6-0.7,6.7,1.6,6.7c3.2,0,7.7-7.4,9.2-9.7c7-11.7,7.4-27.2,1.3-39.4c-0.9-1.8-6.8-11.9-9.9-11.9
			C118,27.2,116.2,28.1,116.2,30z"/>
		<path class="st0" d="M50.3,56.5c0,8.6,1.8,16,5.6,22c1.4,2.5,6.1,9.7,9.2,9.7c1.8,0,3.2-1.3,3.2-3.6c0-1.8-2.7-4-4-5.4
			c-7.7-10.4-9.9-23.4-4.5-35.5c0.2-0.7,0.4-1.3,0.7-1.8c0.4-0.7,0.5-0.7,0.9-1.4c3.4-6.3,6.8-7,6.8-10.4c0-2-1.8-2.9-3.8-2.9
			c-1.8,0-4.5,3.6-5.6,5c-1.8,2.3-2.9,4.3-4.3,6.8C52.5,43.4,50.3,49.8,50.3,56.5z"/>
		<path class="st0" d="M77.3,75.9c0-4.3-7.2-5.6-7.4-18.4c-0.2-11.5,7.4-15.3,7.4-18c0-2.5-1.4-3.4-3.8-3.4c-2.7,0-6.8,7-7.9,9.7
			c-3.8,9.4-3.2,19.3,2.5,27.9C74.5,83.3,77.3,77.4,77.3,75.9z"/>
		<path class="st0" d="M106.9,39c0,3.6,2.2,2.7,4.7,7.6c4.3,8.1,3.4,17.8-2.2,25c-0.9,1.1-2.3,2-2.3,3.8c0,2.9,2.5,4.5,4.9,3.2
			c1.3-0.5,3.6-3.6,4.3-4.9c5.8-8.6,6.3-20.3,1.4-29.5c-1.1-2-4.7-7.9-7-7.9C108.7,36.2,106.9,37.1,106.9,39z"/>
	</g>
</g>
</svg>
