<?xml version="1.0" encoding="utf-8"?>
<!-- Generator: Adobe Illustrator 23.0.3, SVG Export Plug-In . SVG Version: 6.00 Build 0)  -->
<svg version="1.1" id="Layer_1" xmlns="http://www.w3.org/2000/svg" xmlns:xlink="http://www.w3.org/1999/xlink" x="0px" y="0px"
	 viewBox="0 0 184.3 184.3" style="enable-background:new 0 0 184.3 184.3;" xml:space="preserve">
<style type="text/css">
	.st0{fill:#FFFFFF;}
</style>
<g id="Layer_x0020_1">
	<g id="_2748586248416">
		<path class="st0" d="M109.6,126.8c2.9-0.4,5.2,1.8,5.6,4.3c0.9,6.7-9,7.7-9.9,1.3C104.9,129.5,107.1,127.1,109.6,126.8z
			 M84.9,94.7c3.1-0.7,5.4,1.3,5.9,3.6c1.4,5.4-5.8,8.6-9,4.1C80.1,99.6,81.3,95.6,84.9,94.7z M59.9,137.9c-0.4-0.7-1.3-2-1.8-2.9
			c-1.8-3.2-2.5-7.6-2-11.3c1.4-9.9,9.9-16.9,19.8-16.6c4.9,0.2,9.4,2.3,12.6,5.4c0.5,0.5,1.6,1.6,2.2,2.5
			c3.6,5.4,4.7,11.7,2.3,17.8c-0.7,2-2.2,4.3-3.4,5.6c-0.4,0.4-0.9,0.9-1.3,1.3c-1.4,1.3-2,1.8-3.8,2.9c-2,1.3-4.1,2-6.8,2.3
			c-5.4,0.7-10.8-1.1-14.2-3.6c-2.2,1.4-1.8,2.3-2,3.2c-0.5,2.3-5.4,5.8-7,7.9c9.9,1.4,14.9,2.7,25.7,3.4c23.4,1.6,48.1-2,70.4-8.5
			c1.8-0.5,4-1.3,5.6-1.6c-0.7-3.6-9-17.3-11-20.2c-1.6-2.5-9.4-13-11.9-15.3l-1.8-1.8c-0.2,0.2-0.4,0.4-0.5,0.5
			c-4.3,4.7-3.2,4.9-11.5,3.1c-5-0.9-10.1-2-14.9-2.9c-3.1-0.5-4-1.3-5-4c-2.7-7-4.1-15.3-3.8-23c-5.2-1.4-9,0.2-13.1,2.3
			C77.4,87.2,72,91,67.7,94.6l-5.6,4.5c-0.5,0.4-0.5,0.5-1.1,1.1c-0.4,0.4-0.7,0.5-1.3,0.9l-9.2,9.5c-3.2,3.2-8.1,9.9-11,13.9
			c-2.3,3.4-4.1,6.7-6.3,10.3c-1.1,1.8-5,9.5-5.4,11.2c1.4,0.4,2.9,0.9,4.3,1.3c2.9,0.7,11.2,3.2,13.1,3.2l10.1-10.1
			c1.3-0.9,1.6-0.4,2.7-0.7C58.7,139.4,59.6,138.1,59.9,137.9z"/>
		<path class="st0" d="M142.5,82.9c0.2-2.9,0-5.6-0.9-8.1c-0.9-3.1-1.8-3.6-3.1-5.9c-1.3-2.2-1.6-4.7-0.5-7.2
			c0.7-1.6,0.9-1.6,3.1-1.6c5.8,0.4,10.8,5.8,9.2,12.4C149.4,76.4,145.8,81.6,142.5,82.9z M98.4,74c-1.1-0.9-2.5-4.5-2.9-6.3
			c-0.5-2.5-0.7-5.6,0.2-8.1c1.3-4,5.9-7.6,11.3-6.5c0.9,0.2,2.9,0.9,3.2,1.4c0.9,1.3-0.2,5.2-1.8,6.8s-0.9,0.7-2.5,2
			c-2,1.4-3.2,2.7-4.7,4.7C99.3,71,99.2,73,98.4,74z M122.6,111.8c3.6,0.7,4.7,0.5,7-2.5c0.4-0.4,0.5-0.5,0.9-0.9
			c0.2-0.4,0.4-0.5,0.7-0.9c3.4-4,5.6-7.7,7.9-12.4c0.7-1.4,1.4-3.2,2-4.9c0.2-0.7,0.4-2.2,0.9-2.5c1.3-0.7,5-1.3,9.4-7.6
			c7.7-11.3,0.9-23.2-10.3-23.9l0.7-2c2.5,0,3.2-2.2,1.8-3.6c-0.7-0.5-4.1-1.1-5.4-1.3l-22.9-4.7c-1.3-0.2-4.7-1.3-5.8-0.7
			c-0.7,0.4-1.3,1.3-1.1,2.2c0.2,1.3,0.7,1.1,1.6,1.6l-0.2,2.2c-4.1-1.3-7.4-1.3-11.2,0.5c-9,4.3-9.5,15.8-5.4,23.4
			c0.5,0.9,0.9,1.4,1.3,2.2c0.2,0.4,0.5,0.5,0.7,0.9l1.6,1.8c0.2,0.4,0,0.9-0.2,1.4c-0.4,3.1-0.2,6.5,0,9.5c0.4,4,1.3,7.7,2.3,11.3
			c1.6,5.6,1.6,6.3,6.3,7.2L122.6,111.8z"/>
		<path class="st0" d="M63.9,77.3c1.8,2.9,4.1,6.5,3.8,9.7c-0.5,5.6-7.2,6.7-11,0l-4.9-8.6c-0.7,0.2-6.3,3.4-7.6,4.1l-7.4,4.1
			c1.4,3.2,5.9,9.2,8.3,12.1c0.4,0.5,0.7,0.7,1.1,1.3c1.3,1.4,5.8,5.6,7.2,6.1l9.4-9c0.4-0.4,0.5-0.4,0.9-0.7
			c4.5-4.3,14.2-11,19.8-13.3c-0.4-4-5.2-16-7-18.4L61.7,73L63.9,77.3z"/>
		<path class="st0" d="M73.2,111.3c8.8-1.1,15.8,5.2,16.9,13c1.3,8.8-5.6,15.8-13.1,16.9c-6.1,0.7-12.1-2.3-14.8-7.4
			c-0.9-1.6-1.6-3.4-1.8-5.6c-0.7-5,1.6-10.8,5.2-13.5C67.8,112.9,69.8,111.7,73.2,111.3z M63.3,140.1c0.9,0.5,1.6,1.3,2.7,1.8
			c0.9,0.5,1.8,0.9,3.1,1.4C76.8,146,86,143,90.3,136c2-3.2,2.9-6.3,2.9-10.3c-0.2-5.8-3.2-11.2-7.7-14.2c-0.9-0.5-1.8-1.1-2.9-1.6
			c-2-1.1-4.7-1.6-7-1.6c-9.5-0.4-17.6,6.8-18.5,16.6c-0.2,2.5,0.2,5.4,0.9,7.7c0.7,1.8,2,4.3,3.2,5.6l-2.7,2.7
			c-1.4,0-2.2,0-2.9,0.9c-2.2,2.3-6.7,6.8-9.2,9.2c-0.5,0.5-1.3,0.9-1.4,2.2c-0.4,2.2,2.3,5.6,5.8,2c1.3-1.3,2.5-2.5,3.8-3.8
			s2.3-2.3,3.6-3.6s2.9-2.2,2.5-4.7L63.3,140.1z"/>
		<path class="st0" d="M73.6,117.2c5.4-0.9,9.5,2.9,10.4,7.2c0.7,3.8-1.3,7.6-4.1,9.4c-5.8,3.4-12.6,0-13.7-5.9
			C65.1,122.5,69.1,118,73.6,117.2z M74.1,112.2c-10.3,0.7-16,11.9-11.5,20.5c1.3,2.2,2.9,4.1,5,5.6c9.7,5.9,22.3-1.3,21.4-13.1
			C88.5,117.6,82.1,111.7,74.1,112.2z"/>
		<path class="st0" d="M31.8,27.8c-3.2,0.5-4.9,4-3.1,7l8.5,15.1c3.1,5.4,2.5,5.9,5.8,4.1c5.2-2.9,5.4-2.3,3.6-5.9L38.1,33
			C36.7,30.7,35.4,27.2,31.8,27.8z"/>
		<path class="st0" d="M50.4,73.5c0,0.5,5.9,11,6.7,12.2c1.3,2.2,2.3,4,4.9,4.7c3.1,0.7,4.9-1.8,4.7-4.7c-0.2-2.3-2-4.9-2.9-6.7
			c-1.6-2.9-3.6-6.3-5-9.2c-1.3-2.3-2.5-0.7-6.1,1.1C51.5,71.7,50,72.1,50.4,73.5z"/>
		<path class="st0" d="M71.3,130.6c0.2-0.5,7.7-7.9,8.1-8.1c0.5,0.9,1.8,2.3,1.4,4c-0.2,0.5-5,5.6-5.6,5.6c-0.7,0.2-1.6-0.2-2.2-0.4
			C72.2,131.3,71.8,130.7,71.3,130.6z M73.6,123.2c1.6-1.6,2.2-2.7,3.4-2.3c0.5,0.2,0.9,0.4,1.3,0.7l-7.9,7.7
			c-0.5-0.5-0.7-1.3-0.9-2.2L73.6,123.2z M67.1,127c0.4,4.1,4.1,7.6,8.8,7.2c4.1-0.4,7.6-4.1,7.2-8.8c-0.4-4.1-4.1-7.6-8.8-7.2
			C70.2,118.5,66.8,122.5,67.1,127z"/>
		<path class="st0" d="M42.1,55.7L50.6,71c0.9-0.4,1.8-1.1,2.7-1.4c0.9-0.5,1.8-1.1,2.5-1.4c-1.6-3.2-6.5-11.5-8.5-15.3L42.1,55.7z"
			/>
		<path class="st0" d="M86.2,102.5c-0.9,0-1.4-0.2-2-0.7l4-4c1.1,1.1,0.9,1.8,0.2,2.7C87.6,101,86.9,101.8,86.2,102.5z M83.7,101
			l-0.4-0.9l3.4-3.4l0.9,0.4c-0.4,0.9-1.3,1.4-1.8,2.2C85.1,99.8,84.4,100.7,83.7,101z M82.2,100.1c0.7,5,8.6,4.3,7.9-1.1
			c-0.2-2.2-2.2-3.8-4.5-3.4C83.5,95.8,81.9,97.8,82.2,100.1z"/>
		<path class="st0" d="M108.3,133.8c0.2-0.5,3.2-3.6,4-4c1.6,1.8,0.5,2.3-0.5,3.4c-0.4,0.4-1.1,1.3-1.4,1.3
			C109.6,134.7,108.7,134.3,108.3,133.8z M107.8,133.3c-1.1-1.6,0.9-1.8,2.9-4.3l1.1,0.4c-0.2,0.4-2.9,3.2-3.6,3.8
			C107.8,133.3,108.2,133.1,107.8,133.3z M109.2,127.9c-5.2,1.4-2.9,9.2,2.2,7.7C116.4,134.3,114.3,126.4,109.2,127.9z"/>
		<path class="st0" d="M69.5,127.1c0,0.9,0.4,1.6,0.9,2.2l7.9-7.7c-0.4-0.4-0.9-0.5-1.3-0.7c-1.3-0.4-1.8,0.9-3.4,2.3L69.5,127.1z"
			/>
	</g>
</g>
</svg>
