<?xml version="1.0" encoding="utf-8"?>
<!-- Generator: Adobe Illustrator 23.0.3, SVG Export Plug-In . SVG Version: 6.00 Build 0)  -->
<svg version="1.1" id="Layer_1" xmlns="http://www.w3.org/2000/svg" xmlns:xlink="http://www.w3.org/1999/xlink" x="0px" y="0px"
	 viewBox="0 0 184.3 184.3" style="enable-background:new 0 0 184.3 184.3;" xml:space="preserve">
<g id="Layer_x0020_1">
	<g id="_2747160471936">
		<path d="M39.3,95.7l4.3,2.9c1.4,0.9,3.1,1.8,4.7,2.5c2.3,1.1,8.3,3.2,11.9,2.9c8.8-0.9,15.1-4.5,21.1-8.5c-0.2,4-4.5,9.4-7,11.2
			c-10.6,7.9-25.4,5.6-32.2-4.3C41.1,100.9,39.3,97.8,39.3,95.7z M39.3,95.7L39.3,95.7z M25.7,66.5c0-1.3,10.8-7,22.1-3.2
			c1.3,0.4,2.2,0.7,3.2,1.3c0.9,0.4,2.3,1.3,3.2,1.6c0,8.8-19.1,12.1-26.6,4.5C26.6,69.8,25.7,68,25.7,66.5z M80.9,74.8
			c-5.2,0-14.4-2.5-14.4-8.1c0-1.4,10.8-6.8,21.8-3.4L95,66c0,3.2-2.5,5.2-4.7,6.5C87.9,73.5,84.2,74.8,80.9,74.8z M12.2,41.9
			c0,12.1,0.7,22.9,2.7,32.9c0.5,2.5,1.1,4.9,1.6,7.2c1.1,5.2,4.5,15.3,7,20.2c2.2,4.3,4,7.7,6.5,11.3c3.6,5.4,5.6,7.7,9.9,12.2
			c4.3,4.3,14,11.5,20.7,11.5c3.4,0,7.7-2.5,10.6-4.1c1.3-0.7,1.8-1.3,2.9-2l5.4-4.3c3.4-2.9,2-2.3,2-10.3
			c0-17.3,7.9-37.3,16.6-51.3c0.7-1.3,3.2-5,3.6-6.1h6.3c0-1.4,0.2-1.8,0.2-2.9l0.4-13.7c0-1.4-8.3-4.7-9.5-5.2
			c-6.8-2.3-10.8-3.2-18-4.5c-14-2.3-34.2-2-47.3,1.1C18.6,37.4,13.6,41.5,12.2,41.9z"/>
		<path d="M99.1,117.8c0-1.6,0.2-4.9,1.3-5.6c0.2,1.6,2.7,6.5,3.6,7.9c1.6,2.2,3.6,4.5,5.8,6.1c4.5,3.4,11.5,4.5,19.3,4.5
			c-1.6,2.5-7.2,4.7-11.5,4.7C107.9,135.3,99.1,127.4,99.1,117.8z M131.9,107.9l0.4-3.4c4.9,0,9.5,1.6,12.6,3.6
			c1.4,0.9,3.1,2.5,4.3,4c1.1,1.3,2.9,3.6,3.2,5.2c-2.9,2-2.3,1.8-6.3,1.8c-4.7,0-9.4-3.6-11.9-6.8
			C133.3,111.5,131.9,109.2,131.9,107.9z M103.4,89.2c0-1.3,0.2-1.8,0.5-2.5c4.5,0.2,8.8,1.6,12.4,3.8c3.4,2.2,5.8,5.4,7.6,9
			c-1.6,1.1-3.1,2.5-6.3,2C111,100.4,103.4,95.1,103.4,89.2z M105.4,152.9c8.6,0,13.3-0.9,21.1-4c5.2-2.2,9.7-4.7,13.9-7.7
			c4.9-3.6,5.2-4.1,9-7c4.7-3.6,14-14.6,17.6-20.2c0.7-1.1,1.4-2,2.2-3.1c4-5.8,4-4.1,0-10.1c-4.3-6.5-10.1-11.5-16.2-16.4
			c-5-4.1-13.9-9.5-19.6-12.4c-6.7-3.4-16.9-7.4-24.8-7.7c-2.5,0-2.3-0.9-3.6,1.1c-7.9,13.5-14.4,26.3-17.1,42.3
			c-0.5,3.2-0.7,5.9-0.9,9.7c0,1.3-0.2,1.6-0.2,2.2l0.5,7.7c0.5,7,4.5,19.1,9.5,23C98.7,152.2,101.8,152.9,105.4,152.9z"/>
	</g>
</g>
</svg>
