<?xml version="1.0" encoding="utf-8"?>
<!-- Generator: Adobe Illustrator 23.0.3, SVG Export Plug-In . SVG Version: 6.00 Build 0)  -->
<svg version="1.1" id="Layer_1" xmlns="http://www.w3.org/2000/svg" xmlns:xlink="http://www.w3.org/1999/xlink" x="0px" y="0px"
	 viewBox="0 0 184.3 184.3" style="enable-background:new 0 0 184.3 184.3;" xml:space="preserve">
<style type="text/css">
	.st0{fill:#010101;}
</style>
<g id="Layer_x0020_1">
	<g id="_2748599387200">
		<path class="st0" d="M61.8,100.5c0-1.8,0.5-4.9,0.9-6.5c5.4-22.5,32.9-31,50-14c1.3,1.3,2.3,2.5,3.2,4c0.5,0.9,0.9,1.4,1.4,2.2
			c0.5,0.9,0.9,1.3,1.3,2.3c4.1,10.1,3.2,19.4-2.3,28.4c-0.5,0.7-1.1,1.4-1.6,2.2c-1.3,1.4-1.8,2.5-3.4,3.6
			c-7.6,5.9-11.3,7.4-21.8,7.4c-7,0-12.8-3.4-17.6-7.4C65.7,117.8,61.8,108.8,61.8,100.5z M127.3,83.9c0-2.2,2.3-5,4.5-5
			c4.5,0,6.1,1.6,6.1,6.1c0,2-2.3,4.5-5,4.5C129.8,89.5,127.3,87.2,127.3,83.9z M63.6,63.2H43.4c-5.6,0-9.5,2.3-12.2,5.9
			c-1.8,2.3-2.3,5.2-2.3,8.6v50.8c0,3.4,1.4,6.5,3.2,8.3c2,2,4.9,3.8,8.1,3.8H143c5.8,0,12.6-5,12.6-13.1V76.4c0-2-0.5-4.3-1.3-5.6
			c-2.9-5.9-6.3-7.7-13.9-7.7h-15.1c0-7.4-5-19.3-14-19.3H74.7c-3.1,0-6.8,4.1-8.3,7C64.7,54,63.6,58.2,63.6,63.2z"/>
		<path class="st0" d="M71.9,99.9c0,3.6,0.4,5.9,1.8,9.4c0.5,0.9,1.3,2.2,1.8,2.9c0.7,1.1,1.4,1.6,2.3,2.5
			c7.7,7.7,18.7,7.4,27.2,0.2c0.5-0.5,1.8-1.8,2.2-2.5c7.2-9.4,4.1-23.6-6.8-29.2c-5.2-2.7-12.2-2.7-17.6,0
			C76.7,86.1,71.9,92.6,71.9,99.9z"/>
	</g>
</g>
</svg>
