<?xml version="1.0" encoding="utf-8"?>
<!-- Generator: Adobe Illustrator 23.0.3, SVG Export Plug-In . SVG Version: 6.00 Build 0)  -->
<svg version="1.1" id="Layer_1" xmlns="http://www.w3.org/2000/svg" xmlns:xlink="http://www.w3.org/1999/xlink" x="0px" y="0px"
	 viewBox="0 0 184.3 184.3" style="enable-background:new 0 0 184.3 184.3;" xml:space="preserve">
<style type="text/css">
	.st0{fill:#FFFFFF;}
</style>
<g id="Layer_x0020_1">
	<g id="_2747148145808">
		<path class="st0" d="M84.5,93h5.2v-5h4.5v5h5.4v5.2h-5.4v7.4h-4.5v-7.4h-5.2V93z M71.9,97.5v66.2h15.5v-23.9l4.9-9.2l4.9,9.2v23.9
			h15.5V97.1c0-0.9-4.1-7.7-4.9-9l-5-9.2c-1.8-3.1-3.2-5.9-5-9l-5.8-9.2C91.4,63.3,71.9,95.5,71.9,97.5z"/>
		<path class="st0" d="M39.9,114.1V131H27.1v32.8h20.5c0-11.5-0.9-8.8,2.3-15.3c0.5-1.1,2-4.3,2.7-4.9c0.5,1.8,4.9,8.6,4.9,10.4v9.7
			h11.2V98l-14.6,8.1C51.4,107.6,41.9,113.5,39.9,114.1z"/>
		<path class="st0" d="M115.5,163.7h11.2c0-10.6-0.9-8.8,2.3-14.9c0.5-1.1,2.3-4.1,2.5-5c0.5,0.5,5,9.4,5,9.7v10.4h20.5v-32.8h-12.6
			v-16.9c-2.2-0.5-5-2.9-7.2-3.8c-2.5-1.3-20.5-11.7-21.8-11.9V163.7z"/>
		<path class="st0" d="M90.7,26h-6.1v3.8h6.1v11.5c0,0.5-0.9,2-1.3,2.3c-6.7,11.5-13.3,24.1-20,35.8l-4,7c-1.1,1.8-8.8,5.4-11.2,6.7
			c-1.6,0.9-2.9,1.8-4.5,2.5l-14,7.6v6.8L54.1,100c1.6-0.7,2.9-1.8,4.3-2.5l9.2-5c1.3-0.7,0.9-0.5,1.6-2l9.4-16.6
			c0.9-1.6,1.8-3.1,2.7-4.9c0.9-1.6,1.6-3.1,2.5-4.7l8.1-14.2c0.7,0.5,6.7,11.7,8.1,14l14.6,26.1c1.3,2.2,0.5,1.4,3.8,3.2l11.5,6.3
			c1.8,0.9,2.9,1.6,4.5,2.5c1.8,0.9,3.1,1.6,4.7,2.5c1.6,0.9,2.9,1.6,4.5,2.5l4.7,2.5v-6.8L130.1,93c-0.7-0.4-1.6-0.7-2.3-1.3
			c-0.7-0.4-1.3-0.7-2.2-1.3c-1.6-0.9-3.1-1.6-4.7-2.5c-2.3-1.4-1.8-1.1-3.4-4l-8.1-14.2c-0.9-1.6-1.6-3.1-2.5-4.7
			c-1.6-2.7-13.3-23.4-13.3-24.1V29.5h6.1v-3.8h-5.9v-5.4h-3.1V26z"/>
	</g>
</g>
</svg>
