<?xml version="1.0" encoding="utf-8"?>
<!-- Generator: Adobe Illustrator 23.0.3, SVG Export Plug-In . SVG Version: 6.00 Build 0)  -->
<svg version="1.1" id="Layer_1" xmlns="http://www.w3.org/2000/svg" xmlns:xlink="http://www.w3.org/1999/xlink" x="0px" y="0px"
	 viewBox="0 0 184.3 184.3" style="enable-background:new 0 0 184.3 184.3;" xml:space="preserve">
<style type="text/css">
	.st0{fill:#FFFFFF;}
</style>
<g id="Layer_x0020_1">
	<g id="_2747398943008">
		<path class="st0" d="M17.6,71.5v40.9c0,2.2,1.3,3.6,2.5,4.7c1.6,1.3,3.6,0.9,6.1,0.9h28.6c0.9,0.2,8.6,7,9.9,8.1
			c0.9,0.7,1.1,0.9,2,1.6c1.3,1.1,2.3,2.2,3.8,3.4l21.1,18.2c2.7,2,8.6,1.1,8.6-5.6V41.1c0-4.3-1.6-7-5.8-7c-2.9,0-4.7,2.5-6.7,4.1
			L74.5,49.6c-0.9,0.7-1.1,0.9-2,1.6l-9.7,8.3c-1.3,1.1-2.5,2.3-3.8,3.4s-2.9,2.7-4.1,2.9c-6.3,1.1-31.3-1.3-35.1,0.7
			C18.7,67.6,17.6,69.4,17.6,71.5z"/>
		<path class="st0" d="M137.2,39.3c0,4.7,3.1,5.8,6.7,11.7c15.5,25.9,15.8,55.8,0.4,81.7c-3.1,5-6.8,8.3-6.8,11.9
			c0,3.6,2.7,5.2,6.1,5.2c2.9,0,6.5-5.8,8.1-8.1c7.2-10.8,11.7-21.8,13.9-34.7c0.5-2.9,1.1-6.5,1.1-9.7c0-2.2,0.4-3.1,0.4-5.2
			c0-2-0.4-2.9-0.4-5.2c0.2-10.4-4.7-25.4-9-34.2c-2.5-4.9-5-9-8.3-13.5c-0.7-1.1-1.4-1.8-2.2-2.9C143.1,32.3,137.2,35.7,137.2,39.3
			z"/>
		<path class="st0" d="M135.5,89.9c0,11.5-1.1,18.7-5.9,28.4c-0.9,1.8-1.4,2.9-2.5,4.7l-2.9,4.5c-1.1,1.8-1.4,3.6-0.4,5.6
			c1.6,3.4,6.8,4.3,9.4,0.5c4.1-6.3,4.9-7.2,8.1-14.2c4.3-9.7,5.4-18.5,5.4-29.7c0-8.6-2.7-17.6-5.2-24.1c-1.3-3.2-3.2-6.8-4.9-9.7
			c-0.9-1.6-1.8-2.9-2.9-4.5c-2.9-4.1-7.9-3.4-9.7,0.2c-2.3,4.7,3.2,8.3,5.9,14.8C132.7,72.8,135.5,80.5,135.5,89.9z"/>
		<path class="st0" d="M107.8,69.2c0,3.4,6.7,9.4,6.7,21.2c0,5.9-0.2,9.4-2.3,14.9c-2.2,5.4-7.2,10.3-2.2,14
			c9,6.8,15.5-17.1,15.5-25.6c0-10.4-1.6-17.5-6.7-26.1C114.3,59.8,107.8,65.1,107.8,69.2z"/>
	</g>
</g>
</svg>
