<?xml version="1.0" encoding="utf-8"?>
<!-- Generator: Adobe Illustrator 23.0.3, SVG Export Plug-In . SVG Version: 6.00 Build 0)  -->
<svg version="1.1" id="Layer_1" xmlns="http://www.w3.org/2000/svg" xmlns:xlink="http://www.w3.org/1999/xlink" x="0px" y="0px"
	 viewBox="0 0 184.3 184.3" style="enable-background:new 0 0 184.3 184.3;" xml:space="preserve">
<style type="text/css">
	.st0{fill:#EFEFEF;}
	.st1{fill:#D5D5D5;}
	.st2{fill:#8E8E8E;}
</style>
<g id="Layer_x0020_1">
	<g id="_2747148169488">
		<path d="M116,120.9c0-0.7,0.2-0.7,0.2-1.3c1.4-0.4,2.5,0,3.4,0l0.2,4h-3.6L116,120.9L116,120.9z M125.5,151.5h-4.3l0,0l0,0h-18.5
			c-1.1,0-1.8,0-2-0.2c0-1.1,0-2.2,0-3.4c0-1.3-0.2-2-0.2-3.1c0-4.3,0.4-6.1-2.7-9c-3.2-2.9-9.2-2.9-12.2,0.2
			c-3.6,3.6-2.2,4.7-2.5,9c-0.2,2-0.2,4.3-0.2,6.3c-0.2,0-1.3,0.2-2.7,0.2H58.4c-1.6,0-2.5-0.2-2.7-0.2v-42.5h4.7v4.1h4v-4.1h4.1
			v4.1h4.3v-4.1h4.3v4.1h4.3v-4.1h4v4.3h4.3v-4.3h4.5v4.1h4.3v-4.1h4v4.1h4.5c-0.2-0.9-0.2-3.1-0.2-4.1h4.7v4.1h4v-4.1h4.1v4.1h4.3
			v-4.1h4.3v42.5C127.1,151.5,126.4,151.5,125.5,151.5z M93.5,123.6h-3.6c-0.4-0.5-0.2-3.8-0.2-4.3h3.6
			C93.6,119.6,93.8,123.2,93.5,123.6z M76.9,120.3c0-0.4,0.2-0.5,0.2-0.9c1.1-0.2,2.5-0.2,3.8-0.2v4.1h-4V120.3z M63.8,120.9
			c0-0.7,0.2-0.7,0.2-1.3c1.4-0.4,2.5,0,3.6,0c0,1.6,0.2,2.5,0.2,4h-3.8L63.8,120.9L63.8,120.9z M102.8,123.6v-4.1h2
			c0.9,0,1.1,0.2,1.8,0.2v4L102.8,123.6z"/>
		<path d="M139.7,111.5c1.4,0,2.7,1.6,2.7,2v7.9h-5.2c0-1.1,0.2-1.8,0.2-2.9c0-1.1,0-2,0-3.1c0-0.5,0.2-2.2,0.4-2.5
			C137.9,112.6,139,111.5,139.7,111.5z M148.9,151.5h-16.2c-0.9,0-1.6,0-1.8-0.2v-46.1h-2V98h4.7v5.2h4.1V98c0.9,0,0.7,0,1.6-0.2
			c0-1.6,0-3.1,0-4.7s0.2-2.9,0.2-4.3c0-2.5-0.2-6.7,0.2-8.6c1.1,0,0.7,0,0.9,0.9c0.2,0.5,0.4,0.5,1.1,0.5c0.9,0.2,1.8,0.2,2.9,0.4
			l4.5,0.5c0.5,0.2,0.9,0,1.1,0.5c-0.2,0.2-0.5,0.4-0.9,0.5l-2.9,1.3l3.1,1.6c0.4,0.2,0.5,0.4,0.9,0.4c-0.2,0.4,0.2,0.2-1.1,0.4
			c-0.4,0-0.9,0.2-1.3,0.2l-4.9,0.4c-0.7,0-1.6,0.2-2.3,0.2V98c1.1,0.2,1.6-0.2,1.6,0.5v4.9h4.3v-5.2l4.7,0.2v6.8
			c-1.3,0.4-0.9,0.2-2.3,0.2v46.1L148.9,151.5L148.9,151.5z"/>
		<path d="M41.1,113.3c0-0.4,1.4-2,2.2-2c3.2,0,2.9,3.2,2.9,5.6c0,0.9-0.2,3.4,0.2,4.1h-5.2C41.1,121,41.1,113.3,41.1,113.3z
			 M50.8,151.5h-16l0,0v-46.3H33V98h4.5v5.2h4V98h1.1c0.9,0,0.5-3.1,0.5-4.1V82c0-0.5,0-1.8,0.5-1.8c0.7,0,0.9,0.2,0.9,1.3l7.4,0.9
			c0.5,0.2,1.8,0.2,2.2,0.5c-0.4,0.4-1.4,0.7-2,0.9C51.7,84,51.3,84,51,84.1c-0.4,0.2-0.5,0.4-0.9,0.4c0.5,0.9,3.6,1.3,4,2.2
			l-9.4,0.9v10.1c0.9,0.2,0.5,0.2,1.6,0.2v5.2h4.1v-5.2h4.7v7.2H53v46.3C52.2,151.5,51.7,151.5,50.8,151.5z"/>
		<path d="M89.3,90.4c0-1.8,0.2-3.2,0.2-4.9c0-1.3,0.2-2,1.3-2.5c1.1-0.5,2.2-0.2,2.9,0.5c0.5,0.4,0.5,1.1,0.5,2v7h-4.9V90.4z
			 M77.3,105.9c0.7,0.4,4.1,0.4,5.2,0.4h19.6c1.6,0,2.9-0.2,4.5-0.2l-1.4-11.7c-0.2-1.3-0.4-2.5-0.5-4l-2-15.7l-2.5-0.2
			c-0.9,0-1.8,0-2.7,0s-1.4-0.2-2.5-0.2H81.2c-0.4,1.6-1.8,13.7-2.2,15.5C78.9,91.7,77.3,104.7,77.3,105.9z"/>
		<path d="M97.8,62.9v-4.1h-4c0,0.7,0,1.4,0,2.2c0,0.5,0.2,1.6-0.2,2c-0.9-0.4-2.7-0.2-3.8-0.2v-4.3h-4.3c0,0.5-0.2,0.9-0.2,2
			c0,0.9,0.2,1.4,0.2,2.2h-3.6v-4.3h-4.3c0,2.9,0,5.6,0,8.5c0,1.4-0.2,0.9,1.4,2.9c0.4,0.5,0.5,0.7,0.9,1.3c0.2,0.4,0.7,0.9,0.9,1.3
			c6.5,0,13,0,19.4,0c0.7,0,1.8,0.2,2.2-0.2l3.2-4c0.4-0.5,0.2-8.3,0.2-9.7h-4.3v4.3L97.8,62.9z"/>
		<path d="M83.9,56.1c0.9,0,1.4,0.2,2.5,0.2c2,0,12.4,0.2,13.3-0.2c-0.2-0.7-0.5-1.3-0.9-1.8l-1.4-2.7c-0.2-0.4-0.4-0.5-0.5-0.9
			c-0.4-0.7-0.7-1.3-1.1-2c-0.9-1.6-3.6-6.3-3.6-7.7v-1.3c1.4,0,3.2,0,4.5-0.2c1.4-0.2,3.1,0,4.5-0.2c1.6-0.2,4.9-0.2,6.7-0.4
			c0.5,0,1.6-0.2,2.2-0.2l-6.8-1.8c0.5-0.4,3.2-0.9,3.8-1.1c0.7-0.2,1.3-0.2,2-0.4c0.7-0.2,1.3-0.4,1.8-0.5
			c-0.4-0.4-0.4-0.2-1.1-0.2l-8.6-0.5c-1.6-0.2-7.6-0.5-8.5-0.9c-0.9-0.2-0.4-0.5-1.3-0.5c-0.7,0-0.5,2.9-0.5,3.4V42
			c0,0.5-0.4,0.9-0.5,1.3l-2,3.8C87.7,48.7,84.3,55,83.9,56.1z"/>
		<path class="st0" d="M89.7,109c-0.4,0.5-0.2,3.6-0.2,4.1h-4c0-0.5,0.2-3.8-0.2-4.1v4.3h4.3C89.7,113.3,89.7,109,89.7,109z"/>
		<path class="st1" d="M90,123.6v-4.1h3.6v4.1c0.2-0.4,0.2-4,0-4.3H90C89.9,119.8,89.7,123,90,123.6z"/>
		<path class="st2" d="M93.6,63.1c0.4-0.4,0.2-1.6,0.2-2c0-0.7,0-1.4,0-2.2h4v4.1v-4.1h-4.1V63.1z"/>
	</g>
</g>
</svg>
