<?xml version="1.0" encoding="utf-8"?>
<!-- Generator: Adobe Illustrator 23.0.3, SVG Export Plug-In . SVG Version: 6.00 Build 0)  -->
<svg version="1.1" id="Layer_1" xmlns="http://www.w3.org/2000/svg" xmlns:xlink="http://www.w3.org/1999/xlink" x="0px" y="0px"
	 viewBox="0 0 184.3 184.3" style="enable-background:new 0 0 184.3 184.3;" xml:space="preserve">
<g id="Layer_x0020_1">
	<g id="_2748599352352">
		<path d="M97.8,165.9c14.6-0.9,27.2-5,38.2-11c5.6-3.1,10.6-6.7,15.5-10.6l1.6-1.4c0.4-0.4,0.4-0.5,0.7-0.7
			c1.1-1.1,2.2-1.8,3.1-3.1c4.9-5.8-0.9-14.4-8.3-11.9c-1.6,0.5-2.9,1.6-3.6,2.5c-0.5,0.5-0.9,0.9-1.6,1.4l-1.6,1.4
			c-5.4,4.3-8.5,6.7-14.8,9.9c-11.2,5.9-25.9,9.4-40.5,8.3c-15.5-1.3-29.5-7-40-15.1l-6.7-5.6c-1.3-1.1-1.8-2-3.4-2.7
			c-7.2-3.4-13.9,5.2-9.4,11.2c0.9,1.3,1.8,2,3.1,3.1l4.9,4.3C51.9,160.1,75.3,167.3,97.8,165.9z"/>
		<path d="M96.4,123.4c-15.5,1.3-28.8-4.5-38.7-14.2c-3.8-3.8-9.7-1.6-11.7,2.2c-1.1,2.2-1.1,5.2,0.2,7.2c1.3,2.2,6.8,6.7,9.4,8.5
			c9.2,6.7,20.2,10.6,32.6,11.5c18.7,1.4,35.5-5.6,48.4-17.8c5.2-4.9,2.5-12.2-3.2-13.5c-3.4-0.7-6.1,1.1-7.7,3.1
			c-0.4,0.5-0.5,0.5-1.1,1.1l-2.5,2C115.8,118.4,106.5,122.5,96.4,123.4z"/>
		<path d="M93.7,96.6c-7.4,0.5-12.2-2.3-16.2-5.6c-0.5-0.5-0.7-0.9-1.4-1.4c-0.5-0.4-1.1-0.7-1.8-0.9c-4.3-1.6-9,0.9-10.1,5.4
			c-0.7,3.6,0.9,5.8,2.9,7.7l3.1,2.5c0.9,0.7,2.2,1.6,3.2,2.2c13.1,7.9,29.9,6.5,41.6-3.1c2.2-1.8,4.1-3.2,4.9-6.1
			c1.4-6.7-5.8-11.7-11.3-8.1c-1.8,1.1-2.7,2.7-6.3,4.7C100,95.3,96.7,96.2,93.7,96.6z"/>
		<g id="_2747155374912">
			<path d="M78.9,34.7c0,7.2,0.9,10.4,4.7,16c1.4,2.2,2.3,2.3,2.3,4.7c0,2-4,3.4-5.6,4.1c-4,1.8-9.5,3.2-13,6.7
				c-3.6,3.6-3.4,5.2-3.4,9.7c0,0.9,0.5,0.4,2.9,0.4c0.9,0,1.1,0.2,1.6,0.2l2.9-0.2c0.9,0,0.9,0.2,1.4,0.2l2.5-0.2
				c0.9,0,1.1,0.2,1.6,0.2l2.9-0.2c0.9,0,0.9,0.2,1.4,0.2l2.7-0.2c0.9,0,0.9,0.2,1.4,0.2l2.5-0.2c0.9,0,1.1,0.2,1.6,0.2l2.9-0.2
				c0.9,0,0.9,0.2,1.4,0.2l2.5-0.2c0.9,0,1.1,0.2,1.6,0.2l2.9-0.2c0.9,0,0.9,0.2,1.4,0.2l2.5-0.2c0.9,0,1.1,0.2,1.6,0.2l2.9-0.2
				c0.9,0,0.9,0.2,1.4,0.2l2.7-0.2c0.9,0,0.9,0.2,1.4,0.2l2.5-0.2c0.9,0,1.1,0.2,1.6,0.2c1.1,0,1.3-0.2,4.1,0c0.5,0,0.7-0.2,1.4-0.2
				c0-5.9-0.4-8.6-6.7-12.4c-1.8-1.1-3.6-1.8-5.6-2.5c-2.9-1.3-10.1-3.1-9.9-6.3c0.2-2.3,7-7.7,7-17.5c0-5.4-0.9-9.7-4.3-13.3
				c-5.9-6.1-15.3-6.3-21.2,0C81.1,26,78.9,30.5,78.9,34.7z"/>
			<path d="M107.4,21c0.4,0.5,0.7,0.7,1.1,1.3c0.9,1.3,2.2,3.2,2.7,4.7c3.8,8.6,1.4,19.4-4,26.8c-0.4,0.4-0.5,0.5-0.7,0.9
				c3.2,1.6,6.1,2.3,9,3.6c4,1.8,8.6,4.7,10.8,8.5c0.2,0.5,0.5,1.3,1.1,1.3h14.8c0-4.5-0.4-6.5-3.6-9.2c-1.4-1.3-2.2-1.8-4.1-2.7
				c-2.2-1.1-11.7-4-11.7-6.1c0-3.1,2-3.4,4-7.4c5.8-12.1-0.7-24.1-10.1-24.1c-2.2,0-3.6,0-5.8,0.9c-0.7,0.4-0.9,0.4-1.6,0.9
				C108.3,20.3,107.9,20.6,107.4,21z"/>
			<path d="M59.1,31.8c0,12.2,6.1,14,6.1,17.6c0,1.8-3.4,3.2-4.9,3.8c-2.2,0.9-4.5,1.6-6.5,2.5c-1.4,0.7-4.1,2.3-5.2,3.6
				C46,62.2,46,64.2,46,67.8h14.8c0.5,0,1.1-1.1,1.8-2.3c1.4-2.2,4.5-4.7,6.8-5.8c1.3-0.7,10.4-4.7,12.1-5c0-0.9-0.5-1.1-1.1-1.8
				c-1.6-2.3-1.8-2.7-3.1-5.4c-2-4.3-2.2-8.3-2.2-13c0-4,2-9,4.3-12.1c0.5-0.5,0.9-0.7,1.1-1.4c-1.3-2-5.6-2.9-8.8-2.9
				c-5,0-9.4,3.8-11.2,8.3C59.7,27.8,59.1,30,59.1,31.8z"/>
		</g>
	</g>
</g>
</svg>
