<?xml version="1.0" encoding="utf-8"?>
<!-- Generator: Adobe Illustrator 23.0.3, SVG Export Plug-In . SVG Version: 6.00 Build 0)  -->
<svg version="1.1" id="Layer_1" xmlns="http://www.w3.org/2000/svg" xmlns:xlink="http://www.w3.org/1999/xlink" x="0px" y="0px"
	 viewBox="0 0 184.3 184.3" style="enable-background:new 0 0 184.3 184.3;" xml:space="preserve">
<style type="text/css">
	.st0{fill:#FFFFFF;}
</style>
<g id="Layer_x0020_1">
	<path class="st0" d="M121.3,157.2c3.2-4.9,6.7-10.1,8.8-15.7c0.7-1.8,1.4-4.1,2.3-5.9c2,0,13.3,1.8,14.4,2.3
		c-0.4,1.4-1.6,2.2-2.5,3.1c-1.1,1.1-1.8,1.8-2.7,2.9C137.3,147.9,126.7,156,121.3,157.2z M37.6,137.6c1.3-0.7,12.1-2.3,14.4-2.3
		c2.2,4,3.6,9.4,7.9,16.6c1.1,1.6,2.2,3.2,3.2,4.9c-5.2-1.3-13.1-7-17.3-10.6c-2.5-2.2-5.6-5-7.7-7.7
		C37.4,137.6,38,138.3,37.6,137.6z M97.4,162.8v-29.7c2,0,4.1-0.2,6.1,0.2l17.8,1.1c-0.7,3.2-4.5,10.3-6.3,13.3
		C111.6,153.3,104.2,161.2,97.4,162.8z M63.2,134.2l11.3-0.9c4.3-0.2,7.9-0.4,12.4-0.4v29.7c-5.9-1.4-11.5-7-14.8-11.3
		c-1.8-2.5-3.8-5.2-5-8.1C64.4,138.5,64.6,137.4,63.2,134.2z M21.2,97.3h24.1c0,12.8,3.6,25.2,3.6,27.5c-3.4,0.2-15.7,2.9-18.7,2.9
		C25.6,118.5,21.2,108.1,21.2,97.3z M153.7,127.7c-0.9,0-13.7-2.9-18-2.9l2.3-12.8c0.7-5,1.3-9.2,1.3-14.8h24.3
		c0,6.3-3.6,18.4-6.3,23.9C156.8,122.1,154.4,127.7,153.7,127.7z M124.9,123.7c-3.8-0.9-9-0.5-13.1-1.3c-4.5-0.7-10.1,0.5-14.2-0.5
		V97.3h31.3c0,1.4-0.4,1.6-0.4,3.2c0,1.8-0.2,2.3-0.2,3.6C127.4,112.8,126.9,115.3,124.9,123.7z M55.6,97.3h31.3v24.3
		c0,1.3-1.3,1.1-2.5,0.9h-7.2c-1.6,0-1.8,0.4-3.6,0.4c-4.9,0-9.5,0.5-14,0.9C55.8,108.1,57.2,110.2,55.6,97.3z M97.4,61.6
		c3.2,0.7,24.7-1.1,27.5-1.3c1.3,5.4,3.6,17.1,3.6,22.9c0,1.8,0.4,2.2,0.4,3.6H97.4V61.6z M59.6,60.4c3.6,0.9,15.5,1.3,20.3,1.3
		l7.2,0.4v24.8H55.6c0.4-4.5,0.7-9.4,1.3-13.7C57.6,68.7,58.5,64.5,59.6,60.4z M135.7,59.5c2.5,0,6.7-0.9,9.2-1.3l9.2-1.6
		c2.9,5.6,4,7.4,6.1,13.9c0.9,2.5,1.6,4.9,2.2,7.7c0.5,2.2,1.3,6.3,1.3,8.8h-24.3c0-5.8-0.5-9.7-1.3-14.8L135.7,59.5z M45.2,85.9
		v0.9H20.9c0-2.7,0.7-6.1,1.3-8.6c0.9-4.1,3.2-11.3,4.9-15.1l3.4-6.7l18.4,3.1l-2.3,12.6C45.9,76.2,45.2,81.1,45.2,85.9z M98.5,51.2
		h-1.1V21.5c6.1,1.4,11.5,6.8,14.8,11.3c2.9,3.8,5.4,8.1,7.2,12.4c0.7,1.6,1.4,3.1,1.8,4.7c-3.6,0-7.6,0.9-11.2,0.9
		C106,51,102.8,51.2,98.5,51.2z M86.9,21.5v29.9l-23.8-1.4c0.7-3.2,4.5-10.4,6.3-13.3C72.9,31,80.3,22.9,86.9,21.5z M121.3,27.4
		c7,1.6,17.6,10.4,23,15.8c0.7,0.7,2.3,2.5,2.5,3.4c-1.3,0.5-12.1,2.3-14.4,2.3c-2.2-4.3-3.4-9-7.9-16.7
		C123.5,30.5,122.4,29.1,121.3,27.4z M51.7,48.5c-2.2,0-13-1.4-14-2c0.4-1.6,4-4.9,5.2-5.9C47,36.4,58,28.2,63.2,27.1
		c-4.3,6.5-5.8,8.6-8.8,15.7C53.8,44,52.4,48.5,51.7,48.5z M10.1,91.5c0,17.8,5,32.9,14.8,47.3c1.4,2.2,2.9,3.8,4.3,5.8
		c2.9,3.8,5.8,6.1,9,9c0.5,0.5,0.7,0.9,1.3,1.3c23.2,18.7,50.9,24.1,79.6,14.8c9.7-3.2,18-8.3,25.7-14.8c2.7-2.2,7.9-7.4,9.9-10.1
		l5.2-7c13.1-18.2,16.9-42.8,12.1-64.4c-1.3-5.8-3.1-10.1-5.2-15.1c-2.7-6.5-7.6-13.1-11.9-18.5l-4.9-5.4c-3.1-3.1-7.6-7-11-9.4
		c-14.4-9.5-28.1-14.8-47.5-14.8c-6.7,0-12.6,0.9-18.2,2.2C62.6,14.7,54,19.2,45.2,24.9c-0.9,0.7-1.8,1.3-2.9,2.2L38,30.7
		c-6.8,5.9-10.1,10.1-15.1,17.8c-5.2,8.1-8.3,15.1-10.8,24.8C11.2,78.4,10.1,84.9,10.1,91.5z"/>
</g>
</svg>
