<?xml version="1.0" encoding="utf-8"?>
<!-- Generator: Adobe Illustrator 23.0.3, SVG Export Plug-In . SVG Version: 6.00 Build 0)  -->
<svg version="1.1" id="Layer_1" xmlns="http://www.w3.org/2000/svg" xmlns:xlink="http://www.w3.org/1999/xlink" x="0px" y="0px"
	 viewBox="0 0 184.3 184.3" style="enable-background:new 0 0 184.3 184.3;" xml:space="preserve">
<style type="text/css">
	.st0{fill:#FFFFFF;}
</style>
<g id="Layer_x0020_1">
	<g id="_2747160412800">
		<path class="st0" d="M130.4,153.8H52.8V47.6h78.7v105.3C131.5,153.6,131.1,153.8,130.4,153.8z M44.7,48.7v104.2
			c0,5.6,4.1,9.2,9.7,9.2h75.2c5.6,0,9.9-3.6,9.9-9.2V48.7c0-6.3-4.1-9.2-10.3-9.2l-58.1-0.4c5.4,0,21.8-1.3,28.4-1.8l10.6-0.7
			c1.3-0.2,2.5,0,3.8,0l14.4-1.1V22.2L55.9,38.8C51.2,39.9,44.7,40.6,44.7,48.7z"/>
		<path class="st0" d="M89,91l-8.6-8.8c-0.5-0.5-0.9-0.7-1.4-1.3l-1.8-1.4c1.3-2,3.6-4,5.6-5.2l5.9,6.3c2.5-1.6,11.9-11.7,13.7-13
			l5,4.9c-2,2.9-6.7,6.3-9,9.4l-4.7,4.7C92.2,87.9,90.4,90.1,89,91z M70.3,76.4c0,7.7,1.3,11.9,6.8,17.5
			c13.3,13.5,36.7,2.5,36.7-14.2c0-7.4-1.3-11.9-6.7-17.3c-7.2-7.2-19.1-8.3-27.5-2.3C74.8,63.3,70.3,69.9,70.3,76.4z"/>
		<path class="st0" d="M65.1,132.4h54c4,0,3.2-5.2,0.7-5.2H64.3C61.8,127.2,60.7,132.4,65.1,132.4z"/>
		<path class="st0" d="M65.8,112.4h52.6c4.9,0,4.3-5.2,1.1-5.2H64.7C61.5,107.2,60.7,112.4,65.8,112.4z"/>
		<path class="st0" d="M62.2,119.1c0,1.6,0.2,3.2,2.5,3.2h54.7c3.4,0,3.8-5.2-1.1-5.2H65.8C64.2,117.1,62.2,117.6,62.2,119.1z"/>
		<path class="st0" d="M62.2,142.3c0,1.8,0.9,2.9,3.6,2.9h14.8c5,0,4.5-5.2,1.1-5.2H64.7C63.1,139.8,62.2,140.7,62.2,142.3z"/>
		<path class="st0" d="M62.2,99.1c0,4.3,3.2,3.2,8.5,3.2c3.6,0,7.2,0,10.8,0c-0.7-0.5-3.6-2-5.9-4c-2.9-2.2-2.5-1.4-10.4-1.4
			C63.8,97.1,62.2,98,62.2,99.1z"/>
		<path class="st0" d="M102.7,102.3c4.7,0,9.4,0,14,0c2.7,0,4.5,0.4,5.2-1.8c1.6-4.7-7-3.4-11.2-3.4c-0.9,0-2.3,1.6-4,2.7
			L102.7,102.3z"/>
		<path class="st0" d="M85.8,142.3c0,3.8,5.6,3.4,5.6,0.4C91.3,138.5,85.8,139.4,85.8,142.3z"/>
	</g>
</g>
</svg>
