<?xml version="1.0" encoding="utf-8"?>
<!-- Generator: Adobe Illustrator 23.0.3, SVG Export Plug-In . SVG Version: 6.00 Build 0)  -->
<svg version="1.1" id="Layer_1" xmlns="http://www.w3.org/2000/svg" xmlns:xlink="http://www.w3.org/1999/xlink" x="0px" y="0px"
	 viewBox="0 0 184.3 184.3" style="enable-background:new 0 0 184.3 184.3;" xml:space="preserve">
<style type="text/css">
	.st0{fill:#1D1D1B;}
</style>
<g id="Layer_x0020_1">
	<g id="_2747148141392">
		<path class="st0" d="M54.3,139.2c0,4.5-0.5,13.5,5.8,13c2.5-0.2,5.9-2.2,8.1-3.4c17.5-10.4,26.5-12.8,43.4-4.3l5,2.7
			c2.3,1.4,7.9,4.5,10.4,4.9c2.5,0.4,3.8-0.2,4.9-2.3c1.6-3.2,1.4-6.7,1.4-10.3c0-8.1-8.1-21.4-13.5-28.1
			c-4.5-5.6-10.4-11.2-17.3-13.9c-14.6-5.8-27,3.8-34.7,13.7c-3.1,4-5.9,7.9-8.3,12.6C57.9,127.1,54.3,134.5,54.3,139.2z"/>
		<path class="st0" d="M97.8,63.1c0,6.7,2.3,14.8,7.2,18.4c12.2,9.4,28.1-9,28.1-26.6c0-7.6-0.7-14-5.9-19.1
			c-4.3-4.3-10.1-4.5-15.5-1.4c-6.5,3.8-10.8,11.9-12.8,19.3C98.5,56,97.8,60.5,97.8,63.1z"/>
		<path class="st0" d="M51.9,53.2c0,7.4,2.5,15.1,5.4,19.6c2.7,4.5,8.8,11.2,14.2,11.2c5.6,0,8.6-1.3,12.1-6.5
			c5.8-8.8,4-24.3-1.1-32.9c-1.1-1.8-2.9-4.7-4.3-6.1c-1.6-1.6-4-3.6-6.1-4.7c-6.3-3.1-10.8-1.4-15.1,3.1
			C53.5,40.2,51.9,47.6,51.9,53.2z"/>
		<path class="st0" d="M21,89.5c0,3.1,1.3,6.5,2.2,8.5c5.4,10.8,18.9,18.4,26.1,11.3c5.6-5.4,2.3-14.6-1.6-20
			c-2.2-3.1-5-5.9-8.6-7.7c-4.9-2.3-11-4.1-15.5,0.4C22,83.8,21,87.2,21,89.5z"/>
		<path class="st0" d="M133.1,98.2c0,3.2,0.2,6.1,2.5,8.6c9.7,10.8,31.9-8.5,27-24.1c-2.3-7.6-11-7.9-17.3-4
			C139,82.7,133.1,90.6,133.1,98.2z"/>
	</g>
</g>
</svg>
