<?xml version="1.0" encoding="utf-8"?>
<!-- Generator: Adobe Illustrator 23.0.3, SVG Export Plug-In . SVG Version: 6.00 Build 0)  -->
<svg version="1.1" id="Layer_1" xmlns="http://www.w3.org/2000/svg" xmlns:xlink="http://www.w3.org/1999/xlink" x="0px" y="0px"
	 viewBox="0 0 184.3 184.3" style="enable-background:new 0 0 184.3 184.3;" xml:space="preserve">
<style type="text/css">
	.st0{fill:#FFFFFF;}
</style>
<g id="Layer_x0020_1">
	<g id="_2747398903072">
		<path class="st0" d="M22.4,56.9c0,3.2,2,6.1,4.5,7.4c2,1.1,2.3,0.9,5.2,0.9c1.4,0,1.8,0.2,2.9,0.4c1.3,0,1.4-0.4,2.9-0.4
			s1.8,0.2,2.9,0.4c1.1,0,1.3-0.4,2.9-0.4c1.4,0,1.8,0.2,2.9,0.4c1.1,0,1.4-0.4,2.9-0.4c1.4,0,1.8,0.2,2.9,0.4
			c1.3,0,1.4-0.4,2.9-0.4c1.4,0,1.8,0.2,2.9,0.4c1.8,0,0.5-0.4,5.4,0c1.3,0.2,1.4-0.2,2.5-0.2c0.4,0.9,0.5,1.8,0.9,2.7l2.5,7.9
			c-7,0-14.2,0-21.2,0C42.2,76,37,80.8,37,86.4v40.1c0,3.1,1.8,5.8,3.4,7.2c1.6,1.6,4.7,3.1,7.7,3.1h65.7c7.2,0,11-5,11.3-11.7
			c0.2-1.3-0.2-1.6-0.2-3.1c0-1.4,0.2-1.8,0.2-2.9c0-1.3-0.2-1.4-0.2-2.9c0-1.4,0.2-1.8,0.2-2.9c0-1.1-0.2-1.3-0.2-2.9
			c0-1.4,0.2-1.8,0.2-2.9c0-1.1-0.2-1.4-0.2-2.9c0-1.4,0.2-1.8,0.2-2.9c0-1.3-0.2-1.4-0.2-2.9c0-1.4,0.2-1.8,0.2-2.9
			c0-1.1-0.2-1.4-0.2-2.9c0-1.4,0.4-2,0.2-3.1c0-2.9-0.4-6.3-1.6-8.6c-1.6-2.7-4.7-5.2-8.6-5.4c-4-0.2-22.5,0-28.1,0l-7.7-24.3
			c-0.2-0.9-0.5-2.9-1.6-2.9H31.6c-3.8,0-6.7,1.6-8.3,4.7C23.1,53.8,22.4,55.8,22.4,56.9z"/>
		<path class="st0" d="M141.2,94.9h-10.6v22.3h10.6c1.1,0,3.6,4.9,4.5,5.9l5.8,8.6c0.5,0.7,0.9,1.8,1.8,1.8h10.6V78.7
			c-12.6,0-10.4-1.3-13.7,3.8c-0.9,1.4-1.8,2.9-2.9,4.3c-1.1,1.4-1.8,2.9-2.9,4.3C143.5,92.2,142.1,94.9,141.2,94.9z"/>
		<path class="st0" d="M115.8,53.1h-14.4c-8.8,0-7,11.2-1.4,11.2h15.8c0,2.2,0.9,3.8,2.7,4.7c2.2,1.4,4,0.7,6.5,0.7
			c1.4,0,1.8,0.2,2.9,0.4c1.3,0,1.4-0.4,2.9-0.4c1.4,0,1.8,0.2,2.9,0.4c1.1,0,1.4-0.4,2.9-0.4c7.4,0,6.7-2.9,7.2-9.2
			c0.2-1.3-0.2-1.6-0.2-3.1c0-2.5,0.5-4.5-0.5-6.7c-0.7-1.6-2.9-3.1-4.9-3.1h-16.6C118.3,47.7,116,50,115.8,53.1z"/>
		<path class="st0" d="M20.4,87.5v21.4h11.2V86.6H21.3C20.6,86.6,20.4,86.8,20.4,87.5z"/>
	</g>
</g>
</svg>
