<?xml version="1.0" encoding="utf-8"?>
<!-- Generator: Adobe Illustrator 23.0.3, SVG Export Plug-In . SVG Version: 6.00 Build 0)  -->
<svg version="1.1" id="Layer_1" xmlns="http://www.w3.org/2000/svg" xmlns:xlink="http://www.w3.org/1999/xlink" x="0px" y="0px"
	 viewBox="0 0 184.3 184.3" style="enable-background:new 0 0 184.3 184.3;" xml:space="preserve">
<style type="text/css">
	.st0{fill:#FFFFFF;}
</style>
<g id="Layer_x0020_1">
	<g id="_2747155358752">
		<path class="st0" d="M56.8,104h70.6v41H56.8V104z M50.7,121.4H39.2v-47H145v47h-11.5V98H50.7V121.4z M56.8,39.2h47V62
			c0,0.5,0.2,0.9,0.9,0.9h22.9v5.6H56.8V39.2z M109.7,41.9l14.9,14.8h-14.9V41.9z M50.7,68.3h-11c-3.6,0-6.7,2.5-6.7,6.1v46.6
			c0,1.8,0.5,3.4,1.4,4.3c0.7,0.9,2.3,2,4.1,2h12.1v23.8h82.8v-23.8h12.1c3.2,0,5.6-3.1,5.6-6.3V74.5c0-3.4-3.1-6.1-6.7-6.1h-11v-11
			c0-0.7-0.9-1.3-1.3-1.8l-7.6-7.6c-0.5-0.5-0.9-1.1-1.4-1.6c-2-1.8-13.1-13.3-14-13.3H50.7V68.3z"/>
		<path class="st0" d="M62.6,122.2v5.2h59c0-3.8,0.5-6.1-0.9-6.1H63.5C62.8,121.4,62.6,121.6,62.6,122.2z"/>
		<polygon class="st0" points="62.6,115.9 121.6,115.9 121.6,109.7 62.6,109.7 		"/>
		<polygon class="st0" points="62.6,139.3 121.6,139.3 121.6,133.1 62.6,133.1 		"/>
		<path class="st0" d="M127.4,83.1c0,4.9,6.1,4,6.1,0.4C133.5,79.3,127.4,79.3,127.4,83.1z"/>
		<path class="st0" d="M115.7,83.3c0,4.1,6.1,3.6,6.1,0.2C121.6,79,115.7,79.5,115.7,83.3z"/>
	</g>
</g>
</svg>
