<?xml version="1.0" encoding="utf-8"?>
<!-- Generator: Adobe Illustrator 23.0.3, SVG Export Plug-In . SVG Version: 6.00 Build 0)  -->
<svg version="1.1" id="Layer_1" xmlns="http://www.w3.org/2000/svg" xmlns:xlink="http://www.w3.org/1999/xlink" x="0px" y="0px"
	 viewBox="0 0 184.3 184.3" style="enable-background:new 0 0 184.3 184.3;" xml:space="preserve">
<style type="text/css">
	.st0{fill:#FFFFFF;}
</style>
<g id="Layer_x0020_1">
	<g id="_2748599382784">
		<path class="st0" d="M49.4,164.5c2.7-2.3,5.6-5.6,7.7-8.3c2.5-2.9,8.1-9.9,10.4-13.1c0.5-0.7,1.1-1.4,1.6-2.2
			c0.5-0.7,1.3-1.4,1.6-2.2c0.5-0.9,1.1-1.6,1.6-2.3l4.7-6.7c0.4-0.5,0.4-0.7,0.7-1.3c2-2.5,3.6-5.6,5.2-8.1
			c0.4-0.4,0.5-0.7,0.9-1.3l5.2-8.1c1.1-1.6,1.8-3.2,2.9-4.7c1.1-1.6,1.8-3.1,2.9-4.7c1.1-1.6,1.8-3.1,2.9-4.9l2.9-4.7
			c-0.2-0.4-11.9-7.6-13.5-8.3l-11.5,19.1c-0.5,0.9-0.9,1.6-1.4,2.5c-0.2,0.5-0.5,0.7-0.7,1.3c-0.2,0.5-0.5,0.7-0.7,1.1l-4.1,7.2
			c-0.5,0.9-0.7,1.6-1.3,2.5l-10.3,19.6c-0.9,1.8-1.6,3.2-2.3,4.9c-1.6,3.4-3.1,6.7-4.5,10.3c-0.7,1.8-3.6,9.4-3.6,10.8L49.4,164.5z
			"/>
		<path class="st0" d="M106,79.7l-1.3-0.7c0.2-0.7,23.4-39.1,26.6-44.3c0.4-0.7,0.7-0.9,1.6-0.7c0.5,1.3-2.2,4.7-2.9,5.9
			c-1.3,2-2.3,3.8-3.4,5.6L106,79.7z M106.3,82.8c0.7-0.9,1.6-2.5,2.2-3.6l6.3-10.4c2.9-4.7,5.6-9.2,8.5-13.9
			c1.4-2.2,12.2-19.4,12.4-21.1c0.5-3.4-2.9-4.9-5.2-6.1c-2.3-1.4-5.2-3.8-7.9-1.6c-1.3,1.1-11.5,18.5-13,20.7
			c-0.5,0.9-16.4,26.8-16.7,27.9L106.3,82.8z"/>
		<path class="st0" d="M120.4,26.6c-2.2-2-6.8-2.3-9,1.1c-0.4,0.7-0.9,1.3-1.3,2c-1.3,2.2-1.6,3.1-2.9,5c-0.9,1.3-2,3.6-3.6,6.1
			c-0.7,1.3-2,3.8-2.9,5c-1.6,2.5-2.2,3.8-3.4,5.9l-4.9,8.1c-0.7,1.3-1.6,2.9-2.3,4c-1.1,1.4-1.6,2.5-2.3,4l-4.7,8.1
			c-0.9,1.3-1.6,2.7-2.3,4c-1.1,1.8-1.8,2.7,0.7,4c1.4-2.2,2.7-4.7,4.1-6.8c2.7-4.7,25.9-43,26.6-43.9c1.6-1.6,2.7-0.7,4.1-0.4
			L120.4,26.6z"/>
		<path class="st0" d="M88.3,82c0,0,0.4,0.4,0.5,0.5l9.7,5.8c0.9,0.5,2.5,1.8,3.4,2c0.5-0.7,3.2-4.9,3.2-5.6
			c-0.5-0.5-12.8-8.1-13.5-8.1L88.3,82z"/>
		<path class="st0" d="M134.4,28c1.3-1.8,2.3-3.8,3.6-5.8c1.8-3.1,2.5-3.6-0.9-5.6c-3.6-2.2-3.2-1.1-7,4.9c-0.5,0.9-1.3,1.8-1.6,2.9
			L134.4,28z"/>
		<path class="st0" d="M46.4,164.5c-0.5,1.6-2.7,3.4-1.1,4c0.9,0.4,1.4-0.7,1.6-1.3c0.4-0.7,0.9-1.3,1.1-2c-0.4-0.4-0.4-0.4-0.9-0.5
			C46.9,164.5,47.1,164.5,46.4,164.5z"/>
	</g>
</g>
</svg>
