<?xml version="1.0" encoding="utf-8"?>
<!-- Generator: Adobe Illustrator 23.0.3, SVG Export Plug-In . SVG Version: 6.00 Build 0)  -->
<svg version="1.1" id="Layer_1" xmlns="http://www.w3.org/2000/svg" xmlns:xlink="http://www.w3.org/1999/xlink" x="0px" y="0px"
	 viewBox="0 0 184.3 184.3" style="enable-background:new 0 0 184.3 184.3;" xml:space="preserve">
<style type="text/css">
	.st0{fill:#FFFFFF;}
	.st1{fill:none;}
</style>
<g id="Layer_x0020_1">
	<path class="st0" d="M116.9,147.3c2.9-4.1,5.6-8.6,7.6-13.3c0.5-1.6,1.3-3.6,2-5c1.6,0,11.3,1.6,12.2,2c-0.4,1.1-1.4,1.8-2.2,2.5
		c-0.9,0.9-1.6,1.6-2.3,2.3C130.5,139.6,121.4,146.3,116.9,147.3z M45.8,130.8c1.1-0.5,10.3-2,12.2-2c1.8,3.4,3.1,8.1,6.7,14.2
		c0.9,1.4,1.8,2.9,2.9,4.1c-4.3-0.9-11.2-5.9-14.8-9c-2.2-1.8-4.7-4.3-6.5-6.5C45.6,130.8,45.9,131.3,45.8,130.8z M96.5,152.2v-25.4
		c1.8,0,3.6-0.2,5.2,0.2l15.1,1.1c-0.7,2.9-3.8,8.6-5.4,11.3C108.6,144.1,102.3,150.8,96.5,152.2z M67.4,127.9l9.7-0.9
		c3.8-0.2,6.7-0.2,10.6-0.2v25.4c-5-1.3-9.7-5.9-12.6-9.7c-1.6-2-3.2-4.5-4.3-6.8C68.4,131.5,68.6,130.6,67.4,127.9z M31.9,96.6
		h20.5c0,11,3.1,21.4,3.1,23.4c-2.9,0.2-13.3,2.5-15.8,2.5C35.5,114.6,31.9,105.8,31.9,96.6z M144.4,122.5c-0.9,0-11.5-2.5-15.3-2.5
		l2-10.8c0.5-4.3,1.1-7.7,1.1-12.6h20.5c0,5.4-3.1,15.7-5.2,20.3C146.9,117.6,144.9,122.5,144.4,122.5z M119.9,119.1
		c-3.2-0.7-7.6-0.4-11.2-0.9c-4-0.5-8.6,0.4-12.1-0.4V96.6h26.6c0,1.3-0.2,1.3-0.2,2.9c0,1.4-0.2,2-0.2,3.1
		C121.9,109.5,121.5,111.9,119.9,119.1z M60.9,96.6h26.6v20.5c0,1.1-1.1,0.9-2.2,0.9h-6.1c-1.4,0-1.6,0.4-3.1,0.4
		c-4.1,0-8.1,0.5-11.9,0.9C61.2,105.8,62.3,107.6,60.9,96.6z M96.5,66.3c2.9,0.5,21.1-0.9,23.4-1.1c1.1,4.5,3.1,14.6,3.1,19.4
		c0,1.6,0.2,1.8,0.2,3.1H96.5V66.3z M64.3,65.1c3.1,0.7,13.1,1.1,17.3,1.1l6.1,0.2v21.1H60.9c0.4-4,0.7-7.9,1.3-11.7
		C62.7,72.3,63.6,68.7,64.3,65.1z M129.1,64.4c2.2,0,5.6-0.7,7.7-1.1l7.7-1.4c2.5,4.7,3.2,6.3,5.2,11.7c0.7,2.2,1.3,4.1,1.8,6.5
		c0.4,1.8,1.1,5.4,1.1,7.6h-20.5c0-4.9-0.5-8.3-1.1-12.6L129.1,64.4z M52.1,86.9v0.9H31.5c0-2.3,0.5-5.2,1.1-7.4
		c0.7-3.6,2.7-9.5,4.1-12.8l2.9-5.8l15.5,2.5l-2,10.8C52.6,78.6,52.1,82.7,52.1,86.9z M97.4,57.3h-0.9V32.1
		c5.2,1.3,9.7,5.9,12.6,9.5c2.5,3.2,4.5,6.8,6.1,10.6c0.5,1.4,1.3,2.5,1.6,4c-2.9,0-6.3,0.7-9.4,0.9C103.9,57.2,101,57.3,97.4,57.3z
		 M87.7,32.1v25.2l-20.3-1.1c0.5-2.7,3.8-8.8,5.4-11.3C75.6,40.2,81.9,33.4,87.7,32.1z M116.9,37.2c5.9,1.4,15.1,8.8,19.6,13.5
		c0.5,0.7,2,2.2,2.2,2.9c-1.1,0.5-10.3,2-12.2,2c-1.8-3.6-2.9-7.7-6.7-14.2C118.7,39.9,117.8,38.6,116.9,37.2z M57.6,55.2
		c-1.8,0-11.2-1.3-11.9-1.6c0.4-1.3,3.4-4.1,4.3-5c3.6-3.6,12.8-10.6,17.3-11.7c-3.8,5.6-4.9,7.4-7.6,13.3
		C59.4,51.2,58.2,55.2,57.6,55.2z M22.4,91.5c0,15.1,4.3,28.1,12.6,40.3c1.3,1.8,2.3,3.2,3.8,4.9c2.5,3.2,4.9,5.2,7.6,7.7
		c0.5,0.5,0.7,0.7,1.3,1.1c19.8,15.8,43.2,20.5,67.7,12.4c8.3-2.7,15.3-7.2,22-12.4c2.2-1.8,6.7-6.3,8.5-8.5l4.5-6.1
		c11.2-15.5,14.4-36.4,10.1-54.7c-1.1-4.9-2.7-8.6-4.3-12.8c-2.3-5.6-6.5-11.2-10.1-15.8l-4.1-4.7c-2.7-2.5-6.3-5.9-9.4-7.9
		c-12.2-8.1-23.9-12.6-40.5-12.6c-5.6,0-10.8,0.7-15.3,1.8c-9,2-16.4,5.8-23.8,10.6c-0.9,0.5-1.6,1.1-2.5,1.8l-3.6,3.1
		c-5.8,5-8.6,8.5-13,15.1c-4.5,7-7,13-9.2,21.2C23.1,80.6,22.4,86,22.4,91.5z"/>
	<rect x="90" y="93.5" class="st0" width="65.2" height="65.2"/>
	<polyline class="st1" points="101.2,129.7 119.2,146.6 149.8,104.7 	"/>
	<polygon points="104.3,126.5 118.5,140 146.2,102 153.4,107.2 122.8,149.3 119.7,153.5 116.1,150 98.1,132.9 	"/>
</g>
</svg>
