<?xml version="1.0" encoding="utf-8"?>
<!-- Generator: Adobe Illustrator 23.0.3, SVG Export Plug-In . SVG Version: 6.00 Build 0)  -->
<svg version="1.1" id="Layer_1" xmlns="http://www.w3.org/2000/svg" xmlns:xlink="http://www.w3.org/1999/xlink" x="0px" y="0px"
	 viewBox="0 0 184.3 184.3" style="enable-background:new 0 0 184.3 184.3;" xml:space="preserve">
<style type="text/css">
	.st0{fill:#FFFFFF;}
</style>
<g id="Layer_x0020_1">
	<g id="_2747160442976">
		<path class="st0" d="M146.8,82.6h9.5v9.5h-9.5V82.6z M132.8,82.6h9.5v9.5h-9.5V82.6z M104.3,82.6h9.5v9.5h-9.5V82.6z M90.1,82.6
			h9.5v9.5h-9.5V82.6z M146.8,63.7h9.5V73h-9.5V63.7z M132.8,63.7h9.5V73h-9.5V63.7z M118.6,63.7h9.5V73h-9.5V63.7z M104.3,63.7h9.5
			V73h-9.5V63.7z M90.1,63.7h9.5V73h-9.5V63.7z M118.2,49.6c0-7,10.1-7.2,10.1,0C128.3,55.9,118.2,55.9,118.2,49.6z M120.9,35.4
			L104,45.1c-5,2.9-4.5,2.9-4.5,8.8H85.8c-2.9,0-5.2,2.3-5.2,5.4v36.7c0,2.9,2.3,5.2,5.2,5.2h32.6V82.6h9.5v18.9h32.6
			c2.9,0,5.2-2.3,5.2-5.2V59.5c0-2.9-2.3-5.4-5.2-5.4h-13.7c0-5.6,0.7-5.8-4.3-8.6l-14.4-8.3c-3.1-1.8-2.7-0.2-2.7-6.5h9.7
			c2.9,0,2-3.1,2-7.4c0-1.4-0.7-2-2-2h-11.5c-3.4,0-2.9,4.1-2.9,5.6C120.9,29.7,120.9,32.5,120.9,35.4z"/>
		<path class="st0" d="M37.4,113c-5.6-3.1-3.6-4.7-1.8-14c0.2-1.3,0-1.1,1.3-2.9l4.3-3.6L37.4,113z M18.5,111.7
			c0,3.1,0.9,5.2,3.6,6.8c1.3,0.7,5.6,1.8,7.4,1.8c3.2,0,2.2-4.1,3.2-6.3c2.3,1.6,0.4,0.5,4.1,2.7c0,4-0.9,5.6,3.8,9.4l14.2,11.2
			c1.4,1.3,0.9,1.4,1.8,5.4c0.5,2.7,1.1,5.2,1.6,7.9l1.6,7.7c0.4,1.3,0.7,2.3,1.6,3.2c2.9,3.1,9.4,1.6,9.4-3.8
			c0-2.2-3.4-19.1-4-21.4c-0.9-5-1.1-4.3-4.9-7.7c-0.7-0.5-0.9-1.1-1.6-1.6c-1.1-0.9-4.5-4.1-5.4-4.3c0-1.4,0.4-3.2,0.5-4.7
			l2.7-14.6c0.2,0.9,2,4,2.5,4.5c0.9,1.3,13,7.9,14.2,7.9c3.6,0,5.2-1.6,5.2-5.2c0-3.1-6.7-5.9-9.9-7.7c-2.9-1.6-2.7-1.8-4.3-4.5
			c-7.2-11.7-5.4-10.1-15.7-11.5c-1.6-0.2-2.5-0.4-3.6-0.2c-4.1,0.5-5.9,2.3-9.2,4.5c0.2-1.8,1.6-5-4-5c-2.9,0-3.6,3.2-4.9,5.2
			c-1.3,2.2-2.3,4.5-3.6,6.8C23.7,100.2,18.5,109.8,18.5,111.7z"/>
		<path class="st0" d="M25.5,156.7v1.4c0,2.2,2.5,4.7,4.7,4.7c5,0,5.6-2.5,8.5-8.3l5.4-10.3c1.4-2.9,2.7-3.4,2.7-7.7
			c-1.1-0.2-0.7-0.2-1.4-0.9l-9.5-7.7c0,8.3,0.9,6.5-2.2,12.4C32.3,143.1,25.5,155.1,25.5,156.7z"/>
		<path class="st0" d="M46.9,72.5c0,10.4,11,12.8,16.4,7.2c1.6-1.6,2.5-3.6,2.5-6.7c5,0,9.5,0.9,9.5-2.3c0-3.4-5.2-2.3-10.6-2.3
			C58.4,59.2,46.9,64.6,46.9,72.5z"/>
	</g>
</g>
</svg>
