<?xml version="1.0" encoding="utf-8"?>
<!-- Generator: Adobe Illustrator 23.0.3, SVG Export Plug-In . SVG Version: 6.00 Build 0)  -->
<svg version="1.1" id="Layer_1" xmlns="http://www.w3.org/2000/svg" xmlns:xlink="http://www.w3.org/1999/xlink" x="0px" y="0px"
	 viewBox="0 0 184.3 184.3" style="enable-background:new 0 0 184.3 184.3;" xml:space="preserve">
<style type="text/css">
	.st0{fill:#FFFFFF;}
</style>
<g id="Layer_x0020_1">
	<path class="st0" d="M30.7,121.7V109V97.8V85.9V74.2V62.3V50.6v-4.1H23l-0.4-0.2c-0.9-0.7-2.2-2-1.8-3.2c0.9-3.2,11.3-2.2,14.2-2.2
		c18,0,36.4,0.7,54.4,0c0-2.7-0.4-5.8,0.7-8.3l0.4-0.5l4-0.2l0.2,0.7c1.1,2.3,0.7,5.6,0.7,8.3l68,0.2l-0.5,5.6l-8.6,0.2L154,51v11.7
		v11.9v11.7v11.9v11.7l-0.2,12.2c0.9,0,1.8-0.2,2.7-0.2c1.8-0.2,5.2-0.4,6.5,1.6c0.5,0.9,0.4,2,0,2.9l-0.2,0.7l-47.2,0.9
		c0.7,2.2,5.2,8.8,6.3,10.6c2,3.1,7.4,9.2,5.9,13l-0.2,0.5l-0.5,0.2c-3.6,0.9-4.1-0.9-5.4-3.4c-0.9-1.3-1.3-2.2-2.7-3.2l-0.4-0.2
		V145c-0.5-2.5-4.7-8.3-6.3-10.4v-0.2l-0.2-0.2c-0.4-0.9-0.9-1.8-1.6-2.5c-0.2-0.4-0.4-0.7-0.5-0.9c-0.4-0.4-0.5-0.5-0.9-0.9
		l-0.4-0.4l-0.2-1.4H98.2l-2.9,0.2c0,5.9,0.7,20.2-0.7,23.8l-0.4,0.7l-3.8-0.2l-0.2-0.5c-0.9-2.5-0.9-10.3-0.9-13.1
		c0-3.4,0.2-7,0.2-10.6h-3.1l-10.3,0.2l-0.4,1.3l-0.2,0.4c-0.4,0.4-0.7,0.4-1.1,0.9c-0.9,0.9-1.6,2.3-2.2,3.6v0.2l-0.2,0.2
		c-1.8,2.2-5.8,7.7-6.3,10.3l-0.2,0.5l-0.4,0.2c-1.4,0.9-1.6,2-2.5,3.2c-1.3,2.5-2,4.3-5.6,3.6l-0.5-0.2l-0.2-0.5
		c-1.3-3.6,5-11.7,7.2-14.6c1.6-2.5,4.1-5.8,5.4-8.8H23.9h-0.2c-4-0.7-4-4.9,0-5.8c1.1-0.2,3.1-0.2,4.3,0
		C28.9,121.7,29.8,121.7,30.7,121.7z M36.5,46.7l0.2,74.7c0.4,0,0.5,0,0.9,0c1.3,0.2,2.5,0.2,4,0.2c4.3,0.2,8.6,0.2,13,0.2
		c12.8,0.2,25.4,0.2,38,0.2c12.8,0,25.4,0,38-0.2c4.3,0,8.6-0.2,13.1-0.2c1.3,0,2.5,0,4-0.2c0.2,0,0.5,0,0.9,0l-0.2-74.9L36.5,46.7z
		 M40.6,55c-0.4-5.2,5.4-4,8.6-4c2.5,0,8.3-0.9,9.9,1.4c0.5,0.5,0.7,1.4,0.5,2.2c-0.9,2.7-7.4,2.5-9.5,2.5c-1.8,0-7.6-0.4-9-1.3
		l-0.5-0.4C40.6,55.5,40.6,55,40.6,55z M40.6,72.6c-0.2-5.4,4.5-4.1,8.1-4c3.1,0,7-0.7,9.9,0.7l0.4,0.2l0.2,0.4
		c0.5,1.1,0.5,2.3-0.2,3.4c-1.4,1.8-5.2,1.1-7.4,1.1c-3.2,0-7.6,0.5-10.4-0.7l-0.5-0.2V72.6z M42.1,60.4c1.6-0.7,7.2-0.9,8.5-0.9
		c2.2,0,8.5-0.2,9.2,2.5c0.4,0.9-0.2,1.6-0.7,2.3c-2,2.3-8.1,1.3-10.8,1.3c-2.3,0-7,0.9-7.6-2.3C40.5,61.8,40.5,60.5,42.1,60.4z
		 M102.4,80.3c-5.6,0-4.3-4-4.3-7.7c0-3.8-0.2-7.6,0-11.2c0-1.8,0.2-4.5,1.8-5.8c2.2-1.6,6.7,0.2,9,1.1c2.5,0.9,4.9,2.5,6.8,4.3
		c4.5,4.1,9.4,12.4,7,18.5l-0.2,0.5l-0.7,0.2C115.5,80.7,108.9,80.3,102.4,80.3z M97,81.2l25.2,0.2l0.2,0.2
		c3.4,2.7,1.1,10.3-0.4,13.5c-2.9,6.7-8.3,12.4-14.8,15.8c-7.7,4-16.6,4.3-24.7,0.7c-15.8-7-23.2-25-15.5-40.7
		c3.4-6.7,9.4-11.9,16.2-14.8c2.7-1.3,11-3.6,13.1-0.2l0.2,0.2L97,81.2z M103.8,61.1v13.3h13.3C116.1,67.6,110.8,62.3,103.8,61.1z
		 M91.2,60.4c-8.3,1.1-15.8,6.5-19.3,14.2c-3.6,8.8-2.2,18.7,4.3,25.7c7.2,7.7,17.8,9.9,27.4,5.9c7.9-3.2,13.3-11,14.4-19.3
		l-26.6-0.4L91.2,60.4z"/>
</g>
</svg>
