<?xml version="1.0" encoding="utf-8"?>
<!-- Generator: Adobe Illustrator 23.0.3, SVG Export Plug-In . SVG Version: 6.00 Build 0)  -->
<svg version="1.1" id="Layer_1" xmlns="http://www.w3.org/2000/svg" xmlns:xlink="http://www.w3.org/1999/xlink" x="0px" y="0px"
	 viewBox="0 0 184.3 184.3" style="enable-background:new 0 0 184.3 184.3;" xml:space="preserve">
<g id="Layer_x0020_1">
	<g id="_2748586251872">
		<path d="M111.9,123.3c5.2-1.8,7.7,6.5,2.5,8.1C109.2,132.9,106.3,125.3,111.9,123.3z M44.4,165.6H140v-16.9h-4.9
			c-1.4-2.2-2.9-4.7-4.3-7l-8.5-14.2c-1.8-2.9-2.2-4.9-4.5-6.7c-4.3-3.2-13-1.3-13.3,6.5c-0.2,4-0.5,18.5-0.9,21.6H44.2L44.4,165.6z
			"/>
		<path d="M96.6,15.3l1.3,0.5l-4.7,16.4l-9.7-2.7c-0.5,2.5-2.5,7.4-2.5,9.4l4,1.3L73.6,80.9l-2.3-0.5l-3.6,12.4l7.2,2.2l-1.1,4.3
			c0.9,0.5,2,0.5,2.9,1.1l-1.1,4l8.6,2.5l1.3-4l2.9,0.7l1.3-4.5l7.4,2l3.6-12.4l-2.2-0.5l2.9-10.8c-3.1-1.8-5-3.1-6.8-6.3
			c-3.4-6.3-1.6-14.8,4.1-18.9c3.6-2.5,5.4-2.7,10.6-2.9l0.5-1.8l4.1,1.1l2.5-9.4l-9.5-2.7l4.7-16.4l1.4,0.2l1.4-5.2l-16.2-4.7
			C97.5,11,96.8,13.9,96.6,15.3z"/>
		<path d="M106.1,58.4c2.7-0.5,5,1.6,5.6,3.8c0.5,3.1-1.4,5.2-3.8,5.8C101.6,69.2,99.7,59.6,106.1,58.4z M119.5,117.8
			c5.4,4,4,6.1,6.3,8.5c0.7-0.4,0.9-0.9,1.4-1.4c2-2,2.2-2,4.3-4.9c5.6-8.1,8.5-17.6,7-28.3c-1.8-11.9-9.4-23-19.6-28.3
			c-0.2-5.4-3.4-9.2-7.4-10.6c-5.8-2.2-10.6,0.5-13.1,3.6c-6.8,8.3,1.3,21.4,12.2,18c0.7-0.2,3.1-1.4,3.1-1.4
			c1.3-0.2,6.3,4.5,7.6,5.9c0.7,0.9,1.3,1.4,2,2.5c0.5,0.9,1.3,1.8,1.8,2.9c1.1,2,2,4.1,2.5,6.7c1.8,7.6,0.2,15.7-4,22
			C122.2,115.1,120.7,116.1,119.5,117.8z"/>
		<path d="M47.5,119.2c0.9,0.5,2.7,0.9,4,1.3c1.3,0.4,2.7,0.7,4,1.1c2.7,0.7,5.2,1.6,7.9,2.3l15.8,4.5l-1.3,3.2
			c5.2,0.9,18,5.6,23,4.3l0.5-10.6c-1.3-0.2-5.8,0-6.7-0.7c-0.5-0.5-0.2-0.5-1.4-0.9l1.1-4l-43.7-12.2L47.5,119.2z"/>
		<polygon points="115.5,174.1 134.8,174.1 134.8,168 115.5,168 		"/>
		<polygon points="49.6,174.1 68.9,174.1 68.9,168 49.6,168.2 		"/>
	</g>
</g>
</svg>
