<?xml version="1.0" encoding="utf-8"?>
<!-- Generator: Adobe Illustrator 23.0.3, SVG Export Plug-In . SVG Version: 6.00 Build 0)  -->
<svg version="1.1" id="Layer_1" xmlns="http://www.w3.org/2000/svg" xmlns:xlink="http://www.w3.org/1999/xlink" x="0px" y="0px"
	 viewBox="0 0 184.3 184.3" style="enable-background:new 0 0 184.3 184.3;" xml:space="preserve">
<style type="text/css">
	.st0{fill:#FFFFFF;}
</style>
<g id="Layer_x0020_1">
	<g id="_2748603188592">
		<path d="M68.9,123.1l5.9-9.4c1.3-2,0.9-2,3.4-2.2l-0.2,20.3L68.9,123.1z M85.4,85.1c-3.2,1.6-5.2-0.2-3.4-3.2
			C85.1,80.9,86,82,85.4,85.1z M98.6,75c1.3,0.5,3.6,4.1,4.3,5.8l-6.5,10.6L98.6,75z M83.6,79c-2-1.8-1.8-1.8-0.7-4.1
			c4-0.4,4,0.7,3.4,4L83.6,79z M27.5,21.4l14.4,23c0.5,2.9-1.6,3.2,0.5,7.6l9.7,18l16.2-1.8c1.4,6.5-2.3,23.6-3.2,31.1
			c-1.3,9.4-12.1,18.4-12.6,23.6c-0.7,8.3,21.6,22,25.2,28.6c3.1,5.8-3.8,7.6,5,12.8h3.8c4.9-2.7,5.6-3.1,5.9-10.4
			c0.5-12.6-0.5-34.9,1.3-43.7c0.7-3.1-0.7-2.9,6.3-2.7v53.8h54v-53.8l2.7-0.2v-4.5H94.8l0.5-4c6.7,6.8,9.7-1.3,11.9-4.7
			c1.8-2.7,7.4-10.8,8.1-13.3c-2.5-4.3-5.8-8.6-8.8-12.6c-3.1-4-5.9-9-13.9-8.1c-2.7,2.9-4.5,7.2-7.2,10.1l2.3-11l-1.3-0.5
			c-0.9-0.4-1.6-0.4-2.5-0.5l-0.2,11.7c-2.7-4.3-2.3-10.8-5.4-12.4C75.4,55.7,62,58.3,57,58.1c-7.6-9.5-4-15.3-12.6-14.8L29.8,19.9
			l-2.3,0.4V21.4z"/>
		<path d="M85.1,35c-14.8,3.8-8.8,24.7,5.2,20.9C103.3,52.3,98.8,31.4,85.1,35z"/>
		<path class="st0" d="M96.4,91.6l6.5-10.6c-0.7-1.6-2.9-5.2-4.3-5.8L96.4,91.6z"/>
	</g>
</g>
</svg>
