<?xml version="1.0" encoding="utf-8"?>
<!-- Generator: Adobe Illustrator 23.0.3, SVG Export Plug-In . SVG Version: 6.00 Build 0)  -->
<svg version="1.1" id="Layer_1" xmlns="http://www.w3.org/2000/svg" xmlns:xlink="http://www.w3.org/1999/xlink" x="0px" y="0px"
	 viewBox="0 0 184.3 184.3" style="enable-background:new 0 0 184.3 184.3;" xml:space="preserve">
<g id="Layer_x0020_1">
	<path d="M33.8,124.8c-1.3-1.8-3.2-3.2-2.5-6.3c0.5-2.5,2.2-3.8,4.3-4.5l2.2,11L33.8,124.8z M160.7,45.2c2.2-2,6.7-4.9,7.4-7.9
		c1.3-5.6-5.2-6.8-7.7-3.6c-2.3-3.4-9-1.6-7.6,4C153.5,40.2,158.6,44.3,160.7,45.2z M86.7,56.2c1.1-1.3,3.2-2.5,4.7-3.6
		c9.4-7.9,0.7-15.3-4.7-9.7c-0.2,0-0.2-0.4-0.4-0.2c0,0.2-0.2-0.2-0.4-0.2l-1.8-1.3C77.6,38.8,72.7,48.8,86.7,56.2z M101.1,77.5
		c2.9-2,8.3-5.6,9.5-9.5c2-6.5-4.9-9.2-9.5-4.9c-4.7-4.1-11.3-1.6-9.7,4.9C92.5,71.9,98.1,75.3,101.1,77.5z M129.4,64.7
		c3.4-1.6,12.2-9,13.9-13.9c2.3-7-3.8-11.3-9.7-9.9c-0.9,0.2-1.8,0.7-2.3,1.3c-0.5,0.5,0,0.2-0.7,0.7c-0.2,0-0.2,0.2-0.2,0.2
		l-0.9,0.7c-2.5-2.7-5.2-4.3-9.9-2.3c-3.4,1.4-5.2,5.2-3.8,9.5C117.7,57.1,124.7,60.9,129.4,64.7z M32.7,138.5c1.4,0,2.9,0,4.3,0
		l2.9,0.2c0.2,0,0.4,0.2,0.4,0.2c0.2,0,0.4,0.2,0.5,0.2c1.1,5.2-0.7,9.2-5,10.3c-2.2,0.5-2.9,0-4.3-0.9c2.5-0.4,3.6-1.6,4-4
		c0.2-1.3,0-2.2-0.5-3.2l-1.8-2.5C33.1,138.7,32.9,138.7,32.7,138.5z M50.4,136.3l-7.9,0.2l-1.1-5.2c2.2-1.8,4.1-2.3,5.4-4.5h48.6
		v4.9c-4-1.6-6.8-0.2-9.7,1.8c-4.9,3.4-1.1,3.2-9.5,3.2C67.7,136.7,59,136.3,50.4,136.3z M19.2,127c7.9,0.2,2.3,0,8.6,3.4
		c3.2,1.8,7,2.3,11.3,1.6l0.9,4.7H17.4c-2.7,0.2-1.8-0.5-2.3,1.1c0,1.6,1.8,0.9,5.8,1.1c2.3,0.2,4.7-0.2,6.8,0
		c-2.3,2.3-4.3,3.2-2.5,8.5c3.2,9,22,5.9,17.6-8.3l38.5-0.2c0.5,2.2,0.2,3.4,2,4.7c1.4,0.9,3.4,1.1,5.4,0.9c4.3-0.4,5.9-2.9,8.1-5.4
		c17.1-0.9,44.5-0.2,63.5-0.2h7c1.4-0.2,0.9,0.4,1.4-0.9c0-1.1-0.7-1.1-3.4-1.1c-21.8,0.5-45.9-0.2-68,0V127l4,0.2
		c12.1-0.2,4.1,0.4,8.6,3.8c1.3,0.9,3.4,1.6,5.2,1.3c4-0.5,6.5-2.5,8.1-5L167,127c2.9-0.2,1.3,0.5,1.8-0.9c0-1.3-0.7-0.9-4.3-0.9
		H147c-7.7,0-15.7,0.2-23.2,0l0.2-10.8h8.5l-2.2,5.8c3.2-0.2,1.8-1.3,4.7-5.8h5.2c1.4,7.6,10.3,6.1,14.9,0.2h11
		c2.9,0,2.3,0.4,2.9-1.3c-0.7-1.3,0-0.9-2.3-0.9h-10.8l0.2-10.1l10.6,0.2c2.5-0.2,1.8,0.4,2.3-1.1c0-1.8-2.2-1.1-5.9-1.1
		c-2.3,0-4.7,0-7.2,0V89.9h10.6c2.5-0.2,1.8,0.4,2.3-1.1c0-1.6-2.2-1.1-5.9-1.1c-2.3,0-4.7,0-7.2,0V69h-2v18.5h-28.6
		c-2-5.9-0.4-5.8-3.2-5.8l-0.2,5.8c-5.4,0-36.7,0.4-41.4-0.4c-3.1-0.5-3.4,0.5-5.6,0.2V73.7c0.2-4.3-0.2-3.8-1.3-4.3
		c-0.9,0.5-1.1,0-1.1,3.8v14.4H42.1c1.6-7.7,1.3-18-4.5-22c-8.3,2-7.9,15.5-7.4,22H18.2c-2.5,0-2.3-0.4-2.9,1.1
		c0.5,1.6,0.4,1.1,2.9,1.1h11.3c1.3,0.2,0.5,0,1.3,0.4c1.3,4.9-3.1,4-6.5,9.9c-1.8,0-3.4,0-5.2,0c-0.4,0-2.3,0-2.5,0
		c-2.2,0.5-0.9-0.5-1.4,1.1c0.5,1.6,0.4,1.1,2.9,1.1c1.6,0,2.7-0.2,4.3,0c-1.6,3.4-3.2,4.7-4,9.7c-2.2,0.4-2.5-0.4-3.2,1.1
		c0.9,2.5,0.4,0.5,2.9,1.4c0.7,5.4,1.4,6.5,3.4,10.4c-4.5,0.2-5.4-0.9-6.3,0.9C15.6,127,14.2,126.6,19.2,127z M109.1,124.6H97.7
		l0.2-10.8H122l0.2,5.4C115.7,118,111,120.5,109.1,124.6z M95.6,124.6L48,124.8c2.2-4.9,0.9-6.3,0.5-10.8h9.7v9.4
		c1.6-1.1,0.4-0.2,1.6-1.6c2.2-2.5,3.1-2.5,4.9-4.1c3.2-3.2,1.4-3.6,7.6-3.6c7.7,0.2,15.5,0,23.2,0V124.6z M44.4,124.8l-4.3-0.2
		l-2-10.6C44.1,114,46.1,119,44.4,124.8z M30.4,124.4c-1.3,0.5-4,0.4-5.9,0.4c-1.8-3.4-2.9-6.3-1.3-10.6h4.7
		C27.5,118.9,27.3,121.6,30.4,124.4z M124,101.9h8.3c1.3,3.1,2.2,5.4,1.1,9.5c-2.2,0.9-7,0.5-9.4,0.4V101.9z M97.5,101.9l24.3-0.2
		v10.1H97.5V101.9z M24.1,112c1.4-3.6,6.1-9.7,9.2-10.3l0.9,5.6C27,112,32.4,111.8,24.1,112z M60.6,101.9h11.9l0.5,1.8
		c1.8-2.9,3.8-1.8,10.6-1.8c4,0,7.9,0,11.9,0V112H68.9c0.2-6.1-3.8-6.3-8.3-4.5V101.9z M145.6,107.2c-7.4,4-0.2,4.7-9.9,4.9
		c0.9-4.9,1.1-5.2,0-10.1l18.4,0.2v4.1C150.1,105.9,149.4,105.2,145.6,107.2z M36.7,106.8l-0.9-4.9h22.7V112l-11-0.2
		C43.7,108.2,43.9,106.8,36.7,106.8z M60.6,89.5h12.1V100H60.6V89.5z M35.1,99.8c0.4-1.8,2.2-2.9,3.4-4.9c0.9-1.6,1.8-4,2.9-5.6
		h16.9v10.4L35.1,99.8z M77,99.8c2.5-2.9,7.2-4.3,6.1-10.3H122V100H97.5c0-3.8,0.7-5.9-1.1-5.9c-1.3,0.5-0.9-0.4-0.9,2.3
		c0,0.9,0.2,2.5,0.2,3.6L77,99.8z M153.9,99.6c-1.6,0.4-17.1,0.5-18.5,0.2c-1.4-0.4-1.4-1.1-2.3-2.5c-1.4-2.2-4.7-4.7-6.3-7.7
		l27.2,0.2C153.9,89.7,153.9,99.6,153.9,99.6z M32.6,87.5C32.4,82,33.8,73,39.6,74c2,6.3-2.2,10.3-3.4,13.5H32.6z"/>
</g>
</svg>
