<?xml version="1.0" encoding="utf-8"?>
<!-- Generator: Adobe Illustrator 23.0.3, SVG Export Plug-In . SVG Version: 6.00 Build 0)  -->
<svg version="1.1" id="Layer_1" xmlns="http://www.w3.org/2000/svg" xmlns:xlink="http://www.w3.org/1999/xlink" x="0px" y="0px"
	 viewBox="0 0 184.3 184.3" style="enable-background:new 0 0 184.3 184.3;" xml:space="preserve">
<g id="Layer_x0020_1">
	<g id="_2747159856032">
		<path d="M32.8,69.4c0.2,0.7,2.7,1.6,3.6,2c1.3,0.5,2.5,1.1,3.8,1.6l22.3,10.1C71.2,86.8,80,91,88.6,94.9c4.9,2.2,2.5,1.6,11.3-2.2
			c7.4-3.1,15.1-6.8,22.5-10.1c5-2.2,9.9-4.7,14.9-6.7c3.8-1.6,7.4-3.4,11.2-5c1.3-0.5,3.2-0.9,2.9-2.5c-0.2-0.7-0.9-0.9-1.6-1.3
			l-28.1-12.6c-5-2.2-9.9-4.5-14.9-6.7c-2.5-1.1-5-2.3-7.6-3.4c-1.3-0.5-6.7-3.2-7.6-3.1l-7.6,3.4c-2.3,1.3-5,2.2-7.4,3.4
			c-4.9,2.3-9.9,4.7-14.9,6.8c-5,2.2-9.9,4.7-14.9,6.7l-11.2,4.9C33.9,67.4,32.5,67.8,32.8,69.4z"/>
		<path d="M51.7,81.8c-0.2,1.6,0,15.7,0,18.7c0,4.3-0.5,3.4,4.3,5.2c2.2,0.9,4.5,1.6,6.7,2.5c25.4,10.3,34,9.9,59.2,0
			c2.2-0.9,4.5-1.8,6.8-2.5c4.1-1.6,4-0.5,4-5.2c0-6.1,0-12.4,0-18.5c-1.4,0.5-3.6,1.6-5.2,2.2c-1.6,0.7-3.2,1.6-5,2.3
			c-8.3,3.6-16.7,7.6-25,11.3c-6.3,2.7-4.7,2.5-10.6,0c-1.6-0.7-3.4-1.6-5-2.3c-3.2-1.6-6.7-2.9-10.1-4.5L51.7,81.8z"/>
		<path d="M141.4,114.9c-4.1,2-4.3,6.5-2.2,8.8c1.3,1.3,1.1,0.7,0.4,3.1l-2.9,10.8c-0.2,0.9-0.9,2.9-0.9,3.6c2.3,0.9,5,1.6,7.7,1.6
			c2,0,6.1-0.9,7.7-1.6l-4.5-16.6c0.5-0.7,1.3-1.1,1.8-2.2c1.4-2.9,0.2-6.3-2.9-7.7V75.7l-4.3,2C141.4,77.7,141.4,114.9,141.4,114.9
			z"/>
	</g>
</g>
</svg>
