<?xml version="1.0" encoding="utf-8"?>
<!-- Generator: Adobe Illustrator 23.0.3, SVG Export Plug-In . SVG Version: 6.00 Build 0)  -->
<svg version="1.1" id="Layer_1" xmlns="http://www.w3.org/2000/svg" xmlns:xlink="http://www.w3.org/1999/xlink" x="0px" y="0px"
	 viewBox="0 0 184.3 184.3" style="enable-background:new 0 0 184.3 184.3;" xml:space="preserve">
<style type="text/css">
	.st0{fill:#010101;}
</style>
<g id="Layer_x0020_1">
	<path class="st0" d="M116.9,135.3c0.2,0.5-0.2,0.2,0.4,0.5c0.2,0.2,0.4,0.4,0.5,0.4c0.5,0.4,0.7,0.5,1.1,0.7c2,0.7,1.6,1.3,5.6,2.3
		c2.2,0.5,4.7,0.9,7,0.9l-1.1,8.1c-9,0.5-20.9-4.3-25.6-12.1c-2.9-4.7-3.6-9.2-2.5-15.7c0.7-4.1,2.7-8.1,5-11.3
		c0.4-0.5,0.9-0.9,1.1-1.3c1.8-1.8,4.1-4.1,7.4-5.4c8.1-3.6,17.8-2,25.4,2.5c0.9,0.5,3.1,1.8,3.6,2.5c-0.5,1.3-1.8,2.5-2.2,3.8
		c-0.4,0.2-0.2,0.2-0.5,0.5c-0.7,0.9-1.1,2-1.8,2.7c-0.9-0.5-2.3-2-4.7-3.1c-1.8-0.9-3.8-1.6-5.9-2c-5.2-0.7-9.2,0.9-11.7,3.6
		c-3.8,3.8-6.5,11.7-4.1,17.6C114.2,132.6,115.5,134.5,116.9,135.3z M67.8,49.4c0-0.5,0-1.4-0.2-2c0.4-1.6-0.2-3.8-0.2-5.4l10.8-4
		c0.5,1.1,4.9,6.7,5.9,8.1l16.6,22c0.5,0.7,1.1,1.3,1.4,2c-1.8,0.7-7.2,2.9-8.6,3.1c-0.7-0.5-1.1-1.3-1.6-2
		c-0.4-0.4-0.5-0.5-0.7-0.9l-4-5.2L77,68.7c0.2,1.8,0.4,7.9,0.9,8.8c-0.2,0.5-0.2,0.7,0,1.4c-2,0.4-7,2.9-8.5,2.9L67.8,49.4z
		 M46.6,65.4c0.4,1.1,1.6,5.2,2.2,5.8c0,1.1,6.1,17.8,7,20.3c2.3,6.5,2.3,4.5,3.1,6.1c-7.9,0.2-15.8,0-23.6,0c-4,0-7.4-0.5-10.1,1.6
		c-2.2,1.6-4,4-4,7.7c-0.2,15.7,0,31.3,0,47.2c0,4,1.1,6.7,3.4,8.3c3.2,2.3,4.9,2,9.7,2c7.9,0,15.7,0,23.6,0
		c3.6,0,21.2,0.2,23.2-0.2c1.8-0.4,2.9-1.3,4-2c4.1-3.2,2.9-9.4,3.1-14c1.3,0.5,2.5,1.1,4,1.4l19.3,6.3c7.7,2.5,15.8,5.2,23.4,7.6
		c4.3,1.3,7.7,2,11.5-2.2c0.7-0.9,1.3-2,1.8-3.2c3.4-10.3,6.5-20.7,10.1-31c0.9-2.5,1.6-5.2,2.5-7.7c0.9-2.5,1.8-5.2,2.5-7.7
		c1.3-4.1-1.1-8.6-4.5-10.3c-1.1-0.5-2.7-1.3-3.8-1.3l-45-14.8c2.9-1.6,6.5-1.4,8.8-4.9c2.3-3.6,2.2-6.5,0.5-10.6
		c-2.5-6.7-4.7-13.5-7-20c-1.3-3.4-2.5-6.7-3.6-10.1c-1.1-3.4-2.5-6.7-3.6-10.1c-1.3-3.8-2.3-6.8-5.2-8.3c-1.8-0.9-3.2-1.4-5.6-1.3
		c-0.9,0.2-4.3,1.3-5.2,1.6l-18.5,6.5c-6.1,2.2-12.2,4.3-18.4,6.5c-2.5,0.9-7.2,2.3-8.6,3.8c-2,2-3.6,4.9-2.7,9L46.6,65.4z
		 M49.4,125.5c3.6,0,9,0.4,11-3.6c0.4-0.9,0.5-1.8,0.5-2.9l-0.4-1.1c0-0.9-0.9-2.2-1.6-2.5c-2.5-2-8.6-1.8-10.6-1.3
		c-0.4,1.1-0.2,9.4-0.2,11.2L49.4,125.5z M74.6,46.3c0.7,4.9,1.3,10.8,1.4,15.8c0.9-0.2,7-2.3,7.9-2.7l-4.7-6.7
		C78.8,51.9,75.2,46.5,74.6,46.3z M48.4,147.1c2.2,0.5,7.4,0.2,9.4-0.5c5.9-2.5,5.9-9.7,0-12.1c-1.8-0.7-7.2-1.3-9.4-0.9V147.1z
		 M91.6,91l9-3.2c-0.4,0.5-0.7,1.3-1.1,2c-0.5,1.3-2.2,6.3-2.3,7.4c-0.5,0.9-7.2,22-8.5,25.7c-0.4,0.7-0.4,1.3-0.9,1.8
		c0-3.2,0.2-18.4-0.2-20.2c-0.5-2.7-2.5-4.9-4.3-5.9c-3.4-1.8-5-0.9-9-1.3C75.4,96.4,88.9,92.2,91.6,91z M64,128.8
		c0.5,0.4,3.8,1.3,5.9,3.2c5.9,5.9,4.3,14.4-1.3,19.1c-6.8,5.8-21.2,4.9-31.3,4v-35.8c0-3.6-0.4-8.6,0-12.1c2.3-0.2,4.9-0.5,7.4-0.7
		c7.2-0.5,15.7-0.7,21.6,2.7c7,4.3,7.6,13.7,0.4,18.4C65.8,127.9,64.9,128.2,64,128.8z"/>
</g>
</svg>
