<?xml version="1.0" encoding="utf-8"?>
<!-- Generator: Adobe Illustrator 23.0.3, SVG Export Plug-In . SVG Version: 6.00 Build 0)  -->
<svg version="1.1" id="Layer_1" xmlns="http://www.w3.org/2000/svg" xmlns:xlink="http://www.w3.org/1999/xlink" x="0px" y="0px"
	 viewBox="0 0 184.3 184.3" style="enable-background:new 0 0 184.3 184.3;" xml:space="preserve">
<style type="text/css">
	.st0{fill:#FFFFFF;}
</style>
<g id="Layer_x0020_1">
	<path class="st0" d="M122.5,119.9h1.8c1.3,3.2,2.2,5.8,4.9,8.3c4.3,4.1,10.1,6.3,16.7,5.2c7.4-1.3,14-7.6,15.1-14.6
		c5.4-0.5,8.1-3.1,8.6-8.6c1.6-9.7-3.1-19.3-7.6-24.3c-2.2-2.5-6.3-4.5-10.8-5.6c-2-0.5-12.1-2.5-13.9-2.2c-0.4-0.4-3.4-0.5-4.3-0.9
		c-2-0.5-2.2-1.3-3.1-2.3l-4.7-5.9c-0.7-0.7-1.3-1.4-1.8-2c-1.1-1.3-2.2-2-3.4-3.2c-0.5-0.5-1.3-1.1-1.8-1.4
		c-0.7-0.5-1.3-1.1-1.8-1.3c-0.4-0.5-0.2-0.4-0.9-0.5c-0.5-0.5-4.1-2.7-5.2-3.2c-9-4.3-17.3-6.3-27.7-6.7c-2.7-0.2-6.1,0.2-8.3,0
		c-4.5-0.4-11.7,0.2-16.2,0.9C44.9,53.1,39.1,58,33,69.2c-0.5,0.9-1.1,1.8-1.6,2.7c-2.9,5.6-3.2,5.2-8.3,8.8c-0.5,0.4-2,1.4-2.2,2
		c-0.5,0.2-0.7,0.7-1.3,1.3c-2.2,2.7-3.6,8.1-4.3,11.3c-0.5,2.3-2.2,14.8-0.9,16.4c-0.2,2.5,1.8,4.5,3.1,5.4
		c2.7,2.2,5.6,1.8,5.9,2.9c0.5,1.3,0.5,2.9,3.1,6.3c2.3,3.2,5.8,5.6,9.5,6.8c3.6,1.1,7.9,1.1,11.5,0c2.3-0.7,6.8-3.2,7.9-5
		c0.4-0.4,0.4-0.2,0.7-0.7c0.5-0.5,1.8-2.3,2.2-3.2c0.5-0.9,1.3-3.4,1.6-4h9.4h1.3h0.7L122.5,119.9L122.5,119.9z M69.9,58.2
		c0.5,0,1.4,0,1.8-0.2h4.9v23.4c-6.3,0-12.6,0-18.7,0c-4.5,0-14.9,1.3-13.5-4.9l2.9-6.7c3.4-7,7.4-10.4,16.6-11.2l5.4-0.5
		C69.2,58.2,69.9,58.2,69.9,58.2z M43.4,104.6C43.6,104.6,43.3,104.4,43.4,104.6c5.6,0.9,9.5,5.2,9.2,11.2
		c-0.4,5.2-5.2,10.1-11.2,9.4c-11.3-1.3-12.8-16.4-2.5-20C40.9,104.4,41.5,104.8,43.4,104.6z M141.2,104.6c0.7-0.4,3.2,0,4.3,0.5
		c1.4,0.5,2.3,0.9,3.4,1.8c6.8,5.6,4,16.9-5.2,18.2c-6.3,0.9-10.8-3.6-11.5-9c-0.5-3.2,0.9-5.9,2.3-7.7
		C136.9,105.3,139,105.5,141.2,104.6z M85.2,58c12.6,0.5,25,4.9,32.2,14.8c7,9.7,0.4,8.5-8.8,8.5c-7.7,0-15.5,0-23.2,0L85.2,58
		L85.2,58z"/>
</g>
</svg>
