<?xml version="1.0" encoding="utf-8"?>
<!-- Generator: Adobe Illustrator 23.0.3, SVG Export Plug-In . SVG Version: 6.00 Build 0)  -->
<svg version="1.1" id="Layer_1" xmlns="http://www.w3.org/2000/svg" xmlns:xlink="http://www.w3.org/1999/xlink" x="0px" y="0px"
	 viewBox="0 0 184.3 184.3" style="enable-background:new 0 0 184.3 184.3;" xml:space="preserve">
<style type="text/css">
	.st0{fill:#FFFFFF;}
</style>
<g id="Layer_x0020_1">
	<g id="_2747156836576">
		<path class="st0" d="M80,133.7l0.7-90l3.6,21.8c2.3,16.2,3.1,35.1,0.4,51.7c-0.7,4-2.2,11-3.8,14.8L80,133.7z M53.9,48.6
			c5.8-0.5,18.5-5,24.1-5c0,17.3-0.2,14.8-9.7,34.9c-5.2,11.2-11,23.2-17.6,33.3l-13.9,20.2c-2.3,3.6-5.4,6.5-7.7,10.1
			c5.2,0,9.5-1.1,14.8-1.4l95.8-11.2c2.9-0.4,5.6-0.7,7.7-0.9c0-21.1-26.6-58.9-44.1-72.9C98,51.5,85.9,40.8,79.8,39.2V25.7h-2.2
			c0,3.4,0.5,2.5-1.3,4.5c-0.2,0.2-2.5,1.8-3.2,2.3C69.9,35.3,55.5,46.1,53.9,48.6z"/>
		<path class="st0" d="M18.4,147.8l4.3,10.6H129c9.9,0,10.1-0.7,16.6-4.7c7.4-4.5,18.2-13.7,20.3-22.3c-4.9,0-13.1,1.4-17.8,2
			L18.4,147.8z"/>
	</g>
</g>
</svg>
