<?xml version="1.0" encoding="utf-8"?>
<!-- Generator: Adobe Illustrator 23.0.3, SVG Export Plug-In . SVG Version: 6.00 Build 0)  -->
<svg version="1.1" id="Layer_1" xmlns="http://www.w3.org/2000/svg" xmlns:xlink="http://www.w3.org/1999/xlink" x="0px" y="0px"
	 viewBox="0 0 184.3 184.3" style="enable-background:new 0 0 184.3 184.3;" xml:space="preserve">
<g id="Layer_x0020_1">
	<path d="M66.5,94c1.6,0.9,2.5,2.5,3.1,4.1L70,99c0.5,1.8-0.2,4.9-0.9,5.9C56.8,118.8,45.5,89.1,66.5,94z M42.6,94.5
		c6.7,4,1.6,17.1-9,12.6c-0.7-0.4-0.2,0-0.9-0.5C25.7,96.2,34.7,89.9,42.6,94.5z M68.5,81.8c-0.2-4.9,0.7-9.7,3.1-14.8
		c0.9-2.5,2.2-5,3.6-7.6C39.9,49.2-2.8,82.1,23.5,122.8c1.3,1.3,2.3,2.2,1.1,4c-2.9,4.3-5.4,8.6-8.1,13.1c-0.5,0.9-1.4,1.8-1.6,2.7
		v0.2l0.2,0.5c1.3,0.5,1.4,0.2,1.6,0.2l5.9-1.3h0.2l8.8-1.8c1.3-0.2,15.3-2.9,16.2-2.5c21.6,3.2,31.7,2.7,48.2-10.6
		c1.6-1.1,0.9-0.7,2.7-2.5c0.5-0.5,1.1-0.9,1.4-1.3C81.7,116.5,68,101.2,68.5,81.8z"/>
	<path d="M167.3,126c-0.4-1.3-1.1-2.2-1.8-3.2l-5.8-9.9l-0.2-0.4L158,110c-0.5-0.9-0.5-1.6-0.4-2.3l3.1-3.8l0.2-0.2
		c0.5-0.7,0.2,0,0.7-0.9l0.2-0.2c31.9-54.4-45.5-84.4-80.6-41.4l-0.2,0.2c0,0.2-0.2,0.2-0.2,0.2c-21.6,37.6,15.3,65,50.9,59.6
		c0.2,0,0.2,0,0.4,0l2.9-0.7c0.2,0,0.2,0,0.2,0l14.2,2.3h0.2l2.5,0.5c0.7,0.2,0.2,0,0.9,0.2L167.3,126z"/>
</g>
</svg>
