<?xml version="1.0" encoding="utf-8"?>
<!-- Generator: Adobe Illustrator 23.0.3, SVG Export Plug-In . SVG Version: 6.00 Build 0)  -->
<svg version="1.1" id="Layer_1" xmlns="http://www.w3.org/2000/svg" xmlns:xlink="http://www.w3.org/1999/xlink" x="0px" y="0px"
	 viewBox="0 0 184.3 184.3" style="enable-background:new 0 0 184.3 184.3;" xml:space="preserve">
<style type="text/css">
	.st0{fill:#FFFFFF;}
</style>
<g id="Layer_x0020_1">
	<path class="st0" d="M151.7,147.8h-42.3v-4h42.3V147.8z M124.4,102.8h0.5h3.6V102v-9.9h-0.7h-3.4V102.8z M55.6,118.6v9.9h0.7h3.6
		v-10.6h-0.7h-3.6V118.6z M55.6,92.9v9.9h0.7h3.6V92.1h-0.7h-3.6V92.9z M90,102.8h0.5h3.6V102v-9.9h-0.7h-3.6L90,102.8L90,102.8z
		 M100.3,122.7l0.2,29.3l53.3,0.2l1.4-0.7l1.4-0.9v-10.1c-2.3-2-4.5-1.3-8.6-1.3V79.7c-0.4-2-0.2-1.3-1.3-2.3l-3.4-0.4v-7.2
		c-1.6-3.1-10.8-1.6-14.4-1.6c-18.2,0-14.9-1.6-15.5,8.3c-0.9,0.9,0.2,0.5-2.2,0.7c-0.7,0-1.3-0.2-2-0.2c-0.7-2.2-0.5-4.9-0.4-7
		c-1.1-2.3-5.2-5.4-7.4-7c-2.7-2.2-4.9-4.3-7.4-6.1l0.2-7.7c3.4-0.2,15.1,0.5,16.4-0.9c1.1-1.8,1.1-13.7,0-15.5
		c-0.7-0.9-2.2-0.9-2.3-0.9h-8.1c-1.8,0-3.4,0-5.2,0c-0.7,0-2.2,0-2.9,0.2l-1.3,0.5c-1.6-2.9-0.9,22.5-0.9,23
		C89.5,58.5,77,66,75.2,69.8c0,2.3,0.4,5-0.4,7.2c-1.6,0.2-3.4,0.5-4.1-0.5c-0.2-4.5,0.9-7-2-8.1c-0.5-0.2-0.9-0.2-1.4-0.2
		c-1.1,0-2.9,0-4,0c-6.1,0-21.1-1.4-22.3,1.4l-0.4,7.2l-3.1,0.4c-0.9,0.9-0.2-0.9-0.9,1.3c-0.5,1.6-0.2,58.5-0.2,60.5
		c-3.6,0-6.5-0.5-8.6,1.3v10.4l1.4,0.9l1.4,0.7l53.1-0.2l0.4-29.9C84.8,113.2,99.7,113.7,100.3,122.7z M124.4,117.9h3.4h0.7v9.9v0.7
		h-3.6h-0.5V117.9z M87.7,152.1h8.6c0-5.9,0-12.1,0-18c0-4.7,1.6-13.9-4.1-14c-5.9-0.2-4.5,8.5-4.5,13.5
		C87.7,139.7,87.7,145.8,87.7,152.1z M74.5,147.8H32.2c-0.9-1.3-0.7-3.1,0-4.7l42.8,0.2C75.2,146.1,75.6,147,74.5,147.8z
		 M51.3,127.8c0-13.3-1.4-14.2,4-14.2l9,0.4l0.2,13.9l2.7,0.9c3.2,1.4,1.4,4.1-2.2,4.1c-4.9,0-9.5,0-14.4,0c-1.8,0-4,0-3.4-2.7
		c0.4-2,0.2-1.1,1.8-1.6c0.2-0.2,0.9-0.2,1.4-0.4L51.3,127.8z M119.9,127.8c0-13.1-1.4-14.2,4-14.2l9,0.4l0.2,13.9
		c0.7,0.5,0.2,0.2,1.4,0.5c2.7,0.9,2.5,0,2.9,1.8c0.5,2.9-1.3,2.7-3.6,2.7h-14.2c-1.8,0-4,0-3.6-2.7c0.4-2.2,0.2-1.1,1.8-1.6
		L119.9,127.8z M51.3,102c0-13.3-1.4-14.2,4-14.4l9,0.5l0.2,13.9l1.3,0.5c0.7,0.2,0.7,0.2,1.4,0.4c2.5,1.3,2.5,4.1-2,4.1
		c-4.9,0-9.9,0-14.9,0h0.5c-1.8,0-4,0-3.4-2.7C47.5,101.7,49.1,103.5,51.3,102z M119.9,102c0-13.3-1.4-14.2,4-14.4l9,0.5L133,102
		c2,1.4,3.6-0.2,4.1,2.3c0.5,2.7-1.3,2.7-3.6,2.7h-14.2c-1.8,0-4,0-3.6-2.7c0.4-2.2,0.2-1.1,1.8-1.6L119.9,102z M85.9,88
		c5.6-0.5,7-0.5,12.4,0.2l0.2,14.6c2.5,0,4.1-0.5,4.1,2.2c0,2.3-1.3,2.2-3.6,2.2H84.8c-2,0-4,0-3.6-2.7c0.4-2.2,1.8-1.6,4.1-1.6
		L85.9,88z M139.3,72.9v4c-1.8,1.3-19.8,0.7-21.4,0.4c-0.9-2.2-0.9-2.7,0-4.7l19.8-0.2C140.8,72.5,138.1,72.2,139.3,72.9z
		 M44.8,72.9l21.6-0.4c0.9,2.2,0.9,2.7,0,4.7l-16.9,0.2c-4.7,0-3.6,0.2-4.7-0.5V72.9z"/>
</g>
</svg>
