<?xml version="1.0" encoding="utf-8"?>
<!-- Generator: Adobe Illustrator 23.0.3, SVG Export Plug-In . SVG Version: 6.00 Build 0)  -->
<svg version="1.1" id="Layer_1" xmlns="http://www.w3.org/2000/svg" xmlns:xlink="http://www.w3.org/1999/xlink" x="0px" y="0px"
	 viewBox="0 0 184.3 184.3" style="enable-background:new 0 0 184.3 184.3;" xml:space="preserve">
<style type="text/css">
	.st0{fill:#FFFFFF;}
</style>
<g id="Layer_x0020_1">
	<path class="st0" d="M103.9,103c-1.8-0.7-2-1.1-3.1-3.1c1.3,0.5,0.9,0,2,1.6C103.4,102.3,103.6,102.5,103.9,103z M128.8,47.2
		c-16.2-2.2-33.1-3.2-49.3-2.9c-6.3,0-43.2,1.3-48.2,4.3c-1.6,0.9-10.8,24.8-10.8,26.1c0,3.6-0.5,5.6,1.6,7.4l0.7,1.1L24,84l0.5,1.4
		l0.2,0.9l0.2,0.9l0.7,1.1l0.2,0.2c0.5,0.9,0.2,0,0.4,1.3c0.2,1.3,0.4,2.9,0.4,4.3c0.2,10.8,10.3,6.7,17.1,9.7
		c0.4,1.3,10.1,16.4,20.9,12.4c1.4-0.5,2.9-1.3,4.3-1.6l4.1-1.8l-10.4-2.5c4.7-0.2,6.3,2.9,14.2,1.3c7-1.4,9,0.5,14.4,0.5
		c9.7,0,21.8-8.3,24.1-7.9c-0.4,0.2-7.2,4-10.6,5.2c-4,1.4-8.3,2.5-12.8,3.2c0.2,0.2,0.2,0.2,0.4,0.2l8.5,3.4
		c10.6,3.6,17.6-9.7,21.1-12.6c2.5-2.5,10.8-1.1,14-3.4c3.1-2.2,1.8-6.7,2.7-10.4c0.4-2.2-0.4-0.2,0.9-2.2l0.4-1.6l0.7-2.2
		c0.4-0.7,0.2-0.2,0.5-0.7c0.2-0.2,0.4-0.2,0.5-0.7c0-0.2,0.2-0.2,0.4-0.4h-3.8c5.2-0.4,5.9,0.9,5.9-5.8
		C144.1,73.9,135.1,48.1,128.8,47.2z M81.2,68.1l0.9,0.9v32.8c-3.4,0.4-7-0.5-7.2-4.7l0.2-1.6c0.9-3.2,4.9-25,4.5-27.2L81.2,68.1z
		 M155.4,26.7c2-1.4,4.5-3.1,5.4-5.2C159,22.9,156.3,24.9,155.4,26.7z M103.6,149.5l4.1,9.9c1.1,2.7,0.5,2.3,1.8,2.5
		C108.8,159.9,105.4,150.4,103.6,149.5z M153.8,43.6c1.1,0.9-2.3,0.7,4.7,0.7c2.7,0,4,0.5,5.2-0.7C162.1,43.1,155.2,43.1,153.8,43.6
		z M115.1,145.5c0.7,2.2,4.3,11.7,5.9,12.6c-0.5-2.2-1.8-4.7-2.7-6.8C116.9,148.2,116.5,145.7,115.1,145.5z M151.4,80
		c0.9-2.5,2.7-5.8,2.5-8.1c3.1-4.1,2.2-15.7,2.2-21.2c0-2.3-0.4-2.2,1.3-2.5c1.3,3.2,0.2,18.7-2,24.8c-2.7,6.5-5.2,14.2-7.7,20.9
		l-15.1,41c-2.2,6.1-10.1,15.7-13.1,14l1.6-1.8c0.9-0.7,1.3-0.9,1.8-1.4c8.3-6.7,10.8-17.8,14.8-29.2
		C142.3,104.5,146.8,92.1,151.4,80z M152.2,70.5c-0.9,2-2,4.5-2,6.7c-1.8,1.8-12.2,32.4-14.2,37.8c-3.1,8.3-6.8,22-11.9,26.8
		c-5.8,5.4-4.9,4.7-7.4,3.2c0.9,2.5,1.6,4.5,2.7,6.7c0.7,1.6,1.8,4.7,2.7,5.6c2-2.7-1.6-0.5,3.6-4c4-2.5,7.9-6.7,10.4-11.2
		c3.2-5.8,23.2-61.2,23.2-63.2c1.1-0.9,0.5-0.5,1.3-1.8c4.5-11,3.1-20.7,3.4-32H154C153.8,54.4,154,61.8,152.2,70.5z M48.5,69
		c2.2,0.2,3.1-2.5,5.6-5c1.6-1.6,4.5-4.5,4.9-6.7c-2.3,0.2-1.6,0.5-2.9,2.3l-5.2,5.9C49.7,66.9,48.7,67.2,48.5,69z M95.5,76.4
		c2,0.4,0.7,0.7,2.2-0.9l9.4-11.2c1.3-1.4,1.1-0.5,1.3-2.3c-1.3,0-0.9-0.7-3.6,2.9C102.8,67,95.6,74.4,95.5,76.4z M65.4,95.8
		l0.7,0.2c-0.7,1.8-4,5.8-5.2,6.8c-2.2,2-6.5,2.2-9.7,1.1l-0.5,0.9c-1.6-0.7-1.6-1.3-3.6-0.7c0.9-0.7-0.7-0.4,1.4-0.5
		c5.6-0.7,8.3,3.6,14.4-3.8C65.4,96.7,65,97.8,65.4,95.8z M65.2,92.4c-2,1.6-1.4,1.8-3.1,2.9c1.1-1.4,1.3-2,2.2-3.2
		c1.4-1.4,4.5-6.5,5.8-8.8l1.4-2.9c0-0.2,0.2-0.2,0.2-0.4C71,84.7,65.9,91,65.2,92.4z M63.8,88.8c-1.6,0.7-2.2,2-2.9,3.2
		c-0.9,1.3-1.8,2.2-2.7,3.2c-1.6,1.6-3.4,3.4-6.3,3.4c-1.4,0.2-7.9-0.5-8.8-0.9h4.5l-2-5.9c-0.5-1.1-1.1-3.2-1.4-4.7
		c-0.7-2.7-0.5-2.5,0.9-4.3L60.9,64c1.1-1.3,0.9-0.5,0.9-2.5c-2.2,0.4-1.4,0.5-2.7,2.2l-16,19.3c-0.7-6.5-0.7-12.4,0.5-18.5
		c1.1-4.9,3.1-9.4,7-12.4c1.3,0.4,0.9,0.7,0.9-0.5c6.5-1.6,55.4-1.8,60.8,0c0,2.3-0.2,0.5,0.7,1.1c2,0.5,4.3,3.6,5,5.8l-15.3,17.1
		c-1.6,2-4.3,3.8-4.7,6.3c2.7-0.5,4-3.4,5.6-4.9l5.2-5.6c1.4-1.6,3.2-3.8,4.7-5.6c1.1-1.3,1.6-1.4,2.5-2.5s1.3-2.2,2.9-2.9
		c4.3,8.8,2.2,29.5-2.3,37.4c-0.7,1.6,0.5,0.5-1.4,1.3c-4,1.3-8.3-2-10.6-5c-2.5-3.4-5-6.8-7.4-10.4c-3.2-4.9-5-9.9-8.1-15.3
		l-0.7-0.7c-0.2-1.6,0.2-0.2-0.5-1.3L85,64c-7.4-2.5-9.7,3.6-11.7,7.6c-1.6,3.4-2.9,5.8-4.7,9C67.4,82.5,64,87,63.8,88.8z
		 M100.9,86.3c1.4,0,0.9,0.9,3.8-3.1c0.9-1.1,0.9-1.1,1.8-2c2.2-2.7,7.7-8.1,8.1-11c-2.5,0.5-2.7,1.8-4,3.4L102.1,84
		C101,85.4,101,84.5,100.9,86.3z M51.9,81.4c2.5,0.9,0.9,0,4.7-3.8c1.1-1.1,1.1-1.4,2-2.7l8.6-9.5c0.9-0.9,1.6-1.3,1.4-2.9
		c-1.8,0-1.3,0.7-4.5,4l-6.3,7.4C56.6,75.7,52.3,79.1,51.9,81.4z M80.5,133.1c1.1-2.5,1.4-0.9,2.5-2.9c-2.5-1.8-6.1,4-2.5,6.7
		c1.8,1.4,9.2,0.9,12.1,0.9c3.4,0,9.7,1.1,11.9-1.1c2.9-2.7,0.4-8.3-2.5-6.3c1.3,2.3,2.5,0.4,2.2,3.8
		C99.1,136.3,84.3,136.5,80.5,133.1z M92.4,80.7c0.2-2,0.2-0.5,0.7-1.3c0.4,1.6,1.3,4.7,2.7,5.4c0.5,1.6,1.3,2.3,2.2,4
		c0.7,1.3,1.6,2.2,2,3.6C97.6,91.3,92.6,80.9,92.4,80.7C92.6,80.7,92.4,80.7,92.4,80.7z M100,92.4c1.3,0.5,0.7,0.4,2,2.5
		C100.7,94,100.5,93.9,100,92.4z M113.8,51.6L113.8,51.6L113.8,51.6z M113.8,51.6C113.8,51.4,114,51.4,113.8,51.6
		C114,51.4,113.8,51.4,113.8,51.6z M114,51.4L114,51.4L114,51.4L114,51.4z M82.7,138.7c-0.9,3.1,0.4,5.6,2.2,6.7
		c1.8,1.3,4.9,0.7,7.6,0.7c5.9,0,10.8-0.2,9.7-7.4C100.5,138.3,84.7,138.1,82.7,138.7z M110,161.9l9.5-3.6l-5.2-12.8l-9.7,3.4
		L110,161.9z M49.9,44.5l32.2-1.3c5.4,0,11,0,16.4,0.4c5.2,0.2,11,1.1,15.8,0.9c-6.8-3.4-23.6-4.5-32.2-4.5
		C70.1,40,60.9,41.3,49.9,44.5z M155.6,27.8l0.9,0.4c0,2.5,0.5,11.5-0.5,13C154.9,39.7,155.6,30.5,155.6,27.8z M155.6,27.8
		c-1.4-0.4-1.6-0.4-2,1.4l-0.2,13.3h10.1c-0.2-4.1,0.5-19.6-0.5-22.3c-2.9-0.4,1.3,0.7-6.3,6.7L155.6,27.8
		C155.8,27.6,155.8,27.6,155.6,27.8z M100.9,156.1c0.2-0.9,0.5-1.3,1.4-1.6c2.2-0.5,0.7-0.2,1.6,0.5
		C103,156.3,102.3,156.7,100.9,156.1z M89.5,155.6l-1.3-0.2l0.2-7.2c2-0.5,5.8-0.5,7.4,0.2c-1.1,1.1-3.2,0.7-5.4,0.5
		C90.1,150.9,90.8,154.5,89.5,155.6z M87,147c0.2,7.7-0.4,12.8,5.2,15.8c2.7,1.6,5.4,1.6,8.5,0.7c10.3-3.4,3.2-1.4,7.6-1.1
		l-5.4-11.5c-1.1,1.6,0,0.9-1.4,1.6c-3.8,1.8-4.3-2.3-4.3-5.6L87,147z M35.5,84C35,77.3,35.2,64.5,38,59.1
		c-0.4,4.1-1.3,8.3-1.6,12.4C36.2,74.8,36.2,81.1,35.5,84z M98.9,97.6c1.3,0.5,0.9,0.4,1.6,1.8c-0.2-0.2-0.2-0.2-0.4-0.2l-0.9-0.7
		C98.5,97.5,99.4,98.5,98.9,97.6C98.9,97.5,98.7,97.5,98.9,97.6l-0.5-0.7c-1.4-1.4-1.8-0.7-1.6-2.7c0.9,0.5,0-0.4,0.7,0.7
		c0.2,0.2,0.5,0.9,0.5,0.9C98.3,96.6,98.5,96.7,98.9,97.6z M96.7,94.2c-0.7-0.4-0.5,1.3-0.7-0.4L95.8,93
		C96.2,93.1,96.2,91.9,96.7,94.2z M95.6,92.8c-0.2,0-0.2,0.4-0.9-0.9c-0.5-0.9-0.2-0.5-0.5-1.4c-1.4-1.3-2.5-3.6-2.5-5.4l2.5,5.4
		c0.2,0.2,0.4,0,0.9,0.9C95.8,92.4,95.5,91.7,95.6,92.8z M85.2,97.3C85.6,93.5,101,97.6,85.2,97.3z M103.6,96.7l-1.1-1.3
		C103.6,96.4,102.8,94.6,103.6,96.7z M40.9,100.9c-3.6,0.2-10.8,0.4-12.1-3.4c-1.8-4.7-0.2-9.9-0.4-14.2c0.9,4.1,0.4,9.9,1.6,13.5
		C31.2,100.2,37.7,99.1,40.9,100.9z M40.9,50.1c10.6-2.3,28.8-2.9,40.3-2.9c7.6,0,34.4,0.9,39.8,2.9c-6.5,0-13.3-0.9-20-1.1
		c-15.7-0.5-25-0.5-40.9,0C53.9,49.4,47,50.1,40.9,50.1z M41.1,48.1c8.3-0.4,13.3-2.2,25.4-1.8L60,47.2
		C53.7,47.6,47.2,48.7,41.1,48.1z"/>
</g>
</svg>
