<?xml version="1.0" encoding="utf-8"?>
<!-- Generator: Adobe Illustrator 23.0.3, SVG Export Plug-In . SVG Version: 6.00 Build 0)  -->
<svg version="1.1" id="Layer_1" xmlns="http://www.w3.org/2000/svg" xmlns:xlink="http://www.w3.org/1999/xlink" x="0px" y="0px"
	 viewBox="0 0 184.3 184.3" style="enable-background:new 0 0 184.3 184.3;" xml:space="preserve">
<g id="Layer_x0020_1">
	<path d="M154.6,150.3h-44.3V146h44.3V150.3z M125.8,103h0.7h3.8v-0.7V91.8h-0.7H126L125.8,103L125.8,103z M53.8,119.7V130h0.7h3.6
		v-11.2h-0.5H54L53.8,119.7L53.8,119.7z M53.8,92.7V103h0.7h3.6V91.8h-0.5H54L53.8,92.7L53.8,92.7z M89.8,103h0.7h3.8v-0.7V91.8
		h-0.7H90L89.8,103L89.8,103z M100.6,124.1l0.2,30.8l55.8,0.2l1.6-0.7l1.4-0.9v-10.8c-2.5-2.2-4.7-1.4-9-1.4V79.1
		c-0.4-2-0.2-1.4-1.3-2.3l-3.6-0.4v-7.6c-1.6-3.2-11.3-1.6-14.9-1.6c-19.1,0-15.7-1.6-16.2,8.6c-0.9,0.9,0.2,0.5-2.2,0.7
		c-0.7,0-1.4-0.2-2.2-0.2c-0.7-2.2-0.5-5-0.4-7.4c-1.1-2.5-5.6-5.6-7.7-7.4c-2.9-2.3-5.2-4.5-7.7-6.5l0.2-8.1
		c3.6-0.2,15.8,0.5,17.3-0.9c1.1-1.8,1.1-14.2,0-16.2c-0.7-0.9-2.2-0.9-2.3-0.9h-8.8c-1.8,0-3.6,0-5.4,0c-0.7,0-2.3,0-2.9,0.2
		l-1.4,0.5C89.3,26.9,90,53.5,90,53.9c-0.5,3.1-13.7,11-15.5,14.9c0.2,2.5,0.4,5.2-0.4,7.6c-1.6,0.2-3.6,0.5-4.3-0.5
		c-0.2-4.7,0.9-7.4-2.2-8.5c-0.5-0.2-0.9-0.2-1.6-0.2c-1.1,0-2.9,0-4.1,0c-6.3,0-22-1.4-23.4,1.4l-0.4,7.6l-3.2,0.4
		C34,77.4,34.7,75.5,34,78c-0.5,1.8-0.2,61.2-0.2,63.4c-4,0-6.7-0.7-9,1.3v11l1.6,0.9l1.4,0.9l55.4-0.2l0.4-31.1
		C84.4,114,100.1,114.5,100.6,124.1z M125.8,118.8h3.6h0.7v10.4v0.7h-3.8h-0.7L125.8,118.8L125.8,118.8z M87.5,154.7h9
		c0-6.3,0-12.6,0-18.9c0-4.9,1.6-14.6-4.3-14.8c-6.3-0.2-4.7,9-4.7,14.2C87.5,141.7,87.5,148.2,87.5,154.7z M73.8,150.3H29.5
		c-1.1-1.3-0.9-3.2,0-4.9l44.8,0.2C74.5,148.5,74.7,149.4,73.8,150.3z M49.3,129.3c0-13.9-1.4-14.9,4.1-14.9l9.4,0.4l0.2,14.6
		l2.9,0.9c3.4,1.4,1.4,4.3-2.2,4.3c-5,0-10.1,0-14.9,0c-2,0-4.1,0-3.6-2.9c0.4-2.2,0.2-1.1,1.8-1.6c0.2-0.2,1.1-0.2,1.4-0.4
		L49.3,129.3z M121.1,129.3c0-13.9-1.4-14.9,4.1-14.9l9.4,0.4l0.2,14.6c0.9,0.5,0.2,0.2,1.4,0.5c2.9,0.9,2.5,0,2.9,2
		c0.5,2.9-1.3,2.9-3.6,2.9h-14.9c-2,0-4.1,0-3.6-2.9c0.4-2.2,0.2-1.3,2-1.8L121.1,129.3z M49.3,102.3c0-13.9-1.4-14.9,4.1-14.9
		l9.4,0.5l0.2,14.6l1.4,0.5c0.7,0.2,0.7,0.2,1.4,0.4c2.5,1.3,2.7,4.3-2.2,4.3c-5.2,0-10.4,0-15.7,0h0.5c-2,0-4.1,0-3.6-2.9
		C45.5,101.9,47.2,103.9,49.3,102.3z M121.1,102.3c0-13.9-1.4-14.9,4.1-14.9l9.4,0.5l0.2,14.6c2.2,1.4,3.8-0.2,4.3,2.5
		c0.5,2.9-1.3,2.7-3.6,2.7h-14.9c-2,0-4.1,0-3.6-2.9c0.4-2.2,0.2-1.1,2-1.6L121.1,102.3z M85.7,87.7c5.8-0.5,7.4-0.7,13.1,0.2
		l0.2,15.3c2.5,0,4.3-0.5,4.3,2.3c0,2.5-1.4,2.2-3.8,2.2H84.6c-2,0-4.1,0-3.6-2.9c0.4-2.2,1.8-1.8,4.3-1.8L85.7,87.7z M141.5,71.9
		V76c-2,1.3-20.7,0.7-22.5,0.4c-0.9-2.2-0.9-2.7,0-4.9l20.7-0.2C142.9,71.5,140.2,71,141.5,71.9z M42.7,71.9l22.5-0.4
		c0.9,2.2,0.9,2.7,0,4.9l-17.8,0.2c-4.9,0-3.6,0.2-4.9-0.5L42.7,71.9L42.7,71.9z"/>
</g>
</svg>
