<?xml version="1.0" encoding="utf-8"?>
<!-- Generator: Adobe Illustrator 23.0.3, SVG Export Plug-In . SVG Version: 6.00 Build 0)  -->
<svg version="1.1" id="Layer_1" xmlns="http://www.w3.org/2000/svg" xmlns:xlink="http://www.w3.org/1999/xlink" x="0px" y="0px"
	 viewBox="0 0 184.3 184.3" style="enable-background:new 0 0 184.3 184.3;" xml:space="preserve">
<style type="text/css">
	.st0{fill:#1E1A17;}
	.st1{fill:#1F1818;}
	.st2{fill:#1E1A19;}
	.st3{fill:#1E1818;}
</style>
<g id="Layer_x0020_1">
	<g id="_2748416151424">
		<path class="st0" d="M97.3,91.3L84,84.8c-0.5,0.5-6.1,9-6.5,10.3c-1.6,5.8,3.2,7.7,7,9.4c7.7,3.6,15.3,7.4,22.9,10.8
			c-0.7,2.2-4,7.4-5.4,9.7c-1.8,3.1-3.4,6.3-5.4,9.4c-2,3.2-4.5,7-1.6,11c1.4,2,7.7,3.6,10.8,4c-7.9-0.9-17.6-2.7-25.9-4
			c-8.6-1.4-17.5-2.7-26.3-4.1c-4.9-0.9-11.2-2.9-11.7,0.7c-0.7,4.1,7,4,10.4,4.5l78.3,12.6c8.5,1.3,18,3.4,26.3,4.3
			c10.4,0.9,10.8-11.7,5.4-10.3c-2.2,0.5-1.8,3.1-2.5,4.7c-2.3,0.5-37.4-4.9-39.4-5.9c1.6-1.4,3.2-2,3.8-4.7
			c1.8-8.3-8.3-8.3-12.6-9.5c-0.4-0.2-0.5-0.2-0.7-0.4c0,0-0.2,0-0.2-0.2s-0.2,0-0.2-0.2c1.8-4,8.3-14.6,11.2-19.8
			c4.5-8.1-1.6-9.9-5.6-11.9c-3.6-1.8-18.9-9.2-21.1-9.7L97.3,91.3z"/>
		<path class="st0" d="M129.3,21.4c-8.6,1.3-16,9.2-14.2,19.6c1.4,8.5,9.4,15.7,19.8,14c8.3-1.4,15.7-9.5,13.9-19.6
			C147.3,27.2,139.2,19.8,129.3,21.4z"/>
		<path class="st0" d="M104.3,74.7c1.4-2,11.5-7.4,14.8-10.1c5.6-5-1.1-14.2-8.1-9.9c-5.2,2.9-10.1,6.5-14.9,9.4
			c-2.5,1.6-4.9,3.2-7.4,4.9c-2.2,1.4-4.9,3.4-4.1,7.4c0.5,3.6,3.4,4.7,6.3,5.9l24.7,11.9c7.4,2.7,12.4-7.7,5.2-11.7L104.3,74.7z"/>
		<path class="st1" d="M79.7,77.9l-0.4-5C77.7,71.6,36.5,53.5,32.9,52c-2.5-1.1-5.2-2.3-7.7-3.4c-0.9-0.4-3.1-1.6-4-1.6
			c-1.8-0.4-3.1,0.7-2.5,2.7c0.4,1.6,5.2,3.2,7.2,4.1C32.5,56.5,78,77.8,79.7,77.9z"/>
		<path class="st2" d="M85.4,65.3c0.9-0.9,2.7-2.2,3.2-3.1L35.9,38.3c-1.8-0.9-6.7-3.8-8.3-2c-2.3,2.9,3.1,4.3,4.7,5.2
			c14.8,7,30.6,13.3,45.2,20.3C79.5,62.8,83.6,64.8,85.4,65.3z"/>
		<path class="st3" d="M115.8,73.6C115.8,73.8,116,73.8,115.8,73.6l0.4,0.4l1.1,0.7c3.8,2.2,6.5,3.2,8.8,7.4c3.6,0,6.3-4.3,4.3-8.3
			c-1.3-2.5-4.1-5.2-7.6-5.9C120.9,70.2,119.4,72.5,115.8,73.6z"/>
	</g>
</g>
</svg>
