<?xml version="1.0" encoding="utf-8"?>
<!-- Generator: Adobe Illustrator 23.0.3, SVG Export Plug-In . SVG Version: 6.00 Build 0)  -->
<svg version="1.1" id="Layer_1" xmlns="http://www.w3.org/2000/svg" xmlns:xlink="http://www.w3.org/1999/xlink" x="0px" y="0px"
	 viewBox="0 0 184.3 184.3" style="enable-background:new 0 0 184.3 184.3;" xml:space="preserve">
<style type="text/css">
	.st0{fill:#010101;}
	.st1{fill:#020202;}
	.st2{fill:#030303;}
</style>
<g id="Layer_x0020_1">
	<g id="_2748586239968">
		<path class="st0" d="M41.1,87.1c0.4-8.5-0.5-61.9-0.2-62.5c0.7-1.3,7.2-0.5,8.8-0.5c31.1,0,62.5,0,93.6,0c0.7,3.2,0.7,77.9,0,81
			c-32.9,0-67.3-0.4-100.1,0c-2.2,0-2.2,0.2-2.3-2L41.1,87.1z M35.9,84.2v22.7c0.2,3.6,4,3.6,9.4,3.6h26.8l-17.8,48.2
			c-1.1,3.1-2.3,4.5,0.5,6.5c2.7,0.9,3.8-3.6,4.3-5c0.9-2.3,1.8-4.7,2.5-7c1.6-4.5,3.4-9.4,5.2-13.9c0.5-1.4,9.9-26.3,10.1-28.1
			h13.5c0,3.2-0.4,46.3,0.2,48.2c0.5,2.2,3.2,2.3,4.3,0.7c0.9-1.4,0.7-42.1,0.7-49.7c1.8,0.9,9.2,0.4,11.9,0.4
			c0,2,8.5,24.1,9.7,27.7c0.9,2.3,1.6,4.7,2.5,6.8s1.8,4.7,2.5,6.8l3.8,10.4c1.4,3.6,4.9,2.3,5-0.2c0.2-2.5-17.5-46.1-18.7-52h27.2
			c3.2,0,6.1,0.5,7.9-1.1c1.6-1.6,1.1-4.5,1.1-7.9V24.3c0-2,0-2.5-1.1-3.6c-1.8-1.8-4.3-1.3-7.7-1.3H57.9c-5.8,0-12.4-0.4-18,0
			c-5.6,0.2-4.1,7.4-4.1,14.2C35.7,45.3,35.9,72.1,35.9,84.2z"/>
		<path class="st0" d="M128.6,62.2c0-0.9,0.2-0.9,0.4-1.6c1.6-0.4,2.5-0.5,2.5,1.3C131.5,63.7,128.6,64,128.6,62.2z M127,61.3
			c0,3.1,2.2,3.6,4.5,2.5c-0.4,4-2,1.4-4,2.2c0.7,2.5,5.6,2.7,5.8-2.9S127,57.6,127,61.3z"/>
		<path class="st0" d="M81.5,65.8v-0.7c0-1.6,2.9-1.6,2.9,0v0.4C84.5,67.1,81.5,67.6,81.5,65.8z M79.7,63.3c0,2.5,0.4,5.2,3.6,5.2
			c3.8,0,3.2-5.4,0.9-5.4c-2.5,0-1.6-0.2-2.9,0.5c0.2-3.1,1.6-2.9,3.6-1.8l0.7-1.3C81.5,58.3,79.7,60.3,79.7,63.3z"/>
		<path class="st0" d="M104.5,39c1.4,0,2.9,0,3.6-2.9c1.8,1.3,0.7,2.9,4,2.9c-0.4-1.1-2-3.2-2.5-4.1c0.2-0.5,2.5-3.8,2.3-4.1
			c-0.2-0.5,0-0.5-0.9-0.4c-1.3,0.2-0.2-0.2-1.1,0.5c-0.9,0.9-0.5,1.1-1.6,2c-1.3-1.8-0.7-2.5-3.2-2.5c0.2,1.8,2.2,3.1,2.2,4.5
			C106.8,35.4,105,38.1,104.5,39z"/>
		<path class="st0" d="M129.3,49.6c4.5-1.1,2.9,2.5,1.6,2.5C128.3,52.3,129.3,51.1,129.3,49.6z M127.4,48c0,2.3,0,5.8,3.2,5.8
			c0.4,0,1.8-0.5,2-0.7c2-1.3,1.3-7-3.6-4.5c0.4-4.3,2.5-1.6,4-2.2c-0.2-1.1-0.5-1.6-2.5-1.6C128.4,44.8,127.4,46.4,127.4,48z"/>
		<path class="st0" d="M104.5,53.6c1.8,0,1.6,0.4,2.3-0.9c0.4-0.5,1.1-1.8,1.3-2.3l0.2,0.4c0.2,0.2,0.2,0.2,0.5,0.5
			c1.4,2.2,0.9,2.3,3.2,2.3c-0.4-1.3-1.8-3.4-2.5-4.5c0.9-1.6,1.8-2.7,2.5-4.3h-2.2c-0.5,1.1-1.1,1.6-1.6,2.5
			c-1.8-1.3-0.5-2.5-3.6-2.5c0.4,1.8,2.3,3.2,2.2,4.3C106.7,50,104.9,52.2,104.5,53.6z"/>
		<path class="st0" d="M107,63.5c-0.7,1.1-2.3,3.1-2.5,4.3c3.2,0,1.6-1.3,4-2.9c0.4,0.5,0.9,1.4,1.3,2c0.7,1.1,0.5,0.9,2.3,0.9
			c-0.4-1.4-1.8-3.1-2.5-4.5c0.9-1.3,1.8-2.5,2.5-4h-2.2c-0.5,0.9-1.3,2-2,2.5c-0.9-3.2-2.5-2.5-3.2-2.5
			C105.2,60.8,106.7,62.1,107,63.5z"/>
		<path class="st0" d="M67.6,61c-1.4,2.2-1.6,1.6-1.6,3.2c4.7,0,2.5,2.5,1.6,2.5c-1.6,0-2.7-1.8-2.9,0.9c1.6,0.4,0.5,0.5,2.9,0.5
			c3.1,0,4.3-4.5,0.7-5.4c1.4-2.2,1.8-1.1,1.6-3.6c-0.5,0-7.6-0.2-4.7,1.4C65.8,61.2,66.9,61,67.6,61z"/>
		<path class="st1" d="M127.7,32c-0.7,1.1-1.6,1.4-1.6,3.2c1.8,0,1.8-0.2,2.9,0.9c-0.7,2.9-2.9,1.3-4,0.9l-0.7,1.3
			c5.2,2.7,7.4-1.3,5.4-3.4c-0.5-0.5-0.7-0.5-1.4-0.9c1.4-2,1.6-0.5,1.6-4h-5.2C124.8,32.5,125.4,32,127.7,32z"/>
		<path class="st0" d="M78.2,32.5c0.9,0.2,0.5,0,0.9,0.5c2-0.7-0.2-0.9,2.3-0.9c3.6,0-3.2,5.6-3.2,6.5v0.9H84v-1.6h-3.6
			c0.7-1.1,3.6-3.4,3.6-4.5C84.2,30.4,80.4,28.8,78.2,32.5z"/>
		<path class="st1" d="M98,32h2.5c-0.4,1.4-0.9,0.9-1.3,2c-0.9,2.3,2.5,0.4,2.5,2.5c0,2.5-3.6,0.7-4,0.5c0,1.1,0,0.5-0.4,1.3
			c6.1,3.2,7.7-3.2,3.6-4.3c0,0,3.8-4,0.9-4h-4.3v2C97.7,32,98,32,98,32z"/>
		<path class="st1" d="M98,60.6h2.9c-0.5,0.7-0.9,0.9-1.3,1.6c-0.5,0.9-0.9,1.6,0.2,1.6c2.5,0.2,3.1,2.2,0.5,2.2
			c-1.6,0-1.8-0.9-2.3,0.2c-0.4,0.9,0.4,1.3,1.6,1.6c4.1,1.1,5.8-4.9,1.8-4.9c1.8-2.7,1.8-1.6,2-3.6l-2.7-0.2h-0.2
			c-0.2,0-0.2,0-0.2,0C97.8,59,98,59.2,98,60.6z"/>
		<path class="st0" d="M52.5,32.5l0.7,0.5c1.4-0.4,0.7-0.9,2.5-1.3c0.7,1.1,2.2,1.3-1.4,4.9c-3.4,3.4-2.2,2.9,3.2,2.9
			c1.1,0,0.9-0.5,0.9-1.6h-3.6c0.4-1.1,0.9-1.3,1.8-2.2C61.5,31.1,53.6,28,52.5,32.5z"/>
		<path class="st1" d="M115.1,59.4h-2.5v1.3h2.9c-1.6,2.5-1.6,1.4-1.6,3.6c0.9-0.2,1.6-0.9,2.5,0.4c0.5,0.7,0.4,0.7,0.2,1.6
			c-1.8,0-2.5-0.5-3.6,0c0.2,3.1,5.4,2.2,5.4-0.9c0-1.6-0.7-2.2-2.2-2.2c0.5-1.8,1.6-1.1,1.6-2.9C117.6,58.5,116.4,59.4,115.1,59.4z
			"/>
		<path class="st0" d="M100.5,46.2L100.5,46.2z M100.5,46.2c-0.5,0.7-1.4,1.6-1.6,2.5c1.1,0.5,3.8,0,2.7,2.3c-0.5,1.4-2,0.5-2.9,0.7
			c-0.9,0-0.5-0.4-0.9,0.5c-0.2,0.4-0.7-0.2,0.4,0.7c0.2,0.2,1.3,0.5,1.4,0.5c4,0.7,5.8-4.5,1.6-5.4c1.1-1.6,2-1.1,2-3.6H98
			C98,46.8,98.4,46.2,100.5,46.2z"/>
		<path class="st1" d="M51.4,47.1c2.9,0.7,1.3-0.7,2.9-0.7c0.5,0,1.3,0.5,1.3,0.9c0,1.6-1.4,2.5-2.3,3.4c-3.6,3.6-2,3.1,3.2,3.1
			c1.1,0,0.9-0.5,0.9-1.6h-3.6c0.2-0.9,4.9-4.7,2.2-7c-1.1-0.9-2.7-0.9-3.8,0C51.8,45.7,51.8,46.2,51.4,47.1z"/>
		<path class="st1" d="M69.2,47.7c0,0.7-1.6,2.5-2.2,3.1c-1.1,1.1-2,1.3-2,3.2h5.8v-1.6h-3.6c0.5-0.7,1.1-1.3,1.8-2.2
			s1.4-1.3,1.4-2.7c0-5.6-7.4-1.4-4.7-0.2c1.1,0.5,0.7-0.4,2-0.7C68.7,46.4,69.2,46.9,69.2,47.7z"/>
		<path class="st2" d="M50.9,61.3l0.7,0.5c1.1-0.2,3.4-2.3,3.4,0.4c0,1.8-4.1,3.6-4.1,6.1c4.1,0,5.2,0.5,6.1-0.5
			c-0.4-1.3,0-0.9-3.6-0.9c0.5-2.2,2.9-1.8,2.9-5.2C56.3,59.2,51.6,58.3,50.9,61.3z"/>
		<path class="st0" d="M112.8,46.2l0.9,0.9c0.2-0.2,3.2-2.3,3.2,0.5c0,0.5-1.4,2.2-1.8,2.7c-1.6,1.8-2,1.1-2,3.6
			c5.9,0,5.8,0.5,5.8-1.6h-3.6c1.4-2.2,2.9-2,2.9-4.9C118.4,45.3,114.6,43.5,112.8,46.2z"/>
		<path class="st0" d="M79.7,51.6h4c-0.7,1.6-0.7,2.2,1.3,2.3v-2.3c1.4-0.2,0.5,0.4,1.3-0.5c-0.5-0.5-0.4-0.7-1.4-0.7v-1.6h-1.6
			c0.2,1.8,0.7,1.6-1.6,1.6l2.9-5.2c-1.8,0-1.6-0.4-3.2,2.3C80.4,48.9,79.7,49.5,79.7,51.6z"/>
		<path class="st0" d="M60.2,50.7c-0.7,1.1-1.6,1.8-2,3.2c0.9,0,2,0.4,2.5-2c2.5,0.5,0.2,2,3.6,2c-0.4-1.8-1.6-2.2-2-4
			c0.7-0.9,1.4-1.4,1.6-2.9c-2.7,0-1.3,0.7-2.9,2c-1.1-2-0.7-2-2.9-2C59,48.4,59.9,49.3,60.2,50.7z"/>
		<path class="st0" d="M61.5,35.8c-0.7,1.4-1.6,2.2-2.2,3.6h2c0.4-0.7,0.7-1.1,0.9-2c1.8,1.3,0.4,2,3.2,2c-0.4-1.3-1.3-2.3-2-3.6
			c0.7-0.9,1.6-1.6,2-2.9c-3.2,0-1.4,0.5-3.2,2c-0.2-0.9-0.5-1.3-0.9-2h-2c0.4,0.5,0.5,0.9,1.1,1.4L61.5,35.8z"/>
		<path class="st0" d="M60.2,64.9c-0.9,1.3-1.6,1.8-2.3,3.2c1.1,0,1.3,0.2,2-0.4c0.2-0.2,0.9-1.3,0.9-1.6c1.8,1.3,0.2,2,3.6,2
			c-0.7-1.1-1.6-2-2.2-2.9c0.2-1.1,1.4-2.5,2-3.6c-3.2,0-1.4,0.5-3.2,1.8c-0.9-1.6-0.2-1.8-2.5-1.8C58.6,63,59.3,64,60.2,64.9z"/>
		<path class="st0" d="M112.2,32h2v7h1.6v-8.6h-2.5C112.1,30.4,112.2,30.9,112.2,32z"/>
		<polygon class="st0" points="66,32.2 67.6,32.2 67.6,39.4 69.2,39.4 69.2,30.6 66,30.6 		"/>
		<path class="st1" d="M72.5,48.7c5.9,0,6.5,0.5,6.5-1.3c-1.3-0.7-4.9-0.4-6.5-0.4V48.7z"/>
		<path class="st1" d="M71.9,64.6v0.7c1.1,0.7,4.1,0.4,5.4,0.4c1.1,0,0.9-0.5,0.9-1.6C76.1,63.9,71.9,63.5,71.9,64.6z"/>
		<polygon class="st0" points="117.3,36.5 123.6,36.5 123.6,34.9 117.3,34.9 		"/>
		<path class="st0" d="M72.5,51.1c6.1,0,6.3,0.5,6.5-1.3C72.3,49.6,72.5,48.7,72.5,51.1z"/>
		<path class="st2" d="M120,47.1v1.3h6.1v-1.3c-1.4,0-2-0.2-3.1-0.2C121.6,46.6,121.2,46.9,120,47.1z"/>
		<path class="st1" d="M122,62.6c1.3,0,1.1,0.2,2,0.2s0.7-0.2,2-0.2v-1.3h-6.1C119.6,64,120.3,62.6,122,62.6z"/>
		<polygon class="st1" points="70.8,34.2 77.3,34.2 77.3,32.9 70.8,32.9 		"/>
		<polygon class="st0" points="71.9,63 78.2,63 78.2,61.7 71.9,61.7 		"/>
		<path class="st0" d="M70.8,36.5h6.5v-1.3h-5.4C70.8,35.1,70.8,35.6,70.8,36.5z"/>
		<polygon class="st1" points="119.6,64.9 125.7,64.9 125.7,63.5 119.6,63.5 		"/>
		<polygon class="st0" points="120,50.4 126.1,50.4 126.1,49.1 120,49.1 		"/>
		<polygon class="st0" points="117.3,33.8 123.6,33.8 123.6,32.5 117.3,32.5 		"/>
	</g>
</g>
</svg>
