<?xml version="1.0" encoding="utf-8"?>
<!-- Generator: Adobe Illustrator 23.0.3, SVG Export Plug-In . SVG Version: 6.00 Build 0)  -->
<svg version="1.1" id="Layer_1" xmlns="http://www.w3.org/2000/svg" xmlns:xlink="http://www.w3.org/1999/xlink" x="0px" y="0px"
	 viewBox="0 0 184.3 184.3" style="enable-background:new 0 0 184.3 184.3;" xml:space="preserve">
<g id="Layer_x0020_1">
	<path d="M32.8,125.4v1.3c0,2.5,2.5,5,5,5c4.3,0,4.7-1.4,6.8-5l4.1-7.2c0.5-0.9,2.3-4.3,2.9-4.7c0,9.4-0.5,8.3-1.6,17.3l-1.8,12.4
		c-0.4,2.3-1.8,8.1,3.4,8.1v16.9c0,3.4,2.3,6.1,5.6,6.5c3.2,0.4,6.3-2.3,6.3-5.4v-17.8h4.7v17.1c0,3.4,2.5,5.9,5.6,6.3
		c3.1,0.2,6.5-2.3,6.5-5.4v-17.8c5.2,0,3.6-5.8,3.4-8.3c-0.2-1.6-0.4-2.7-0.5-4.3l-2.9-20.7c0-1.6,0-3.2,0-4.9l0.9,1.1
		c0.4,0.5,0.5,0.7,0.7,1.4l8.1,13.5c1.3,2,2.3,3.6,5.2,3.6c3.8,0,4.9-2.5,6.3-4.9l7-11.7v45.5c0,3.1-0.4,4.7,0.9,6.8
		c2.7,4.7,10.8,3.2,11.2-2.5c0.4-4-0.4-30.1,0.2-31.5c0.5-1.4,1.4-1.4,2.2-1.4c3.2,0,2.2,6.3,2.2,9.4v23c0.2,5.6,7.7,8.1,11,3.1
		c1.3-2,1.1-3.6,1.1-6.7v-45.7c0.2,0.2,0.2,0,0.4,0.4l5.2,9c2.3,3.8,3.2,7.2,7.9,7.2c2.5,0,5.2-2.5,5.2-5c0-3.4-0.7-3.6-2.5-6.7
		l-18-30.8c-1.3-1.8-2.5-2.7-5.4-2.7h-14.2c-4.5,0-5.2,2.3-7,5l-11.2,18.9c-0.7,1.3-1.4,2.5-2.2,3.8c-0.9-0.5-4-6.5-4.9-7.9
		l-8.3-14.2c-2.2-3.8-4.1-8.5-7.7-8.5H56.9c-0.9,0-2.2,0.7-2.7,1.3c-0.7,0.5-1.3,1.4-1.6,2.2l-8.8,15.1c-2,3.4-3.8,6.5-5.8,9.9
		C36.9,117.1,32.8,123.4,32.8,125.4z M36.2,53.2v38h-7V57.3l-7.7,4.5l-5.2-9.2l73.3-42.3l2.7-1.6l2.7,1.6L125.5,28V8.2h14.2v27.9
		l28.6,16.6l-5.2,9.2l-5.2-2.9v32.4h-7V54.8L92,21L36.2,53.2z M109.6,74.1c0,12.1,13.9,17.6,22.1,9.4c7.7-7.7,2.9-21.8-9.5-21.8
		C115.6,61.6,109.6,67.6,109.6,74.1z M54.9,65.8c-3.1-0.4-5.4-0.4-8.3,1.6c-1.8,1.3-2.9,2.2-3.4,4.5c-0.5,2.2-1.6,9.9,0.5,11.7
		c1.8,1.6,7.2,0.7,8.1-0.9c1.1-2-1.4-8.3,1.6-10.6c0,2,0.5,3.6,1.1,5c0.7,1.6,1.4,2.3,2.5,3.6c0.7,0.9,2.3,2.2,3.4,2.5
		c5,2.5,11.9,1.6,15.5-2.5c2-2.5,3.4-4.9,3.4-8.6c3.1,2.3,0.5,8.5,1.6,10.4c0.9,1.8,6.3,2.5,8.1,1.3c2-1.6,1.3-9.4,0.7-11.7
		c-0.7-2.9-3.1-5-5.9-5.9c-2.3-0.9-3.6-0.5-5.9-0.4l-1.8-2.7c-2.5-3.2-8.6-5.2-13.3-3.6c-1.1,0.4-2.2,0.9-3.1,1.4
		C57.4,62,56,63.6,54.9,65.8z"/>
</g>
</svg>
