<?xml version="1.0" encoding="utf-8"?>
<!-- Generator: Adobe Illustrator 23.0.3, SVG Export Plug-In . SVG Version: 6.00 Build 0)  -->
<svg version="1.1" id="Layer_1" xmlns="http://www.w3.org/2000/svg" xmlns:xlink="http://www.w3.org/1999/xlink" x="0px" y="0px"
	 viewBox="0 0 184.3 184.3" style="enable-background:new 0 0 184.3 184.3;" xml:space="preserve">
<style type="text/css">
	.st0{fill:#FFFFFF;}
</style>
<g id="Layer_x0020_1">
	<path class="st0" d="M26.2,114.9c0.2,2.3,2.2,2.7,4.7,2.7h92.5c4,0,11,1.3,10.6-3.4c-0.2-2.3-2-2.9-4.3-2.9H36.9
		C32.7,111.3,25.7,110.1,26.2,114.9z M125.8,63.1c-1.8,2.3,1.3,9.4,4.7,6.8c1.6-1.3,1.8-3.4-0.2-4.5
		C127.8,64.2,128.3,66.1,125.8,63.1z M130.5,71.7c0.2,1.3,2.3,3.2,3.4,3.8c1.8,0.9,4-1.3,3.6-2.9c-0.2-1.1-2.3-3.2-3.4-3.8
		C132.4,68.1,130.3,70.3,130.5,71.7z M84.6,61.5c0.9,0.5,3.1,0.5,4.3,0.9c1.3,0.4,2.7,0.9,3.8,1.3c5.4,2.2,9.9,5.4,13.1,10.1
		c0.2,0.4,0.7,1.4,1.1,1.6c0.7,0.9,2.5,0.9,3.4,0c2.9-3.2-6.8-8.8-9.2-10.1c-4-2-10.8-3.8-15.1-4L84.6,61.5z M82.8,62.9
		c0.4,0.5,3.1,1.8,4,2.3C93,69,99.1,75.9,102.2,82.7c0.7,1.8,1.1,2.9,1.6,4.9c0.5,1.8,2.7,2.5,4,0.9c1.8-2.2-3.1-8.8-4.3-10.8
		c-2.5-3.6-7.9-8.6-11.9-11C90.5,66.1,83.8,62.4,82.8,62.9z M80.8,64.3c0,0.7-0.5,0,1.4,1.6c0.5,0.5,1.3,0.9,1.6,1.6
		c1.8,2,4.1,5,5.2,7.7c0.7,1.6,1.3,2.9,1.8,4.7c1.8,5.4,2,10.4,1.6,16.4c-0.2,2.2,1.3,3.6,3.2,2.5c3.1-1.6-0.9-16.4-3.1-20.7
		c-2-4.1-5-8.5-8.3-11C83.7,66.1,82,64.5,80.8,64.3z M138.4,79.5l7.7,7.7c1.8,1.8,3.4,3.4,5.2,5.2c1.8,1.8,4.1,5.2,5.9,3.2
		c1.4-1.4,0-2.7-0.7-3.4l-13.1-13.1c-1.1-1.1-4.3-4.7-5.4-5c-0.7,0.5-2.2,1.8-2.5,2.5C136.2,77.5,137.7,78.7,138.4,79.5z M75.6,8.4
		c0.2,1.4,6.1,0.7,7.6,0.7c2.2,0,2-0.2,2-2.2c0-3.6,0.2-18.7-0.4-19.8c-0.5-1.3-1.8-1.1-3.1-1.1c-6.5,0-6.1-0.5-6.1,6.3V8.4z M57,37
		c-1.1,1.3-0.7,1.6,0,3.1c0.5,1.1,0.9,1.8,1.4,2.9c1.1,1.6,2,4,3.1,5.8c1.6,3.1-0.4,4-2,5.6c-0.9,0.9-1.4,1.4-2.2,2.2
		c-0.7,0.7-1.6,1.6-2.2,2.2c-0.2,0.2-2.2,2-2.2,2.2c-2.2,4.3,7.9,1.4,9.2,1.3c2.9-0.5,5.2-1.6,6.7,0.9c0.9,1.6,5,10.8,5.9,11
		c1.8,0.2,2.2-0.7,2.3-2.3c0.5-2.3,1.4-10.3,2-11.5c1.3-2.3,13.5-1.8,14.4-3.6c0.5-2.2-0.5-2.2-2-2.9l-9.7-5c-2.7-2.2,4-16-0.5-15.5
		c-1.8,0.2-8.6,9.2-10.6,9.4c-1.3,0.2-8.1-3.6-10.1-4.7C59.2,37.2,58.6,36.3,57,37z M77.5,120.1c0.4,12.4,0,28.4,0,41.6
		c0,4.9-1.1,11,3.1,10.4c2-0.2,2.5-1.8,2.5-4.1V120L77.5,120.1z M69.3,120c-4,13.1-8.5,26.6-12.4,39.8c-2,6.8-4.3,13.3-6.3,20
		l-4.7,14.9c-0.4,2,1.1,3.6,2.9,3.4c2-0.2,2.3-2,2.9-3.8c0.5-1.8,1.1-3.2,1.6-5c2.7-8.8,6.5-21.6,9.2-29.7c2.3-6.7,4-13.3,6.1-19.8
		c1.1-3.2,2-6.7,3.1-9.9c1.1-3.1,2.2-6.8,3.1-9.9L69.3,120z M85.5,120.1c1.3,5,4.5,14.4,6.3,20c2,6.7,4,13.1,6.1,19.8
		c2.2,6.7,4,13.1,6.1,20c1.1,3.4,2,6.7,3.1,9.9c0.5,1.6,1.1,3.4,1.6,5c0.5,1.8,0.9,3.4,3.1,3.4c2,0,3.1-1.6,2.5-4
		c-0.5-1.6-1.1-3.2-1.6-5c-2.9-9.9-6.3-20-9.2-29.7c-2-6.7-4.1-13.3-6.1-19.8c-1.1-3.2-2-6.7-3.1-9.9c-1.1-3.2-2.2-6.8-3.1-9.9h-5.8
		C85.5,120,85.5,120.1,85.5,120.1z M80.2,39.7c0.2-1.4,0.2-2.9-1.4-2.9c-1.3,0-5.6,5.4-7.4,6.7c-1.6,1.3-5-1.3-6.7-2.2
		c-0.7-0.4-2.5-1.4-3.1-1.6c-1.4-0.5-2.5,0.5-2.2,2c0.2,0.5,2.7,5.6,3.2,6.3c1.8,3.2,0,4.1-1.8,5.8c-0.9,0.9-4.3,4-4.3,4.9
		c-0.4,3.1,4.7,1.4,6.5,1.1c7.4-1.1,4.3-1.1,9.7,7.7c0.7,1.3,2.3,1.6,3.1,0.2l1.3-8.1c0.7-4.3,4.1-2,10.3-4c1.6-0.5,1.8-2,0.7-2.9
		c-0.5-0.5-2.3-1.3-3.1-1.6c-1.1-0.5-2-0.9-3.1-1.6C78.3,48.1,78.6,48.9,80.2,39.7z M36.7,17.5c0.7,0.5,1.4,0.4,2.5,0.4h77.9
		c1.4,0,4.9,0.2,5.9-0.2c2.7-0.7,3.6-5.9-1.8-6.1h-18.2c-1.1,0-2,0-3.1,0.2H84.2c-0.5,0-0.9-0.2-1.4-0.2H43.3
		c-1.4,0-4.9-0.2-5.9,0.2c-1.4,0.4-2.5,2-2,4C35.6,16.5,36.1,17.2,36.7,17.5z M116.2,106.6c-1.8,0.5-47.9,0.2-54.9,0.2
		c-3.2,0-14.9,0.4-16.9-0.2c-0.5-1.6-0.5-82.8,0-84.2c1.8-0.5,64.3-0.2,67.5-0.2l4.5,0.2c0.5,2.2,0.2,53.6,0.2,63.4
		C116.4,89.2,116.8,104.8,116.2,106.6z M118.2,106.6c0.4-1.4,0.2-78.7,0.2-82.4c0-4.3-2.5-3.8-6.3-3.8H50.9c-3.2,0-7.4-0.9-8.3,1.8
		c-0.5,1.4-0.2,74.2-0.2,82.4c0,4.7,2,4.1,6.1,4.1h61.7C113.4,108.8,117.3,109.5,118.2,106.6z"/>
</g>
</svg>
