<?xml version="1.0" encoding="utf-8"?>
<!-- Generator: Adobe Illustrator 23.0.3, SVG Export Plug-In . SVG Version: 6.00 Build 0)  -->
<svg version="1.1" id="Layer_1" xmlns="http://www.w3.org/2000/svg" xmlns:xlink="http://www.w3.org/1999/xlink" x="0px" y="0px"
	 viewBox="0 0 184.3 184.3" style="enable-background:new 0 0 184.3 184.3;" xml:space="preserve">
<style type="text/css">
	.st0{fill:#FFFFFF;}
</style>
<g id="Layer_x0020_1">
	<g id="_2748705038640">
		<path class="st0" d="M32.9,125.4v1.3c0,2.5,2.5,5,5,5c4.3,0,4.7-1.4,6.8-5l4.1-7.2c0.5-0.9,2.3-4.3,2.9-4.7
			c0,9.4-0.5,8.3-1.6,17.3l-1.8,12.4c-0.4,2.3-1.8,8.1,3.4,8.1v16.9c0,3.4,2.3,6.1,5.6,6.5c3.2,0.4,6.3-2.3,6.3-5.4v-17.8h4.7v17.1
			c0,3.4,2.5,5.9,5.6,6.3c3.1,0.2,6.5-2.3,6.5-5.4v-17.8c5.2,0,3.6-5.8,3.4-8.3c-0.2-1.6-0.4-2.7-0.5-4.3l-2.9-20.7
			c0-1.6,0-3.2,0-4.9l0.9,1.1c0.4,0.5,0.5,0.7,0.7,1.4l8.1,13.5c1.3,2,2.3,3.6,5.2,3.6c3.8,0,4.9-2.5,6.3-4.9l7-11.7v45.5
			c0,3.1-0.4,4.7,0.9,6.8c2.7,4.7,10.8,3.2,11.2-2.5c0.4-4-0.4-30.1,0.2-31.5c0.5-1.4,1.4-1.4,2.2-1.4c3.2,0,2.2,6.3,2.2,9.4v23
			c0.2,5.6,7.7,8.1,11,3.1c1.3-2,1.1-3.6,1.1-6.7v-45.7c0.2,0.2,0.2,0,0.4,0.4l5.2,9c2.3,3.8,3.2,7.2,7.9,7.2c2.5,0,5.2-2.5,5.2-5
			c0-3.4-0.7-3.6-2.5-6.7l-18-30.8c-1.3-1.8-2.5-2.7-5.4-2.7h-14.2c-4.5,0-5.2,2.3-7,5l-11.2,18.9c-0.7,1.3-1.4,2.5-2.2,3.8
			c-0.9-0.5-4-6.5-4.9-7.9l-8.3-14.2c-2.2-3.8-4.1-8.5-7.7-8.5H57c-0.9,0-2.2,0.7-2.7,1.3c-0.7,0.5-1.3,1.4-1.6,2.2l-8.8,15.1
			c-2,3.4-3.8,6.5-5.8,9.9C37,117.1,32.9,123.4,32.9,125.4z"/>
		<path class="st0" d="M55,65.8c-3.1-0.4-5.4-0.4-8.3,1.6c-1.8,1.3-2.9,2.2-3.4,4.5c-0.5,2.2-1.6,9.9,0.5,11.7
			c1.8,1.6,7.2,0.7,8.1-0.9c1.1-2-1.4-8.3,1.6-10.6c0,2,0.5,3.6,1.1,5c0.7,1.6,1.4,2.3,2.5,3.6c0.7,0.9,2.3,2.2,3.4,2.5
			c5,2.5,11.9,1.6,15.5-2.5c2-2.5,3.4-4.9,3.4-8.6c3.1,2.3,0.5,8.5,1.6,10.4c0.9,1.8,6.3,2.5,8.1,1.3c2-1.6,1.3-9.4,0.7-11.7
			c-0.7-2.9-3.1-5-5.9-5.9c-2.3-0.9-3.6-0.5-5.9-0.4l-1.8-2.7c-2.5-3.2-8.6-5.2-13.3-3.6c-1.1,0.4-2.2,0.9-3.1,1.4
			C57.5,62,56.1,63.6,55,65.8z"/>
		<path class="st0" d="M109.7,74.1c0,12.1,13.9,17.6,22.1,9.4c7.7-7.7,2.9-21.8-9.5-21.8C115.7,61.6,109.7,67.6,109.7,74.1z"/>
		<polygon class="st0" points="36.3,53.2 36.3,91.2 29.3,91.2 29.3,57.3 21.5,61.8 16.1,52.6 89.6,10.3 92.1,8.9 94.8,10.3 
			125.4,28 125.4,8.2 139.4,8.2 139.4,36.1 168.1,52.6 162.8,61.8 157.6,58.8 157.6,91.2 150.4,91.2 150.4,54.8 92.1,21 		"/>
	</g>
</g>
</svg>
