<?xml version="1.0" encoding="utf-8"?>
<!-- Generator: Adobe Illustrator 23.0.3, SVG Export Plug-In . SVG Version: 6.00 Build 0)  -->
<svg version="1.1" id="Layer_1" xmlns="http://www.w3.org/2000/svg" xmlns:xlink="http://www.w3.org/1999/xlink" x="0px" y="0px"
	 viewBox="0 0 184.3 184.3" style="enable-background:new 0 0 184.3 184.3;" xml:space="preserve">
<style type="text/css">
	.st0{fill:#FFFFFF;}
</style>
<g id="Layer_x0020_1">
	<path class="st0" d="M24.7,66.2c0.4,0.9,3.1,1.8,4,2.3c1.4,0.5,2.9,1.3,4.3,1.8l25.4,11.5c9.9,4.3,19.8,9,29.7,13.5
		c5.6,2.5,2.9,1.8,12.8-2.3c8.3-3.6,17.1-7.7,25.6-11.5c5.8-2.5,11.3-5.2,17.1-7.7c4.3-1.8,8.5-3.8,12.8-5.8
		c1.3-0.5,3.8-1.1,3.2-2.9c-0.2-0.9-1.1-1.1-1.8-1.4l-31.9-14.4c-5.6-2.5-11.3-5-16.9-7.7c-2.9-1.3-5.6-2.5-8.5-3.8
		c-1.4-0.5-7.6-3.8-8.6-3.6L83.4,38c-2.7,1.3-5.6,2.5-8.5,3.8C69.4,44.3,63.6,47,58,49.5c-5.8,2.5-11.3,5.2-16.9,7.7l-13.3,5.9
		C26,64.1,24.2,64.4,24.7,66.2z M148.2,118.1c-4.7,2.3-4.9,7.4-2.3,10.1c1.4,1.6,1.3,0.7,0.5,3.4L143,144c-0.2,1.1-0.9,3.2-1.1,4.1
		c2.5,0.9,5.8,1.8,8.8,1.8c2.3,0,6.8-1.1,8.6-2l-5-18.7c0.5-0.9,1.4-1.3,2-2.5c1.6-3.2,0.4-7.2-3.2-8.8V73.4l-4.9,2.2
		C148.2,75.6,148.2,118.1,148.2,118.1z M46.2,80.4c-0.2,1.8,0,17.8,0,21.2c0,4.9-0.5,4,4.9,5.9c2.5,0.9,5,2,7.6,2.9
		c29,11.7,38.7,11.3,67.3,0c2.5-0.9,5.2-2,7.7-2.9c4.7-1.8,4.7-0.5,4.7-5.9c0-7,0-14,0-21.1c-1.6,0.5-4.1,1.8-5.9,2.5
		c-2,0.9-3.8,1.8-5.8,2.5c-9.4,4.1-19.1,8.6-28.4,12.8c-7.2,3.1-5.2,2.9-12.1,0c-1.8-0.9-4-1.8-5.6-2.5c-3.8-1.8-7.6-3.4-11.3-5.2
		L46.2,80.4z"/>
</g>
</svg>
