<?xml version="1.0" encoding="utf-8"?>
<!-- Generator: Adobe Illustrator 23.0.3, SVG Export Plug-In . SVG Version: 6.00 Build 0)  -->
<svg version="1.1" id="Layer_1" xmlns="http://www.w3.org/2000/svg" xmlns:xlink="http://www.w3.org/1999/xlink" x="0px" y="0px"
	 viewBox="0 0 184.3 184.3" style="enable-background:new 0 0 184.3 184.3;" xml:space="preserve">
<style type="text/css">
	.st0{fill:#010100;}
</style>
<g id="Layer_x0020_1">
	<g id="_2747159863392">
		<path class="st0" d="M105.4,74.8c-0.9,3.6-0.5,4.3-2,9.7c-0.4,1.3-0.9,2.9-1.3,4.3c-1.6,4.7-6.5,9.7-9.5,13.9
			c-0.5,0.7-0.7,0.9-1.3,1.6c-0.7,0.9-0.9,0.9-1.1,2.2c1.8,0,7.9,2.5,9.5,3.2c2.9,1.3,5.8,2.7,8.5,4.1l9.9-12.8
			c0.5-0.5,0-0.4,0.9-0.5c0,1.6,0.7,4.3,1.3,5.8l3.2,11c2,5.2,5.9,15.3,8.6,19.8c0.5,0.9,0.7,1.4,1.3,2.3l9.5,15.5
			c1.1,1.6,2,2.7,3.1,4.1c2,2.7,7.4,9.5,9.7,11.5c5.8,5.2,15.5,0.5,15.5-6.5c0-5-1.3-5.9-4.9-10.1c-3.4-3.8-8.5-11.2-11.2-15.1
			c-2.7-4.1-7.2-12.2-9.2-17.1c-3.6-8.3-4.3-9.7-7-19.3c-0.5-2.2-2.2-8.6-2.2-11l2.5-12.4c0.7-4,2-12.6,0.9-17.1
			c-0.5-0.4-10.1-2.5-11.2-2.5c-0.4,0-4.3,4.1-4.9,4.7c-1.4,1.6-3.6,3.1-5.4,4.3C115.5,70.7,109.3,73.9,105.4,74.8z"/>
		<path class="st0" d="M71.2,84.2c1.6-0.2,5.2-2,8.8,1.3c3.4,3.1,3.4,9.9-2.2,12.2c-1.1,0.5-7.4,2.2-8.8,2.2c0,2.3-1.4,5-2.3,7.2
			c-1.3,2.5-1.4,2-5.2,4.7c-10.1,6.7-16,12.6-24.5,21.1c-3.2,3.2-4.9,5.4-7.6,8.5c-1.8,2-9.4,11.7-9.7,13.3
			c10.1,0,30.6-5.2,39.8-8.3c5.9-2,13.7-5.4,18.9-9c0.9-0.5,1.6-1.1,2.3-1.8c4.1-2.9,12.1-12.2,17.5-14.9c3.2-1.6,6.1-1.8,9-2.9
			c1.1-0.4,2-0.9,3.1-1.1c-0.4-1.3-3.1-2.3-4.3-2.9c-1.8-0.9-3.2-1.8-5-2.5c-2.5-1.1-8.6-3.6-11.2-3.8c-0.9-3.6-0.4-4.3,0.4-7.9
			c1.8-8.8,1.6-7.9,3.6-8.5c5.8-1.6,6.8-8.6,6.1-14c-0.4-2.3-0.7-0.4-9.2-0.4c-4.9,0-11.3,0.2-11.3-6.3c0-7.6,9.5-5.8,14.6-5.8
			c-0.9-3.2-14.8-12.1-20.2,2.9C72.6,70.1,71.2,81.6,71.2,84.2z"/>
		<path class="st0" d="M91.5,127.9c1.1,0.5,3.4,1.1,4.9,1.4c1.4,0.5,4,1.3,5.2,1.4c-0.4,1.4-3.4,6.1-4.5,7.9c-1.6,2.5-3.2,5-4.7,7.7
			c-1.6,2.7-8.8,13-8.8,16.2c0,8.1,9.9,10.8,14,4.7l21.1-34.2c1.4-2.3,2.7-3.4,2.7-6.8c0-5.6-7-8.1-9.9-8.1l-13.3,4.7
			C96.7,123.2,92.4,126.5,91.5,127.9z"/>
		<path class="st0" d="M104.1,11.4c-2.9,0.7-1.8-0.7-6.8,1.8C85.8,19,85.8,34.3,93.7,41.1c5.6,4.7,12.6,5.8,19.3,2.5
			c1.8-0.9,3.6-2.3,4.9-3.6c6.5-6.8,5.4-18-1.3-24.3c-2.9-2.7-6.8-4-10.8-4.5C104.3,10.9,104.1,11.4,104.1,11.4z"/>
		<path class="st0" d="M70.6,60.2c13.1,0,20.2-16.6,11-25.6c-4-3.8-6.3-4.9-12.1-4.9c-7.7,0-14.8,7.6-14.4,15.5
			C55.5,53.4,62,60.2,70.6,60.2z"/>
		<path class="st0" d="M48.7,162.1c0,8.6,10.1,13.1,16.4,6.8c1.6-1.6,2.9-3.6,4.5-5.4c0.7-0.9,1.3-1.8,2-2.7l10.6-13.7
			c1.1-1.3,12.4-15.7,12.8-16.7c-1.4-0.7-3.2-0.9-4.7-1.6c-0.7,1.1-8.6,7.9-9.9,8.8c-3.4,2.3-7.7,5-11.9,6.8l-10.1,4
			c-2.9,1.1-2.2,1.3-4.7,4.5C51.6,155.4,48.7,158.5,48.7,162.1z"/>
		<path class="st0" d="M119.1,41.5c0,2.2,0.5,4.3,0.4,5.6c-0.2,1.8-0.4,3.2-0.4,5.4c4-2.7,3.2-8.3,10.8-8.3c2.3,0,10.3,2.5,13.7,3.2
			c3.6,0.7,3.4,0.4,3.8,1.8c-1.4-0.2-3.2-0.5-4.5-0.9c-4-0.9-11.2-2.9-13.9-2.9c-5,0-7.7,7.2-3.8,10.6c1.8,1.6,7.7,2.5,10.1,3.2
			c3.2,0.9,13.9,3.1,16.7,2.9c1.6-0.2,3.8-0.9,4.9-1.8c1.6-1.4,2.2-3.2,2.2-5.4c0-5.9-12.2-10.8-17.3-13c-2.2-0.9-11-5.2-12.8-5.2
			c-2.2,0-6.1,1.4-8.3,2.2C119.6,39.7,119.1,40.1,119.1,41.5z"/>
		<path class="st0" d="M84.1,66.2c-3.2,0-5.6,6.3-1.6,8.6c1.6,0.9,5.6,0.9,7.9,0.9c7.7,0,16.7-2.5,21.8-5c7.9-4,5.9-3.6,11.9-8.1
			l3.4-3.6c-3.1-0.7-5.8-3.2-5.8-7h-0.5c-0.4,1.6-5,5.4-6.5,6.5c-2.5,1.8-5.2,3.4-8.3,4.7c-7.2,2.9-9,2.5-16,3.4
			C88.6,66.7,86.5,66.2,84.1,66.2z"/>
		<path class="st0" d="M13,164.6c0,3.1,0.2,4.7,2.9,6.8c4,3.2,8.3,1.1,11.3-1.8c1.6-1.3,2.9-2.5,4.5-3.8l15.8-13.1
			c0.7-0.5,1.6-1.3,2.2-2l-10.1,2.3c-3.2,0.7-7.2,1.3-10.8,1.8c-1.8,0.2-3.6,0.5-5.6,0.7c-2.5,0.4-3.1-0.2-4.9,1.4
			C16.3,159,13,161,13,164.6z"/>
		<path class="st0" d="M92.8,61.5c0.7,1.1,2.2,1.8,2.5,3.2c3.1,0,8.1-1.6,10.3-2.5l6.3-3.2c0.7-0.5,1.3-1.1,2.2-1.3
			c-0.2-1.8-4.3-9.2-5.4-11.2c-1.6,0-1.8,0.4-3.2,0.4c-2.9,0-4-1.6-6.8,2.3C97.3,50.9,94.6,58.1,92.8,61.5z"/>
		<path class="st0" d="M64.9,89.6c0,11.3,3.1,9.9,11.5,7.4c7.7-2.3,4.9-12.1-1.4-12.1c-1.4,0-4.5,0.9-5.9,1.3
			C67,86.7,64.9,87,64.9,89.6z"/>
	</g>
</g>
</svg>
