<?xml version="1.0" encoding="utf-8"?>
<!-- Generator: Adobe Illustrator 23.0.3, SVG Export Plug-In . SVG Version: 6.00 Build 0)  -->
<svg version="1.1" id="Layer_1" xmlns="http://www.w3.org/2000/svg" xmlns:xlink="http://www.w3.org/1999/xlink" x="0px" y="0px"
	 viewBox="0 0 184.3 184.3" style="enable-background:new 0 0 184.3 184.3;" xml:space="preserve">
<g id="Layer_x0020_1">
	<g id="_2748340024688">
		<path d="M135.4,42.1c1.4,0.2,0.9,0.2,1.4,1.1c0.2,0.4,0.5,1.3,0.7,1.6c0.5,1.1,1.1,2,1.6,3.2c1.6,3.2,0.4,4-2.3,5.2
			c-12.4,6.1-11,7-18.4,4c-2-0.9-4.7-1.4-4.7-3.4c0.2-1.6,0.7-1.8,1.8-2.3C119.1,49.8,133.5,41.9,135.4,42.1z M76,73.9
			c-0.4,4.1-1.4,9.9-4.7,11.7c-1.6,0.9-2.3,0.2-5.6-2.5l3.6-8.3C70.1,73,76.2,70.5,76,73.9z M64,77.2c-0.4,0.9-1.1,2.3-1.6,3.4
			c-0.9,1.8-0.5,1.8-2.2,2.5c-1.6,0.7-5.2,2.5-6.8,2.5c-1.4-3.4-0.7-3.1,3.6-5.2C58.4,79.7,62.4,77.4,64,77.2z M66,88.3
			c-2.9,0.5-9.5,6.8-10.4,0.9c1.8-0.7,3.6-1.3,5.2-2c2.2-0.9,2.2-1.1,4,0.2c0.4,0.2,0.4,0.2,0.5,0.5C66,88.3,65.6,88,66,88.3z
			 M95.3,107.8c0-0.7-0.9-4.7-1.3-5.8c-0.7-2.3-0.9-4.9-2.9-4.9c-3.8-0.4-0.4,7.4-0.4,9.4c-1.8,1.1-3.4,2.2-5.2,3.2
			c-1.8,1.3-3.6,2.5-5.4,3.6c-0.2-1.4-2.3-5.9-2.2-6.7c0.2-1.6,5.4-4.1,5.6-6.8c0-0.4-0.7-3.6-4.1-0.4c-4.9,4.3-2.9,4.1-9,5.9
			c-1.6,0.5-3.8,1.3-5.4,2c-2-3.4-7.7-4.5,1.3-8.3c9-3.6,18.2-6.3,28.1-10.3c8.3-3.4,13.1-6.1,20.7-10.4
			c5.2-2.9,26.8-17.8,29.2-17.8c3.1,0.2,3.1,7.9,3.4,11.5c0.2,2.5,0.4,4.5,0.7,6.8c2,16.6-4,16.9-17.1,23.6
			c-5.8,2.9-17.6,8.5-22.5,11.2c-0.9-0.7-1.6-1.8-2.5-2.5c-1.1-0.9-1.8-1.8-2.9-2.7c0.9-1.1,4.5-5.4,5.6-5.8
			c2.5-0.7,11.2,2.3,11.3-1.3c0.2-2.9-5.4-2.5-9.7-2.9c0.5-2,3.4-9.9,3.6-11.3c0-0.9-0.2-0.4-0.2-1.4c-2.5-0.9-2.9-0.9-4.1,2.3
			c-0.5,1.4-0.9,2.9-1.4,4.7c-0.5,1.6-1.1,3.1-1.6,4.7c-1.1,3.2-4.5,6.1-7.7,9.7c-1.1,1.3-4.7,5.2-5.8,5.9c-0.5-0.4-2-1.8-2.2-2.2
			c0.9-0.2,1.4-0.7,2.2-1.3C93.9,109.2,95.3,108.1,95.3,107.8z M87.9,117.5c0.9,1.4,3.8,5.2,5.8,5.2c2.3,0.2,5.8-4.5,7.4-6.7
			c4.7,3.6,4.1,6.7,9.9,3.8c1.3-0.7,2.2-1.1,3.4-1.6l27.5-13.7c2.9-1.4,4.1-2.2,6.5-4.1c2.2-2,3.4-3.1,5.2-5.6
			c4.7-6.3,3.2-12.4,3.1-19.4l-0.2-7c0-1.1-0.2-1.3-0.2-2.5c2.3-1.1,4.1-2.2,6.5-3.2c2-0.9,5-2.2,6.3-4c1.6-2.9-2.7-12.8-6.1-13
			c-3.6-0.4-7.2,2.5-10.1,4.3c-1.3,0.7-2,1.4-3.1,2c-2.2-5-15.8-32.4-17.5-34.2c-4.9-5.6-10.3-2.5-15.5,0.5c-5.6,3.1-6.3,9-4,14.4
			L61.5,59.4c0,1.8,4.3,7.7-1.3,10.6C58,71.2,49,75.7,47.1,75.6c-3.1-0.2-5-3.1-5.4-5.6c-1.3,0.2-2.9,1.3-4,1.8
			c0.4,1.8,12.4,25,14,29c-1.4,0.2-13.1,4.1-13.3,7.7c-0.2,2.9,0.9,4,2.3,7c3.8,7.7,7.2,4.5,15.8,0.2l1.4-0.9
			c0.9,0.7,1.6,1.8,3.2,1.8c0.9,0,6.3-2,7.4-2.5c1.3-0.5,2.3-1.1,3.6-1.3c2.2,4.9,2.9,13,8.6,9.2L87.9,117.5z"/>
		<path d="M41.5,39.9c1.3,3.1-4,13.5-5.6,16.7l-2.2,3.6c-1.3,1.3,0,0.5-1.3,0.9C32.8,58.5,37.7,40.6,41.5,39.9z M46.2,39.6
			c0.5-6.3-4.1-7.2-10.3-9.5c-3.6-1.4-9.5-4-12.1,2.3c-2,4.9-8.8,21.6-9,25c-0.2,3.8,2.5,5.6,5.6,6.7c6.3,2.3,13.3,6.7,16.7-0.5
			c1.3-2.5,2-5.2,3.1-8.1c0.9-2.5,2-5,3.1-7.7C43.6,46.2,46,41,46.2,39.6z"/>
		<path d="M90.8,166.8c0.2-2.2,0.2-2-0.9-3.4c-1.3-2-2.9-5.8-4.7-5.9c-3.2-0.2-3.2,3.1-4,5.8c-1.8,7.2,0,6.8,6.1,5.6
			C88.8,168.6,90.8,168.4,90.8,166.8z"/>
		<path d="M109.7,136.2c-4-0.4-4.7,4.7-0.5,9.4c4.5,5,10.3,2.2,6.3-5C114.4,138.4,112.2,136.4,109.7,136.2z"/>
		<path d="M56.8,129c0.4-4.7-4.7-2.2-7-1.3c-7.4,2.9-2.9,5.2-0.4,9c0.5,0.9,0.7,1.3,2.2,1.4c2.5,0.2,2.7-1.6,3.4-3.6
			C55.3,133,56.6,130.6,56.8,129z"/>
		<path d="M35.9,149c0.2-2.9,0.2-3.4-2.9-3.6c-4.7-0.4-10.8,9.2-4.1,9.7C31.4,155.1,35.7,151.5,35.9,149z"/>
		<path d="M77.5,150.6c0.2-2.2,0-7.7-2.5-8.1c-2.2-0.2-5.6,5.6-5.6,5.6c-0.2,2.7,0.4,2.5,4,3.4C74.8,152.1,77.3,152.6,77.5,150.6z"
			/>
		<path d="M48.7,149.2c-1.8-0.2-3.2,1.6-3.8,3.1c-1.3,2.5-0.7,3.4,0.7,5C50.8,156.4,51.7,149.4,48.7,149.2z"/>
		<path d="M133.5,131.4c0.2-2.2-5-5.2-7.6-3.2l-0.5,0.5C125.5,133.3,133.3,135.3,133.5,131.4z"/>
		<path d="M99.4,140.2c0.5-5.9-4.9-8.3-5.2-2.9C93.7,142.9,99.1,144.7,99.4,140.2z"/>
	</g>
</g>
</svg>
