<?xml version="1.0" encoding="utf-8"?>
<!-- Generator: Adobe Illustrator 23.0.3, SVG Export Plug-In . SVG Version: 6.00 Build 0)  -->
<svg version="1.1" id="Layer_1" xmlns="http://www.w3.org/2000/svg" xmlns:xlink="http://www.w3.org/1999/xlink" x="0px" y="0px"
	 viewBox="0 0 184.3 184.3" style="enable-background:new 0 0 184.3 184.3;" xml:space="preserve">
<g id="Layer_x0020_1">
	<path d="M76.8,165.9l-0.5-13.1l27,0.4l0.9,12.1C96.8,168.9,83.6,169.3,76.8,165.9z M118,173.8c3.4-8.8,2.9-76.5,1.6-93.6
		c-0.7-10.6-7.4-15.3-11.7-23c-38.3,1.6-34.7,3.2-34.7,68.2c0,9.7-2.9,42.8,1.4,47.9C81.1,180.5,110.6,177.6,118,173.8z"/>
	<path d="M30,56.4c10.1,0.2,48.2-9,56.5-12.4c-4.7-7.9-16-8.1-25.6-10.1c-10.3-2.3-20.7-5.4-31.3-5.9L30,56.4z"/>
	<path d="M86.3,26.7c0.4,3.8,2,14.2,4,16.6c7.7,9.7,12.4-2.7,12.4-2.7c8.3-5.8,26.5,1.3,37.3,2.7l-3.4-2.9
		c-12.8-7.4-25.2-4.3-33.5-10.4c4.7-9.7-0.7-5,7.9-8.8l43.6-11.7c-3.6-2.5-0.7-2.9-7.6-2.9l-28.4,7.6
		C102.9,18.3,98.6,21.3,86.3,26.7z"/>
	<path d="M86.7,51.4c2.2,1.8-3.6,3.4,9.4,3.4c14.4-0.2,7-1.3,9.7-3.4C100,48,92.8,47.6,86.7,51.4z"/>
</g>
</svg>
