<?xml version="1.0" encoding="utf-8"?>
<!-- Generator: Adobe Illustrator 23.0.3, SVG Export Plug-In . SVG Version: 6.00 Build 0)  -->
<svg version="1.1" id="Layer_1" xmlns="http://www.w3.org/2000/svg" xmlns:xlink="http://www.w3.org/1999/xlink" x="0px" y="0px"
	 viewBox="0 0 184.3 184.3" style="enable-background:new 0 0 184.3 184.3;" xml:space="preserve">
<style type="text/css">
	.st0{fill:#FFFFFF;}
</style>
<g id="Layer_x0020_1">
	<path class="st0" d="M89.5,9.7c12.2-4.3,17.5,13.9,6.3,17.6C83.6,31.3,78.7,13.5,89.5,9.7z M26,129.6v2.9l8.3-5.8
		c4,14.6,14.4,25.4,25.4,31.7c2.9,1.6,5.9,3.1,9.4,4.7c3.4,1.6,7,2.3,10.1,4.3c5.4,3.6,11.2,8.3,13.5,15.8l0.7-0.9
		c3.6-4.1,4.5-8.1,12.6-13.9c9.7-6.8,20.3-4.1,35.5-20.7c2.2-2.3,3.6-5,5.4-8.5c1.8-3.6,2-7.7,3.2-11l7,3.2c0.4-0.5,0.2,0,0.7-1.4
		c0.4-0.7,0.4-0.9,0.5-1.6v-9c-1.8-4.7-1.1-12.1-8.1-21.6l-2.5-2.5c-2.5,10.4-11,23-17.1,27.2l4.3,1.3c2,0.4,3.2,0.5,5.2,0.9
		c-6.3,16-33.5,26.6-37.4,1.4c-1.1-6.7-1.3-55.8-1.6-67.3l25.6-0.2l8.5-13h-34.9l-0.4-11.2c4.9-4.3,11.3-7.2,10.3-18.7
		C108.8,4.5,99.6,2.7,95.8,0.7h-5.6c-3.8,1.8-13.1,2.9-14.8,14.8c-1.6,12.1,6.8,16,10.1,19.1l-0.5,11l-34.6,0.5
		c1.6,3.2,5.6,9.7,8.1,12.4l25.9,0.5c-0.4,12.6-0.7,57.6-2.9,66.8c-5.2,22.1-24.7,19.8-36.5-2.2l8.3,0.2c-1.3-2.9-3.1-4.7-4.7-7.2
		c-1.3-2-2.7-4.5-3.8-6.7c-2.5-5.2-3.4-9.4-5.6-14.6C28,108.6,27.3,126.4,26,129.6z"/>
</g>
</svg>
