<?xml version="1.0" encoding="utf-8"?>
<!-- Generator: Adobe Illustrator 23.0.3, SVG Export Plug-In . SVG Version: 6.00 Build 0)  -->
<svg version="1.1" id="Layer_1" xmlns="http://www.w3.org/2000/svg" xmlns:xlink="http://www.w3.org/1999/xlink" x="0px" y="0px"
	 viewBox="0 0 184.3 184.3" style="enable-background:new 0 0 184.3 184.3;" xml:space="preserve">
<style type="text/css">
	.st0{fill:#010101;}
	.st1{fill:#050505;}
	.st2{fill:#060606;}
</style>
<g id="Layer_x0020_1">
	<g id="_2748703765136">
		<path class="st0" d="M28.7,85.7c6.1-0.9,2.2-0.7,5.6-5.8c1.4-2,4.1-3.6,7.6-3.8c9.4-0.2,6.8,7.4,13.1,9.7c3.2-1.6,2.5-2.9,4.5-5.8
			c1.6-2,4-3.8,7.4-3.8c8.6-0.2,6.5,7.7,13.1,9.7c4.3-2.5,1.6-2.2,4.5-5.9c3.6-4.9,11-4.9,14.6-0.5c3.4,4,0.5,4,4.9,6.7
			c6.3-2,4.3-9,12.1-9.7c7.7-0.7,9.2,5.2,10.1,6.7c1.6,2.3,0.5,1.8,2.9,3.1c6.3-2.2,4-9.9,13.1-9.7c10.8,0.4,5.4,8.3,13.1,9.5
			c4.3-5.8-1.3-19.6-4.1-24.7c-4-7-8.6-12.1-13.9-16.7c-25.6-23-64.6-23.4-90-0.5c-16,14.4-21.8,33.3-19.4,40.1L28.7,85.7z"/>
		<path class="st1" d="M70.5,155.9c4.9,1.6,37.8,1.6,43,0c1.3-5.6,1.8-24.5-1.3-27.9c-2.3-2.7-6.8-2.5-9.7-0.5
			c-17.5,13.1-16.6-1.8-25.7-1.6C65.3,126.4,69.8,152.5,70.5,155.9z"/>
		<path class="st1" d="M48.2,135.6c0,24.8-1.3,21.1,18.9,21.4c-1.3-10.8-0.9-18.7,0.5-29.5c-4.3-2.3-5.8-6.1-13.1-3.4
			C49.8,125.7,48.2,129.5,48.2,135.6z"/>
		<path class="st1" d="M116.6,127.5c1.3,9.5,2,20,0.4,29.5c20.9-0.5,18.9,2.3,18.9-19.3c0-6.8-0.5-11.2-5.4-13.3
			C123.4,121,120.5,125.2,116.6,127.5z"/>
		<path class="st1" d="M86.7,94.9c-7.9,4-10.1,11-6.8,17.8c2.5,5.6,10.1,10.4,17.8,6.7C112.3,112.6,103.4,86.6,86.7,94.9z"/>
		<path class="st2" d="M104,119.2c8.3,1.8,14.2,1.6,18.2-5c5.4-9-1.1-22.5-13.9-20.5c-6.7,1.1-3.6,2.5-1.6,6.1
			C111,108.2,106.1,113.6,104,119.2z"/>
		<path class="st2" d="M80.2,119.2c-2.2-5.4-7-11.2-2.7-19.3c1.8-3.6,5-4.5-0.5-5.9C57.2,88.8,50.5,125.7,80.2,119.2z"/>
	</g>
</g>
</svg>
