<?xml version="1.0" encoding="utf-8"?>
<!-- Generator: Adobe Illustrator 23.0.3, SVG Export Plug-In . SVG Version: 6.00 Build 0)  -->
<svg version="1.1" id="Layer_1" xmlns="http://www.w3.org/2000/svg" xmlns:xlink="http://www.w3.org/1999/xlink" x="0px" y="0px"
	 viewBox="0 0 184.3 184.3" style="enable-background:new 0 0 184.3 184.3;" xml:space="preserve">
<style type="text/css">
	.st0{fill:#FFFFFF;}
</style>
<g id="Layer_x0020_1">
	<path class="st0" d="M115.1,157.3c0.4-1.3,0.7-1.8,1.1-3.2c2.5,0,4.5,1.6,5.2,3.1c-0.4,0.9-1.4,2.5-2.2,3.2L115.1,157.3z
		 M73.2,160.3c-0.7-1.3-1.6-1.6-2.2-3.2c1.3-1.4,2.7-2.9,4.9-3.2c0.5,0.9,1.3,2,1.6,3.2c-0.7,0.7-1.4,1.3-2,1.6
		C74.4,159.6,74.1,160,73.2,160.3z M112,158l3.6,2.9c1.1,0.9,2.9,2.5,4,3.1c1.1-1.3,2-2.3,2.9-3.8c0.9,1.3,0.7,2.7,0.5,4.5
		c0,3.2,0.4,14.4-0.2,16l-9.5,0.2v-7.2h-2.2l-0.2,7.2H81.6l0.2-7.4h-2.5v7.2c-2.3,0.4-7.2,0.2-9.7,0c-0.7-5.9-0.2-14.2,0.2-20.3
		c1.6,0.9,2.3,2.3,3.1,3.8c2.2-1.1,5.4-4.3,8.1-5.9l-2.2-4.9l2.7-0.9c2.2,2.7,4.3,8.5,6.3,10.6l1.3-0.7c1.6-1.4,5.8-6.3,7.7-7.6
		c3.1,2.9,5.6,5.8,8.6,8.5c1.3-1.3,4.9-8.5,6.1-10.6l2.7,0.5C114,154.6,112.4,155.8,112,158z M104.8,158.7c-1.6-0.7-4.1-4-5.6-5.2
		c1.1-1.3,1.8-0.4,5.6-3.2l3.8,1.3C107.5,153.8,105.6,156.5,104.8,158.7z M84.1,151.3c2.3-0.7,2.9-1.4,4.9,0
		c1.8,1.3,2.2,1.1,4.5,1.8c-0.5,0.9-4.5,4.9-5.6,5.6C86.5,156.7,84.5,153.3,84.1,151.3z M103.2,148.1c-0.7,1.1-0.4,0.5-1.4,1.3
		c-0.5,0.4-1.1,0.9-1.6,1.1c-1.3,0.7-3.1,0.7-4.7,0.9c-2.2-0.4-4.1-1.3-5.6-2.3l-4.7-3.8c-2-2-1.6-12.2-1.3-15.8h24.3
		c0.2,4.7,1.1,13.3-1.6,16.2C105.9,146.6,104.5,147.7,103.2,148.1z M114,124.5c2.3,0,4.5-0.7,4,2c-0.9,0.5-0.7,0.5-2.2,0.5H76.8
		c-3.2,0-3.2-2.2-1.1-2.5H114z M84.5,119.6h23.4l0.2,2.2H84.1L84.5,119.6z M85.2,114.8c2-0.2,4.7,0.2,6.5-0.4c2-0.7,2.5-2.2,4.3-2.3
		c2.2-0.2,2.5,1.6,4.7,2.2c2,0.7,4,0,6.5,0.5l0.4,2.2H84.9L85.2,114.8z M81.6,121.8c-2.3,0.4-5.8,0-7.4,0.5
		c-1.4,0.5-2.7,1.8-2.5,3.8c0.4,4.3,5.6,3.1,9.7,3.2v2.7c-3.1,1.1-5,1.1-4.9,5.2c0.2,3.2,2.3,4.1,5,5c0.4,3.2,1.1,4,3.1,6.1
		c-7.6,4.7-17.8,0.2-17.8,17.5v17.3h58.5c0.4-4.7,0.7-21.8-0.9-25.2c-3.4-7.6-9.9-5.8-16.7-9.5c0.9-1.3,2-2.3,2.7-4.3
		c1.1-3.2,1.6-1.8,4-3.6c1.3-0.9,2-3.6,1.1-5.6c-1.1-2.5-2.9-1.6-4.5-3.1v-2.3c2.3,0,7,0.5,8.6-1.1c1.1-1.1,1.6-2.9,0.7-4.3
		c-1.4-2.3-5.9-1.8-9.4-1.8c-0.7-3.4,0-8.5-3.4-9.5c-2-0.5-4.3,0.4-6.1-0.5c-1.8-0.7-1.8-2-4.9-2c-2.7,0-2.9,0.9-4.7,1.8
		c-1.8,0.9-4,0.2-5.9,0.5C81.6,113.2,82.3,118.4,81.6,121.8z"/>
	<g id="_2747148711072">
		<path class="st0" d="M120.7,84.9c0.2,0,0.7,0.2,0.9-0.2c0.2-0.4,0.5-0.2,0.9-0.2c-0.9-3.1-0.2-1.4-2.2-4.5c-0.9-1.4-1.6-2.5-2.5-4
			c-1.8-2.9-3.1-4.9-4.5-8.3l5.8-2.2l-9.2-16.2c-1.3-8.1-0.4,0.7,2.5-4.7l-8.3-14.6c1.3-2.2,0.2-0.4,2.2-1.8s0.5,1.4,1.3-0.9
			c0-0.4,0.5-0.2,0.5-0.5c-2-4.3-5.4-9.4-7.9-13.7C97.6,9.1,95.3,3,91.5,1c-3.8,7.7-13,20.3-15.3,25.9c0.2,0.2,0.5,0.4,0.7,0.5
			c0.2,0.2,0.5,0.4,0.5,0.5c0.2,0.2,1.1,0.7,1.3,0.9c2.5,2-0.2-1.4,1.4,1.4c-2.3,4.7-5.4,10.4-8.3,14.6c3.1,5.2,3.8-2.5,2.7,4.7
			l-9,16.2c0.2,0.2,0.5,0.4,0.7,0.4l4.9,1.6c-2.9,6.3-6.8,10.8-9.4,17.5l20.7,0.2c2,4.1,1.3,8.6,1.4,14l16.9,0.2l0.4-13.1
			c3.6-1.6,10.8-0.7,16.7-1.3C119.1,85.3,119.8,85.1,120.7,84.9z"/>
		<path class="st0" d="M34.6,84.5c1.4,4,0.9,1.1,15.3,2.5c0.7,3.8-0.2,7.4,1.4,9.5h9.9c0.2-0.4,0.5-0.2,0.7-0.2
			c2.9-9.2-2.9-8.6-1.3-13.7c0.9-3.1,4.3-8.6,6.1-11.5l-3.8-4.3c2.5-11.2,9.4-7.7,2.2-19.4c1.1-3.8,0.2,1.1,2.9-4
			c-3.4-2.9-9-14.2-11.2-17.6l-4.7,5.8c-11.5,19.6-7,11.2-4.7,15.7l-5,10.4c0,0.2,0.2,0.5,0.4,0.7c0.9,2.3,0.5-1.1,0.5,2l-6.7,11.7
			c4.7,3.8,2.5-0.5,4,3.1C38.1,78.4,37.3,82.2,34.6,84.5z"/>
		<path class="st0" d="M121.9,97.1h11.7c1.3-13.7-0.4-10.8,16-10.8L143,75.2c1.6-3.2,0,0.4,4.1-3.6c-2.2-3.2-4.5-8.1-6.8-11.3
			c0.5-2.5,0.2-0.2,0.9-2c1.3-3.2,1.4-1.6-4.5-10.1c0.9-3.4,2.5-3.8,2.9-4c-2.3-4-4-6.3-6.1-9.7c-2-3.1-2.9-5.9-5.4-9
			c-3.6,3.8-7.7,12.4-11.5,18.2l1.4,2.2c0.5,1.1,0.5-0.7,0.9,1.8c-8.1,9.7,4,12.1,2.9,18.7c-0.5,2.9-0.5,1.4-1.3,2.3l-2.2,2.2
			c9.9,16.9,6.5,13.5,4.9,16.4C120.7,91,121.2,93,121.9,97.1z"/>
	</g>
</g>
</svg>
