<?xml version="1.0" encoding="utf-8"?>
<!-- Generator: Adobe Illustrator 23.1.0, SVG Export Plug-In . SVG Version: 6.00 Build 0)  -->
<svg version="1.1" id="Layer_1" xmlns="http://www.w3.org/2000/svg" xmlns:xlink="http://www.w3.org/1999/xlink" x="0px" y="0px"
	 viewBox="0 0 184.3 184.3" style="enable-background:new 0 0 184.3 184.3;" xml:space="preserve">
<g id="Layer_x0020_1">
	<g id="_2747148173200">
		<path d="M128,135.5c0.3,0,0.9,0.3,1.1-0.3c0.3-0.5,0.6-0.3,1.1-0.3c-1.1-3.9-0.3-1.8-2.8-5.6c-1.1-1.8-2-3.1-3.1-5
			c-2.3-3.6-3.9-6.1-5.6-10.4l7.3-2.8l-11.5-20.3c-1.6-10.1-0.5,0.9,3.1-5.9l-10.4-18.3c1.6-2.8,0.3-0.5,2.8-2.3s0.6,1.8,1.6-1.1
			c0-0.5,0.6-0.3,0.6-0.6c-2.5-5.4-6.8-11.8-9.9-17.2c-3.3-5-6.1-12.6-10.9-15.2c-4.8,9.6-16.3,25.4-19.2,32.4
			c0.3,0.3,0.6,0.5,0.9,0.6c0.3,0.3,0.6,0.5,0.6,0.6c0.3,0.3,1.4,0.9,1.6,1.1c3.1,2.5-0.3-1.8,1.8,1.8c-2.9,5.9-6.8,13-10.4,18.3
			c3.9,6.5,4.8-3.1,3.4,5.9l-11.3,20.3c0.3,0.3,0.6,0.5,0.9,0.5l6.1,2c-3.6,7.9-8.5,13.5-11.8,21.9l25.9,0.3
			c2.5,5.1,1.6,10.8,1.8,17.5l21.2,0.3l0.5-16.4c4.5-2,13.5-0.9,20.9-1.6C126,136,126.8,135.7,128,135.5z"/>
		<path d="M20.2,135c1.8,5,1.1,1.4,19.2,3.1c0.9,4.8-0.3,9.3,1.8,11.9h12.4c0.3-0.5,0.6-0.3,0.9-0.3c3.6-11.5-3.6-10.8-1.6-17.2
			c1.1-3.9,5.4-10.8,7.6-14.4l-4.8-5.4c3.1-14,11.8-9.6,2.8-24.3c1.4-4.8,0.3,1.4,3.6-5c-4.3-3.6-11.3-17.8-14-22l-5.9,7.3
			c-14.4,24.5-8.8,14-5.9,19.7l-6.3,13c0,0.3,0.3,0.6,0.5,0.9c1.1,2.9,0.6-1.4,0.6,2.5l-8.4,14.7c5.9,4.8,3.1-0.6,5,3.9
			C24.5,127.3,23.5,132.1,20.2,135z"/>
		<path d="M129.5,150.8h14.7c1.6-17.2-0.5-13.5,20-13.5l-8.3-13.9c2-4,0,0.5,5.1-4.5c-2.8-4-5.6-10.1-8.5-14.1
			c0.6-3.1,0.3-0.3,1.1-2.5c1.6-4,1.8-2-5.6-12.6c1.1-4.3,3.1-4.8,3.6-5c-2.9-5-5-7.9-7.6-12.1c-2.5-3.9-3.6-7.4-6.8-11.3
			c-4.5,4.8-9.6,15.5-14.4,22.8l1.8,2.8c0.6,1.4,0.6-0.9,1.1,2.3c-10.1,12.1,5,15.2,3.6,23.4c-0.6,3.6-0.6,1.8-1.6,2.9l-2.8,2.8
			c12.4,21.2,8.1,16.9,6.1,20.5C128,143.1,128.6,145.6,129.5,150.8z"/>
	</g>
</g>
</svg>
