<?xml version="1.0" encoding="utf-8"?>
<!-- Generator: Adobe Illustrator 23.0.3, SVG Export Plug-In . SVG Version: 6.00 Build 0)  -->
<svg version="1.1" id="Layer_1" xmlns="http://www.w3.org/2000/svg" xmlns:xlink="http://www.w3.org/1999/xlink" x="0px" y="0px"
	 viewBox="0 0 184.3 184.3" style="enable-background:new 0 0 184.3 184.3;" xml:space="preserve">
<g id="Layer_x0020_1">
	<path d="M50.6,91.2l33.1,1.6l8.1-31.7l8.8,31.9l33.1-1.8c-5.2,5.2-24.3,14.9-27.5,18.5l11.9,30.4c-5.8-2.9-22.1-18.7-26.1-20.5
		l-25.7,20.7l11.9-30.6C72.9,103.4,56.9,97.3,50.6,91.2z M75.4,20.4c7,0,13.5-3.1,16.6-3.2c3.1,0,9.2,3.1,15.7,3.1
		c17.6,0,22.7-7.2,26.5-4.9c2.2,1.4,1.8,2.3,4.1,4.3l12.6,10.8c-1.1,2.9-3.2,4.9-4.9,9.2c-8.1,20.5,10.1,59.6,8.1,81.7
		c-1.4,16.4-9.5,27.2-25,29.5c-20.5,3.2-26.3,5.8-37.1,16.6c-13-14-22-14-37.8-16.7C16.9,144.5,32.7,96,37.4,74.1
		c1.8-8.3,2.7-15.5,2.3-23.9C39.4,38.6,36,37,33.1,30.7c2.2-2.9,2.2-2.2,4.7-4.1l13.3-12.2C60.5,17,63.2,20.4,75.4,20.4z
		 M143.6,19.2c-4.1-2.9-8.3-10.3-13.1-8.1c-28.3,11.7-29.3,1.8-38.3,1.8c-4.9,0-9.4,5.4-21.2,3.6c-23.4-3.2-12.8-12.4-28.3,1.1
		l-9.4,8.1c-2.5,1.8-4.3,2.5-5.4,5.9c2.3,3.2,3.2,2,6.1,8.5c11.3,26.1-23.9,80.8,1.8,105.7c15.5,14.9,25.7,6.1,41.4,15.1
		c2.9,1.6,6.1,4,8.1,5.6c3.8,3.1,4.5,5.4,7,7.4l2.2-2c11.9-13.7,18.5-13.5,36.5-16.9c11.3-2,12.6-4.5,18.5-10.3
		c21.4-20.9-3.1-67-1.3-95c0.9-12.2,5.9-14.9,8.3-18.7L143.6,19.2z M38.7,31.4c6.3,18.2,7.6,18.9,3.1,42.8
		c-4,21.6-21.1,66.1,13,72.7c13.5,2.7,20.9,1.8,33.5,11.7l2.2,1.8c0.2,0.2,0.4,0.4,0.5,0.5l1.3,0.9c4.3-2,0.5,0,3.4-2.5
		c18.2-16.2,40.1-7.2,48.8-20.7c15.5-23.9-5.8-59.6-4.7-86.4c0.5-11,3.6-13.5,5.8-21.8c-7.6-4.3-6.1-5-9.7-8.1
		c-4.9-4.1-5.8-1.8-12.4,0.2c-18,5.4-25-0.5-31.3-0.7c-5.9-0.2-12.1,6.5-31.3,0.5c-6.5-2-7.4-4.3-12.2,0L38.7,31.4z"/>
</g>
</svg>
