<?xml version="1.0" encoding="utf-8"?>
<!-- Generator: Adobe Illustrator 23.0.3, SVG Export Plug-In . SVG Version: 6.00 Build 0)  -->
<svg version="1.1" id="Layer_1" xmlns="http://www.w3.org/2000/svg" xmlns:xlink="http://www.w3.org/1999/xlink" x="0px" y="0px"
	 viewBox="0 0 184.3 184.3" style="enable-background:new 0 0 184.3 184.3;" xml:space="preserve">
<style type="text/css">
	.st0{fill:#FFFFFF;}
</style>
<g id="Layer_x0020_1">
	<path class="st0" d="M105.9,61.7c0.2,0.9-0.7,1.8-1.4,2.3c-0.4,0.4-0.4,0.5-1.1,0.9c-0.5,0.2-2.2,0.4-1.6-0.9
		c0.2-0.4,0.2-0.4,0.4-0.5C103,62.6,104.8,61.5,105.9,61.7z M82.7,45.3c0.9-0.4,0.9-1.3,0.9-2.3c0-1.3-0.2-1.3,0.2-2.2
		c0.2-0.4,0.2-0.4,0.2-0.7C81.3,40.1,82.7,42.8,82.7,45.3z M101.2,45.1c0.2-0.2,0.9-3.8,0.2-4.7c-0.4-0.5-0.7-0.5-1.4-0.5
		c0.2,1.3,0.5,1.3,0.5,2.7C100.5,43.5,100.5,44.7,101.2,45.1z M76.9,47.8c0.5-0.2,0.2,0,0.5-0.2l1.8-2c0.9-1.4,1.1-3.6,1.6-5.9
		c-1.4,0-1.8,0.7-2.3,2c-0.5,0.9-0.2,2.9-0.5,4l-0.7,1.6C77.1,47.6,77.3,46.9,76.9,47.8z M107.2,47.8l-0.7-1.6
		c-0.9-2.2-0.4-3.2-0.9-4.3l-0.2-0.4c0,0,0,0,0-0.2c-0.2-0.5-0.5-1.6-2.2-1.6c0.2,0.7,0.4,0.4,0.5,2.3l0.5,2.5
		C104.7,45.8,105.9,47.4,107.2,47.8z M90.8,166.6c0,0.5,0,1.3,0.2,1.6c0,0.4,0.5,2.3,0.9,2.5c1.6,0.9,2-5.6,1.6-6.3
		c-0.7,0.2-0.2,0-0.9,0.9l-0.9,0.9C91,166.6,91.2,166.4,90.8,166.6z M119.1,64.4c0.2,0.2,0,0,0.4,0.2c0.2,0,0.4,0.2,0.5,0.2
		c1.6,0.7,1.4,2.5,0.7,3.4c-0.5,0.7-0.7,1.3-1.6,1.6l-1.4,0.9c-1.6,1.1-5.6,2.3-7.4,2.7c-0.9,0.2-1.4,0.5-2.5,0.5
		c-0.4,0.2-0.9,0.2-1.3,0.2c0,0-0.2,0-0.4,0.2l-17.5,1.6c-1.6,0.4-2.2,0.4-3.8,0.9C84.5,77,84,77,83.6,77c-1.8,0.4-3.6,1.4-5.2,2.2
		c-1.3,0.5-2.5,1.6-3.6,2.5l-1.6,2.2c-0.4,0.5-1.1,1.8-1.3,2.5c-0.4,1.8,0,2.7,0.5,4.1c0.2,0.5,0.2,0.7,0.4,1.3s0.2,0.2,0.4,0.5
		l1.1,1.8c0.2,0.4,0,0.2,0.4,0.4l0.2,0.2c0,0,0,0,0,0.2L75,95c0.9,0.9,1.8,1.6,2.9,2.5s-0.4-0.2,0.9,0.7c0.2,0.2,0.2,0.2,0.4,0.4
		c0.7,0.5,0.2,0,1.4,0.9c0.7,0.5,1.6,0.9,2.5,1.3c1.8,1.1,2,0.2,3.8-0.7l1.8-0.9c0-1.1,0.2-0.9-0.5-1.3l-2.2-0.9c-2-0.9-4-2-5.6-3.6
		c-0.2-0.2-0.2-0.2-0.5-0.5c-0.5-0.7-1.3-1.8-1.3-2.7c-0.2-1.6,0.5-2.9,1.4-4.1c0.2-0.2,0.2-0.2,0.2-0.2l2.2-1.8l2.7-1.4
		c0,0,0,0,0.2,0c0.7-0.4-0.2,0,0.2-0.2c0.2,0,0.2,0,0.4-0.2c0.4-0.2,0.5-0.2,0.9-0.2c0.5-0.2,0.9-0.4,1.6-0.5
		c1.1-0.2,2.3-0.4,3.4-0.5c1.6-0.5,5.8-0.2,7.7-0.4c2.2-0.2,8.3-0.9,10.3-1.6c0.5-0.2,0.9-0.4,1.6-0.5c1.1-0.2,2-0.9,2.9-1.3
		c2.2-0.9,2.5-1.3,3.4-1.6l3.1-1.8c1.1-0.9,2.2-1.8,3.2-2.9l0.2-0.2c0.2-0.2,0.2-0.2,0.2-0.2c0.2-0.2,0.2-0.4,0.4-0.5
		c0.4-0.4,0.2-0.2,0.4-0.7c0.7-1.3,0.9-2.5,0.7-4l-1.4-2.2v-0.2l-0.7-0.5c-0.4-0.2-0.2-0.2-0.5-0.4c-1.6-0.7-4.5-1.4-6.3-1.6
		c-1.3-0.2-2.5,0-3.8-0.2c-1.1-0.2-2.2-0.4-3.4-0.5c-1.3-0.2-2.5-0.2-3.8-0.2c-1.4,0.2-2,0.4-2.9,1.1l-3.8,4.1
		c-0.4,0.9,0.7,1.3,1.6,1.8c1.6,0.9,4,0.9,5.6,0.5c0.5-0.2,0.5-0.2,1.1-0.5c0.4-0.2,0.7-0.2,1.1-0.5l2.2-1.1
		c0.9-0.4,4.5-0.9,5.8-0.7c0.5,0,1.1,0,1.6,0C118.3,64.2,118.5,64.4,119.1,64.4z M115.1,49.1c-0.2-0.4-0.2-0.2-0.5-0.5l-0.7-0.5
		c-0.2-0.2-0.2-0.2-0.2-0.2c-0.2-0.2-0.2-0.2-0.2-0.4l-1.1-1.3c-1.4-1.8-1.1-4-2.2-5.9c-0.5-1.1-1.3-2-2.7-2c0.2,1.3,0.7,1.1,0.9,4
		c0,1.4,0.2,2.7,0.9,3.8l1.4,1.6c0,0,0,0,0,0.2L111,48c0.9,0.9,3.2,1.6,4,1.6c0,0,0,0,0.2,0C114.7,49.1,114.9,49.1,115.1,49.1
		C114.9,49.1,114.9,49.1,115.1,49.1z M69.2,49.1c0.5,0.4,3.4-0.7,4.1-1.3l1.8-1.8c1.3-1.6,0.9-3.6,1.3-5.9c0.2-0.9,0.5-1.1,0.5-1.8
		c-1.3,0-1.8,0.7-2.3,1.6c-0.2,0.2,0,0-0.2,0.4l-0.5,1.3c-0.2,0.5,0,0-0.2,0.4c-0.5,1.3,0,2.9-2.2,5l-1.1,1.3
		c-0.2,0.2-0.4,0.4-0.7,0.5C69.4,48.9,69.4,48.7,69.2,49.1z M92.1,159c0.5-0.9,1.3-3.2,1.4-4.3l0.2-8.6c-0.4,0.2-0.2,0-0.5,0.2
		l-0.5,0.5c0,0,0,0,0,0.2l-0.2,0.2c-0.5,0.7-1.4,2-1.6,3.1c-0.2,1.8-0.2,9.5,0.2,10.8L92.1,159z M91.7,139.2
		c0.2-0.2,0.4-0.2,0.5-0.4c0.4-0.4,0.2-0.2,0.5-0.5c1.3-0.9,0.9-0.7,0.9-3.1c0-2.5,0-5,0.2-7.7c-0.4,0.2-0.2,0.2-0.4,0.4l-1.8,1.3
		c-0.2,0.2,0,0-0.4,0.4c-0.2,0.2,0,0-0.2,0.2c-0.7,0.5-0.5,0.5-0.5,1.8l0.2,8.6L91.7,139.2z M89.5,165.7c0.4-0.2,0.2-0.2,0.5-0.4
		c0,0,0,0,0.2,0c0,0,0,0,0.2-0.2l0,0l2.3-2.3c0.2-0.2,0.4-0.4,0.5-0.5l0.9-1.1c0.2-0.2,0.2-0.4,0.5-0.5l1.6-2.7
		c0.4-0.5,0.2-0.5,0.5-1.1l0.7-1.4c1.1-2.5,1.1-5.9,0-8.5c-0.4-0.7-0.4-0.7-0.7-1.3c-0.4-0.7-0.4-0.7-0.9-1.3l-0.4,0.4l0,0
		c-0.5,0.7-0.2,3.4-0.2,4.3c0,0.5,0,0.5,0,1.4c0,2.5,0,4-0.7,6.3c-0.2,0.5-0.2,0.9-0.4,1.4c-0.9,1.8-0.9,2.2-2,4.1L89.5,165.7z
		 M90.1,121.8c0.5,0,0.7-0.4,1.6-0.9c0.7-0.5,1.3-0.9,2.3-1.6v-14.4l-3.1,1.3c-0.2,0.2-0.7,0.4-0.9,0.5
		C90.1,111.2,90.1,117.3,90.1,121.8z M55.7,51.8c2.7-0.2,2.9-0.4,5.2-1.1c0.7-0.2,0.7-0.4,1.4-0.5l4.1-2.9l1.6-1.8
		c1.1-1.6,0.7-1.6,1.3-2.5c0,0,0,0,0-0.2l0,0l2.7-4.7c0.2-0.2,0.2-0.5,0.4-0.7c0.4-0.5,0.5-0.5,0.9-1.4c-2.5-0.2-4.1,0.9-5.6,2.7
		l-0.9,1.1c-1.6,2.7-1.6,2.7-3.1,5.2c-0.2,0.4-0.4,0.4-0.5,0.5c-0.2,0.4-0.2,0.4-0.5,0.7l-2.5,2.5c-1.1,0.9-2.7,1.8-4,2.5
		C55.9,51.8,56.1,51.4,55.7,51.8z M128.4,51.8l-2.7-1.4c-0.5-0.4-0.7-0.5-1.3-0.7c-0.9-0.5-2.2-1.6-2.9-2.5l-3.6-5.8
		c-0.2-0.4-0.2-0.4-0.4-0.5l-0.9-1.1v-0.2c-0.2-0.2-0.4-0.5-0.5-0.7l-0.9-0.9c-1.6-1.6-2.3-2-4.7-1.8c0.2,0.5,0,0.4,0.4,0.7l1.4,2.2
		c1.3,2,2.2,4.3,3.4,6.3l1.4,1.6c0.2,0.2,0.2,0.2,0.2,0.2l0.2,0.2l0.2,0.2c0.9,0.9,2.9,2.2,3.8,2.5c1.3,0.5,0.7,0.4,2.2,0.9
		c0.2,0,0.2,0,0.4,0.2C125.4,51.6,127.2,51.9,128.4,51.8z M94.4,82.2c-1.6,0.2-2.9,0.4-4.7,0.5c-0.2,2.5,0,5.4,0.2,7.9l0.2,7.7
		c0.5,0,2.2-0.9,2.7-1.1l1.6-0.7V82.2z M113.1,33.8c0.2,0.4,0,0.2,0.5,0.4c0.7,0.4,2,0.7,3.6,1.8c0.2,0.2,0,0.2,0.4,0.4l1.3,0.9
		c0.2,0.2,0.2,0.2,0.4,0.4c0.2,0.2,0.2,0.2,0.4,0.4c0.9,0.9,2.2,2.3,2.9,3.4c0.2,0.2,0.2,0.4,0.4,0.5c0.5,0.9,0.5,1.1,0.7,1.6
		l0.9,1.3c0,0,0,0,0,0.2c0.2,0.2,0.2,0.2,0.4,0.5l3.2,3.1l5,2.9c0.9,0.5,1.3,0.4,2.3,0.7c0.7,0.2-0.4,0.2,0.9,0.4
		c4.5,1.1,4.5,0.9,8.8,0.9c-0.4-0.4-4.5-1.8-5.6-2.5l-5.9-3.6l0,0l-2.7-2.2c-2-1.8-2.3-3.6-4.1-5.4l-1.3-1.1
		c-1.3-1.3-0.4-0.5-1.8-1.6l-0.2-0.2c-0.2,0-0.2-0.2-0.4-0.2l-4.3-2.3c-0.9-0.2-1.6-0.5-2.5-0.7C115.6,33.6,113.5,33.4,113.1,33.8z
		 M39.1,53c2.2,0,4,0,6.1-0.2c0.9-0.2,1.6-0.4,2.5-0.5l0.9-0.4c0,0,0,0,0.2,0c0,0,0,0,0.2,0c0.9-0.4,1.3-0.2,3.4-1.3l5.4-3.8
		l2.2-2.5c0.7-1.1,0.9-1.8,1.3-2.3c0.9-1.3,0.9-1.6,2.2-2.9l2.9-2.7c0.7-0.5,2.7-1.8,3.6-2.2c0.4-0.2,0.9-0.4,1.3-0.5
		c-1.4-1.3-6.3,0.4-7.9,1.3l-4.5,3.2c-2.7,2.3-2.5,3.6-4.5,5.8c-0.2,0-0.2,0.2-0.2,0.2c-1.4,1.6-2.3,2.2-3.8,3.2L43.8,51
		c-1.4,0.7-2,0.7-3.4,1.4l-0.9,0.4C39.1,53,39.3,53,39.1,53z M89.4,150.4c0.2-1.8,0.5-2.2,1.3-3.6c0.2-0.4,0.4-0.5,0.7-0.9
		c1.1-1.3,2.3-1.8,4-3.1l0.9-0.9c0.2-0.2,0.2-0.2,0.5-0.4l0.5-0.4c0.2-0.2,0.2-0.2,0.4-0.4l1.4-1.6c1.3-1.6,2.2-3.4,2.2-5.6
		c0-0.9-0.2-1.8-0.4-2.7c-0.2-0.5-0.4-0.9-0.5-1.3c-0.9-1.8-0.2-0.9-2.2-3.2c-0.4-0.4-0.7-0.9-1.3-1.1c-0.7,0.9-1.4,0.4-1.4,2
		c0,1.4-0.2,2,0.5,2.7c1.1,0.9,2,3.1,1.8,4.7c-0.2,0.9-1.3,2.2-1.8,2.9c-0.7,0.7,0.4-0.4-0.2,0.2l-7,5.9c0,0,0,0.2-0.2,0.2
		c-0.2,0.2,0,0.2-0.2,0.2c0,0,0,0,0,0.2l-0.4,0.5c-1.6,2.9-2,4.7-1.4,8.3c0.2,1.1,0.4,1.6,0.7,2.5l0.2,0.5c0.5,0.9,0.4,1.3,0.7,1.6
		c0.4,0.9,0.7,1.6,1.3,2C89.2,157.4,89,152.6,89.4,150.4z M23.1,46.5c0.2,0,0.5,0.2,0.9,0.2l2.5,0.9c0.9,0.4,1.8,0.4,2.7,0.4
		c2.3,0.2,5.4,0.4,7.4-0.5c0.5-0.2,1.1-0.2,1.6-0.4c2.2-0.5,5.2-1.8,7-3.1l1.6-0.7l0.2-0.2l0.5-0.4c0,0,0,0,0.2-0.2l6.8-5.2
		c0.2-0.2,0.4-0.2,0.5-0.4c0.5-0.4,0.2-0.2,0.5-0.5c0.2-0.2,0.4-0.2,0.5-0.4l1.3-0.7c0.5-0.2,0.4-0.2,0.7-0.4c1.6-0.9,5.2-2.7,7-3.1
		c0.7-0.2,3.2-0.4,3.6-0.4c-0.4-1.4-3.6-1.1-4.7-0.9l-3.1,0.7c-0.7,0.2-0.9,0.4-1.4,0.5l-6.3,2.5c-0.2,0.2-0.4,0.4-0.7,0.4
		c-0.2,0.2-0.4,0.2-0.5,0.4l-1.4,0.9l0,0l-3.1,1.8c0,0,0,0-0.2,0c-0.2,0.2,0,0-0.2,0.2c-0.4,0.2-0.5,0.2-0.7,0.4l-0.2,0.2l-0.2,0.2
		c-0.4,0.4-0.2,0.2-0.5,0.4c-0.4,0.2-0.2,0.2-0.5,0.4c-0.2,0.2-0.2,0.2-0.2,0.2c-0.2,0.2,0,0-0.4,0.2l-0.2,0.2c0,0,0,0-0.2,0
		L44,40.2l-1.4,1.3c0,0,0,0-0.2,0l-2.2,1.3c-0.2,0-0.2,0.2-0.4,0.2c0,0,0,0-0.2,0l-1.6,0.9c-2,1.1-5.2,2-7.4,2.3
		c-3.4,0.5-5.9-0.2-7,0L23.1,46.5C23.3,46.5,23.1,46.5,23.1,46.5z M115.5,31.8c1.1,0.4,2.9,0,4.9,0.9l3.4,1.4
		c0.4,0.2,0.5,0.2,0.7,0.4l9.9,6.5c0,0,0,0,0.2,0.2l0,0l0.4,0.4c3.6,2.7,1.4,1.4,6.3,4.1l7.6,2.3c0.5,0,1.3,0.2,1.8,0.2
		c1.3,0,2.7,0.2,4,0c2.5-0.2,1.6-0.2,3.4-0.5c0.5-0.2,1.1-0.2,1.6-0.4c0.2-0.2,0.2-0.2,0.5-0.4c0.2,0,0.2,0,0.4-0.2
		c0.5-0.2,0.2,0,0.4-0.4c-3.2,0.4-5.6,0.5-8.6-0.2c-0.5-0.2-1.1-0.2-1.6-0.4c-0.7-0.2-0.9-0.4-1.4-0.5c-1.4-0.4-2.9-1.1-4.1-1.6
		l-5.8-3.6c0,0,0,0-0.2-0.2l0,0l-0.5-0.5c-0.4-0.2-0.2-0.2-0.5-0.5l-4.1-2.5c-1.1-0.5-2.2-1.3-3.2-1.8c-3.2-1.4-5-2.5-8.6-3.2
		c-0.7-0.2-0.9-0.4-1.6-0.4c-1.3-0.2-3.2-0.5-4.3,0.4C115.5,31.6,115.6,31.2,115.5,31.8z M118.9,28.7c2.5-0.5,3.6-0.7,6.3-0.2
		c0.9,0.2,1.3,0.4,1.8,0.5c1.3,0.4,2.3,0.9,3.4,1.4c0.4,0.2,0.5,0.2,0.9,0.4l3.8,2.2c1.1,0.7,2.3,1.3,3.2,1.6
		c1.8,1.1,8.8,3.1,11,3.4c0.4,0,2,0.9,5.9,1.3c4.5,0.2,6.8,0,11-0.7c1.3-0.2,2.7-0.9,3.6-1.3l6.5-4.9c0.2-0.4,0.2,0,0.2-0.4
		c-0.5,0.2-0.9,0.5-1.4,0.9l-2,1.4c-0.2,0.2-0.5,0.2-0.9,0.4l-5.2,1.6c-2.9,0.4-6.1,0.4-9,0l-9.5-2.2c-1.8-0.5-3.4-1.3-5.2-1.8
		c-0.9-0.4-0.9-0.2-1.6-0.5l-4-1.8c-1.8-0.9-5.6-2.5-7.7-2.9c-4.1-0.9-4.5-0.9-8.3,0c-1.3,0.2-0.7,0.2-1.6,0.5L118.9,28.7z M7.5,32
		l1.3,1.6c0.2,0.2,0.2,0.2,0.4,0.4v0.2l2.5,2h0.2c1.1,0.9,2.5,1.3,3.2,1.6c1.6,0.9,2.9,0.9,4.7,1.3c2.3,0.4,1.6,0.4,4.3,0.5
		c3.4,0.2,5.6-0.2,8.8-0.7c0.7-0.2,3.4-0.7,3.8-1.1c0.9-0.5,0.4-0.2,1.6-0.4l3.8-1.3c0.4-0.2,0.2,0,0.2-0.2l1.4-0.4
		c0.5-0.2,0-0.2,0.7-0.4c0.4-0.2,0.5-0.2,0.9-0.4l2.9-1.4c0.5-0.2,2.3-1.6,3.4-2c0.7-0.4,0.5-0.4,1.6-0.9c0.4-0.2,0.5-0.4,0.9-0.4
		l1.8-0.7c1.6-0.5,3.2-0.9,4.9-1.1c2-0.2,2.7,0.2,4.3,0.4c-1.1-1.6-5-2.2-7-2.2c-2.7,0-5.2,0.7-7.7,1.6c-2,0.9-1.3,0.4-3.6,1.6
		c-0.2,0-0.4,0.2-0.4,0.2l-1.8,0.7c-0.4,0.2-0.5,0.2-0.7,0.4l-10.4,3.6c-0.5,0.2-1.3,0.4-1.6,0.4c-0.5,0.2-1.3,0.4-2,0.5
		c-4,0.5-3.8,0.9-8.5,0.9c-3.1,0-7.2-0.4-9.9-1.8L9.1,33c0,0,0,0-0.2,0l-0.4-0.5c0,0,0,0,0-0.2c0,0,0,0-0.2,0C8,32,8.2,32.1,7.5,32z
		 M88.5,138c-0.7-0.5-1.4-1.6-1.8-2.3c-0.2-0.2-0.2-0.5-0.2-0.9c-0.2-0.7-0.2-1.3,0-2c0.5-2.9,4.7-4.9,6.7-6.5l3.6-2.3
		c0.4-0.2,0.4-0.2,0.7-0.4l5.2-5c0,0,0,0,0.2-0.2l0,0l0.9-1.4c0.9-1.8,0.7-2.3,1.3-4.1c0.4-1.3,0-3.2-0.5-4.5
		c-0.2-0.5-0.2-0.2-0.4-0.7c-0.2-0.2-0.2-0.5-0.4-0.7l-2.5-3.1c-1.6-1.6-1.4-1.1-3.2-0.5l-1.8,0.7c-0.2,0.2-0.2,0-0.4,0.2v1.4l4,3.4
		c1.3,1.8,1.1,4.3,0.2,6.1c-0.2,0.5,0,0.2-0.4,0.5c-0.4,0.5-0.5,0.7-0.9,1.3l-0.5,0.5c-0.7,0.9-1.6,1.4-2.3,2.2c0,0,0,0.2-0.2,0.2
		c0,0,0,0-0.2,0c-0.2,0.2-0.2,0.2-0.4,0.2l-7,4.5l-4.1,4c-2.2,3.2-1.6,5.9,0.2,9.2l3.1,3.4l0,0c0,0,0,0.2,0.2,0.2c0,0,0,0,0,0.2
		c0.4,0.2,0.2,0.2,0.5,0.4c1.4-0.9,0.9-2,0.9-3.6L88.5,138z M78.2,61.5c0.5,0,1.1,0.2,1.4,0.4l2.5,1.6l0.2,0.9
		c-0.4,0.2-0.7,0.5-1.6,0.4c-0.9-0.2-1.3-0.7-1.8-1.3l-0.4-0.4C78.4,62.7,78.2,62.2,78.2,61.5z M84.9,75c-0.9-0.4-4.3-0.2-5.9-0.4
		l-3.6-0.9C73,73,72.4,73,70.1,72.1l-3.2-1.3c-0.5-0.2-2.3-1.4-2.7-1.8c-0.2-0.4-0.4-0.5-0.5-0.7c-0.5-0.7-0.9-1.3-0.7-2.5
		c0.5-3.2,9.5-1.6,10.6-1.1c0.5,0.2,0.2,0.2,0.7,0.4c3.1,1.3,4,2.5,8.1,1.6c0.5-0.2,1.8-0.7,2.3-1.3c0.9-0.9-0.4-2.5-1.3-3.6
		c-0.2-0.4-0.2-0.4-0.5-0.5c-0.9-1.1-2.2-1.8-3.6-2c-1.3-0.2-2.7-0.2-4,0c-1.6,0.2-3.2,0.5-3.8,0.7c-3.8,0.5-2.3-0.5-8.1,0.9
		c-0.7,0.2-0.9,0.4-1.6,0.5c-2,0.7-4,3.2-3.6,5.2c0,0.2,0.5,1.4,0.5,1.6l0.4,0.5c0,0,0,0,0,0.2l4.5,4.5l0.2,0.2l4.7,2.7
		c0.9,0.5,5.9,2.3,6.7,2.3c0.5,0,0.5-0.2,0.9-0.4l5.4-2.3c1.4-0.4,0.9-0.4,1.6-0.5C83.6,75.3,84.7,75.5,84.9,75z M85.6,116.9
		c-0.2-0.4-0.4-0.4-0.5-0.7c-1.1-1.4-2-4-1.3-5.6c0.5-1.4,0.7-2,1.8-2.9c0.5-0.5,0.2-0.2,0.5-0.5c0.4-0.4,0.4-0.4,0.7-0.5
		c0.4-0.2,0.4-0.2,0.7-0.5l5.9-2.7c0.7-0.2,0.9-0.4,1.8-0.7l4.3-1.6c0.4-0.2,0.4-0.2,0.7-0.5c1.6-0.7,2.5-1.4,4-2.2
		c0.2-0.2,0.2,0,0.4-0.2l1.6-0.9c0.2-0.2,0.2-0.2,0.4-0.2l1.3-1.1c0.9-1.1,2.2-1.8,2.9-3.1l1.3-2.5c1.1-2.2,0.2-4.3-0.4-5.9
		c-0.2-0.7-0.5-0.9-0.9-1.4c-0.4-0.4,0,0-0.4-0.4l-1.6-1.4c-0.4-0.4-0.2-0.2-0.5-0.5c-0.9,0-1.1,0.4-2,0.5c-0.7,0.2-1.6,0.2-2.3,0.4
		c-2.2,0.2-1.6,0.4-4.7,0.5c0.9,0.5,2.3,1.1,3.2,1.8c0.2,0.2,0.5,0.4,0.7,0.5c0.2,0.2,0.2,0.2,0.4,0.4l1.4,1.8
		c0.7,1.8,0.7,2.3,0,4.1l-1.8,2.7c-0.2,0.2-0.2,0.2-0.4,0.4l-2,1.4c0,0-0.2,0-0.2,0.2l-11.9,5l-4.3,2.3c0,0-0.2,0-0.2,0.2l-0.5,0.4
		c-0.4,0.2-0.5,0.4-0.7,0.5c-0.2,0.2-0.2,0.2-0.4,0.2l-1.6,1.6c-0.2,0.2-0.2,0.2-0.2,0.5l-0.2,0.2c-1.1,1.4-1.8,2.9-1.8,4.9
		c-0.2,3.8,1.4,6.3,3.4,9c0,0,0,0,0.2,0l1.1,1.1c0,0,0,0,0,0.2l1.4,1.3c0.2,0.2,0.2,0.2,0.4,0.4l0.9,0.7l0,0l0.5,0.2
		c0.2,0,0.4-0.2,0.4-0.4l1.1-0.7c-0.2-2.9,0.4-2.3-1.4-3.8l-1.6-1.6C85.8,117.1,85.6,117.1,85.6,116.9z M95.8,39
		c1.3,0.7,5.8,0,7.4-0.5c1.8-0.7,3.4-1.6,5-2.7l2.2-1.6c0.2-0.2,0.4-0.4,0.5-0.5c0.4-0.2,0.2,0,0.5-0.4c1.8-1.8,3.8-3.6,5.2-5.6
		c0.2-0.4,0.5-0.7,0.9-1.1l0.7-0.5c0.2-0.2,0.2-0.2,0.4-0.2l1.8-1.1c2.3-1.3,6.8-1.4,9.2-0.5c0.7,0.2,1.4,0.4,2.2,0.7l5,1.8
		c1.8,0.5,4,1.6,5.8,2l3.1,0.9c0.7,0.2,0.9,0.4,1.6,0.5c4.5,1.1,13.5,2.7,17.6,1.4c0.5-0.2,0.7-0.4,1.4-0.5c2-0.4,4-1.3,5.8-2.2
		c1.3-0.5,2.5-1.4,3.8-2.2l1.6-1.3c0,0,0,0,0-0.2l2-1.8c0.7-0.5,1.3-1.4,1.8-2l1.3-1.8c0.2-0.5,0.5-0.7,0.7-1.3
		c-0.7,0.4-1.1,0.9-1.6,1.4l-3.2,2.7c-1.1,0.7-1.8,1.4-3.1,2l-1.3,0.7c-0.2,0.2-0.4,0.2-0.5,0.4c-1.6,0.9-4,1.3-5.2,1.6
		c-2.5,0.9-9.2,0.5-12.4,0.2l-3.2-0.5c-0.7-0.2-0.9-0.4-1.6-0.5c-0.5-0.2-1.1-0.2-1.6-0.4c-1.3-0.4-5.2-1.8-6.5-2.5l-6.1-2.9
		c-1.3-0.4-3.1-1.3-4.3-1.4c-0.5-0.2-1.3-0.2-1.8-0.2c-2.2-0.2-5.4-0.4-7.6,0.2l-5.9,3.1c-0.7,0.5,0.5-0.4-0.2,0.2l-1.4,1.3
		c-1.1,1.1-1.8,2-2.5,3.2l-0.7,1.3c-1.3,1.8-1.4,2.7-3.1,4.3l-0.7,0.7c-0.2,0.2-0.2,0.4-0.5,0.5c-0.4,0.4-0.7,0.5-1.3,0.9
		c-0.7,0.5-1.4,1.3-2.3,1.6c-0.2,0.2-0.4,0.2-0.5,0.4c-0.2,0.2-0.2,0.2-0.2,0.2l-0.5-0.7c-1.1,0.5-3.2,1.4-4.5,1.8l-2.3,0.5
		C95.7,38.8,96,38.4,95.8,39z M88.3,39c-0.2-0.5-0.5-0.4-1.3-0.4c-0.9-0.2-3.6-1.1-4.3-1.6c-0.5-0.2,0,0-0.5-0.4l-6.3-4.1
		c-0.5-0.5-1.3-1.1-1.6-1.8L73,29.1c-1.1-1.4-1.4-3.1-3.6-5.4c-0.2-0.2-0.4-0.4-0.5-0.5c-0.2-0.2-0.2-0.2-0.5-0.5c0,0,0,0-0.2,0
		l-1.4-1.3c-0.2-0.2-0.2-0.2-0.4-0.2C66,21,66.1,21,66.1,21l-4.7-2.3c-2.5-0.9-8.1-0.5-10.8,0.4c-0.5,0.2-1.1,0.2-1.6,0.4l-6.7,3.2
		c-1.4,0.7-2.9,1.3-4.3,1.6c-1.8,0.7-2.5,1.1-4.5,1.4c-0.2,0-0.5,0.2-0.7,0.2c-1.8,0.7-7.2,1.4-9.4,1.4c-2.3,0-5,0-7.4-0.4
		c-1.6-0.4-3.1-0.9-4.7-1.4c-0.9-0.2-1.8-0.9-2.7-1.3c-3.8-1.8-6.8-5.6-7.7-6.1c0.7,1.8,2,3.4,3.2,4.9c0.2,0.2,0.2,0.2,0.2,0.2
		l0.7,0.7c0.2,0.2,0,0,0.2,0.2l1.3,1.3c0.2,0.2,0.2,0.2,0.4,0.2c1.3,0.9,3.4,2.5,4.9,3.1c0.5,0.2,0.7,0.5,1.3,0.7l2.9,1.1
		c0.7,0.4,2.2,0.5,3.1,0.9c2.3,0.9,7.9,0.5,10.8,0.2c0.9-0.2,0.7-0.4,1.6-0.4l4-0.7c0.4,0,0.5-0.2,0.9-0.2l7.6-2.2
		c0.5-0.2,0.7-0.4,1.4-0.5c0.5-0.2,0.9-0.2,1.3-0.5c0.5-0.2,1.1-0.4,1.6-0.5l2.9-1.3c0.2,0,0.5-0.2,0.7-0.2c2.2-0.9,3.1-1.3,5.4-1.4
		c3.2-0.2,5.9,0.5,8.3,2.3l2.5,2.5c0.2,0.2,0.2,0.2,0.4,0.5c0.4,0.4,0.2,0,0.5,0.5l0.4,0.5c0,0.2,0.4,0.4,0.5,0.5l0.9,1.1
		c1.1,0.9,2,2,3.1,2.7c1.1,0.9,2.2,1.8,3.4,2.3c0.9,0.5,1.6,1.1,2.5,1.4c0.7,0.2,0.9,0.4,1.4,0.5C82.7,38.8,87,39.7,88.3,39z
		 M89,24.4l0.5,49.5c1.4,0,3.6-0.4,5-0.5c0.2-8.1,0.2-16.4,0.2-24.5c0-4,0-8.6,0.2-12.1c0.2-4-0.2-8.5,0.2-12.4
		c0.4-0.2,0.4-0.2,0.7-0.5l1.4-1.8c0.7-1.3,0.7-3.1,0.5-4.5c-0.2-0.9-0.4-1.1-0.9-1.6l-0.2-0.2c-1.8-2.5-4.7-2.9-7.6-1.6l-0.4,0.2
		c0,0,0,0-0.2,0v0.2c-0.4,0.4-0.4,0.4-0.7,0.5c-0.2,0.2-0.4,0.5-0.5,0.7c-1.6,2-1.6,4.7-0.2,6.7l1.1,1.3
		C88.5,23.9,88.8,24.2,89,24.4z"/>
</g>
</svg>
