<?xml version="1.0" encoding="utf-8"?>
<!-- Generator: Adobe Illustrator 23.0.3, SVG Export Plug-In . SVG Version: 6.00 Build 0)  -->
<svg version="1.1" id="Layer_1" xmlns="http://www.w3.org/2000/svg" xmlns:xlink="http://www.w3.org/1999/xlink" x="0px" y="0px"
	 viewBox="0 0 184.3 184.3" style="enable-background:new 0 0 184.3 184.3;" xml:space="preserve">
<g id="Layer_x0020_1">
	<path d="M49.6,129.3l-0.9,2.3c-0.4,0.9-0.5,1.6-0.9,2.3l-2.3,6.3l-0.9,2.5c2.2,0.4,31,0,37.1,0.2c2.5,0,2,0.2,2.3-0.4l0.9-13.3
		h14.2l1.1,13.7h39.4c-0.9-3.1-2.2-5.8-3.2-8.6c-3.1-8.8-7-18-10.1-26.8c-2-5.8-4.5-12.1-6.7-17.8l-3.2-8.8
		c-0.5-1.4-1.1-3.1-1.6-4.5c-0.5-1.4-1.3-3.2-1.8-4.5l-10.6-28.6c-0.2-0.5-0.5-1.4-0.7-1.8h-7.9l0.5,9h-4.3l0.5-9h-7.7
		c-0.4,0.9-1.1,2.5-1.4,3.6c-2.2,6.3-4.9,12.6-6.8,18.5c-0.7,2.2-2.3,5.2-2.7,7.6c-0.5,0.9-0.7,2.2-1.3,3.2
		c-1.6,3.8-6.8,18.2-8.3,22.5c-1.6,4.3-3.4,8.5-4.9,12.8c-0.7,2-4.7,11.9-4.7,12.8l-0.7,1.6L49.6,129.3z M12.9,142.8h15.7
		c0.9-1.1,5.2-10.4,6.5-12.6l9.5-18.9c1.1-2,2.2-4.3,3.1-6.3l31.9-63.5h-3.1L68.5,54c-1.3,2.2-2.5,4.1-4,6.3l-38.7,61.6
		c-0.4,0.5-0.7,1.1-1.1,1.6c-0.4,0.5-0.5,1.1-0.9,1.6l-3.1,4.9c-0.5,1.1-1.3,1.8-2,3.1l-4,6.5C14.3,140.4,13.4,141.3,12.9,142.8z
		 M155.8,142.8h15.7c-0.4-0.9-3.1-5-4-6.5c-0.4-0.7-0.5-0.9-0.9-1.6c-0.4-0.5-0.7-1.1-1.1-1.6c-2.7-4.3-5-8.5-7.9-12.6
		c-0.7-1.1-1.3-2.3-2-3.2c-4.3-6.3-7.9-13-11.9-18.9l-5.9-9.5c-0.4-0.5-0.5-0.7-0.9-1.4c-0.4-0.5-0.5-1.1-0.9-1.6
		c-0.7-1.3-1.3-1.8-2-3.1l-10.8-17.3c-0.5-0.5-0.5-0.9-1.1-1.6c-0.5-1.1-1.3-2.2-2-3.2c-2.3-3.4-5.6-9-7.9-12.8
		c-1.3-2-2.9-4.3-4-6.3h-3.1l25.4,50.8c2,4.3,4.1,8.3,6.3,12.6c4.1,8.1,8.5,17.1,12.8,25.2C150.4,132.2,154.7,141.5,155.8,142.8z
		 M89.5,56.6h5.2l1.1,17.8h-7.4L89.5,56.6z M87.6,86.6l0.5-5.8h8.1l0.5,6.5l0.7,11.5H87L87.6,86.6z M86.5,105h11.3l1.1,17.8H85.4
		L86.5,105z"/>
</g>
</svg>
