<?xml version="1.0" encoding="utf-8"?>
<!-- Generator: Adobe Illustrator 23.0.3, SVG Export Plug-In . SVG Version: 6.00 Build 0)  -->
<svg version="1.1" id="Layer_1" xmlns="http://www.w3.org/2000/svg" xmlns:xlink="http://www.w3.org/1999/xlink" x="0px" y="0px"
	 viewBox="0 0 184.3 184.3" style="enable-background:new 0 0 184.3 184.3;" xml:space="preserve">
<style type="text/css">
	.st0{fill:#FFFFFF;}
</style>
<g id="Layer_x0020_1">
	<path class="st0" d="M117.1,132.6c2.9,0,24.7-1.4,26.1-2l0.9-18.7c0.7,0.9,3.4,5.9,4,7.2c0.9,1.8-0.2,7.7-0.5,10.1l-2.2,20.3
		c-0.2,0.5-0.2,0.5-0.4,0.9l-1.8-11.7l-30.6,1.6l-1.1,10.8h45.9c0.7-2,4.3-24.8,4.9-29c0.9-5.2,0.9-4.7-1.1-9.2
		c-4.7-10.8-9.2-21.2-13.7-31.9c-1.4-3.2-2.2-5.2-6.5-4.7c-3.2,0.4-2.9,0-5.9,5.4C126.8,95.9,117.8,115.3,117.1,132.6z"/>
	<path class="st0" d="M46,134.4c0.2,2.5,0.7,7.7,1.3,10.3c0.7,2.9,2.9,5.2,5.6,6.1c2.5,0.7,43.2,0.7,45.5,0c2.9-0.9,4.9-3.1,5.6-5.9
		c0.5-1.8,1.6-9,1.3-10.6c-2.5-0.5-53.8,0-58.7-0.2l-9.7-58.1c-1.6,0-8.1,2-9.7,2.7c-2.9,1.1-5,3.2-5.6,6.7
		c-0.4,2.3,5.8,37.8,6.7,42.7C30,136.9,39.1,134.6,46,134.4z"/>
	<path class="st0" d="M71.7,129.2c4.3,0.2,9.5,0.2,14,0c1.8,0,2-0.4,4.5-2.5c9-7.7,7-4.5,13.1-15.5c0.9-1.4,2.2-3.2,2.5-4.7
		c1.4,2,2.2,13,3.6,17.1c1.3-4.3,1.8-8.5,3.2-12.8c3.1-10.1,7-18.5,12.2-27.5c0.9-1.8,2.2-3.6,3.1-5.2l-23.6,3.2
		c-3.4,0.7-4.3,4.7-5.8,7.7l-11.2,22.5C85.4,115.5,71.7,125.6,71.7,129.2z"/>
	<path class="st0" d="M91,60.6c1.6,0.9,3.6,0.5,5.6,0.7c6.3,27.5,40.5,17.3,30.8-11.7l-31.9,3.6c-2,0.4-0.7,0.2-2.5,3.2
		C92.1,57.9,90.8,58.8,91,60.6z"/>
	<path class="st0" d="M91.5,39.3c2.2-0.4,1.4-0.9,2.5-1.4c0.9-0.4,1.6,0,3.1-0.9c3.6,4.7,0.4,7,0.2,7.4C94.2,44,93,44.9,91.5,39.3z
		 M95.3,33.2c-3.4,0.7-6.3,4.7-7.7,7.7c-1.4,3.1,1.1,6.1,3.1,7.6c3.4,2.2,11.2,0.2,17.1-0.5c3.1-0.4,18.2-1.8,20.7-2.5
		c1.8-0.5,4-1.6,4.3-3.4c0.4-3.4-7.4-4.5-10.4-5C116,35.7,100.2,32,95.3,33.2z"/>
</g>
</svg>
