<?xml version="1.0" encoding="utf-8"?>
<!-- Generator: Adobe Illustrator 23.0.3, SVG Export Plug-In . SVG Version: 6.00 Build 0)  -->
<svg version="1.1" id="Layer_1" xmlns="http://www.w3.org/2000/svg" xmlns:xlink="http://www.w3.org/1999/xlink" x="0px" y="0px"
	 viewBox="0 0 184.3 184.3" style="enable-background:new 0 0 184.3 184.3;" xml:space="preserve">
<style type="text/css">
	.st0{fill:#FFFFFF;}
</style>
<g id="Layer_x0020_1">
	<path class="st0" d="M71.3,88.7c-0.9-1.3-1.8-2.5-2.7-3.8C67.9,84,67,82,66.1,81.5c-0.2-1.3-0.5-1.3-1.3-2.7L61.8,71
		c-2.5-7.9-2.7-16.2,1.4-23.6c0.7-1.3,2.2-3.2,2.9-4.3l3.8-3.8c-4-0.7-7.9-4.9-10.1-7c-1.3-1.3-2.9-2.9-4-4.5
		c-2.2-2.9-2.3-4.5-3.1-5.4c-0.5,1.3-0.9,3.2-1.4,4.5c-1.8,4.1-7,12.4-9.9,19.3c-0.9,2.2-2.5,8.1-3.2,8.6c-1.4-2.9-6.1-6.7-10.3-7.6
		c1.8,10.4,1.8,10.6-1.6,19.8c-3.1,7.7-0.5,13.1,4.9,16c5.6,3.1,13,3.6,19.3,1.1c1.4-0.5,2.7-1.4,3.8-2.2c5.2-4.1,7.2-2.5,11.3,1.1
		c1.3,1.3,2.9,3.4,3.6,5.6c-5.2,0-1.8-0.4-4.9-2c-5.2-2.9-10.6-2.2-15.8-0.4c-5.9,2-14.4,5.8-21.1,2.2c-2.7-1.6-4.5-3.8-5.2-7.7
		C20,69.6,25.4,65.3,27,60.4c1.4-4-0.4-7.6-3.1-8.8c1.1,2.5,4,4.9,0,9.7c-5.9,7.4-13.3,20-3.6,26.8c5,3.6,13.3,5.8,21.1,4
		c6.5-1.6,14.2-5.9,21.6-3.2c0,4-0.9,7.7,4,6.7v4.7l-3.6,1.3c-1.6,0.5-2.2,1.3-3.4,1.4l-1.3,1.1c-0.9,0.5-0.4,0.4-1.3,0.5
		c-0.2,0.5-3.6,3.1-4.3,3.8c-17.3,17.6-8.3,48.8,17.6,53.1c6.5,1.1,14.6-0.2,20.2-3.4c0.9-0.5,1.6-0.9,2.3-1.4l2.2-1.8
		c-2.2,0.9-3.2,2.3-7.2,3.8c-2.5,0.9-5.8,1.6-8.6,1.8c-18,1.3-33.3-13.7-31.9-31.7c0.7,2.3,0.5,5,1.6,7.9c0.7,2.3,1.8,4.7,3.1,6.7
		c1.8,3.1,6.7,8.3,9.9,9.5l-1.6-1.4c-2.7-2.2-5.8-6.8-7.2-10.3c-2.2-4.9-2.7-11.2-1.4-16.7c2-9,7.7-15.5,15.5-19.1
		c0.7-0.4,2.5-1.1,3.1-1.4h0.5l3.1-0.9h1.4c1.1-0.5,2.9-0.4,4.3-0.4h0.5l2.7,0.2c4.1,0.9,6.7,1.4,7.7,2.5c3.6,0.5,8.3,5.6,10.4,8.3
		l1.8,2.7c0.2,0.4,0.2,0.2,0.5,0.5l0.4,0.4c-1.4-5.2-8.5-11.2-8.6-11.5c-0.7-0.4-1.8-1.3-2.5-1.8c-0.9-0.4-1.3-0.7-2.2-1.1
		c-0.9-0.5-1.8-1.1-2.9-1.6c-1.1-0.4-2.5-0.9-3.4-1.3v-4.3l2.2-0.2c1.3-0.4,1.8-1.1,1.8-2.5c0-1.3,0-2.9-0.2-4h-4.9
		c1.3-3.8,5-7.6,8.1-9.4c9.4-5.6,16.2,4.1,25.2,5.8c7,1.4,9.2-0.2,14.2-1.6c-3.2,0.2-4.9,1.1-8.8,0.4c-4.9-0.9-9.2-3.6-12.8-6.3
		c-1.6-1.3-3.6-2.7-5.8-3.6c-5.4-2-11.3-0.5-15.1,2.2c-6.5,4.9-6.1,9.7-7.2,11.7c-1.3-11.2,4.5-20.9,15.7-19.8
		c9.4,0.9,18,6.7,25,10.4c2,1.3,3.8,2.3,6.5,2.5c13.5,1.1,20.2-13.7,26.3-18c4.5-3.2,7.9-3.2,13.7-1.8c-3.4-7.6-9.7-14.8-18.5-12.8
		c-4.9,1.1-6.5,4.1-9,6.8c-9,9.2-17.3,6.3-27.2,2.2c-5.4-2.2-9.9-4.3-16-5.4c-7.2-1.3-11.7-0.4-16.2,4.3c-6.3,6.3-5.8,16.6-2.9,25.2
		l2.9,7.4c-1.1,0-1.6,0-2.2-0.4c0-0.7-3.2-8.5-4-13.9c-2.9-17.8,5.9-30.2,25.2-24.3c11.3,3.4,17.5,10.1,26.6,8.3
		c14.6-2.5,9-11.7,23.9-11.5c-5-2-13.1-1.1-18.7,0c-5.9,1.1-12.4-1.6-16.9-3.6c-5-2.3-8.1-5.2-13.3-7.4c-5-2-12.1-2.5-17.8-0.7
		C74.7,38.5,67,47.3,64.8,57.9c-1.3,6.3-0.2,12.6,2,17.8c1.1,2.5,2,4.9,3.4,7l3.1,4.7c0.5,0.7,0.7,0.9,1.1,1.6L71.3,88.7z
		 M85.9,100.2l3.8,0.2c0-1.1,0.2-0.9-0.4-1.6C88.6,97.7,86.1,97.3,85.9,100.2z"/>
</g>
</svg>
