<?xml version="1.0" encoding="utf-8"?>
<!-- Generator: Adobe Illustrator 23.0.3, SVG Export Plug-In . SVG Version: 6.00 Build 0)  -->
<svg version="1.1" id="Layer_1" xmlns="http://www.w3.org/2000/svg" xmlns:xlink="http://www.w3.org/1999/xlink" x="0px" y="0px"
	 viewBox="0 0 184.3 184.3" style="enable-background:new 0 0 184.3 184.3;" xml:space="preserve">
<style type="text/css">
	.st0{fill:#FFFFFF;}
</style>
<g id="Layer_x0020_1">
	<g id="_2748415948800">
		<path class="st0" d="M52.8,137.9c-0.7-5.9,8.1-6.8,8.6-1.1C62.4,142.6,53.5,143.5,52.8,137.9z M157.9,51.9
			c-2.7,2.3-7.4,7.7-9.7,9.5c-6.7,5-16.2,0.5-17.1-7.6c-0.4-2.9,0.7-5.8,2-7.4c1.6-1.8,3.1-3.2,4.7-4.9l4.9-4.9
			c-6.1-0.9-10.4-1.1-16.2,2.2c-7,4-12.1,12.6-10.4,22c0.4,2.2,0.9,1.1-2,4l-9.9,9.9c-4.5,4.5-8.8,8.8-13.1,13.1l-39.4,39.4
			c-2,2-4.5,4-5.2,7.9c-0.7,3.8,0.5,7.4,3.1,9.9c2.5,2.5,5.9,3.8,9.7,3.1c4.1-0.7,6.1-3.2,7.9-5.2c13.1-13.1,26.5-26.3,39.6-39.6
			l23-23c0.5-0.5,1.1-1.1,1.6-1.6c0.9-0.9,0.9-0.5,2.5-0.4c6.1,1.1,13-0.9,17.5-4.9c5.8-5.2,8.5-12.4,7-20.3
			C158.3,52.8,158.1,52.3,157.9,51.9z"/>
		<path class="st0" d="M44,54.2c0.4,1.6,0.5,2.9,0.2,4.5c-0.7,2.3-2.7,4.5-5,5.2c-2.2,0.5-2.9,0.2-4.7-0.2l-8.8,8.8l15.5,15.5
			l7.9-7.7c1.8-1.8,0.7-0.9,0.7-3.6c0-5.9,7.2-9.7,12.1-5.9c1.8,1.4,13.1,13.1,15.8,15.7l5.2,5.2l9.9-9.9L62.4,51.5
			c0.4-0.7,3.2-2.9,4.3-3.6c1.4-0.9,3.4-2,5.2-2.7c3.2-1.3,6.7-1.8,10.1-1.8c5.2,0,2.7,1.4,7-3.1c-2.9-2.2-8.1-4-12.4-4.3
			c-7.4-0.5-15.5,1.8-20.7,6.5c-0.4,0.4-0.9,0.5-1.3,1.1L44,54.2z"/>
		<path class="st0" d="M100,114.5c0.2,0.7,9,9,10.3,10.4l20.7,20.7c3.6,3.6,10.6,3.8,14.9-0.5c4-3.8,4.5-10.1,0.9-14.8
			c-1.4-1.8-3.6-3.6-5.2-5.2L116,99.6c-0.4-0.4-0.2-0.2-0.5-0.4L100,114.5z"/>
	</g>
</g>
</svg>
