<?xml version="1.0" encoding="utf-8"?>
<!-- Generator: Adobe Illustrator 23.0.3, SVG Export Plug-In . SVG Version: 6.00 Build 0)  -->
<svg version="1.1" id="Layer_1" xmlns="http://www.w3.org/2000/svg" xmlns:xlink="http://www.w3.org/1999/xlink" x="0px" y="0px"
	 viewBox="0 0 184.3 184.3" style="enable-background:new 0 0 184.3 184.3;" xml:space="preserve">
<style type="text/css">
	.st0{fill:#FFFFFF;}
</style>
<g id="Layer_x0020_1">
	<g id="_2458316240208">
		<path class="st0" d="M93,116.7c-1.6,0-2-0.4-3.6-0.4c-12.4,0-17.8,0.9-29.3,4c-2.2,0.5-5.4,1.6-7.4,2.5c-4.7,2-8.8,3.8-13,6.1
			c-2.3,1.4-10.8,6.3-10.8,8.6c2.2,0.5,5.6,2.9,7.9,2.9c2.9,0,10.4-5,15.3-5c5,0,5.4,0.2,10.4,2.3c8.5,3.4,5.6,4,14.8,0
			c9.7-4.1,12.6-2.5,22,1.4c3.8,1.6,4,1.8,7.9,0c9.4-4.1,12.2-5.4,21.6-1.6c1.8,0.7,5.9,2.9,7.6,2.9s6.8-2.3,8.3-3.1
			c-0.5-0.7-1.3-1.4-2-2l-7-5l-10.6-5.6c-5.4-2.2-19.3-7.2-25.2-7.2l1.6-6.3c2.7-10.3,6.1-21.6,8.6-31.7c0.5-2.3,1.3-4.1,1.8-6.5
			l1.8-6.3c-1.3-0.5-4.5-1.6-6.3-1.8c-0.7,1.4-1.3,4.5-1.8,6.3c-0.7,2.2-1.3,4.1-1.8,6.5c-1.1,4.3-2.3,8.6-3.4,12.8L93,116.7z"/>
		<path class="st0" d="M20,155c2.3,0,5.6,1.6,7.7,2.5c3.2,1.4,5.6,2.3,7.9,2.5h1.8c2.2-0.2,4.5-0.9,7.9-2.3c8.6-3.6,7-3.6,15.8,0
			c3.4,1.4,5.6,2.2,7.9,2.3h1.8c2.2-0.2,4.5-0.9,7.7-2.3c10.4-4.5,8.1-3.1,19.8,1.4c1.4,0.5,2.7,0.7,4,0.9h2c6.1-0.5,11-5,16-5
			c1.8,0,5.8,2,7.4,2.7c3.6,1.4,5.9,2.2,8.3,2.3h1.6c3.1-0.2,6.1-1.6,11.3-4c1.3-0.5,2.5-1.1,4.3-1.1v-9.9c-7,0-13.1,5-16.7,5
			c-1.4,0-2.9-0.7-3.8-1.3c-8.3-4-13-5.4-21.6-1.6c-8.8,4-6.8,3.4-15.3,0c-7.2-2.9-10.8-3.2-18,0c-8.6,3.8-7.4,3.6-15.5,0
			c-7.4-3.2-10.6-2.9-17.8,0c-8.8,3.4-5.9,4.1-15.5,0c-2.5-1.1-5.4-2.2-8.8-2.2v9.9C20.3,155,20,155,20,155z"/>
		<path class="st0" d="M56.7,50.4c0,2.7,4.7,0.9,5.6,0.5c4.3-1.1,9.7-0.7,13.7,0.7c1.1,0.4,1.8,0.5,2.7,1.1c0.9,0.5,1.4,0.7,2.5,1.3
			c1.6,0.9,2.9,2,4.1,3.2c1.3,1.3,2.2,2.7,4.1,3.2c0.9-0.7,1.1-0.9,1.4-2.2c3.6-9.7,8.3-21.1,15.5-28.4c1.6-1.6,0-0.5,2.7-2.7l2-1.6
			c0.9-0.7,0.7-0.4,0.9-1.1l-10.4-0.2c-15.7,0-32,8.1-41.6,20.7C59.2,45.8,56.7,49.2,56.7,50.4z"/>
		<path class="st0" d="M132.5,45.4c0,8.3,0,8.5-0.9,16.9c-0.2,2.5-1.6,7.2-1.1,9c2.7,0.7,2.7,0,5.6-0.5c1.4-0.4,2.9-0.5,4.7-0.7
			c4.5-0.5,12.1,2.2,15.8,5c3.4,2.5,3.6,4.7,6.5,4.7c0.7,0,1.1-0.5,1.1-1.3v-2.2c0-5.2-1.6-12.2-3.6-16.9c-0.5-1.1-1.1-2.5-1.6-3.4
			l-4-6.3c-0.7-1.3-1.4-2-2.3-3.1l-4.9-5.2c-2.9-2.9-8.5-7-11.9-9l-7-3.4c0.4,1.3,0.9,2.2,1.3,3.4C131.7,36.2,132.5,41.4,132.5,45.4
			z"/>
		<path class="st0" d="M95,61.8c2.2,0,2.7-0.5,4.7-0.9c1.4-0.4,2.7-0.5,4.5-0.5c2.9-0.2,6.3,0.5,8.8,1.4c3.1,1.1,7.7,3.6,9.7,5.9
			c0.5,0.7,1.6,2.5,3.2,2.5c1.3,0,1.3-2.5,1.6-3.8c1.6-9.7,2.9-22.7-0.4-32.2c-5.8-17.1-18.4-2.5-23.9,6.8c-4,6.5-6.1,11.9-8.6,18.7
			C94.1,60.3,93.4,61.8,95,61.8z"/>
		<path class="st0" d="M42.8,71.1c3.4,0,6.5,0.2,9.2,3.4c8.3,9.9-5.4,23.4-15.1,14.6c-1.8-1.6-2.9-3.8-3.2-6.8
			c-0.4-2.7,0.9-5.6,2.3-7.6C37.2,73.1,40.3,71.1,42.8,71.1z M25.4,73.3c0.4,1.4,4.3,8.1,4.3,8.3c0.2,0.7-0.4,1.3-0.5,2.2l-2.9,6.7
			c-0.4,1.1,0.2,0.7,4.3,1.4c1.1,0.2,4.7,0.7,5.2,1.3c0.2,0.2,4.1,7.6,4.7,8.5l7.4-6.3c1.6,0,8.1,1.3,9.9,1.6c0-4-0.4-5.9-0.4-8.8
			c0-1.4,0-1.4,0.9-2.2c0.9-0.5,0.9-0.7,1.6-1.3c1.3-1.3,4-3.1,4.9-4.5l-7.2-5.2C56.7,74,57,74,56.9,72.4l-0.2-5.9
			c0-1.4,0.2-2-0.9-1.8c-0.5,0.2-2.2,0.5-2.5,0.7c-0.9,0.2-1.4,0.4-2.5,0.7c-2.5,0.7-3.4,1.4-4.7,0.5l-3.6-2.7
			c-0.9-0.5-2.9-2.3-3.8-2.5l-3.8,8.6c-0.5,0.5-3.8,1.3-4.7,1.6C28.8,72.2,26.4,72.8,25.4,73.3z"/>
	</g>
</g>
</svg>
