<?xml version="1.0" encoding="utf-8"?>
<!-- Generator: Adobe Illustrator 23.0.3, SVG Export Plug-In . SVG Version: 6.00 Build 0)  -->
<svg version="1.1" id="Layer_1" xmlns="http://www.w3.org/2000/svg" xmlns:xlink="http://www.w3.org/1999/xlink" x="0px" y="0px"
	 viewBox="0 0 184.3 184.3" style="enable-background:new 0 0 184.3 184.3;" xml:space="preserve">
<g id="Layer_x0020_1">
	<g id="_2458315023712">
		<path d="M131.4,53.8c0,3.6,4,8.3,5.9,13.1c2,4.9,3.2,9,4.1,14.9c0.5,2.7,0.7,5.4,0.9,8.5c0.2,4.7,1.6,4.7-3.6,5.4
			c-6.7,1.1-4.1,4.9-4.1,14c0,3.6-2.5,6.3-4,8.5c-0.5,0.9-1.1,1.6-1.8,2.5l-5.6,6.7c-4.9,5.4-9.2,9.7-14.9,14.2
			c-1.3,1.1-4,3.6-5.2,3.6c-3.2,0-9-9.2-10.1,3.6c-0.4,4.1-0.5,5.4-2.9,7.6c-8.3,8.3-15.8,2.5-25.6,5.9c-5,1.6-7.2,5.8-10.4,10.6
			c-1.1,1.6-1.3,2.2,0,2.3h6.5c28.3,0,55.6-0.4,83.9-0.4c3.1,0,7.4,0.2,10.3,0c3.4-0.4,4.5-2.7,4.1-5.9
			c-0.7-5.4-0.2-109.4-0.2-126.2c0-3.8,0.5-18-0.7-20.3c-1.8,0.2-3.1,1.8-4.1,3.1l-3.6,4c-1.3,1.3-2.3,2.3-3.6,3.6l-10.4,11.5
			C134.8,45.9,131.4,50.6,131.4,53.8z"/>
		<path d="M54.7,46.3c-10.1,0-9-4.7-14.9,2.9c-0.9,1.3-1.8,2.7-2.5,4c-5,8.6-5.2,17.8-5.2,28.1c0,2.3,0.2,4.3,0.4,6.1
			c0.2,1.1,0,2.2,0,3.2c0,1.4,0.4,1.3,0.4,2.9c0,3.2-0.4,3.4,2.5,4c1.8,0.4,4,0.9,5.8,0.9c0-4-0.7-7.4-0.7-12.2
			c0-4.7,0.5-9.4,1.4-13.5c1.3-6.3,2.2-7.7,3.1-12.1c0.7,1.1,1.6,11,2.2,14.2c0.5,2.3,2.7,12.6,4.3,12.6c6.3,0,29.5-7.9,29.5-11
			c0-2-7.7-18.5-8.8-23c2.2-1.1,7.4-0.5,10.1-0.7c2,0,2.7-0.4,4.9-0.4c9,0,18.2-0.7,26.6-0.7c0.9-1.4,1.1-2,1.6-3.8
			c0.5-1.6,1.3-2.5,1.3-4.7c-13.3,0-16,0.9-31.1-0.9L72,40c-9.5-1.8-4.5-0.4-10.4,3.6C59.9,45,57.2,46.3,54.7,46.3z"/>
		<path d="M56.7,95.2c0.2,1.4,2.7,5.2,3.6,6.8c4.5,7.4,8.8,13.9,8.8,23c0,4.3-2.3,19.3-2.2,21.1c0.4,4,7.7,3.1,10.4,2.3
			c3.6-0.9,2.9-3.1,2.9-7.6c-0.2-14.4,5.6-18.2,1.1-33.8c-0.7-2.2-2.7-7-2.7-9c7.2,0,15.3-2.3,19.4,0c1.1,0.5,1.4,1.3,2.2,2.3
			c2.5,3.4,6.8,12.8,10.1,17.6c0.7-0.4,1.6-0.5,2.5-0.7c0.9-0.4,1.8-0.5,2.5-1.1c5.9-3.1,3.4-4-0.2-14.9c-1.3-4-2.5-7.7-4-11.9
			c-1.6-5-2.2-4-10.8-4.7c-2-0.2-5-0.5-7-0.9c-1.4-0.2-2-0.2-3.4-0.5c-5.9-1.1-3.6-0.9-10.1,3.4c-2.3,1.6-3.8,2.5-6.7,3.8
			C66.6,93.4,58.7,94.3,56.7,95.2z"/>
		<path d="M88,80.1c1.8,0,1.8-0.2,3.1-1.3c0.9-0.9,1.3-0.9,2.2-1.8l12.1-10.3c2.7-2.2,5.6-4.5,8.5-6.5c1.6-1.1,8.1-4.9,8.1-6.8
			c0-0.9-0.9-1.3-1.6-1.3c-5,0-13.3,6.8-17.1,10.4c-0.9,0.9-1.4,1.1-2.3,2l-6.1,5.6c-1.4,1.4-7.7,7-8.3,8.1
			C85.8,79.2,86.6,80.1,88,80.1z"/>
		<path d="M25.5,144.7c0.9,0.5,4,1.8,5.2,2l-0.4-13c0-6.1,0.9-16.2,1.6-22.3c0.2-1.1,0.5-2.2,0.2-3.4c-0.2-0.7-2.7-5.4-4,1.6
			c-0.4,1.8-0.5,3.2-0.7,4.7c-1.1,8.3-2,16.9-2.3,25.2C25,141.7,25.5,142.6,25.5,144.7z"/>
		<path d="M128.9,39.8c0,3.1,2.9,0.7,3.8,0c0.7-0.7,1.1-0.9,2-1.6l9.2-8.8c2.5-2.5,13.1-13.9,13.1-15.7c0-1.3-1.8-4-2.5-4.5
			c-1.1,0.7-2.2,2.7-2.9,4c-2.5,3.6-4,4.9-6.3,7.9c-0.7,0.9-1.1,1.1-1.8,1.8l-8.5,9c-1.3,1.3-2.3,2.3-3.6,3.6
			C130.3,36.5,128.9,37.6,128.9,39.8z"/>
		<path d="M44.6,30.2c2.7,0.2,18.9,0.9,19.4,0.4c0.4-0.7-0.2-2.5-0.5-3.8c-1.1-3.2-4.5-6.7-8.3-6.7C48.9,20.2,44.6,23.6,44.6,30.2z"
			/>
		<path d="M113,121.9c0.4,1.3,1.4,2,2.3,2.7c1.3,0.9,1.8,1.8,2.7,2.3c2.2-0.5,5.8-4.3,7.7-5.9c0.5-0.5,9.5-8.1,5.6-8.1
			c-3.2,0-3.2,0.5-5.9,1.6c-1.8,0.9-3.8,0.4-5.4,1.1C119.1,116.1,113.7,120.6,113,121.9z"/>
		<path d="M54.3,41.4c4.3,0,7.6-3.2,8.1-7c0.2-1.4,0.4-1.3-0.7-1.4L48,32.8c-2.3,0,0.4,5,0.9,5.6C50,40,52,41.4,54.3,41.4z"/>
		<path d="M67.7,151c-0.4,1.4-0.2,2.2-0.4,3.8c-0.2,1.4-2.3,4.7,0.7,4.7c3.1,0,5.2-0.5,8.1-1.1c1.8-0.4,7.6,0.4,7.6-1.8
			c0-1.8-3.8-2-5.2-2.5c-4.5-1.8-1.3-3.2-6.5-3.2C69.8,150.7,69.5,151,67.7,151z"/>
		<path d="M54.3,91.6c0,2.2,5.6,0.2,6.3,0c1.3-0.5,2.5-0.7,4-1.3c2.7-1.1,4.9-1.8,7.4-2.9c2.5-1.1,4.7-2.2,7-3.2
			c1.1-0.5,2.2-1.3,3.2-2c3.6-2.7,1.1-4.1-2.9-1.6c-1.3,0.7-2.2,1.1-3.4,1.8c-4.3,2.2-10.1,4.3-14.8,5.6
			C59,88.6,54.3,89.6,54.3,91.6z"/>
		<path d="M129,47.3c0-2.5-6.5-4.1-9.7-4.1c-0.5,5.6-5,6.7,0.5,7.2C122.7,50.6,129,50.4,129,47.3z"/>
		<path d="M33.3,100.4c0,10.8,7.4,13,7.4,1.3c0-1.1-1.1-0.9-3.6-1.6C36,99.9,33.3,99,33.3,100.4z"/>
		<path d="M43.4,102.8c0,0.9,0.2,0.9,0.4,1.6c2.9,0.7,2.2,0.4,5.4-4.7c3.2-4.9,4.3-5.4,2-7c-2.2,0.5-3.2,2.7-4.3,4.5
			C46.4,97.7,43.4,102.6,43.4,102.8z"/>
	</g>
</g>
</svg>
