<?xml version="1.0" encoding="utf-8"?>
<!-- Generator: Adobe Illustrator 23.0.3, SVG Export Plug-In . SVG Version: 6.00 Build 0)  -->
<svg version="1.1" id="Layer_1" xmlns="http://www.w3.org/2000/svg" xmlns:xlink="http://www.w3.org/1999/xlink" x="0px" y="0px"
	 viewBox="0 0 184.3 184.3" style="enable-background:new 0 0 184.3 184.3;" xml:space="preserve">
<g id="Layer_x0020_1">
	<g id="_2058149467152">
		<path d="M27.8,141h38.5c3.6,0,3.1,8.8,10.4,8.8h31.1c7.4,0,6.7-8.8,10.4-8.8h38.3v3.6h-25.2c-2.5,0-3.8,3.2-1.6,4.7
			c2,1.3,23.6,0.5,26.8,0.5c-1.3,2.5-1.8,6.7-8.8,6.7H36.6c-7.9,0-8.1-4.9-8.8-6.7l23.8,0.2c4-0.2,3.6-0.7,3.6-4.5
			c-6.8-1.6-19.8-0.7-27.4-0.7C27.8,144.8,27.8,141,27.8,141z M73.7,141h37.1c-0.5,1.8-0.5,3.6-2.9,3.6H76.6
			C73.9,144.6,74.4,142.6,73.7,141z M27.8,135.1c-6.3,3.4-5.2,2.9-5.2,14c0,4.1,2,6.8,4.1,9.2c2.5,2.5,6.1,3.4,10.6,3.4H147
			c14.6,0,14.8-10.4,14.8-20c0-3.4-1.8-5.6-5.2-5.9V56.4c0-3.6,0.4-3.2-1.3-5.4c-2.2-2.7-4.7-3.4-9.2-3.4h-24.5
			c-2.3,0-4.5,0.7-4.5,2.9c0,3.6,9,2.2,16.2,2.2c6.1,0,12.8-0.4,17.8,0.7v82.3h-3.6V63.3c0-2.7-2-5.9-4.5-5.9h-28.1
			c-2.7,0-2.2,1.8-2.2,4.5c6.8,1.6,21.8,0.7,29.5,0.7v73.3H41.5V62.4h27c2.5,0,2.9-1.8,2.9-4.5c-6.8-1.6-22.5-0.7-30.4-0.7
			c-1.8,0-4.5,2.7-4.5,4.5v74c-3.1,0-4.5,0.4-4.5-2.2V57.3c0-6.1,4.9-4.5,16.2-4.5c7,0,18.5,1.4,18.5-2.2c0-2.2-2.2-2.9-4.5-2.9
			c-40.7-0.2-35.1-6.8-35.1,39.8C27.1,95.7,25.8,130.9,27.8,135.1z"/>
		<path d="M81.1,92.1h22.1v23H81.1V92.1z M128.4,115.1h-20v-23c7,0,15.7-0.9,22.3,0.7c0,4,0,7.9,0,11.9
			C130.8,108.1,132,115.1,128.4,115.1z M53,110.6c0-22.9-4-18.5,23-18.5v23C58.6,115.1,53,117.3,53,110.6z M47.8,98
			c0,13.3-2.2,22.1,11.2,22.1c10.1,0,68.4,1.4,73.4-1.3c1.4-0.7,3.6-2.7,3.6-4.7V92.8c0-2.9-4.3-5.9-8.8-5.9H57.3
			C50.3,86.8,47.8,91,47.8,98z"/>
		<path d="M94.4,59.5V55c1.8-0.4,2.9-0.7,4.5-1.4c1.4,2.2,1.4,1.1,2.2,3.8C100,57.5,95.3,59.1,94.4,59.5z M85.6,53.5
			c1.4,0.9,1.8,1.1,3.6,1.4v4.5c-1.4-0.7-4.3-1.8-5.9-2.2C84,54.6,84,55.7,85.6,53.5z M105.4,52.8H104c-1.3-5-1.3-0.2-0.7-6.7h4.5
			C107,49,106.1,50.3,105.4,52.8z M76.6,46.2h4.5c0.2,2,0.4,2,0.7,3.8L78.9,53c-0.9-2.5-0.7-1.3-1.4-3.2
			C77.3,48.9,76.8,46.7,76.6,46.2z M85.6,44.7c0-10.6,13.3-9,13.3-0.7C98.9,52.8,85.6,51.4,85.6,44.7z M81.1,40.9h-4.5
			c0.7-2.9,1.6-4.1,2.2-6.7l3.1,2.9C81.3,39.3,81.3,38.6,81.1,40.9z M101.8,37.3c2.2-1.4,0.9-1.4,3.6-2.2c1.1,2.2,1.6,3.4,2.2,5.9
			h-4.5C103.1,37.7,103.4,39.7,101.8,37.3z M98.7,33.4c-5.6-1.3-4.3-2.5-4.3-5c3.2,0,4.5,1.1,6.7,2.2L98.7,33.4z M85.6,33.6
			l-2.3-2.9c2.2-1.3,3.2-2.2,5.9-2.3c0,0.2,0.2,0.2,0.2,0.4C89.4,30.3,91.4,32.3,85.6,33.6z M71.4,41.7c0,7.2,0.5,11,5.4,16.2
			c5.2,5.8,11.7,6.1,12.4,6.8l0.2,0.7c0.9,4.3,5,6.7,5-0.7c25.9-5.9,21.4-33.7,6.7-40C82.7,16.8,71.4,33,71.4,41.7z"/>
		<path d="M89.2,78H60.4C57,78,53,76.9,53,80.2c0,1.8,1.3,2.9,2.9,2.9h72.5c2.2,0,2.5-1.3,2.9-2.9c-0.7-1.3-0.9-2.2-2.9-2.2h-34
			C94.4,70.5,89.7,72.8,89.2,78z"/>
		<path d="M53,126.8c0,1.6,0.5,2.2,2.2,2.2h73.3c2,0,2.2-1.1,2.9-2.2c-0.4-1.6-0.7-2.9-2.9-2.9H55.9C54.1,123.9,53,125.2,53,126.8z"
			/>
		<path d="M63.3,102.5c-1.1,4.5-4,8.1,2.9,8.1c0.4-1.6,1.3-4.7,2-6.1c1.1-2.2,3.2-3.2,3.2-5.6c0-4-4.3-1.4-6.7-1.4
			c-3.1,0-5.9-2.2-7,1.1C56.6,101.4,60.8,102.1,63.3,102.5z"/>
		<path d="M84.7,98c0.9,3.6,2.7,4.1,6.7,4.5c-1.3,2.2-4,8.1,0.7,8.1c3.6,0,1.1-2.7,5.8-9.2c5-6.8-5.8-4.1-5.8-4.1
			C88.7,97.3,87,95.7,84.7,98z"/>
		<path d="M113,98.7c0,2.9,3.2,3.4,5.9,3.6c-1.3,2.2-3.2,8.1,0.7,8.1c2.9,0,2.9-3.4,3.8-5.8c1.3-2.9,3.2-3.4,3.6-6.8
			c-4.7-3.1-2.2-0.7-6.7-0.7C117.3,97.3,113,94.8,113,98.7z"/>
		<path d="M59.7,146.8c0,4.3,7.4,3.4,7.4,0.7C67.1,143.2,59.7,144.3,59.7,146.8z"/>
		<path d="M117.5,146.8c0,4.3,7.4,3.4,7.4,0.7C124.8,143.2,117.5,144.3,117.5,146.8z"/>
	</g>
</g>
</svg>
