<?xml version="1.0" encoding="utf-8"?>
<!-- Generator: Adobe Illustrator 23.0.3, SVG Export Plug-In . SVG Version: 6.00 Build 0)  -->
<svg version="1.1" id="Layer_1" xmlns="http://www.w3.org/2000/svg" xmlns:xlink="http://www.w3.org/1999/xlink" x="0px" y="0px"
	 viewBox="0 0 184.3 184.3" style="enable-background:new 0 0 184.3 184.3;" xml:space="preserve">
<g id="Layer_x0020_1">
	<path d="M14.4,115.3v48.2l10.4,0.2v-10.1l15.5-0.2v-10.3H24.9v-15.5l15.5-0.2v-10.4H24.9c-0.5-5.2,0.5-10.8,1.3-15.7h14V91.2H28.8
		C29.5,79.5,42.5,63.1,56,57.7c1.6,2.5,1.8,13.5,6.1,19.6c3.1-0.7,7.2-1.8,9.2-3.6c-2.7-7.6-6.5-17.5-4.7-26.6
		c1.6-7.7,8.6-15.8,15.3-17.5l0.2,23.6l66.1,22.3c6.5,2.2,11.3,2.7,11.7,9.9c1.3,23.2,0.5,28.4-17.3,25.6
		c-6.3-0.9-13.3-2.3-19.6-3.1l0.5-6.3h-10.4c-1.3,27.5-40.9,27.2-41.6,0H61.2c0.5,16.7,11,27.4,25.4,30.6l0.5,1.1
		c1.3,3.6,2.2,19.6,11.2,32.4l9-4.1c-1.3-5.4-8.1-13.1-9.5-29.2c10.1-2.2,17.6-7.9,21.1-14.9c14.4,1.1,51.1,16.4,51.1-16.9
		c0-23,2.3-27.2-18-34.4c-13.5-4.9-49.9-15.8-59.2-19.8l-0.2-27.5h-8.1c-5.2,2.3-16,2-24.1,17.6c-5.9,11.3,0.9,7.6-9,12.1
		C37.6,55,27.6,66,21.6,80.8c-2,5-3.6,10.6-4.7,16.6C15.7,101.8,15.5,112.1,14.4,115.3z"/>
</g>
</svg>
