<?xml version="1.0" encoding="utf-8"?>
<!-- Generator: Adobe Illustrator 23.0.3, SVG Export Plug-In . SVG Version: 6.00 Build 0)  -->
<svg version="1.1" id="Layer_1" xmlns="http://www.w3.org/2000/svg" xmlns:xlink="http://www.w3.org/1999/xlink" x="0px" y="0px"
	 viewBox="0 0 184.3 184.3" style="enable-background:new 0 0 184.3 184.3;" xml:space="preserve">
<g id="Layer_x0020_1">
	<g id="_2057949848704">
		<g>
			<g>
				<path d="M150.2,31.3c-3.1-5.4-8.1-9.4-14.4-10.1c-2.2-0.2-4.5,0-6.7,0.4c-1.1-2.2-2.2-4.3-3.6-6.5c-0.5-0.7-1.6-1.3-2.5-1.3
					H92.3H61.5c-0.9,0-2,0.5-2.5,1.3c-1.4,2-2.5,4.1-3.6,6.5c-2.2-0.4-4.5-0.5-6.7-0.4c-6.3,0.5-11.3,4.7-14.4,10.1
					c0,0.2-0.2,0.2-0.2,0.4c-4,7-1.6,14.9,4,20.3c8.6,8.3,20,13.5,28.8,21.8c1.3,1.3,2.5,2.5,3.6,3.8c0.4,0.4,0.5,0.7,0.9,1.1
					c0,0,0.2,0.4,0.4,0.4c0.2,0.2,0.2,0.5,0.4,0.7c0.2,0.4,0.4,0.7,0.5,1.1c0,0.2,0.2,0.2,0.2,0.2c0,0.2,0.2,0.4,0.2,0.7
					c0.2,0.5,0.4,1.3,0.5,1.8c-0.9-0.5-1.8-0.7-3.1-0.7c-3.8,0-6.8,3.1-6.8,6.8c0,3.8,3.1,6.8,6.8,6.8c2.9,0,5.2-1.8,6.3-4.1
					c1.8-3.8,1.3-8.6-0.4-12.4c-0.4-0.9-0.7-1.8-1.3-2.5c-0.5-0.9-1.4-1.8-2.2-2.5c4,3.6,11.5,11.9,14,23.4
					c1.4,6.7,1.1,11.2,0.5,13.9h-7.7c-0.7,0-1.3,0.5-1.3,1.3v4c0,0.2,0,0.2,0,0.4h-3.4c-0.9,0-1.6,0.7-1.6,1.6v5.6
					c0,0.9,0.7,1.6,1.6,1.6h33.5c0.9,0,1.6-0.7,1.6-1.6v-5.9c0-0.9-0.7-1.6-1.6-1.6h-3.4c0-0.2,0-0.2,0-0.4v-4
					c0-0.7-0.5-1.3-1.3-1.3h-7.7c-0.5-2.9-0.9-7.4,0.5-13.9c2.5-11.5,10.1-19.8,14-23.4c-0.7,0.9-1.4,1.6-2.2,2.5
					c-0.5,0.9-0.9,1.6-1.3,2.5c-1.6,3.8-2.2,8.6-0.4,12.4c1.1,2.5,3.4,4.1,6.3,4.1c3.8,0,6.8-3.1,6.8-6.8c0-3.8-3.1-6.8-6.8-6.8
					c-1.1,0-2.2,0.2-3.1,0.7c0.2-0.5,0.4-1.3,0.5-1.8c0-0.2,0.2-0.5,0.2-0.7s0.2-0.2,0.2-0.2c0.2-0.4,0.4-0.7,0.5-1.1
					c0.2-0.2,0.2-0.5,0.4-0.7c0,0,0.2-0.4,0.4-0.4c0.4-0.4,0.5-0.7,0.9-1.1c1.3-1.3,2.3-2.5,3.6-3.8c8.8-8.3,20-13.5,28.8-21.8
					c5.6-5.4,7.9-13.3,4-20.3C150.4,31.4,150.4,31.4,150.2,31.3z M47.3,53.9c-2.9-2-5.8-4.1-8.1-6.7c-1.4-1.6-2.5-4.3-2.9-6.5l0,0
					c-0.7-4,1.3-8.5,3.8-11.3c2.9-3.4,7.7-4.7,12.1-4.3c0.4,0,0.9,0.2,1.3,0.2h0.4l0,0c-1.3,4-2,8.3-2,12.8c0,9.7,3.4,18.7,9.2,25.7
					C56.4,60.4,51.9,57.2,47.3,53.9z M148.2,40.8L148.2,40.8c-0.4,2.2-1.4,4.9-2.9,6.5c-2.3,2.5-5.2,4.7-8.1,6.7
					c-4.7,3.2-9.2,6.5-13.9,9.9c5.8-7,9.2-15.8,9.2-25.7c0-4.5-0.7-8.6-2-12.8l0,0h0.4c0.4,0,0.9-0.2,1.3-0.2
					c4.3-0.4,9.2,0.9,12.1,4.3C147,32.3,149,36.8,148.2,40.8z"/>
				<path d="M118.5,165.5H66.2c-1.3,0-2.5,1.1-2.5,2.5c0,1.3,1.1,2.3,2.5,2.3h52.4c1.3,0,2.3-1.1,2.3-2.3
					C120.9,166.6,119.8,165.5,118.5,165.5z"/>
				<path d="M116.4,163.2v-30.4c1.4,0,2.5-1.1,2.5-2.3c0-1.4-1.1-2.5-2.5-2.5H68.3c-1.3,0-2.3,1.1-2.3,2.5c0,1.3,1.1,2.5,2.3,2.5
					v30.2H116.4L116.4,163.2z M74.4,136.4c0-0.9,0.7-1.6,1.6-1.6h32.4c0.9,0,1.6,0.7,1.6,1.6v19.4c0,0.9-0.7,1.6-1.6,1.6H76.1
					c-0.9,0-1.6-0.7-1.6-1.6V136.4L74.4,136.4z"/>
			</g>
		</g>
	</g>
</g>
</svg>
