<?xml version="1.0" encoding="utf-8"?>
<!-- Generator: Adobe Illustrator 23.0.3, SVG Export Plug-In . SVG Version: 6.00 Build 0)  -->
<svg version="1.1" id="Layer_1" xmlns="http://www.w3.org/2000/svg" xmlns:xlink="http://www.w3.org/1999/xlink" x="0px" y="0px"
	 viewBox="0 0 184.3 184.3" style="enable-background:new 0 0 184.3 184.3;" xml:space="preserve">
<style type="text/css">
	.st0{fill:#FFFFFF;}
</style>
<g id="Layer_x0020_1">
	<g id="_2058149439216">
		<path class="st0" d="M13.6,128.9c0,4.7,5.9,13.9,8.3,17.1c4.7-0.2,26.1-13.1,28.6-16c4-4.7,1.1-7,4-11.2l75.2-43.9
			c8.3-3.1,6.5,6.7,21.8-2.7c6.7-4,13.1-7.4,19.1-11.2c0.2-4.9-5.9-13.1-7.9-17.3c-4.5,0.2-6.8,2.3-10.4,4.5
			c-3.4,2.2-6.5,3.8-9.5,5.6c-16.9,9.9-7,9.4-13,17.3c-1.4,1.8-33.8,20-38.2,22.5l-38.3,22C42.2,118.3,55.6,103.2,13.6,128.9z"/>
		<path class="st0" d="M90.3,175.4c-8.6-17.1-12.4-26.3-17.1-45.2l-2.9-15.8c0-0.2-0.2-0.5-0.2-0.7c-0.2-0.2-0.2-0.5-0.4-0.7
			c0-0.2-0.2-0.5-0.4-0.5c-2.7,1.3-2.3,0.7-4.3,2.9c2.5,23,13.9,54.5,25.6,68.6c6.8-7.2,16.7-30.4,20.2-42.5
			c5.6-19.6,7.2-35.3,6.8-56.5c-5.9,2-5.2,2-5.2,8.6c0,13.1-2.2,27.4-5,39.8C104.9,142.6,95.5,170.9,90.3,175.4z"/>
		<path class="st0" d="M63.5,91.3L64,107l5.2-2.5c-2-36.2,4.9-73.1,21.1-99.9c4.3,4.1,12.2,25.7,14.4,33.3c3.6,12.6,6.8,27.5,7,41.4
			c6.5-2.3,6.5-0.7,2.7-20.7c-1.4-7.7-3.2-14.8-5.6-21.8c-3.1-9-13-32-18.5-36.2C74.6,21.5,63.5,57.8,63.5,91.3z"/>
		<path class="st0" d="M75.2,108.6c-2.2,2.2-2.3,5.2-1.3,10.1c0.9,3.6,2.3,4.9,5.4,6.3c5.8,2.9,12.8,3.2,19.1,1.3
			c11.3-3.4,8.8-11.9,9-25.4c0-5.6,0.7-8.1-1.6-10.6c-6.1,7.7,4,22.1-7,25.7c-4.5,1.4-10.6,1.6-15.5,0.2c-2.3-0.7-4.3-1.8-5.2-3.2
			C75.7,109.5,78.6,109.1,75.2,108.6z"/>
		<path class="st0" d="M75.2,101c2.3-1.6,2.2,1.6,2-9.7c-0.2-9.5-0.7-23,7.2-28.8c9-6.7,17.8,1.6,19.6,15.8c0.5,4.3,0.5,4,1.8,5.2
			c6.3-7-4.9-33.5-21.6-25C72.8,64.3,73.4,83,73.6,95.1C73.7,101.6,74.6,100.5,75.2,101z"/>
		<path class="st0" d="M90.3,26c2.5-1.4,2.2-0.5,2.2-4.9c0-3.4,0.2-3.6-1.3-5.4c-2.9,1.3-2.2,0.4-2.3,4.5
			C88.5,26.7,89.8,25.4,90.3,26z"/>
	</g>
</g>
</svg>
