<?xml version="1.0" encoding="utf-8"?>
<!-- Generator: Adobe Illustrator 23.0.3, SVG Export Plug-In . SVG Version: 6.00 Build 0)  -->
<svg version="1.1" id="Layer_1" xmlns="http://www.w3.org/2000/svg" xmlns:xlink="http://www.w3.org/1999/xlink" x="0px" y="0px"
	 viewBox="0 0 184.3 184.3" style="enable-background:new 0 0 184.3 184.3;" xml:space="preserve">
<style type="text/css">
	.st0{fill:#FFFFFF;}
</style>
<g id="Layer_x0020_1">
	<g id="_2058082292016">
		<path class="st0" d="M93.8,105.9L93.8,105.9c0.4,0.2,0.4-1.6,1.3-2.7v2.9c0.7,1.6,2.7,2.9,4,4.5c1.6,1.8,2.2,3.2,4.3,4.1
			c3.4,1.6,9.4,3.1,12.2,4.7l-37.1-13.9c4.3,0.4,7.4,1.8,11.3-0.5c-1.4-1.1-4.7-1.1-6.8-3.8c2.5,1.1,3.8,1.6,6.7,2.3
			c0.7-0.7,1.4-3.1,2.3-4.1C90.2,102.7,90.4,104.1,93.8,105.9z M66.7,96.9c2,1.1,0.9,1.3,4,2.9C68.6,99.4,67,98.9,66.7,96.9z
			 M98,96.9l-2.5,1.8C96,98.2,96.5,97.5,98,96.9z M84.3,93.5c0.2-0.4,0.9-1.4,0.9-1.4c1.1-1.6,0.2-0.5,1.6-1.3L84.3,93.5z
			 M62.9,90.3c1.3,0.9,0-0.5,1.4,1.6c0.9,1.3,2.5,4,2.5,5.2c-1.1-1.3-4-4.7-4.7-5.8l0.9,0.4l0,0L62.9,90.3z M89,89
			c-0.7,0.9-1.1,0.9-2.2,1.8C87.5,89.7,87.5,89.7,89,89z M58.7,81.6l1.8,0.7c1.6,0.4,2.2-0.5,2.3,7.9l-1.4-6.5
			C59.8,82.7,59.6,83.6,58.7,81.6z M84.5,78c-0.4,0.4,0,0.2-0.7,0.7c-0.4,0.4,0.2,0-0.7,0.2L84.5,78z M62.2,91.2
			c-3.6-1.6-2.5-1.8-4.3-5l-0.9,3.6l-1.1-1.3c-3.1-5.2-4.3-2.9,0.7-12.2c-1.3,2-2.5,4.9-2.7,8.1c1.3,1.3,1.6,2.2,2.7,4l0.9-3.4
			c0.9,1.1,1.4,2.5,2.2,3.4C61.4,91,62,88.6,62.2,91.2z M56,61.5L56,61.5l-0.4,0.4l-2.2,1.3C54.2,62.4,54.6,61.6,56,61.5z M56,61.5
			c0.7-0.9,0.5-0.5,2.2-0.9C57.8,60.7,58.2,61.1,56,61.5z M48.7,56.4c-0.7,1.4-2.5,2.7-3.2,4.3C45.6,58.6,47.2,57,48.7,56.4z
			 M28.1,85.4c0.7-2.5,0.7-3.4,0.2-6.1c-0.7-3.1-1.3-2.9-4.5-2.7l2.9-0.4c-0.4-4.9,1.3-9.2,3.1-12.8c2.9-5.4,4.1-5-0.5-9.7
			c2,0.2,4,3.2,4.5,5l0.5-0.5c1.3-1.3,0.2-0.9,0.5-0.4c-0.9,2.7-1.1,3.4,0.4,5.6c1.3,2.2,3.1,6.7,7.4,13c0.7-4,0.9-5.4,2.9-8.1
			c-1.1,2.9-3.2,7.2-1.6,10.6c0.5,1.3,1.8,2.5,2.5,4c0.7,1.3,1.6,2.9,2.5,4c8.8,13.5,5.6,6.7,13.3,12.4L27.6,85.8
			c-0.7-0.9-5-2.5-5.2,1.6c1.6,1.4,44.5,16.9,47.9,18.2c8.1,3.2,16.2,5.9,24.3,9.2c10.8,4.3,10.3,1.8,16,8.6
			c1.4,1.8,2.7,2.9,4.5,4.5c0.2-2.9,0.5-1.6,0.5-1.6l0.4,0.4l0.2,0.2c0.7-1.4,0-0.2,0.7-0.5l0.9-2.5l-6.3-3.1l5.4,1.8
			c0.4-0.4,0.9-0.9,1.4-1.3l-1.4-1.1c-0.4-0.2-0.5-0.2-0.9-0.4c-0.5-0.4-0.5-0.4-0.7-0.5l3.6,1.3l4.7,1.6c-0.5-2.3-2.3-6.1-3.6-8.3
			c-1.8-3.1-2.5-5.2-5.9-5.9c-3.4-0.9-2.5-0.9-5.9-5.8c-2.3-3.6-2-4.3-7.2-4.3c2.5-0.2,2.9-0.2,4.9,0.5c-2-4.3-6.3-2-8.6-1.3
			c3.8-1.6,3.4-2.2,7.7-0.5c-2.5-6.7-2.9-5.4-5.4-9.7c-2.3,0.9-3.2,0.7-6.1,0.9c-3.1,0.2-3.2,0.9-5.2,1.4c0.2-0.2,0.2-0.4,0.7-0.7
			c2.9-2.2,6.8-0.4,9.4-2c-0.4-2.2-7.2-9.4-10.8-6.7c-1.6,1.3-2,4.3-2.9,6.7c-0.9,2.9-2,4-3.6,5.6l2.5-5c0.2-0.5,0.2-0.4,0-0.9
			c0,0,0-0.2-0.2-0.2l-0.5-0.7c2.2-0.7,2-1.6,2.5-4.5c0.4-2,0.9-3.8,1.4-5.8c-1.3,1.3-2,2.5-3.4,3.2l0.9-1.1
			C91,68.8,86.8,59.5,78,57c-5.2-1.4-11.7,0.4-14.2,3.1c-2.3,2.5-5,9-3.4,13.7h-0.2c-0.5,1.8,0.4-0.7-1.4,0.5
			c-2.3,1.4-1.4,5.6-1.3,7.6c-1.3-1.6-1.6-6.3,1.6-9c0-9.7,2.2-8.3,2.2-12.2h-3.8l-0.2-0.2c0,0-0.2-0.2-0.2-0.4
			c-0.9-1.8-0.5-1.3-2-1.4c-1.1,0-2.3-0.4-3.4,0.4v-0.2v-0.5c0-0.9,0.2,0.2,0-1.3c-2.9-0.5-0.5-0.9-4.3-0.7l0.2-0.2l0.5-0.9
			c-3.2-4-5.6-4.3-11.2-1.8c2.9-1.6,3.6-1.4,7.4-2l-4.7-6.7c-3.8-3.2-8.6-10.4-14.2,1.8c-1.6,3.6-2.5,5.8-3.4,10.1
			c-0.7,3.2-1.3,7.9-2.2,10.8c-1.1,3.2-0.7,3.6-1.1,4.5c-0.9,2-1.8,2.3-2.5,4.3c-0.5,1.3-2.2,3.8-2.2,4.3c-0.5,2.2,1.1,3.4,2,5
			c0.7,1.4,1.6,2.5,3.2,2.7c0.7,0.2-0.2-0.5,1.3,0.9c0.9,1.1,0.9,1.1,2.7,1.1l-0.9-4.5c1.6-1.3,2.2-0.5,3.4-2.3
			C26.7,84.9,26,84.7,28.1,85.4z"/>
		<path class="st0" d="M119.4,129c1.3-2.9,2.3-1.1,2.5-4.5l2.2,1.1c-1.4,0.7-0.5,0.4-2.3,0.2c-0.4,0.5-0.5,1.1-1.1,1.8
			C120.5,128.2,119.9,128.4,119.4,129z M117.2,126.4c0,0.9,1.1,0.7,0,0.9l-0.9,0.2c-1.1,1.1-1.1,1.6-1.1,3.4l1.4,1.3l0.2,0.2
			c-4.7,3.6-1.6,5.9,2,2.5c1.3-1.1,2.5-2.2,2.5-3.4c-1.3-0.4-1.3-0.2-1.6-1.4l1.6,1.3c1.4-0.4,1.6-1.8,1.8-3.2
			c0.7,2.2-0.5,0.4,1.3,1.6c-0.5,1.6-3.4,6.8-0.7,7.9c2.7,1.3,0.9-2.5,4.1-6.7c3.2,0.7,3.2,5,5.9,5.9c1.3,0.4,2,0.4,2.9-0.5
			c-0.5-1.4-0.5-0.5-1.8-1.8c2,0.7,4.9,2.2,6.7,1.1c-0.2-2.2,1.3,0.2-4-2.5c-1.1-0.5-3.2-1.8-4.1-2.2l-0.9,0.9l-0.2-1.3l-0.7-1.4
			c-3.4-1.4-1.6-0.9-3.8,0.2v-1.8l-2.2-0.5l-1.3,1.1c0-1.6,0.2-1.1-0.5-2.2c1.4,0.2,7,2.2,7.7,3.1c3.1,0.2,4,2.2,4.7,0.2
			c0.5,1.6-0.4,1.4,1.6,1.4c2.2-2-0.5-2.5-2.3-3.2c-5.4-1.8-6.7-2.9-7.7-3.2l-2.5-1.1c-2-0.7-3.1-0.4-5.6-1.6l-1.6,0.2
			c-0.7,2,0.2,2.3-0.2,4.5L117.2,126.4z"/>
		<path class="st0" d="M167.6,138.1c-0.2-0.2-0.5,0.4-0.4-1.1c0.2-1.6,0.2-0.4,0.5-0.9L167.6,138.1z M165.7,134.5
			c-0.7,1.3-1.1,0.9-2.2-0.2C164.4,133.1,164.9,133.8,165.7,134.5z M159.2,134.5c0.5-0.5,0.9-1.1,1.8-1.3c1.8-0.5,1.6-0.2,2.2,0.7
			C162.6,134.2,160.4,134.4,159.2,134.5z M168.7,135.4c-1.6-0.4-0.7-0.9-1.6-1.8c-0.2-0.4-1.4-1.1-1.8-1.3
			C167.6,132.6,168.4,133.1,168.7,135.4z M159.9,143.5c6.7,1.8,2.3,1.1,8.1-0.2c1.1-1.4,3.2-4.1,2-7.7c-0.9-2.5-2.9-4.5-6.3-4.3
			C156.5,131.3,154.9,140.3,159.9,143.5z"/>
		<path class="st0" d="M89,89c-1.4,0.7-1.4,0.7-2.2,1.8C87.9,89.9,88.3,89.9,89,89z"/>
		<path class="st0" d="M84.5,78L83,78.7c0.9-0.2,0.4,0.2,0.7-0.2C84.5,78.2,84.1,78.4,84.5,78z"/>
	</g>
</g>
</svg>
