<?xml version="1.0" encoding="utf-8"?>
<!-- Generator: Adobe Illustrator 23.0.3, SVG Export Plug-In . SVG Version: 6.00 Build 0)  -->
<svg version="1.1" id="Layer_1" xmlns="http://www.w3.org/2000/svg" xmlns:xlink="http://www.w3.org/1999/xlink" x="0px" y="0px"
	 viewBox="0 0 184.3 184.3" style="enable-background:new 0 0 184.3 184.3;" xml:space="preserve">
<style type="text/css">
	.st0{fill:#FFFFFF;}
</style>
<g id="Layer_x0020_1">
	<g id="_2058082814800">
		<path class="st0" d="M73.7,50.3c-3.6,3.6-7.7,0.9-6.3-3.1C68.3,44.6,74.6,43.3,73.7,50.3z M75,58.8c3.2-2.5,6.1-3.8,6.7-9
			c0.5-5-2.3-8.8-5.2-10.4c-7.9-4.7-16.6,1.1-16.7,10.4L12.3,68.9l2.3,6.8c4.7-1.1,9.4-3.6,13.9-5.2c4.5-1.8,9-3.6,13.5-5.2
			l20.2-8.1c1.8-0.2,2.9,1.3,5.6,2.3C68,72.3,66.2,106.1,69,116c2,7,6.8,13.7,12.6,16.2c4.7,2.2,20.5,2.3,26.3,1.4V124
			c-5.8-1.1-20.5,0.7-24.3-0.5c-4-1.3-8.3-9.2-8.6-15.8C74.3,91.7,75.2,74.8,75,58.8z"/>
		<path class="st0" d="M104.3,98.2c1.1,1.3,3.6,4.3,4.7,5.2c1.8,1.6,4.1,2,7.2,2.9c6.1,1.6,13.3,5,12.2-3.6
			c-3.4-2.2-7.9-3.2-11.3-5.2c-4.9-2.9-10.6-16.2-16.4-17.5c-5-1.1-9,2-10.6,5.6c-2,4.7-5.6,22.3-4.3,27.7
			c2.2,9.9,18.4,4.1,26.6,6.1l0.9,16.7l9.7-0.7c0-31.7,2.9-24.7-21.2-28.3L104.3,98.2z"/>
		<path class="st0" d="M82.9,162.7h0.4c2.2-1.4,40-16.6,43.4-17.3c19.4-4.3,48.4,2.5,45-13.7c-2.9,1.1-4.3,3.2-8.1,4.3
			c-3.1,0.9-7.6,0.9-11,1.1l-68.2,4.7l-2.7,6.1c5.4,1.1,17.8-1.3,24.5-0.7c-4.3,1.4-9.7,4-14.2,5.6
			C85.4,155.1,82.7,154.2,82.9,162.7z"/>
		<path class="st0" d="M130.2,21.5h-0.7c-3.8,2.7-32.2,12.6-41,16.6l-2.7,1.6c0.9,2.2,1.8,4,2,6.8c3.8-1.1,43.2-16.6,45-18.2
			L130.2,21.5z"/>
		<path class="st0" d="M103.2,61c-12.1,3.6-6.3,20.7,5.2,17.5C119.8,75,114.9,57.4,103.2,61z"/>
		<path class="st0" d="M138,133c3.4,0.4,15.3-0.4,18.2-1.4c5.8-2.2,8.8-5.2,6.7-12.6c-2.5,1.1-3.2,3.2-5.2,5
			c-1.4,1.3-3.6,2.3-5.9,3.4C148.1,128.8,140.7,131.3,138,133z"/>
	</g>
</g>
</svg>
