<?xml version="1.0" encoding="utf-8"?>
<!-- Generator: Adobe Illustrator 23.0.3, SVG Export Plug-In . SVG Version: 6.00 Build 0)  -->
<svg version="1.1" id="Layer_1" xmlns="http://www.w3.org/2000/svg" xmlns:xlink="http://www.w3.org/1999/xlink" x="0px" y="0px"
	 viewBox="0 0 184.3 184.3" style="enable-background:new 0 0 184.3 184.3;" xml:space="preserve">
<g id="Layer_x0020_1">
	<path d="M45,143.7c0.7,0.2,1.1,0.7,1.4,0.9c-0.4-0.2-0.4-0.2-0.7-0.4c-0.2-0.2-0.2,0-0.4-0.2C45,143.9,45.2,143.9,45,143.7z
		 M79.8,125.2c0.7,0.4,1.1,0.7,1.8,0.5c-0.2-0.5-0.4-0.5-0.7-0.9c-0.9-0.9-1.8-1.8-3.1-2C77.8,123.9,79,124.6,79.8,125.2
		c-0.9-0.4-3.6-2.2-4.1-2.9c-0.4-0.4-0.7-0.9-0.9-1.3c-2.5-3.6-2-1.1-4.1-5.2c-3.8-6.8-4-15.5-0.4-22.7c0.9-1.4,1.6-2.9,2.9-4.3
		c0.4-0.5,0.5-0.9,1.1-1.3c2.2-1.8,1.6-2,5.2-4.3c2.3-1.4,4-1.8,6.7-2.7c3.4-0.9,6.7-1.1,10.1-0.5c5.8,0.9,4.7,3.1,7.7,3.2
		c-0.2-0.5-0.4-0.9-0.9-1.1c1.4,0.5,3.6,1.8,4.1,3.4c-0.5-0.5-1.8-1.8-3.1-1.8c0.4,2.7,3.6,3.4,3.8,3.8c0.5,1.3,0-0.2-0.4,1.1
		c-0.2,0.5,0,0.9,0.2,1.3c0.4,0.9,0.7,1.1,1.1,1.8c0.7,0.9,0.9,3.2,1.1,4.7c0.5,4.1,0,6.7-0.7,10.4c-0.5-0.4-1.1-0.9-2-0.4
		c-1.6,0.9-2.5,4.5,0,5c-0.7,1.6-0.9,0.9-1.8,2c-0.7,0.9-0.7,1.6-1.3,2.3c-3.6,4-2.2,1.8-4.1,2.3c-0.9,0.2-1.6,0.9-1.8,1.8
		c-0.4,0.9,0.2,0.7-0.5,1.3l-2.3,1.4c-0.7,0.2-0.9,0-1.4,0.2c-0.9,0.4-0.5,0.7-1.6,1.1c-0.2,0.2-0.4,0.2-0.5,0.2
		c-0.7-0.7,0-0.9-1.4-1.3c-0.9-0.2-1.3,0-1.8,0.5c-0.2,1.3,0.4,1.3,0.4,1.8l-1.4,0.4c1.1-1.4-1.3-2.5-1.8-3.1
		c-2.9,0.7,0,2.7,1.6,3.1l-2.5,0.7C82.6,127,80.7,125.9,79.8,125.2z M81.7,125c0.5,0.4,1.4,0.9,2.2,0.9c0-1.3-2.2-3.1-3.6-2.7
		C80.5,123.9,81,124.6,81.7,125z M74.2,118.3c-0.5,1.3,2.2,4.1,3.2,3.8C77.6,120.7,75.3,118.2,74.2,118.3z M100.8,84.3
		c-0.5,1.6,2.5,4.1,3.2,3.2C105,86.5,102.3,83.8,100.8,84.3z M77.4,119.4c0.2,1.8,4,4.3,3.6,1.8C80.8,119.2,77.1,116.9,77.4,119.4z
		 M83.9,122.3c1.8,0,1.8-0.7,1.4-2.3c-0.7-0.9-2.2-2.3-3.4-1.1C81.2,120.9,82.6,121.6,83.9,122.3z M103.7,88.5
		c-1.8,0.9,0.9,5,2.7,4.1S105.3,87.7,103.7,88.5z M87,118.9l-0.2,0.7c-0.4,2.5,2.9,3.8,3.8,1.8c0.5-1.1-0.2-2.2-0.9-2.5
		C88.8,118,87.7,118.5,87,118.9z M96,121c1.4-2.7-2.7-3.6-3.6-1.4C91.3,121.9,94.7,123.4,96,121z M99,88.5c-2.3,1.1-0.2,4.9,2.2,4.1
		C103.5,91.9,101.2,87.6,99,88.5z M105.9,93.9c-2.2,0.7-0.5,5.8,2,4.9c1.1-0.4,1.1-2,0.5-3.2C108,94.6,106.9,93.5,105.9,93.9z
		 M79.9,115.1c0.5,2.5,4.7,3.4,4.1,0c-0.2-1.1-1.3-2.2-2.2-2.3C80.5,112.6,79.8,113.7,79.9,115.1z M102.8,115.5
		c1.3-3.1-3.1-3.8-4.1-0.7C97.8,118,101.5,118.3,102.8,115.5z M106.8,100c-2.5,1.4-0.9,6.1,1.4,5.2
		C110.7,104.3,109.3,98.5,106.8,100z M86.4,116.7c1.3,0.4,2.5,1.4,3.8-0.4c1.1-1.6-0.2-2.7-0.9-3.4c-1.3-0.4-2.5-0.2-3.1,0.7
		C85.2,115.1,86.1,116,86.4,116.7z M96.9,115.6c1.1-3.2-4-3.8-4.7-1.1C91.5,117.8,96.1,118.2,96.9,115.6z M100.5,93.9
		c-2.9,0.9-1.1,5.8,1.8,4.9C104.8,98,103.2,93,100.5,93.9z M103.7,110.1c1.4-3.1-3.1-5.2-4.3-1.8
		C98.1,111.7,102.3,112.9,103.7,110.1z M100.8,100c-0.5,0.2-0.4,0-0.9,0.5c-0.2,0.2-0.4,0.5-0.5,0.7c-1.1,2.5,1.3,4.7,3.2,3.8
		C105.3,103.8,103.9,98.7,100.8,100z M85.9,107c-0.2,0.5-0.5,0.5-0.7,1.3c-0.2,0.5-0.2,1.1,0,1.6c0.4,1.1,0.9,1.3,1.8,1.8
		c1.4,0.2,2,0,2.7-0.9c0.5-0.5,0.7-1.6,0.5-2.5C89.7,106.1,87.9,106.3,85.9,107z M97.2,110.2c1.6-3.6-3.4-5-4.9-2.2
		C90.7,111.5,96,112.9,97.2,110.2z M94,100c-3.6,1.4-1.4,6.5,1.8,5C99.2,103.9,97.2,98.7,94,100z M83,134.9c1.3,0.2,2.5,0.5,4,0.7
		c1.4,0.2,2.9,0.4,4.3,0.4c3.2,0,5.4-0.7,8.3-1.1v-5.6c-3.1,0.7-4.7,1.4-8.3,1.3c-3.2-0.2-5.2-0.7-8.1-1.4L83,134.9z M86.6,150.7
		c0.2,0.4,0.2,1.3,0.2,1.8c0.4,0.4,0.4,1.8,0.2,2.3l0.2,0.2c0.2,0.5,0-0.4,0,0.4c0.2,0.5,0,0.4,0,0.9c0.2,0.5,0.2,0.7,0.2,1.4H96
		v-1.4c0-0.9-0.2-2.5,0.4-3.2c0-0.5-0.2-0.2,0-0.7c0-0.2,0-0.2,0-0.4c0.2-0.5,0.2-0.4,0.2-0.5c-0.4-0.9,0.7-13.5,0.9-15.5
		c-4.9,1.1-7.4,1.1-12.4,0C85.3,138,86.6,149.5,86.6,150.7z M49,141.7l0.5,0.4c-0.4-0.2-0.2,0-0.4-0.2C49,141.9,49,141.7,49,141.7
		L49,141.7z M135,139.2l-0.9,0.5C134.7,139.2,134.5,139.2,135,139.2z M43.9,146.1c-4.5-1.3-12.8-6.5-16.7-10.3
		c-0.7-0.7-0.9-0.7-2-1.8c-2-2-4.9-4.9-0.7-5c1.1,2,7,8.5,8.6,9.7c2.2,1.6,2.7,2.3,5.2,4C40.2,143.9,42,145,43.9,146.1z
		 M140.1,143.5c1.8-0.9,4.1-2.3,5.8-3.4c2.7-1.8,3.4-2.7,5.2-4.1l4.7-4.7c0.9-1.1,3.2-3.6,4-5c1.1,0,1.6,0.2,2.2,0.7
		c0.7,1.6-5.2,6.7-6.5,7.7C151.2,138,144.9,141.9,140.1,143.5z M45,143.7c-1.3-0.2-6.8-4.3-8.3-5.6c-0.5-0.4-0.9-0.7-1.3-1.1
		c-0.5-0.5-0.7-0.5-1.3-1.1c-1.8-1.4-5.2-5.4-6.5-7.2c-1.3-1.8-2.9-3.8,0.9-3.8c1.6,3.6,6.3,9.5,9.4,12.8
		C40,139.9,44.5,143.2,45,143.7z M49,141.7c-1.4-0.4-10.1-6.7-11.5-8.3c-0.9-1.1-1.4-1.4-2.5-2.5l-2.2-2.7c-0.9-1.3-4.7-5.8-0.2-5
		l3.4,5.4c1.3,1.8,2.9,3.6,3.8,4.9c0.4,0.5,0.7,0.5,1.1,1.3l6.8,6.3c0.2,0.2,0.4,0.2,0.5,0.4L49,141.7z M138.1,141.7
		c0.9-0.5,1.8-1.3,2.5-1.8l4.9-4.3c2.9-2.9,5.9-6.7,8.1-10.3c0.5-0.9,1.1-2,1.8-2.9c5-0.5-0.2,5-1.4,6.7l-5.4,5.4
		C145.6,137.1,141.5,140.1,138.1,141.7z M135,139.2L135,139.2c1.3-1.1,2.5-1.8,3.8-2.9l3.4-3.2c2.9-2.9,5.8-6.3,7.7-9.9
		c0.4-0.5,1.3-2.2,1.8-2.7c2,0,2.5,0.7,1.6,2.3c-0.9,1.4-3.1,4.3-4.3,5.6l-1.4,1.3c-1.6,1.8-1.8,1.8-4,3.6
		C142.2,134.5,136.6,138.7,135,139.2z M24.9,144.8c0.4,0.2,2.5,1.4,2.9,1.6c2.9,0.9,5,2.7,10.8,4.3c7.6,2.2,11.7,0.9,13.1,1.3
		c0,0,0.2-0.2,0.2,0l0.5-0.2c2.2-0.5,2.7-0.4,5.4-1.6c2.3-1.1,4.7-2.9,5.2-3.1c0.2-0.5,0.9-0.9,1.3-1.3c0.5-0.5,0.9-0.9,1.4-1.4
		c0.2-0.4,1.1-1.3,1.4-1.4c0.2-0.5,2.3-3.2,3.1-4l7.9-9.9c0.5-0.7,1.3-1.3,1.6-2.2c4.7,1.6,6.8,3.2,13.3,2.9c3.8-0.2,9.5-1.8,12.4-4
		l3.8,4.5c1.8,2.2,7.6,9.5,9.2,11.3c0.7,0.7,1.4,1.4,2.2,2.2c0.7,0.7,1.4,0.9,2,1.6c0.7,0.4,1.3,0.7,2,1.3l4.1,1.8
		c1.6,0.4,2.9,0.7,4.9,0.9c2.2,0.2,3.8,0,5.8-0.2c2.2,0,4.7-0.9,6.8-1.4l4.1-1.4c1.8-0.5,3.4-1.6,5.2-2.2c0.9-0.5,2-1.1,3.1-1.6
		c6.8-3.6,14.6-9.9,11.9-19.1c-1.3-4.3-4.5-8.1-8.3-10.1c-5.4-2.9-9.7-1.4-13.9,1.4l-6.1,5.6c-0.5,0.5-0.7,0.5-1.3,1.1l-6.3,7.6
		c-0.4,0.5-0.7,0.7-1.1,1.3c-2.5,2.9-5.8,5.8-9.9,6.1c-4,0.4-5.9-2.9-8.1-5.6c-0.7-0.9-1.3-1.6-2-2.5c-0.9-1.1-3.1-4.3-4.1-5
		c0.4-0.7,1.1-1.1,1.6-1.6c0.5-0.5,0.9-0.9,1.4-1.8c0.7-0.9,1.8-2.5,2.3-3.8c3.1-6.7,4-13.5,1.3-20.7c-0.9-2.2-1.8-4.3-3.2-6.1
		c-0.5-0.5-0.9-1.1-1.3-1.6c0.4-0.5,0.9-1.1,1.4-1.8L147.6,42c0.9-1.3,1.8-2.2,2.7-3.4c0.9-1.1,1.8-2.3,2.9-3.6
		c0.5-0.5,0.9-1.1,1.4-1.8c0.4-0.5,0.9-1.1,1.3-1.6c-1.1-0.9-2.3-2-3.6-2.7c-0.9,1.4-10.1,12.6-11,13.9L119,70.5
		c-1.4,1.8-10.1,13-11.2,13.9c-3.8-3.1-8.5-5.2-14.8-5.6c-9.4-0.5-13.7,3.8-16,4.5c-0.5-1.1-4.7-6.1-5.6-7.2
		C70,74.2,32.4,27.6,31.9,26.5c-0.7,0.2-3.1,2.2-3.6,2.7c1.6,2.5,3.8,4.9,5.8,7.2l8.6,10.8c0.5,0.7,0.9,1.1,1.4,1.8l4.3,5.2
		c7.7,9.4,14.9,19.1,22.7,28.4c0.5,0.5,0.9,1.3,1.4,1.8c0.5,0.5,1.1,1.3,1.3,1.8c-0.5,0.5-1.1,1.1-1.6,1.8
		c-4.3,4.9-6.1,11.7-5.8,18.2c0.4,5.9,2.9,10.4,6.1,14.6c0.5,0.5,1.3,1.1,1.8,1.6c0.7,0.9,0.7,1.1,1.8,1.6c-0.4,1.1-1.4,1.8-2,2.7
		c-0.7,0.9-1.3,1.6-2,2.5c-2.2,2.5-4,5-6.1,7.4c-2.5,2.9-6.7,2.2-9.7,0.5c-2.7-1.6-4-3.2-6.1-5.2c-0.9-0.9-2.2-2.5-3.1-3.8
		c-1.1-1.3-2.2-2.3-3.2-3.6c-0.4-0.5-0.5-0.7-0.9-1.3l-4.7-4.3c-1.6-1.3-3.1-2.5-5.4-3.6c-5.4-2.3-9.2-0.7-13.5,2.3
		c-0.9,0.7-1.6,1.4-2.3,2.3c-0.7,0.9-1.3,1.6-1.8,2.5c-2.7,4.5-2.5,9.7,0.2,13.9C17.7,140.3,21.1,142.5,24.9,144.8z"/>
</g>
</svg>
