<?xml version="1.0" encoding="utf-8"?>
<!-- Generator: Adobe Illustrator 23.0.3, SVG Export Plug-In . SVG Version: 6.00 Build 0)  -->
<svg version="1.1" id="Layer_1" xmlns="http://www.w3.org/2000/svg" xmlns:xlink="http://www.w3.org/1999/xlink" x="0px" y="0px"
	 viewBox="0 0 184.3 184.3" style="enable-background:new 0 0 184.3 184.3;" xml:space="preserve">
<style type="text/css">
	.st0{fill:#1D1D1D;}
	.st1{fill:#212121;}
</style>
<g id="Layer_x0020_1">
	<g id="_2057949844064">
		<path class="st0" d="M68.1,70.6c3.8,1.1,16.4-1.1,21.1-3.1c6.8-2.9,5.2-11.9,11-15.8l0.2,28.3c-39.6,2.5-31.1-21.1-50.8-27
			c-4.3-1.3-19.6-4.5-23.4-1.4c1.1,5.8,0.2,3.8,7.2,4.5c-2.7,7.4-7.2,14.8-11.2,22c-5,9.2-0.9,16.7,10.6,15.8l11.5-9.7
			c0,31.1,2.2,20,6.7,32.8c-2.2,2.5-4.5,4.9-7,7.4c-1.6,1.8-5.9,5.2-7.4,7.4c-3.1,4.5-5.8,21.1-2.5,25.6c7.9-1.1,3.8-15.1,7.4-22.1
			c1.6-3.1,11.7-13,15.1-14.6c8.5,10.8,11.7,12.4,11.7,31.9c0,6.3-0.9,12.2,2.7,15.1c4.1-1.3,3.2,4,3.2-13.9
			c0-21.1-2.9-25.7-14.2-37.1c-5.6-5.6-8.1-4.9-9.5-16c-0.9-7.6,1.6-17.5-2.9-23.4c-9.4-1.4-11.5,7.7-17.3,10.8l-4.5-2.5
			c0.4-2.5,12.2-25.2,14.4-28.1c25-0.2,12.6,28.1,54,27.9c-2,5.2-12.4,9.7-13.7,15.3c-0.5,2.2,0.2,8.5,0.5,11.2
			c-6.1,3.8-7.7-1.3-8.3,5.9c4.3,3.6,3.2,0.7,8.3,1.3c1.6,7.2-1.4,16.4,5,18.4c3.8-4,1.4-13.5,1.4-19.3c14.6-3.4,13.3-1.4,22.7,3.4
			c-0.4,7-0.2,20.3-2.5,25.7c-2.2,5.2-11,14.4-7,20c5.2-0.4,5.6-3.8,11.5-15.7c3.4-6.8,3.4-17.1,3.4-25.4
			c18.4,8.1,13.7,18.5,16.4,35.3c1.1,7.2-1.1,3.6,3.2,6.1c5.6-3.2,2.3-9,0.9-23c-1.6-14.4-3.4-16.4-25.9-30.1
			c-8.5-5.2-12.4-3.8-23.4-2.5l-0.5-11.9c16.6-7.4,5.8-15.3,37.8-16.6c23.8-0.9,10.4,22,9.4,26.6c-1.1,4.9-1.6,2,0.7,4.9
			c5.6,3.4,5-7.6,8.3-11.9c2.9,4.7,3.4,9.7,6.7,14c2.7,3.8,9.9,8.5,14.9,2.2c0.2-5.2-4.3-2.7-9.5-3.8c-2.5-7.6-9.2-21.8-13.3-29.7
			c-6.8-12.8-16.2-8.1-34.7-6.1L106.1,47c-12.2-5.6-12.1,2.9-16.9,11.2C83.6,68.1,70.7,59.4,68.1,70.6z"/>
		<path class="st1" d="M97.3,36c-11.2,1.8-13.1-10.4-5.4-13C99.8,20.4,105.9,29.4,97.3,36z M89.7,17.7c-16.6,6.8-6.3,30.8,10.4,23.8
			C113.9,35.9,106.5,10.8,89.7,17.7z"/>
	</g>
</g>
</svg>
