<?xml version="1.0" encoding="utf-8"?>
<!-- Generator: Adobe Illustrator 23.0.3, SVG Export Plug-In . SVG Version: 6.00 Build 0)  -->
<svg version="1.1" id="Layer_1" xmlns="http://www.w3.org/2000/svg" xmlns:xlink="http://www.w3.org/1999/xlink" x="0px" y="0px"
	 viewBox="0 0 184.3 184.3" style="enable-background:new 0 0 184.3 184.3;" xml:space="preserve">
<style type="text/css">
	.st0{fill:#FFFFFF;}
</style>
<g id="Layer_x0020_1">
	<g>
		<path class="st0" d="M53.7,114c8.1-2.7,25-13.9,34.2-17.5v43.7l-17.5-0.2C67.4,135.2,54.8,117.2,53.7,114z M78.8,166
			c0.7-0.7,0.9,1.3,0.7-2h-0.2L78.8,166z M78.6,163.7l-0.9-0.4c-4.1-1.4-5-4.9-10.6-4.1c-4.9,0.7-5.6,5.6-11.2,4.3
			c-3.6-0.9-4.9-5.2-11.2-4.1c-2.3,0.4-3.1,1.6-4.7,2.7c-3.1,2.2-4,0.4-4.7,3.2c1.4,0.9,2.3,0.9,4.9-0.9c2.9-2,5.4-5.4,10.6-0.9
			c8.1,6.7,12.6-1.6,16.6-2c4.7-0.4,4.7,3.4,11,4.5l0.7-2.5L78.6,163.7z M48.7,147.1c-3.6-0.9-1.4-0.5-2,1.3l0.4,0.2
			c-0.2,0.2-0.2,0.5-0.4,0.5l2.2-0.4l1.1,1.1c9.9,9,13-0.4,17.8-0.7c5.6-0.5,6.7,6.1,13.9,4.1c4.9-1.3,5.9-7.2,13-2.3
			c0.9,0.5,1.8,1.3,2.9,1.8c2.9,1.3,3.4,0.4,3.6,0.2c-0.7-4,0.2,0.5-5.2-4c-2.2-1.8-3.8-2.5-7.2-2c-4.7,0.7-7.7,7.2-13.5,3.1
			c-3.6-2.5-6.8-5.6-13.1-0.5C55.4,154.3,54.5,148.5,48.7,147.1z M94.4,36.9L89,36.6v-8.1l14.6,0.2l0.2-0.2c-0.9-2.2-1.8-3.1-3.1-5
			c1.1-2,2.7-3.1,3.2-5.2h-16l-0.2,18.4l-4.3,0.4l-2.2,19.3h-6.7c-2.9,6.1-8.5,28.4-11.3,38c-1.3,4-0.5,4-4,5.6
			c-3.1,1.6-11.2,5-13.1,7.2c1.8,3.4,4,5.9,6.1,9.5c1.6,2.7,4.7,6.8,5.9,9.4c-1.1,0.7-2.2,1.4-4.1,1.4c-2.2-0.2-2.5,0.2-3.4-1.6
			c-2.5-0.7-2.9-2.9-7.4-2.9c-6.3-0.2-8.5,7.9-14.9,3.1c-2.2-1.6-4.1-3.8-7-2.5c0.7,3.1-0.5,0.7,2.9,2.5c2.9,1.6,7.2,5.9,12.8,2.2
			c2.3-1.6,3.8-4.1,8.1-2.9c1.8,0.5,4.1,2.9,6.7,4.1c3.6,0.2,5.2-0.5,8.1-1.6c1.1,2.7,3.1,4.7,4.3,7.6l-2.9,1.3
			c-1.3,2.2-4.5,2.3-6.7,1.4c-1.6-0.5-7.2-7.2-13.9-2.2c-6.3,4.9-4.9,0.7-5.4,4.3c4.7,2.5,8.5-7.7,14.9-2.5
			c8.6,6.8,9.5,1.6,15.3-0.7l3.4,5.6l39.8-0.2c0.9-3.4,3.8-7.2,8.5-5.9c3.6,0.9,4.5,5,10.4,4.1c5.2-0.7,5-5.2,10.6-4.3
			c3.4,0.5,6.3,5.6,9.9,3.8c-0.5-3.2,0.5-0.9-2.2-2.2c-4.3-2-5.6-5.2-11.3-3.6c-1.4,0.4-10.1,8.3-13.5,1.3c-2.2-0.9-4.3-1.8-7.6-1.4
			c0.9-2.3,2.2-2.7,2.9-5c2.3,0.2,4.1,0.4,6.3-0.5c2.9-1.3,0.9-1.8,4.1-2.3c0.5-1.8,1.4-1.3,3.4-1.3c4.9,0.7,8.5,8.5,16,2.3
			c7.7-6.5,9.7,1.4,13.7,1.8c3.6,0.4,1.6,0,2.3-0.7c-0.9-2.5,0-0.5-3.1-2.2c-1.6-0.9-2.2-1.6-3.4-2.5c-9.2-5.8-11.3,8.1-20.2,1.3
			c-1.8-1.4-1.8-1.3-3.6-2.3h-0.7c-8.6-0.4-6.3,4.1-13.1,4.3l13.1-20.2c-0.5-0.4-0.5-0.5-1.3-0.9c-0.4-0.4-1.1-0.7-1.6-1.1l-10.1-5
			c-3.8-2-3.1-1.3-4.3-5.4l-11.3-38.3H96L94.4,36.9z M89.4,19.3L89.2,27h12.6c-1.3-1.8-1.4-1.4-2.5-3.8c1.1-3.1,0.9-1.6,2.5-3.8
			L89.4,19.3z M92.4,70.1c0.4,7.6-5.8,5.9-6.8,3.2C84,68.8,88.1,66.8,92.4,70.1z M92.3,75.8c3.2-5.4-0.5-10.6-5.4-7.9
			C83.1,69.7,83.1,78.2,92.3,75.8z M109.2,152.9c3.6,2.2,6.7-4,11-4c4.3,0,7.4,6.3,10.8,4c-0.4-2.2,0.5-1.1-1.6-2
			c-5.9-2.9-8.6-7.2-15.5-1.6C111.3,151.2,109.5,150,109.2,152.9z M87.8,65.7c7.9-2.2,10.6,9.7,4,12.1c-4,1.4-7.6-0.9-8.6-3.8
			C81.6,69.7,83.6,66.8,87.8,65.7z M86.7,63.6c-4.3,1.4-7.9,5-5.9,11.2c3.2,10.1,20.3,6.1,16.6-5.8C96.2,65.4,91.5,62,86.7,63.6z
			 M78.6,163.7c-1.8,0.5-0.5,0.2-0.9-0.4L78.6,163.7z M48.7,147.1c-1.1,0.4-1.3,1.3-1.4,1.1c0-0.2-0.2,0-0.2,0.2L48.7,147.1z
			 M94.2,165.3c4.9,2.5,6.8-6.7,13.7-3.1c4.3,2.2,6.8,6.7,13.7,1.6c7.7-5.8,8.6,0.2,13.1,1.8c5.6,1.8,8.6-2,10.8-3.2
			c3.1-1.6,2,0.5,3.2-2.2c-4.3-3.6-7,6.3-14,2.9c-3.8-1.8-6.8-7-13.5-1.6c-7.4,5.9-8.6-0.4-13.3-1.8c-5.9-1.8-7.9,1.8-10.8,3.2
			C94.1,164.4,95,162.4,94.2,165.3z M107.6,140.3l-17.5-0.2V96.5l34.2,17.6C123.4,116.7,110.4,134.9,107.6,140.3z M90.3,87.7
			c7.4,3.8,33.7,16.9,38.5,20l-2.5,4.7c-11.5-4.7-25-12.8-36-18.5V87.7z M49.4,107.7c7-4.5,28.8-14.9,38.3-20.2l0.2,6.7
			c-7.4,2.5-25.6,13.7-35.3,18L49.4,107.7z M76.1,58.4l25.7,0.2l11.3,38.2c-3.2-1.4-23.4-12.1-24.3-11.9
			C87.2,85,68.7,95.3,65.1,96.9L76.1,58.4z M84.5,47.9l9,0.2l0.9,8.1L83.6,56L84.5,47.9z M90.6,45.8c-5.6,0.9-4.9-1.1-4.9-1.6
			c0.2-0.2,5.4-1.6,6.7,0.7C91.2,45.9,93.7,45.2,90.6,45.8z M92.8,40.9c-2,1.1-4.7,0.5-7.4,0.7c0.2-3.2-0.4-2.5,3.2-2.7
			C92.4,38.9,92.1,38.4,92.8,40.9z"/>
	</g>
</g>
</svg>
