<?xml version="1.0" encoding="utf-8"?>
<!-- Generator: Adobe Illustrator 23.0.3, SVG Export Plug-In . SVG Version: 6.00 Build 0)  -->
<svg version="1.1" id="Layer_1" xmlns="http://www.w3.org/2000/svg" xmlns:xlink="http://www.w3.org/1999/xlink" x="0px" y="0px"
	 viewBox="0 0 184.3 184.3" style="enable-background:new 0 0 184.3 184.3;" xml:space="preserve">
<style type="text/css">
	.st0{fill:#030303;}
</style>
<g id="Layer_x0020_1">
	<path class="st0" d="M58.6,122.1c-0.9-1.6,3.2-14.2,4.5-16.6c1.4-2.5,6.8-5.4,9.4-7.4c2.2-1.8,0.9-1.3,1.8-3.8
		c12.1-1.6,6.5,2.9,16.4,7.7c4.7,2.2,11.3-6.3,16.2-5.2c-0.5,2-0.2,1.4-2.3,2.5c-0.9,0.5-1.6,0.7-2.7,1.3c-17.1,8.6-8.5,0.7-16.9,2
		c-0.5,16.4-0.7,14.4,3.2,31.7c0.9,3.8,1.6,7.2,2.5,11c0.7,2.7,3.1,8.8,1.3,11c-1.8-0.7-0.5,0.7-1.4-1.8l-4.1-19.6
		c-0.9-3.8-1.8-7.4-2.5-11c-0.7-2.9-0.9-8.5-4.3-7.4c-1.3,0.9-0.4-1.1-1.3,1.6l-0.4,18.2c0,3.6,0,7.2-0.2,10.8
		c-0.2,7.4,0.7,8.3-1.8,8.8c-1.3-2.9,0-28.3,0-35.3c0-4.3-0.9-3.2-1.8-5.6c-1.3-3.8,0.9-9.7-0.9-13.3c-3.1-0.4-4.1,1.3-6.1,2.9
		C62.3,107.7,62.2,120.5,58.6,122.1z M36.8,101.4c-0.9-4.7,5.4-5.9,6.5-2.2C44.7,104.6,37.5,105.4,36.8,101.4z M37.3,112.2
		c4-0.2,3.2-0.2,6.3,1.4c-0.7,7.9-0.2,15.1,1.4,22.7c0.9,4,4.3,16.4,4.3,19.4l-3.4,0.2c-0.9-4.9-0.9-13.3-2.9-16.7
		c-7.2-0.4,0.4,11.5-1.8,16.7l-2.9-1.1c-0.4-1.1-0.2,0-0.4-1.6l0.2-8.5c0-4,0.2-7.9,0.2-11.9c0.2-5.9-1.4-4.7-1.4-10.1
		C36.8,120.7,36.2,113.3,37.3,112.2z M44,109.3l-2.5-1.1L44,107c6.3-3.2,4.5-13.7-3.4-14c-7.6-0.4-12.2,12.1-1.8,14.6
		c-0.2,0.2-0.4,0-0.5,0.2c-0.4,1.1-0.9,0-2.5,1.3c-3.6,1.1-1.1,2.3-4.5,4.9c-1.8,1.4-4,2.5-5.2,4.3c-1.8,2.7-4.7,11.2-4,14.4
		c2.7,0.5,2.9,0.5,4-2.2c0.5-1.6,1.1-3.4,1.6-5c1.6-5.2,0.4-5.8,5.4-7.6c0,8.3-0.4,6.7,1.3,12.6c0.7,2.5,0.2,10.6,0.2,13.9
		c-0.2,14.6-3.1,15.8,12.1,15.7c10.3-0.2,7.6-4.5,4.3-17.8c-3.4-14.8-2.9-9.4-2.9-24.1c2.9,0.9,2.9,1.3,6.8,1.3
		c-1.1,7.9,7.2,9.2,9.4,3.2c1.6-4.3,3.1-11.5,5.2-14.9c1.6,1.6,1.1,2.9,1.1,5.8c0,2.3,0,2.5,1.1,4.3c1.8,3.4,0.5,27.7,0.5,32.8
		c0,4.1-0.5,7.6,2.7,9c10.8,4.9,6.8-17.3,7.7-25.6c0.4,3.6,3.6,15.7,4.9,20.3c2.2,9.5,12.1,7,9.5-3.4c-1.6-6.8-3.2-13.7-4.7-20.5
		c-3.6-16-2.5-6.5-2.9-22.5c5.2,2.3,4,1.3,8.5-0.7c2.9-1.3,4.9-2,7.7-3.6c4.7-2.5,15.1-1.3,21.1-1.3c7.6,0,14.9,0,22.5,0
		c6.8,0,15.7,0.5,13.1-8.1c-1.1-3.6-1.1-0.7,0-4.1c0.9-2.9,0.7-44.8,0.5-50.2c-0.2-2.5-0.9-3.2-0.9-4.7c-0.2-2,0.9-1.8,0.9-4.3
		c0.2-7.7-9-6.1-15.7-6.1c-10.8,0-85.1-1.1-88.4,1.1c-2.3,1.4-3.2,4.5-2,7.7c1.6,4.1-0.7-0.7-0.7,8.6c0,7.6,0,14.9,0,22.5
		c0,29.2-3.1,30.2,14.8,29.9c-1.8,3.4-7.7,5-9.7,8.5c-1.3,2-4,10.8-4.5,13c-5.2-0.7-6.3-0.5-9.4-4.3C45.1,109.9,45.4,109.9,44,109.3
		z M77.3,73.9c7-2.9,9.9,7.2,4.3,9.7c-4.5,2-9.4-2.2-7.4-7.4C75.3,73.9,75.5,74.6,77.3,73.9z M76.6,69.7c-12.4,4-5.8,21.6,5.8,17.8
		C93.8,83.8,88.3,65.9,76.6,69.7z M129.3,71.7c6.5,0,5.2,6.3-1.6,5c-2.9-0.5-2.2-1.6-4.7-2.9l-5.8,2.9c-0.5-1.8-1.3-2.5-2-3.8
		l3.1-3.1c0.9,0.9,3.4,3.1,4.7,4C125.5,73.1,126.1,71.7,129.3,71.7z M113.6,69.4c-3.2,2.9-3.6,4.3-0.5,7.2c-0.9,0.9-2.5,1.3-2.7,3.1
		c-0.2,1.8,1.1,2.3,2.7,2.5c4.3,0.5,6.1-2.2,8.6-2.9c0.7-0.2,14.8,5.2,15.8-4.3c0.4-3.4-2.2-5.4-4.7-6.5c-4.9-1.8-7.4,0.5-9.4,0.5
		c-1.1-0.2-4.1-3.4-7-4.3c-2.3-0.7-5.9-0.5-4.7,2.9L113.6,69.4z M82.1,55.9c-0.4-5.2,6.3-6.3,10.3-4.1c3.6,2,1.8,3.6,9.4-3.2l2,2.5
		c1.3,1.3,1.3,1.1,2.5,1.8c-0.7,1.6-0.9,1.3-1.8,2.7c-0.9,1.3-0.9,1.8-1.4,2.9l-7.4-3.6C94.9,55.1,88.8,62,82.1,55.9z M95.1,48.7
		C78.9,41.3,71.5,58.7,85,61.8c4.9,1.1,7.9-0.4,11.2-2.3c5,1.6,8.1,5.9,14.8,3.2v-3.2l-3.6-1.3c1.1-1.8,3.2-2.9,2.9-5.8
		c-0.4-2.7-2.5-2.9-3.8-4.7c1.4-1.1,3.6-1.1,2.9-3.8C108.1,37.9,95.5,48.3,95.1,48.7z M59.1,40c0-4,0.7-3.6,4.3-3.6H150
		c4.3,0,7.7-1.3,7.7,3.6v45c0,6.7-2.2,5-8.3,4.9c-7.4,0-35.3-0.7-38.3,0.7l0.2,2.7c3.6,1.6,34.7-0.2,46.3,1.1l-0.2,3.2
		c-6.8,0.9-35.8,0.4-44.6,0.4c-2.9,0-1.6-0.9-2.9-3.4c-0.5-1.1-1.1-1.6-2.5-2c-6.7-2-13.7,10.1-19.8,2.3c-4.3-5.4-4.3-5-14.2-4.9
		c-11.9,0.2-14.6,1.3-14.6-4V40H59.1z M157.6,28.7c0.7,2.5,0.5,3.6-2.9,3.6c-14,0-87.5,0.9-95.2-0.5c-0.5-3.6,0.5-3.6,4.1-3.6
		C77.8,28.3,149.3,27.6,157.6,28.7z"/>
</g>
</svg>
