<?xml version="1.0" encoding="utf-8"?>
<!-- Generator: Adobe Illustrator 23.0.3, SVG Export Plug-In . SVG Version: 6.00 Build 0)  -->
<svg version="1.1" id="Layer_1" xmlns="http://www.w3.org/2000/svg" xmlns:xlink="http://www.w3.org/1999/xlink" x="0px" y="0px"
	 viewBox="0 0 184.3 184.3" style="enable-background:new 0 0 184.3 184.3;" xml:space="preserve">
<style type="text/css">
	.st0{fill:#FFFFFF;}
</style>
<g id="Layer_x0020_1">
	<g id="_2423550986496">
		<path class="st0" d="M112,168.1c1.6,0.5,3.2,1.4,5.2,0.9c1.4-0.5,2.9-1.6,2.9-3.4v-18.5c-2-1.6-3.8-2.7-4.3-6.5
			c-0.4-3.2,0-7.7,0-11.2s0-7,1.3-9.9c0.7-1.3,1.4-2.5,2.2-3.4l2.5-2l0.2-0.2l0.2-0.2l0.2-0.2c-2.5-5-2.2-11.7,1.1-13.9
			c-0.4-0.4-0.2-0.2-0.7-0.5c-1.8-1.1-3.4-1.4-4.9-4.1c-1.6-3.1-1.3-5.2-0.5-8.5c-3.2-0.5-15.1-0.4-17.8,0.7
			c-4.1,1.6-5.2,7-6.7,12.1c-1.4,5.2-4.1,17.5-4.9,23.2c-0.4,2.7,2.2,4.3,4.1,5.2c0.2-2.3,3.2-13.3,4-14.8c3.8-0.9,2.7,2.2,2.2,4.9
			c-1.1,4-5.4,21.6-4.1,23.8c0.7,1.1,2.3,0.9,4.3,1.1c0.2,6.1-0.5,15.8,0.2,21.6c0.7,5.9,8.5,8.6,11.3,0
			C110.2,166,111.3,167.2,112,168.1z"/>
		<path class="st0" d="M91.2,132.5c-9.7-6.8-7.2-9.7-4.3-24.3c1.6-7.4,4.3-21.8,9.9-23.9c-0.7-0.9-1.1-0.9-2.3-1.4
			c-1.1-0.4-1.8-0.5-2.9-0.7c-2-0.4-4.1-0.4-6.1-0.4c-6.5,0-17.1-0.9-20,4.5c4.5,3.8,4.7,11.5,0.7,17.5c0.2,0.2,0.2,0.2,0.5,0.5
			l1.3,0.7c1.6,0.9,3.2,2.5,4.1,4.7c2.5,4.9,1.8,15.3,1.6,21.6c0,4.1,0.5,7.4-2.3,9.9c-0.4,0.4-0.5,0.5-0.9,0.7l-0.9,0.7l-0.2,11.3
			c0,2.9-0.4,8.6,0,11.2s3.4,4.7,6.8,4c4-0.7,4.7-3.8,5.4-5.8c1.3,8.1,12.4,8.5,12.4-1.8l0.2-15.1C87.7,144.9,89.5,138.6,91.2,132.5
			z"/>
		<path class="st0" d="M70.5,116.5c-0.9-10.4-8.6-8.8-18.2-9.2c1.6,9.5-2.7,13.9-12.1,12.4c0.2,4,0.2,8.6,0,12.6c0,9,4.7,5.4,5,7.4
			c0,7.4,0,14.8,0,22c0,10.6,8.3,9,10.1,3.6c1.3,2.5,2.9,5,6.7,3.8c3.2-0.9,3.4-3.6,3.4-7.7c0-6.7-0.5-15.8,0.2-22
			c2-0.9,3.4-0.4,4.5-2.5C71,134.8,70.6,118.6,70.5,116.5z"/>
		<path class="st0" d="M124.8,165.3c0.4,1.8,0.5,2.2,1.8,2.9c2.2,1.3,4,2.5,6.7-2.5c0.5,0.5,1.8,4.5,5.6,3.2
			c2.7-0.9,2.9-3.2,2.9-6.7v-14c0-2.9-0.2-3.6,0.4-4.7c1.1-0.5,2.2-0.4,3.2-1.8c1.3-1.8,0.9-13.5,0.7-16c-0.5-8.6-4.7-9.2-13-9.2
			c-14.9,0-12.8,4.7-12.8,20.3c0,6.7,0.9,5,4.3,6.7L124.8,165.3z"/>
		<path class="st0" d="M79.5,54.9c-15.7,4.5-9.5,27,5.9,23.4c5.8-1.3,10.4-7.4,9-14.6C93,58.2,86.7,52.9,79.5,54.9z"/>
		<path class="st0" d="M107.7,61.6c-5.4,1.4-10.1,6.5-8.1,13.9c3.4,13.9,25.4,9.2,21.8-5.6C120.1,64.6,114.6,59.8,107.7,61.6z"/>
		<path class="st0" d="M53.2,86.1c-12.6,3.2-7.7,21.4,4.5,18.5c4.5-1.1,8.3-5.8,7-11.5C63.6,88.8,58.8,84.6,53.2,86.1z"/>
		<path class="st0" d="M131.1,98.8c-10.3,2.9-6.3,18,4.1,15.5c3.8-0.9,7.2-4.9,5.8-9.9C139.9,100.6,136.2,97.4,131.1,98.8z"/>
		<path class="st0" d="M123.2,84.6c-1.1,0.5-0.7,0.2-1.6,1.4c-5.9,8.8,6.8,15.1,10.3,6.7c0.9-2.2,0.2-2.9-1.1-4.3
			C129.5,87.1,125.5,83,123.2,84.6z"/>
		<path class="st0" d="M44.5,104.8c-1.8,0.5-6.1,4-6.7,5.4c-0.7,1.6,0.2,3.2,0.9,4.3c4,5.4,14.2,1.4,9.5-7.7
			C47.6,105.1,46.5,104.1,44.5,104.8z"/>
	</g>
	<polygon class="st0" points="8.5,89.7 92.1,14.6 175.8,89.7 168.6,97.6 92.1,29 15.7,97.6 	"/>
</g>
</svg>
