<?xml version="1.0" encoding="utf-8"?>
<!-- Generator: Adobe Illustrator 23.0.3, SVG Export Plug-In . SVG Version: 6.00 Build 0)  -->
<svg version="1.1" id="Layer_1" xmlns="http://www.w3.org/2000/svg" xmlns:xlink="http://www.w3.org/1999/xlink" x="0px" y="0px"
	 viewBox="0 0 184.3 184.3" style="enable-background:new 0 0 184.3 184.3;" xml:space="preserve">
<style type="text/css">
	.st0{fill:#FFFFFF;}
</style>
<g id="Layer_x0020_1">
	<g id="_2458310710752">
		<path class="st0" d="M164.4,147.3v-2.2c-3.4-3.4-4-1.3-7.7-3.8c-3.2-2.2-8.5-7.6-16.6-3.8c-3.1,1.4-4.1,3.2-6.5,4.3l-21.1-99.5
			c0-3.8,2.2-0.9,0.9-6.1c-4.5-3.4-12.6,2.2-16.2,4.5c-4.9,3.2-8.1,7-11.5,11.5c-9.2,12.6-9.5,19.4-13.7,30.6
			c-0.5,1.6-0.2,0.7-0.9,1.8c-2.3,1.3-15.5,4.9-18.5,4.3C47.8,75.6,48.5,65.5,41.1,65c-5.6-0.4-13.3-1.1-14.4,3.8L26.5,121
			c1.4,8.8,18.5,2.5,29.5,5.2c2.3,6.1-1.1,24.3,1.8,28.8c1.8,2.7,8.6,3.4,11.7,1.6c3.8-2.2,2.9-7.2,2.9-11.7
			c-0.2-7.2,0.5-23.9-0.5-30.1c-1.3-7.2-13.7-5-25.2-5c0-5.9-1.3-4.7,3.1-5.4l18.4-6.1c5.6-1.8,8.3-1.6,9-7.7
			c2.2-17.8,14-42.5,31.7-48.8c1.8,5,21.2,98.1,21.2,101c-7.4-0.7-7.2-7.7-17.6-6.5c-7.6,0.9-9.7,9.4-16.9,5.6
			c-2.9-1.4-3.8-3.8-7.9-5c-3.4-1.1-9.2-0.5-7.2,4c0.9,2.2,5.2,2,8.1,4.1c15.3,11.3,17.8-2,25.6-2.2c6.1-0.2,7.2,7.4,17.1,6.5
			c8.1-0.7,10.3-8.8,17.3-5.8C151.8,144.9,159,153.6,164.4,147.3z"/>
		<path class="st0" d="M19.9,40.9v4.3c1.6,3.6,3.4,15.1,17.3,14.6c21.1-0.7,21.2-31.7,0.7-33.3C24.6,25.6,22,36.4,19.9,40.9z"/>
		<path class="st0" d="M26.5,152.1c0.5,4.9,4.7,4.7,9.5,4.7c3.2,0,10.6,0.4,13.3-0.2c4.7-0.9,4-4.7,4-9.5
			c-0.2-16.4,2.2-18.2-9.7-18.2c-3.1,0-11-0.4-13.5,0.2c-4.1,0.9-3.8,5-3.8,9.5C26.5,142.6,26.2,148.5,26.5,152.1z"/>
	</g>
</g>
</svg>
