<?xml version="1.0" encoding="utf-8"?>
<!-- Generator: Adobe Illustrator 23.0.3, SVG Export Plug-In . SVG Version: 6.00 Build 0)  -->
<svg version="1.1" id="Layer_1" xmlns="http://www.w3.org/2000/svg" xmlns:xlink="http://www.w3.org/1999/xlink" x="0px" y="0px"
	 viewBox="0 0 184.3 184.3" style="enable-background:new 0 0 184.3 184.3;" xml:space="preserve">
<g id="Layer_x0020_1">
	<path d="M131.3,119.1h16.6c0.9,2.5,2.3,5.6,2.9,8.1l-22.1,0.2L131.3,119.1z M63.2,37.4c-16.9,3.2-12.4,27.2,4,24.8
		c6.3-0.9,11.5-6.8,10.4-14.6C76.6,41.5,70.3,36.1,63.2,37.4z M117.8,37.4c-16.6,2.7-13,27.7,4.1,24.8
		C137.4,59.5,134,34.7,117.8,37.4z M36.6,119.1h17.5l3.1,8.1l-23.4,0.2C34.3,124.7,35.7,121.6,36.6,119.1z M62.5,111l5.2,0.2
		l-5.2,13.3l-2.2-4.9C62.2,118,66.8,117.1,62.5,111z M59.8,82.4l-3.2-7.9c1.6,1.4,2,2,3.1,3.6c1.1,1.4,1.8,2.5,2.7,3.6L59.8,82.4z
		 M17.3,71.9v2.7c1.4,2.7,7.6,40,8.6,42.3c1.4,2.7,2.2,1.1,4.3,2.9c-2.7,5.2-6.1,15.5-8.3,21.4c-2.2,5.9,2.9,8.1,5,2.9
		c1.4-3.2,3.2-8.1,4.1-11.2h27.7c-7,13.7,5,16.9,8.8,11.2c1.8-2.7,10.8-27,13.3-33.3c1.6-4,3.2-8.5-0.5-11.3
		c-5-3.6-22.3,0.4-29.7-1.6c-2.5-3.1-3.4-12.8-3.4-17.8c5.4,9.7,2.3,16.7,17.1,11.5c0.9,0.9,0.4,0.2,1.1,1.6
		c0.2,0.5,0.5,1.1,0.7,1.8l51.8,0.4l1.4-3.6c0-0.2,0.2-0.4,0.2-0.5c16.9,0.2,13.3,0.5,17.6-14.2c4.3,27.7-12.6,13.5-14.6,18.9
		l-0.5,2.3c-18.2-0.2-19.8-2.5-22,9.9c-1.6,9.4-3.1,18.5-4.9,27.7c-0.9,5-0.9,9.7,4.3,10.6c5.6,1.1,7-3.2,7.7-7.7
		c1.6-9.2,3.6-18.7,4.7-27.7l9.4-0.2c-5,7,2,7.9,3.1,8.6c-2.7,7-5.4,14.2-8.3,21.6c-2.3,5.9,3.1,7.6,5,3.1c1.6-3.6,2.9-7.7,4.1-11.2
		h27.4c6.3,21.2,11,13.5,9.4,8.6c-1.8-5.4-6.1-17.3-8.6-22c2.2-1.6,2.9-0.2,4.3-2.9l3.8-18.2c0.7-4,3.8-22,4.9-24.1v-2.3
		c-1.3-1.8-1.4-3.2-4.7-3.1c-2.5,0.2-3.2,1.3-4,3.4l-7.4,38l-8.8-0.2c7.7-4.7,6.8-6.3,5.2-17.8c-3.4-24.7-0.9-30.6-18.4-28.1
		c-8.1,1.3-10.6,4.3-9.4,13.1l5.4,0.2l0.5,3.4c-7.7,0.4-23.2-2.9-17.8,8.8l-4.5-0.4c-1.1-4.3-0.2-7.4,2.5-9.7c2-1.6,1.8-1.1,3.4-3.4
		c2.7-4.3-0.5-6.8-2.9-3.6c-1.3,1.4-1.8,3.1-2.3,4.7c-4.5-0.5-8.5-0.9-9,3.8c-0.5,4.3,1.1,2.9,2.7,6.7c0.2,0.5,0.2,0.9,0.5,2h-16
		c-0.2-3.1-1.1-2-0.2-4c0.7-1.6,1.6-1.6,1.3-4.7c-0.5-4.1-4-3.8-7.9-4.3c-1.1-2.2-2-4.9-4.1-4.3c-3.4,0.7-0.9,4,0.2,6.3l-7.6,2.3
		c0.9-9,2-14.8-7.7-16.4c-18.9-2.9-16,2.3-19.4,27.9c-1.6,11.2-2.9,13,5.2,17.8h-8.8c-1.3-8.3-3.2-16.7-4.9-25.2
		c-0.7-3.8-1.4-9.4-2.5-12.8C24.7,68.7,20.8,67.4,17.3,71.9z"/>
</g>
</svg>
