<?xml version="1.0" encoding="utf-8"?>
<!-- Generator: Adobe Illustrator 23.0.3, SVG Export Plug-In . SVG Version: 6.00 Build 0)  -->
<svg version="1.1" id="Layer_1" xmlns="http://www.w3.org/2000/svg" xmlns:xlink="http://www.w3.org/1999/xlink" x="0px" y="0px"
	 viewBox="0 0 184.3 184.3" style="enable-background:new 0 0 184.3 184.3;" xml:space="preserve">
<style type="text/css">
	.st0{fill:#010101;}
</style>
<g id="Layer_x0020_1">
	<g id="_2058159812688">
		<path class="st0" d="M75.4,93h35.8v25.6c0,2.2-5.6,2-7,2c-7.4,0-11.7-13.3-23.9-13.3h-4.9V93z M75.4,68h35.8v14.9H75.4V68z
			 M87.3,45.8c0,2.3,4.5,1.6,7.9,1.6c2.3,0,2.7-7,7.6-7h2c3.4,0,6.3,3.2,6.3,6.7v11H75.4c0-8.6,0.7-13.7-4.3-20
			c-2.9-3.6-7.6-5.9-13.3-5.9c-7.6,0-13.9,5.6-15.8,12.1c-1.8,5.8,0.7,5.2,5.9,5.2c3.8,0,3.1-2.2,4.5-4.1c2.9-4.3,9-4,11.5-0.5
			c1.3,1.8,1.6,3.2,1.6,6.3V111c0,0.5-6.8,9.4-13,9.4c-10.1,0-9-6.5-18.4-11.2c-1.6-0.9-9.5-4.5-9.5,0.2c0,10.4,0.2,5.6,5.9,9.2
			c2,1.3,3.6,3.4,5.2,4.9c0.5,0.5,0.7,0.5,1.3,1.1c5.6,4.5,7.6,5.8,15.5,5.8c6.1,0,9.9-2.9,13.3-5.6c5.6-4.7,4.9-7.7,13.9-7.7
			c4.5,0,8.6,5.2,11.2,7.7c1.3,1.3,3.8,3.1,5.6,3.8c7.4,3.6,17.5,2,23.6-4.1c2-2.2,4.9-5,7.6-6.3c2.2-1.1,3.1-0.9,5.6-0.9
			c5.9,0,9,6.1,13.9,9.4c2.5,1.8,12.4,6.8,12.4,1.6c0-4.9,0.7-6.7-2.2-7.7c-1.8-0.5-2.2-0.5-3.8-1.6c-2-1.3-3.8-3.8-6.7-5.9
			c-5.6-4.5-7.6-5.6-15.8-5.6c-5.2,0-8.6,2.7-9.9,2.9V45.5c-0.7-5.9-4.9-11.5-10.1-13.7C98.8,26.6,87.3,36.8,87.3,45.8z"/>
		<path class="st0" d="M24.6,133c0,11,0.5,5.4,5.9,9.2c4.9,3.4,9.7,11.7,19.4,11.7c5.4,0,8.8-0.2,13.7-3.6c7.4-5.4,6.5-9.7,16.2-9.7
			c7.6,0,11.5,13.3,23.9,13.3c6.8,0,11.3-0.9,16.4-5.9l4.9-4.5c2.9-2.7,4.5-2.9,8.3-2.9c8.1,0,12.1,13.3,24.1,13.3c2.7,0,2-4,2-7.4
			c0-3.1-2.9-2.2-5.9-4.3c-3.6-2.2-9.7-11.7-19.4-11.7c-7.7,0-10.1,0.9-16,5.6c-5.8,4.7-4.9,7.7-13.9,7.7c-8.6,0-9.2-13.3-26.5-13.3
			c-13.5,0-16.9,13.3-24.5,13.3c-9.2,0-8.1-3.1-13.7-7.4c-3.4-2.5-7.2-5.9-13-5.9C25.3,130.6,24.6,131.7,24.6,133z"/>
	</g>
</g>
</svg>
