<?xml version="1.0" encoding="utf-8"?>
<!-- Generator: Adobe Illustrator 23.0.3, SVG Export Plug-In . SVG Version: 6.00 Build 0)  -->
<svg version="1.1" id="Layer_1" xmlns="http://www.w3.org/2000/svg" xmlns:xlink="http://www.w3.org/1999/xlink" x="0px" y="0px"
	 viewBox="0 0 184.3 184.3" style="enable-background:new 0 0 184.3 184.3;" xml:space="preserve">
<style type="text/css">
	.st0{fill:#FFFFFF;}
</style>
<g id="Layer_x0020_1">
	<path class="st0" d="M133.8,134.6c9.9,0.5,9.4-0.4,17.6-2.5c1.1,3.2,4.7,7.6,4.7,9.9c0,1.8-1.1,4.9-2.3,7.2h4.3
		c0-0.2,0.2-0.5,0.2-0.7c2.9-9.7,0.5-8.1,0.5-13.5c2.3,2.2,1.1,2.3,4.1,5.2c0,2.2-0.7,6.3-2,9.2h4c0.9-3.6,2.2-5.9,1.1-11.3
		c-1.1-5.6,1.4-11.3,1.8-16.9c2,9.2,0,23,0.2,23.9l3.2,0.7c-3.6-8.6-1.4-7-1.4-19.1c0.2-22.3-18-16.2-24.1-18.5
		c-7.4-2.9-9.2-3.6-16-0.4c-2-1.8-2.7-4.3-6.5-4.3c-2.5,0-1.8,0.4-4.7,0.2c-2.2-0.2-3.1-0.4-4.7,0.9c0,0-7,10.8-8.1,4.7
		c-0.5-2.7,1.3-2.5,2.5-3.2c-5.6-1.4-2.7,5.9-2.7,7c0,2.7-0.9,4.9,5.9,1.8c-0.9,3.4-2.9,6.3-4.1,10.1c-1.4,4.1-0.4,3.1-0.4,3.1
		c0.7,5.8,11.3-2.2,13.7-3.1c2,8.8,3.8,15.5,2.2,24.7h4.5c0.2-1.8,0.2-3.8,0.2-5.8c0.2-2,0.2-4,0.2-5.9c0-2.7-0.2-2.9,0.5-4.5
		c1.6,3.1,1.1,8.3,0.9,12.1c-0.2,1.6-0.2,2.9-0.5,4.1h4.5C134.2,144.5,133.8,139.1,133.8,134.6z M64.5,124.4
		c-1.3-6.1,0.9-8.3,3.6-10.8c-1.1,6.8-2.9,2.3,0.2,9l-1.1,3.2C66,125.3,66,125.3,64.5,124.4z M75.1,110.3c0.2-0.2,0.7-0.4,1.6-0.4
		c0.2,0,0.9,0.2,1.1,0.4C76.6,111.1,76.6,111.2,75.1,110.3z M45.4,110c-3.4-1.3,0.4,1.6-0.7-0.9L45.4,110z M77.7,107.6
		c0-0.9,0.2-0.2,0.7-0.2c1.8,0.2-0.2-1.8,0.4,0.2C79.3,110,77.7,108.2,77.7,107.6z M72.4,110.5l0.5,1.1c-1.3,0.9-0.7,0.7-1.1,1.4
		l-2.2-0.7c0.5-0.9-0.9-0.9,2.3-1.3c-0.2-0.2-0.4-0.2-0.5-0.4l-2.5-1.1c-0.2-2.5-0.2-1.3,0.7-2.3l0.5,2.2c0,0,0,0.4,0.2,0.5
		c1.8-1.4,1.1-1.1,3.8-1.1l-1.1,1.1C73,110,72.6,110.3,72.4,110.5z M87.4,108.5c-1.8-0.9-1.3-0.2-2.5-2.3
		C88.8,107.1,86.8,106,87.4,108.5z M63.8,107.6c1.1,2.9,1.4,2.2,3.6,3.8c-0.9,2.5-1.1,3.1-3.4,3.6c-2.5-1.8-4.1-7.4-4.7-10.8
		C62.9,106.2,58.8,107.6,63.8,107.6z M70.1,105.7c0.2-1.8,0.9-1.3,1.3,0C71.4,106.7,69.9,107.6,70.1,105.7z M63.8,107.6
		c-0.5-2.3-0.4-1.8,0-2.9c0.2,0.2,0.4,0.2,0.4,0.4c5.2,6.8,3.2-0.4,3.6,4.9l-3.6-2.2C64.2,107.6,64,107.8,63.8,107.6z M97.3,103.7
		c-1.4,0.5-2.5,0.7-4-0.4C94.6,101.9,96,102.6,97.3,103.7z M51.9,107.5c0.2-0.2,0.4-0.7,0.5-0.9l1.6-4.3c0-0.2,0-0.2,0.2-0.2
		c2.2,1.8,1.4,2.3,1.4,5.6c2.9-0.5,2.2-0.9,4.3,4.5c-3.4,0-5.4-1.1-7.7-3.1c-0.2-0.2-0.4-0.2-0.4-0.4c-0.2-0.2-0.2-0.2-0.4-0.4
		L51.9,107.5z M79.1,101.2c0-2.5,0.9-0.7,1.3-0.2C80.5,101.9,79.3,102.4,79.1,101.2z M52.3,101.3c-2.5-0.9-0.9,0.4-1.6-1.8
		C52.6,100.6,51.6,98.8,52.3,101.3z M97.5,92.9l2.9,0.9c-0.5,0.5,1.1,2-2,1.1C97.5,94.5,98,94.1,97.5,92.9z M83.8,86.2
		c-0.2-2.9,0.9-0.5,1.1-0.2C85,86.9,83.8,87.3,83.8,86.2z M34.8,77.2c0-0.4,0.5-1.1,0.9,0.2C36.4,80.1,34.8,77.9,34.8,77.2z
		 M94.4,75.2l0.9,0.4c-3.6,3.6-1.3,1.8-2.9,5.6c-2-0.5-2.5-1.3-1.3-3.2L94.4,75.2z M94.4,75.2h-2.2v-4.7c2.7,0.9,2.3,1.1,3.4,3.6
		L94.4,75.2z M91.2,72.4c-2.5-1.4-1.1,0.4-2.2-2.3C91.9,70.6,90.8,69.5,91.2,72.4z M96.4,69.3c-1.3-0.9-0.7-0.4-1.3-1.8
		C96.6,68.2,96,66.6,96.4,69.3z M45.8,75.1c-3.8-1.6-2.2-5.2-1.1-6.7c1.4-1.8,1.3-1.1,1.8-1.3c-0.5,2.3-1.1,1.3-0.5,4.1
		C46.3,73.4,47.6,71.8,45.8,75.1z M118.5,65c-1.8,0.7-2.2,0.7-3.8-0.5c1.3-0.7,0.4-1.1,2.2-0.7C119.4,64.1,118.3,64.6,118.5,65z
		 M48.5,64.3c-2.2-0.9-0.7,0.7-1.6-1.4C48.7,63.4,48,62.6,48.5,64.3z M45.4,64.4c-0.4-2-0.9-0.9,0.7-1.3
		C46.9,65.3,46.7,63.7,45.4,64.4z M34.8,63.5l0.2-2.3c1.6,0.5,0.4,0,1.8,2c3.1,0.9,2.2-1.8,3.6,2.2C37.7,65.3,37,64.4,34.8,63.5z
		 M48.5,67.1l-1.3-1.6c0.5-0.5-0.2-0.9,1.1-1.3l1.6-0.2l-0.2,1.6l4.1-0.7c-1.3-4-2.9,0.4-1.6-5c3.8,4.7,1.6-0.2,6.1,2.5
		c-0.2,0.2-0.2,0.4-0.4,0.4c0,0.2-0.2,0.2-0.4,0.4c-0.2,0.2-0.2,0.2-0.4,0.4c-2.2,2.3,0.5,0.4-1.3,1.3c1.4,1.3-2.2,2.2,2.5,0.7
		c1.4-0.5,0.5-0.5,1.6-1.8c1.1,2.5-0.2,0.9,1.6,2.3l1.4-1.8c0-0.2,0.2-0.4,0.2-0.4l1.1,2.9l3.4-0.5v-0.2l1.3-2.2
		c1.4,0.7,0.4,0.9,2.2,2c0.9,0.5,1.4,0.5,2.3,0.7c-0.4,1.6-1.4,1.3-1.6,3.8c4-0.4,2.5-0.5,3.8-2.3c0.7,1.1,0.7,1.4,1.3,2.3
		c0,0,1.6,0,1.8-1.6c0-0.2,0.2-0.4,0.2-0.5l1.6,2.9c1.3-0.5,1.4-0.5,2.9-0.7l0.7-1.6c0.7-0.9,0-0.5,1.3-1.1c1.4,1.6,0.7,1.8,2.7,4
		c1.3,1.4,3.8,2.9,0.4,7c-1.4,1.8-0.9,1.8-3.8,1.1c0.2-0.2,0.2-0.2,0.4-0.4c0.2,0,0.4-0.2,0.4-0.4c2.7-2.2,1.4-0.2,2.5-2.2
		c-3.8-2.5-2.2-0.7-4.7-0.5c-2,0.4-2.9-1.3-4.5-2L69,74.7c1.4,0.9-0.4,0.4,2,0.5c0.2,0,1.8-0.2,2-0.2l-0.9,4.1c-2.7-2.7-1.8-2-4.9-2
		c-3.4,0.2-2.9,1.4-5.6-0.4c-3.2-2.2-9.5-1.4-13.5,0.2c1.6,0.7,2.2-0.4,4,1.3l-5.9,0.9c0.4-2,1.6-5.2,1.6-6.8
		C47.8,69.8,46.2,68.8,48.5,67.1z M45.4,64.4c0.4,3.8-0.7,2.7-1.6,3.2c-2.2-1.4-3.6-4.9-2.5-7C43.8,62.5,42,63.4,45.4,64.4z
		 M101.4,64.4c-0.9-1.3-0.2,1.6-0.9-1.8c-0.4-1.6-0.2,0,0.2-1.1c0.9,0.5,0.5-1.1,1.1,1.4C102.3,65.3,101.8,63.9,101.4,64.4z
		 M57.3,61c0.2-2.3,0-1.4,1.4-2.3l1.3,1.3L57.3,61z M100.7,53.8c3.8,1.8,2.9-0.5,2.9,3.4c-2.3-1.4-0.7-1.3-2.7-2.5l-1.8,1.8
		c-4.1-0.5-0.9-1.3-5.4-0.5c-2.5,0.4-2.7-0.2-4.5-1.6c1.3-0.5,0-0.5,2.5-0.2C91,52,90.3,51.5,93,50.6c2.7,2-0.2,0.4,2,3.2H100.7z
		 M85.9,54.7c-1.3-0.7-2.3-0.7-1.3-3.2c0.4,0.2,0.7-0.9,1.6,1.6C87.4,56.3,86.5,53.5,85.9,54.7z M100.3,47.3
		c1.1-0.7,0.2-1.1,2.2-0.5c1.8,0.5,1.4,1.1,1.6,1.3C101.8,48.4,102,48.8,100.3,47.3z M65.8,50c2.9-1.1,2.9-1.3,6.3-1.4
		c-1.1-2-0.7-1.3,0-3.4c4.9,1.4,0.7,1.1,3.4,3.1c2,1.4,0.9-0.9,3.2,1.8c-0.5,1.6-3.2,0.7-1.8,4l3.2-0.9c0.9-2.2-1.4-1.3,1.3-2.2
		l1.3,3.4c-2.3-0.2-2-0.2-3.6,0.9l3.2,1.3c0.2-0.2,0.4,0.2,0.4,0.2l-0.5,1.6c-1.4-1.6,0.5-0.9-2-1.1c-1.4-0.2-1.1,0.2-1.3,0.2
		c-8.5,2-4.9-0.4-9.7-3.8l1.3-2.5C67.6,49.9,67.9,52,65.8,50z M65.2,45.9c0.2,0.4,2.3-0.9,0,2C63.3,46.1,65.1,45.9,65.2,45.9z
		 M61.8,45.9c0-0.2,0.2,0.2,0.4,0.2c-0.7,0.4,1.1,1.3-1.6,0.2L61.8,45.9z M87,44.3l0.4,3.2c-1.3-1.3-0.5,1.4-1.3-1.6
		C85.8,44.5,86.1,45.2,87,44.3z M66,40.3c-2,0.5-0.2-0.9-2.2,1.4c-5.4-0.4-6.1-0.4-4.5,3.8c-2,0-4.3,0.5-6.1,1.6
		c1.8,0.5,1.4-0.5,2.9,1.1l-3.2,1.3c-8.3,1.3-6.8-1.3-11-1.3c-1.8,0-3.8,0-5.9,0.5c0.7,0.5,0.2,0.7,3.2,0.4L38.4,52
		c-3.1-3.2-1.6-1.1-3.6-0.5L30,51.7c-3.2-0.7-0.4-1.6-4.9-1.6c-1.4,0-3.8-0.4-5.6,0.9l3.2,0.9c-1.1,1.1-0.5-0.4-0.9,2.2
		c-2.5-1.6,0.5-0.7-2.3-1.6c-1.4,2.2-3.8,0.2-5,3.2l-0.4,1.1c-0.4,0.9-0.5-0.7-1.1,2.7l3.8-2.3l1.1,2.5c2-0.7,0.7,0.4,2.2-2
		c1.1,2,0.2,1.1,2,2.5c0.9-0.4,1.3-0.4,2.5-0.5c0-0.2,0.2-0.4,0.2-0.4l0.2-0.7c0,0,0.2-0.2,0.2-0.4c0.4-0.7,0-0.4,0.9-1.4
		c2.9,1.6,0.2,0.7,2.3,2.3c1.6,1.1,0.5-0.5,2.5,1.6l-1.4,0.7c0.2,1.4,0.7,0.9-0.4,1.1c0.9,1.3-1.3,1.6,1.4,0.7
		c4.1-0.5,1.3-0.5,4.7,0.7c0.5,1.1,0,0.5,1.1,1.6c2,1.8,4.7,0.9,5.6,2.9c0.9,3.1-0.4,4.5,0.2,6.7c0.9,4.9,2.7-0.7,2.9,5.2
		c-3.6,0-3.4-0.5-4.7-2.9c0.9-1.8,2.3,0.4-0.4-4L39.5,72c-2.9,0.7-0.9-0.4-4-0.4c-1.1,1.3-0.5-1.6-1.1,1.6c-1.1-0.5-0.9,0-1.4-0.5
		c-2.9,0.9-3.4-0.9-6.5,0.2L23.5,74l1.6,2l1.3-0.2c0.2,0,0.4-0.2,0.5-0.2c0.2,0,0.7-0.2,0.9-0.2c2.7,0.2,1.8,0.9,1.6,3.4
		c0.9-0.2,1.4-0.5,2.2-0.4c2,0.2,0.7-0.4,1.8,0.7c-2.2,1.4-4.9,0.9-7.4,1.4c-3.4,0.7-2.5,0.4-3.8,4.7C19.9,85,18.6,85.1,17,86
		l0.4,1.8c0.5,1.3,0.9-1.6,0.4,1.6l-1.3-0.7c-1.4,1.1-1.8,0.7-0.9,3.6c3.8-1.6,2.5-0.4,4.3-3.2c0.7,1.4,0.2,2,2.5,3.2l1.3-2.9
		c5,6.3,0.2,1.8,6.8,2.9c-1.4-4.1,0.9-3.6,1.3-3.8c1.6,2,0.5,1.8,2,3.1c1.4,1.1,1.6,0.2,3.6,1.4c-1.3,3.6,0.2-0.4-1.8,1.6
		c-0.7,0.5-0.7,1.1-0.5,2.9c2.2-0.2,0.9-0.9,2.9,0.4c-0.7,2.7,0.2-0.2-1.3,1.6c-0.7,0.9-0.9,1.1-0.7,2.2c0.7,0.4,0.2,0.4,1.3,0.4
		c4.1-0.2,1.1-1.4,3.4-2.9c0.7,1.3,0.4,1.4,1.1,2.7c1.1,1.8,0.2,0.4,1.8,1.8c-2.5,2.3-0.9-0.7-2.3,3.1c-0.7,1.8-1.4,2.7-1.8,4.5
		c1.1-0.5,1.8-0.9,2.9-1.6l2.2,3.1c1.8-1.3,1.8-1.6,3.2-1.1l0.7,0.4c0,0,0.4-1.1,0.5-1.3c0.5-0.9,0.4-0.7,1.1-1.4
		c1.1,4-1.6-0.9,4.7,3.2c2.5,1.8,5.2,0.7,6.7,3.1c1.4,2.3,0.2,5.9,0.2,8.5c0,3.8,1.8,3.8,4,5.8c0.7,5-0.9,13.1-2,19.4h3.1
		c0.4-2.2,0.7-4.5,0.9-6.8c0.5-4.5,0.4-7.7,0.7-11.9c0.2-2.5,2.3-6.7,2.2-9c-0.2-2.5-3.2-4,1.3-8.1c0.2,0,0.2-0.2,0.4-0.4
		c3.4-1.1,4.5-2.5,9.5-1.3l1.3-2.2c2.7,0.5,2,0.5,4.3,0.2c0.2,0,0.4,0,0.5,0c0.2,0,0.4,0,0.5,0c3.2-0.2,4.9-0.5,8.8,1.4
		c2,0.9,2.3,1.6,4.3,0.5c-0.9-2-1.8-2.7-4-4.7c1.8-2.9,2.7,1.1,2-2.9l2.9,0.9l1.8-3.2c-0.9-1.6-2.5-2.3-3.1-4c-0.5-2-0.5,0,0.9-2.2
		l0.2-0.2c0-0.2,0.2-0.4,0.2-0.5l3.2,0.7c-0.2-2.3,0.5-1.4-3.6-5.6c0.9-0.9,5.6-2.9-0.9-2.9c-2,0-0.9,0.2-3.1-0.4
		c1.4-1.6,1.1-1.1,3.2-1.6c-0.9-1.8-0.5-0.9-0.7-2.2c-4.3-0.5-3.4,2.3-6.8-0.4c-0.4-1.8,0.2-1.1,1.1-3.6c0.9-2.2-0.2-1.6,2.2-2.3
		l-0.4-2.7l2.9,0.2c-1.4-0.4-1.1-0.5-1.8-0.9c0.7-1.8,0.7-1.3,1.3-2.7c0.7-1.8-0.5-0.2,0.9-2.2c1.6,1.8,2,2.7,1.8,5.6
		c1.8-0.9,0.2-1.4,2.9-2.9c5-2.5,1.3,0,1.8-2.2c0.5-1.8-0.4-1.1,1.8-1.3l1.3,3.1c3.4,0.7,4.1-0.4,7,0.7s2.5,1.6,6.1,2.2
		c-0.5-2.3,0.2-1.6-4-5.4c3.6-4.3,2.7-0.9,5.2-2.5c-0.5-1.6-2.3-3.6-3.8-4.5c0.7-1.4,2.3-1.8,1.4-2.7c0,0-0.2-0.2-0.4-0.2
		c-1.1-0.5-3.1-0.2-5-0.4c1.1-2.2,0.9-0.7,3.1-2.5c-3.6-5-2.3,1.3-7-1.8c-5.2-3.2-2.7,0.2-8.1-2.2c0.7-1.4-0.2,0,0.9-1.1L109,49
		c-0.9-2.9,0-0.5-2-2.9c-0.7-0.9-1.4-1.8-1.8-2.3c2.2-1.6,1.3,0.4,2.2-1.8c-1.8-1.8-2-0.7-4.9-0.9l-1.4-0.7l0.5-0.7l2.9-1.1
		c-1.8-3.8-2.2-1.8-4.3-1.4c-2.3,0.5-2.5-0.9-4.3-1.8c-1.4-0.7-7.6-0.4-10.3,0.5l4.1,0.4L88.3,40c-2-2.2,0.5-0.9-2-2.2
		c-1.4,0.5-0.9,1.3-2.9,1.8c-2.7-2.5-2.2-0.9-4-0.5c-2.9,0.7-1.8-0.2-4.1-1.4c-2.9-1.6-2-0.4-4.9-0.5c-2.2-0.2-3.4-0.2-5.9,0.4
		c0.2,0.2,0.5,0,0.5,0.2c0.9,2.2-0.7-0.4,2.2,0.7c0.2,0.2,0.4,0.2,0.5,0.2c0.2,0,0.4,0.2,0.5,0.2l-1.1,3.1c-0.4-0.2-0.5-0.7-0.5-0.7
		l-0.5-0.7C66.3,40.5,66.1,40.3,66,40.3z"/>
</g>
</svg>
