<?xml version="1.0" encoding="utf-8"?>
<!-- Generator: Adobe Illustrator 23.0.3, SVG Export Plug-In . SVG Version: 6.00 Build 0)  -->
<svg version="1.1" id="Layer_1" xmlns="http://www.w3.org/2000/svg" xmlns:xlink="http://www.w3.org/1999/xlink" x="0px" y="0px"
	 viewBox="0 0 184.3 184.3" style="enable-background:new 0 0 184.3 184.3;" xml:space="preserve">
<style type="text/css">
	.st0{fill:#FFFFFF;}
</style>
<g id="Layer_x0020_1">
	<g id="_2458315068576">
		<path class="st0" d="M111,53.5c0,8.1,3.6,1.8,3.6,7.4c0,5.8-3.6-0.5-3.6,7.4c0,3.2,3.6,0.5,3.6,5c0,5.8-3.6-0.5-3.6,7.4
			c0,3.1,3.6,0.5,3.6,5c0,5.8-3.6-0.5-3.6,7.4c0,3.1,3.6,0.5,3.6,5c0,5.8-3.6-0.5-3.6,7.4c0,3.1,3.6,0.5,3.6,4.9
			c0,5.8-3.6-0.5-3.6,7.6c0,3.1,3.6,0.5,3.6,4.9c0,5.8-3.6-0.5-3.6,7.4c0,3.4,1.8-0.4,3.4,4.1c0.7,2,0.7,4.7,3.4,4.7h31.7
			c7.6,0,14.9-7.4,14.9-14.9V59.8c0-7.6-6.8-14.9-15.5-14.9h-31.1c-3.8,0-2,4.1-4.7,6.5C111.9,52.5,111,51.4,111,53.5z"/>
		<path class="st0" d="M20.1,60.4c0,18.2-2,20.9,4.3,22c16.4,2.7,15.1,22.1,0.5,24.7c-6.3,1.1-4.9,1.4-4.9,16.9
			c0,8.6,7.4,15.5,14.9,15.5h64.1c2.5,0,3.1-2.3,3.1-4.3c0-1.6-1.1-1.8-1.8-3.1H38.1c-11.5-0.2-10.6-7.9-10.6-16.2
			c0-3.2,4.7-0.9,10.8-7.4c8.8-9.2,6.8-25.2-4.9-31.5c-6.7-3.6-5.8,2.2-5.8-14c0-14,13.7-10.6,31.1-10.6c13.9,0,27.7,0,41.8,0
			c1.4-2.2,1.8-1.1,1.8-4.3c0-1.4-1.6-3.1-3.1-3.1H35.7C27.1,44.9,20.1,51.7,20.1,60.4z"/>
		<path class="st0" d="M51.2,72.8c0,2,0.5,4.3,3.1,4.3h38.5c4.1,0,4.1-7.4,0-7.4H54.3C52.8,69.7,51.2,71.4,51.2,72.8z"/>
		<path class="st0" d="M51.2,97.6c0,2,0.5,4.3,3.1,4.3h38.5c4.1,0,4.1-7.6,0-7.6H54.3C52.8,94.6,51.2,96.2,51.2,97.6z"/>
		<path class="st0" d="M51.2,110.1c0,2,0.5,4.3,3.1,4.3h26.1c4.1,0,4.1-7.4,0-7.4H54.3C52.8,107,51.2,108.8,51.2,110.1z"/>
		<path class="st0" d="M51.2,85.2c0,5.9,4.9,4.3,16.7,4.3c4.1,0,4.1-7.4,0-7.4C60.8,82.2,51.2,80.5,51.2,85.2z"/>
		<path class="st0" d="M76.1,85.2c0,5.9,4.9,4.3,16.7,4.3c4.1,0,4.1-7.4,0-7.4C85.6,82.2,76.1,80.5,76.1,85.2z"/>
		<path class="st0" d="M88.5,110.1c0,5.4,7.4,6.7,7.4,0C96,106.1,88.5,106.1,88.5,110.1z"/>
	</g>
</g>
</svg>
