<?xml version="1.0" encoding="utf-8"?>
<!-- Generator: Adobe Illustrator 23.0.3, SVG Export Plug-In . SVG Version: 6.00 Build 0)  -->
<svg version="1.1" id="Layer_1" xmlns="http://www.w3.org/2000/svg" xmlns:xlink="http://www.w3.org/1999/xlink" x="0px" y="0px"
	 viewBox="0 0 184.3 184.3" style="enable-background:new 0 0 184.3 184.3;" xml:space="preserve">
<style type="text/css">
	.st0{fill:#FFFFFF;}
</style>
<g id="Layer_x0020_1">
	<g id="_2458315764144">
		<path class="st0" d="M30.6,35.4c0-3.6,0.5-4.7,4.3-4.7c38.3,0,76.5,0,114.8,0c3.8,0,4.3,1.1,4.3,4.7v73.1c0,3.6-0.5,4.5-4.3,4.5
			H34.9c-3.8,0-4.3-0.9-4.3-4.5C30.6,108.5,30.6,35.4,30.6,35.4z M25.5,118h2.7h-2h129.6h2.7V25.5H26.4h-0.9V118z"/>
		<path class="st0" d="M46.2,47.3h22.1v8.1c-18.7-0.2-13.3-3.6-14,28.3h-7.9L46.2,47.3z M40.7,46.2c0,10.3-0.5,33.1,0.5,41.9
			c3.2,1.3,9,0.7,13.1,0.7c0,17.1-5,13.5,28.8,13.5c5.8,0,4.3-2.9,4.3-15.1c0-4.1-1.3-4.7-4.9-4c-1.4,3.2-0.7,9.2-0.9,13.5h-22V60.6
			h22.1c0,2.5-0.7,7.9,0.7,9.5c2.5,2.7,4.9,0,4.9-3.6C87.5,52.9,89.1,55,74,55c0-4.1,0.5-9-0.7-12.8c-1.1-0.5-2.2-0.7-3.8-0.7h0.7
			c-8.3,0-16.7,0-25,0C41.4,41.7,40.7,42.6,40.7,46.2z"/>
		<path class="st0" d="M89.4,144.1c3.8-1.3,6.1-0.5,4.9,4c-1.6,0.9-2.7,0.9-4.5,0.4L89.4,144.1z M80.1,143.2l5,0.7l0.2,4.5
			c-4.3,1.4-16.9,0.7-22.3,0.5l-0.2,9.7c19.6,0,39.1,0,58.7,0l-0.2-9.7c-5.4,0-18,0.9-22-0.5c-1.6-4.9,0.5-4.9,5-4.9v-20
			c-5,0-20.5-0.7-24.3,0.5C80.1,124.1,80.1,143.2,80.1,143.2z"/>
		<path class="st0" d="M133.7,88.3l-0.2-11.5C139.5,78.8,139.7,85.6,133.7,88.3z M128.1,58.8V70c-2.5-0.2-4.7-2.5-4.7-5.6
			C123.6,61.5,125.8,59.2,128.1,58.8z M128.1,76.4v11.9c-7.6-1.6-1.4-9.9-9.2-7.7c-3.8,7.2,4.1,11.7,8.8,13.9l1.1,4
			c1.4,0.2,2.5,0.5,3.6-0.4l1.4-2.7c1.6-3.6,10.3-2.7,9.7-13c-0.5-11-10.1-8.5-10.1-13.5V58.8c4.7,1.4,3.6,4.5,5.6,8.1
			c9,0.7,2.9-9.7-0.2-11.9c-1.8-1.3-2-0.9-3.6-1.6c-3.8-1.8-0.5-0.9-2.3-3.4c-3.1-4.5-4.5,1.8-5.9,2.9c-1.4,1.3-9.4,3.1-9.2,12.1
			C118.4,73.4,126,74.8,128.1,76.4z"/>
		<path class="st0" d="M93,81.1c2.5,0.9,5.2,0.5,8.3,0.5c-4,9.4,9.4,3.6,9.9-3.2c-3.1-6.3-13.5-11.7-9.9-2.2
			C96.6,76.1,90.9,75.2,93,81.1z"/>
		<path class="st0" d="M82.8,79.7c2.5,0.2,4.7,0.2,4.5-2.5c0-2.3-1.4-2.7-3.8-2.5C81.3,76.4,81.5,77,82.8,79.7z"/>
	</g>
</g>
</svg>
