<?xml version="1.0" encoding="utf-8"?>
<!-- Generator: Adobe Illustrator 23.0.3, SVG Export Plug-In . SVG Version: 6.00 Build 0)  -->
<svg version="1.1" id="Layer_1" xmlns="http://www.w3.org/2000/svg" xmlns:xlink="http://www.w3.org/1999/xlink" x="0px" y="0px"
	 viewBox="0 0 184.3 184.3" style="enable-background:new 0 0 184.3 184.3;" xml:space="preserve">
<style type="text/css">
	.st0{fill:#141414;}
</style>
<g id="Layer_x0020_1">
	<g id="_2058152461712">
		<path d="M60.4,43.9c8.6-4.7,7-4.7,11-12.8l3.4,0.2c2.9,5.6,2.9,8.6,10.3,12.2c0.4,0.2,0.7,0.4,1.1,0.5c0.7,0.4,0.5,0.2,0.9,0.7
			c-0.2,8.1-5.9,14.4-14.2,14.2c-7.7-0.2-13.7-6.3-13.9-14.2L60.4,43.9z M97.3,44.4c4.9-1.6,8.5-4.7,10.6-8.8
			c2.3-4.9,0.5-4.5,5.4-4.3c1.3,5.6,3.8,8.6,8.1,11.5c0.9,0.5,1.1,0.5,2,1.1l2,1.3c-0.2,7.9-6.3,14.8-14.6,14.2
			C103.2,58.8,96.9,52.3,97.3,44.4z M124.3,39.7c-2.9-0.9-5.4-4-6.7-7C120.7,33.8,123,36.7,124.3,39.7z M60,39.9
			c0.9-2.9,4-6.3,6.7-7C65.6,35.8,62.9,38.8,60,39.9z M98.6,39.7c1.1-3.1,3.6-6.3,6.5-7C103.8,35.9,101.8,38.6,98.6,39.7z M86,39.9
			c-2.9-0.9-5.6-4.1-6.7-7C82,33.8,84.9,36.8,86,39.9z M116.6,28.4c0-7,3.2-11.3,8.1-13.7c5.8-2.7,12.8-0.4,16,3.1
			c8.8,9.9,0.9,25.6-11.9,23.4C126.6,36.7,124.1,29.8,116.6,28.4z M78.2,28.4c-0.7-19.6,28.8-19.4,27.9,0c-4.9,1.4-8.3,4.7-10.6,8.8
			c-2.3,4.5,0,4.5-5.4,4.3C88.5,35,84.7,30.2,78.2,28.4z M55.7,41.5C41.1,42.4,35,27.1,43.7,17.8c8.3-9,24.7-3.1,24.1,10.6
			C61.7,30,57.2,35,55.7,41.5z M36.3,24.1v6.5c1.1,2,0.9,3.6,2.3,5.9c4.7,8.3,11,7.7,16.7,8.6c1.3,10.6,7,17.6,17.8,17.5
			c5.4,0,10.1-2.5,12.6-5.2c3.4-3.8,3.6-6.5,5-12.4h2.5c1.6,6.8,1.1,8.1,5.6,12.4c7.4,7.4,19.1,6.3,25,0c3.2-3.4,4.1-6.3,5-12.4
			c9.7-0.9,13.9-2.9,17.3-9.7c3.4-7,1.3-15.5-2.7-19.8c-8.5-9-28.6-8.3-30.6,12.1h-3.1c-1.8-7-0.9-7.7-5.4-12.6
			c-7-7.4-27-9.2-30.2,12.6h-2.9c-0.9-5.9-1.6-8.5-4.9-12.1c-6.1-6.7-17.5-7.2-23.9-1.6C37.5,18.3,38.1,20.3,36.3,24.1z"/>
		<path class="st0" d="M84.5,146.5v8.5c0,2.5-2.9,2.2-3.6,1.6c-0.9-0.5-0.9-1.1-0.9-2c0.2-23.6,0-47.2,0-70.7c0-1.4-0.5-4.7,0.7-5.6
			c0.9-0.5,2.3-0.5,3.1,0.2c0.9,0.5,0.5,1.6,0.5,2.5L84.5,146.5L84.5,146.5z M69.8,165.9h-3.4c-1.4,0-8.8-0.2-9.7,0.2
			c-2.7,0.5-2.5,3.2,0.7,3.4c3.1,0.2,6.8,0,9.9,0c3.2,0,6.5,0,9.7,0c13,0,26.3,0.2,39.2,0c3.2,0,6.7-0.2,9.9,0
			c3.6,0,4.1-2.3,1.8-3.2c-1.3-0.5-7.4-0.2-9.5-0.2C102.3,165.9,86,165.7,69.8,165.9z M128.1,174.4c1.3,0,2,0,2.9-0.5
			c0.5-0.4,1.3-1.3,0.5-1.8c-0.4-0.5-0.7-0.9-1.6-1.1H127h-6.3H60.4h-2.7c-1.8,0-3.4-0.2-4.5,0.5c-0.9,0.7-0.9,1.8,0,2.3
			c0.9,0.7,2.7,0.5,4.3,0.5s3.4,0,5,0H104c6.7,0,13.9-0.2,20.5,0H128.1z M65.1,84v3.2v37.1v0.4v0.5v5.4v2.5v0.4v25.7h54v-23.9v-1.8
			V93.4V93v-7.7v-0.4V74.1h-54V84z M70.8,129.5v-1.4c-0.2-3.2,0-6.8,0-10.1V82.6c0-1.4-0.5-3.6,1.1-4.3c0.9-0.4,2.2-0.2,2.7,0.2
			c0.7,0.5,0.7,1.3,0.5,2.2v71.3c0,1.3,0.4,4-0.5,4.7c-1.6,1.3-4,0.5-4-1.3C70.8,146.8,70.5,137.6,70.8,129.5z M124.3,164.3
			c-0.2-1.6-2.3-2.7-4.5-3.2c-1.4-0.4-7.2-0.2-9-0.2H73.4c-2,0-7.7-0.2-9,0.2c-1.8,0.5-4,1.8-4.3,3.2H124.3z M93.9,80v74.9
			c0,2.9-4.5,2.5-4.5,0.4c-0.2-2.2,0-4.1,0-6.5c-0.2-12.4,0-25.4,0-38V82.6c0-1.3-0.5-3.6,0.9-4.3C91.2,77.7,93.9,77.7,93.9,80z
			 M103.1,101.8v20.3c0,6.8-0.2,13.9,0,20.7v10.1c0,1.4,0.5,3.6-1.6,4.1c-1.3,0.2-2.2-0.2-2.7-0.7c-0.5-0.5-0.2-1.6-0.2-2.3
			c0.2-6.8,0-13.7,0-20.7V81.8c0-1.6-0.5-3.6,2-3.8c3.1-0.2,2.5,2.3,2.5,3.4V101.8z M107.7,98.8c0.4-5.6,0.2-12.2,0.2-18
			c0-0.9-0.2-1.6,0.5-2.2c0.5-0.5,1.6-0.9,2.7-0.5c0.9,0.4,1.3,0.9,1.3,1.8c0.2,23.9,0,48.1,0,72.2c0,1.3,0.5,4-0.7,4.7
			c-0.7,0.4-3.8,1.1-3.8-1.8v-13c0-0.4,0-0.7,0-1.3c0-0.2,0-0.7,0-1.3c0-6.8,0.2-13.9,0-20.5c-0.2-4.1,0-10.6,0-15.3v-3.8
			C107.9,99.5,107.7,98.8,107.7,98.8z"/>
	</g>
</g>
</svg>
