<?xml version="1.0" encoding="utf-8"?>
<!-- Generator: Adobe Illustrator 23.0.3, SVG Export Plug-In . SVG Version: 6.00 Build 0)  -->
<svg version="1.1" id="Layer_1" xmlns="http://www.w3.org/2000/svg" xmlns:xlink="http://www.w3.org/1999/xlink" x="0px" y="0px"
	 viewBox="0 0 184.3 184.3" style="enable-background:new 0 0 184.3 184.3;" xml:space="preserve">
<g id="Layer_x0020_1">
	<path d="M75.1,74.9h34.9L92.8,98c-2-1.8-6.1-7.6-9.4-11.3L75.1,74.9z M34.5,94.9l7.6,0.2h7.2c-0.7,2-5.8,10.3-7.2,12.2
		C40.4,105.9,35.4,97.2,34.5,94.9z M52.8,133.6l4.7-0.2c-2.9-6.7-11-15.7-12.8-21.2c-0.5-1.4,3.1-6.3,4.3-8.3c1.4-2.2,4-7,5.4-8.6
		c2-0.9,3.1,0,5.4-1.4v-4c-10.4-0.2-25.7,5.2-31.9-4.7c-2.7-4.5-5.6-10.1-7.6-15.8c-1.1-3.1-1.8-5.9-2.7-9.2
		c-0.7-3.1-0.9-7.6-2.5-9.4h-2.9C10.7,62.3,22.9,85,29.1,94.7l8.6,14c1.6,2.5,1.6,2.7,0.2,5.4c-1.8,3.1-4,6.3-5.8,9.4
		c-1.8,3.1-5,6.8-5.9,10.1l4-0.2c3.2-3.8,9.9-16.2,11.9-17.8C44.2,119.4,52.5,130.9,52.8,133.6z M134.9,95.1l14.8-0.2
		c-1.1,2-6.3,11.2-7.4,12.2L134.9,95.1z M130.4,126.8c-1.1,2.7-2.7,4.5-3.6,6.8l4.3-0.2c0.7-2.2,9.5-15.8,11.2-17.8
		c3.2,4.1,8.3,13.7,10.8,16.7c0.5,0.7,0.7,0.7,1.3,1.3h3.8c-1.1-3.6-13-20.2-13-21.8l8.1-13.7c2.9-4.9,5.6-9,8.3-13.9
		c3.1-5.4,11.9-26.1,10.4-33.1l-2.7-0.4c-1.6,2-2.9,12.2-4.9,17.8c-1.4,4-8.5,20.7-12.4,22c-2.3,0.7-21.1-0.4-26.6-0.7
		c-0.7,1.3-1.4,3.2-0.2,4.3c1.3,1.1,3.6,0.7,5.2,0.9c1.3,2.5,3.2,5.8,4.9,8.1l5,8.6C138.7,113.8,131.5,125.9,130.4,126.8z
		 M69.9,125.5c-0.9,2.5-4,4.3-5.4,7.2h5c1.8-4,19.8-23.4,23-27.4c5.9,7.4,15.7,17.1,20.9,24.8c1.8,2.7,2.7,2.7,7,2.3
		c-1.1-1.6-2.9-3.2-3.6-4.9l-21.2-25.7c0.5-0.9,4.5-6.8,5.6-7.2c1.1-1.8,1.4-1.8,2.9-3.6c0.9-1.1,1.6-2.5,2.5-3.6
		c2-2.7,3.8-4.5,5.8-7c0.9-1.3,0.9-1.4,1.8-2.7c0.5-0.7,1.4-1.8,2-2.9c13.7,0.2,2.3-1.4,9.5-1.8c3.2-0.2,6.1,1.1,6.1-3.2
		c0-4.3-3.4-3.2-10.3-3.1H66.1c-8.5-0.2-11.9-1.4-12.1,3.1c0,6.1,5.9,1.1,8.8,4.3l0.5,0.7c8.3-0.2,4.9,0,11.2,8.1l11.7,14.8
		c1.3,1.6,2.2,2.5,3.1,4C88.3,103.9,71.7,124.4,69.9,125.5z"/>
</g>
</svg>
