<?xml version="1.0" encoding="utf-8"?>
<!-- Generator: Adobe Illustrator 23.0.3, SVG Export Plug-In . SVG Version: 6.00 Build 0)  -->
<svg version="1.1" id="Layer_1" xmlns="http://www.w3.org/2000/svg" xmlns:xlink="http://www.w3.org/1999/xlink" x="0px" y="0px"
	 viewBox="0 0 184.3 184.3" style="enable-background:new 0 0 184.3 184.3;" xml:space="preserve">
<g id="Layer_x0020_1">
	<path d="M76.9,141.8c-0.2-3.6-1.6,0.7-0.2-6.3c1.6-7.4,3.4-9,4.9-18.7c0.4-2.3,0.9-4.3,1.3-6.7c0.5-5.4,2.2-7.7,3.4-12.4l1.6-5.9
		c2-0.2,1.8,0.9,2.7,2.5l5,9.4c1.3,2,2.2,4.1,3.4,6.3c2,4,0.7,2.2,3.4,6.3c1.3,1.8,1.8,4.7,2.9,6.8c1.6,3.4,8.8,12.8,9.2,14.9
		c0.2,1.3-0.9,2.2-1.3,3.6c0.7,1.1,1.6,1.4,1.8,2.5c0.4,2-0.4,2.2,0.7,3.6H75.3c0.5-1.6-0.2-2.9,0-4.7
		C75.7,142.7,76,142.5,76.9,141.8z M163.5,126.8c0.4,1.6-0.2,0.7,0.7,0.9c1.3,0.2,9-2.5,10.4-3.4c3.4-1.8,6.7-4.5,8.5-7.4
		c2.2-3.1,3.8-7.4,3.6-12.2c0-3.4-2-9.7-3.4-12.2c-0.2,0.4,0-0.5-0.2,0.5c-0.4,1.6,0.5,3.1,1.3,5c4.3,12.8-2.7,23.2-14.9,27.2
		C168,125.6,164,126.5,163.5,126.8z M139.2,147.9h-3.8c-0.4-0.9-0.5-0.9-1.1-1.6c-3.8-6.1-1.6-10.4-1.1-16c0.4-3.6-0.4-7.2,0-11
		c0.2-3.4,0.4-7,0.5-10.4c0.9,0.7,1.8,2.9,2.7,4c3.2,4,2.9,3.2,6.1,7.7c1.3,1.8,1.6,2.5,1.4,5.4
		C143.2,135.3,136.5,134.8,139.2,147.9z M183.7,85.4l2,0.2c0,2.2-0.2,2.2-2.3,2.5L183.7,85.4z M175.9,84.4c1.8,0.2,1.6-0.2,2.2,1.4
		c0.4,0.7,0.7,1.3,0.9,2l-2.9-1.1L175.9,84.4z M141.2,73c-0.2-0.9-0.4-1.8-0.4-2.7c0-1.3,0-1.6,0.9-2
		C141.9,69.2,141.2,71.8,141.2,73z M75.5,67.4c-3.2,0.2-8.5-1.6-11-3.1l0.7-2c0.2-0.9-0.2-1.6-0.5-2.2c-0.7-1.1-2.7-1.8-4.1-0.9
		c-1.1-0.9-1.3-2.3-3.2-2.2c-1.8,0-2.9,1.1-2.9,3.1c0,2.3,1.4,2.3,2.7,3.2c1.1,0.7,1.6,1.3,3.6,2.3c3.6,2,12.2,7,16.9,7
		c0.5-1.1,0.9-0.9,1.6-2.2c1.6-3.1,1.6-5.4,2.7-8.3l0.5-1.1c0.4,4,0.9,8.1-0.2,11.9c-0.7,2.2-1.3,2.3-2.2,4.1
		c-0.9,1.4-1.1,3.1-1.6,4.7c-2.5,7.7-4.3,12.2-3.1,21.6c1.1,7.6-1.6,14.9-2.2,22.3c-0.5,7-0.5,16.2-3.6,21.8l-20.2,0.2
		c2.5-11.7,2-11.7-1.4-22.3c-1.3-3.8-0.9-7.9,0-11.7c0.5-2.5,1.8-8.6,2.9-10.4c0.2,3.4,0.5,5.4,1.1,8.6c0.5,3.1,0.2,5.9,0.9,9
		c1.3,4.9,4,11,3.6,16.4c-0.9,0.5-1.6,0.2-2.3,1.4c-2.2,3.6-2,4.1,0.7,7.7l4.9,0.2c0.5-0.9,1.3-1.8,1.6-2.9H65
		c2.2-5.6,3.2-2-0.2-8.1H60c-0.5-8.6,0.5-15.3-1.3-23.8c-1.6-7-0.2-18.7-2.9-22.5c-1.6-2.3-6.3-2.2-8.8-3.6
		c-3.2-1.8-2.9-2.5-3.2-9.4c-0.2-4.3,3.8-13.9-1.4-15.1c-2.3-0.5-3.6,0.7-4.9,1.4c-4.5-4.1-14.6,0.2-14,7.9c0.2,4.3,1.3,4,2.2,6.7
		c0.9,2.3,1.8,4.3,3.2,6.3c1.4,2.2,2.3,0.5,4.1,0.2c-0.4,2.2-3.6,3.4-6.3,4.1c-5.4,1.6-6.5,0.2-8.5,7.9c-0.7,2.7-0.2,1.8-1.8,3.4
		s-2.5,4.9-3.4,7.4c-1.3-0.5-4.3-3.1-4.9-4C7.3,102,5.5,98.6,4.9,97h3.2c2.5-3.2,2.9-4.5,0.5-7.6c-0.9-1.3,0-0.5-1.1-0.9
		c-4.3,0-3.6-0.9-5.6,2l-3.6,0.2c-4.3,6.7-1.4,3.8-0.2,8.6h3.2c1.8,2.9,8.3,16.9,11,17.6c2.9,0.7,6.5-4.3,7.7-6.3
		c1.6-2.5,3.4-6.8,4.3-10.3c3.1,3.2,3.6,14.6,0.5,18.5c-3.2,4.7-7.2,9-8.1,15.1c-0.7,5.2,0.9,9,1.8,13.7H5.1l-0.2,5.2H175v-5.2
		h-10.1c0-4.1-1.6-7.6-1.6-11.9c-0.2-10.8-2.9-13.1-4.9-22.7c-1.3-6.3,0.5-4.9,1.4-9.4c0-0.2,0.2-0.5,0.2-0.9c0.2-0.5,0-0.4,0.4-0.7
		c1.1,1.8,5.4,5.6,7.4,7c2.2,1.4,7.2,4.7,10.4,4.3c2-4.3,3.4-12.8,4.1-18c0.9-6.5-0.7-5.9,3.8-7.4c1.3-6.5,2.2-2,2-5.4
		c-1.1-0.4-2.5-0.5-4-0.7c-0.9-1.3-1.6-3.1-4.7-2.3l-5.4,1.6c-0.9,1.8,0.2,1.1,0.7,2.5c1.1,3.1-0.9,4,4.3,4.7c0,3.2-0.5,5.9-1.8,8.5
		c-0.9,1.6-2.7,5.2-3.8,6.3c-2.9-2.3-1.1-4.3-7.6-7.7c-1.8-1.1-1.6-1.3-2.7-2.7c-1.6-2.2-3.8-3.4-6.7-4c-2.5-0.4-7.2-0.5-9-1.4
		l0.2-1.6c2-0.2,2.3,1.6,4.7,1.3c1.1-0.9,1.3-2.2,2-3.2c1.3-1.6,1.3-1.3,2.9-2.2c-0.2-6.3,5.2-10.3,0.4-16.9
		c-1.3-1.8-3.2-3.6-6.5-4.1c-5.2-0.9-5.6,1.1-7.4,2.9c-2.5-4-6.5-2.9-7.9,1.3c-1.8,5,0.2,8.1,0.4,12.8c0.2,2.7-1.8,9.2-3.2,10.8
		c-0.9,0.9-3.2,1.8-4.3,2.7c-2,1.4-2.5,1.3-2.7,4.5c-0.9,11.3-0.5,15.7,0.2,26.6c0.4,4.5,0.2,8.3,1.1,12.8c0.7,3.8,1.6,9,1.4,13
		h-8.1c-2.3-3.8-2.2-6.3-3.4-10.6c-0.5-1.8-1.3-3.2-2-5c-0.5-1.8-1.1-3.8-1.6-5.6c-1.1-3.8-1.8-6.8-3.4-10.4
		c-1.6-3.2-3.8-5.9-4.1-10.1c-0.9-11.5-3.6-11.7-5.6-22.5c-1.6-9-5.8-5.2,1.1-21.8c0.5,0.9,1.6,5.6,2.2,7c0.7,2.5,1.6,4.7,4.3,4.9
		c4.7,0.2,11.7-1.1,15.1-3.1c2-1.1,1.3-0.2,3.1,0.2c2.9,0.5,4.5-2.7,3.1-4.9c-0.2-0.4-2-1.6-2.5-2l-2.5-2c-2.9-2-6.3,2.3-3.8,4.7
		l1.4,1.3c-2.2,1.1-2,1.6-5.6,1.6c-2.2,0-4.7,0-6.8-0.5c-0.7-2.5-0.4-4.1-1.4-6.7c-1.3-2.5-0.9-3.6-1.8-6.3s-2-2.7-4.7-3.6
		c-2.2-0.7-4.3-1.8-4.7-3.8c3.1,1.3,2.9,0.7,5-2.2l2.2-3.6c2.5-4,0.9-9.5-4-10.8c-2.5-0.5-3.6,0.4-4.7,0.2c-0.5,0-6.3-4-5.9,3.4
		c0.2,4.9,0.4,5.6-0.7,10.4c-0.9,4-4.1,2.9-7.6,4c-2.9,0.9-3.4,4.3-4,7.6c-0.2,1.6-0.7,3.1-1.1,4.7C76,63.8,76,65.8,75.5,67.4z"/>
</g>
</svg>
