<?xml version="1.0" encoding="utf-8"?>
<!-- Generator: Adobe Illustrator 23.0.3, SVG Export Plug-In . SVG Version: 6.00 Build 0)  -->
<svg version="1.1" id="Layer_1" xmlns="http://www.w3.org/2000/svg" xmlns:xlink="http://www.w3.org/1999/xlink" x="0px" y="0px"
	 viewBox="0 0 184.3 184.3" style="enable-background:new 0 0 184.3 184.3;" xml:space="preserve">
<style type="text/css">
	.st0{fill:#010101;}
</style>
<g id="Layer_x0020_1">
	<g id="_2423323352432">
		<path class="st0" d="M51.4,90.5c-3.4,0-11.3-1.3-14-3.6c-3.2,2.2-6.5,5.2-6.5,10.4V138c0,6.8,6.3,12.4,14,12.4H109
			c5.6,0,8.5-2,11.2-4.9c4-4.3,2.9-9.4,2.9-12.8c0-2,0.4-2.5,0.4-4c0-1.6-0.4-2-0.4-4s0.4-2.5,0.4-4c0-1.6-0.4-2-0.4-4
			c0-2.2,0.4-2.7,0.4-4.1c0-1.6-0.4-1.8-0.4-4c0-2.3,0.5-3.2,0.4-5c-0.2-1.8-0.4-3.4-0.4-5.8c0-4.3-2.2-7.6-4.9-9.7
			c-0.2-0.2-0.2-0.2-0.7-0.5c-2.5-1.4-11.7,7.6-28.4-0.2c-0.9-0.5-2.9-2-3.6-2H68.1C67.2,85.3,60.2,90.5,51.4,90.5z"/>
		<path class="st0" d="M40.6,60.4c0-3.4,0.5-5.6,2.7-7.7c5.8-5.9,18.2-3.2,18.2,7.4c0,5.8-4.3,9.9-10.1,10.4
			C46,70.7,40.6,65.7,40.6,60.4z M102.9,70.5c-0.7,0-3.4-0.5-4-0.9c-10.3-3.8-8.1-20.7,4.3-20.3c10.1,0.5,13,12.1,7.4,17.8
			C109,68.5,105.6,70.5,102.9,70.5z M24.7,59.5c0,4,0.9,7.4,2.2,10.4c3.4,8.6,13,15.8,22.5,15.8c10.1,0,16.6-2.7,22.3-10.1
			c0.9-1.1,1.8-2.5,2.3-3.6c1.1-2.2,2.9-6.1,2.9-9.4h0.4c0,8.8,7,16.9,14.6,20.5c6.7,3.2,16,3.2,22.9-0.2c4.9-2.5,10.3-7.9,12.4-13
			c9-21.2-11.9-43.4-34.2-34.4c-4.1,1.6-7.6,4.7-10.3,7.9c-2.5,3.2-5.2,8.3-5.2,13h-0.4c0-2.9-1.6-7-2.7-9
			c-9.7-19.1-38-18.5-46.8,1.4C26,51.6,24.7,55.9,24.7,59.5z"/>
		<path class="st0" d="M127.5,105.1v25.7c2.2,1.4,23.4,14,25,14c4.3,0,6.5-1.1,6.5-6.5v-28.1c0.5-4.1,1.3-14.8-1.3-17.5
			c-3.6-4-7.6-0.7-11,1.3c-2.2,1.3-4.3,2.3-6.5,3.6L127.5,105.1z"/>
	</g>
</g>
</svg>
