<?xml version="1.0" encoding="utf-8"?>
<!-- Generator: Adobe Illustrator 23.0.3, SVG Export Plug-In . SVG Version: 6.00 Build 0)  -->
<svg version="1.1" id="Layer_1" xmlns="http://www.w3.org/2000/svg" xmlns:xlink="http://www.w3.org/1999/xlink" x="0px" y="0px"
	 viewBox="0 0 184.3 184.3" style="enable-background:new 0 0 184.3 184.3;" xml:space="preserve">
<g id="Layer_x0020_1">
	<g id="_2058087077360">
		<path d="M87.1,112.6h10.3c0-1.4,0.4-3.8,0.5-5.2c0.2-2,0.2-3.6,0.4-5.4l2-26.8c0.2-1.6,0.4-3.6,0.4-5.4c0-1.6,0.4-3.6,0.5-5.2
			c0.2-4.3,0.9-11.2,1.1-16.2c0-1.4,0.4-3.6,0.5-5.2c0.2-4.7,1.1-12.1,1.1-16.4h-23c0,3.8,1.3,17.3,1.6,21.2l2.3,32.2
			c0.2,1.4,0.4,3.6,0.4,5.2s0.5,3.8,0.5,5.4c0.2,4.5,0.9,11.2,1.1,16.2C86.7,108.8,87.1,111,87.1,112.6z"/>
		<path d="M73.6,118.7c0.9,0,1.6-0.5,2.3-1.1l6.8-4c-0.4-0.5-0.5-1.3-0.9-1.8L69.8,86c-0.5-1.4-1.1-2.5-1.8-4
			c-1.3-2.7-2.5-5-3.6-7.7c-0.4-0.9-0.5-1.3-0.9-2l-10.3-22l-9.9,5.6c-0.9,0.5-1.6,0.9-2.3,1.4l-7.6,4.3c0.4,0.5,0.7,1.1,1.3,1.6
			c0.5,0.7,0.9,1.1,1.3,1.8c0.9,1.3,1.6,2.3,2.5,3.6l22.7,31.9C62.3,102.5,73.4,118,73.6,118.7z"/>
		<path d="M110.9,118.7c0.2-0.9,6.7-9.4,7.6-10.8c0.9-1.3,1.6-2.3,2.5-3.6l30.2-42.7l-20-11.5l-29.3,63.5l6.7,3.8
			C109.1,118,109.8,118.6,110.9,118.7z"/>
		<path d="M118.6,130.8c1.1-0.2,2.5-0.9,3.4-1.3c8.5-3.4,18.4-8.3,27-12.1L173,107c-0.2-0.9-0.9-1.6-1.3-2.5l-4.3-7.4
			c-0.9-1.4-5.4-9.2-5.6-10.1c-0.9,0.2-40,29-41.8,30.4c-0.7,0.5-5.6,4.1-6.1,4.3c0.2,0.7,3.1,5.6,3.6,6.7
			C117.9,129.4,118.6,130.1,118.6,130.8z"/>
		<path d="M65.7,130.8c0.2-1.3,4.7-7.7,4.9-9c-0.9-0.2-11.3-8.3-12.1-8.6c-10.6-8.1-22.1-16-32.8-23.9c-0.7-0.5-2.5-2-3.2-2.2
			c-0.2,0.9-9.5,16.9-10.6,18.5c-0.4,0.5-0.5,0.7-0.7,1.4l16.9,7.4c1.1,0.5,2.2,0.9,3.4,1.6c1.3,0.5,2.2,1.1,3.4,1.6l20.2,9
			C56.9,127.2,64.6,130.8,65.7,130.8z"/>
		<path d="M91.1,157.4h2.2c5.6,0,10.4-3.8,13.1-7.6c1.6-2.3,2.9-6.7,2.9-9.5c-0.5-6.7-3.8-12.2-9.9-15.1c-9.7-4.5-20.7,1.1-23.4,11
			c-1.4,5.4,0,11.7,3.8,15.8C81.9,154.4,86.6,157.4,91.1,157.4z"/>
	</g>
</g>
</svg>
