<?xml version="1.0" encoding="utf-8"?>
<!-- Generator: Adobe Illustrator 23.0.3, SVG Export Plug-In . SVG Version: 6.00 Build 0)  -->
<svg version="1.1" id="Layer_1" xmlns="http://www.w3.org/2000/svg" xmlns:xlink="http://www.w3.org/1999/xlink" x="0px" y="0px"
	 viewBox="0 0 184.3 184.3" style="enable-background:new 0 0 184.3 184.3;" xml:space="preserve">
<g id="Layer_x0020_1">
	<g>
		<path d="M62.4,62.6c-1.1,5.9-1.8,10.3-1.1,16.7c0.5,4.7,2,10.6,3.8,14.4l1.3,2.9h-6.3H39.8c-3.2,0.5-11.9-0.9-13.5,0.7
			c-1.1,1.1-0.5,4.9-0.5,6.5c0,2.5,0,4.9,0,7.4v19.3c0.2,0.5,0,12.4,0,14c0,2.3-0.5,4.9,1.8,5.2c1.8,0.4,5-0.2,7,0.2
			c0.4,2-0.4,5.4,0.2,7.2c0.5,2.2,3.2,1.6,5.6,1.6c2.5,0,4.9,0,7.4,0c2.3,0,5.2,0.2,7.4,0l18.4,0.2h8.8h19.6h8.8h19.6
			c8.5-0.4,11,1.4,11-3.6c0-2.3,0-4.7,0-7c0-1.6-0.2-5.8,0-7v-28.4c0-1.1,0.2-0.9,0.7-1.3l2.7-2.5c3.2-3.2,6.7-7.9,9-12.4
			c3.6-7.6,5-13.3,5.2-23c-0.5-11.7-4-20.7-9.5-28.1c-2.9-4-5.8-6.7-9.4-9.5c-2.7-2.2-8.3-5.6-12.1-6.8c-4.5-2.2-11.3-3.1-16.7-3.2
			c-8.6,0.2-16.2,1.6-22.9,5.2c-3.2,1.4-6.1,3.6-8.6,5.6c-0.7,0.5-6.7,5.9-7,7.2c0,0-0.2,0-0.2,0.2l-1.6,2c-1.3,1.8-3.1,4.7-4,6.7
			C64.6,55.5,63.5,58.6,62.4,62.6z M83,96.4h-7.7h-3.8c-1.3-0.5-3.6-7.4-4.3-9.2c-1.1-3.4-1.8-7.6-2-11.3c0.9-0.4,5.2-3.6,5.9-4.3
			l6.5-4.7c0.9-0.7,1.3-0.4,2.5,0.2c3.6,1.3,7.4,2.7,11,4c1.8,0.5,1.3,0.4,2.7,4.5c0.7,1.8,1.3,3.6,2,5.4c0.7,1.8,1.3,3.6,2,5.4
			c0.4,1.1-0.4,1.4-0.9,2.2c-0.5,0.7-1.1,1.6-1.6,2.2c-0.2,0.4-0.7,0.9-0.9,1.3c-0.5,0.7-1.3,1.4-1.8,2.3c-0.5,0.7-1.3,1.3-1.8,2.2
			L83,96.4z M96.8,96.2c0.5-0.5,2.3-2.7,2.5-3.4c3.8-3.2,0.2-3.1,7.6-3.1c3.4,0,7.4-0.2,10.6,0l5.2,6.7h-5.9c-3.2-0.2-6.8,0-10.1,0
			C106,96.2,97.4,96.6,96.8,96.2z M72.2,100.7H77l-3.2,0.9c-4,0.9-6.5,3.4-7.2,3.6H48.4c-2.2,0.4-4.7-0.5-5,1.8
			c-0.2,1.3,0,1.8-0.5,3.1c-0.7,1.6-1.8,2.9-3.6,3.6c-1.3,0.5-1.8,0.4-2.9,0.5c-2.3,0.5-1.8,3.2-1.8,5.6c0.2,0.7,0,4,0,5
			c0,6.7-0.7,6.5,3.4,7.2c2.5,0.5,4.9,2.5,5.2,5.2c0.4,1.8,0.2,3.1,1.8,3.4c2.3,0.5,8.1-0.4,10.4,0.2h9.9c1.8,0,1.3-0.2,2.5,0.7
			c2.5,2,5.2,3.1,9.2,3.8H59.9H31.5h-1.6v-19.3v-10.8v-14.4h13.9h11.9L72.2,100.7z M68.7,154H59H38.9v-1.6v-2.9h25.4h26.6h28.4
			c2.5,0,5,0,7.6,0c2.7,0,5,0.5,5.2-2.5c0.2-2.5-0.2-13.9,0-15.1v-22.3h4.5v27V154h-10.8h-11H97.2h-11C86.2,154,68.7,154,68.7,154z
			 M124.9,32.9c0.7-0.4,3.8,1.3,4.7,1.6c4,2,10.4,6.5,13.3,10.1c2,2.5,2,1.4,1.1,4.1l-2.3,7.6c-0.2,1.1-0.7,2.2-0.9,3.2
			c-0.4,0.9-0.5,2.5-1.4,2.9c-1.8,0.9-9.5,3.4-12.4,4.5c-1.3,0.5-0.9,0.5-2.7-0.7c-0.5-0.4-0.7-0.5-1.3-0.9
			c-0.2-0.2-0.4-0.2-0.7-0.5c-0.4-0.4-0.2,0-0.4-0.4c-0.9-0.4-2-1.3-2.7-1.8c-0.9-0.7-7-5-7.2-5.4V41.7
			C113.7,41.3,122.7,33.8,124.9,32.9z M119.7,31.1c-1.1-0.7-3.2-0.5-4.5-0.9c-2.9-0.2-5.2-0.4-8.1-0.2c-1.6,0.2-6.1,0.5-7.2,1.1
			c0.5,0.5,1.6,1.3,2.3,1.8l7.4,5.2c0.5-0.2,1.4-0.9,2-1.3C113.7,35.4,118.2,32.5,119.7,31.1z M91.2,33.9c0.4-0.4,1.6-0.7,2.2-1.1
			c1.3-0.5,1.3-0.4,2.2,0.4l9.9,7.2c0.5,0.4,1.6,1.3,2.2,1.3v15.5c-0.4,0.7-2.5,1.8-3.2,2.5L95,66.5l-0.5,0.4
			c-0.7,0.5-0.7,0.4-1.3,0.2l-13.3-4.9c-0.4-0.4-2.3-6.8-2.5-7.9c-0.4-1.4-2.5-7-2.2-7.9l5.9-5.9c0.4-0.4,0.5-0.4,0.9-0.7
			C83.7,38.3,88.9,34.5,91.2,33.9z M109.4,109.7c0.9,0,0.4-0.2,0.7,0.5c0.4,0.5,0.4,2.5,2.9,5c1.3,1.3,3.2,2.7,5.6,3.1v4v5.2
			c-1.1,0.5-2,0.5-3.1,1.3c-1.8,1.1-3.2,2.5-4.3,4.3c-0.5,1.1-0.7,2.2-1.3,3.1h-2.2H94.7c0.7-1.4,1.6-2.7,2.3-4.3
			c1.1-2.7,0.9-3.8,1.4-5c0.2-3.8,0.4-6.1-0.5-9.7c-0.9-3.2-1.8-4.9-3.2-7.4L109.4,109.7z M123.1,123.2c-0.4-8.1,1.3-8.5-3.2-9.2
			c-2.2-0.4-4-1.6-4.9-3.4c-1.8-3.2,1.4-6.1-7.2-5.2c-4.9-0.4-11,0-16,0c-2.2,0-1.8-0.9-5.2-2.5c-2.3-1.1-3.6-1.3-6.1-1.8l31.9-0.2
			h15.1v12.6v14.4v17.5h-10.8H88.4h-7.7c2.5-0.7,3.8-0.7,6.1-1.8c6.3-3.4,1.3-2.5,11.5-2.5c4.7,0,9.5-0.2,14,0
			c2.7-0.9,1.4-2.2,2.3-4.7c0.7-1.6,1.8-2.9,3.6-3.6c1.8-0.9,4.3,0,4.9-2.2C123.5,128.4,122.7,124.8,123.1,123.2z M52.5,109.7h10.1
			c-1.3,2.2-2.2,3.6-3.1,6.5c-0.9,3.4-0.9,5.6-0.9,9c0.2,0.5,0.4,3.2,1.4,6.1c0.7,2,1.6,3.2,2.5,4.9H50.9c-0.7,0.2-2.7,0.2-3.6-0.2
			c-0.4-0.5-0.7-2.2-1.3-3.1c-0.7-1.1-1.1-1.6-1.8-2.3c-2.5-2.5-3.4-2.2-5.6-3.1v-3.6v-5.8c0.9-0.5,2-0.5,3.1-1.3
			c1.8-1.1,3.2-2.5,4.3-4.3c0.7-1.1,0.7-2,1.3-3.1L52.5,109.7z M90.9,149.7c0.2-0.5-0.2-0.2,0.4-0.5c0.2-0.2,0.2-0.4,0.4-0.4
			l0.2-0.2l0,0l0,0l0,0c0.5-0.4-0.5,1.1,0,0l0,0l0,0l0,0l0,0c0,0,0,0-0.2,0.2c0,0-0.2-0.2-0.7-0.5c-0.4-0.4-0.5-0.5-0.9-0.9
			c-0.9-0.9-1.4-1.3-1.8-2L90.9,149.7z M91.8,148.6C91.6,148.6,91.6,148.6,91.8,148.6L91.8,148.6z M83.5,140
			c-8.3,2.9-16-2-19.1-10.1c-0.7-1.6-1.8-7-1.1-8.8c0-4.3,2.3-8.1,4.3-10.4c2-2.3,4.7-4.1,7.9-4.9l1.6-0.4c2.2,0.4,3.2-0.5,7.2,1.3
			c5.6,2.3,9.9,9.4,9.7,16c0.4,5.9-2.3,11.5-6.5,14.9C85.8,139.1,85.3,138.9,83.5,140z M76.5,112.4c-2,0.4-4,2.7-4.3,4.9
			c-0.7,4.1,2.2,7.4,5.9,7.9c1.4,0.2,2.5,0.5,2.7,1.8c0.2,1.4-0.9,2.5-2.2,2.5c-2.5,0-1.4-2.2-2.9-2.2H72c0.2,3.1,2,5.6,4.5,6.1v2.7
			l4.5,0.2v-2.5c2.2-1.3,3.8-2.2,4.3-4.9c0.9-4.1-2-7.6-5.8-8.1c-1.6-0.2-2.5-0.4-2.9-1.8c-0.4-1.4,0.7-2.5,2-2.7
			c2.5-0.2,1.6,2.2,3.1,2.2h3.8c-0.2-2.5-1.6-5.6-4.5-6.1v-2.5c-1.4-0.2-2.9-0.2-4.5,0V112.4z M135.3,105.2h-3.4v-1.6
			c0.2-0.7-0.2-0.2,0.5-0.4c0,0,0.5,0,0.7,0h9.9c-0.4,0.7-2,2.3-2.7,2.9c0,0-0.2-0.2-0.2,0c0,0.2-0.4-0.7-1.8-0.9
			C137.5,105.2,136.4,105.2,135.3,105.2z M122.9,89.4c-0.2-0.5-1.1-1.4-1.4-2c-0.5-0.7,0.2-1.4,0.4-2.3l4.7-12.2
			c0-0.2,0.4-1.1,0.5-1.3c0.4-0.5,0.5-0.2,1.3-0.7c0.7,0,9.7-3.4,11.2-4c1.4-0.5,1.4-0.9,2.5,0l6.7,5c1.4,1.1,2.9,2.2,4.3,3.2
			c1.3,0.9,1.3,0.7,1.1,2.3c-0.4,3.4-0.9,6.5-1.8,9.7c-0.4,0.9-2,5.2-2,5.6c0,0-0.2,0-0.2,0.2c-0.7,0.9-2.7,5.4-3.4,5.6l-14.6,0.2
			l-0.2-0.4c0,0-0.2-0.2-0.2-0.4c-0.5-1.8-1.6-1.8-3.6-1.8L122.9,89.4z M153.9,68.9l0.2,1.4c-0.5-0.4-9.4-6.7-9.9-7.4l1.1-3.6
			l2.5-8.1c1.8,1.6,4.5,9.4,5.2,12.4C153.3,65.4,153.5,67.4,153.9,68.9z M117.3,85.2h-14.6c-0.5-0.2-2.7-6.7-2.9-7.2
			c-0.9-2.3-2-5-2.7-7.4c0.5-0.7,0.9-0.5,1.3-1.3c0.5-0.2,4.9-3.2,5.8-4l5.8-4.1l3.1,2.2c1.1,0.7,2.2,1.6,3.2,2.3
			c1.1,0.7,2.2,1.6,3.2,2.3l3.2,2.2L117.3,85.2z M68.6,68.3c-1.1,0.7-2,1.4-2.9,2c0.2-3.2,1.3-8.3,2.3-10.8c0.2-1.4,3.1-7.2,3.8-7.9
			c0.4,0.5,3.6,10.8,3.8,11.7C74.7,63.8,68.7,68,68.6,68.3z"/>
	</g>
</g>
</svg>
