<?xml version="1.0" encoding="utf-8"?>
<!-- Generator: Adobe Illustrator 23.0.3, SVG Export Plug-In . SVG Version: 6.00 Build 0)  -->
<svg version="1.1" id="Layer_1" xmlns="http://www.w3.org/2000/svg" xmlns:xlink="http://www.w3.org/1999/xlink" x="0px" y="0px"
	 viewBox="0 0 184.3 184.3" style="enable-background:new 0 0 184.3 184.3;" xml:space="preserve">
<style type="text/css">
	.st0{fill:#FFFFFF;}
</style>
<g id="Layer_x0020_1">
	<g id="_2058149479728">
		<path class="st0" d="M87.1,150.6v-13.9c0-7.2,6.8-11.5,11.5-5.8c1.3,1.4,1.8,3.2,1.8,6.1c0,3.1,0.2,12.1-0.2,14.6
			c-1.8,0.5-11.3,0.5-13,0C87.3,151.1,87.1,151.1,87.1,150.6z M147.2,148.1v5.9c-0.2,1.3-0.5,2-1.6,2H41.7c-0.7,0-1.3-1.1-1.3-2
			v-5.2c0.2-2.7,0.7-2.5,3.2-2.5c0-15.5-0.4-14.4-0.4-27.2H144v27.2C145.4,146.1,147.2,145.7,147.2,148.1z M43.3,117.8
			c0-0.9,0-2,0-3.1c-16.9,0,31.3-6.3,32.4-7.4C77.2,106,92.3,91.9,93,91.6c1.3-1.3,1.8,0.2,4.5,2.3c0.5,0.5,0.7,0.7,1.3,1.3
			c0.5,0.5,0.9,0.7,1.3,1.1l10.6,9.7c0.9,0.9,1.8,1.6,2.7,2.5c0.7,0.7,43.7,7.7,30.6,7.7v1.6C144,117.8,43.3,117.8,43.3,117.8z"/>
		<path class="st0" d="M62.4,62.2c8.6-4.7,7-4.7,11-12.8l3.4,0.2c2.9,5.6,2.9,8.6,10.3,12.2c0.4,0.2,0.7,0.4,1.1,0.5
			c0.7,0.4,0.5,0.2,0.9,0.7c-0.2,8.1-5.9,14.4-14.2,14.2C67.1,77.2,61.2,71,61,63.1L62.4,62.2z M99.5,62.8c4.9-1.6,8.5-4.7,10.6-8.8
			c2.3-4.9,0.5-4.5,5.4-4.3c1.3,5.6,3.8,8.6,8.1,11.5c0.9,0.5,1.1,0.5,2,1.1l2,1.3c-0.2,7.9-6.3,14.8-14.6,14.2
			C105.4,77.2,99,70.7,99.5,62.8z M126.3,58.1c-2.9-0.9-5.4-4-6.7-7C122.9,52.3,125.2,55,126.3,58.1z M62.2,58.3
			c0.9-2.9,4-6.3,6.7-7C67.8,54.1,65.1,57.2,62.2,58.3z M100.8,58.1c1.1-3.1,3.6-6.3,6.5-7C106,54.3,104,57.2,100.8,58.1z
			 M88.2,58.3c-2.9-0.9-5.6-4.1-6.7-7C84.2,52.1,87.1,55.2,88.2,58.3z M118.8,46.9c0-7,3.2-11.3,8.1-13.7c5.8-2.7,12.8-0.4,16,3.1
			c8.8,9.9,0.9,25.6-11.9,23.4C128.8,55,126.3,48.2,118.8,46.9z M80.4,46.7c-0.7-19.6,28.8-19.4,27.9,0c-4.9,1.4-8.3,4.7-10.6,8.8
			c-2.3,4.5,0,4.5-5.4,4.3C90.7,53.4,86.9,48.5,80.4,46.7z M57.9,59.9c-14.6,0.9-20.7-14.4-12.1-23.8c8.3-9,24.7-3.1,24.1,10.6
			C63.9,48.4,59.4,53.4,57.9,59.9z M38.5,42.4v6.5c1.1,2,0.9,3.6,2.3,5.9c4.7,8.3,11,7.7,16.7,8.6c1.3,10.6,7,17.6,17.8,17.5
			c5.4,0,10.1-2.5,12.6-5.2c3.4-3.8,3.6-6.5,5-12.4h2.5c1.6,6.8,1.1,8.1,5.6,12.4c7.4,7.4,19.1,6.3,25,0c3.2-3.4,4.1-6.3,5-12.4
			c9.7-0.9,13.9-2.9,17.3-9.7c3.4-7,1.3-15.5-2.7-19.8c-8.5-9-28.6-8.3-30.6,12.1h-2.9c-1.8-7-0.9-7.7-5.4-12.6
			c-7-7.4-27-9.2-30.2,12.6h-2.9c-0.9-5.9-1.6-8.5-4.9-12.1c-6.1-6.7-17.5-7.2-23.9-1.6C39.6,36.8,40.3,38.6,38.5,42.4z"/>
	</g>
</g>
</svg>
