<?xml version="1.0" encoding="utf-8"?>
<!-- Generator: Adobe Illustrator 23.0.3, SVG Export Plug-In . SVG Version: 6.00 Build 0)  -->
<svg version="1.1" id="Layer_1" xmlns="http://www.w3.org/2000/svg" xmlns:xlink="http://www.w3.org/1999/xlink" x="0px" y="0px"
	 viewBox="0 0 184.3 184.3" style="enable-background:new 0 0 184.3 184.3;" xml:space="preserve">
<g id="Layer_x0020_1">
	<g id="_2458315770992">
		<path d="M129.4,140.5L129.4,140.5c-0.5,0.9-1.1,1.3-1.6,1.8s-1.1,1.3-1.8,1.6v0.2c-0.4,0.7-1.1,1.3-1.6,1.8
			c-0.7,0.7-1.4,0.5-2.9,0.5c-1.6,0-5.4,0.2-6.7,0v-18.5l1.3-0.5c0.4-0.4,5.8-2.7,6.3-2.9c0.2-0.2,0-0.2,0.4-0.2
			c0.9-0.5,6.5-2.9,6.8-3.1c0.4-0.4,1.3-0.7,1.8-0.7c0.5-0.7,1.6-0.9,2.5-0.5l2.2,0.9c0.2,0.2,0.2,0.2,0.4,0.2
			c0.5,0,2.7,0.7,2.9,1.1l11.5,4.5V146c-0.5,0-8.5,0.4-9-0.2c-0.5-0.2-1.6-1.3-1.8-1.8c-0.5-0.4-0.2,0-0.5-0.5
			c-0.4-0.2,0,0.2-0.4-0.2l-1.1-1.1c-0.4-0.2-0.4-0.4-0.7-0.7l-0.5-0.9c-0.5-0.4-0.4,0-0.5-0.5l-2.5-2.3c-0.2-0.4-0.2-0.2-0.4-0.5
			l-0.7-0.2c-0.2,0.4,0,0.2-0.2,0.5L129.4,140.5z M71.6,125.9c1.1-0.2,2.2-0.9,3.2-0.9c0.5-0.5,2.7-1.3,3.6-1.4
			c1.1-0.5,2.5-1.3,3.6-1.6c0.2-0.2,1.1-0.5,1.4-0.9c0.5-0.4,1.1-0.7,1.6-0.7c0.5-0.7,1.8-1.3,2.3-1.6v18.2h-18v-10.8L71.6,125.9z
			 M43,127l1.3,0.2c0.9,0.2,4.1,0.4,4.5,0.7l3.1,0.2l5.9,0.2h0.2l2.3-0.2v9.4h-18V127C43.3,126.8,42.6,126.8,43,127z M112.6,118.5
			c-0.4,0.5-1.3,0.7-1.8,0.9c-0.7,0.4-1.3,0.7-2,0.7c-0.5,0.7-1.8,0.7-2.7,2.3c-0.7,1.3-0.5,3.1-0.5,4.7v3.1v3.8v2.9
			c-0.4,0.4,0.2,0.2-0.9,0.2c-0.4,0-0.9,0-1.3,0h-6.3c-0.5-0.2-0.2,0.2-0.5-0.2V134v-3.8v-3.1v-3.8v-3.1v-3.8v-3.1v-1.1
			c0.2-0.7,0.4-0.7,1.1-1.3c0.4-0.4,0.7-0.7,1.3-0.9l0.5-0.5c0.2-0.4,0-0.2,0.2-0.4l14.9-13.1v21.1
			C114.3,118.1,113.4,118.5,112.6,118.5z M126.3,112.4c-0.4,0.5-2.2,1.1-2.5,1.3V110V107v-3.8v-3.1v-3.8v-3.1v-3.8
			c0-1.3,0-0.9,0.7-1.6c0.2-0.2,0.4-0.4,0.7-0.5c0.5-0.5,0.2-0.4,0.7-0.4c0.5-0.9,4-3.1,5-3.8c1.1-0.7,4.3-2.9,5.4-3.2
			c0.4-0.5,4.5-2.3,5.6-2.5v1.8v3.6v3.1v3.6v3.1v3.6v3.1v3.6v3.1v3.6v3.1l-2.2-0.9c-2.5-0.7-4.7-2.3-7.7-2.2
			C130.8,110.6,127,112.4,126.3,112.4z M153.5,65.2l-3.8,0.7c-0.5,0.2-5.8,1.3-6.1,1.3c-0.4,0.4-3.4,1.3-4.1,1.4
			c-0.2,0.2-6.1,2.7-6.3,2.7c-0.4,0.4-1.3,0.9-1.8,1.1c-1.4,0.9-4.5,2.9-5.4,3.2c-0.2,0.4-0.4,0.4-0.7,0.5c-3.2,2-8.5,6.5-11.5,9
			c-0.4,0.4-0.4,0.4-0.7,0.5c-0.4,0.7-0.2,0.4-0.7,0.7c-0.2,0.2,0.2-0.2-0.2,0.4c-0.4,0.5-2,1.8-2.5,2.2c-0.2,0.5-0.5,0.7-1.1,0.9
			l-0.2,0.2c-0.4,0.5-1.4,1.6-2.2,1.8c-0.4,0.5-0.9,1.1-1.4,1.3L99,98.5c-2.7,2.2-5,4.5-8.3,7c-1.1,0.9-4,3.2-5.2,3.8l-0.7,0.5
			c-0.4,0.2-0.5,0.2-0.9,0.5c-0.9,0.5-4.1,2.5-4.9,2.7c-0.9,1.1-5.4,2.5-7,3.2c-1.6,0.4-4.9,1.8-6.3,1.6c0,0-0.2,0-0.2,0.2l-4,0.7
			c-1.6,0.5-13.1,0.4-14.4-0.5c-0.7,0-1.4,0-2.2-0.2c-1.3-0.2-2.7-0.5-4-0.7c-1.1-0.2-2.9-0.5-3.4-1.3c-0.7,0-2.5-0.5-2.9-0.9
			c-4-1.1-9.4-4.7-10.3-4.9v10.4c1.1,0.4,2.3,1.1,3.6,1.6c0.9,0.4,2.9,0.9,3.4,1.4c0.5,0,1.4,0.4,1.8,0.5c0.4,0.4,0.2-0.2,0.2,0.5
			v12.2h-2.5h-3.2h-3.4l0,0v3.6v3.1v2.2l81.4,0.2v1.4v3.1v3.8v0.9c4.1,0.4,9.4,0,13.5,0c12.8,0.2,26.5-0.2,39.2,0
			c1.8,0,1.4,0.4,1.4-1.3v-3.1v-3.8v-3.1v-3.8v-3.1v-3.8v-3.1c0-1.8,0.2-6.1,0-7.7c-0.2-1.1-0.7-2-1.4-2.5c-0.5-0.7-1.8-0.9-2.5-1.6
			c-0.7,0-4.3-1.4-5.2-2v-3.2v-3.6v-3.1V103V100v-3.8v-3.1v-3.8v-3.1v-3.6v-3.1V76v-1.3c0.7,0,1.3-0.4,1.8-0.2
			c0.4-0.2,2.3-0.7,4-0.5l0.7-0.2c0.7,0,2.2,0,2.5-0.2v-1.3v-3.1v-3.8l0.2-0.9l-3.6,0.2C155.5,65,154.4,65.4,153.5,65.2z"/>
		<path d="M81.9,30.8L81.9,30.8l-1.3,1.3c-0.4,1.1-1.1,1.6-1.6,3.1c-0.5,1.4-0.4,2.2-0.5,3.6c-0.9,0.4-2.5,0.7-3.4,0.9
			c-1.3,0.4-2.3,0.7-3.4,1.1c-0.4,0.4-2.3,1.1-2.9,1.1l-3.1,1.8c-1.1,0.5-2,1.3-2.9,1.6c-1.4-0.9-0.4-1.1-4.7-2.9L56.5,42
			c-4-0.2-6.7,1.4-8.6,4.3c-0.7,1.3-0.7,1.6-1.1,2.7l-0.2,0.5v2.5c0.4,0.4,0.4,1.4,0.5,2c0.2,0.7,0.5,1.3,0.9,1.8l0,0l2,2.2
			c0,0.2-2.3,4.3-2.9,4.7c0,1.1-2.2,4.9-2.5,6.7L43.3,74c-1.1,0.2-1.8,0-3.1,0.2c-1.1,0.2-1.6,0.7-2.5,0.9c-0.2,0.4-0.7,0.5-1.1,0.9
			c-2.2,1.8-2.2,2.7-2.5,3.4c-0.5,1.8-0.7,2.3-0.5,4.5l0.4,2.2c0.5,0.5,0.9,2.2,2.9,3.8c0.2,0.2,0.4,0.2,0.5,0.4l0.7,0.5
			c0.5,0,1.6,0.5,2.3,0.7c1.1,0.2,1.8,0.2,3.1,0.2c0.4,0.5,1.1,3.4,0.9,4c0.2,0.2,0-0.2,0.2,0.4c0.2,0.2,0.2,0.4,0.2,0.5l1.1,2.9
			c0.5,1.3,1.3,2.5,1.6,3.8c0.2,0.2,2.2,3.8,2.5,4.3c1.6,2.5,1.1,2.2,4.7,2.3l4.7-0.2c0.5,0,1.3-0.2,1.8-0.2c0.4,0,0.5-0.2,0.9-0.2
			c0,0,0.4,0,0.4-0.2L63,109c-1.3-1.4-6.7-7.2-7-9c-0.2-0.2-0.2,0-0.2-0.4c-0.9-1.3-2.5-5.6-2.9-6.8c-0.4-0.7-0.7-2.2-0.7-3.1
			c-0.5-0.7-0.7-3.6-0.7-4.3l-0.2-2.7c0-1.1-0.2-3.2,0.4-4c-0.2-0.9,0-1.8,0.4-2.5c0-0.7,0.2-1.4,0.4-2.2c0-0.4,0.2-0.7,0.2-0.9
			c0.2-0.5,0.2-0.5,0.4-0.9c0-1.1,2-5.9,2.5-6.5c0.7-2.3,4.1-6.1,5.4-7.7c1.1-1.3,5.4-5.2,7.4-5.9c0.5-0.7,5.2-3.2,6.5-3.2
			c0.5-0.5,2.5-1.1,3.2-1.3c1.3-0.4,2.5-0.5,3.8-0.7c0.5-0.2,2-0.4,2.9-0.2c0.5-0.2,3.6-0.4,4.3-0.2c1.1,0.2-0.5-0.2,0.4,0h0.2h0.2
			c0.9-0.2,1.6,0.2,2.3,0c0.9,0.2,2.7,0.4,3.6,0.7h0.2c1.3-0.2,5.8,1.6,6.5,2.2c3.2,0.9,8.6,5,11,7.4c1.4,1.4,2.9,3.1,4.1,5
			c0.5,0.9,1.3,1.8,1.8,2.9l1.6,3.8l2-1.3c0.4-0.5,4.7-2.9,5.6-3.2l-0.2-1.1l-2.2-3.6l-0.7-1.3c0-0.2,1.8-2.2,2-2.2
			c0.7-1.8,1.4-2.7,1.3-5.4c-0.2-2.7-1.1-3.2-1.6-5c-0.4-0.2-0.4-0.2-0.5-0.4c-0.4-0.4-0.2-0.2-0.2-0.5c-0.5-0.4-0.9-0.7-1.6-1.1
			c-0.5-0.4-0.9-0.5-1.6-0.9c-1.3-0.5-2.7-0.7-4.3-0.7c-3.2,0.5-4.5,1.6-6.1,3.2c-1.3-0.4-2.5-1.4-3.8-2.2c-0.5-0.4-1.3-0.5-2-0.9
			c-0.5-0.4-1.4-0.5-1.8-0.9c-0.5,0-2.3-0.5-2.7-0.9c-1.8-0.5-3.8-1.3-5.8-1.6c0-1.6,0-2.2-0.2-3.6c-1.1-2-0.7-2.5-2.9-4.3l-1.3-0.9
			c-2-0.4-2.9-1.1-5.6-0.9c-0.9,0.2-1.8,0.4-2.5,0.7C83.1,29.9,82.6,30.5,81.9,30.8z"/>
		<path d="M82.2,75.7c-0.4,0.5-0.4,0.5-0.9,0.7l-0.5,0.7c-0.2,0.2-0.4,0.4-0.5,0.5c-1.1,1.4-1.6,3.2-1.8,5.2c0,1.6,0.2,2.7,0.9,4.1
			c0.7,1.4,1.6,2,2,2.9c0.7,0,0.2,0,0.4,0.2c1.6,0.9,2.2,1.6,4.7,1.8c2.9,0.4,3.6-0.4,5.6-1.1c0.7-0.7,1.6-1.1,2.2-1.8
			c0.4-0.4,0.5-0.7,0.9-1.3c0.2-0.4,0.5-0.9,0.7-1.3c0.4-1.4,0.5-2,0.7-3.8l-0.5-3.1c0,0,0,0,0-0.2c0,0-0.2,0-0.2-0.2l-0.2-0.2
			c-2.5-4.5-3.2-3.2-4.3-4.7c-1.6,0-2.5-1.1-5.2-0.7C84,74.4,82.9,75.5,82.2,75.7z"/>
	</g>
</g>
</svg>
