<?xml version="1.0" encoding="utf-8"?>
<!-- Generator: Adobe Illustrator 23.0.3, SVG Export Plug-In . SVG Version: 6.00 Build 0)  -->
<svg version="1.1" id="Layer_1" xmlns="http://www.w3.org/2000/svg" xmlns:xlink="http://www.w3.org/1999/xlink" x="0px" y="0px"
	 viewBox="0 0 184.3 184.3" style="enable-background:new 0 0 184.3 184.3;" xml:space="preserve">
<style type="text/css">
	.st0{fill:#FFFFFF;}
</style>
<g id="Layer_x0020_1">
	<g id="_2458315060320">
		<path class="st0" d="M59.1,111.7c0,3.2,8.3-0.9,7.2,2.5l-7.7,13.9c-1.4,2.3-3.6,5.4-3.6,7.4c5.4,1.3,23.2-0.7,26.6,0.9
			c2,2-1.8,16.9,2.2,16.9c25.6,0,18.9,2.9,19.8-15.3c0.2-2.7,0.9-2.2,4-2.2h17.8c6.7,0,6.8,0.7-0.5-11.7c-1.3-2-2-3.4-3.1-5.4
			c-0.5-1.1-0.9-1.6-1.6-2.7c-0.7-1.3-1.1-1.4-1.1-3.1c8.3,0,8.6,0.5,6.1-4l-8.3-14.6c-1.6-3.1-3.2-4.3-3.2-6.8
			c7.4,0,7,1.8-3.4-16.4c-1.4-2.5-2.5-3.1-2.5-5.6c3.4,0,3.1,0.2,5.9-0.5c0-2.5-8.6-15.5-10.1-17.8c-1.8-3.1-3.4-5.8-5.2-8.6
			c-0.9-1.4-1.6-2.9-2.5-4.3c-1.6-2.7-1.6-3.4-3.8-3.4c-0.7,1.6-17.8,29.3-19.4,32.2c-3.2,5.2,7.9-0.2,4.9,4.9
			c-0.5,1.1-1.3,2-1.8,2.9l-7.7,13.5c-4.5,7.4,6.5,0.4,3.6,5.6L59.1,111.7z"/>
		<path class="st0" d="M33,86.3h4.3c0,2.7-3.4,7-4.7,9.4c-3.6,6.5-5.4,6.8,0.4,6.8c-0.2,3.4-9,14.8-9.4,18.2c2,0.5,2.9,0.4,5.6,0.4
			c-0.5,2.2-6.8,11.7-7.9,14c-1.4,3.2,1.1,2.3,4.1,2.3c17.6-0.2,14.9-1.8,14.8,7.6c0,6.1-1.3,5,13.1,5c3.6,0,2.5-4.1,2.5-11.9
			c-2.9-0.2-4.1-2.3-3.6-4.7l9.9-17.6c-13.9-0.4,1.8-14.9,1.8-19.1l-4-7.4c-0.9-1.3-1.1-1.3-1.1-3.2h4.3c-0.2-1.8-2.3-4.9-3.2-6.3
			c-1.3-2.2-2.5-4.1-3.8-6.3c-1.3-2-6.5-11.2-7.7-12.1c-1.6,0.4-2.9,3.2-4.1,5.6C42.2,69.9,33.2,84.1,33,86.3z"/>
		<path class="st0" d="M120.9,96.4L127,107c5.8,9.4-2.7,7.7-3.6,8.6c-0.7,0.7-0.7-0.4,1.3,2.7c0.7,1.3,1.1,2.2,1.8,3.2
			c3.2,5.8,9.4,13,5.2,15.8c-3.4,2.3-3.2-3.4-3.2,9.9c0,1.3,0.2,1.3,0.4,2.2c3.8,0.9,8.6,0.4,12.6,0.4c4.1,0,2.2-4.7,2.5-10.6
			c0.2-3.2,2-2,11.5-2c1.6,0,3.1,0,4.7,0c6.7,0.2,2.3-2.3-5-16.6c2.5,0,3.4,0,5.6-0.4c0-2.2-6.7-12.8-8.3-15.5
			c-0.7-1.3-0.9-1.1-1.1-2.7h3.8c-0.2-1.8-0.9-2.9-1.8-4.1c-1.4-2.3-6.1-9.7-6.3-11.9h4.3c0-2.5-2.2-4.7-3.2-6.5l-7.6-12.8
			c-1.8-2.9-2.5-5.2-4.3-5.8c-0.9,0.7-2.2,3.1-2.9,4.3L122.1,84c-3.1,4.9,6.3-1.1,2.9,4.9C123.6,91,121.2,94.6,120.9,96.4z"/>
	</g>
</g>
</svg>
