<?xml version="1.0" encoding="utf-8"?>
<!-- Generator: Adobe Illustrator 23.0.3, SVG Export Plug-In . SVG Version: 6.00 Build 0)  -->
<svg version="1.1" id="Layer_1" xmlns="http://www.w3.org/2000/svg" xmlns:xlink="http://www.w3.org/1999/xlink" x="0px" y="0px"
	 viewBox="0 0 184.3 184.3" style="enable-background:new 0 0 184.3 184.3;" xml:space="preserve">
<g id="Layer_x0020_1">
	<g id="_2058149445808">
		<path d="M16.5,127.2l0.2,5.6c5.9-3.2,9.9-9.7,18.4-2.5c8.8,7.4,11,4.7,18.4-0.5c9.2-6.7,13.1,1.6,18.5,4c9.4,4,11.7-5.6,19.4-6.1
			c9.7-0.5,9,8.8,19.3,6.7c7-1.4,10.1-10.8,19.4-5.2c3.1,1.8,8.5,10.8,18.9,2c7.9-6.7,11.9-3.1,18.4,2l0.4-5.4
			c-4.9-4.3-10.8-8.6-18-3.1c-16.7,13-15.7-6.7-29.2-2.2c-4,1.3-4.3,4.5-8.3,5.8c-10.6,3.4-11.5-6.3-20.3-6.3
			c-8.6,0-9.4,9.7-19.6,6.5c-5.4-1.6-9.7-11-18.7-4.5c-6.5,4.5-9.7,8.6-18.7,0.9C26.2,117.1,18.8,125.7,16.5,127.2z"/>
		<path d="M16.6,84.7c6.1-3.1,9.2-9.4,18.2-2c15.3,12.4,15.7-7.9,29.3-2.2c3.8,1.6,4.1,4.1,7.7,5.4c10.4,4,11.2-6.3,20-6.3
			c9,0,9.4,9.4,19.4,6.5c5.2-1.4,10.6-11,19.3-4.7c6.1,4.7,9.4,8.5,18.2,1.6c9.9-7.6,11-2.2,18.7,1.6l0.4-4.9
			c-14.2-15.3-17.3,2-28.8,0.9c-4.7-0.5-5.4-3.4-8.6-5.4c-9.4-5.6-13.9,4.1-19.4,5.2c-11.7,2.3-9.2-8.6-21.1-6.5
			c-5.4,1.1-10.6,11-19.3,5.2c-5-3.4-8.6-10.1-19.1-1.6c-13.7,11.2-16.7-11-29.9-2C17.9,78,16.1,79.3,16.6,84.7z"/>
		<path d="M16.5,60.8c5.4-2.2,8.8-9.9,18.5-2.2c8.8,7,11.7,3.6,18.4-0.9c9.7-6.7,13.5,2.5,18.5,4.3c10.1,3.6,11.3-6.3,20-6.3
			c8.6,0,9.7,9.4,19.3,6.5c5.8-1.8,9.9-11,19.4-4.7c5.9,4,9.2,8.8,17.8,1.8c11-8.8,12.4-1.1,18.9,1.4C168,50,156.5,48,151.1,51.2
			c-7.2,4.3-9,9.7-19.3,1.6s-13.5,0.7-19.6,3.1c-10.6,4.3-11.5-6.7-21.2-6.1c-7.9,0.5-10.4,11.2-20.2,5.8c-2.9-1.6-5-4.9-8.6-5.6
			c-5.8-1.1-8.3,1.6-11.2,3.8c-9,7.4-13.1,0.4-18.9-3.1c-3.6-2.2-7.7-0.9-10.6,0.7C17.7,53.6,16.3,54.6,16.5,60.8z"/>
		<path d="M16.8,109c14.4-13.5,16.6,1.4,26.8,1.4c5.8,0,5.9-1.8,9.7-4.5c9.4-6.8,13.3,1.6,18.2,3.8c9.7,4.3,12.2-5.4,20-5.9
			c9.7-0.7,9.4,8.6,19.6,6.7c5.8-1.1,10.3-11.2,19.3-5.4c2.5,1.6,8.6,10.8,18.7,2.2c2.3-2,4.9-4,9.7-3.4c4,0.5,5.4,3.2,9,5.2v-5.6
			c-18.7-14.6-15.5,3.1-28.6,1.3c-4.7-0.7-5.8-3.2-8.8-5.4c-9-5.9-13.7,4-19.3,5.2c-11,2.5-9.5-8.6-21.1-6.7
			c-6.5,1.3-9.5,11-19.4,5.2c-6.5-3.8-9.4-10.1-18.9-1.6c-9.4,8.5-16.2-1.4-19.3-2.9C26.9,96,14.8,99.1,16.8,109z"/>
	</g>
</g>
</svg>
