<?xml version="1.0" encoding="utf-8"?>
<!-- Generator: Adobe Illustrator 23.0.3, SVG Export Plug-In . SVG Version: 6.00 Build 0)  -->
<svg version="1.1" id="Layer_1" xmlns="http://www.w3.org/2000/svg" xmlns:xlink="http://www.w3.org/1999/xlink" x="0px" y="0px"
	 viewBox="0 0 184.3 184.3" style="enable-background:new 0 0 184.3 184.3;" xml:space="preserve">
<g id="Layer_x0020_1">
	<g id="_2058093091712">
		<path d="M120.8,84.5c0.2,1.1,1.3,2.5,1.8,3.2c0.7,1.1,1.3,2.2,2,3.4l20.3,33.3c1.1,2.2,2.3,5.6,2.5,8.3c0.2,2.2,0.2,5.4-0.2,7.2
			c-0.2,1.1-0.4,1.3-0.4,2.3c0.9-0.7,13.1-22.9,14.6-25c1.1-1.8,1.8-3.4,2.9-5.2c3.4-6.1,4.9-7,4.9-13.5s-6.5-15.8-10.1-21.6
			c-0.9-1.4-1.4-2.5-2.3-4l-4.9-8.1c-2.7,1.4-5,3.1-7.7,4.7L120.8,84.5z"/>
		<path d="M39.9,51.7c2.9,2,15.5,8.5,19.8,11c0.7,0.5,1.3,0.7,2,1.1L72,69.6l5.9-10.6c0.7-1.3,1.3-2.3,2-3.6L92,33.9
			c3.6-6.5,8.1-12.8,15.8-14.8c0.9-0.2,1.4-0.2,2.2-0.9l-43.4-0.2c-8.8,0-14.9,12.6-18.5,19.3L39.9,51.7z"/>
		<path d="M55.4,153.3h24.7v-36.5c-5.8,0-11.3-0.4-17.5-0.4c-8.5,0-27.2,0.7-34.2-1.3c-2.7-0.7-6.8-2.9-8.6-4.9
			c-0.9-0.9-1.3-1.8-2.5-2l10.8,20.2c1.3,2.3,2.3,4.7,3.8,6.8c2,3.2,5.4,11.2,7.7,13.1C42.8,151.6,48.8,153.3,55.4,153.3z"/>
		<path d="M105.1,61.6c-1.1,0.2-8.5,4.9-9,5.8c1.8,0.9,14.6,0.4,17.8,0.4c6.3,0,11.5,0.4,17.8,0.4l11.2-20.9
			c0.9-1.8,4.9-8.3,5.2-9.7c-3.2,1.6-8.3,3.2-11.5,4.9c-1.8-2.9-3.8-5.9-5.8-8.6l-5.9-8.8c-5.6-6.3-15.7-3.6-21.2,0.7
			c-3.6,2.7-7,8.3-9.2,12.4c-1.6,2.9-1.4,1.8,0.2,4.7l5.2,9.4C100.8,53.7,104.9,60.6,105.1,61.6z"/>
		<path d="M15.5,65.6c0.5,0.9,1.3,1.4,2.2,2c1.1,0.7,1.6,1.3,2.5,2c1.8,1.3,3.2,2.7,4.9,3.8l-3.8,7.7c-1.6,2.9-6.3,11-6.3,13.3
			c0,4,0.4,6.7,3.6,10.1c1.8,2,3.6,3.6,6.1,5c1.8,0.9,6.3,2.2,8.8,2.3c3.6,0.2,7,0.4,10.8,0.4l9.4-15.5c0.7-1.3,2.9-4.1,3.1-5.4
			c1.6,0.7,9,5,9.9,5l-8.5-15.7c-2.7-5.2-5.6-10.4-8.5-15.7c-5.9,0-10.8,0.4-16.9,0.4C27.2,65.6,21.4,65.6,15.5,65.6z"/>
		<path d="M111.8,166.2c0-2.9,1.3-9,1.3-12.1l22-1.8c5.8-1.4,9-8.5,9-15.8c0-4.7-2.2-9.2-4.1-12.6c-0.5-0.9-0.7-1.6-1.3-2.3
			c-0.4-0.7-0.9-1.3-1.3-2c-0.4-0.7-0.9-1.8-1.6-1.8h-13.5c-4,0-6.7,0.4-10.6,0.4l-0.4-8.5c0-1.3-0.4-1.4-0.4-2.7l-15.3,26.3
			c-2.7,5-3.6,2.9,2,11.2L108,161c0.5,0.7,0.7,1.1,1.3,1.8C110,164.1,110.7,165.7,111.8,166.2z"/>
	</g>
</g>
</svg>
