<?xml version="1.0" encoding="utf-8"?>
<!-- Generator: Adobe Illustrator 23.0.3, SVG Export Plug-In . SVG Version: 6.00 Build 0)  -->
<svg version="1.1" id="Layer_1" xmlns="http://www.w3.org/2000/svg" xmlns:xlink="http://www.w3.org/1999/xlink" x="0px" y="0px"
	 viewBox="0 0 184.3 184.3" style="enable-background:new 0 0 184.3 184.3;" xml:space="preserve">
<style type="text/css">
	.st0{fill:#FFFFFF;}
</style>
<g id="Layer_x0020_1">
	<path class="st0" d="M69.6,191.5c0.5-6.7,2.2-43.4,3.2-45.9l3.8,0.2l2.9,45.7H69.6z M84.8,23.9l-1.3,2h5.2l0.4,3.6
		c2.7,13.7,23.8,17.5,25.2-4.3c5.9,0,3.1-0.2,4.5-1.6c-13.7-8.6-5.9-13.7-11.5-18.7c-2-1.8-2.5-1.3-4-3.4
		c-3.6-5.6,0.4-5.9-11.7-12.4h-6.8C81-8.9,80.6-10,77.2-6.4c-5.8,5.9-4.9,10.4-4.7,19.3c0,1.4,0.2,5.2,0,6.3
		c-0.7,3.4,0.5,0.5-2.2,3.8c2.3,4.7,1.4-0.4,2.2,4.7v32c0.2,7.4,0.5,7-2.2,10.1c2.3,5.6,2.2,2.7,2.2,11v25.6
		c0,3.6-0.9,12.4-1.8,10.4c0-0.2-0.4,0.4-0.4,0.5l1.4,1.6c1.3,2.3,0.9,13.5,0.7,14c-0.5,3.1-5.6,2.3-4.7,12.2
		c1.3,16.4-2.2,35.1-2.5,50h18.5c-0.4-14.6-4-34.7-2.5-50.2c0.9-9-3.1-7.7-4.7-12.1l0.2-12.6c0-0.2,0.2-0.5,0.2-0.7l0.7-1.3
		c0.2-0.2,0.4-0.4,0.5-0.5c0.2-0.2,0.4-0.4,0.5-0.5c-1.6-4-2.2,0-2.2-11l0.2-32c0.5-3.2,0.7-1.4,2-4.7l-2.2-3.8V27.7
		c0.7-4.9-0.2-0.2,2.2-4.7c-3.2-4.3-2.2-1.1-2.2-13.9c0-5.9,0-9.4,3.6-12.8c2.5-2.5,6.5-4.3,11.3-2.9c4.7,1.3,6.3,4.1,7.9,8.5
		c-1.8,2-3.1,1.4-4.7,4.5C90.3,13.8,99.7,8.6,84.8,23.9z M72.7,138.9c0,0,0.7-0.9,2-0.9c2.7,0.2,1.4,0.7,1.8,1.3
		c0.5,1.1,1.1-1.8,0.5,2.5h-5L72.7,138.9z M110,25.3c3.2,14.6-20,14.2-16.4-0.2L110,25.3z M96.6,21.4c-2.7-0.5-1.8-0.4-3.2-1.6
		c1.6-1.3,2.9-1.6,5.9-1.6c8.8,0,8.3-0.7,10.4,3.1L96.6,21.4z M97.4,14.2c-0.5-11.5,9.9-10.4,8.6,0.4h-3.8h-0.9L97.4,14.2z"/>
</g>
</svg>
