<?xml version="1.0" encoding="utf-8"?>
<!-- Generator: Adobe Illustrator 23.0.3, SVG Export Plug-In . SVG Version: 6.00 Build 0)  -->
<svg version="1.1" id="Layer_1" xmlns="http://www.w3.org/2000/svg" xmlns:xlink="http://www.w3.org/1999/xlink" x="0px" y="0px"
	 viewBox="0 0 184.3 184.3" style="enable-background:new 0 0 184.3 184.3;" xml:space="preserve">
<g id="Layer_x0020_1">
	<g id="_2429222428608">
		<path d="M32.2,35.1l-10.1,0.2v29.2c8.6,1.4,53.3,0.5,65.3,0.5c1.8,3.1,1.8,3.4,6.3,3.1c5-0.5,3.2-6.1,3.2-17.5
			c0-13.1,2.3-20.3-6.7-18.5c-4.9,2,0,2.2-4.3,3.2H32.2V35.1z"/>
		<path d="M110.1,95.3h35.5c0.4-5.6-2.5-13.7-4.9-18.5c-7.9-15.1-25.4-27.9-42.5-30.8c0.2,5.2-0.2,10.8,0,15.8
			c0.4,5.8,0.4,1.4,6.8,8.8C110.5,76.7,110.3,85.9,110.1,95.3z"/>
		<path d="M23,139.9c7.2,6.1,0.9,0.5,6.5,7c14,15.8,21.2-6.7,27.4-6.7c6.7,0,7.4,12.6,18.4,12.1c10.1-0.5,10.6-12.8,17.6-12.1
			c6.5,0.7,7,13.5,18.4,12.1c9.2-1.3,10.6-13.5,17.5-11.9c5.6,1.3,6.5,13.1,17.8,11.9c4.3-0.5,6.8-3.6,8.8-6.1
			c8.3-10.3,7.2-2.9,7-11.2c-9.4-0.9-11,11.3-17.3,11.7c-7.4,0.4-6.3-11.9-17.6-12.1c-10.4-0.2-11,11.9-17.6,12.1
			c-6.7,0.2-7.4-11.5-17.1-12.1c-11-0.5-11.2,11.5-17.6,12.1c-7.2,0.5-7.4-11.5-17.6-11.9c-11.9-0.5-10.6,11.7-17.6,12.1
			c-7.2,0.4-6.1-10.6-18-12.1v4.1L23,139.9z"/>
		<path d="M21.8,121c2.7,4,1.3-1.3,7.4,7.2c0.9,1.3,2,2.5,3.2,3.8c1.4,1.3,2.9,2,5.6,2.2c10.6,1.3,11.5-9.2,17.5-11.7
			c7.4-2.2,8.6,11.3,18.4,11.9c10.8,0.5,11.9-12.1,18.2-12.1c6.5,0,7.7,12.6,18.2,12.1c10.6-0.5,9.5-13,18.4-11.9
			c5.9,2.9,6.8,12.4,16.9,11.9c10.4-0.7,7.7-9.5,16.7-12.1v-5.6c-13.1,2.5-10.3,12.1-17.3,12.2c-7.4,0-7.2-12.1-17.6-12.1
			c-10.6,0-11.2,12.1-17.6,12.1c-6.8-0.2-7.6-12.2-17.6-12.1c-10.3,0.2-10.8,11.3-17.1,12.1c-6.8,0.9-7.6-11.7-17.6-12.1
			c-10.8-0.5-11.2,11.5-17.6,12.1c-4,0.4-6.3-4-8.3-6.5c-2.5-3.6-3.8-4.7-9.7-5.6L21.8,121z"/>
		<path d="M92.1,104.4c7,0,7,12.4,18.2,12.1c10.6-0.5,10.4-13.7,18-11.9c6.1,1.4,7.7,14.6,19.4,11.5c7.6-1.8,5.6-6.3,12.4-11.2
			c3.2-2.2,2.2-1.6,2.2-6.3c-12.6,1.4-9.9,11.9-17.5,12.1c-6.3,0.2-7.9-12.1-17.6-12.1c-10.8-0.2-10.8,11.9-17.6,12.1
			c-6.7,0-7.2-12.1-17.6-12.1c-10.1,0-11.2,11.5-17.1,12.1c-7,0.7-7-11.3-17.6-12.1c-10.6-0.5-11.3,11.3-17.6,12.1
			c-7.9,0.7-5.2-10.6-18-12.1c0,8.6,2,3.6,6.1,10.1c9.9,14.8,17.6,6.3,23.6-0.9c9.7-11.5,11.2,8.1,22.3,8.6c5.6,0.2,7.2-1.8,10.1-5
			C86.2,109.1,88,104.4,92.1,104.4z"/>
	</g>
</g>
</svg>
