<?xml version="1.0" encoding="utf-8"?>
<!-- Generator: Adobe Illustrator 23.0.3, SVG Export Plug-In . SVG Version: 6.00 Build 0)  -->
<svg version="1.1" id="Layer_1" xmlns="http://www.w3.org/2000/svg" xmlns:xlink="http://www.w3.org/1999/xlink" x="0px" y="0px"
	 viewBox="0 0 184.3 184.3" style="enable-background:new 0 0 184.3 184.3;" xml:space="preserve">
<g id="Layer_x0020_1">
	<g id="_2058503627088">
		<path d="M31.4,58.3C22.6,60.8,17,75.2,15,86c-2.5,14.2,6.3,24.3,20.3,23C66,106.1,45.1,54.5,31.4,58.3z"/>
		<path d="M155.6,76.3c-12.8,4.3-22.7,43.7,4,40.7c10.6-1.1,14.6-10.3,11.7-21.8C169.3,87.8,163.5,73.6,155.6,76.3z"/>
		<path d="M138.9,109.9c-7.7-0.4-21.6-0.7-29.2-0.2c-3.2,0.4-7.2,4.1-5.2,7.7c4.9,8.6,52.6,9.2,62.3,8.5
			C152.7,119.6,147.7,121.1,138.9,109.9z"/>
		<path d="M51.9,98.9c16.7,9.7,29.7-4,16.9-26.3c-5.2-9.4-11.2-7.4-16,1.3c-3.1,5.4-1.4,6.1-0.4,11.9C53.7,92.6,52.3,93.4,51.9,98.9
			z"/>
		<path d="M103.8,125.9c-5.8-4.3-12.2-6.1-7.7-16c-4.3-0.2-18.4-0.5-21.8,0.2c-4.3,0.9-30.8,11.7,5.6,14.9
			C87.6,125.8,95.7,126.3,103.8,125.9z"/>
		<path d="M25.1,114.1c-0.5,0.4-0.5,0.5-1.4,1.1c-3.2,1.6-7.2,1.6-8.8,5c1.4,3.2,2.2,1.4,4.3,3.6c4.3-0.2,12.6,1.4,18.2,1.8
			c6.1,0.4,13,0.7,19.1,0.4c-1.8-2.5-5.9-5.2-2.5-9.7c1.8-2.5,4.3-3.2,6.7-4.7l2.2-1.6c-7.2,0.2-13.7,0.4-20.3,1.3
			C38.1,111.9,28,114.6,25.1,114.1z"/>
		<path d="M87,98.9c3.4,0,6.5-0.2,9.7-0.7c7-1.3,5.4-2.2,6.8-4.1c2,1.8,3.4,1.4,1.3,4.9c4.7,0.2,8.3-0.2,12.1-1.6
			c-0.4-2.3-0.4-2.5-2.3-3.4c4.7,0.5,7.2,2.5,9.7,5c3.8,0,8.3,0.2,10.6-2c-0.9-3.1-6.7-4-10.6-4.7c-4.7-0.9-9-1.4-13.9-1.4
			c-4.9-0.2-10.1,0-14.8,0.7C88.3,92.5,94.6,92.1,87,98.9z"/>
		<path d="M79.7,76.3c-2,1.1-2.9,2.5-4.1,5.4c-1.8,3.8-0.7,3.8-0.7,7.4c0,3.6-1.3,4.5,1.4,6.7c1.8,1.4,4.7,2.2,7.6,1.4
			C94.6,94.3,86.9,72.5,79.7,76.3z"/>
		<path d="M134.7,74.1c-6.7,3.8-8.8,22.5,3.6,19.1C148.8,90.5,140.9,70.9,134.7,74.1z"/>
		<path d="M114.9,106.1h24.5l1.1-5.2c-5.9-0.2-15.3-1.6-20,1.6C118.5,103.8,116.4,104.7,114.9,106.1z"/>
		<path d="M59.3,106.1c4.3,0.4,13.7,0.7,17.3-0.2c3.1-0.9,11.7-3.4,13.9-4.9C80.9,100,67.8,103.4,59.3,106.1z"/>
		<path d="M86.9,106.1c12.6,0.4,13.9,1.6,22-3.2c0.2-0.2,1.1-0.7,1.3-0.9c0.7-0.7,0.5-0.5,1.1-1.1c-5.9-0.2-8.5-0.7-13.5,1.3
			C94.2,103.4,89.7,104.3,86.9,106.1z"/>
		<path d="M19,124c-2.2-2.2-2.9-0.4-4.3-3.6c1.6-3.6,5.8-3.4,8.8-5c0.9-0.5,1.1-0.7,1.4-1.1l-2.3-0.7c-2.3,1.6-2.5,2-5.8,2.5
			c-1.3,0.2-1.8-0.2-3.1,0.9C7.7,122.5,20.3,127.2,19,124z"/>
	</g>
</g>
</svg>
