<?xml version="1.0" encoding="utf-8"?>
<!-- Generator: Adobe Illustrator 23.0.3, SVG Export Plug-In . SVG Version: 6.00 Build 0)  -->
<svg version="1.1" id="Layer_1" xmlns="http://www.w3.org/2000/svg" xmlns:xlink="http://www.w3.org/1999/xlink" x="0px" y="0px"
	 viewBox="0 0 184.3 184.3" style="enable-background:new 0 0 184.3 184.3;" xml:space="preserve">
<style type="text/css">
	.st0{fill:#FFFFFF;}
</style>
<g id="Layer_x0020_1">
	<path class="st0" d="M67.3,89.7c3.1,2.9,10.1,12.1,12.1,17.6c2.9,8.8-4.1,16.7-12.2,16.6c-8.1-0.2-14.6-8.1-11.7-16.7
		c1.3-4,7.2-12.2,10.3-15.8C66.2,90.6,66.9,90.4,67.3,89.7z M70.3,53.9l7.2,3.8c4.3-9.7,20.2-9,24.1,0l7.2-3.8
		c-0.7-2.7-4.9-6.5-7.2-8.1c-7-4.7-17.1-4.9-24.1-0.2C75.4,47.2,71,51,70.3,53.9z M110.1,138.7c7.9-2.7,10.8,8.6,4,11
		C106.7,152,102.9,141.2,110.1,138.7z M110.3,132.6c-16,2.7-11.7,25.7,3.8,23.4c5.9-0.9,11-6.7,9.7-14
		C122.7,136.3,117.1,131.3,110.3,132.6z M45.3,138.7c7.4-2.9,11.2,8.1,4.1,10.8C42.4,152.2,37.9,141.6,45.3,138.7z M44.2,132.7
		c-5.6,1.6-10.4,7-8.3,14.8c4.1,14.4,27,8.8,23-6.7C57.5,135.6,51.4,130.6,44.2,132.7z M136.4,143.9c-3.1,0-3.8-0.7-7.4,4.1
		c-1.6,2.2-3.4,4.9-4,7.7h38.7c-0.5-2.7-2.5-6.3-4-7.9c-0.9-1.1-1.8-2.2-2.7-3.1c-1.6-1.6-2-1.1-4.9-1.1c-1.1-0.7-3.2-6.5-3.6-7.9
		h-8.3C138.5,138.7,138.2,143.2,136.4,143.9z M72.1,143.9c-2.2,0-3.6-0.4-4.9,0.7c-2.5,2.2-5.9,7.4-6.8,11.3h38.7
		c-1.1-4.9-3.8-8.1-7-11.2c-1.4-1.4-2.5-0.9-5-0.9c-0.5-1.8-2.2-7-3.6-7.9h-8.1L72.1,143.9z M57.7,46.9l7,3.8
		c0.4-0.4,0.2-0.2,0.5-0.7c2.7-3.4,4-6.1,9-9.4c9-5.9,21.1-5.9,30.4,0c5.9,3.8,8.3,8.6,9.7,10.1l7-3.8c-0.7-2.3-3.8-5.6-5.2-7.2
		c-13.3-15.3-39.8-15.3-53.3-0.2C61.7,40.9,58.6,44.7,57.7,46.9z M98.9,93c-0.7-2.9-0.4-9.2-0.4-12.8c0-8.6-2.9-7,19.4-7
		c7.7,0,4.9,0.5,11.9,14.8c3.1,6.1,1.4,5.6-4.9,5.4C120.2,93.3,102,94,98.9,93z M89.6,83.4c-3.2,0-2,0.5-4.9-3.4
		c-0.9-1.3-2.5-3.8-3.2-5C71.6,76,61,78.2,51.1,79.6c-10.1,1.6-21.2,2.5-26.6,8.6c-3.2,3.8-4,7-4,13.3v35.3c0,6.3,4,8.1,10.4,7
		c0.4-8.6,6.7-15.5,15.1-16c9.4-0.7,16.6,5.9,17.6,13.9c1.3-0.9,1.8-1.8,3.6-2.2c2.7-0.5,1.8,0.2,3.1-2.7c1.3-3.1,1.8-5.2,5.6-5.4
		c12.8-0.5,11.2,0.2,14.6,7.7c4.3,0.4,3.1,1.3,5.6,2.5c3.2-17.1,23.8-18.2,30.6-5.8c1.1,2,1.1,3.2,2,5.6c2.5-1.1,0.9-1.8,5.6-2.5
		c3.8-6.8,0.9-7.6,10.4-7.7v-12.4h-5.4c-1.1,2-2.2,4.5-5.4,3.4c-4.1-1.3-4.3-10.6,0.4-11.5c4.1-0.9,4,2.9,5.6,3.6h4.9
		c0.4-3.6,0.4-11.7,0-15.1c-0.5-4.9-6.8-16.7-9.2-21.8C128.3,61.8,129.5,64,102,64C87.8,64,89.6,75.9,89.6,83.4z"/>
</g>
</svg>
