<?xml version="1.0" encoding="utf-8"?>
<!-- Generator: Adobe Illustrator 23.0.3, SVG Export Plug-In . SVG Version: 6.00 Build 0)  -->
<svg version="1.1" id="Layer_1" xmlns="http://www.w3.org/2000/svg" xmlns:xlink="http://www.w3.org/1999/xlink" x="0px" y="0px"
	 viewBox="0 0 184.3 184.3" style="enable-background:new 0 0 184.3 184.3;" xml:space="preserve">
<style type="text/css">
	.st0{fill:#FFFFFF;}
</style>
<g id="Layer_x0020_1">
	<g id="_2058161397376">
		<path class="st0" d="M77.8,129.7l10.6-0.2v12.8c0,4.5,7.4,4.5,7.4,0v-12.8h11l11.9,24.8H65.4L77.8,129.7z M92.1,70.7
			c13,6.8-5.8,12.8-4.3,4C88.5,71.9,90.3,71.6,92.1,70.7z M80.2,73.4c0,17.1,8.3,5.4,8.3,20.2c0,2.2-0.5,2.9-2.7,2.9
			c-12.1,0-43,2-50-3.2s-8.1-14.8-1.6-22c4.9-5.4,6.5-2.5,11.7-4.9c5.9-2.5,0-17.8,17.8-17.8c9.2,0,4.1,3.2,11.5-2.2
			c9.4-6.8,21.4-5.6,28.8,3.2c6.3,7.6,2.7,10.4,5.6,16.4c1.1,1.8,13.5,5,11.3,17.8c-2,12.1-12.8,12.6-22.3,12.6
			c-3.6,0-2.7-2.2-2.7-7.4c0-5.2,8.3-1.3,8.3-15.7C104.1,59.5,80.2,59.7,80.2,73.4z M116,54.1c5.2,0.5,9.2,2.2,11.5,5.9
			c2.5,4,3.4,9.5-0.5,12.4C124.6,62.4,116.4,66.7,116,54.1z M21.3,81.7c0,5.9,3.8,12.6,7,15.8c4.3,4.3,8.3,6.3,16.7,6.1
			c7.7,0,15.3,0,23,0c23.9,0,20.3-3.6,20.3,14.8c0,3.6-2.9,2.9-6.3,2.9c-3.1,0-6.1,0-9.4,0l-18.7,37.6l2.5,2.5
			c1.6,1.1,2,1.3,4.3,1.3c8.8,0,62.3,1.3,66.2-0.9l2.7-2.7l-18.4-37.6c-18.4,0-15.7,3.4-15.7-14.8c0-6.8,12.8,1.8,25-7.2
			c7-5.2,7.7-13.7,9-15.8c0.4-0.7,14.8-12.8,4.3-28.1c-7.6-11-16.4-8.8-22.7-8.6c-2.5-9.2-22.1-17.5-36-10.1
			c-3.6,1.8-4.3,3.6-10.1,3.8c-22.1,0-20.9,11.5-24.8,17.1c-2.7,4-9.9,1.8-16,12.6C23.1,73,21.3,78.1,21.3,81.7z"/>
		<path class="st0" d="M136.3,89c0,6.8,8.6,11.2,10.1,11.2c2.2,0,1.1-0.4,3.6-0.9c0-5.9,0.2-5-2.9-8.1c-3.8-3.8-3.2-4.9-8.1-4.9
			C136.9,86.3,136.3,87.1,136.3,89z"/>
		<path class="st0" d="M113.3,24.6c0,7-1.4,13.9,3.6,13.9c5.2,0,4.7-7.7,4.7-11C121.6,19.4,113.3,19.9,113.3,24.6z"/>
		<path class="st0" d="M136.3,43c0,14.4,24.1-9.2,9.2-9.2C143.2,33.8,136.3,40.8,136.3,43z"/>
		<path class="st0" d="M145.5,66.9c0,5,6.8,3.8,13.9,3.8c2.9,0,9.2-8.3-7.4-8.3C148.8,62.4,145.5,64,145.5,66.9z"/>
	</g>
</g>
</svg>
