<?xml version="1.0" encoding="utf-8"?>
<!-- Generator: Adobe Illustrator 23.0.3, SVG Export Plug-In . SVG Version: 6.00 Build 0)  -->
<svg version="1.1" id="Layer_1" xmlns="http://www.w3.org/2000/svg" xmlns:xlink="http://www.w3.org/1999/xlink" x="0px" y="0px"
	 viewBox="0 0 184.3 184.3" style="enable-background:new 0 0 184.3 184.3;" xml:space="preserve">
<style type="text/css">
	.st0{fill:#FFFFFF;}
</style>
<g id="Layer_x0020_1">
	<g id="_2058161372032">
		<path class="st0" d="M84.1,87.6c-0.4-0.5-0.5-0.9-1.1-1.3c-1.1-1.4-6.8-8.8-7.7-9.2l-51.7,39.1c-1.1,0.9-3.1,2.3-3.8,3.2
			c-3.1,3.8,2.7,11.2,6.1,13.3c3.6,2.2,5.2,0.9,7.4-0.9c0.7-0.5,1.3-1.1,2-1.6l5.6-4.9c4.3-3.6,9.2-7.7,13.3-11.3l13.1-11.3
			c0.4-0.4,0.5-0.5,0.9-0.9l9.4-8.3C78.5,92.6,83.8,88.3,84.1,87.6z"/>
		<path class="st0" d="M110.4,28.2l1.6,2c0.4,0.4,0.5,0.5,0.9,0.9l3.6,4.3c0.4,0.4,0.7,0.7,0.9,1.1c0.9,1.8,1.3,11.9,1.3,14.4
			c2.5,0.2,12.6,3.2,13.9,4.1c0.9,0.7,11.3,15.3,12.6,17.3c4.7,6.5,10.1,14.8,14.2,21.8c0.9,1.3,1.6,2.5,2.3,3.8
			c0.4,0.7,0.7,1.3,1.1,1.8c0.5,0.9,0.5,1.3,2,1.3c0.9-1.3,0.5-1.6,0.2-3.2c-0.2-1.1-0.5-2.2-0.7-3.2c-5.6-23.6-16-42.8-31.1-61
			c-0.4-0.4-0.5-0.5-0.9-0.9c-1.3-1.6-7.4-8.1-8.8-9.4l-4.3-4c-0.5,0.4-1.8,1.6-2.2,2.2l-3.1,3.2C112.6,25.5,111.1,27.1,110.4,28.2z
			"/>
		<path class="st0" d="M105.7,128.1l5-0.9c0.9,2,2,4,3.1,5.8l8.5,15.7c0.2,0.2,0.2,0.5,0.4,0.7l0.5,0.7c0.5-0.7,1.4-2.3,1.8-3.4
			c3.6-7,2.5-2.9,3.4-12.1c0.4-3.2,1.8-16.6,1.8-18.7l-29.3-3.8L105.7,128.1z"/>
		<path class="st0" d="M76.6,76.4l7.2,9c0.4,0.5,0.7,0.9,1.1,1.4c1.1-0.4,6.1-5.8,7-6.8c0.7-0.9,1.6-1.4,2.3-2.3l4.5-4.5
			c0.4-0.4,0.9-0.5,1.3-1.1c0.5-0.7,0.7-0.7,1.3-1.1c2.3-2.2,5-4.3,7.6-6.1c3.8-2.9,6.7-5,10.8-7.7l5.6-3.6
			c-2.7-1.1-6.7-1.4-7.7-1.8c-0.2-1.3,0-2.7,0-4s-0.2-2.7-0.2-4c-0.9,0.5-1.4,1.6-2.2,2.3l-9.4,9l-7.6,6.3
			c-7.6,6.1-12.1,8.1-19.1,13L76.6,76.4z"/>
		<path class="st0" d="M122.1,163.9c0.5,0,3.2-1.1,4-1.4c0.7-0.2,2.5-1.8,3.2-2.3c1.1-0.9,2.2-1.6,3.1-2.5c0.5-0.5,0.9-0.9,1.6-1.3
			c0.5-0.5,0.9-0.9,1.6-1.3l12.4-10.3l-10.3-13.3c-0.5-0.7-0.9-1.4-1.6-1.8l-4.3,8.1c-2.9,4.9-5.9,11-8.6,16.2
			c-0.7,1.3-1.8,2.5-1.6,4.3C121.7,160.1,121.9,162.1,122.1,163.9z"/>
		<path class="st0" d="M111.8,156c0.9,0.7,1.8,1.4,2.7,2.2c0.9,0.9,4.7,4,5.6,4.3c0-1.8-0.5-3.8-0.5-5.4c0-0.9,1.4-3.2,1.8-4.1
			c0.5-1.1,0.5-1.1,0-2l-11.7-21.4c-0.5,0.9-5,6.8-5.8,7.6c-1.1,1.3-2,2.5-2.9,3.8s-2.2,2.5-2.9,3.8L111.8,156z"/>
		<path class="st0" d="M101.8,111c0.7,0.4,25.6,3.4,28.3,3.6l-7-17.6C121.9,97.5,105.2,108.8,101.8,111z"/>
		<polygon class="st0" points="131.5,115.8 129.1,138.9 135.6,127.2 140.6,128.3 145.5,112.2 		"/>
		<path class="st0" d="M124.3,164.6c1.1,0.2,4.7,0.5,5.6,0.4l19.4-10.4c0.9-0.5,7.2-3.8,7.6-4.1c-1.6-0.9-6.7-4.1-7.9-4.7L127.9,163
			C126.6,163.7,125.5,163.9,124.3,164.6z"/>
		<path class="st0" d="M90.4,150.9c0.4,0.2,0.5,0.4,0.9,0.5l20.5,11c5.6,2.9,3.4,2.9,8.5,2.3v-0.9c-0.5-0.4-1.3-0.5-1.8-0.9
			c-2.5-2-20.5-17.1-21.4-17.5l-7.7,4.7L90.4,150.9z"/>
		<path class="st0" d="M131.3,114.6c1.3-0.2,13.1-3.2,13.7-3.4c-1.1-0.7-19.4-13.1-20.3-13.5L131.3,114.6z"/>
		<path class="st0" d="M92.8,132.6c0.2,1.1,4.5,10.8,4.9,11.2c0.4-0.5,0.9-1.1,1.3-1.8c1.3-1.6,9.4-11.7,9.7-12.6L92.8,132.6z"/>
		<path class="st0" d="M148.7,143.6l4.9-11.2l-15.8-3.2c0.5,0.9,4.5,5.9,5.4,7.2c0.9,1.3,1.8,2.3,2.7,3.6L148.7,143.6z"/>
		<path class="st0" d="M89.2,149.1c1.4-0.5,4-2.3,5.6-3.2l1.4-0.9l0.2-0.2c0.2-0.2,0.2-0.2,0.4-0.2c-0.5-1.6-1.6-3.6-2.2-5.2
			c-0.2-0.7-1.8-4.7-2.3-5.2L89.2,149.1z"/>
		<path class="st0" d="M149.6,144.5c0.4,0.4,6.8,4.3,7.6,4.5l-3.1-14.9L149.6,144.5z"/>
	</g>
</g>
</svg>
