<?xml version="1.0" encoding="utf-8"?>
<!-- Generator: Adobe Illustrator 23.1.0, SVG Export Plug-In . SVG Version: 6.00 Build 0)  -->
<svg version="1.1" id="Layer_1" xmlns="http://www.w3.org/2000/svg" xmlns:xlink="http://www.w3.org/1999/xlink" x="0px" y="0px"
	 viewBox="0 0 184.3 184.3" style="enable-background:new 0 0 184.3 184.3;" xml:space="preserve">
<style type="text/css">
	.st0{fill:#161615;}
</style>
<g id="Layer_x0020_1">
	<path class="st0" d="M69.6,163.4c0.5-4.8,2.2-31.2,3.2-33l3.8,0.1l2.9,32.8H69.6z M84.8,43l-1.3,1.4h5.2l0.4,2.6
		c2.7,9.8,23.8,12.6,25.2-3.1c5.9,0,3.1-0.1,4.5-1.1c-13.7-6.2-5.9-9.8-11.5-13.4c-2-1.3-2.5-0.9-4-2.4c-3.6-4,0.4-4.2-11.7-8.9
		h-6.8c-3.8,1.4-4.2,0.6-7.6,3.2c-5.8,4.2-4.9,7.5-4.7,13.9c0,1,0.2,3.7,0,4.5c-0.7,2.4,0.5,0.4-2.2,2.7c2.3,3.4,1.4-0.3,2.2,3.4v23
		c0.2,5.3,0.5,5-2.2,7.3c2.3,4,2.2,1.9,2.2,7.9v18.4c0,2.6-0.9,8.9-1.8,7.5c0-0.1-0.4,0.3-0.4,0.4l1.4,1.1c1.3,1.7,0.9,9.7,0.7,10.1
		c-0.5,2.2-5.6,1.7-4.7,8.8c1.3,11.8-2.2,25.2-2.5,35.9h18.5c-0.4-10.5-4-24.9-2.5-36.1c0.9-6.5-3.1-5.5-4.7-8.7l0.2-9.1
		c0-0.1,0.2-0.4,0.2-0.5l0.7-0.9c0.2-0.1,0.4-0.3,0.5-0.4c0.2-0.1,0.4-0.3,0.5-0.4c-1.6-2.9-2.2,0-2.2-7.9l0.2-23
		c0.5-2.3,0.7-1,2-3.4L76.4,73V45.7c0.7-3.5-0.2-0.1,2.2-3.4c-3.2-3.1-2.2-0.8-2.2-10c0-4.2,0-6.8,3.6-9.2c2.5-1.8,6.5-3.1,11.3-2.1
		c4.7,0.9,6.3,2.9,7.9,6.1c-1.8,1.4-3.1,1-4.7,3.2C90.3,35.7,99.7,32,84.8,43z M72.7,125.6c0,0,0.7-0.6,2-0.6
		c2.7,0.1,1.4,0.5,1.8,0.9c0.5,0.8,1.1-1.3,0.5,1.8h-5L72.7,125.6z M110,44c3.2,10.5-20,10.2-16.4-0.1L110,44z M96.6,41.2
		c-2.7-0.4-1.8-0.3-3.2-1.1c1.6-0.9,2.9-1.1,5.9-1.1c8.8,0,8.3-0.5,10.4,2.2L96.6,41.2z M97.4,36c-0.5-8.3,9.9-7.5,8.6,0.3h-3.8
		h-0.9L97.4,36z"/>
</g>
</svg>
