<?xml version="1.0" encoding="utf-8"?>
<!-- Generator: Adobe Illustrator 23.0.3, SVG Export Plug-In . SVG Version: 6.00 Build 0)  -->
<svg version="1.1" id="Layer_1" xmlns="http://www.w3.org/2000/svg" xmlns:xlink="http://www.w3.org/1999/xlink" x="0px" y="0px"
	 viewBox="0 0 184.3 184.3" style="enable-background:new 0 0 184.3 184.3;" xml:space="preserve">
<g id="Layer_x0020_1">
	<g id="_2429224720784">
		<path d="M117,148.9c0-1.3,0.4-2.3,0.7-3.2c1.3-2.7,4-4.5,7-4.5c1.6,0,3.2,0.5,4.3,1.3c0.2,0.2,0.4,0.2,0.5,0.4
			c0.2,0.2,0.4,0.2,0.5,0.5c1.3,1.1,2.3,3.6,2.3,5.4c0,2.5-0.9,4.3-2.2,5.6c-0.7,0.7-1.3,1.3-2.2,1.6c-1.6,0.7-3.1,0.9-4.9,0.5
			c-2.2-0.5-4.5-2.2-5.4-4.3C117.4,151.3,117,150.2,117,148.9z M42.3,148.9c0-3.6,2.5-6.8,5.9-7.6c7.6-1.6,12.1,6.8,8.1,12.1
			l-0.9,1.1c-1.1,1.1-2.2,1.6-3.8,2c-0.4,0.2-1.4,0.2-1.8,0.2c-2.3-0.2-3.8-0.7-5.4-2.3C43.4,153.2,42.3,151.3,42.3,148.9z
			 M64.1,148.9c0-3.2,1.8-5.6,4.7-7c1.8-0.9,4.5-0.9,6.3,0c4.9,2.5,5.9,8.1,2.9,12.1c-0.7,0.9-1.6,1.6-2.7,2.2
			c-2,0.9-4.3,0.9-6.3,0.2c-0.7-0.4-1.3-0.7-1.8-1.3c-0.9-0.9-1.6-1.6-2.2-2.7C64.3,151.3,64.1,149.8,64.1,148.9z M117,137.2v-29.9
			c0-2.3-0.7-6.7,3.2-6.7h12.2v18.9c0,3.1,2.9,5.9,6.1,5.9h15.7v15.1c0,1.6-0.5,2.7-1.8,3.2c-1.1,0.5-3.2,0.4-4.7,0.4
			c-3.4,0-6.7,0-10.1,0c-0.5-2.2-2.9-5-4.7-6.5c-3.4-2.9-8.6-3.6-13-2.2C119,136,118.1,136.5,117,137.2z M138.8,100.7
			c4.5,0,5.8,2.2,7.4,5.4l4.5,7.9c0.5,0.9,0.9,1.8,1.6,2.7c0.2,0.5,0.5,0.9,0.7,1.3c0.2,0.4,0.5,0.9,0.7,1.4H139v-18.7H138.8z
			 M95,116c0-1.8,1.4-2.7,2.5-4c0.2-0.4,0.2-0.4,0.5-0.5c0.4-0.2,0.2-0.4,0.5-0.5l9-10.4c0.2-0.2,0.2-0.4,0.5-0.5
			c0.2-0.2,0.4-0.4,0.5-0.5l2-2.3v36.2l-13-13.5c-0.4-0.4-0.7-0.7-1.1-1.1c-0.2-0.2-0.4-0.4-0.5-0.5c-0.2-0.2-0.4-0.4-0.5-0.5
			C95.4,117.2,95,116.5,95,116z M38.9,137.9h-3.4c0-0.5-1.3-6.8-1.4-7.6l-3.8-18.9c-0.2-1.3-0.4-1.1,0.9-3.2l1.6-2.9
			c0.2-0.5,0.5-0.9,0.9-1.4l7.2-13.1c0.2-0.2,3.1-5.4,3.2-5.8h9.5c0,0.4-1.6,6.1-1.8,6.7c-2.5,8.6-4.9,17.8-7.4,26.5l-5,18.2
			c0,0.4-0.2,0.5-0.2,0.9C39.1,137.6,39.2,137.9,38.9,137.9z M131,49.4l-6.3-6.3l-4.5,4.3l6.7,6.8l-2,2.2c-0.2,0.2-0.2,0.4-0.5,0.5
			l-1.6,1.6L112,47.9l13.1-11.5c0.4-0.2,0.4-0.4,0.7-0.5l3.1-2.7c0.2-0.2,0.4-0.4,0.7-0.5c0.4-0.2,0.4-0.4,0.5-0.5
			c0.2-0.2,0.4-0.4,0.5-0.5c0.4-0.4,0.9-0.9,1.3-1.1l8.3,8.3c-0.2,0.2-0.2,0.4-0.5,0.5c-0.2,0.2-0.4,0.4-0.5,0.7
			c-1.1,1.1-3.1,3.6-4.1,4.7L131,49.4z M103,47.6c0.5,0.9,2.7,2.9,3.8,3.8c0.9,0.9,1.8,2,2.9,2.9l1.1,0.9c0.9,0.9,1.6,1.6,2.5,2.5
			l1.8,1.8c1.8,2,4,3.8,5.8,5.8c0.5,0.5,2,2.2,2.5,2.5c0.7-0.9,1.6-2,2.5-2.9c0.2-0.2,0.4-0.4,0.5-0.5c0.2-0.4,0.2-0.4,0.5-0.5
			l1.1-1.3c0.2-0.2,0.4-0.4,0.5-0.5c0.7-0.9,1.4-1.6,2-2.3l0.7-0.9c0.2-0.2,0-0.2,0.4-0.2c0.2,0.7,1.8,1.6,0.7,4
			c-0.4,0.7-1.6,2-2.3,2.7l-2.3,2.7c-0.2,0.2-0.2,0.4-0.5,0.5c-0.2,0.2-0.4,0.4-0.5,0.5l-1.8,2.2c-0.2,0.2-0.2,0.2-0.5,0.5
			c-0.2,0.2-0.2,0.4-0.5,0.5l-5.2,5.9c-0.2,0.2-0.2,0.5-0.5,0.5H58.5c-0.4,0-0.5,0-0.9,0c-2,0.2-13.3,0.2-15.5,0
			c-2.2,0-2.5,1.4-3.4,2.9l-3.8,6.7c-0.2,0.5-0.5,0.9-0.7,1.4c-1.3,2.2-2.5,4.3-3.6,6.7l-2.2,4c-0.2,0.4-0.5,0.9-0.7,1.3
			c-0.5,0.9-0.9,1.8-1.4,2.7l-1.1,1.8c-0.2,0.4-0.2,0.5-0.4,0.7c-0.7,1.3-1.3,2-1.3,3.4c0,1.1,0.5,2,1.4,2.5
			c0.2,0.2,0.2,0.2,0.4,0.2l0.5,0.2h-1.8c0.4,1.4,0.5,3.1,0.9,4.5c0.7,3.4,4.7,24.1,5.2,25c0.4,0.5,0.9,1.1,1.4,1.4
			c1.3,0.5,3.6,0.4,5.2,0.4c0,0.4-0.2,0.5-0.2,0.9c-0.2,0.4-0.2,0.5-0.2,1.1c-0.5,2.7-0.2,6.3,1.1,8.5c0.2,0.4,0.4,0.7,0.5,1.1
			c0.2,0.4,0.4,0.7,0.7,1.1c2.2,3.2,6.5,5.9,10.8,5.9c3.2,0,4.9-0.4,7.6-1.8c1.3-0.7,2.3-1.4,3.2-2.5c0.4-0.4,0.5-0.7,0.9-1.1
			c1.8,2.9,6.3,5.2,10.1,5.2c2,0,4-0.2,5.8-0.9c3.2-1.3,5.6-3.4,7.2-6.3c1.3-2,1.8-4.3,1.8-6.7c0-1.4-0.4-3.8-0.9-4.7H104
			c-0.2-0.5-0.7-1.1-1.3-1.4l-2.5-2.5c-0.2-0.2-0.4-0.4-0.5-0.7l-1.3-1.3c-0.4-0.4-0.4-0.4-0.9-0.4H82.1c-1.4,0-1.1,0.2-2-0.5
			c-2.2-1.6-4.9-2.7-8.3-2.7c-2.2,0-4.9,0.9-6.3,1.6c-1.4,0.9-3.6,2.2-4.3,3.6c-0.4-0.2-0.4-0.2-0.5-0.5c-0.2-0.2-0.2-0.4-0.5-0.5
			c-1.8-1.8-3.8-3.1-6.1-3.8c-2.9-0.9-4.7-0.5-7.7,0c0.5-2.2,1.3-4.1,1.8-6.3c0.7-2.2,1.3-4.1,1.8-6.3s1.3-4.1,1.8-6.3l3.4-12.6
			c0.4-1.1,0.5-2.2,0.9-3.2l1.8-6.3c0.4-1.1,0.5-2.2,0.9-3.2c0.4-1.1,0.5-2,0.9-3.2c0.2-0.9,0.9-2.3,0.9-3.2h52.4l-4.7,5.4
			c-1.4,1.4-2.5,3.1-4,4.5l-0.9,0.9c-0.4,0.4-0.5,0.5-0.7,0.9c-0.2,0.2-0.2,0.2-0.4,0.4l-5.2,5.9c-0.2,0.2-0.2,0.2-0.4,0.5
			c-0.2,0.2-0.2,0.2-0.4,0.5c-0.9,1.1-1.8,2-2.9,3.1l-2.7,3.2c-2.7,4-2.2,9,1.3,12.2l10.6,11.2c1.1,1.1,2,2.2,3.1,3.1
			c0.7,0.7,5.6,6.1,6.1,6.3l0.5-0.4c-0.2,0.5-0.4,0.9-0.5,1.3c-0.2,0.5-0.4,0.7-0.5,1.3c-1.1,3.8-0.2,8.5,2.2,11.5l0.7,0.9
			c2.2,2.9,6.5,5,10.1,5c2.9,0,4.7-0.4,7-1.4c0.7-0.4,1.4-0.9,2.2-1.3c0.7-0.5,1.4-1.1,1.8-1.8c1.1-1.3,2-2.5,2.7-4.3
			c1.3-3.2,0.2-3.6,1.8-3.6h12.2c2.7,0,5.4-1.6,7-3.6c1.1-1.4,2-3.2,2-5.2v-20.5c0-2.7-1.1-4.7-2.2-6.7l-4.3-7.6
			c-0.2-0.4-0.4-0.5-0.5-0.9l-2.7-4.9c-0.2-0.4-0.4-0.5-0.5-0.9c-2.2-3.6-6.1-5.9-10.4-5.9h-20.2c-0.5,0-0.9,0.2-1.4,0.2
			c-0.5,0.2-0.9,0.4-1.4,0.4v-4.9c0-0.4,7-8.1,7.4-8.5l4-4.7c1.3-1.6,4.1-4.5,5.6-6.3c0.2-0.2,0.2-0.2,0.4-0.4l1.8-2.2
			c3.4-3.6,4-8.5,0.9-12.6c-0.4-0.5-0.9-0.9-1.3-1.4c0.7-0.9,1.6-2,2.5-2.9l6.8-7.7c1.1-1.4,3.1-3.4,4.3-4.9c-0.4-0.5-1.6-1.6-2-2.2
			c-1.3-1.3-2.5-2.2-3.6-3.6c-0.2-0.2-0.2-0.4-0.5-0.5c-1.4-1.4-4-4-5.2-5.2c-0.2-0.2-0.4-0.2-0.5-0.5c-1.3-1.1-3.8-4.1-4.7-4.7
			c-0.5,0.4-0.9,0.9-1.4,1.3c-0.9,0.7-1.8,1.6-2.7,2.3c-1.3,0.9-2.5,2.2-3.8,3.2l-1.4,1.3c-0.9,0.7-1.8,1.6-2.7,2.3
			c-0.2,0.2-0.4,0.2-0.5,0.4c-1.3,1.1-2.5,2.2-3.8,3.2L103,47.6z"/>
		<path d="M129.2,85.2h14.4c0.5,0,4.5,2.9,5.2,3.4c1.3,0.7,3.8,2.9,4.9,2.9c1.1,0,1.8-0.2,2.5-0.9c1.1-1.3,1.1-2.9,0.2-4.3
			c-0.4-0.5-1.1-0.9-1.6-1.3c-1.1-0.7-2.2-1.4-3.2-2.2l-4.9-3.2c-0.5-0.4-1.1-0.7-2-0.7h-10.1c-0.4,0-0.5,0.5-0.7,0.7l-1.4,1.6
			C132.1,82,129.4,84.7,129.2,85.2z"/>
		<path d="M101.3,57.1c0,0.9,0.2,1.6,0.9,2.3c1.6,1.8,5.4,0.9,5.4-2.3c0-2.9-3.6-4-5.4-2.2C101.7,55.3,101.3,56,101.3,57.1z"/>
		<path d="M92,72.6c0,2,1.4,3.2,2.9,3.2c1.1,0,1.8-0.2,2.5-0.9c1.8-1.8,0.9-5.4-2.3-5.4C93.4,69.5,92,71,92,72.6z"/>
		<path d="M107.5,63.2c0,0.9,0.4,1.6,0.9,2.2c1.6,1.8,5.4,1.1,5.4-2.3c0-1.6-1.4-3.1-3.2-3.1C108.7,60,107.5,61.6,107.5,63.2z"/>
		<path d="M98.1,66.5c0,2.7,3.4,4.3,5.4,2.2c1.3-1.3,1.3-3.2,0-4.5C101.5,62.2,98.1,63.6,98.1,66.5z"/>
		<path d="M104.4,72.4V73c0,2.5,3.2,4,5.4,2c1.3-1.3,1.3-3.1,0-4.3c-0.4-0.4-0.4-0.5-0.9-0.7C106.6,68.6,104.4,70.8,104.4,72.4z"/>
		<path d="M88.9,63.1c0,0.7,0,1.1,0.4,1.6c0,0.2,0.2,0.4,0.2,0.4c1.3,1.6,3.4,1.6,4.9,0.4l0,0c1.8-1.8,0.5-5.2-2.2-5.2
			C90.4,60.2,88.9,61.4,88.9,63.1z"/>
	</g>
</g>
</svg>
