<?xml version="1.0" encoding="utf-8"?>
<!-- Generator: Adobe Illustrator 23.0.3, SVG Export Plug-In . SVG Version: 6.00 Build 0)  -->
<svg version="1.1" id="Layer_1" xmlns="http://www.w3.org/2000/svg" xmlns:xlink="http://www.w3.org/1999/xlink" x="0px" y="0px"
	 viewBox="0 0 184.3 184.3" style="enable-background:new 0 0 184.3 184.3;" xml:space="preserve">
<style type="text/css">
	.st0{fill:#FFFFFF;}
</style>
<g id="Layer_x0020_1">
	<g id="_2430896965872">
		<path class="st0" d="M75.6,105.8c-4.5,1.6-15.3,0.5-21.1,0.5c-5.4,0-4.9-0.9-4.3-5.9c0.4-3.2,0.4-5.9,1.1-9
			c3.6-1.1,19.1-0.9,23-0.2C75.8,93.9,77,102.8,75.6,105.8z M43.9,105.8c-2,0.9-13.7,0.9-14.8-0.2c-1.4-1.4,0.9-11.7,1.8-14.2
			c3.2-1.3,11.9-1.3,15.3,0c0.9,3.2,0.5,11.5-1.3,13.9L43.9,105.8z M95.4,90.9c0.7,2.5,2.9,12.4,1.6,14.2c-1.8,2.2-8.3,1.1-11.5,1.1
			c-4.5,0-4.9,0-5.2-4.5c-1.1-12.2-2.2-11.2,5.9-11C89.3,90.7,92.3,90.7,95.4,90.9z M52.4,84.9c-0.5-2.7,0.2-11.3,1.6-13.9
			c4-0.9,14.4-0.5,18.7-0.2c0.9,2.9,1.8,11.2,1.3,14.2L52.4,84.9z M78.6,71.3c1.3-0.9,12.2-0.5,13.9-0.2c0.5,1.8,0.9,4.7,1.3,6.8
			c0.4,2.2,0.9,3.6,0.5,5.4c-0.9,4.3-12.1,2.5-15.1,1.8C78.5,82.6,76.3,73.1,78.6,71.3z M32.6,84.9c-0.7-3.1,0.9-11.7,2.5-14.2
			l10.1-0.2c5.2,0.5,4,6.5,2,14.6L32.6,84.9z M54.5,65.1c-0.9-3.1,0.4-13.5,1.3-16.9l14.6,0.5c1.1,2.9,2.3,13.5,1.6,16.6L54.5,65.1z
			 M36,65.1c-0.7-2.5,1.3-13.9,2.3-16.4c3.4-0.7,8.6-0.7,12.1,0c0.9,3.2-0.4,13.5-1.3,16.6L36,65.1z M88.9,48.6
			c0.9,2.7,2.9,13.9,2.2,16.7l-7,0.4l-7-0.5c-0.9-3.6-2.2-13.3-1.1-16.9L88.9,48.6z M74.9,119.5c4.5-1.1,19.4-0.4,25-0.4
			c13.1,0,11-0.7,9-13.1L99,40.5c-0.9-5-2.2-5.2-7.4-5.2c-10.4,0-58.9-0.9-61.2,0.4c-1.8,1.3-1.6,1.3-2.2,4.3
			c-2.2,13-13.7,75.2-11.7,77.6c0.9,1.1,1.6,1.3,3.6,1.4c1.3,0.2,3.4,0,4.9,0c24.8-0.2,27.9-3.2,27.7,7.6c0,15.3-5.8,7-9.7,9.9
			c-2,3.1-1.6,9-0.4,12.2c4.9,1.1,24.3,0.5,31.7,0.5c3.6,0,6.8,0.7,9-1.4c1.6-2.7,1.1-9.2-0.5-11.2c-4.1-2.2-9,1.6-9.7-4.7
			C72.9,128,72.9,122.2,74.9,119.5z"/>
		<path class="st0" d="M117.3,112.1c14.2,2.7,26.8-9.5,30.1-18.9c7.6-22.5-11-42.1-32.2-39.1c-4,0.5-7,0.9-6.8,5.2
			C108.5,64.8,115.7,109.8,117.3,112.1z"/>
		<path class="st0" d="M139.1,48.6c1.6-0.5,1.3,1.4,1.3-1.8l-0.5-12.1c-3.2,0.4-9.5,6.7-11.3,9.7C132.5,45.3,136.4,46.6,139.1,48.6z
			"/>
		<path class="st0" d="M153.5,61.7c2.2,2.9,3.4,9,5.2,11.9c2.2-2.2,8.6-8.1,9-11.5L153.5,61.7z"/>
		<path class="st0" d="M130.7,121.1l-0.4,1.6c1.6,1.3,2.9,3.1,4.9,4.7c5.2,4.3,2.5,3.2,5.4,3.4c1.3-3.1,0.7-10.3,0.9-14
			C137.1,118.6,135.7,120.4,130.7,121.1z"/>
		<path class="st0" d="M167.7,103.3c0.4-3.4-1.8-4-4.1-5.9c-2-1.8-3.2-3.6-5-5.2c-0.9,2.2-1.3,4.1-2.2,6.1c-1.1,2.5-2,3.4-2.7,5.9
			L167.7,103.3z"/>
		<path class="st0" d="M139.1,48.6c1.6,0.7-2,1.6,2,0.5l-0.7-2.2C140.4,50,140.7,48,139.1,48.6z"/>
		<path class="st0" d="M130.3,122.8l0.4-1.6l-1.3,0.9C129.4,123.1,129,122.8,130.3,122.8z"/>
	</g>
</g>
</svg>
