<?xml version="1.0" encoding="utf-8"?>
<!-- Generator: Adobe Illustrator 23.0.3, SVG Export Plug-In . SVG Version: 6.00 Build 0)  -->
<svg version="1.1" id="Layer_1" xmlns="http://www.w3.org/2000/svg" xmlns:xlink="http://www.w3.org/1999/xlink" x="0px" y="0px"
	 viewBox="0 0 184.3 184.3" style="enable-background:new 0 0 184.3 184.3;" xml:space="preserve">
<g id="Layer_x0020_1">
	<path d="M90.5,119.1c5.6-1.4,9.9,2.3,11.2,6.7c1.4,5.8-2.3,10.3-6.7,11.3C82.9,140.3,78.2,122.2,90.5,119.1z M90.8,70.7
		c5.2-0.7,8.5,2.2,9.9,5.6c4,9.2-3.8,19.8-5.2,32.6c-0.2,2.3,0.2,5.2-1.8,6.1c-5.6,2.3-4.5-5-5.6-10.3c-0.9-4.5-2.3-8.1-3.6-12.4
		c-1.3-4.3-2.9-8.6-1.8-13.7C83.8,74.5,86.1,71.4,90.8,70.7z M17.9,151.7c1.6,6.3,7.4,5.9,11.5,5.9c40.5-0.2,81.5,0,122.2,0
		c6.5,0,11,0.7,13.9-4c2.9-4.7-0.9-9.5-2.7-12.8c-4.3-7.4-8.3-14.8-12.8-22.1c-8.5-14.2-17.1-29.9-25.6-44.3l-19.3-33.3
		c-2.2-3.6-4.1-7.6-6.5-11.2c-2.2-3.6-7.7-4.9-11.9-1.6c-1.4,1.1-5.2,8.3-6.7,10.8c-16.6,29.2-34.4,59.8-51.3,88.7l-9.5,16.6
		C18.3,146.5,17.2,148.8,17.9,151.7z"/>
</g>
</svg>
