<?xml version="1.0" encoding="utf-8"?>
<!-- Generator: Adobe Illustrator 23.0.3, SVG Export Plug-In . SVG Version: 6.00 Build 0)  -->
<svg version="1.1" id="Layer_1" xmlns="http://www.w3.org/2000/svg" xmlns:xlink="http://www.w3.org/1999/xlink" x="0px" y="0px"
	 viewBox="0 0 184.3 184.3" style="enable-background:new 0 0 184.3 184.3;" xml:space="preserve">
<g id="Layer_x0020_1">
	<path d="M134.6,90.3c-8.6-17.1-22.7-32.8-32.2-49.9c-2-3.6-3.8-6.8-5.4-10.4c-1.3-3.1-2.9-8.1-4.7-11c-1.4,6.5-42.1,70.7-43.7,73.8
		c-4.9,10.3-6.3,18-4.9,30.8c5.9,32.8,42.5,52.2,72.5,35.1C141.4,144.5,147.3,115.5,134.6,90.3z M56.6,91.4
		c1.8-3.8,4.3-7.6,6.1-10.4c9.2-14.4,19.6-32.4,28.6-45.4C89.9,48,78.9,68.6,73.9,80.1c-14.9,34.2-14.8,65.3,26.5,76.5
		c-14.2,6.7-36.7-9-43.7-21.6C48.9,121.1,49.6,105.3,56.6,91.4z"/>
</g>
</svg>
