<?xml version="1.0" encoding="utf-8"?>
<!-- Generator: Adobe Illustrator 23.0.3, SVG Export Plug-In . SVG Version: 6.00 Build 0)  -->
<svg version="1.1" id="Layer_1" xmlns="http://www.w3.org/2000/svg" xmlns:xlink="http://www.w3.org/1999/xlink" x="0px" y="0px"
	 viewBox="0 0 184.3 184.3" style="enable-background:new 0 0 184.3 184.3;" xml:space="preserve">
<style type="text/css">
	.st0{fill:#010101;}
	.st1{fill:#020202;}
</style>
<g id="Layer_x0020_1">
	<g id="_2058446263424">
		<path class="st0" d="M73.7,95c-25-0.9-15.7-9.7-34.2,8.1c-2.9,2.9-6.8,5.6-3.2,11.2c5.8,2.3,14.6-8.3,18.2-11.9
			c4.9-0.2,9.4,0.9,14.2,1.6c7.7,1.3,7.4,0.7,9.5,8.1c-25.2,5.6-25.9,8.3-35.6,21.2c-6.3,8.3-7.2,8.1-2.2,18.2
			c2.9,5.8,6.1,17.3,12.4,13.1c2.5-2,4-1.6-1.3-11.3c-1.8-3.6-3.6-6.5-4.7-10.6c9.4-12.2,8.6-14.6,27.4-19.4
			c-3.4,24.1,18.5,47.9,31.9,22c3.2-6.5,4.7-13.5,3.6-22c16.9,4.9,15.1,3.8,24.1,15.5c7.9,10.3-5,13.5-4.3,22.3
			c0.5,6.5-0.2,1.8,1.8,3.8c6.1,4.1,9.5-7.2,12.4-13c5-9.7,3.8-10.3-2.2-18.2c-9.7-12.8-10.8-15.7-35.6-21.2
			c2.2-7.7,2.7-6.3,11.7-7.7c5.2-0.9,10.4-2,16-2.3c4.3,4.9,7,14.9,14.2,12.1c4.5-6.5-5.9-17.5-9.4-21.6c-8.6-1.1-19.1,2.5-28.1,3.4
			l0.4-13c-15.7,5.6-21.4,5.6-37.1,0L73.7,95z"/>
		<path class="st0" d="M55.6,53.8c2.2,0.9,13.5,5.9,15.5,7.4c5.6,4.3,1.3,10.8,9.7,14.9c5.2,2.5,15.1,2.9,20.9,0.7
			c8.3-2.9,6.7-7.4,9.9-14.6c4.1-4.7,14.9-4,17.1-10.8c0.7-3.4-16-30.1-19.3-32.9l8.5,29.2l-9,4.9c-3.4-5-7.2-20.7-16.9-20.7
			C82.2,32,79.3,45.5,75,52.1L66,48l9-29.5C71.2,22.8,55.4,45.5,55.6,53.8z"/>
		<path class="st1" d="M69.6,79.9l-4.3-8.6L51.8,73c-1.3-3.6-15.8-26.5-19.3-14.6c-1.1,3.6,2.2,6.5,4,8.8
			C49.8,84.4,43.5,84.4,69.6,79.9z"/>
		<path class="st1" d="M132.6,72.8l-13.1-1.6l-4.7,8.6c25.9,4.3,19.6,4.7,33.1-12.4c8.8-11.3,1.1-14.6-4.5-9.7
			C141.4,59.3,133.5,70.7,132.6,72.8z"/>
	</g>
</g>
</svg>
