<?xml version="1.0" encoding="utf-8"?>
<!-- Generator: Adobe Illustrator 23.0.3, SVG Export Plug-In . SVG Version: 6.00 Build 0)  -->
<svg version="1.1" id="Layer_1" xmlns="http://www.w3.org/2000/svg" xmlns:xlink="http://www.w3.org/1999/xlink" x="0px" y="0px"
	 viewBox="0 0 184.3 184.3" style="enable-background:new 0 0 184.3 184.3;" xml:space="preserve">
<style type="text/css">
	.st0{fill:#FFFFFF;}
</style>
<g id="Layer_x0020_1">
	<path class="st0" d="M48.7,15C57,15,63.8,21,65.3,28.9h53.6c1.4-7.9,8.3-13.9,16.6-13.9c9.4,0,16.9,7.6,16.9,16.9
		s-7.6,16.9-16.9,16.9c-8.3,0-15.1-5.9-16.6-13.9H96.6l3.4,86.6l19.1,12.2v35.5l-41.4-0.7l-3.8-29.2l-2,29.9h-7v-35.6l18.9-12.2
		L86,34.8H65.5C64,42.7,57,48.7,48.7,48.7c-9.4,0-16.9-7.6-16.9-16.9S39.5,15,48.7,15z"/>
</g>
</svg>
