<?xml version="1.0" encoding="utf-8"?>
<!-- Generator: Adobe Illustrator 23.0.3, SVG Export Plug-In . SVG Version: 6.00 Build 0)  -->
<svg version="1.1" id="Layer_1" xmlns="http://www.w3.org/2000/svg" xmlns:xlink="http://www.w3.org/1999/xlink" x="0px" y="0px"
	 viewBox="0 0 184.3 184.3" style="enable-background:new 0 0 184.3 184.3;" xml:space="preserve">
<style type="text/css">
	.st0{fill:#FFFFFF;}
</style>
<g id="Layer_x0020_1">
	<path class="st0" d="M117.6,56.6c-0.7-0.2-1.6-0.5-2.5-0.9c-8.5-2.2-14.9,4.9-10.8,10.3c4.9,6.3,16.4,4.5,17.5-2.2
		c0.5-4,0.5-8.8,0.9-12.8c0.4-4.3,0.5-8.6,0.9-12.8c0.2-1.8,2-24.5,1.8-25.7l-41.8,9.2l-2.9,41.9c-3.4-1.3-6.5-2.2-10.1-0.4
		c-2.3,1.1-5.2,3.6-4.3,7.6c1.6,5.8,11.2,8.1,16.2,3.8c2.9-2.5,2.5-4.9,2.9-9.5l2.5-34.4l32.4-7.2L117.6,56.6z M129.2,9.3l9.4,11.3
		c1.6,2,3.2,3.8,4.7,5.8c1.1,1.4,4,4.7,4.7,5.9c-2.5,0.5-4.7,2.7-5.4,4.9c-2.2,5.9,5.4,9.2,10.4,3.1c1.8-2.2,2-5,0-7.4l-18.4-22.1
		c-0.4-0.5,0,0-0.2-0.5c3.1-2,9.5-1.1,11.2,0.4c1.1,0.9,0.9,2.2,1.6,3.1c0.5-4.7-2.7-6.1-7-6.7c-2.2-0.4-4.5-0.5-6.7-0.4
		c-1.6,0.2-2.2,0.9-3.2,1.8L129.2,9.3z M46.5,42.7c-1.4-1.4-1.8-2.2-4.1-3.2c-7-3.4-14,0.4-12.2,6.8c0.7,3.4,4,6.3,7.4,7.4
		c2.9,0.9,6.7,0.9,8.8-1.1c2-1.8,5.2-9,6.8-11.7c1.8-3.2,3.6-6.5,5.2-9.7c1.6-3.2,3.4-6.3,5.2-9.5c1.8-3.2,3.4-6.7,5.2-9.5
		c2.7,2.2,4.1,4.5,5.2,9.2c0.4,1.8,1.1,4.7,0.4,6.3c-0.9,2.2-2.9,2.7-3.6,3.6c2.9-0.5,5-2.2,5.9-4.9c1.4-4.5-1.3-13.1-3.4-16.9
		c-0.7-1.4-1.3-2-2.5-2.9c-0.9-0.5-2.7-1.6-3.6-1.8L51.9,33.2c-0.9,1.6-1.6,3.1-2.5,4.7l-2.3,4.5C46.5,42.6,46.5,42.6,46.5,42.7z"/>
	<path class="st0" d="M66.2,85.8h55.6v93.8H66.2V85.8z M95,149.1c2.7,0,4.9,2.2,4.9,4.9c0,2.7-2.2,4.9-4.9,4.9
		c-2.7,0-4.9-2.2-4.9-4.9C90.1,151.3,92.3,149.1,95,149.1z M95,105c5.4,0,9.7,4.3,9.7,9.7c0,5.4-4.3,9.7-9.7,9.7
		c-5.4,0-9.7-4.3-9.7-9.7C85.2,109.3,89.6,105,95,105z M95,144.6c5,0,9.2,4.1,9.2,9.2S100,163,95,163c-5,0-9.2-4.1-9.2-9.2
		S89.7,144.6,95,144.6z M95,96c10.3,0,18.5,8.3,18.5,18.5s-8.3,18.5-18.5,18.5c-10.3,0-18.5-8.3-18.5-18.5S84.7,96,95,96z"/>
</g>
</svg>
