<?xml version="1.0" encoding="utf-8"?>
<!-- Generator: Adobe Illustrator 23.0.3, SVG Export Plug-In . SVG Version: 6.00 Build 0)  -->
<svg version="1.1" id="Layer_1" xmlns="http://www.w3.org/2000/svg" xmlns:xlink="http://www.w3.org/1999/xlink" x="0px" y="0px"
	 viewBox="0 0 184.3 184.3" style="enable-background:new 0 0 184.3 184.3;" xml:space="preserve">
<style type="text/css">
	.st0{fill:#FFFFFF;}
</style>
<g id="Layer_x0020_1">
	<path class="st0" d="M148.9,87.6c0.9,0.9,15.3,31.3,16.9,34.7h-16.9V91.2L148.9,87.6z M113.8,39c0.7-0.5,0,0,0.7-0.5
		c0.4-0.4,0-0.2,0.4-0.4c-0.4,0-0.5-0.2-1.3,0.4L94,44.8c1.8,0.9,5.8,2,7.9,2.7C104.1,45.7,112,39.5,113.8,39z M70.6,37
		c0.4,0.4,0.2,0.2,0.7,0.5c0.2,0,0.4,0.2,0.5,0.2l18.7,5.9c-1.3-2.5-3.1-4.3-4.5-6.7L70.6,37z M79.1,63.7c2.3-0.9,9.7-7.6,12.6-8.8
		l-0.2-8.6l-6.3,8.5C84,57,79.8,61.9,79.1,63.7z M79.3,45.1c3.2,2.5,3.1,2.5,5,1.8c2.2-0.7,4.5-1.3,6.3-2.2l-21.1-6.8L79.3,45.1z
		 M92.4,54.7c4.5,3.1,8.6,6.5,13,9.4l-6.3-9c-1.3-1.8-5.2-7.6-6.7-8.8V54.7z M91.7,21.4c-1.3,2.2-3.1,9-4,12.1
		c-1.1,3.2-1.3,3.1,0.7,5.6c1.1,1.3,2.2,3.2,3.2,4.3L91.7,21.4z M93.5,43.7c0.9-0.2,18.5-5.4,20.3-6.8L98.4,37
		C96.9,38.6,94.4,42.1,93.5,43.7z M91,45.5c-9.7,2.9-7.9,2-9.4,6.5C80.9,53.8,78,62.4,78,63.7L91,45.5z M92.4,43.3
		c0.9-0.7,2.9-3.6,3.6-4.7c1.8-2.5,1.4-2.2,0.5-5.4c-0.7-2.2-3.2-10.6-4.1-11.9V43.3z M106.3,63.5c-0.4-2.5-2.7-9.2-3.6-11.9
		c-1.1-3.2-0.4-3.4-3.6-4.3c-2-0.5-4-1.4-5.8-1.8L106.3,63.5z M87.7,124.3c-1.1,0.2-1.1,0.2-1.4,1.6c-1.3,5.4-0.5,18.4-5.6,25
		c-2,2.7-4.7,2.5-5.6,2.7c-0.9,0.4-0.9,0.7-1.4,1.4c-2.9,0-5.9-0.2-8.6,0c-4.1,0.2-4.3,2.3-5.2,3.2c-4.3,0.2-9.4,0-9.4,4.5h83
		c0-4.7-5-4.5-9.4-4.7c-1.3-1.3-0.4-1.4-2-2.3c-1.1-0.5-2-0.9-3.2-0.9c-2.7,0-5.6,0-8.3,0c-0.5-0.2-0.2-0.2-0.9-0.7l-0.2-0.2
		c-1.4-1.3-1.4-0.5-3.2-1.1c-9.5-3.1-6.1-25.4-9.7-29.2c-0.9-0.7-0.5-3.4-0.5-4.7l0.5-45.2c8.6,1.3,16.7,5.9,23.6,9.4
		c3.2,1.6,8.1,3.8,11.9,4.9c6.7,1.6,9,0.5,13.9-1.1c-1.1,3.4-13.1,26.8-16,33.1c-2,4.5-2.9,0.9-2.7,4.1c1.6,0.9,1.3-0.4,2.5,1.3
		c0.9,1.1,0.7,1.3,1.6,2.2c9.2,8.8,26.3,7.2,33.7,0c1.3-1.1,0.7-1.1,1.6-2.2c1.3-1.6,1.1-0.2,2.5-1.3l0.2-1.1
		c-2-1.3-1.4,0.4-2.5-1.8l-15.5-32c-3.4-7-2.5-5.9-4.9-12.4c-1.8,0.7-2.9,2.9-5.6,3.8c-11,3.6-28.3-14.8-48.8-14.8
		c-16.9,0-28.6,11-40.9,14.4c-8.8,2.5-9.9-1.3-13.5-3.4c-2.5,9.2-7,16.4-10.8,24.5c-1.8,4-3.8,8.1-5.8,11.9
		c-1.6,3.2-3.6,8.5-4.9,9.2c-1.3,0.7-1.3,0.2-1.3,1.8c1.8,1.1,1.3-0.4,2.5,1.3c0.7,0.9,0.7,1.1,1.4,2c1.3,1.4,2.2,1.8,4.1,3.1
		c2.9,1.8,7.4,2.9,11.3,3.1c7.7,0.2,18.5-3.1,20.2-8.8l2.2-0.5c0.2-1.6,0.2-1.1-1.3-1.8l-0.5-0.2c-0.5-0.4-0.9-1.4-1.3-2.2
		c-0.7-1.8-1.4-3.1-2.2-4.7c-2.7-5.9-6.7-13.3-9-18.7c-1.3-3.1-3.6-6.7-4.5-9.5c4.7,1.4,6.7,3.1,14.2,1.1
		c11.3-2.9,22.7-12.2,35.3-14v50H87.7z M145.3,91.7c0.5-0.9,1.4-3.6,2.2-4.1v34.9h-17.1L145.3,91.7z M36.8,87.4l12.8,26.3
		c1.4,2.9,3.1,5.9,4.1,8.8l-16.9-0.2V87.4z M34.5,88.7c0.5-0.7,0.2-0.4,0.9-0.9v34.6H18.3L34.5,88.7z"/>
</g>
</svg>
