<?xml version="1.0" encoding="utf-8"?>
<!-- Generator: Adobe Illustrator 23.0.3, SVG Export Plug-In . SVG Version: 6.00 Build 0)  -->
<svg version="1.1" id="Layer_1" xmlns="http://www.w3.org/2000/svg" xmlns:xlink="http://www.w3.org/1999/xlink" x="0px" y="0px"
	 viewBox="0 0 184.3 184.3" style="enable-background:new 0 0 184.3 184.3;" xml:space="preserve">
<style type="text/css">
	.st0{fill:#FFFFFF;}
</style>
<g id="Layer_x0020_1">
	<path class="st0" d="M44.7,103.4c-3.6,1.8-7,2.3-10.8,4c-6.3,2.5-10.1,10.8-12.1,17.3c-4.5,14.6,3.6,16.9,15.3,21.1
		c9.7,3.4,21.1,5.9,32,6.8c6.8,0.5,31,0.2,35.6-3.1c-3.6-8.3-5.9-15.7-2.9-25.9c1.8-6.5,4.3-10.4,8.6-14.8l3.4-3.4
		c0-0.2,0.2-0.2,0.4-0.4l-14.9-5c-0.2,0.7-11.3,18.7-13.5,21.4l-1.6-17.8H71.9l-1.6,18.2c-2.5-2.3-10.6-17.5-14.6-22
		C51.9,101.1,48.7,102.3,44.7,103.4z M84.3,91.7c2-0.5,2.2-0.7,3.2-1.8c2-0.9,2-1.3,3.6-2.9c4-4,7.9-9.9,10.1-15.1
		c0.9-2,0.5-2.9,2.3-3.6c3.6-1.4,4.1-0.2,4.5-7.7c0.5-11.2-1.6-4.7-2-10.4C104.8,31,87.6,20.1,71.9,23.8c-6.7,1.6-11,5-15.3,9.5
		c-6.3,6.7-5.4,14.2-6.7,18.2c-0.4,1.3-1.6,1.6-1.8,4.3c-0.4,2.7-0.2,8.6,1.6,10.8c1.1,1.3,1.8,1.3,3.1,1.6l1.1,0.4
		c0,0,7.7,17.3,11.3,18l1.1,2l2.2,0.7c0.2,1.3-0.7,0,0.9,1.3c0.7,0.5,0.9,0.5,1.6,0.9c1.3,0.7,1.8,1.1,3.2,1.3l0.9,0.4l5.2,0.2
		l1.1-0.2L84.3,91.7z M132.2,112.2c0-2.5,0.2-5.2,3.2-4.9c2.9,0.4,1.6,3.2,2.9,4.9c0.9,1.3,8.6,2.7,5.6,8.3c-5.2,1.4-4-2.7-8.8-2.7
		c-3.2,0-5.9,2.7-5.9,5.9c-0.2,8.1,9.2,4.3,14.4,9.9c4.7,5,4.1,12.2-0.7,16.7c-1.6,1.4-2,1.3-3.8,2.2c-2.5,1.4,0,1.8-1.8,4.3
		c-0.7,1.1-2.5,1.6-3.8,0.7c-2-1.4-0.9-2.5-1.6-4.5c-3.6-2.2-8.3-3.1-5.6-8.3c5-1.4,3.6,1.3,6.8,2.5c5.9,2.2,10.4-5.6,6.3-9.9
		c-1.8-1.8-4.5-1.4-7.4-2.2c-4.7-1.3-8.8-5.9-8.6-11.9C123.7,116.9,127.5,114,132.2,112.2z M106.8,136.2
		c1.4,14.4,15.3,26.8,31.7,24.8c14.6-1.8,26.8-14.9,25-31.7c-1.6-14.6-15.1-27-31.7-25C116.9,106.1,105,119.2,106.8,136.2z"/>
</g>
</svg>
