<?xml version="1.0" encoding="utf-8"?>
<!-- Generator: Adobe Illustrator 23.0.3, SVG Export Plug-In . SVG Version: 6.00 Build 0)  -->
<svg version="1.1" id="Layer_1" xmlns="http://www.w3.org/2000/svg" xmlns:xlink="http://www.w3.org/1999/xlink" x="0px" y="0px"
	 viewBox="0 0 184.3 184.3" style="enable-background:new 0 0 184.3 184.3;" xml:space="preserve">
<style type="text/css">
	.st0{fill:#FFFFFF;}
	.st1{fill:none;}
</style>
<g id="Layer_x0020_1">
	<path class="st0" d="M109.2,77.9c-3.2,0.9-52.4,0.5-60.5,0.4c-5.2,0-3.2-3.6-2.5-4.1c1.4-1.1,43.9-0.5,51.5-0.5
		C104.7,73.6,111.9,72.3,109.2,77.9z M120.2,84l5-1.1l3.2-0.2c0.4-2.5,0-41.9,0-48.1c0-9,0-7.4-9-7.4c-21.6,0-43.6,0.4-65,0
		c0.2,4.7,0,9.4,0,14c0,2.5,0.7,11.5-0.7,13c-2,2-22.5,0-27.2,0.9c0.4,16.7-0.2,33.8,0,50.6c0,5.2-0.5,49,0.5,50.2
		c1.3,1.4,9.4,0.7,11.7,0.7c14.8,0,85.9,0.7,88.9-0.5c0.5-2.2,0.7-5.9,0.4-8.6c-15.5-0.4-28.1-10.6-31.5-25.4
		c-1.6-7-0.4-15.8,3.2-22.3c1.4-2.5,3.8-6.1,6.1-8.1c1.4-1.3,2.3-2,4.1-3.2C112.6,86.7,116.8,84.7,120.2,84z M93,87.4h-4.9
		l-41.6-0.2l-0.7-0.2l-0.7-0.9c0.4-4,2-3.2,5.9-3.2c3.1,0,5.9,0.2,9,0c14.4-0.4,30.6,0,45.5,0c3.6,0,5.9,1.8,3.1,4.3l-6.3,0.4h-4.9
		L93,87.4L93,87.4z M99.3,92.3c0.9,0.5,1.8,1.3,1.3,3.1c-0.4,1.4-1.6,1.4-3.2,1.4H69.1l0,0h-5.9H49.8c-1.6,0-3.6,0.4-4.3-1.3
		c-0.9-1.8,0.2-2.7,1.3-3.2H99.3z M28.2,50.5h21.6V28.9L28.2,50.5z M49.3,69.1c-6.8,0-4-4.1-2.5-4.5l29.9-0.2c6.7,0,24.7-0.4,30.6,0
		c3.8,0.2,3.4,4.7-0.4,4.7H49.3z"/>
	<circle class="st0" cx="129.4" cy="115.2" r="28.4"/>
	<polyline class="st1" points="114.8,115.7 122.9,129.7 145.2,101.1 	"/>
	<polygon points="116.2,114.8 123.1,126.9 143.9,100 146.4,102 124.3,130.6 122.7,132.6 121.6,130.5 113.5,116.4 	"/>
</g>
</svg>
