<?xml version="1.0" encoding="utf-8"?>
<!-- Generator: Adobe Illustrator 23.0.3, SVG Export Plug-In . SVG Version: 6.00 Build 0)  -->
<svg version="1.1" id="Layer_1" xmlns="http://www.w3.org/2000/svg" xmlns:xlink="http://www.w3.org/1999/xlink" x="0px" y="0px"
	 viewBox="0 0 184.3 184.3" style="enable-background:new 0 0 184.3 184.3;" xml:space="preserve">
<g id="Layer_x0020_1">
	<g id="_2429225492160">
		<path d="M125.1,93l0.9,0.2c0,1.6,0.2,2.3,0.7,3.6c0.9,0.2,5.6,0.5,6.8,0.5l7,0.2c2.5-0.2,3.1-1.8,3.1-4.3h16l-0.2,66.4h-49.3
			c-0.5-3.1,0-62.1,0.2-66.4C115,93.2,120,93,125.1,93z M25,159.4c-0.2-1.3,5.8-37.1,6.5-40.3c0.9-4,5.2-8.6,7.2-7.9l6.5,48.2H25z
			 M83.3,159.6c0-6.7-0.4-13.7-0.5-20.3c-0.2-7.2-0.7-11.7,1.1-18.9l4.3,0.2c2.3,9.9,0.5,27.7,0.5,39.1H83.3z M92.1,113.9
			c6.3,5.2,5.8,6.1,7.7,1.3c1.3-2.9,4-8.3,4.5-11.2l3.2,0.9v1.6c0.2,16.7,0,36,0,53.1H91c0.2-8.1,1.4-29,0-36
			c-0.2-1.3-0.9-4-0.7-5.2C90.5,116.9,91.4,114.4,92.1,113.9z M82.2,112.8c0.5-1.4,3.2-3.6,4.1-4l3.6,3.4c-0.2,1.1-0.7,2.2-1.1,3.2
			c-1.1,3.2-0.7,2.5-4.7,2.5L82.2,112.8z M40.8,109.9c4.3-0.9,9-2.2,13.3-3.1s9.2-2,12.8-3.6c2,2.9,5,13.5,7.2,15.1
			c1.1,0.2,4.3-3.2,5.9-4.3c0.4,0.5,1.6,3.8,1.6,4.5c0.2,1.1-0.5,4.1-0.9,5.2c-1.6,9,1.1,31.3,0,35.8H47.5L40.8,109.9z M88.2,107.4
			c2-1.1,4-2.5,5.9-4c1.6-1.1,4.3-3.2,6.1-3.8c0.5,1.8,1.4,2.2,2.2,3.2l-5,12.2C96.3,114.6,88.7,108.1,88.2,107.4z M69.4,102.3
			c-0.7-1.6,0.2-1.8,1.1-3.8c2,0.7,5,3.1,7,4.3c1.4,0.9,5.8,3.6,6.7,4.7c-1.6,0.9-3.1,2.5-4.7,3.8c-1.3,0.9-3.6,3.2-4.9,3.8
			L69.4,102.3z M77.2,93.5l2.7,1.3c3.8,1.6,6.3,1.4,10.8,0.5c1.6-0.4,0.7-0.5,2.2-1.3c4-1.8,1.6-1.3,4-2.5c0.9-0.5,1.4-0.7,2.3-1.1
			v7.4l-13,8.3c-1.4-0.5-6.5-4-8.1-5c-3.2-2.2-2.5-1.8-3.8-2.7c-2.5-1.6-3.1-1.6-3.6-2c0-3.8-0.2-2.3,0.4-5.8
			C72.1,91,76.1,92.3,77.2,93.5z M128.1,91c1.4-0.2,6.3,0,6.8,0.2c1.8,0.2,1.8-0.2,3.2-0.2c0.7,0,2.3,0.2,3.2,0.4l-0.2,3.4
			c-0.5,0.2-11.3,0.2-13,0L128.1,91z M92.1,91.7c-0.5,0.5-3.1,1.6-4,1.8c-2,0.4-3.2,0-5,0c-1.4-0.2-2.9-0.9-3.6-1.6
			c-1.3-0.5-4.7-2.3-5.2-3.1l-4-2c-3.4-3.1-4.5-7.7-5.4-11.3c-1.3-0.4-2.2-0.2-2.7-1.6l-2-11.2l5.9,0.9l0.2,0.2l0.2,0.5
			c0.2,0.2,0.2,0.5,0.2,0.7c0.2,0.7,0.2,0.7,0.5,1.3c0.2,0.5,1.3,1.4,1.6,1.8c1.8,1.3,8.6,1.4,11.5-1.1c1.8-1.4,1.4-2.5,2.5-4.3
			c1.6-0.5,2.2-0.5,4-0.2c1.1,0.7,0.9,5.9,8.1,6.1c5.2,0,8.1-0.2,8.3-5.6l6.7-1.6c0.4,3.6-0.4,5-1.1,8.3c-0.2,1.1-0.5,2.9-0.7,4
			c-0.5,1.8-1.4,1.3-2.7,1.8c-0.7,2-0.9,3.6-1.8,5.6c-1.6,3.8-3.6,5.9-7,7.6C93.6,90.1,93.6,91.2,92.1,91.7z M95.2,66.5
			c-3.2,0-4.9-0.9-5.6-3.2c-1.3-3.6,1.1-4.5,4.1-4.5c2.7,0,6.3-0.7,7,2c0.4,1.3,0.4,3.2-0.2,4.3C99.7,66.9,97.5,66.5,95.2,66.5z
			 M71.6,66.7c-1.8,0-2.5-0.7-2.9-2.2c-1.3-6.3,3.1-5.9,8.5-5.6c3.4,0.2,4,3.4,2.2,5.8C77.5,67.2,75.2,66.7,71.6,66.7z M62.8,60.9
			c0.5-5.2,1.6-6.7,5.4-8.6c8.5-4.3,15.1,2.3,25.6-6.7c1.4-1.1,3.6-3.6,5.4-4.7c4.1,6.3,8.5,9.4,7.9,18.9l-3.8,0.7
			c-2.2-3.8-1.8-4.1-8.1-4.1c-4.1,0-7,0.2-8.1,3.8l-4.7,0.2c-0.9-3.6-3.1-3.8-7.4-3.8c-3.6,0-7.9-0.5-8.6,4.7L62.8,60.9z M60.6,59.1
			c-1.8-7.7-0.4-18.4,3.1-24.3c3.2-5.8,9.5-9.7,18.9-10.1c10.1-0.5,16.9,2.3,21.2,7.7c4.1,5.4,6.1,14.6,5.4,23.2
			c-0.7-1.6-0.5-4-1.1-5.8c-0.7-1.6-1.8-2.7-2.7-4.1c-5.4-8.1-5.6-8.8-8.3-5.9l-4,3.6c-0.7,0.5-0.9,0.9-2,1.8
			c-7.7,6.5-16.2,0.9-24.5,5.6C61.5,53.2,61.7,55.2,60.6,59.1z M68.5,88.3l0.4,1.6c0.2,3.6,0.2,7-1.6,9.7c-1.4,2.5-5.6,3.2-9.4,4.1
			c-3.6,0.9-7.2,1.6-10.8,2.5c-20,4.5-17.3,8.8-21.2,32.4c-0.5,3.6-4,21.1-3.4,23.2c3.4,0.5,121.7,0.2,135.5,0.2
			c3.1,0,3.8-0.2,3.8-3.4V93.9c0-3.2-0.7-3.2-3.8-3.2c-4.9,0-9.7,0-14.8,0c-0.2-0.4-0.5-1.6-0.5-1.6c-1.8-0.5-4-0.5-5.9-0.4
			l-2.3-0.2c-1.8,0-3.6,0-5.2,0c-2.9,0-2.2,0.7-3.8,1.8H113c-2.7-0.2-4.1-0.5-5,1.1c-0.7,1.3-0.4,9.2-0.4,10.8
			c-2.2-0.4-3.6-1.4-4.9-2.3c-0.2-0.5-0.4-1.1-0.9-1.8c-0.7-1.3-0.5-0.2-0.7-1.6c-0.2-1.1,0.2-3.1,0.2-4.5v-4c2-1.6,4-4.9,4.9-7.9
			c1.4-4.3,0.2-1.6,2.7-3.8c1.3-1.1,1.3-2.9,1.6-4.9c0.7-3.6,2.3-7.4,1.1-11.2c-1.6-5.2,5.2-38.3-27.5-38.2
			c-16.7,0-25.7,9.4-26.6,25.7C57.2,51,58.1,58.4,57.9,60c-0.9,5.4,0.2,6.3,1.1,11c2,10.1,2.3,2.3,4.3,8.6
			C64.4,82.9,66.7,86.9,68.5,88.3z"/>
		<path d="M124,120.5c-0.9,0.5-1.4,1.3-1.8,2.2v3.1l-6.1,0.2V120h5.6c0.9-0.7,1.3-0.9,1.4-2c-1.6,0-8.1-0.4-8.6,0.5
			c-0.5,1.3-0.5,7.9,0,9l1.1,0.4c0.2,0,0.9,0,1.3,0C126.1,127.9,123.6,128.6,124,120.5z"/>
		<path d="M124,145.5c-0.9,0.4-1.6,1.3-2,2.2v3.1l-5.9,0.2v-6.1h5.4c0.9-0.5,1.3-0.9,1.6-2c-2.2,0.2-7-0.4-8.6,0.4
			c-0.7,1.3-0.5,8.3,0,9.2c0.4,0.4,1.6,0.4,2.2,0.4h5C125.1,152.9,123.8,151.8,124,145.5z"/>
		<path d="M124,132.8c-0.9,0.5-1.6,1.6-2,2.3v3.4h-5.9v-6.1h5.2c1.1-0.5,1.3-1.3,1.8-2l-7.9,0.2c-2.2,0.5-0.9,9.4-0.7,9.5
			c1.4,0.5,7.9,0.4,9.5,0V132.8z"/>
		<polygon points="127.6,146.4 156.2,146.4 156,144.5 127.4,144.6 		"/>
		<polygon points="127.4,121.4 156,121.4 156.2,119.4 127.6,119.4 		"/>
		<polygon points="127.4,133.8 156.2,134 156.2,132 127.4,132 		"/>
		<path d="M135.5,103.8c2.5-0.2,4.1,0.5,4,3.2c0,2.3-1.6,3.1-4,2.9V103.8z M133.7,106.1v5.2c2,0.5,4.7,0.2,5.9-0.7
			c2.2-1.6,3.1-7.9-2.5-8.3C132.8,102,133.7,102.5,133.7,106.1z"/>
		<path d="M147,149.5h-2.3h-1.3h-14.6h-1.6v1.8c2.9,0.2,17.6,0.4,19.6-0.2L147,149.5z"/>
		<path d="M127.4,126.3c3.2,0.2,17.3,0.4,19.8-0.2v-1.6l-19.6-0.2L127.4,126.3z"/>
		<polygon points="127.4,138.7 147,138.7 146.8,136.9 127.4,136.9 		"/>
		<path d="M117.5,111.2c2.9,0.5,1.6-0.7,2.9-2.3h2.3c0.7,2.2,0.2,2.7,2.5,2.5c-0.2-1.3-2.5-8.3-3.2-9l-1.6-0.2L117.5,111.2z"/>
		<path d="M132.1,102.3h-1.3c-0.4,3.4,1.3,8.1-2.9,7.6c-1.1-2.3-0.5-4.5-0.7-7.4l-1.6-0.2c-0.4,4-0.9,9.2,3.4,9.2
			c2,0,3.1-1.1,3.4-3.1C132.6,107.2,132.8,103.2,132.1,102.3z"/>
		<path d="M144.7,102.7c0,1.8,0.4,1.3,2.5,1.3c0.2,2.2-0.5,5.6,0.4,7.4h1.3c0.7-1.8,0.2-5.4,0.4-7.4c0.4,0,0.9,0,1.3,0l1.3-0.4v-0.9
			C150.4,102,145.8,102,144.7,102.7z"/>
		<path d="M122.9,117.8c-0.2,1.1-0.5,1.3-1.4,2c-0.5,1.1-1.4,1.8-2.2,2.9c-1.4-0.5-0.5-1.4-2.7-0.7c-0.2,1.4,1.3,3.1,2.3,3.6
			c1.8-0.7,1.4-1.8,3.1-2.7c0.4-0.9,0.9-1.6,1.8-2.2c0.5-1.1,1.6-1.8,1.6-2.9C125.4,115.8,123.8,117.5,122.9,117.8z"/>
		<path d="M123.1,142.8c-0.4,1.1-0.7,1.4-1.6,2c-0.2,1.1-1.6,2.3-2.3,2.9c-2-2-2.9-0.7-1.8,0.9c2.5,3.8,2.9,0.2,4.9-0.9
			c0.4-0.9,1.1-1.8,2-2.2c0.4-1.4,2.3-2.2,1.4-3.2C124.3,141.2,124.3,142.3,123.1,142.8z"/>
		<path d="M122.9,130.4c-0.4,0.7-0.7,1.4-1.8,2c-0.5,1.1-1.3,2-2.2,2.7c-0.4-0.4-0.5-0.7-0.9-0.9c-2.3-1.3-1.1,2.7,0.9,3.6
			c1.3-0.7,1.8-2,2.9-2.7c0.4-0.7,1.1-1.8,2-2.3c0.7-1.6,1.8-1.4,1.4-3.4C123.6,129,124.3,129.5,122.9,130.4z"/>
		<path d="M142.3,111.3h1.6v-9h-1.6C142,104.1,141.8,109.9,142.3,111.3z"/>
	</g>
</g>
</svg>
