<?xml version="1.0" encoding="utf-8"?>
<!-- Generator: Adobe Illustrator 23.0.3, SVG Export Plug-In . SVG Version: 6.00 Build 0)  -->
<svg version="1.1" id="Layer_1" xmlns="http://www.w3.org/2000/svg" xmlns:xlink="http://www.w3.org/1999/xlink" x="0px" y="0px"
	 viewBox="0 0 184.3 184.3" style="enable-background:new 0 0 184.3 184.3;" xml:space="preserve">
<g id="Layer_x0020_1">
	<g id="_2429234913248">
		<path d="M77.9,61c1.6-1.8,4.7-3.1,7.2-4.5c1.6-0.9,6.3-3.6,7.2-3.6l13,7c0.2,0.2,0.4,0.2,0.4,0.4c0.2,0.2,0.4,0.5,0.4,0.4
			c0.2-0.2,0.4,0.2,0.4,0.4L77.9,61z M93.5,25.1h-2.7c-5.6,2.9-11,5.8-16.4,9L41,52.5c-6.7,3.4-12.2,4.3-9.2,16.6
			c4.1,1.3,117.5,1.1,120.8-0.2c2-12.4-0.7-11.7-8.6-16.2l-42.1-22.9C99.1,28.4,95.7,26.6,93.5,25.1z"/>
		<polygon points="30.5,159.1 153.7,159.1 153.5,149.7 30.7,150.1 		"/>
		<polygon points="44.6,129.2 64.9,129.2 64.7,75.2 44.4,75.2 		"/>
		<polygon points="119.3,129.2 139.8,129.2 139.6,75.2 119.3,75.5 		"/>
		<polygon points="36.5,144.5 147.7,144.7 147.7,135.1 36.7,135.1 		"/>
		<path d="M89.6,80.8c-2.5,1.1-5,1.6-7,3.1c-4.7,3.2-5.4,10.1-1.4,14.8c4.9,5.9,21.4,7.4,16.2,14.2c-2.7,3.6-10.4,1.6-13.7-3.6
			c-2,1.3-6.1,4.9-7.4,6.3c6.7,6.3,3.4,4,13,7.7l0.2,4.5l7.2,0.2l0.2-5.2c2.2-0.5,4.3-1.3,5.6-2.2c5.6-4.3,6.7-11.3,3.4-16.4
			c-5.2-8.1-19.1-7.9-17.5-12.2c2-5.4,10.8,1.3,11.7,1.8c3.6-4.7,4.7-4,5.9-6.1c-2.9-3.1-4.5-4.7-9.4-5.9V77l-7.4-0.2L89.6,80.8z"/>
	</g>
</g>
</svg>
