<?xml version="1.0" encoding="utf-8"?>
<!-- Generator: Adobe Illustrator 23.0.3, SVG Export Plug-In . SVG Version: 6.00 Build 0)  -->
<svg version="1.1" id="Layer_1" xmlns="http://www.w3.org/2000/svg" xmlns:xlink="http://www.w3.org/1999/xlink" x="0px" y="0px"
	 viewBox="0 0 184.3 184.3" style="enable-background:new 0 0 184.3 184.3;" xml:space="preserve">
<g id="Layer_x0020_1">
	<path d="M58.3,52.5h58.1v74.9l-58.1-0.2V52.5z M101,72.1c-5-3.6-9.7-1.6-10.1-4.9l-0.2-5.4h-5.2v6.7c-5.2,1.3-7,2.2-9.2,5.6
		c-1.8,3.1-3.2,7.2-2,11.7c2.3,8.1,15.5,8.1,17.3,11.3c0.4,4.5-2.7,6.1-7.4,5.2c-4.1-0.9-6.1-3.2-8.1-4.5l-4.5,8.6
		c3.2,3.2,8.1,4.7,13.9,5.2l0.2,6.7l5.2-0.2c0-8.5-0.7-6.3,3.4-8.1c1.4-0.5,2-0.9,3.2-1.8c6.3-4.5,7.4-15.3,0.9-19.8
		c-2.7-1.8-12.4-4.7-13.1-6.8c-1.3-3.4,2-4.3,4.9-4.3c3.1,0.2,4.9,1.6,7,2.5L101,72.1z M36.9,52.5h11.7v84.6h77.6l0.2-84.6h6.1
		l-0.2,91.1H64.5v9.7c9.2,0,74.5,0.5,77.6-0.4l0.2-100.6h13.1v11.5h-9v10.1h18.5V30.7c-48.6,0-97.2,0-145.8,0h7.7l-0.4,43.2h18.9
		l-0.2-9.7h-8.8L36.9,52.5z"/>
</g>
</svg>
