<?xml version="1.0" encoding="utf-8"?>
<!-- Generator: Adobe Illustrator 23.0.3, SVG Export Plug-In . SVG Version: 6.00 Build 0)  -->
<svg version="1.1" id="Layer_1" xmlns="http://www.w3.org/2000/svg" xmlns:xlink="http://www.w3.org/1999/xlink" x="0px" y="0px"
	 viewBox="0 0 184.3 184.3" style="enable-background:new 0 0 184.3 184.3;" xml:space="preserve">
<g id="Layer_x0020_1">
	<path d="M103.7,139.3H80.3c-1.3-2.3-0.4-18.4,0-20.2l23.6,0.2c0.5,3.2,0.2,7,0.2,10.4L103.7,139.3z M96.7,45.7
		c5-1.1,5.9-1.6,11.7-0.7c11.7,2,9.2-0.9,9.4-13.9c-12.2,0-12.1-4-20.7-2.2C96,32,96.5,41.9,96.7,45.7z M118.8,119.5
		c0.2,0,0.4-0.2,0.5-0.2l3.8-0.4c1.8,0,2-0.2,3.6,0.5c0.4,3.1,0,11.3-0.2,10.8c0,0-0.2,0.4-0.2,0.5h-7.6V119.5z M65.4,119.5
		l-0.2,11.2h-7.6c-0.9-2.2-0.7-8.8-0.4-11.2l6.5-0.4C66.5,119.3,64.5,118.9,65.4,119.5z M119.2,97.7h7.6v11.2H119L119.2,97.7z
		 M98.7,97.7h7.4v11.2h-7.7L98.7,97.7z M78.2,97.7h7.6l0.2,11.2H78L78.2,97.7z M57.8,97.7h7.4v11.2h-7.7L57.8,97.7z M119,76.3h7.7
		v11.2H119V76.3z M98.5,76.3h7.7v11.2h-7.7V76.3z M78,76.3h7.7v11.2H78V76.3z M57.5,76.3h7.7v11.2h-7.7V76.3z M90.6,50
		c-1.6,1.4-29.2,0.5-30.8,0.5l-0.2,10.8l-18.2,0.4c-2,3.4,0.7,69.3-0.7,80.8H28.1v13.7c19.6,0,13.3,0.4,32.2-2.9
		c41.6-7.2,39.4-3.6,78.5,2.5c5,0.7,12.2,0.4,17.5,0.4v-13.7l-12.6-0.2c-1.4-11.3,1.3-77.2-0.7-80.6l-18.5-0.5l0.2-10.6
		c-1.6,0.2-30.1,0.7-30.8-0.5c0-3.8,0-7.6,0-11.3l-0.2-9.9l-2.2-0.9c-0.5,0.9-0.2,0-0.5,1.6L90.6,50z"/>
</g>
</svg>
