<?xml version="1.0" encoding="utf-8"?>
<!-- Generator: Adobe Illustrator 23.0.3, SVG Export Plug-In . SVG Version: 6.00 Build 0)  -->
<svg version="1.1" id="Layer_1" xmlns="http://www.w3.org/2000/svg" xmlns:xlink="http://www.w3.org/1999/xlink" x="0px" y="0px"
	 viewBox="0 0 184.3 184.3" style="enable-background:new 0 0 184.3 184.3;" xml:space="preserve">
<style type="text/css">
	.st0{fill:#FFFFFF;}
</style>
<g id="Layer_x0020_1">
	<path class="st0" d="M94.9,49.3c-0.5-0.4-0.2-0.5-0.2-2V36c0-1.6-0.5-3.2,1.1-3.2c1.1,0,1.1,0.2,1.1,1.1v11.5c0,0.7,0,1.6,0,2.3
		c0,1.3,0.2,1.4-0.2,1.8C96.2,49.7,95.3,49.7,94.9,49.3z M71,49.3c-0.4-0.2-0.2,0-0.2-0.5V34.2c0-1.1-0.2-1.6,0.7-1.6
		c1.1-0.2,1.4,0,1.4,0.9v14.8c0,0.7,0.2,0.9-0.5,1.1C71.9,49.7,71.4,49.7,71,49.3z M113.7,49.3c-0.2-0.7-0.2-16,0-16.2
		c0.2-0.5,1.8-0.9,2.2,0.2c0.2,0.5,0,5.6,0,6.5h7.6v-5.4c0-0.2,0-0.7,0-0.9c0.2-1.1,1.8-1.1,2.2-0.2v14.2c0,1.4,0.2,1.4-0.2,1.8
		c-0.5,0.4-1.3,0.4-1.8,0c-0.2-0.2-0.2,0.2-0.2-0.9c0-0.2,0-0.7,0-0.9v-5.8l-7.6,0.2v5.9c0,0.4,0,1.4-0.4,1.6
		C114.9,49.7,114.2,49.7,113.7,49.3z M77.7,49.3c-0.2-0.2-0.2,0-0.2-0.5V34.2c0-1.1,0.2-1.3,1.1-1.4c0.5,0,1.6,0,2.2,0.4
		c0.9,0.5,6.3,12.1,7.2,13.1V33.5c0-0.7,0.2-0.7,1.1-0.7c0.9,0,1.1,0,1.1,0.7c0,4.3,0.2,12.1-0.2,15.8c-2.3,1.1-3.2-0.5-4-1.8
		c-0.7-1.3-1.4-2.7-2.2-4c-0.7-1.4-1.4-2.5-2.2-4.1c-0.5-1.1-1.4-3.1-2.2-4v13.1C79.6,50.2,78,49.5,77.7,49.3z M58.9,49.3
		c-0.4-0.4-0.2,0.4-0.4-0.7v-6.1c0-11.7-0.7-9.9,3.8-9.9s5.6-0.5,4.9,1.8c-1.1,0.4-4.9,0.2-6.5,0.2v5.8l5.9,0.2
		c0.2,0.2,0-0.2,0.2,0.4c0.2,0.5,0,0.9-0.2,1.3c-1.3,0.4-4.5,0.2-5.9,0.2v5.8c0,0.2,0,0.7,0,0.9C60.6,50.1,59.1,49.7,58.9,49.3z
		 M109.3,35.5c-1.4-0.2-2.2-1.4-4.5-1.1c-1.4,0.2-2.5,1.8-1.8,3.4c1.1,2,4.5,2,6.5,4.5c2.3,2.9-0.4,9-7,7.2
		c-2.9-0.7-2.9-2.3-2.2-2.9c0.4-0.2,1.3,0.5,1.8,0.7c2.2,0.9,5.2,0.9,5.8-1.3c0.9-3.4-3.6-4-5.6-5.4c-4-3.1-1.4-9.2,4.7-7.9
		C109,33.1,109.7,33.5,109.3,35.5z M32.5,58.9v95.8c-2.9,0-7.4,0.5-9.5,1.8c-4.1,2.2,3.8,3.6,5.6,4c14,1.8,27.2-2.5,15.7-4.9
		c-2.2-0.5-4.3-0.4-6.3-0.9V58.9h108.4l0.2,95.6c-1.4,0.4-11.3,0.7-10.6,3.4c1.8,3.2,15.5,2.9,19.8,2.3c1.8-0.2,9.7-1.8,5.9-3.8
		c-2.2-1.3-6.8-1.8-9.7-1.8c-0.2-3.6,0-19.1,0-23.8V82.8c0-3.4-0.4-22.1,0.2-23.9c5.2,0.2,7.2-1.1,7.2-6.3c0-4.7,0-9.2,0-13.7
		c0-7.4,1.8-15.3-5.2-15.3c-2.2,0-4.7,0-6.8,0c-36.7,0-73.3,0-109.8,0c-2.3,0-4.7,0-6.8,0c-6.8,0.2-5.2,8.1-5.2,15.3
		c0,4.7,0,9.2,0,13.7c0,2.3,0.4,4.1,1.6,5.2C28.3,59.1,30.1,58.9,32.5,58.9z"/>
</g>
</svg>
