<?xml version="1.0" encoding="utf-8"?>
<!-- Generator: Adobe Illustrator 23.0.3, SVG Export Plug-In . SVG Version: 6.00 Build 0)  -->
<svg version="1.1" id="Layer_1" xmlns="http://www.w3.org/2000/svg" xmlns:xlink="http://www.w3.org/1999/xlink" x="0px" y="0px"
	 viewBox="0 0 184.3 184.3" style="enable-background:new 0 0 184.3 184.3;" xml:space="preserve">
<g id="Layer_x0020_1">
	<path d="M119,81.4c5.2,2.2,13.7,0.9,19.4,0.7c0,4.1,0.5,7.7,0.7,11.9c0.4,4.5,1.4,8.6,0,11.5c-5,1.3-9.4,0.7-14.6,0.2L119,81.4z
		 M98.7,76.8l6.3,24.1c-4.1-0.5-7.4-0.9-11.9-0.9c-4.9,0-7.4,1.3-11.2,1.4c-2-2.7-6.5-17.6-9.2-22.9c4-0.9,7.9-2.3,12.1-2.7
		C89.9,75.7,94.4,76.4,98.7,76.8z M72.8,78.7c-9.7,3.8-18.4,12.1-20.9,13.1L41.5,63.6c5-4.3,13.5-9.7,20.9-12.1L72.8,78.7z
		 M136.5,57.7c7.2-1.6,11.7-5.2,17.5-7.9v26.6c-4.9,2.2-9.9,4.5-15.5,5.2L136.5,57.7z M136.5,57.7c-13,2.3-12.4,0.5-23.4-2.2
		l5.9,25.9l-20.3-4.9L91,47.2c12.6,3.2,17.3,6.7,21.8,7.7l-5.2-23.2c9.7,2.5,14.6,6.3,26.1,3.1C135.6,37.3,136.1,53.2,136.5,57.7z
		 M53.5,28.7c7.4-4,22.5-6.1,31.1-5l6.1,23.6c-16.7-0.7-17.6,2-28.4,3.6L53.5,28.7z M23.6,28.2c-1.4,4.5,3.1,13.9,4.7,18.2
		c5.6,15.5,41.4,117.5,44.1,121.1l4.3-0.5c1.6-4.9-4.5-17.5-6.5-23.2c-2.3-7-6.3-15.8-7.9-22.7c14.8-10.3,22-18.5,47.3-12.4
		c10.1,2.3,16,5.2,26.6,4.1c6.5-0.7,20-3.6,23.8-7.7c1.6-4.5,0.5-36,0.5-43.6c0-55.1,3.1-47.2-15.1-37.4c-4.7,2.5-10.8,4.9-16.2,5.4
		c-22.1,2.9-29.5-20.7-69.8-9.5c-5.2,1.4-10.8,3.6-15.5,6.3l-13.3,7.9C29.8,29.6,28.9,26.4,23.6,28.2z"/>
</g>
</svg>
