<?xml version="1.0" encoding="utf-8"?>
<!-- Generator: Adobe Illustrator 23.0.3, SVG Export Plug-In . SVG Version: 6.00 Build 0)  -->
<svg version="1.1" id="Layer_1" xmlns="http://www.w3.org/2000/svg" xmlns:xlink="http://www.w3.org/1999/xlink" x="0px" y="0px"
	 viewBox="0 0 184.3 184.3" style="enable-background:new 0 0 184.3 184.3;" xml:space="preserve">
<g id="Layer_x0020_1">
	<path d="M93.6,187.5c-1.8-1.3-13.1-20.2-14.8-22.9l-14.8-23.8c-1.6-2.7-3.1-5-4.7-7.7c-4.7-7.6-26.5-41.9-29-47.2
		C7,39.5,41.1-14.9,92.4-14.9c10.6,0,21.2,2.7,28.6,6.3c14.6,6.8,28.6,20,34.7,34.7c10.1,24.1,7.7,45-5.4,67
		c-6.3,10.4-12.6,21.1-18.9,31.5l-28.1,47C99.9,176.8,96.5,182.1,93.6,187.5z M92.4,12.3c4.5,0,8.1,3.6,8.1,8.1s-3.6,8.1-8.1,8.1
		s-8.1-3.6-8.1-8.1S87.9,12.3,92.4,12.3z"/>
</g>
</svg>
