<?xml version="1.0" encoding="utf-8"?>
<!-- Generator: Adobe Illustrator 23.0.3, SVG Export Plug-In . SVG Version: 6.00 Build 0)  -->
<svg version="1.1" id="Layer_1" xmlns="http://www.w3.org/2000/svg" xmlns:xlink="http://www.w3.org/1999/xlink" x="0px" y="0px"
	 viewBox="0 0 184.3 184.3" style="enable-background:new 0 0 184.3 184.3;" xml:space="preserve">
<style type="text/css">
	.st0{fill:none;}
	.st1{fill:#FFFFFF;}
</style>
<g id="Layer_x0020_1">
	<path d="M104.2,53.4c-3.2,0.7-52.4,0.4-60.7,0.4c-5.2,0-3.2-3.6-2.5-4.1c1.4-1.1,43.9-0.5,51.5-0.5
		C99.7,49.1,106.7,47.8,104.2,53.4z M123.3,10.2c0-9,0-7.4-9-7.4c-21.6,0-43.6,0.4-65,0c0.2,4.7,0,9.4,0,14c0,2.5,0.7,11.5-0.7,13
		c-2,2-22.5,0-27.2,0.9c0.4,16.7-0.2,33.8,0,50.6c0,5.2-0.5,49,0.5,50.2c1.3,1.4,9.4,0.7,11.7,0.7c6.7,0,24.1,0.2,41.9,0.2
		c0.4-0.5,0.7-1.3,1.1-1.8l5.4-9c0.5-0.7,0.9-1.6,1.4-2.3l0.2-0.2l7.2-10.6v-0.2c4-5.6,7.6-11.3,11.5-16.9c4-5.6,7.7-11.3,11.7-17.1
		c2-2.7,4-5.6,5.8-8.3v-0.2l3.6-5C123.5,46.7,123.3,30.2,123.3,10.2z M92,132.6h2.7l0.9-1.1v-0.2c0.9-1.1,1.8-2.3,2.5-3.6
		c1.4-2,2.9-4.1,4.3-6.1c1.4-2.2,2.9-4.1,4.3-6.3l-2.5-1.8c-0.2,0.4-0.5,0.7-0.7,1.1c-1.3,1.8-2.3,3.4-3.4,5.2l-2.3,3.4
		C95.8,126.3,93.8,129.5,92,132.6z M112,132.4c6.1-0.2,10.3-0.4,11-0.5l0.4-8.6c0-2.5,0.2-4.9,0.2-7.4l-3.8,5.4
		C117.2,124.8,114.5,128.6,112,132.4z M123.7,91c0-2,0-4,0-5.9c-0.7,0.9-1.3,1.8-1.8,2.9c-0.5,0.7-0.9,1.4-1.4,2.2
		c0.5,0.4,0.9,0.5,1.3,0.9c0.5,0.4,0.9,0.7,1.4,1.1L123.7,91z M88,62.9h-4.9H41.6l-0.7-0.2L40,61.7c0.4-4,2-3.2,5.9-3.2
		c3.1,0,5.9,0.2,9,0c14.4-0.4,30.6,0,45.5,0c3.6,0,5.9,1.8,3.1,4.3l-6.1,0.2h-4.9H88z M94.3,67.8c0.9,0.5,1.8,1.3,1.3,3.1
		c-0.4,1.4-1.6,1.4-3.2,1.4H64.1l0,0h-5.9H44.8c-1.6,0-3.6,0.4-4.3-1.3c-0.9-1.8,0.2-2.7,1.3-3.2H94.3z M23.2,25.8h21.6V4.2
		L23.2,25.8z M44.3,44.4c-6.8,0-4-4.1-2.5-4.5l29.9-0.2c6.7,0,24.7-0.4,30.6,0c3.8,0.2,3.4,4.7-0.4,4.7H44.3z"/>
	<polyline class="st0" points="109.8,91.2 117.9,105.2 140,76.4 	"/>
	<polygon class="st1" points="111.2,90.3 118.1,102.3 138.8,75.5 141.5,77.5 119.2,106.1 117.7,108.1 116.5,105.9 108.4,91.9 	"/>
	<path d="M71.8,166.4c-0.5-0.2-2-1.3-2.3-1.6c0.2-0.7,0.5-1.1,0.7-1.8c2.9-6.8,6.7-14.4,10.3-21.1c1.4-2.5,2.7-4.9,4.1-7.4
		c3.1-5,5.4-9.2,8.8-14.2l2.3-3.6c1.1-1.4,6.7-9.9,7.2-10.4l10.8,7.6c-0.5,1.1-12.2,18.2-14.2,20.5l-2.5,3.4
		c-0.5,0.5-0.9,1.1-1.3,1.6l-4,4.9C88.4,148.8,76,163,71.8,166.4z M133.9,104.3c0.5-0.4,1.1-1.4,1.4-2c0.5-0.7,0.9-1.4,1.4-2
		c0.5-0.7,2.5-3.6,2.7-4.1c0.7-0.5,0.7-0.7,0.9-1.4c0.4-0.2,0.2,0,0.4-0.4c0,0,0.4-0.5,0.5-0.7l16.6-24.3c0.7-1.1,4.9-6.7,4.9-7.7
		c0.2-1.6-0.9-2.2-1.8-2.7c-1.8-1.3-3.4-2.2-5-3.4c0.9-4,2.9-6.1-2.7-9.7c-4.3-2.9-6.3-5.4-13.7,2.9l-8.1,9.9L123.8,69
		c-2.2,3.2-3.8,5.6-5.8,8.5c-3.6,5.2-7.7,11.5-11.7,17.1c-3.8,5.4-7.4,11.3-11.5,17.1l-7,10.6c-0.5,0.9-0.9,1.4-1.4,2.3l-5.4,8.8
		c-1.8,2.9-5.8,10.4-7.4,13.7c-1.4,2.7-8.8,18.4-8.6,19.3l7.2,4.7c0.9-0.7,2.3-2.2,3.2-3.1c1.1-1.1,2-2,3.1-3.1c1.1-1.1,2-2,3.1-3.1
		c0.9-1.1,2-2.2,3.1-3.2c0.5-0.5,0.9-0.9,1.4-1.6c0.5-0.5,0.9-0.9,1.4-1.6c4.1-4.7,7-8.6,11-13.1c4.1-4.9,14-19.4,17.3-24.3
		l28.8-42.1c1.8-3.1,5-7.7,6.8-11c0.5-1.1,1.4-2.5,2.2-3.6c0.5,0.2,2.3,1.4,2.7,2c0.2,0.7-14.9,22.1-15.3,22.7l-11.5,17.1
		c-1.8,3.6,4,4.7,4.1,2.2c0.5-0.4,0,0.2,0.5-0.4C134.1,104.5,133.9,104.9,133.9,104.3z M59.8,181.5c1.6-0.7,10.4-8.3,11.2-9.4
		c-0.5-0.5-5.8-4.1-6.7-4.3C64.1,169.1,60.3,178.1,59.8,181.5z M104.9,103.4c0.2-0.7,1.3-2.2,1.8-2.5c0.9,0.4,10.6,7,11.2,7.6
		c-0.5,0.9-1.3,1.8-1.8,2.5l-5.6-3.8C108.7,105.9,106.9,104.7,104.9,103.4z M109.4,96.8c0.4-0.7,1.3-2,1.8-2.5
		c1.1,0.4,9.9,6.8,11.2,7.4c-0.2,0.9-1.3,2.2-1.8,2.7C119.5,103.8,109.8,97.3,109.4,96.8z M113.4,91.4c0.5-1.1,1.4-2.2,2.2-3.2
		c0.7-1.1,1.4-2,2.2-3.1c1.3-2.2,2.7-4.1,4.1-6.3l8.5-12.2c0.7-1.1,1.4-2,2.2-3.1l6.8-8.8c1.4-1.6,5.9-7.2,8.3-8.1
		c0.9-0.4,5.9,2.9,5.9,4.3c0.2,2.3-4.9,11.7-6.3,13.9c-0.4,0.5-0.5,1.1-0.9,1.6l-2.9,4.7c-0.5,1.1-1.3,2-2,3.1
		c-2.9,4.7-9,13.1-12.6,18.5c-0.9,1.3-3.6,5.6-4.3,6.1C123.7,98.6,114.8,92.3,113.4,91.4z"/>
</g>
</svg>
