<?xml version="1.0" encoding="utf-8"?>
<!-- Generator: Adobe Illustrator 23.0.3, SVG Export Plug-In . SVG Version: 6.00 Build 0)  -->
<svg version="1.1" id="Layer_1" xmlns="http://www.w3.org/2000/svg" xmlns:xlink="http://www.w3.org/1999/xlink" x="0px" y="0px"
	 viewBox="0 0 184.3 184.3" style="enable-background:new 0 0 184.3 184.3;" xml:space="preserve">
<g id="Layer_x0020_1">
	<path d="M89.4,50.3c5.8,4.7,9.4,5.9,12.8,12.8c3.8,7.7,1.1,12.4-1.1,20.2c-2.5,8.6-8.5,11.7-14.6,7.7c-8.6-5.6-1.4-12.4-1.8-18.9
		c-2.2-0.2-2-0.2-3.4,1.1c-1.1,0.7-1.6,1.3-2.7,2.2c-12.4,8.6-27.5,15.7-40.7,23c-2.5,1.4-4,1.6-4.9,4.3c-0.9,2.9-0.4,5.2,1.4,7
		c4.3,4.3,9,0.2,13-1.8l17.8-9.5c2.3-1.3,3.8-3.2,6.1-1.6c0.4,3.1-0.2,2-3.4,3.8l-13.9,7.4c-4.5,2.5-16.7,7.2-11.2,14.4
		c4.7,5.9,12.2-0.2,19.3-4c3.2-1.6,15.3-9.4,18.4-8.3c0.4,2.9-1.8,3.2-7,6.1l-17.3,9.4c-2.7,2.2-2.5,7-0.2,9
		c4.3,3.8,12.1-1.8,18.4-5.4l13.1-7c2-0.9,3.1-0.5,3.2,2c-2.3,2.5-16.2,7.7-18,10.8s0.2,4.5,1.4,6.7c5.2,0.7,6.1-1.3,10.1-3.1
		c-1.4-7.4,2.2-11.5,9.9-10.1c0.7-6.3,4.3-9,11.2-8.3c-0.2-4.9,1.3-7.9,4.7-9.9c4.1-2.5,7.4-0.7,10.8,0.7c0.9-3.8,3.8-6.8,8.5-7
		c5.2-0.2,6.5,2.3,9,5c3.8-1.4,12.2-6.1,16.2-8.6c-4.5-3.6-7.7-6.5-11-10.8c-1.1-1.4-2-2.3-3.2-4c-7.2-9.7-11.7-17.3-17.8-25.9
		C117.7,53.2,96.6,48.8,89.4,50.3z M88.1,131.6c-2,4.7-0.9,5.2,1.4,9.7c1.4,2.7,4.7,5.8,8.1,2.3c3.1-2.9,0.4-6.5-1.1-9.2
		C94.3,130.2,92.6,130.2,88.1,131.6z M97.1,130.2c0.2,1.1,2.9,7.9,6.7,8.6c4.7,0.9,8.3-2.5,7.2-7.2
		C108.1,119.2,95.3,121.6,97.1,130.2z M123.8,114.4c2.3,12.6,16.6,11.7,15.1,2c-0.2-1.6-3.2-8.6-7-9.5
		C126.8,105.4,122.7,109.1,123.8,114.4z M108.1,119.2c0.2,1.3,4.5,10.6,6.8,11.7c5,2.5,10.1-1.3,9.7-6.1c-0.4-3.2-4.3-10.4-6.8-11.9
		C113.2,109.9,107.6,113.6,108.1,119.2z M34.3,94.9c14.6-4,39.1-18.7,47.5-26.5l7,1.6c-1.4,5.8-6.3,14.8-1.1,18.4
		c3.1,2.2,6.8,0.9,8.6-1.4c1.6-2.2,8.3-18.5,0.5-26.8c-4.3-4.7-8.1-7.4-14-10.3c-6.7-3.4-12.6,0-18.5,2.7c-4.1,1.8-4.7,1.4-6.7,5.4
		c-8.1,15.5-7.7,15.7-18,29.9C38.3,89.9,35,93.5,34.3,94.9z M26.2,87.2c1.1,1.6,2.2,2.5,0.9,4.9c-0.7,1.4-2.3,2.3-4.5,1.4
		C19.9,92,18.8,85.9,26.2,87.2z M4.6,90.8v0.5c3.4,1.6,15.7,7.4,19.1,8.3c4.5,1.1,11.5-9.4,13.9-13c4.5-6.8,17.8-27.4,20-34.4
		L27.7,39.1h-0.4C23.5,47.4,19.7,56.4,16,65C13.3,71.5,7.9,85.9,4.6,90.8z M158.9,86.8c4.1-1.6,6.3,4.7,2.5,6.3
		C157.4,95.1,154.2,88.6,158.9,86.8z M179.6,89.3v-0.5l-20.3-36.9c-2-3.4-5.2-9-6.5-12.4c-2.3,0.5-21.2,11-25.9,13.5l-3.6,2.3
		c2.2,4.3,5.6,8.8,8.1,12.4c3.2,4.9,15.3,21.8,20,25.7c0.9,0.7,6.1,6.3,8.3,6.5C160.9,100,176.2,91,179.6,89.3z"/>
</g>
</svg>
