<?xml version="1.0" encoding="utf-8"?>
<!-- Generator: Adobe Illustrator 23.0.3, SVG Export Plug-In . SVG Version: 6.00 Build 0)  -->
<svg version="1.1" id="Layer_1" xmlns="http://www.w3.org/2000/svg" xmlns:xlink="http://www.w3.org/1999/xlink" x="0px" y="0px"
	 viewBox="0 0 184.3 184.3" style="enable-background:new 0 0 184.3 184.3;" xml:space="preserve">
<g id="Layer_x0020_1">
	<path d="M63.7,133.7c2.2-1.6,3.2,3.4,1.6-6.7c-0.5-2.9-0.7-5.8-1.1-8.6c-1.4-10.4-2.3-16,0.2-26.3c0.4-1.6,1.8-6.3,2.5-7.2
		c1.1-1.3,2.5-0.5,3.2,0.2c3.2,2.7,5.6,3.6,9.7,5c0.2,1.6-0.2,4.9-0.2,6.5c0,2.2,0.4,4.1,0.5,6.1c1.8,14.6,2.3,22.5-0.5,37.6
		c-0.7,3.6-1.6,7.7-2.5,11.2c-1.8,5.9-2,4.9-7.2,2.7c-3.1-1.3-4-0.9-4.1-2.7l-2.3-17.3C63.6,133.5,63.6,133.9,63.7,133.7z
		 M82.6,79.5c-3.8,0-7-3.6-7.9-6.7c-1.4-4.1,0.4-8.5,1.8-12.1c3.4-8.6,3.4-5.8,7.2-7.6c5-2.3,9-8.6,6.8-14.4
		c-4-10.1-18.7-7.7-21.2,2.9c-0.9,3.6,0.4,5,0,6.7c-0.2,0.9-1.1,1.8-1.6,2.3c-2,1.8-4,3.2-5.8,5.4c-9.2,10.4-14.4,16.7-21.2,30.6
		c-4.9,9.9-8.6,22.7-10.3,34c-0.4,2-1.6,12.4-1.1,13.5c0.5,0.5,5.6-0.2,7.6,0.2c0.5,2.5-3.2,23.2-2.5,25.7c4.5,0.2,9.4-0.2,13.9-0.4
		c1.1,0,2.3,0.2,2.7-0.9c0.5-1.4-0.5-1.6-1.4-2c-1.8-0.5-3.4-1.4-5-2.2c-2.9-1.3-2.3-1.4-1.6-4.3c0.7-2.5,4.7-15.8,5.2-16.6h5
		l7.4,25.4c6.3,0.2,13.5-0.2,19.8-0.5l14.8-0.5c1.6-0.4,1.6-2.3,0.4-3.1c-8.1-4-6.5,0-4-12.4c1.3-6.5,1.3-12.1,2-18.4
		c0.7,0.4,1.3,2.9,1.4,3.6c0.4,1.4,0.9,2.5,1.3,4c1.6,5.2,3.2,11.5,4.1,16.9c0.4,1.8,1.3,7.9,1.8,8.8c0.2,0.2,16.6-0.2,17.3-0.5
		c0.5-0.4,1.1-1.3,0.7-2c-0.5-0.9-4.9-2-6.5-2.5c-2.3-0.7-2.2-0.9-2.5-3.4l-4.7-31.7c-2.3-15.5-4.7-25.4,2.9-40.7
		c0.9-1.8,5.6-10.1,7.6-10.4c1.4-0.2,1.8,1.4,3.1,2.9c0.9,1.3,1.6,2.3,2.5,3.4c2.7,3.4,5.6,6.5,8.6,9.5l9.7,8.1
		c0.9,0.7,0.9,1.1,0.2,1.8c-0.7,0.9-0.7,1.1-0.7,2.5l2.9-0.4l0.4-1.6c1.3,0,1.8,1.3,4.7,2c0,2.3-5.2,27.7-5.9,30.6
		c-1.1,5-2,10.1-3.1,15.1c-0.4,2.2-2.9,14.4-2.9,15.3c0.7,0.2,2,0.4,2.7,0.4c0.4-1.3,9.5-47.9,10.8-53.5c0.4-1.3,0.5-2.5,0.9-3.6
		c0.2-1.1,0.5-3.2,0.7-4c2-0.4,3.8-1.6,3.2-4c-0.4-1.6-2.2-2.3-3.8-3.4c-13.5-9.7-22.3-22.1-26.5-38.5c-2.5-9.7,5.9-2.2,11.7-9
		c5-5.9,2.2-16.4-7.6-16.6c-5.9-0.2-11.2,4.5-12.1,9.5c-0.5,2.9,0.5,3.8-2.2,5c-3.1,1.6-8.5,4.9-11,7.2c-2,2-3.6,2.9-5.6,5.2
		c-2.2,2.5-4.3,5-6.5,7.9c-3.1,4.3-5.4,9.4-7.2,14.6C83.7,75.7,83.4,77.5,82.6,79.5z"/>
</g>
</svg>
