<?xml version="1.0" encoding="utf-8"?>
<!-- Generator: Adobe Illustrator 23.0.3, SVG Export Plug-In . SVG Version: 6.00 Build 0)  -->
<svg version="1.1" id="Layer_1" xmlns="http://www.w3.org/2000/svg" xmlns:xlink="http://www.w3.org/1999/xlink" x="0px" y="0px"
	 viewBox="0 0 184.3 184.3" style="enable-background:new 0 0 184.3 184.3;" xml:space="preserve">
<style type="text/css">
	.st0{fill:#110E12;}
</style>
<g id="Layer_x0020_1">
	<path class="st0" d="M126.3,144.6l5-2.3c2-2.9,14.2-5.9,12.4-23.2c-0.9-9-4.1-17.8-7-25.9l-72,54c3.2,1.3,6.3,2.2,8.5,3.1
		c1.8,0.7,3.1,1.3,4.9,2l0.2-0.2l13.9,9.4C100.7,155.4,116.2,146.5,126.3,144.6z M132.6,80.7c-1.1-3.6-2.2-7.4-2.9-11.2l-85.9,64.3
		c0.2,0.2,0.4,0.4,0.7,0.5l1.1,2c1.4,1.8,3.6,3.2,6.1,4.9L132.6,80.7z M128.5,54.9c0.2-3.2,0.5-6.5,1.4-9.7c0.5-2.3,1.4-4.5,2.5-6.7
		c0.9-1.6,2.5-3.8,2.5-5.4l-0.2-0.9c-5.6-1.1-13,5.9-34-3.8c-3.4-1.6-5.9-4-8.6-5.2c-6.3,3.6-9.7,6.8-18.7,9
		c-14,3.6-20.7-1.1-24.3,0c-0.5,5.4,14.2,11,1.4,52c-3.1,9.9-9.5,25.9-10.1,36.7L128.5,54.9z M134.8,148l-7.7,4
		c-4.5,2.7-13.5,4.3-18.9,7.4c-5.4,3.1-7.6,4.9-12.1,8.3c-1.3,0.9-2.7,2.3-4,3.1c-3.4-2-8.8-8.5-21.2-13.7
		c-5.4-2.2-20.2-6.5-24.1-10.6c-4.9-2.7-8.1-5.9-10.4-11c-4.7-4.3-2.9-20-1.3-26.6c4-16.4,13.9-36.4,13.5-52.6
		c-0.2-12.4-4.3-17.3-9.7-23.8c2.5-3.1,6.7-5.6,8.5-8.8c7.6,0.9,12.8,5,26.1,1.3c8.8-2.5,13.1-6.7,18.7-11l8.5,6.1
		c6.8,4.3,14.9,6.8,23.6,6.3c5.6-0.4,8.5-2,13-2.7c1.4,2.7,6.7,6.5,8.5,9c-9.2,10.3-10.8,21.1-9.4,32l0.2,0.2h-0.2
		c2.9,19.8,16.2,40.3,14.8,59.9c-0.5,7.6-5,16-10.1,19.3C138.7,145.3,137.3,147.1,134.8,148z M27.8,135.6l2.3,4.9
		c1.3,1.6,0.9,0.7,1.3,2.5c2.2,1.3,3.2,3.1,4.3,4.7c2.9,1.1,4.5,6.3,29.3,15.1c5.2,1.8,11,5,14.8,7.7c2.3,1.8,3.8,2.9,6.1,4.9
		c2.2,2,4,4,6.1,5.6c2.9-2.2,4.9-4.7,7.9-7.4c17.5-14.8,31.7-11,49-27c19.3-17.6,3.4-51.1-2.5-70.9c-4.5-15.3-6.7-29.2,6.3-40.1
		c1.8-1.6,3.2-2.2,4.7-3.4l-0.5-0.5c-5.2-4.7-14.2-10.3-18.4-17.5c-7.9,2.2-13.7,7.2-26.8,2.9C101.3,13.5,96.6,6.3,91.9,3.1
		c-8.6,7-16.6,17.6-33.7,15.1c-5.9-0.9-8.3-2.9-12.8-4.1c-3.4,6.5-16.7,15.7-18.9,18.2c1.6,1.3,2.9,2,4.7,3.4
		c1.8,1.4,2.9,2.7,4.3,4.3c9.4,11.2,4.3,28.3,0.5,40.3C30.7,98.5,22.1,114.5,27.8,135.6z"/>
</g>
</svg>
