<?xml version="1.0" encoding="utf-8"?>
<!-- Generator: Adobe Illustrator 23.0.3, SVG Export Plug-In . SVG Version: 6.00 Build 0)  -->
<svg version="1.1" id="Layer_1" xmlns="http://www.w3.org/2000/svg" xmlns:xlink="http://www.w3.org/1999/xlink" x="0px" y="0px"
	 viewBox="0 0 184.3 184.3" style="enable-background:new 0 0 184.3 184.3;" xml:space="preserve">
<g id="Layer_x0020_1">
	<path d="M119.4,69.1c0.2,0.5,0.4,0.9,0.7,1.4c0.2,0.2,0.2,0.2,0.2,0.2c1.1,2.5,5.2,6.3,7.7,7.7c3.8,2,8.1,3.1,12.6,2.5
		c7.7-0.9,14.8-5.9,17.3-13.7c3.8-10.8-1.4-22.7-12.2-26.8c-5.9-2.2-11.9-1.6-17.1,0.9c-4,1.8-8.3,6.3-9.9,10.8
		c-1.1,2.9-1.6,5.2-1.6,8.8C117.2,62.8,118.5,68.2,119.4,69.1z M62.9,68.5l0.4-0.5c0.5-1.4,1.1-3.2,1.3-4.7c0.2-0.5,0.2-0.9,0.2-1.6
		c0.2-0.2,0,0.2,0.2-0.4c0.2-0.5,0.2-3.2-0.2-3.6c0.2-2-1.3-5.9-2-7.4c-1.8-3.8-5.6-7.7-9.4-9.4c-5.8-2.5-11.3-3.2-17.5-0.7
		c-0.4,0.2-0.4,0.2-0.7,0.4c-1.8,0.9-1.4,0.5-3.8,2.2c-8.3,6.1-10.8,17.5-5.9,26.6c2.2,4,5.6,7.2,9.7,9.2c5.2,2.3,10.1,2.5,15.7,0.7
		c2.5-0.7,4.3-2,6.1-3.2c1.1-0.9,4-3.6,4.5-5C62,70.7,62.7,69.1,62.9,68.5C62.9,68.7,62.9,68.7,62.9,68.5z M171,122
		c0.4,0,0.5-0.2,0.9-0.2c0.2,0,0.4,0,0.5,0c0.7-0.2,0.2,0,0.5-0.4c0.4,0.2,3.2-0.5,3.8-0.7c0.2-1.1-1.8-11.9-2.2-13.5
		c-0.9-4.3-2.2-8.5-4.3-11.7c-4.1-6.5-11.2-9.7-21.1-10.8c-8.8-1.1-21.1-0.9-28.8,2c-3.2,1.1-6.3,2.7-8.6,5
		c-0.4,0.4-0.5,0.9-0.9,1.3c-1.3,2-2.5,2.7-3.4,4.5c-0.5,1.3-2,4.5-2.2,5.9c3.2,0.5,6.1,1.3,9,2.3c3.1,1.3,5,2.7,7.2,4.3
		c2,1.6,3.8,4.1,4.9,6.3c0.9,1.8,1.8,4.1,2.3,6.1c0.9,2.9-0.7,2.5,5.9,2.5C147.6,125.2,158.3,124.5,171,122z M8,118.2l-0.4,2.3
		c0.7,0.5,3.8,1.1,4.9,1.4c1.4,0.4,2.9,0.5,4.3,0.9c1.8,0.9,16.2,2,19.1,2.2c7,0.2,13.7,0.2,20.9-0.2c1.1-4,2.3-8.3,4.9-11.3
		c0.5-0.5,0.7-0.9,1.3-1.6c0.4-0.5,0.9-0.9,1.4-1.4c6.7-5.9,13.5-6.1,14.8-6.8c-0.2-1.6-1.3-4-1.8-5.4c-0.5-1.3-0.7-1.3-1.6-2.2
		c-1.3-1.3-2.3-2.9-3.2-4.1c-1.3-2.2-4.3-3.6-6.7-4.5c-7-3.1-17.3-3.6-26.1-3.1c-5.6,0.2-13.1,1.4-17.8,4.1
		c-4.9,2.7-8.1,6.3-10.1,12.1c-0.9,2.2-2.9,9.9-2.9,12.1c-0.2,0.2,0,0-0.2,0.2C8.5,113.4,8,118,8,118.2z M125.9,119.8
		c-0.2-0.5-0.4-1.3-0.7-1.6c-1.3-3.1-4.5-6.7-6.7-8.1c-3.2-2.2-6.3-3.4-10.6-4.3c-10.3-2.2-29.3-2.5-38.7,3.4
		c-1.8,1.1-2.9,2-4.3,3.2c-1.3,1.3-2.2,2.7-3.2,4.3c-2.7,4.5-4.1,12.2-4.9,17.5c-0.2,1.6-1.1,5.2-0.9,6.7c0.9,0.5,6.8,1.8,8.3,2.2
		c17.5,3.4,40,2.9,57.4-0.2c1.6-0.2,7.4-1.3,8.6-1.8c0-1.8-2.2-13.9-2.9-16.2C127.1,123.4,126.2,120.4,125.9,119.8z M89.9,59.4
		c-3.2,0.5-5.4,0.9-8.1,2.3c-2.9,1.6-3.6,2.5-5.8,4.7c-1.4,1.4-3.2,4.7-4,6.7c-5.4,15.7,7.4,29.5,21.8,28.1
		c6.8-0.7,12.4-4.5,15.8-10.1c0.7-1.1,1.3-2.3,1.8-3.6c3.1-8.3,0.5-17.3-5.9-23C102.3,61.5,96,58.5,89.9,59.4z"/>
</g>
</svg>
