<?xml version="1.0" encoding="utf-8"?>
<!-- Generator: Adobe Illustrator 23.0.3, SVG Export Plug-In . SVG Version: 6.00 Build 0)  -->
<svg version="1.1" id="Layer_1" xmlns="http://www.w3.org/2000/svg" xmlns:xlink="http://www.w3.org/1999/xlink" x="0px" y="0px"
	 viewBox="0 0 184.3 184.3" style="enable-background:new 0 0 184.3 184.3;" xml:space="preserve">
<style type="text/css">
	.st0{fill:#FFFFFF;}
</style>
<g id="Layer_x0020_1">
	<path class="st0" d="M104.7,110.6c2.5-0.5,3.2,3.2,0.9,3.6C103,114.5,102.5,111.1,104.7,110.6z M45.3,62v-1.4v-5.6h-4v12.8h-3.4
		v7.6c11.2-0.2,23,0,34.2,0c3.8,0,7.7,0,11.5,0v-7.6h-3.4V54.9h-4v12.8H62.9V54.9h-4l-0.2,12.8H45.4L45.3,62z M54.4,48.8H53h-4.5
		v-5.4h-2v5.4h-8.8v4.3v0.2h13h4.9h27.9v-4.5H57v-0.9V45h-2v3.1C54.8,49.2,55.2,48.6,54.4,48.8z M118.2,114.3c0.2,0,0.5-0.2,0.5-0.2
		c0.9-0.4,0.2,0,0.5-0.4c0.9-0.2,1.6-0.5,2.5-0.9c-0.2,3.4,0,7,0,10.4c0,2.3-0.4,8.3,0,10.3c0.5,2.5,4.3,1.6,6.1-0.9
		c1.1-1.4,2.7-4.7,3.6-6.7c1.1-2.3,2.2-4.9,3.2-7.2c1.1-2.5,2-4.9,3.1-7.4c4.5-9.5,0-5.9,9.5-11c7.6-4,19.1-10.6,25.9-15.3
		c4.7-3.1,1.3-9-6.1-10.1c-9-1.4-16.6,2.9-23.8,6.5l-13.7,6.7c-3.8,1.8-10.4,5.2-13.9,6.7l-13.9,6.7c-4,2-2.7,1.8-7.7,0.7
		c-2.7-0.5-5.9-1.3-8.6-1.6c-1.8-0.2-5.6,2.3-7.4,3.1c-4.1,1.8-0.2,4.7,1.1,5.6c4.7,4.1,12.6,10.6,19.1,11.5c2.7,0.4,5.8-1.1,8.1-2
		l7.2-2.9c0.7-0.2,1.4-0.5,2.2-0.7l2-0.9L118.2,114.3z M49.2,115.6l-0.9,6.1l-0.9,5.9l-0.2,1.1l-2.9,20h31.9L69,97.8H51.7
		c-0.4,0-0.2,0-0.4,0.2c-0.2,0.5-2,12.4-1.8,13.5l-0.2,0.4c-0.2,0.5,0-0.4-0.2,0.4c0,0.2,0,0.4-0.2,0.5L49.2,115.6z M55.3,39.3
		c-3.1,1.1-1.6,5.2,1.3,4.3c1.1-0.2,2-1.4,1.6-2.9C57.9,39.8,56.6,38.9,55.3,39.3z M41.1,120.8h4.7c0.5-0.5,0.5-2.5,0.5-3.2h-5.9
		h-2.2v-5.2h-4.3l-0.2,5.2h-6.5l-0.2-5.2h-4.3v5.2h-6.7v-5.2h-4.3v27c1.6,0,9-0.2,10.1,0.2c-0.2,2.5,0,6.3,0,9.4h19.8l2.5-17.5h-6.1
		V121L41.1,120.8z M46.5,35.7c-4.3,1.4-2.2,7.7,2,6.3C52.6,40.7,51,34.2,46.5,35.7z M110.6,94.4l16.2-7.7c0-0.2-0.2-0.2-0.2-0.2
		l-2.7-0.9c-4.7-1.4-18.2-5-21.6-4.9c-0.9,0-4.5,1.1-4.1,3.2c0.2,1.1,1.1,1.6,1.6,2l6.5,5c0.7,0.5,1.4,1.1,2.2,1.6
		C109.2,93.3,109.7,94,110.6,94.4z M8.9,110.2h38.5c0.2-2.2,1.3-6.8,1.1-8.6H9.1L8.9,110.2z M47.1,95.6c9.2,0,18.5-0.2,27.4,0
		l5.9-18.2H41.1L47.1,95.6z M27.4,120.8h6.7v10.4h-6.7V120.8z M16.5,120.8h6.7v10.4h-6.7V120.8z M112.6,106.8
		c2.3-0.5,2.9,2.9,1.1,3.6C111.1,111.1,109.9,107.3,112.6,106.8z M120,103c2.2-1.3,3.8,2.3,1.6,3.4C119.2,107.3,117.8,104.1,120,103
		z M128.1,99c2.5-0.7,3.2,2.9,1.3,3.6C126.6,103.4,125.7,99.8,128.1,99z M136,95.1c2.3-0.5,3.2,3.1,0.9,3.6
		C134.2,99.4,133.6,95.6,136,95.1z M143.9,91.3c2.2-0.5,2.9,3.1,0.7,3.6C142.1,95.4,141.2,91.8,143.9,91.3z M151.3,87.5
		c2.5-0.9,3.6,2.5,1.4,3.4C150.2,91.8,149.1,88.4,151.3,87.5z M159.2,83.7c2.3-0.7,3.2,2.9,1.1,3.6
		C157.9,87.9,156.7,84.5,159.2,83.7z"/>
</g>
</svg>
