<?xml version="1.0" encoding="utf-8"?>
<!-- Generator: Adobe Illustrator 23.0.3, SVG Export Plug-In . SVG Version: 6.00 Build 0)  -->
<svg version="1.1" id="Layer_1" xmlns="http://www.w3.org/2000/svg" xmlns:xlink="http://www.w3.org/1999/xlink" x="0px" y="0px"
	 viewBox="0 0 184.3 184.3" style="enable-background:new 0 0 184.3 184.3;" xml:space="preserve">
<style type="text/css">
	.st0{fill:#FFFFFF;}
</style>
<g id="Layer_x0020_1">
	<g id="_2429456621008">
		<path class="st0" d="M29.2,62.2V66h125.6c0.2-4.9,0.4-3.6-3.6-5.8c-1.4-0.7-2.7-1.4-4-2.2c-8.6-4.7-54.2-30.2-55.1-30.2
			c-0.7,0-44.5,24.3-47.2,25.9C40.8,55.9,33.2,60.4,29.2,62.2z"/>
		<polygon class="st0" points="25.5,156.5 158.8,156.5 158.8,149.3 153.8,149.3 153.1,149.3 150.9,149.3 25.5,149.3 25.5,155.8 		
			"/>
		<polygon class="st0" points="72.3,133.8 87.2,133.8 87.2,74.6 87.2,74.4 72.3,74.4 		"/>
		<polygon class="st0" points="48.3,133.8 63.3,133.8 63.3,74.4 63.1,74.4 48.3,74.4 		"/>
		<polygon class="st0" points="120.5,133.8 135.4,133.8 135.4,74.4 120.5,74.4 		"/>
		<polygon class="st0" points="96.6,133.8 111.5,133.8 111.5,74.4 96.6,74.4 		"/>
		<polygon class="st0" points="31,149.1 152.9,149.1 152.9,141.9 31,141.9 		"/>
		<polygon class="st0" points="37.3,141.7 38.1,141.7 38.6,141.7 146.8,141.7 146.8,134.5 105.4,134.5 71.4,134.5 37.3,134.5 		"/>
		<polygon class="st0" points="37.3,73.9 146.8,73.9 146.8,66.7 37.3,66.7 		"/>
	</g>
</g>
</svg>
