<?xml version="1.0" encoding="utf-8"?>
<!-- Generator: Adobe Illustrator 23.0.3, SVG Export Plug-In . SVG Version: 6.00 Build 0)  -->
<svg version="1.1" id="Layer_1" xmlns="http://www.w3.org/2000/svg" xmlns:xlink="http://www.w3.org/1999/xlink" x="0px" y="0px"
	 viewBox="0 0 184.3 184.3" style="enable-background:new 0 0 184.3 184.3;" xml:space="preserve">
<style type="text/css">
	.st0{fill:#FFFFFF;}
</style>
<g id="Layer_x0020_1">
	<g id="_2429393510080">
		<path class="st0" d="M96.4,115.1c-3.2-1.6-9-2.3-8.8,3.2c0.2,5.2,3.4,3.1,2.5,10.1c-0.5,3.6-2.9,19.3-4,21.8
			c-2.3-1.1-2-4.1-2.3-8.5c-0.7-6.1-3.1-25.4-4.5-28.6c-5.8-1.1-17.3,2.9-22.3,4.7c-11,3.8-8.3,3.4-11.2,15.3
			c-1.6,7-9,39.2-8.6,44.1l18.7-0.2c0.9-3.8-0.4-5.9,1.8-7.7c6.5,3.4-6.7,8.1,11.2,7.9c13.9-0.2,46.4,0.5,56.2-0.2
			c0.7-4.1-0.7-5.9,1.8-7.9c2.5,1.8,1.3,3.6,2,7.9H148c0.5-4.9-7.2-38.3-9-45.2c-3.1-12.1,0.4-10.4-12.1-14.6
			c-5.9-2-15.3-5-21.6-4.7c-2.7,8.8-2.7,31.1-6.3,37.1l-2.2-9.4c-0.5-2.7-0.9-5.6-1.4-8.6C93,117.8,99.8,123.4,96.4,115.1z"/>
		<path class="st0" d="M44.7,106.1c-1.6-2.5-2.2-8.8-2.5-12.4c-0.5-5.6,4-8.6-1.1-9.4c-7.2-1.1,0.5,5.8-3.8,19.4l-0.9,2
			c-0.2-0.2-0.2,0.4-0.4,0.5c-0.5-4-2-19.6-4.3-23C26.5,83.6,16.8,86,13.9,89c-2.2,2.7-7.7,29.5-7.6,34.7l11.7-0.5
			c1.1-3.4,0.4-2.5,2-4.3l0.7,4.7h22c3.1-8.1,3.1-7.4,11.9-10.4c5.8-2,11.2-3.4,17.6-4.9c0.4-3.4-2.9-16.9-4.3-18.9
			c-2.3-3.4-13.9-5.9-19.1-6.1C48.1,87.8,46.5,103.4,44.7,106.1z"/>
		<path class="st0" d="M140.8,84.9c-1.3,5,1.8,4,0.4,11.5c-0.9,4.3-0.5,7.4-2.3,9.9c-2.2-4.7-1.4-18.9-4-21.8
			c-2.5-2.9-16,2.2-17.6,4.7c-2.2,3.2-5,14.8-5.2,19.1c6.3,1.1,12.4,3.1,18.2,5c10.8,3.8,9.7,3.2,12.2,10.6l19.6,0.2
			c1.3-1.6,1.4-4.1,1.8-4.9c2.9,0.7,1.3,1.4,2.2,4.9h11.9c0-7.2-4.1-20.7-5.6-28.4c-1.4-7-0.9-6.7-7.4-8.8c-4.3-1.4-9.4-3.6-14-2.3
			l-4.1,21.1c0-0.2-0.2-0.5-0.2-0.7L145,96c-1.1-7,1.8-5.4,0.5-10.8L140.8,84.9z"/>
		<path class="st0" d="M71.7,85.6c0.5,2.7,5.9,13.5,7.7,16.2c3.1,4.9,7,9,15.5,8.3c12.1-1.3,19.1-24.3,17.6-29.2
			c-4.3-13.7-2.3-27.2-22.9-24.7c-7.4,0.9-11.3,5-13.5,10.6C75.3,68.5,71.5,84.7,71.7,85.6z"/>
		<path class="st0" d="M140.1,48.5c-4.3,1.3-6.3,3.4-7.4,7.4c-0.9,3.2-2.5,9-1.8,11.7c7.7,27.9,27.9,8.1,24.7-4.7
			C153.1,53.7,152.4,45.3,140.1,48.5z"/>
		<path class="st0" d="M36.6,48.7c-8.8,3.1-8.8,17.8-8.3,19.4c9.4,27.9,27.5,6.7,24.3-5.9C51.7,58.8,51.2,43.7,36.6,48.7z"/>
		<path class="st0" d="M89.4,7.3c-3.8,1.1-5,2.3-6.3,6.1C78,30,89,36.5,94.4,35C104.8,31.8,106.1,3,89.4,7.3z"/>
		<path class="st0" d="M63.4,70.3l5.9,0.2C76.8,51.4,79.1,56.1,87,51l-1.6-13.9c-4.3-0.9-8.3,0.7-11.9,2c-5.8,2-4.7,2.2-5.8,7.9
			C66.7,51.8,62.9,66.9,63.4,70.3z"/>
		<path class="st0" d="M96.6,50.9c7.7,3.1,6.8,0.4,12.8,6.3c5.2,5.6,3.2,6.7,6.3,12.8l5.4,0.4c-0.2-5.9-3.2-17.3-4.7-23.8
			c-1.3-5.6-0.5-5.8-6.1-7.6c-3.4-1.1-7.7-2.7-11.5-2.3L96.6,50.9z"/>
		<path class="st0" d="M91.3,51.4c4.5-0.9,2.5-0.7,2-5.8c-0.5-5.2,1.4-2.5,0.5-7.7l-3.8-0.4c-1.8,4.7,0.4,2.2,0.5,6.5
			c0,1.4-0.5,2.5-0.5,3.6C89.9,54.6,89.5,49.1,91.3,51.4z"/>
	</g>
</g>
</svg>
