<?xml version="1.0" encoding="utf-8"?>
<!-- Generator: Adobe Illustrator 23.0.3, SVG Export Plug-In . SVG Version: 6.00 Build 0)  -->
<svg version="1.1" id="Layer_1" xmlns="http://www.w3.org/2000/svg" xmlns:xlink="http://www.w3.org/1999/xlink" x="0px" y="0px"
	 viewBox="0 0 184.3 184.3" style="enable-background:new 0 0 184.3 184.3;" xml:space="preserve">
<g id="Layer_x0020_1">
	<g id="_2429380115664">
		<path d="M149.6,142.2c-0.2,6.5-2.5,7.4-8.8,7.4H59.2c-18.9,0-24.5,2.5-24.5-8.1c0-11.2-0.5-57.8,0.2-65.2h114.5L149.6,142.2z
			 M34.8,66.1c0.2-19.6-2.7-20.9,10.6-21.1v10.4h10.3V45l73.1,0.2v10.4l10.3-0.4l0.2-10.1c5.6,0,9.7-0.2,10.4,5.2
			c0.5,4.1,0,11.3,0,15.8L34.8,66.1z M45.4,34.8c-9.5,0-15.5,1.6-19.1,8.3c-3.1,5.8-1.8,17.6-1.8,24.8c0,17.8,0,35.6,0,53.5
			c0,14.8-4.3,36.9,14.9,38.3c3.4,0.2,99,0.7,106.4-0.2c17.8-2,14.2-22.9,14.2-39.1c0-17.8,0-35.6,0-53.5c0-20,1.6-32.6-20.9-32.4
			V24.1h-10.3v10.4l-73.1-0.2V24l-10.3,0.2v10.6H45.4z"/>
		<path d="M128.2,95.1c-1.4-3.1-4.7-6.3-7.6-7.7l-39.1,39.1c-2.9-3.2-16-16.7-18.7-18.2l-6.8,6.5c1.4,2.7,23.4,24.7,26.3,26.1
			L128.2,95.1z"/>
	</g>
</g>
</svg>
