<?xml version="1.0" encoding="utf-8"?>
<!-- Generator: Adobe Illustrator 23.0.3, SVG Export Plug-In . SVG Version: 6.00 Build 0)  -->
<svg version="1.1" id="Layer_1" xmlns="http://www.w3.org/2000/svg" xmlns:xlink="http://www.w3.org/1999/xlink" x="0px" y="0px"
	 viewBox="0 0 184.3 184.3" style="enable-background:new 0 0 184.3 184.3;" xml:space="preserve">
<style type="text/css">
	.st0{fill:#FFFFFF;}
</style>
<g id="Layer_x0020_1">
	<g id="_2429347820320">
		<path class="st0" d="M92.1,31.3c2.5,1.6,22,18.2,25,20.7c7.7,6.1,17.6,14.6,25.2,21.1l14,11.7c1.3,0.9,3.4,3.4,5.8,1.3
			c0.7-0.5,2-2.2,2.7-3.1c5.8-7,6.8-5.9-5-15.3L147,57.2c-0.2-12.4,0.4-26.5,0-38.3c0-1.8-0.5-2.9-2-3.4c-1.8-0.7-19.8-0.5-21.1,0.4
			c-2.2,1.4-1.4,6.7-1.4,9.7c0,3.8,0,7.6,0,11.2c-1.1-0.4-21.6-17.8-22.9-18.9c-4.5-3.8-11-3.8-15.3,0L73,27.3
			c-6.7,5.2-16,13.5-22.7,18.9L16.2,74.7c-2.5,2.5,0.4,5,1.8,6.7c0.9,1.3,4,4.9,5,5.4c1.4,0.5,2.9-0.2,3.6-0.9
			c6.3-5.4,14-11.3,20-16.6c4.9-4.3,11.7-9.5,16.9-14L92.1,31.3z"/>
		<path class="st0" d="M105.1,162.7l0.2,0.7c-0.2-0.2-0.2,0.2-0.2-0.4C104.9,162.5,104.7,162.9,105.1,162.7z M102,153.2l0.2,5.4
			C101.5,157.7,101.7,154.4,102,153.2z M81.3,159.5c0,0.5,0,0.4-0.2,0.5l-0.2-0.5c0.2-4.7-1.1-1.8-0.9-9.7c0-1.6,0.5-3.2,0.7-4.9
			c0.2-1.4,0.2-3.6,0.9-4.7c0.4,0.5,0.4,1.6,0.4,2.2c-0.2,2.2-0.5,4.9-0.5,7.2c0,1.8,0.2,5,0.2,7.4C81.7,158,81.3,158.6,81.3,159.5z
			 M101.7,134.8l0.7-0.2c0,1.4-0.2,2.5,0.2,4c0.2,1.3-0.2,1.8-0.7,3.1c-0.4-1.3-0.7-2.2-0.5-3.4
			C101.5,137.5,101.5,135.3,101.7,134.8z M129.2,120.6l-0.2,1.1c-0.4-0.5-0.4-0.7-0.2-1.3c0-0.9-0.2-1.3,0.2-1.8
			C130.5,119,129.2,119.1,129.2,120.6z M135.9,122.2c-0.2-0.5-0.2-1.3-0.4-1.8c-0.4-0.9-0.5-0.5-0.7-1.4l0.4-0.5
			C136,119,135.9,121.1,135.9,122.2z M90.3,124.4c-0.5-0.7-0.5-0.7-0.2-1.6c0.4-0.9,0-2.3,0-3.8c0-0.9,0.2-0.9,0.2-1.8
			c0-1.6,0-0.5,0.5-1.6c0.2-0.5,0.2-0.9,0.4-1.6c0.9-2.5,2.7-5.4,3.6-8.3c0.4-1.3,0.2-4,1.8-5.9c0.4,1.4,0.2,5.2,0,6.8
			c-0.4,2.5-1.3,3.1-2,5.2c-2.2,6.1-1.3,7.4-1.3,12.4L90.3,124.4z M43.5,117c-0.2-0.5-0.2-1.1-0.5-1.8c-0.2-0.4-0.9-0.9-0.9-1.4
			c-0.5-1.8,2.5-7.9,3.2-10.3c-0.2,0.7-0.5,2-0.7,3.1l-0.9,7C43.7,114.8,44.1,115.9,43.5,117z M64.9,120.4c-0.2-2-0.5-3.2-0.4-5
			c0.2-0.9,0-1.1,0-1.8l-0.4-6.8c-0.2-2.2-0.9-2.5-1.1-6.3c0-2,0.2-4.7,1.3-6.1c0.5,0.9,0.5,1.6,0.7,2.7h1.1
			c0.5,1.6,1.3,3.1,1.6,4.9c0.2,2,1.6,2.9,2.5,4c0.5,0.5,1.1,1.3,1.6,1.8l1.6,1.6c0.9,0.7,0.5,1.3,1.1,2.3c0.4,0.9,0.9,1.3,1.3,1.8
			c-2.9,0-3.6,1.4-4.5,3.8c-2,4.7-0.9,3.2-1.3,4.3c-0.2,0.5-0.4,0.9-0.5,1.4l-2.2-1.3C66.6,120.9,65.7,120.9,64.9,120.4z M96.3,84
			c0.4-0.4,0.4-0.5,1.1-0.5c-0.2,0.7-0.5,0.9-1.4,1.1L96.3,84C96.1,84,96.3,84,96.3,84z M97.2,84c0.2-0.4,0.2-0.5,0.7-0.7
			C97.5,84,97.9,83.7,97.2,84z M97.2,83.1c0.5-0.4-0.4-0.2,0.5-0.4L97.2,83.1z M55,168.6c1.1,0.4,2.5,0.5,3.6,0
			c0.7-0.5,0.2-0.9,0.5-1.4c0.2-0.4,0.7-0.2,0.7-1.1c0.2-1.8-1.1-2.5-1.4-3.2l-0.2-0.7c-0.2-1.1,0.7-2.9,1.3-4.3
			c0.5-1.8,1.3-4,1.8-5.9c0.5-2.3,1.3-3.6,1.4-6.1c2.9,0,2-0.4,2.5-1.8c0.2-0.4,0.2,0,0.2-0.5l-0.2-4.7c0-1.8-0.5-4.3,0-6.1
			c1.1-3.4-0.2-5.9-0.2-8.8c0.9,0,2.9,2,4.5,2.2c2.5,0.5,2.2-1.8,3.4-3.2l1.3,0.4c0.2-0.5,0.4-1.1,0.5-1.6
			c0.7,3.2,0.2,11.2,0.5,12.1c0.4,1.8-0.4,4.3-0.5,6.7l-0.4,0.2c-0.2,0.2-0.2,0-0.2,0.2c-0.7,0.9,0.4,2.2,0.4,2.2
			c0.4,0.9-0.4,7,0.2,10.4c0.5,3.2-0.2,4.3-0.2,5.2c0,0.5,0.5,0.9,0.4,1.4c0,0.5-0.5,0.5-0.5,1.3c-0.2,1.8,1.8,2.9,2.3,3.2
			c-0.2,0.9-0.5,2.5,0,3.2c0.4,0.5,1.6,1.1,2.5,1.1c2.7-0.2,1.3-3.1,1.3-5.2l0.9-0.7c0,2.7-0.9,2.2,0.9,3.4c0,1.1-0.4,1.4-0.5,2.3
			c0.7,0.9,0.9,0.7,2.2,0.7c0.9,0,2,0,2.5-0.5c0.4-1.1-0.4-1.1-0.5-1.8c5.2,0,1.4-2,2.2-4.9c0.5-2-0.2-3.1-0.2-5.2
			c0-4,0.2-7.4,0.4-11.3c0.2-3.6,0.7-7.9-0.2-11.3c-0.5-2.2,0.4-0.9-0.2-2.2c-0.5-2-1.3-5.9-0.7-7.7l0.2,1.1
			c0.4,3.1,3.6,2.5,6.1,2.5c0,2.2,0,4.9,0.2,7s1.8,2.7,3.6,3.2c0.4,2.3-0.9,3.6-0.5,7.7c0.2,2.2,1.1,4.7,1.6,6.8
			c0.5,2,1.6,4.7,1.3,6.7c-0.2,1.1,0.2,1.3,0.2,1.8c0,0.2-0.5,1.1-0.7,1.3c-1.4,2.9-0.9,0.2-1.4,2.9h4c0.4,2-1.3,1.4-0.4,2.7
			c-0.2,0.2-0.2-0.2-0.2,0.2l0.2,1.3c1.4,0.5,3.2,0,4.5-0.2l0.9-0.4c0-0.7-0.4-1.3-0.5-1.8l-0.7-3.6c-0.5-1.1-0.2-0.5-0.2-1.6
			c-0.2-1.8-0.5-0.7,0.2-3.8c0.7-3.1,2-8.1,2.3-11c0.5-4.1-0.5-5.9-0.4-7.2c0.2-1.4,1.1-0.7,2.5-1.4l1.8-0.9c0.2-0.5,0-8.1,0-9.5
			c0-4.3-0.7-13.7-2.2-17.5c-0.5-1.3-0.5-2.9-0.4-4.3c0.2-1.4,0.7-2.9,0.7-4.1l0.2-0.4l0.2,0.4c0.2,1.4,1.1,3.4,1.4,5
			c0.5,2.5,3.2,8.8,3.4,9.4c0.2,1.1-0.2,1.6,0,2.9c0.2,0.9,0.2,2,0.4,2.7c0.5,0,0.5,0,0.7-0.4c0.2,0.5,0.2,0.5,0.5,0.9
			c0.7-0.2,0.2-0.2,0.9-0.4c1.1,1.6,1.3,0.2,1.6-0.2l2.5,3.1c1.4,1.6,1.4,1.1,3.4,1.8c2,0.9,1.8,0.7,2,1.4l0.2,0.5
			c0,0.2-0.2-0.2,0.2,0.2v0.5c0.4,0,0.2-0.2,0.4,0.2v0.4c0.4,1.3,0.5,3.8,0.5,5.2c0,1.1-0.2,1.6-0.5,2.5c-0.4,1.4-0.5,1.1-0.2,1.6
			c0.2,0.4,0-0.4,0.2,0.5c-1.3,2.3-0.7,4.5-0.2,7.2c0.5,2.3,1.1,4.5,1.6,6.7c1.1,4.5,1.3,2.9,1.6,4c0.2,0.4,0,0.5,0.2,0.9
			c0.2,0.9,0.2,0,0.4,0.7c0,0,0.4,4.3,0,4.9c-0.7,1.4-1.8,0.4-1.6,2.3l1.4,0.2c-0.2,1.1-0.5,1.8-0.4,2.5c0.7,0.2,1.6,0,2.3-0.2
			c2.2-0.4,0.2-2,0.2-3.1c0.7-1.4,2-1.3,1.3-3.2c-0.7-1.8-0.5-1.8-0.2-3.8c0.7-0.5,0.7,0,0.9-0.9c0-0.2,0-1.1,0-1.4
			c0-2.9,0.2-5.2,0.5-8.1c0.4-2.2,1.3-5.4,0.5-7.6c-0.5-1.6-1.3-0.7-0.2-1.6c-0.5-1.6,0.2-4.7,0.9-5.9c0.4,0.4,0.5,0.9,0.5,1.4
			c1.6,5.9,1.8,3.8,3.6,7.7c0.4,0.5,0.2,0.2,0.4,0.5c0.5,0.7-0.2,0.9,0.2,1.3l0.2,0.4c0.4,0.2-0.2,0,0.2,0c0.5,0-0.2,0,0.2,0
			l0.5,0.2l0.2-1.1c0.4,0.5,0,0.5,0.5,1.1c0.5-1.8-1.1-2.7-1.4-3.4c-0.7-1.3-0.7-2.5-1.3-4c-0.7-1.8-0.5-0.2-0.9-2.5
			c-0.2-0.9-0.7-1.8-0.9-2.5c-0.2-1.1,1.1-0.7,0.4-2.5c-0.9-2.5-3.2-1.6-3.1-3.8c0-0.7,2.3-5-0.2-8.1c-0.9-1.1-1.6,0-2.5-0.2
			c-2-0.4-1.3,0-2.9,0.2c-1.1,0.2-1.3-1.1-2.3,0.5c-1.1,1.4-0.9,3.8-0.9,5.8h-0.2c-0.7,0.4-0.4,0.4-0.9,0.2c-2.2-0.5-2.5-1.1-3.6-2
			c-1.1-1.1-3.1-2.2-3.8-3.4c-0.5-1.3,0.4-1.4-1.1-2.7c-0.9-0.7-0.7-1.3-1.1-2.5c-0.4-2.2-0.5-4.3-0.9-6.5c-0.7-3.4-1.8-2.7-2.2-5.2
			c-0.5-3.2-0.7-3.6-0.2-6.5c0.9-5-2-5.6-2.7-6.3c-2.5-2-4-1.6-1.8-3.8c0.5-0.5,0.2,0,0.5-0.7c0.7-1.4,1.6-2.5,2-3.8
			c0.5,0.5,0.2,0.5,1.1,0.9c-0.4-0.5-0.5-0.9-0.7-1.8c0,0-0.2,0-0.2-0.4c0-0.2,0-0.2,0.2-0.5l0.2,0.4v-0.4c0.2-4-5.4-5.4-7.4-4.9
			c-1.3,0.4-2.9,1.4-3.8,2.3c-2.2,2.2-0.9,0.9-3.4,2.7c0.7-0.2,1.3-0.5,1.8-0.7c-0.2,0.4-0.7,0.7-0.7,0.9c-0.4,0.9,0.2-0.7,0,0.2
			c-0.2,0.4-0.2,0.4-0.5,0.4c0.4,0.2,0-0.2,0.2,0.4c-0.2,0-0.5,0.2-0.7,0.4C97.2,81.3,97,81,97,81c-0.4,0.2-0.5,0.2-1.3,0
			c0.2,0.2,0,0.2,0.2,0.2c0.4,0.2,0.7,0.2,1.1,0.4l-0.4,0.2c0,0-0.2,0-0.4,0l-0.2,0.2l0.2,0.2c-0.5,0-0.9,0-1.3-0.4
			c0.2,0.2,0.2,0.2,0.2,0.4c0.2,0.2,0.5,0.2,0.7,0.2c0.9,0.2,0.5,0.2,0.9,0.5c-1.1,0-1.1,0-1.1,0.4h-0.9c-1.1-0.2-1.6-0.2-2-1.3
			c0.2,1.4,1.8,1.3,3.4,1.4c0.4-0.2-0.5-0.2,0.5-0.2c-0.2,0.5,0,0.2-0.4,0.4l0,0l-0.4,0.7h-0.2c-0.4,0.4-0.2,0.2-0.5,0.4
			c0.4,0.5-0.2,0,0.4,0.2h0.5c0.9,0,0.4,0,0.5,0.2l-0.5,0.2v0.4h0.2c0.4,0.2,0-0.2,0.2,0.4c-0.7,0.4-1.3,0.7-1.8,0.2l-0.4,0.2
			l0.5,0.4c0,0,0,0,0.2,0l-1.1-0.2h1.1c0.2-0.2,0,0,0.4-0.2c0.2,0,0.2,0,0.4,0l-0.2,0.4l1.1-0.4c-0.7,0.5-1.6,0.9-2.9,0.9l1.3,0.2
			c-1.6,0.4-2.7-0.2-3.1-1.3c0.5,0.5,0.4,0.5,0.9,1.1c0.4,0.4,0.4,0.4,0.9,0.5c0.4,0.2-0.2-0.4,0,0.2c0.7-0.2,0.7,0,1.3,0
			c0.2,0,0.2-0.2,0.5-0.2c0.7,0,0.2,0,0.5,0.2c-0.7,0.4-0.7,0.4-1.4,0.5H95c0.2,0,0.2,0,0.4,0.2c-0.7,0.2-0.7,0.4-1.4,0.5l-1.4,0.2
			v0.2c1.1,0,1.6,0,2.5-0.4c0.2,0.2,0.4,0,0,0.2c0,0.4,0,0.2-0.2,0.4c-0.2,0.5,0,0-0.2,0.4l-0.9,1.1v0.4c-0.2,0.5-0.2,0.9-0.2,1.6
			c0,1.6,0.2,1.6-0.2,3.4c-0.5,2.3-0.9,3.8-2,5.8c-1.8,3.2-1.4,10.4-2.9,12.6c-0.9-0.2-0.2-0.4-2.3-0.5l-2.2-0.9c0-3.4,2-2,4.1-5
			c0.2-0.4,0.2-0.4,0.4-0.7l0.2-1.1l0.2-0.5l0.4,0.4c0.4-1.1,0.2-2.3-0.2-3.2c-0.9-1.4-3.2-2.7-4.9-2.5c-1.1,0-0.5-0.4-1.4-0.2
			c0,0-1.3,0.5-1.4,0.5c-0.5,0.4-0.5,0.5-0.9,0.9c-0.4,0.5-1.3,0.9-1.3,1.6c0,0,0.4,0.9-0.2,1.8c-0.9,1.8-0.5,1.1-0.5,3.2
			c-0.2,1.8,0.2,1.3,1.4,2.2c0,0.9-0.2,1.4-0.9,1.8c-0.5-0.9-0.2-1.6-1.1-2.2c-2.3-1.3-3.4-5.6-4.3-7.9c-0.4-0.7-0.7-1.3-1.1-2
			c-0.4-0.9-1.6-3.8-1.6-4.5c-0.2-1.4,0.4,0,0.2-1.1c0-0.2-0.4-0.7-0.4-1.3c-0.2-0.9,0-2-0.2-2.9c-0.2-1.8-0.5-3.6-0.7-5.4
			c-0.9-5-4.7-4.5-6.3-5.9c0.4-1.4,0.4-0.9,0.9-2c0.2-0.4,0.2-0.2,0.2-0.7c1.1,0.2,1.1-0.2,0.9-1.3c-0.2-1.3,0-1.4,0.5-2
			c0.5-0.5,0.5-1.3,0.5-2.2c0.2-0.9,0.2-1.4-0.2-2.3h0.4c-0.5-1.4-0.2-1.1-1.3-1.8c-0.5-0.4-0.2-0.5-0.9-0.9h0.2l0.4-0.4
			c-0.7,0-0.5,0-1.1-0.4c-1.1-0.9-0.5,0-2.2-0.9c-2.2-1.1-5.2,0.4-6.1,2.3c-0.4,0.7-0.7,0.9-0.9,1.8c-0.4,2-0.4,1.3-0.5,2.2
			c-0.4,1.3,0.2,0.7-0.9,1.6l-0.4,1.3l0.5-0.4c0.4,0.5,0.2,0.2,0.4,0.4l0.5,0.9c-1.3,3.1-2.2,2-4.7,3.2c-2.7,1.3-4.7,2.9-6.1,5.4
			c-0.5,0.9-0.7,1.8-0.9,2.9c-0.2,1.1-0.5,2.2-0.5,3.2c0,1.3,0.2,2.3,0.2,3.6c0,0.9-0.2,1.1-0.4,1.8c-0.2,0.9,0.2,0.4,0.2,1.4
			c-0.2,1.6-0.5,1.6-1.1,2.7c-1.3,2.2-0.9,4-1.1,6.7c0,1.6-1.1,13.9-0.9,14.2c0.4,0.4,1.6,1.1,2.2,1.1c0.4-0.2,0.7-0.7,0.9-1.4
			c0.2-0.7-0.5-0.9-0.9-1.3l1.1-0.2c0,0.9,0.2,0.9,0.7,1.4c0,1.3,0,2.5-0.2,3.8s-0.5,2-0.5,3.1c0,1.3,0,2.5,0,3.8s-0.2,2.3-0.2,3.6
			c0.2,5.2,0,2.5-0.5,5.2c-0.5,3.1,0,2.9,0.2,4.9c0.2,1.8,0.9,1.3,2.3,1.4c0.4,1.6,0.5,2.9,1.1,4.5c0.2,0.9,1.3,3.8,1.3,4.3
			c0,0.9-0.5,1.3-0.7,2.2c-0.2,0.9-0.2,1.6-0.4,2.3c-0.4,1.6,0,1.3,0,2.5c0,2-1.8,2.7,2.9,3.4c0.7,0.2,0.9,0,1.6,0.2
			c0.5,0.2,1.3,0,1.8-0.2c0.2-1.1,0.4-1.3,0-2.3c-0.5-1.4-0.2-3.8-0.4-5c-0.2-1.4-1.3-3.2-1.6-4.1c-0.5-2.2-0.4-5.9,0-7.9
			c2.3-0.2,2.2-1.1,2.5-2.9c0.4-2.2,0.2-5,1.3-9.5c0.2-0.9,0.4-1.4,0.5-2.3c0-0.5-0.2-1.3,0-2c0.2-0.5,0.2-0.4,0.2-0.4
			c0.2,0.5,0.2,9.2,0.2,10.4c0,1.8-0.9,1.6-0.9,4.5c0,2.3-0.5,3.2,2.2,2.9c-0.2,1.8-0.5,2.5,0,4.3c0.5,2.3,0,6.1-0.4,8.5
			c-0.4,1.6-0.9,1.8-2,2.5c0.2,0.4,0.2,0.4,0.2,0.9C53.4,162.7,52,167.4,55,168.6z"/>
	</g>
</g>
</svg>
