<?xml version="1.0" encoding="utf-8"?>
<!-- Generator: Adobe Illustrator 23.0.3, SVG Export Plug-In . SVG Version: 6.00 Build 0)  -->
<svg version="1.1" id="Layer_1" xmlns="http://www.w3.org/2000/svg" xmlns:xlink="http://www.w3.org/1999/xlink" x="0px" y="0px"
	 viewBox="0 0 184.3 184.3" style="enable-background:new 0 0 184.3 184.3;" xml:space="preserve">
<g id="Layer_x0020_1">
	<path d="M29.8,100.9c0.7,8.1,0,19.1,0.2,27.5c0.2,24.3-1.1,17.6,8.6,19.3c0.2,4.1-0.7,4.3,1.6,7.2c5.6,0.7,4.1-3.2,4.7-7.4h8.5
		l0.2-32.6c0-3.2-0.7-7.7,1.1-10.1c3.2-4,8.1-0.9,16.9,0.5c15.5,2.5,34.6,1.4,50-2c12.4-2.7,9.5,4.1,9.5,22c0,7.4-0.2,14.8-0.2,22.1
		h8.6c0.4,3.1-0.9,7.4,2.9,7.6c4,0.2,3.1-4.3,3.2-7.4c5-0.9,8.6,1.8,8.6-5c-0.2-9-0.5-36,0.2-41.8c3.1,0,8.1,0.9,9.4-1.6
		c0.7-1.3,0.4-2.9-0.7-3.8c-1.3-0.9-3.2-0.7-4.9-0.7c-21.6,0.4-44.5-0.2-66.1,0H26.4c-2.5,0-7.7-0.2-6.1,4.1
		C21.3,101.6,26.6,100.9,29.8,100.9z M93.5,124.5l0.2,5h4.9v5l-5,0.2l-0.2,4.7l-5,0.2c0-0.9,0.2-2,0.2-2.9c0-0.4,0-0.7,0-1.1
		c-0.2-0.7-0.2-0.5-0.4-0.9h-4.7v-5.6l5-0.2v-4.9L93.5,124.5z M89.2,119.3c-17.6,2.9-13.5,28.3,4,25.7c6.7-0.9,12.1-7.2,10.8-15.1
		C103.1,123.8,96.8,118,89.2,119.3z M68.5,91h47.2c0.5-10.1-10.3-22.1-23.6-22.1c-7.2,0-12.8,3.2-16.6,6.5
		C73,77.7,68.1,85.1,68.5,91z M82,39.9c-9.4,8.5-0.2,29,10.8,28.1c5.8-0.5,10.1-6.7,11.9-11.7c2.9-8.1,0.9-12.6-3.2-17.3
		c1.1-2,3.6-5,3.2-7.6c-3.4-2.5-13.1-2.7-18-2C75.3,31.3,79.8,32.3,82,39.9z M75,133.3c-0.5-9,6.5-16.2,14.8-16.9
		c9.2-0.5,16.6,6.3,17.1,14.6c0.5,9-6.3,16.4-14.8,16.9C82.9,148.6,75.7,141.6,75,133.3z M128.1,150.1c0.5-1.1,0.4-32.9,0.4-39.2
		c0-2.9,0.4-5.2-2.3-5.4c-3.2-0.2-26.6,7.7-56.9,2.2c-2.5-0.5-11-3.1-12.4-1.6c-1.4,1.4-0.9,26.6-0.9,31
		c-0.2,16.4-2.9,14.6,14.9,16.6c15.5,1.6,29.3,1.3,44.5-0.4c2.3-0.2,4.7-0.5,7-0.9C124.5,152,127.2,152,128.1,150.1z"/>
</g>
</svg>
