<?xml version="1.0" encoding="utf-8"?>
<!-- Generator: Adobe Illustrator 23.0.3, SVG Export Plug-In . SVG Version: 6.00 Build 0)  -->
<svg version="1.1" id="Layer_1" xmlns="http://www.w3.org/2000/svg" xmlns:xlink="http://www.w3.org/1999/xlink" x="0px" y="0px"
	 viewBox="0 0 184.3 184.3" style="enable-background:new 0 0 184.3 184.3;" xml:space="preserve">
<g id="Layer_x0020_1">
	<g id="_2429347769344">
		<path d="M34.1,85.4c0.2,7.4,1.1,14.8,7.9,17.6c2.2,0.9,1.3,0.2,2.5,4.1c4,13.1,3.1,30.2-0.9,43.2c-0.9,2.9-1.8,4.1-1.8,7
			c0,6.5,8.3,10.3,13.3,5.2l0.2-0.2c1.4-1.6,1.8-3.1,2.7-5.4c6.3-18.9,6.7-40.5,0.4-59.2c-0.5-1.3-1.1-2.9-1.3-4.1
			c-0.5-5.9-0.4-8.8,0.5-14.8c0.4-2,0.9-2.7-0.4-4L52,69.4c-2.3-2.3-6.8-6.5-6.8-9.4c0-2.2-0.2-3.4,2-5.4c2.9-2.7,7.2-1.6,9.7,1.6
			c0.9,1.1,3.2,3.6,4.3,4.3c0-3.6-0.4-6.5-1.8-8.8c-4.9-7.7-17.1-4-21.1,7.2c-1.8,5.6-4.1,13.3-4.1,20.3v5.9h-0.1V85.4z"/>
		<path d="M79.5,71l9.9,0.9c4,0.5,5.2,3.6,5.2,7c0,2.2-3.1,5.2-5.4,5.2c-3.8,0-7-0.5-10.6-0.9c0,6.1,0.4,13.9,4.7,17.5
			c1.3,1.1,3.1,2.3,4.9,2.5l0.9,5.9c2,14.2-0.9,30.2-6.3,43.2c-0.9,2.2-1.3,2.5-1.3,5c0,8.5,11.3,9.2,13.1,5
			c0.4-0.7,0.5-2.5,0.5-3.4c0.4-2.3,0-2,1.6-1.8c0.7-2.9,2-13.3,2.5-16.9c0.9-5.9,1.6-11.3,2.5-17.3l2.3-17.3c0-1.6-1.1-6.3-1.6-8.1
			c-1.6-5.9-1.8-5-1.8-11.3c0-1.8,0.7-1.1-0.2-2.3c-0.4-0.7-0.9-1.1-1.4-1.8c-3.6-5.4-9.4-16-10.3-22.3s9.5-11.5,12.6-0.9
			c0.5,2,1.6,4.1,2.2,5.6h0.9c0-1.4,0.4-2,0.5-2.9c0.7-3.8,0.4-7.7-1.8-10.8c-3.8-5-10.1-3.8-14.6-0.7c-4.3,2.9-5.9,7.7-7.2,12.8
			c-0.4,1.1-0.7,2.5-1.1,3.8C80,67.9,79.5,69.9,79.5,71z"/>
		<path d="M94.8,32.4c0,13.3,15.1,19.1,23.8,10.4c5.4-5.6,5.4-14.2,0.4-19.4c-2.7-2.7-5.8-4-9-4.3h-2.3
			C100.9,19.7,94.8,25.2,94.8,32.4z"/>
		<path d="M50.3,32.8c0,8.1,6.1,14.6,13.7,14.6c12.4,0,18.9-14.6,10.4-23.6c-5.2-5.8-14.6-5.9-20.3-0.2C52.3,25.6,50.3,29,50.3,32.8
			z"/>
		<path d="M107.7,111.8h31l2,14c0.2,1.4,0.5,3.2,0.5,4.9h-36.4C105.4,129.5,106.8,115.1,107.7,111.8z M128.2,99.2
			c2.2,0,5.8,1.6,7,2.7c2,1.8,2.9,3.4,2.9,7h-30.2c0.2-2.3,0.5-4.3,1.8-5.9c0.9-1.1,3.4-2.9,5-2.9c-0.4-1.1-1.1-1.3-1.8-2.3
			c-1.3,0.7-1.6,0.7-3.1,1.6c-3.8,2.5-4,4.7-4.7,9.5c-0.7,5.4-1.6,10.8-2.3,16.6l-4.1,29c-0.2,1.4-0.5,2.9-0.5,4.1h-1.4
			c0,1.1-0.7,5.4-0.7,5.6c0.2,0.5,0.4,0.5,2.2,0.7c1.3,0.2,2,0.4,3.1,0.4c0.4-1.6,0.9-4.3,0.9-5.9H101l2.7-19.3
			c0.4-2.2,0.7-4.5,0.9-6.5h37.3l1.8,12.8c0.2,2.2,0.5,4.1,0.9,6.3c0.2,2,0.9,4.5,0.9,6.7c-1.1,0-0.7-0.2-1.4,0.2
			c0.4,1.4,0.9,4,0.9,5.8c2.2,0,3.2-0.5,5.4-0.5c0-2-0.7-4.1-0.9-5.9h-1.4c0-2.7-0.7-6.3-1.1-8.8c-0.4-3.1-0.9-5.8-1.3-9l-5-36
			c-0.5-2.3-2.7-4.7-4.5-5.8c-2.7-1.4-4.3-1.8-7.6-2.7v2.7h-0.4V99.2z"/>
		<path d="M90.6,59.1c0,3.6,3.4,11,4.9,13.9c1.6,3.4,4.9,8.3,7,11.3c2.7,3.6,5.4,6.8,8.6,10.1c1.6,1.6,7.9,8.3,10.4,8.3
			c3.6,0,9.2-4.7,1.8-10.6c-7.3-6-16.3-17.9-20.3-26.5c-2.5-5.6-2.7-11.3-7.4-11.3C93,54.2,90.6,56.2,90.6,59.1z"/>
		<path d="M46,58.7c0,4,0.7,3.6,3.1,6.1l4,4.3c0.9,0.9,1.1,1.3,1.8,2.2l6.1,6.5c1.6,1.6,2.3,2.9,4.9,3.2L81,82.4
			c2.7,0.2,4.9,0.5,7.7,0.5c5.2,0,6.3-8.1,1.3-9.7c-1.6-0.5-8.3-0.9-11.2-1.3l-7.6-0.7c-2-0.2-2.2,0.2-3.4-0.9l-3.1-3.2L64.5,67
			c0,0,0-0.2-0.2-0.2L56,57.6C50.5,50.8,46,56.7,46,58.7z"/>
	</g>
</g>
</svg>
