<?xml version="1.0" encoding="utf-8"?>
<!-- Generator: Adobe Illustrator 23.0.3, SVG Export Plug-In . SVG Version: 6.00 Build 0)  -->
<svg version="1.1" id="Layer_1" xmlns="http://www.w3.org/2000/svg" xmlns:xlink="http://www.w3.org/1999/xlink" x="0px" y="0px"
	 viewBox="0 0 184.3 184.3" style="enable-background:new 0 0 184.3 184.3;" xml:space="preserve">
<g id="Layer_x0020_1">
	<path d="M105.7,119.3c0.5-2,3.2-7.6,6.7-3.8c0.4,0.5,0.2,0.2,0.7,0.9l12.1,12.1c0,0,6.3,4.1-0.2,7.6l-16.7-14.6
		C107.1,120.5,106.6,120.4,105.7,119.3z M59.4,88.1c1.3-1.3,4-2.2,5.6-3.4c2-0.7,7.7-4.1,8.6-5.4c1.1-1.6,1.6-3.4,1.1-5.6
		c-0.5-2.2-1.6-2.7-2.7-4c-4.7-4.5-9-8.8-13.5-13.5c-2.9-2.9-6.3-3.6-9.5-1.1c-7.9,6.5-14,15.7-12.1,27.7c1.1,6.7,4.3,14.8,7,20.2
		c4.5,8.8,6.7,11.2,12.2,18.2c2.3,3.1,3.1,2.9,4.9,5.2c1.3,1.6,2.2,2,3.6,3.2c4.5,4.3,14.2,10.1,20.5,13.1
		c10.3,4.7,21.6,8.3,32.6,3.2c5.8-2.7,7-5,10.6-8.3c6.5-5.9,1.6-9.9-2.2-13.7c-2.3-2.3-4.5-4.3-6.8-6.7c-3.6-3.6-7.2-9-12.6-6.5
		c-2.5,1.3-5.9,8.5-8.1,12.1c-0.9,1.6-1.4,3.4-4,2.9c-0.7-0.2-4-1.8-4.5-2.2c-8.8-5.2-15.7-10.4-22-18.5c-2.2-2.7-3.6-4.7-5.6-7.9
		c-0.9-1.4-1.6-2.9-2.5-4.3C59.4,91.2,58.7,90.5,59.4,88.1z M59.4,83.3c-0.4,0.4-0.9,0.7-1.3,1.1c-1.3,0.4-2.3,1.8-2.9,3.8
		c-1.1,4.9,8.3,17.6,11.3,21.1l3.2,3.4c1.1,1.3,2,2,3.1,3.2l3.4,3.2c3.1,2.5,8.1,5.9,11.5,7.9c8.6,5.2,11.3,4.5,15.5-4.1
		c1.1,0.5,4,3.1,4.9,4c2.5,2.3,11.5,10.6,13.7,12.1c-0.5,1.1-0.5,0.9-1.4,1.6c-10.1,7.7-20.5,4.9-31.7,0.2
		c-5.2-2.2-10.3-4.9-14.4-7.7c-1.8-1.3-9.4-7-10.8-8.6c-0.5-0.5-0.5-0.9-1.3-1.3l-5.2-5.8c-6.7-8.5-6.1-8.6-10.8-16.9
		c-2.2-4-6.1-15.8-6.3-21.1c-0.2-5.4,2.5-12.8,6.3-15.7c1.3,1.3,2.7,3.4,4,4.7c1.1,1.1,1.3,1.3,2,2.3c0.7,0.9,1.3,1.3,2,2.2l3.1,3.6
		c0.4,0.5,0.7,0.5,1.1,1.1l2.2,2.3c0.5,0.5,1.3,1.6,1.8,2.3C61.4,82.2,60.9,82.9,59.4,83.3z M85.2,98.8c0.2-1.4,3.8-9,4.7-11
		c2.9-6.5,1.4-2.7-1.4-11.2C82.8,59.9,94,41.7,112,39.5c23.8-2.7,39.8,23,27.9,42.7c-2.3,4-3.4,5-6.3,7.4
		c-9.2,7.7-20.7,8.5-31.7,3.1c-2.7-1.3-5.6,1.3-8.1,2.2C91.6,95.9,87,98.6,85.2,98.8z M112,35.8c-18.4,1.6-33.3,19.8-27.7,40.7
		c2.5,9.2,4.5,4.7,0.9,12.4c-0.5,1.3-0.7,2-1.3,3.1c-1.8,3.2-3.8,7.2-1.3,9.5c2.9,2.7,7-0.2,12.4-2.7c1.8-0.9,4.1-2.5,6.1-2
		c2.3,0.9,3.6,1.8,6.7,2.5c8.6,2.2,17.6,0.5,25-4c4.1-2.5,8.1-6.8,10.8-11.3c2.2-3.4,3.8-8.6,4.1-13.3C149.1,50.2,132.3,34,112,35.8
		z M53.1,57.5c2,0,5.6,4.7,7,5.9c0.7,0.7,0.9,0.5,1.6,1.4c0.9,1.1,0.5,0.7,1.6,1.6l6.5,6.3c4,4.1-2.9,6.5-3.8,6.7
		c-1.6-1.4-2.9-3.4-4.3-4.9l-4.1-4.5c-1.8-2.5-6.1-6.5-8.3-9.7C50.1,59.7,51.5,57.7,53.1,57.5z"/>
	<polygon points="112.9,85.4 112.9,72.1 99.4,72.1 99.4,63.1 112.9,63.1 112.9,49.8 121.7,49.8 121.7,63.1 135.2,63.1 135.2,72.1 
		121.7,72.1 121.7,85.4 	"/>
</g>
</svg>
