<?xml version="1.0" encoding="utf-8"?>
<!-- Generator: Adobe Illustrator 23.0.3, SVG Export Plug-In . SVG Version: 6.00 Build 0)  -->
<svg version="1.1" id="Layer_1" xmlns="http://www.w3.org/2000/svg" xmlns:xlink="http://www.w3.org/1999/xlink" x="0px" y="0px"
	 viewBox="0 0 184.3 184.3" style="enable-background:new 0 0 184.3 184.3;" xml:space="preserve">
<g id="Layer_x0020_1">
	<path d="M109.8,152.1l0.2,0.9c-0.2-0.2-0.2,0.2-0.4-0.4C109.6,151.9,109.4,152.5,109.8,152.1z M105.8,139.7l0.2,7
		C105.1,145.6,105.5,141.3,105.8,139.7z M79,148c0,0.7,0.2,0.4-0.2,0.9l-0.2-0.5c0.2-6.1-1.4-2.3-1.1-12.8c0-2,0.7-4.1,0.9-6.3
		c0.2-1.8,0.2-4.7,1.1-6.1c0.5,0.5,0.4,2.2,0.4,2.9c-0.2,2.7-0.5,6.3-0.7,9.4c0,2.3,0.4,6.7,0.2,9.7C79.4,146,79,146.9,79,148z
		 M105.5,115.9l0.9-0.2c-0.2,2-0.2,3.2,0.2,5.2c0.4,1.8-0.2,2.3-0.9,4c-0.5-1.6-0.9-2.7-0.5-4.3
		C105.1,119.3,105.1,116.6,105.5,115.9z M141.3,97.4l-0.2,1.4c-0.4-0.5-0.4-0.9,0-1.4c0-1.3-0.2-1.6,0.2-2.3
		C142.7,95.4,141.3,95.6,141.3,97.4z M149.8,99.5c-0.2-0.7-0.2-1.6-0.4-2.5c-0.4-1.3-0.7-0.7-0.9-1.8l0.5-0.7
		C149.9,95.4,149.8,98.1,149.8,99.5z M90.5,102.2c-0.5-0.9-0.5-0.9-0.2-2c0.5-1.3,0-3.2,0-5c-0.2-1.3,0.2-1.3,0.2-2.2
		c0.2-2.2,0-0.7,0.7-2c0.4-0.5,0.2-1.1,0.5-2c1.3-3.2,3.6-7,4.7-10.6c0.5-1.6,0.4-5.2,2.3-7.9c0.4,1.8,0.2,6.8,0,8.8
		c-0.5,3.2-1.6,4.1-2.5,6.8c-2.9,7.9-1.6,9.5-1.8,16.2L90.5,102.2z M30.1,92.7c-0.4-0.9-0.2-1.4-0.7-2.3c-0.4-0.5-1.1-1.3-1.3-1.8
		c-0.7-2.5,3.2-10.3,4.1-13.3c-0.2,1.1-0.7,2.7-0.9,4.1l-1.1,9C30.1,89.8,30.6,91.3,30.1,92.7z M57.8,97.2c-0.4-2.7-0.9-4.3-0.5-6.7
		c0.2-1.3,0-1.4,0-2.5l-0.4-8.6c-0.2-2.9-1.3-3.2-1.3-8.3c0-2.5,0.2-6.1,1.6-7.9c0.5,1.3,0.5,2,0.9,3.4h1.4c0.7,2.2,1.8,4,2,6.3
		c0.4,2.5,2,3.6,3.2,5.2c0.5,0.7,1.3,1.6,2,2.3l2.2,2c1.1,0.9,0.7,1.6,1.3,3.1c0.5,1.1,1.3,1.6,1.8,2.5c-3.8,0-4.7,1.8-5.9,4.9
		c-2.5,5.9-1.1,4.3-1.6,5.6c-0.2,0.5-0.5,1.1-0.7,1.8l-2.9-1.8C59.8,97.9,58.5,97.7,57.8,97.2z M98.5,49.9c0.5-0.5,0.5-0.5,1.3-0.7
		c-0.4,0.9-0.7,1.3-1.8,1.3L98.5,49.9C98.3,50,98.3,50,98.5,49.9z M99.5,49.9c0.2-0.5,0.4-0.7,0.9-0.9
		C99.9,49.9,100.6,49.7,99.5,49.9z M99.5,49c0.5-0.5-0.5-0.2,0.7-0.4L99.5,49z M45,159.8c1.3,0.5,3.2,0.5,4.5,0
		c0.9-0.9,0.2-1.1,0.5-1.8c0.2-0.5,0.9-0.4,0.9-1.4c0.2-2.3-1.4-3.1-1.8-4.1c0-0.2-0.2-0.9-0.2-1.1c-0.2-1.4,0.9-4,1.6-5.6
		c0.9-2.5,1.6-5,2.2-7.6c0.7-3.1,1.6-4.7,1.8-8.1c3.6,0,2.7-0.5,3.2-2.3c0.2-0.5,0.2,0,0.2-0.7l-0.2-6.1c0-2.3-0.7-5.8,0-8.1
		c1.3-4.5-0.4-7.7-0.4-11.3c1.1,0,3.8,2.5,5.8,2.9c3.2,0.7,2.9-2.5,4.3-4.3l1.6,0.5c0.2-0.5,0.5-1.4,0.7-2
		c0.9,4.3,0.4,14.6,0.5,15.7c0.5,2.3-0.5,5.6-0.7,8.6l-0.4,0.2c-0.2,0.2-0.2,0-0.4,0.2c-0.9,1.1,0.4,2.7,0.4,2.7
		c0.5,1.1-0.5,9,0.4,13.7c0.7,4.1-0.4,5.6-0.2,6.7c0,0.7,0.5,1.3,0.5,1.8c-0.2,0.9-0.7,0.5-0.7,1.6c-0.2,2.3,2.5,3.8,3.1,4.3
		c-0.2,1.1-0.7,3.2,0,4.1c0.5,0.7,2.2,1.4,3.2,1.3c3.4-0.2,1.8-4,1.6-6.8l1.1-0.9c-0.2,3.6-1.1,2.9,1.3,4.5c0,1.3-0.5,1.8-0.7,3.1
		c0.9,1.1,1.1,0.9,2.9,0.9c1.3-0.2,2.5,0,3.2-0.7c0.5-1.4-0.4-1.4-0.7-2.5c6.7,0,1.8-2.5,2.9-6.3c0.7-2.5-0.2-4-0.2-6.7
		c0-5.2,0.4-9.7,0.5-14.8c0.2-4.7,0.9-10.3-0.2-14.8c-0.7-2.9,0.4-1.1-0.2-2.9c-0.9-2.7-1.6-7.7-0.9-10.1l0.4,1.3
		c0.5,4,4.7,3.2,7.9,3.2c0,2.9-0.2,6.3,0.2,9c0.2,2.7,2.2,3.6,4.9,4.1c0.4,3.1-1.1,4.7-0.7,9.9c0.2,2.9,1.3,6.1,2,9
		c0.5,2.7,2.2,5.9,1.6,8.6c-0.4,1.4,0.2,1.6,0.2,2.3c0,0.4-0.7,1.4-0.9,1.8c-1.8,3.8-1.3,0.2-1.8,3.8l5.2,0.2
		c0.4,2.5-1.6,1.8-0.5,3.6c-0.4,0.2-0.2-0.2-0.4,0.4l0.2,1.4c1.8,0.5,4.1,0,5.8-0.4l1.3-0.5c0-0.9-0.5-1.4-0.7-2.3l-0.9-4.7
		c-0.7-1.4-0.2-0.5-0.4-2.2c-0.2-2.3-0.9-1.1,0.2-4.9c1.1-4,2.5-10.4,3.1-14.2c0.7-5.4-0.7-7.7-0.5-9.2c0.2-1.8,1.4-0.9,3.4-1.8
		l2.2-1.3c0.4-0.7,0-10.6-0.2-12.2c0-5.6-0.9-17.8-2.7-22.7c-0.5-1.8-0.7-3.8-0.4-5.8c0.2-1.8,0.9-3.8,0.9-5.4l0.4-0.5l0.2,0.4
		c0.2,1.8,1.4,4.5,1.8,6.5c0.7,3.2,4.3,11.3,4.3,12.2c0.2,1.4-0.4,2,0,3.8c0.2,1.1,0.4,2.7,0.5,3.6c0.7,0,0.5,0,1.1-0.4
		c0.2,0.9,0.2,0.7,0.5,1.1c0.9-0.2,0.2-0.2,1.1-0.5c1.4,2,1.6,0.4,2.2-0.2l3.2,3.8c1.8,2.2,1.8,1.4,4.5,2.5s2.2,0.9,2.5,2l0.4,0.5
		c0,0.2-0.4-0.2,0.2,0.4v0.5c0.5,0.2,0.2-0.2,0.4,0.2l0.2,0.5c0.4,1.6,0.7,5,0.7,6.8c0,1.4-0.2,2.2-0.5,3.4
		c-0.5,1.8-0.7,1.4-0.4,2.2c0.2,0.5,0-0.4,0.4,0.5c-1.6,3.1-0.9,5.8-0.2,9.4c0.7,2.9,1.4,5.8,2.2,8.6c1.6,5.9,1.6,3.6,2,5
		c0.2,0.5,0,0.7,0.2,1.1c0.2,1.3,0.2,0,0.4,0.9c0,0,0.5,5.6,0,6.3c-1.1,1.8-2.3,0.5-2.2,3.1l1.8,0.4c-0.2,1.4-0.5,2.2-0.5,3.4
		c0.9,0.4,2,0,2.9-0.2c2.7-0.4,0.4-2.5,0.2-4c1.1-1.8,2.5-1.6,1.6-4.1c-1.1-2.5-0.7-2.2-0.2-4.9c0.9-0.5,0.9,0,1.3-1.1
		c0-0.4,0-1.4,0-1.8c-0.2-3.8,0.2-6.7,0.7-10.4c0.4-2.9,1.6-7.2,0.7-9.9c-0.7-2-1.4-0.9-0.2-2.2c-0.7-2.2,0.2-5.9,1.1-7.6
		c0.4,0.5,0.5,1.3,0.7,2c2.2,7.7,2.3,4.9,4.7,10.1c0.4,0.9,0.2,0.2,0.5,0.7c0.5,0.9-0.2,1.1,0.4,1.8l0.4,0.4c0.5,0.2-0.2,0,0.2,0
		c0.5,0-0.2-0.2,0.2,0l0.9,0.4l0.2-1.3c0.5,0.7,0,0.7,0.5,1.4c0.7-2.5-1.4-3.6-1.8-4.5c-0.9-1.6-1.1-3.2-1.8-5
		c-0.9-2.2-0.5-0.2-1.3-3.2c-0.2-1.3-0.9-2.2-1.3-3.4c-0.4-1.4,1.3-0.9,0.5-3.2c-1.3-3.2-4.1-2.2-4-4.9c0.2-0.9,3.2-6.7-0.2-10.4
		c-1.3-1.3-2,0-3.2-0.2c-2.7-0.5-1.6-0.2-3.8,0.2c-1.3,0.2-1.6-1.3-3.1,0.5c-1.4,1.8-1.3,5-1.3,7.6h-0.2c-0.9,0.5-0.4,0.5-1.3,0.4
		c-2.9-0.9-3.2-1.4-4.5-2.7c-1.4-1.4-4.1-2.9-4.9-4.5c-0.7-1.6,0.4-1.8-1.4-3.4c-1.3-0.9-1.1-1.6-1.3-3.4c-0.5-2.7-0.5-5.6-1.1-8.3
		c-0.9-4.5-2.3-3.6-2.9-6.8c-0.5-4.1-0.9-4.7-0.4-8.5c1.1-6.7-2.7-7.4-3.6-8.1c-3.2-2.5-5.2-2.2-2.2-4.9c0.9-0.7,0.2,0.2,0.7-0.9
		c0.9-1.8,2.2-3.2,2.5-4.9c0.7,0.7,0.2,0.9,1.4,1.1c-0.5-0.7-0.7-1.3-0.9-2.5c0-0.2-0.2-0.2-0.2-0.5c0-0.4,0-0.2,0.2-0.5l0.2,0.5
		v-0.4c0.4-5-7.2-7-9.5-6.5c-1.6,0.4-3.8,2-4.9,3.1c-2.9,2.7-1.1,1.3-4.3,3.4c1.1-0.2,1.6-0.5,2.3-0.9c-0.2,0.5-0.9,0.9-0.9,1.1
		c-0.5,1.1,0.2-0.9,0,0.2c0.2,0.2,0.2,0.2-0.4,0.2c0.5,0.4,0.2-0.2,0.4,0.4c-0.2,0-0.5,0.4-0.9,0.4c-0.9,0.2-1.1-0.2-1.1-0.2
		c-0.5,0.2-0.9,0.2-1.6-0.2c0.2,0.4,0,0.2,0.4,0.4c0.5,0.4,0.9,0.4,1.4,0.4l-0.4,0.4l-0.4,0.2L98.5,47l0.2,0.4
		c-0.7,0-1.3-0.2-1.8-0.5c0.2,0.4,0.2,0.4,0.2,0.4c0.2,0.2,0.5,0.2,0.9,0.4c1.3,0.4,0.7,0.2,1.3,0.5c-1.4,0.2-1.3,0-1.4,0.4h-1.1
		c-1.4-0.2-2.2-0.2-2.5-1.4c0.4,1.8,2.5,1.6,4.5,1.8c0.5-0.4-0.5-0.2,0.5-0.2c-0.2,0.7,0,0.2-0.4,0.4h-0.2l-0.4,0.9h-0.4
		c-0.4,0.4-0.2,0.4-0.5,0.4c0.5,0.5-0.2,0,0.5,0.4c0.2,0,0.5,0,0.7,0c1.1,0,0.4,0,0.7,0.2l-0.7,0.2v0.5h0.2c0.4,0.4,0-0.4,0.2,0.4
		c-0.9,0.4-1.6,0.9-2.3,0.2l-0.4,0.2l0.7,0.4c0,0,0.2,0,0.2,0.2l-1.4,0.4h1.4c0.2-0.2,0-0.2,0.4-0.2c0.2,0,0.2,0,0.5,0l-0.4,0.5
		l1.4-0.5c-0.9,0.9-2.2,1.3-3.8,1.1l1.6,0.4c-2,0.5-3.4-0.2-4-1.6c0.5,0.7,0.5,0.7,1.1,1.3c0.5,0.4,0.5,0.4,1.1,0.5
		c0.5,0.4-0.2-0.5,0,0.4c0.9-0.2,0.9,0.2,1.6,0c0.2,0,0.2-0.2,0.5-0.2c0.9,0,0.4,0,0.5,0.2c-0.9,0.5-0.9,0.4-1.8,0.7
		c0,0,0.2,0,0.4,0c0.4,0,0.4,0.2,0.5,0.2c-0.9,0.2-0.9,0.5-1.8,0.5l-2,0.2v0.2c1.3,0,2,0.2,3.2-0.4c0.2,0.2,0.4,0,0,0.4
		c-0.2,0.4,0,0.2-0.2,0.5c-0.2,0.7,0,0.2-0.2,0.4L95.6,59c0,0,0,0.5-0.2,0.5c-0.2,0.7-0.4,1.3-0.2,2.2c0.2,2.2,0.4,2.2-0.2,4.3
		c-0.7,3.1-1.3,4.9-2.7,7.4c-2.2,4.1-1.8,13.7-3.6,16.4c-1.1-0.2-0.2-0.4-3.1-0.7L82.8,88c0-4.5,2.7-2.7,5.4-6.5
		c0.2-0.4,0.2-0.5,0.5-0.9l0.2-1.4l0.2-0.7l0.5,0.4c0.4-1.3,0.4-3.1-0.4-4.3c-1.1-2-4.1-3.4-6.3-3.2c-1.4,0-0.5-0.5-1.8-0.4
		c0,0-1.6,0.5-1.8,0.7c-0.9,0.4-0.7,0.5-1.3,1.3c-0.5,0.7-1.6,1.3-1.6,2.2c0,0,0.4,1.3-0.2,2.5c-1.3,2.5-0.5,1.3-0.7,4.1
		c-0.2,2.3,0.2,1.6,1.8,2.9c0,1.3-0.2,1.8-1.1,2.2c-0.5-1.1-0.2-2-1.4-2.7c-3.1-1.8-4.3-7.2-5.8-10.3c-0.5-1.1-0.9-1.6-1.3-2.5
		c-0.5-1.1-2-4.9-2.2-5.8c-0.2-1.8,0.4,0,0.2-1.4c0-0.4-0.4-1.1-0.5-1.6c-0.4-1.3-0.4-2.7-0.4-4c-0.2-2.3-0.5-4.7-0.9-7
		C63,45,58,45.5,55.8,43.7c0.5-1.8,0.5-1.3,1.3-2.7c0.2-0.5,0.2-0.2,0.4-0.9c1.4,0.2,1.4-0.2,1.1-1.6c-0.4-1.8-0.2-1.8,0.5-2.5
		c0.5-0.7,0.5-1.6,0.7-2.9c0.2-1.3,0.2-1.8-0.2-2.9l0.5-0.2c-0.7-1.8-0.2-1.3-1.6-2.2c-0.7-0.5-0.2-0.7-1.1-1.3l0.2-0.2l0.5-0.5
		c-0.9,0-0.7,0-1.3-0.5c-1.4-1.1-0.5,0-2.7-1.3c-2.9-1.4-6.7,0.5-7.9,3.1c-0.5,0.9-1.1,1.1-1.3,2.5c-0.5,2.5-0.5,1.6-0.9,2.9
		c-0.5,1.8,0.4,0.9-1.3,2.2l-0.2,1.6l0.7-0.4c0.4,0.7,0.2,0.2,0.4,0.5l0.9,1.3c-1.6,4-2.9,2.5-5.9,4.1c-3.4,1.8-6.1,3.6-8.1,7
		c-0.7,1.3-1.1,2.2-1.3,3.8c-0.2,1.3-0.5,2.9-0.5,4.3c-0.2,1.6,0.2,3.2,0.2,4.7c0,1.3-0.2,1.3-0.5,2.2c-0.2,1.1,0.2,0.5,0.2,1.8
		c-0.2,2.2-0.7,2.2-1.4,3.4c-1.6,2.7-1.3,5-1.3,8.6c0,2.2-1.6,17.8-1.3,18.5c0.5,0.4,2,1.3,2.9,1.3c0.5-0.4,1.1-1.1,1.1-1.8
		c0.2-1.1-0.7-1.1-1.1-1.8l1.3-0.4c0,1.1,0.2,1.3,0.9,1.8c-0.2,1.6,0,3.4-0.2,4.9c-0.2,1.6-0.7,2.5-0.7,4.1s0,3.2,0,4.9
		c0,1.8-0.2,3.1-0.2,4.7c0.2,6.8,0,3.4-0.7,6.7c-0.7,4-0.2,4,0.2,6.5c0.2,2.2,1.3,1.6,3.1,2c0.4,2.2,0.9,3.8,1.3,5.9
		c0.4,1.3,1.6,4.9,1.6,5.6c0,1.3-0.5,1.8-0.9,2.9c-0.4,1.1-0.4,2-0.5,2.9c-0.4,2,0,1.8,0,3.2c0,2.7-2.2,3.6,3.8,4.5
		c0.9,0.2,1.3,0,2.2,0.2c0.7,0.2,1.6,0,2.3-0.2c0.4-1.4,0.4-1.6,0-3.1c-0.5-1.8-0.2-5-0.4-6.7c-0.2-1.8-1.6-4.1-2-5.2
		c-0.9-2.7-0.5-7.7,0.2-10.3c2.9-0.2,2.7-1.4,3.2-3.8c0.5-2.7,0.2-6.5,1.4-12.4c0.2-1.1,0.5-1.8,0.5-2.9c0-0.9-0.2-1.8,0.2-2.5
		c0.2-0.7,0.2-0.4,0.2-0.5c0.4,0.7,0.2,11.9,0.2,13.5c-0.2,2.2-1.3,2.2-1.3,5.8c0,3.1-0.5,4.1,2.9,3.8c-0.2,2.3-0.7,3.2,0,5.6
		c0.9,2.9,0,8.1-0.5,11.2c-0.4,2.2-1.1,2.5-2.5,3.4c0.2,0.5,0.4,0.4,0.2,1.1C42.8,152.1,40.9,158.2,45,159.8z"/>
</g>
</svg>
