<?xml version="1.0" encoding="utf-8"?>
<!-- Generator: Adobe Illustrator 23.0.3, SVG Export Plug-In . SVG Version: 6.00 Build 0)  -->
<svg version="1.1" id="Layer_1" xmlns="http://www.w3.org/2000/svg" xmlns:xlink="http://www.w3.org/1999/xlink" x="0px" y="0px"
	 viewBox="0 0 184.3 184.3" style="enable-background:new 0 0 184.3 184.3;" xml:space="preserve">
<style type="text/css">
	.st0{fill:#FFFFFF;}
</style>
<g id="Layer_x0020_1">
	<g id="_2429220691248">
		<path class="st0" d="M105.2,135.6h11.9l0.2,14.4l-12.1,0.2V135.6z M66.7,136l12.1-0.4l0.2,14.6L66.7,150L66.7,136z M105.4,111
			l4.9-0.2h7l0.2,10.3v4.1l-2.9,0.4h-0.9h-8.3V111z M86.2,111c4,0,9.4-0.5,11.7,0.5l0.4,13.7l-12.1,0.5V111z M66.9,111.2L79,111
			v14.4l-12.2,0.2L66.9,111.2z M105.2,86.1h12.1v14.8h-11.7L105.2,86.1z M86,86.5l11.9-0.4l0.2,14.6l-12.4,0.4L86,86.5z M66.7,86.1
			h12.4v14.9H66.7V86.1z M60.8,55v102.2h24.8l0.2-21.8h12.1l0.2,21.6l24.8,0.2c0.9-8.1,0.5-98.5,0.2-109.6l-7.7-0.2
			c-0.9,12.4-10.4,22.1-22.7,22.7c-6.1,0.2-12.8-2.5-17.1-6.3c-4.3-3.6-6.5-10.1-7.4-15.8l-7.7-0.4L60.8,55z"/>
		<path class="st0" d="M138.4,135.6l12.1,0.4v14.2l-12.2,0.2L138.4,135.6z M138.2,111l12.1,0.2V125c-3.4,1.3-8.3,0.9-12.1,0.4V111z
			 M150.2,86.5l0.2,14.6l-12.4,0.2l0.5-14.9L150.2,86.5z M128.6,157.2h30.8l0.4-78.3h-31.3v78.3H128.6z"/>
		<path class="st0" d="M33.8,135.6h12.1l0.2,14.2L34,150.2L33.8,135.6z M34.3,111l11.7,0.2v14.4l-12.4,0.2L34.3,111z M34,86.1
			L46.2,86v15.1H33.8L34,86.1z M24.4,157.2l31,0.2l0.4-78.3H24.4L24.4,157.2z"/>
		<path class="st0" d="M88.5,34.8l7.2,0.2l0.2,7.9l8.1,0.5v6.8l-8.1,0.2l-0.2,8.1l-7.4-0.2L88,50.7H80l0.2-7.4l7.9,0.2L88.5,34.8z
			 M87.4,27.5c-26.6,6.8-14.4,45.2,10.1,38c9.4-2.7,16.6-11.7,13.9-23.9C109,32.3,99.1,24.4,87.4,27.5z"/>
	</g>
</g>
</svg>
