<?xml version="1.0" encoding="utf-8"?>
<!-- Generator: Adobe Illustrator 23.0.3, SVG Export Plug-In . SVG Version: 6.00 Build 0)  -->
<svg version="1.1" id="Layer_1" xmlns="http://www.w3.org/2000/svg" xmlns:xlink="http://www.w3.org/1999/xlink" x="0px" y="0px"
	 viewBox="0 0 184.3 184.3" style="enable-background:new 0 0 184.3 184.3;" xml:space="preserve">
<g id="Layer_x0020_1">
	<path d="M105.2,135.3h11.7l0.2,14.2l-11.9,0.2V135.3z M88.5,35.4l7,0.2l0.2,7.7l8.1,0.5v6.7l-7.9,0.2l-0.2,8.1l-7.2-0.2l-0.2-7.7
		h-7.9l0.2-7.4l7.9,0.2V35.4z M87.4,28.2C61.1,35,73.2,72.8,97.3,65.8c9.4-2.7,16.4-11.5,13.7-23.6C108.8,33,99.1,25.3,87.4,28.2z
		 M34.5,135.1h11.9l0.2,14l-11.9,0.4L34.5,135.1z M35,110.6l11.5,0.2V125l-12.2,0.2L35,110.6z M34.5,86.3h12.1v14.8H34.3L34.5,86.3z
		 M25.1,156.5l30.6,0.2l0.4-77.4h-31C25.1,79.3,25.1,156.5,25.1,156.5z M137.6,135.1l11.9,0.4v13.9l-12.1,0.2L137.6,135.1z
		 M137.6,110.8l11.9,0.2v13.7c-3.4,1.3-8.1,0.9-11.9,0.4V110.8z M149.5,86.5l0.2,14.4l-12.2,0.2l0.5-14.8L149.5,86.5z M128.1,156.5
		h30.6l0.4-77.4h-31C128.1,79.1,128.1,156.5,128.1,156.5z M67.1,135.5l11.9-0.4l0.2,14.4l-12.1-0.2V135.5z M105.2,110.8l4.9-0.2h6.8
		l0.2,10.3v4l-2.9,0.4h-0.9l-8.3-0.2L105.2,110.8z M86.2,110.8c4,0,9.4-0.5,11.5,0.5l0.4,13.5L86,125.4v-14.6H86.2z M67.1,111
		l12.1-0.2V125l-12.1,0.2V111z M105.1,86.3h11.9v14.6h-11.5L105.1,86.3z M86,86.5l11.9-0.2l0.2,14.4l-12.2,0.4L86,86.5z M67.1,86.1
		h12.1v14.8H66.9L67.1,86.1z M61.1,55.5v101.2h24.7l0.2-21.4h11.9l0.2,21.2l24.7,0.2c0.9-7.9,0.5-97.2,0.2-108.4l-7.7-0.2
		c-0.9,12.2-10.3,22-22.5,22.3C86.7,70.7,80,68,75.7,64.4c-4.1-3.6-6.3-10.1-7.2-15.7L61,48.3v7.2H61.1z"/>
</g>
</svg>
