<?xml version="1.0" encoding="utf-8"?>
<!-- Generator: Adobe Illustrator 23.0.3, SVG Export Plug-In . SVG Version: 6.00 Build 0)  -->
<svg version="1.1" id="Layer_1" xmlns="http://www.w3.org/2000/svg" xmlns:xlink="http://www.w3.org/1999/xlink" x="0px" y="0px"
	 viewBox="0 0 184.3 184.3" style="enable-background:new 0 0 184.3 184.3;" xml:space="preserve">
<style type="text/css">
	.st0{fill:#FFFFFF;}
</style>
<g id="Layer_x0020_1">
	<g id="_2429343233072">
		<path class="st0" d="M60.9,49.5c-0.5-0.5-0.9-1.3-1.4-2c-0.5-0.5-1.3-1.1-2-1.4c-2.3-1.3-3.8-1.1-3.8,2c0.9,0.5,1.1,0.7,2,1.3
			c0.7,0.4,1.3,0.9,1.6,1.8c-1.4,1.1-3.6,1.8-5.2,5.2c-0.5,0.9-0.5,1.6-0.9,2.5c-0.5-0.9-1.1-2.2-1.3-3.4c-0.4-1.4-0.5-2.3-2-2.7
			c-3.4,0-0.5,7.6,2.3,9.5c2.3,1.6,1.1,1.6,2.2,4.3c0.9,2.3,2,2-1.4,4.7c-1.4,1.1-2,0.9-2,3.2c1.6,1.3,1.6,1.3,3.4,0
			c1.3-0.9,2-1.8,3.1-2.5c6.5,5.6,7.6,2.7,7.6,14.9c0,0.2-0.4,2.3-0.5,2.7c-0.2,0.9-0.9,1.6-1.6,1.8c-5.2,1.6-2.5-6.3-6.8-9.4
			c-0.5-0.4-0.5-0.4-1.1-0.7c-0.4-0.2-0.5-0.5-0.9-0.7C49.4,79,47.2,79,44.4,75c-1.1-1.4-3.4-7.6-3.4-10.4c0-2,1.1-3.2,1.4-5
			c0.5-1.8,0-4.1,0.7-6.1c1.1-3.6,4.1-4.5,6.7-6.7l1.6-1.6c1.4-2,3.4-3.8,6.3-4c7.4-0.5,5.6-3.2,11-3.2c2.5,0,3.6,1.3,5.4,1.6
			c3.8,0.7,7-2.5,11.7,0.9c1.6,1.3,2,2.7,3.4,3.8c1.6,1.3,3.1,1.1,4.9,2c4.7,2.3,4.3,5.8,5.6,8.3c0.9,1.8,2.2,2.5,3.1,4
			c3.1,5.2-1.1,11-6.1,12.2l-6.7,0.5c-7,0-17.3-1.4-19.3,8.8c-1.3,5.8,1.8,11.5-2.9,11.5S66.5,81.3,64,76.3
			c-1.8-3.8-8.8-6.5-9.4-9.7c4.5-2,6.7,1.3,6.7-3.2c-1.4-0.9-0.7-1.1-4-0.9c-3.6,0.2-4,1.6-4-1.3c0-4.5,4-6.7,7.6-7.7
			c1.8-0.5,2.3-0.4,4.1,0c1.1,0.2,1.6,0.2,2.5,2.5c0.9,2.5,0.5,5.8-1.1,7.7c-1.1,1.3-1.8,1.1-1.6,3.6c3.4,2.3,3.6-2.5,6.1-2.9
			c1.6-0.4,7.6-1.3,6.8-3.8c-1.6-3.1-3.6,0.4-6.7,0.2c0.9-2.9-0.4-5-0.5-6.3l3.2,0.2c1.8,0,2.5-0.5,3.2,0.2c0.9,0.9,1.1,1.3,2.2,2
			c0.7,0.5,1.8,1.3,2.7,1.4c1.4,0.5,1.3,0.4,2.9,1.3c9.4,5.2,3.6,9.4,7.9,9.4c2.2,0,1.3-4.1,0.7-5.4c-0.7-2-1.6-2.9-2.9-4.1
			c0.9-0.5,1.1-0.4,2-0.7c3.2-1.3,4.3-4.5,1.6-4.7c-2.3-0.2-1.3,1.8-6.3,1.8c-4.1,0-4.9-0.9-7.6-2.3c0.5-0.5,5-3.1,5.6-5.6
			c0.2-1.3-1.4-4-3.8-0.5c-3.2,4.9-12.6,4.1-14.8,2.7c3.6-2.7,2.5-10.4-0.7-7.6C66,43.9,69.6,47.5,60.9,49.5z M27.8,66.6
			c0,8.1,0.7,13.9,3.8,20.9c0.5,0.9,0.5,1.6,1.3,2.5c2.9,4.7,3.8,6.5,7.6,10.6c1.1,1.3,2.9,2.2,3.8,3.6c1.1,1.8,0.4,4.1,0.7,6.7
			c1.6,0,5.4-0.2,6.8,0.2c3.2,0.9,3.1,3.8,3.1,6.3c0,2.3-2.3,2.2,0.4,3.8s2.3,6.1,1.6,7.6c-0.4,0.5-0.5,0.5-0.5,1.4
			c0,1.1,0.9,1.8,0.9,2.9v6.3c0,0.4-0.4,1.1-0.5,1.8c3.4,0,32.4,0.2,33.7-0.2c4.9-1.8,0.2-13.3,2.7-16.2c1.8-2.2,9.2,1.4,17.3-5.2
			c5-4.3,6.1-9.9,6.1-16.4c0-2.9-0.4-4.9,2.7-4.9c2.7,0,4.5-0.2,6.1-1.4c5.4-4.3,0.9-10.8-2-15.5l-5.6-9.7c-1.3-2.3-0.9-3.2-1.3-6.5
			c-0.4-5.9-2.3-13-5-17.8c-0.9-1.8-1.6-3.1-2.9-4.7c-0.5-0.9-1.1-1.4-1.6-2.2c-6.7-8.5-15.1-13.5-25.9-16C74.2,23,67,23.4,60.6,25
			c-7.6,2-14.8,6.3-20.2,11.7c-0.9,0.9-1.6,1.6-2.5,2.7l-4.5,6.3c-0.4,0.5-0.5,1.1-0.9,1.8C30,52,27.8,61,27.8,66.6z"/>
		<path class="st0" d="M135.8,117.5c0-3.1,3.6-2.3,7.6-2.3c4.1,0,7.6-0.9,7.6,2.3v10.3c0,1.6-0.9,2.3-2.3,2.3h-10.3
			c-1.4,0-2.3-0.7-2.3-2.3v-10.3H135.8z M130,102.8v44.5c0,5.9,12.4,5.6,16,5.6c2.7,0,10.6-1.3,10.6-5.6v-44.6
			c0-2.5-1.8-6.7-3.8-8.3c-3.4-3.1-2.3-3.4-2.7-9.4c-0.2-3.8-1.1-7.6,0-10.6c2.3-7-6.1-6.3-9.5-6.3c-1.4,0-3.1,1.1-3.8,2
			c-1.8,2.3,0.4,4.7,0.2,6.7l-0.9,14c-0.4,2.2-1.6,2.3-2.5,3.6c-0.5,0.5-0.9,1.3-1.3,1.8c-0.4,0.5-0.7,1.1-1.1,1.8
			C130.8,99,130,101.5,130,102.8z"/>
		<path class="st0" d="M47.2,151.2c2.2-0.4,11.5-0.2,13.1,0.5c3.6,2,2.7,7-2,7.7c-2.3,0.4-11.7,0.4-13.3-0.5
			C42.6,157.5,41.1,152.3,47.2,151.2z M31.9,120.9c-4.3,1.3-4.3,0-4.3,8.8c0,4.3,0,8.8,0,13.1c0,15.3-1.4,12.8,13.7,12.8
			c1.1,3.2,2.5,4.9,6.5,4.9c2.7,0,9,0.2,11.5-0.2c5.8-1.1,7.6-10.6-2.9-10.8c0-8.6,1.6-7.2-12.4-7.2c-11.7,0-9.9,2-10.1-9.4
			c0-4.3,0.2-3.8,6.1-3.8c3.2,0,6.5,0,9.7,0c3.8,0,6.7,1.3,6.7-3.2c0-6.3-2-4.3-4.3-5.6c0.2-2,1.8-0.7,1.8-3.6
			c0.2-6.8-2-5.6-11.7-5.6c-2.7,0-8.8-0.5-10.8,0.7c-1.3,0.9-1.4,2.5-1.4,4.7C30.1,120.6,32.3,118.6,31.9,120.9z"/>
		<path class="st0" d="M35.2,132.6c0,7-0.9,9,4,9h13c5.2,0,4.5-0.4,4.5-8.6c0-1.4-0.5-2.3-2.2-2.3H37.7
			C36.3,130.7,35.2,131.7,35.2,132.6z"/>
		<path class="st0" d="M48.9,158.6c-7,0-5.6-6.1-1.3-6.1c3.1,0,5.9-0.5,5.9,2.5C53.5,158.4,52.8,158.6,48.9,158.6z M47.2,151.2
			c-6.3,1.1-4.9,6.3-2.3,7.7c1.6,0.9,11,0.9,13.3,0.5c4.9-0.5,5.6-5.8,2-7.7C58.9,151,49.4,150.8,47.2,151.2z"/>
		<path class="st0" d="M48.9,158.6c4,0,4.7,0,4.7-3.8c0-3.1-2.9-2.5-5.9-2.5C43.3,152.3,41.8,158.6,48.9,158.6z"/>
	</g>
</g>
</svg>
