<?xml version="1.0" encoding="utf-8"?>
<!-- Generator: Adobe Illustrator 23.0.3, SVG Export Plug-In . SVG Version: 6.00 Build 0)  -->
<svg version="1.1" id="Layer_1" xmlns="http://www.w3.org/2000/svg" xmlns:xlink="http://www.w3.org/1999/xlink" x="0px" y="0px"
	 viewBox="0 0 184.3 184.3" style="enable-background:new 0 0 184.3 184.3;" xml:space="preserve">
<style type="text/css">
	.st0{fill:#FFFFFF;}
</style>
<g id="Layer_x0020_1">
	<g id="_2429343222656">
		<path class="st0" d="M66.9,8.6c-8.5-1.3-18-1.3-26.3-2.5c-4.5,2.3-5.2,6.3-6.5,10.8c-2.3,8.8-3.6,19.4-4.1,29.2
			c-0.2,2.2,0.2,4.3,0,6.5c-0.5,4.3-0.5,9.7-0.2,14.2c1.3,16.6,1.8,32.6,8.3,44.3c1.1,0.4,1.8,1.4,3.4,1.6c0.7,0,2-0.4,3.4-0.5
			c7.2-1.3,14.6-2.5,21.1-3.8c1.1-0.2,2.7-0.4,2.9-1.1c-6.5-0.2-13.9,0.4-20.5,0.5c-1.3,0-3.6,0.5-3.6-0.4c0.5-0.5,2-0.4,2.9-0.4
			c5.8-0.4,12.6-0.4,18.5-1.1c1.4-0.2,3.2,0.2,2.5-1.3c-6.5-0.2-14.8,0.5-21.6,0.7c-0.7,0-2.3,0.5-2.3-0.4c6.5-0.7,15.1-1.1,22-1.4
			c0.5,0,1.8,0.2,2.2-0.4c0-0.4,0-0.5,0-0.9c-6.5,0-15.1,0.7-21.4,0.7c-0.9,0-2.2,0.4-2.7-0.2c0.4-0.5,1.6-0.4,2.3-0.4
			c6.5-0.4,12.8-0.7,18.9-1.1c0.7,0,2.2,0.2,2.7-0.4c0-0.4,0-0.7,0-0.9c-6.5-0.2-13.9,0.4-20.5,0.5c-1.3,0-3.6,0.5-3.6-0.4
			c6.3-0.7,13.9-0.9,20-1.3c1.6-0.2,3.4,0.2,4.1-0.5c0-0.4,0-0.5,0-0.9c-6.5,0-14.4,0.5-20.9,0.5c-0.9,0-2.9,0.5-3.1-0.4
			c7-0.7,14.9-0.9,22-1.3c0.5,0,2.2-0.2,2.2-0.2s0-0.9,0-1.3c-6.3-0.2-13.7,0.4-20.2,0.5c-1.4,0-3.6,0.5-3.8-0.4
			c6.7-0.9,15.5-0.9,22.1-1.4c0.5,0,2-0.2,2-0.2s0-0.9,0-1.3c-6.5,0.2-14.2,0.4-20.7,0.5c-1.1,0-2.5,0.4-3.4-0.2
			c0.4-0.5,1.8-0.4,2.3-0.4c6.5-0.4,13-0.7,19.3-1.1c0.7,0,2.3-0.2,2.3-0.2s0-0.9,0-1.1c-6.3-0.2-13.7,0.4-20.2,0.5
			c-1.4,0.2-3.6,0.5-4-0.2c6.1-0.9,15.1-0.9,21.2-1.4c0.9-0.2,2.9-0.2,2.9-0.2s0.2-0.9-0.2-1.1c-0.5-0.4-1.8-0.2-2.7-0.2
			c-6.3,0-13.3,0.5-18.7,0.7c-0.7,0-1.8,0.4-2.2-0.2c0.2-0.5,1.6-0.4,2.2-0.4c6.5-0.5,12.8-0.7,18.9-1.1c0.7,0,2.7-0.2,2.7-0.2
			s0-0.9,0-1.3c-6.5,0-13.5,0.4-20.2,0.5c-1.3,0-3.1,0.4-3.6-0.2c0.7-0.9,2.7-0.5,4-0.5c5-0.2,11.3-0.5,15.7-0.9
			c1.6-0.2,4.1-0.2,4.1-0.2s0.5-1.1-0.4-1.3c-1.1-0.2-3.4,0-4.3,0.2c-5.4,0.2-11.7,0.9-16.6,0.7c-0.7,0-2.3,0.2-2.3-0.5
			c6.5-0.7,13.5-0.9,20.2-1.3c1.3,0,2.5,0,3.4-0.4c0.4-0.2,0.2-0.7,0.2-1.1C62.8,80.3,54.5,81,48,81.2c-0.7,0-2.5,0.5-2.7-0.4
			c0.7-0.7,2-0.4,3.1-0.5c5.9-0.4,11.7-0.7,17.1-0.9c1.3,0,3.1,0.2,3.6-0.5c0.4-1.6-3.2-0.9-4.9-0.9c-5.6,0.2-11.3,0.7-16.4,0.7
			c-0.7,0-2.5,0.5-2.7-0.4c0.4-0.5,1.6-0.5,2.3-0.5c6.1-0.5,13-0.5,18.7-0.9c0.7,0,2.2,0.2,2.7-0.4c0-0.4,0-0.5,0-0.9
			c-6.5,0-14.4,0.5-20.9,0.5c-0.9,0-2.7,0.5-2.9-0.4c0.2-0.5,1.4-0.4,2-0.4c6.5-0.5,13-0.5,19.3-1.1c0.7,0,2.5,0.2,2.5-0.5
			c0.5-0.9-0.9-0.9-1.6-0.9c-0.9,0-2.5,0.2-3.4,0.2c-5.4,0.2-11.3,0.7-16.4,0.7c-0.7,0-2.7,0.5-2.3-0.5c0.5-0.5,1.8-0.4,2.7-0.5
			c5.4-0.4,11.2-0.5,16.4-0.7c1.8-0.2,5.4,0.2,4.9-1.3c-0.5-0.5-1.8-0.2-2.7-0.2c-6.1,0.2-13,0.7-18.7,0.9c-0.7,0-2.3,0.5-2.5-0.4
			c-0.2-0.9,1.6-0.7,2.2-0.7c6.1-0.7,13.1-0.5,18.9-0.9c0.7,0,2.5,0.2,2.7-0.5c0-0.2,0-0.4,0-0.5c-0.7-0.5-2.2-0.2-3.2-0.2
			c-5.8,0.2-11.9,0.5-17.6,0.7c-0.9,0-3.1,0.5-3.1-0.5c0.7-0.5,2.2-0.4,3.1-0.5c5.9-0.4,11.9-0.5,17.3-0.9c1.3,0,3.4,0.2,3.4-0.5
			c0-0.2,0-0.4,0-0.5c-0.5-0.5-1.8-0.2-2.5-0.2c-6.1,0.2-13,0.9-18.7,0.9c-0.7,0-2.7,0.5-2.3-0.5c0-0.9,1.8-0.5,2.3-0.5
			c6.1-0.5,13-0.4,18.7-0.9c0.7,0,2.5,0.2,2.7-0.5c0-0.2,0-0.4,0-0.5c-0.4-0.5-1.6-0.2-2.3-0.2c-6.1,0.2-13,0.7-18.7,0.9
			c-0.7,0-2.2,0.4-2.5-0.2c0-0.2,0-0.5,0-0.7c6.5-0.7,14.8-0.5,21.4-1.1c0.5,0,2.3,0.2,2.3-0.5c0-0.2,0-0.4,0-0.5
			c-0.5-0.5-1.8-0.2-2.7-0.2c-6.1,0.2-13,0.9-18.7,0.9c-0.7,0-2.7,0.5-2.3-0.5c0-0.9,1.8-0.5,2.3-0.5c6.1-0.5,13-0.5,18.7-0.9
			c0.7,0,2.5,0.2,2.7-0.5c0-0.2,0-0.4,0-0.5c-0.5-0.5-1.6-0.2-2.5-0.2c-6.1,0.2-13,0.7-18.7,0.9c-0.7,0-2.2,0.4-2.7-0.2
			c0-0.2,0-0.5,0-0.7c6.3-0.7,14.8-0.7,21.4-1.1c0.5,0,2.3,0.2,2.3-0.5c0-0.2,0-0.4,0-0.5c-0.5-0.5-1.8-0.2-2.7-0.2
			c-6.1,0.2-13,0.9-18.7,0.9c-0.7,0-2.7,0.5-2.3-0.5c0-0.9,1.8-0.5,2.3-0.5c6.1-0.5,13-0.5,18.7-0.9c0.7,0,2.5,0.2,2.7-0.5
			c0-0.2,0-0.4,0-0.5c0-0.5-1.3-0.2-1.6-0.2c-5.8,0.2-13,0.5-17.8,0.7c-1.4,0-4.5,0.7-4.3-0.5c0.5-0.5,1.8-0.4,2.7-0.4
			c5.8-0.5,12.8-0.5,18.5-1.1c0.7,0,2.5,0.4,2.7-0.5c0-0.2,0-0.4,0-0.5c-0.5-0.5-1.8-0.2-2.7-0.2c-6.1,0.2-13,0.9-18.7,0.9
			c-0.7,0-2.7,0.5-2.3-0.5c0-0.9,1.8-0.5,2.3-0.5c6.1-0.5,13-0.4,18.7-0.9c0.7,0,2.5,0.2,2.5-0.5c0-0.2,0-0.4,0-0.5
			c-0.5-0.5-1.8-0.2-2.7-0.2c-5.6,0-12.8,0.5-18.5,0.7c-0.7,0-2.5,0.5-2.7-0.4c-0.4-0.7,1.1-0.5,1.4-0.5c6.7-0.7,14.6-0.5,20.3-1.1
			c0.5,0,2.2,0.2,2-0.5c0-0.2,0-0.4,0-0.5c-0.4-0.2-1.4,0.2-2,0.2c-6.8,0.2-14.2,0.7-20.2,0.7c-0.4,0-2.2,0.4-2-0.4
			c0.4-0.5,1.6-0.5,2.3-0.5c6.1-0.5,13-0.5,18.7-0.9c0.7,0,2.2,0.2,2.7-0.4c0-0.4,0-0.5,0-0.9c-6.5-0.2-15.1,0.9-21.6,0.9
			c-0.5,0-2.5,0.5-2.2-0.5c0.5-0.7,1.8-0.4,2.7-0.5c5.4-0.4,11.2-0.5,16.4-0.7c1.8-0.2,5.4,0.4,4.9-1.4c-6.3-0.2-14.6,0.5-21.1,0.7
			c-0.7,0-2.5,0.5-2.7-0.4c0.2-0.5,1.4-0.4,1.8-0.4c6.5-0.5,12.8-0.7,19.1-1.1c0.9,0,2.3,0.2,2.9-0.4c0-0.4,0-0.7,0-0.9
			c-6.3,0-15.3,0.7-21.4,0.7c-0.7,0-2.3,0.5-2.5-0.4c0.5-0.5,1.8-0.4,2.7-0.4c5.6-0.4,11.2-0.5,16.4-0.7c1.8,0,5.4,0.4,4.9-1.4
			c-6.3-0.2-13.7,0.4-20.2,0.5c-1.3,0-3.6,0.5-3.6-0.2c0.7-0.7,2.2-0.4,3.1-0.5c5.9-0.4,11.5-0.7,16.9-0.9c1.4-0.2,3.2,0.2,3.8-0.5
			c0-0.4,0-0.5,0-0.9c-6.1,0.2-13.5,0.4-19.6,0.5c-1.4,0.2-4,0.5-4.1-0.2c5.2-0.7,13-0.9,18.9-1.3c1.6-0.2,5.4,0.4,4.9-1.4
			c-5.9-0.4-15.1,0.5-21.2,0.5c-0.7,0-2.5,0.5-2.7-0.4c6.7-0.5,14.9-0.9,21.4-1.3c0.7,0,2,0.2,2.3-0.4c0-0.4,0-0.5,0-0.9
			c-6.5-0.2-14.6,0.5-21.4,0.5c-0.7,0-2.3,0.5-2.3-0.4c6.5-1.1,14.6-0.4,21.4-1.3c1.3-0.2,3.1,0.2,2.3-1.3
			c-6.3-0.2-14.9,0.4-21.6,0.5c-0.7,0-2,0.4-2.3-0.2c0.2-0.5,1.4-0.4,2-0.4c6.1-0.4,12.4-0.5,18-0.9c1.6-0.2,3.4,0.2,4.1-0.5
			c0-0.4,0-0.7,0-0.9c-6.3-0.2-14.6,0.5-21.2,0.7c-0.7,0-2.7,0.5-2.9-0.4c6.7-0.7,14-0.9,20.9-1.3c0.9,0,2.3,0.2,3.1-0.5
			c0-0.4,0-0.5,0-0.9c-6.3-0.2-14.6,0.4-21.2,0.5c-0.9,0-2.7,0.5-2.9-0.4c6.5-0.5,15.3-0.9,21.4-1.3c0.9-0.2,2.2,0.2,2.7-0.5
			c0-0.4,0-0.5,0-0.9c-6.7-0.2-14.2,0.5-20.9,0.5c-1.1,0-2.3,0.2-3.2-0.4c6.7-0.7,13.9-0.9,20.7-1.3c1.1-0.2,2.5,0.2,3.4-0.5
			c0-0.4,0-0.7,0-0.9c-6.3-0.2-14.6,0.4-21.2,0.5c-0.7,0-2.7,0.5-2.9-0.4c6.7-0.5,14.9-0.9,21.6-1.3c0.7,0,2,0.2,2.3-0.4
			c0-0.4,0-0.5,0-0.9c-6.5-0.2-14.8,0.5-21.4,0.5c-0.7,0-2.5,0.5-2.5-0.4c6.3-0.9,14.8-0.9,21.4-1.3c0.9,0,2.2,0.2,2.7-0.5
			c0-0.4,0-0.5,0-0.9c-6.5-0.2-13.9,0.4-20.2,0.5c-1.4,0-3.2,0.4-4-0.2c0-0.4,0-0.5,0-0.9c6.5-0.2,14.2-0.4,20.5-0.5
			c1.3,0,3.6,0.2,3.6-0.7c0-0.2,0-0.4,0-0.5c-0.5-0.5-2-0.2-2.9-0.2c-5.9,0.2-11.7,0.4-17.1,0.5c-1.4,0-4,0.5-4.1-0.4
			c0.2-0.5,1.3-0.4,1.6-0.4c6.8-0.5,14.4-0.5,20.3-1.1c0.5,0,2.2,0.2,2-0.5C68.5,8.4,67.3,8.8,66.9,8.6z"/>
		<path class="st0" d="M37.9,109.8c4.5,11.9,5.4,24.7,3.4,37.3c-1.6,10.8-5.8,25.4,6.3,31.9c12.8,6.8,22.7-6.8,21.6-19.1
			c-0.5-6.7-4.7-12.1-7.7-18c-3.6-6.5-3.8-11.3-4.5-18.5c-0.5-5.2,0.2-10.6-0.9-15.8L37.9,109.8z"/>
	</g>
	<g id="_2429343219968">
		<g>
			<path class="st0" d="M87.8,5.2l40.9,101c0,0-2.9,3.4-6.5,3.8c-5.6-26.8-16-26.1-16-26.1s-25.9-40.7-27-56.3
				C78.1,13.8,87.8,5.2,87.8,5.2z"/>
			<g>
				<path class="st0" d="M126.3,3.4L99.5,108.9c0,0,3.2,3.1,7,2.9c2-27.4,12.4-27.9,12.4-27.9s20.3-43.7,19.3-59.4
					C137.1,10.8,126.3,3.4,126.3,3.4z"/>
			</g>
			<g>
				<polygon class="st0" points="132.6,110.3 122.9,123.1 118,102.2 127.2,98.1 				"/>
				<path class="st0" d="M152.9,118.6C152.9,118.6,152.8,118.8,152.9,118.6C152.8,118.8,152.8,118.6,152.9,118.6
					c-3.6-8.3-14.2-15.3-23.8-11.5c-9.7,3.8-7.6,15.5-4.3,23c3.4,7.9,11.2,15.8,20.7,12.1C155.1,138.4,156.4,126.7,152.9,118.6z
					 M146.1,133.9L146.1,133.9c-5.4,7.4-12.6-1.1-14.9-6.3c-3.2-7.7-2.2-19.8,9.2-13.5c1.6,0.9,5,4.3,6.3,6.8
					C148.4,125.1,149.3,129.4,146.1,133.9z"/>
			</g>
			<g>
				<polygon class="st0" points="96.2,112.7 107.4,124.2 109.6,102.8 99.8,100.1 				"/>
				<path class="st0" d="M87.6,146.1c10.1,2.5,16.6-6.5,18.7-14.6c2.2-7.9,2.7-19.8-7.6-22.3c-10.1-2.5-19.4,5.8-21.8,14.4
					c0,0,0,0,0.2,0c0,0,0,0-0.2,0C74.8,132.1,77.5,143.6,87.6,146.1z M83.6,125.3L83.6,125.3c0.9-2.7,3.8-6.5,5.2-7.7
					c10.4-7.7,13.1,4.1,11,12.2c-1.6,5.4-7.6,14.8-13.9,8.1C82,133.7,82.4,129.4,83.6,125.3z"/>
			</g>
			<g>
				<path class="st0" d="M115,77.2c-0.2-1.6-1.4-2.7-3.1-2.7c-1.6,0.2-2.7,1.4-2.5,3.1c0.2,1.6,1.4,2.7,3.1,2.7S115.1,78.8,115,77.2
					z"/>
				<g>
					<path class="st0" d="M114.4,77.2c0-1.3-1.3-2.3-2.5-2.2c-1.3,0-2.3,1.3-2.2,2.5c0.2,1.3,1.3,2.3,2.5,2.2
						C113.5,79.7,114.4,78.5,114.4,77.2z"/>
					<path class="st0" d="M111.9,79.7c0.2,0,0.2,0,0.4,0c0.2,0,0.2,0,0.4-0.2l-0.4-4.7c-0.2,0-0.2,0-0.4,0c-0.2,0-0.2,0-0.4,0
						L111.9,79.7z"/>
				</g>
			</g>
		</g>
	</g>
</g>
</svg>
