<?xml version="1.0" encoding="utf-8"?>
<!-- Generator: Adobe Illustrator 23.0.3, SVG Export Plug-In . SVG Version: 6.00 Build 0)  -->
<svg version="1.1" id="Layer_1" xmlns="http://www.w3.org/2000/svg" xmlns:xlink="http://www.w3.org/1999/xlink" x="0px" y="0px"
	 viewBox="0 0 184.3 184.3" style="enable-background:new 0 0 184.3 184.3;" xml:space="preserve">
<style type="text/css">
	.st0{fill:#FFFFFF;}
</style>
<g id="Layer_x0020_1">
	<g id="_2429220732752">
		<path class="st0" d="M125.4,143.6l0.4,6.7c-9-0.2-67.3,0.5-70.6-0.4c-0.2-8.5-1.8-6.8,12.1-6.7
			C76.8,143.4,122.7,142.7,125.4,143.6z M85.3,104.7l10.1-0.2v3.4H85.3V104.7z M102,79.1c2.5,0.2,5.4,0.2,7.2,1.3
			c-2.5,7-16,6.3-15.1-4.5c0.7-9,14.6-9.2,15.7-0.7c-2.9-0.4-4.7-1.1-7.7-0.9L102,79.1z M100.4,90.5v9H80V51.4h20.2l0.2,12.8
			c-5.9,0.9-11.3,6.3-11.3,13c0.2,5.6,4.1,10.4,9.2,12.2C100,89.9,100,89.8,100.4,90.5z M95.2,42.4L95,46c-0.5,0.4,0,0.2-0.9,0.4h-9
			l-0.4-4.3L95.2,42.4z M85.3,34.1L95.3,34v3.2h-9.7L85.3,34.1z M80.2,36.5l-1.4,0.7c-0.4,0.2-0.5,0-1.1,0.2v4.7l1.8,0.5
			c0.2,0,0.2,0.2,0.4,0.2c0.2,0,0.2,0.2,0.4,0.2v3.6H75v58l5.2,0.2v8.3h20l0.2-8.3h5V89.9c2-1.6,6.7-2.5,8.3-7.7
			c9.2,2.9,16.4,16,14.4,27.9c-1.8,11.3-10.1,20-21.6,21.6l-0.2-1.6h4.7v-5H66.9v5h34.4l0.2,8.1c-10.4,0.7-23,0.2-33.7,0
			c-18.5,0-17.3-0.9-17.6,17.1h80.5c0-19.3,1.1-17.1-24.3-16.9c0.2-2.2-0.9-1.3,4-2.5c10.8-2.7,20-12.8,22.3-24.1
			c2.9-13.1-3.4-25.2-13.5-32.2c-1.3-0.9-2.9-1.6-4.1-2.5c-0.5-3.4-1.3-5.9-3.1-8.1c-1.6-1.8-3.6-3.8-6.7-4.5v-18h-5l0.2-4.1h2.5
			c0-6.3,0.2-4.3-2.5-5.2l-0.2-8.1h-20V36.5z"/>
		<path class="st0" d="M130.1,75.4c1.1,1.6,1.8,2,3.1,3.2c1.8-1.1,2.2-1.6,3.6-3.1c-1.1-1.3-2-2.3-3.1-3.6
			C132.1,72.5,130.8,73.7,130.1,75.4z"/>
		<polygon class="st0" points="34.5,103.8 39.5,104.3 40.3,99.7 35.6,98.6 		"/>
		<path class="st0" d="M122.5,69.4c1.3,0.9,2.5,2,4,2.7c1.3-1.3,2.2-2.3,2.9-4c-1.4-0.9-2.5-1.8-4.1-2.7L122.5,69.4z"/>
		<polygon class="st0" points="37,93.5 41.5,95.2 43.5,90.7 38.8,88.7 		"/>
		<path class="st0" d="M47.5,75.2c0.5,1.1,2.7,3.1,4,3.6l2.9-3.4l-3.4-3.4C49.8,72.8,48.4,74.1,47.5,75.2z"/>
		<path class="st0" d="M41.3,84.4c1.6,0.5,2.5,1.4,4.5,2.2c0.5-1.4,1.4-2.7,2.2-4c-1.1-0.9-2.7-2.2-4-2.9
			C43.3,80.9,41.9,82.7,41.3,84.4z"/>
		<polygon class="st0" points="145.4,113.9 147.2,113.9 150.4,113.7 150.2,108.8 145.4,109 		"/>
		<path class="st0" d="M36.8,129.4c0,1.6,0.9,3.6,1.8,4.7l4.3-1.6c-0.4-1.6-0.7-3.4-1.8-4.7L36.8,129.4z"/>
		<path class="st0" d="M140.9,91l1.6,4.1l4.7-1.6l-1.8-4.9C143.9,89.2,141.8,89.9,140.9,91z"/>
		<path class="st0" d="M39.2,118.6c-1.1,0-4.1,0.2-4.7,0.9s0.4,3.6,0.7,4.7l4.7-1.3L39.2,118.6z"/>
		<path class="st0" d="M144.3,123.2l4.9,0.9c0.4-1.6,0.7-3.2,0.5-4.9l-4.7-0.7L144.3,123.2z"/>
		<path class="st0" d="M63.5,62.6c0.5,1.3,1.4,3.2,2.5,4.1l3.8-1.8L68,60.4C66.5,60.8,64.7,61.5,63.5,62.6z"/>
		<polygon class="st0" points="33.8,113.9 38.8,113.7 38.8,109 34,108.8 		"/>
		<path class="st0" d="M136.2,82.4c0.7,1.3,1.4,2.9,2.5,4l4.1-2.2l-2.7-4.5C138.7,80.4,137.5,81.7,136.2,82.4z"/>
		<polygon class="st0" points="144.1,99.7 144.8,104.2 149.7,103.6 148.8,98.6 		"/>
		<path class="st0" d="M55,68.2c0.5,1.1,2,3.2,2.9,4c1.1-0.7,2.9-1.8,3.4-3.1L59,65.8c0-0.2-0.2-0.2-0.2-0.2
			C57.5,66,56.1,67.1,55,68.2z"/>
		<polygon class="st0" points="114.2,64.7 118.4,66.7 120.9,62.8 116.2,60.2 		"/>
		<polygon class="st0" points="147.5,129.4 143,127.9 141.2,132.4 145.9,134 		"/>
		<path class="st0" d="M40.6,138.9c0.4,0.9,0.7,1.8,1.6,2.3l4-2c-0.4-1.6-0.5-1.6-1.6-2.7L40.6,138.9z"/>
		<path class="st0" d="M138,139.1l4.1,2.2c1.1-0.9,1.1-1.1,1.4-2.5l-4.3-2L138,139.1z"/>
	</g>
</g>
</svg>
