<?xml version="1.0" encoding="utf-8"?>
<!-- Generator: Adobe Illustrator 23.0.3, SVG Export Plug-In . SVG Version: 6.00 Build 0)  -->
<svg version="1.1" id="Layer_1" xmlns="http://www.w3.org/2000/svg" xmlns:xlink="http://www.w3.org/1999/xlink" x="0px" y="0px"
	 viewBox="0 0 184.3 184.3" style="enable-background:new 0 0 184.3 184.3;" xml:space="preserve">
<g id="Layer_x0020_1">
	<path d="M54.3,55.1c-0.5,0.4-0.7,0.7-0.9,1.4c-2.2,3.6-1.4,11.7,0,15.7c1.6,4.5,4.1,9.7,1.4,14.8c-1.3,2.3-2.5,2.9-5.2,3.8
		c-2.3,0.7-4.5,1.6-6.8,2.3c-4.7,1.8-9,3.8-9.7,8.8c-0.7,3.8,0.4,12.4,0.5,16.7c0.2,2.2,0.9,20.7,1.6,21.6c0.4,0.4,2,1.6,2.5,2.2
		c4,3.2,12.8,9,17.3,10.6l-0.9-13.3c-0.2-3.2-0.4-6.3-0.7-9.5c-0.2-2.9-0.5-6.7-0.5-9.5c0.5-4.7,1.3-6.7,4.3-9.7
		c4.5-4.7,14.6-6.3,19.6-8.8c3.4-1.6,4-6.1,3.1-10.6c-2.2-1.1-4-0.9-5.6-2.5c-1.3-1.3-2.3-3.2-2.7-5.6c-0.7-5.6,2-9,3.1-13.5
		c1.1-4.3,1.1-10.6-1.1-14c-2-3.2-5.2-6.1-10.8-5.9c-2.2,0.2-2.5,0.4-4.3,1.3l-0.4,0.4c-0.5,0.2-0.7,0.4-1.3,0.7
		c-0.7,0.4-0.7,0.4-1.1,1.1C55.2,53.6,54.5,54.5,54.3,55.1z M127.9,134.6c0.2-0.9,0.2-1.4,0.4-2.3c1.4-17.3,1.3-19.3-14.8-25
		c-1.8-0.5-3.4-1.1-5.2-1.6c-1.1-0.4-1.6-0.4-2.5-0.9l-2-1.3c-0.7-1.6-1.6-1.8-2.2-5.8c-1.3-8.5,4.5-16,3.8-19.1
		c1.1-1.1,0.7-10.3-1.6-14.2c-4.9-8.1-16.2-9.4-22.5-0.7c-2.2,3.1-3.4,10.1-2.3,14.4c0.4,4.3,2.7,8.5,3.8,12.6
		c0.9,3.4,0.7,9-1.6,12.1c-0.5,0.5-0.5,0.4-0.9,1.3l-0.9,0.2c-1.1,0.7-1.1,0.7-2.5,1.3c-1.3,0.4-2.5,0.7-3.8,1.3
		c-7.4,2.5-15.8,4.9-17.3,12.8l-0.2,1.1v4.3l0.5,7.4l0.4,5l0.2,2.2l1.1,15.1c1.8,1.4,12.8,4.5,16,5.2c2.9,0.5,5.9,1.1,9.2,1.4
		l5.8,0.4c2.5,0.4,6.3,0,8.6-0.2c4.3,0,9.9-0.9,13.9-1.8c3.1-0.7,14-3.6,15.8-5.2C127,151.9,128.3,136.1,127.9,134.6z M131.7,120.4
		v4.1l-2,28.6c1.6-0.5,4.1-2,5.8-2.9c2-1.1,3.6-2.2,5.4-3.2l5-3.6c3.6-2.9,3.6-2.2,3.8-4.9c0.4-5.4,0.7-11,1.1-16.4
		c0.4-5.2,0.9-10.8,1.1-16.2c0.2-6.3-2.2-8.6-6.5-11c-4.3-2.2-11-4-12.8-4.7c-3.8-1.8-5.2-7.6-3.6-12.8c1.6-5,3.2-7.9,3.2-14
		l-0.5-4.3l-0.2-0.2l-0.2-0.9c-0.4-1.3-0.9-2.5-1.8-3.6c-0.7-0.9-2-2.2-2.7-2.5c-0.4-0.5-1.4-1.1-2.2-1.1c-0.5-0.5-0.9-0.5-1.8-0.7
		l-0.4-0.2c-2.7,0.5-3.2-0.7-7.4,1.3c-6.5,3.2-7.4,11.5-5.8,18.2c1.1,4.7,3.8,7.9,3.2,13.5c-0.7,8.3-7.6,7.4-8.3,8.5
		c-0.2,0.4-1.8,8.1,3.1,10.4C114,105.5,131.3,106.9,131.7,120.4z M136,56.7c0.5,0.4,0.5,1.8,1.1,2.3c0,1.4,1.3,2.5,0.9,6.1
		c-0.2,2.2-0.7,3.8-1.4,5.6c-1.8,4.3-4,5.6-4.9,9c-1.1,4.5,0.7,7.4,4.9,8.8c6.7,2.2,14.6,4.3,17.3,10.6c1.6,3.6,0.9,8.3,0.5,12.4
		c-0.2,4.3-0.5,8.8-0.9,13.1l-0.7,12.2c0,1.3-0.2-0.7,0,0.4l0.2,0.2c12.8-12.1,18.4-27.2,18.5-46.3c0-10.8-5.2-15.5-13.5-18.7
		c-1.4-0.5-2.7-0.7-3.8-1.6c-0.9-0.7-1.6-1.8-2.2-3.2c-1.8-6.5,2.5-11.2,2.9-17.6c0.2-3.4-0.2-6.5-2-8.8c-4-5.2-10.6-5.6-14.6-1.8
		c-2.2,2-2.7,3.8-3.4,7.2l0.2,0.7l-0.2,0.5v0.5c0,0.5,0,0.9,0,1.4C134.7,52.4,135.3,54.2,136,56.7z M85.2,35.8c1.1,0,2.5-1.8,7-1.8
		c4.3,0,5.9,2,7,1.8c0.4-3.2,0.9-6.3-0.5-9.2c-1.1-2.2-3.4-4-6.5-4c-3.1,0-5.6,2-6.5,4C84.3,29.5,84.7,32.4,85.2,35.8z M125,47.9
		l1.3,0.4c0.5-0.5,0.9-1.4,1.3-2.2c1.3-3.6,1.6-10.1,0-13.5c-2.2-4.5-9.2-8.1-15.3-1.6c-4,4.3-1.4,16.9,0.5,18.9
		c1.8-0.9,2.9-1.8,5.6-2.3C119.8,47.2,124.1,47.2,125,47.9z M57.9,48.4c6.3-1.6,7.4-2,13.7,1.3c0.9-0.9,1.8-4.1,2.2-5.9
		c0.9-4.3,1.1-10.1-2.2-13.5c-4.9-5-13.1-3.1-15.1,4c-0.9,2.9-0.5,8.1,0.4,11.2C57,46.4,57.5,47.3,57.9,48.4z M83.3,57.4
		c2.2-1.6,5.4-2.7,8.8-2.7c4.1,0,5.9,1.3,8.8,2.7c1.3-3.8,1.8-10.4,0.4-14.2c-3.4-9.2-15.7-8.3-18.5,0.2
		C81.8,46.6,82,54.2,83.3,57.4z M31.6,137.5c-0.5-5.6-0.9-11.9-1.3-17.6c-0.2-3.8-1.3-14.6-0.7-17.5c1.3-8.3,7.9-10.4,15.1-13
		c4.1-1.4,10.1-2.7,7.7-10.4c-1.6-5-9-9.4-4.9-20.5c1.8-4.9,3.2-10.4,1.1-15.8c-1.6-3.8-6.5-7.4-12.1-5.6c-5.2,1.8-7,6.5-7,11.7
		c0.2,7,3.4,10.1,3.2,15.3c-0.2,8.6-5.2,6.5-12.4,11.2c-0.5,0.4-0.9,0.5-1.4,1.1c-2.2,1.8-3.4,3.1-4.9,6.7c-3.2,8.1,0,24.5,2.5,32.2
		c1.6,4.9,3.8,8.6,6.1,12.4C24.4,129.8,30.2,136.8,31.6,137.5z"/>
</g>
</svg>
