<?xml version="1.0" encoding="utf-8"?>
<!-- Generator: Adobe Illustrator 23.0.3, SVG Export Plug-In . SVG Version: 6.00 Build 0)  -->
<svg version="1.1" id="Layer_1" xmlns="http://www.w3.org/2000/svg" xmlns:xlink="http://www.w3.org/1999/xlink" x="0px" y="0px"
	 viewBox="0 0 184.3 184.3" style="enable-background:new 0 0 184.3 184.3;" xml:space="preserve">
<style type="text/css">
	.st0{fill:#FEFEFE;}
</style>
<g id="Layer_x0020_1">
	<g id="_2429222434496">
		<path d="M106.6,153.6c0.7-10.3-0.2-17.3,1.6-28.1c2.5-15.1-1.6-7.2-2.3-24.8l-7.7-1.4c-3.8,63.7-26.6,65.2-30.8,0.4
			c-9.2-0.2-23.9,7.9-28.8,12.1c-5.4,4.7-4.7,7.2-3.6,16c0.7,7,1.8,10.4,5.2,14.9C51.7,157.4,84.3,157.6,106.6,153.6z"/>
		<path d="M148.2,155.8c2.9-4.5,0.9-21.1,0-26.6c-0.5-3.6-2.3-9.2-1.6-12.6c0.9-3.8,12.1-32.6-11.5-25.2c-8.1,2.5-3.8,1.4-11-0.4
			c-22.9-5.2-10.3,23.9-10.1,26.6c0.4,4.1-2.9,19.3-3.1,26.6c-0.2,6.8-0.7,13,3.2,11c8.5-4,9.4-27.4,16-27.5
			C137.6,127.9,137.6,154.4,148.2,155.8z"/>
		<path d="M56.6,65.1c2.9,2.5,0.9,3.8,4.9,3.8c0-5-0.2-11.9,2.2-15.5c11.5-6.1,13.3,9.7,25.2,2c4.1-2.7,6.8-5.9,11.2-0.4
			c2.9,3.8,1.8,9.9,3.8,14c5.6-0.7,2.2-2.9,5.8-4c2.3,11.3-2.7,8.1-5.2,15.1c-9,24.8-33.8,22.5-41.9,1.3
			C58.9,72.5,54.3,76.6,56.6,65.1z M81.1,30.3h4.3l0.2,6.1c1.6,0.2,4.7-0.2,6.3,1.3v2.2c-1.6,1.4,0.4,0.2-1.8,0.9l-4.5,0.4l-0.2,6.3
			l-4.1-0.4L81.1,41h-5.9l-0.4-4.3l6.3-0.4V30.3z M110.1,37.7c-9.5-10.8-33.3-11.9-47.9-4.7c-5.6,2.9-6.1,2.5-5.9,9.7
			c1.3,31-2.9,13.5-3.4,25.4c-0.2,2.5,0.2,5.2,1.1,7.2c2.9,6.7,1.4-1.6,6.1,9c9,20.9,35.5,25.2,47-2.2c2.2-5,4.9-3.2,5.9-9.2
			c1.1-5.6,0.5-9.5-3.2-11.2L110.1,37.7z"/>
		<path class="st0" d="M81.1,36.5l-6.3,0.4l0.4,4.3h5.9l0.2,6.1l4.1,0.4l0.2-6.3l4.5-0.4c2.2-0.7,0.2,0.5,1.8-0.9v-2.2
			c-1.6-1.3-4.7-0.9-6.3-1.3l-0.2-6.1h-4.3V36.5z"/>
	</g>
</g>
</svg>
