<?xml version="1.0" encoding="utf-8"?>
<!-- Generator: Adobe Illustrator 23.0.3, SVG Export Plug-In . SVG Version: 6.00 Build 0)  -->
<svg version="1.1" id="Layer_1" xmlns="http://www.w3.org/2000/svg" xmlns:xlink="http://www.w3.org/1999/xlink" x="0px" y="0px"
	 viewBox="0 0 184.3 184.3" style="enable-background:new 0 0 184.3 184.3;" xml:space="preserve">
<g id="Layer_x0020_1">
	<g id="_2429232020928">
		<path d="M46.7,86c3.2-6.7,7.4-12.8,10.8-19.6l18.9,0.2l-0.2,19.6L46.7,86z M118.3,66.3l8.8,0.2l-0.2,9.5h9.9v8.6l-9.7-0.2v9.9
			l-8.6,0.2v-9.7h-9.7l0.2-8.6l9.7-0.2v-9.7H118.3z M28.5,119.1c0.7-1.1,0.2,0,0.9-1.8c0.7-2.2-0.2,0.2,0.4-1.3
			c5-16.9,26.6-13,27.2,3.1h71.5c0.7-13.9,16.2-18.4,24.1-9.4c0.9,0.9,2,2.3,2.5,4l1.4,4.7c0-0.2,0.2,0.4,0.2,0.5
			c6.7,0.2,12.8,1.6,13.9-4.9l0.2-54.4c-19.8-1.6-79.4,1.1-88.6-0.2c-4-0.5-0.4-1.3-5.9-1.6c-9.9-0.5-7,1.6-13.3,1.6
			c-2.3,0-4.7,0-7,0c-1.3,2.9-3.1,5.4-4.9,8.3c-5.2,9-8.8,17.6-16.2,21.2c-4.7,2.3-13.5,7-16.2,9.7c-4.5,4.7-5.2,11.5-5.4,20h15.3
			V119.1z"/>
		<path d="M54.6,123.2c3.1-7.6-2.5-14-7.6-15.7c-7.4-2.5-13.5,2.2-15.3,7.2C26.2,130.2,48.5,138.2,54.6,123.2z"/>
		<path d="M154,122.5c3.8-16.9-19.1-21.1-23.4-7C125.7,131.9,150.5,137.1,154,122.5z"/>
		<path d="M70.8,57.3l6.3,0.4c-1.3-3.1-0.4-3.2-2.9-4.7C70.6,54.5,72.8,54.8,70.8,57.3z"/>
	</g>
</g>
</svg>
