<?xml version="1.0" encoding="utf-8"?>
<!-- Generator: Adobe Illustrator 23.0.3, SVG Export Plug-In . SVG Version: 6.00 Build 0)  -->
<svg version="1.1" id="Layer_1" xmlns="http://www.w3.org/2000/svg" xmlns:xlink="http://www.w3.org/1999/xlink" x="0px" y="0px"
	 viewBox="0 0 184.3 184.3" style="enable-background:new 0 0 184.3 184.3;" xml:space="preserve">
<style type="text/css">
	.st0{fill:#FFFFFF;}
</style>
<g id="Layer_x0020_1">
	<path class="st0" d="M92.6,92.4c-2.9,1.4-2,3.1-4.5,2.7c-2.5-0.4-2.2-2.3-1.8-4c1.4-4.9,3.2-7.2,7-7.2C101.1,94,95,98.5,92.6,92.4z
		 M72.5,128.4c-1.1,0.9-25.6,11.7-30.6,10.3c-14.8-4.3-20.3,14.9-9,20.7c6.3,3.2,12.4,0.2,14.9-4c2.5-4.1,0-2.7,5.4-4.7
		c7.2-2.5,36.7-14.8,39.1-14.8c2,0,26.5,9.9,30.4,11.5c9.7,3.8,11.2,2.7,13.7,7.6c2.2,4,8.1,7.6,14.6,4.3
		c12.4-6.1,5.4-24.7-7.9-21.1c-4.1,1.1-3.6,1.1-7.7-0.5c-5.6-2.2-20.5-7.4-23.4-9.4l22.9-9.2c4.5-1.8,3.8-2,8.3-0.7
		c14.6,4,19.8-16.6,7-21.4c-5.9-2.3-11,0.4-14,5.8c-1.6,3.1-3.2,2.7-6.8,4.1c-12.1,4.7-10.6,2.7-13.9,8.1
		c-5.6,9.5-15.3,8.8-23.8,8.8c-8.3,0-17.5,0.4-23-8.8c-3.2-5.4,0.2-3.1-13.7-8.3c-4-1.4-4.5-0.9-6.5-4.3c-2.5-4.7-7.9-8.1-14.9-5.2
		c-11.7,4.9-6.5,24.8,7.6,21.4c6.8-1.6,4-0.9,16,3.6C60.9,123.6,69.6,126.4,72.5,128.4z M105.6,63.3c4-1.1,10.8,1.3,12.4,4.1
		c2.5,4.1,2,11.5-4,11.9C98.7,80,94.6,66.5,105.6,63.3z M74.4,63.4c11.3-1.8,14.8,12.8,0.4,15.3c-6.7,1.3-10.4,1.1-10.3-6.7
		C64.7,65.4,68.5,64.3,74.4,63.4z M71.7,95.7c2.5,3.6,2.9,8.8,5,13.1c2.9,5.6,7.9,4.7,14.8,4.5c22.3,0,13.1-6.8,20.3-17.6
		c5-0.5,19.1,1.6,20.7-12.1c0.7-6.1,0.4-26.3-1.1-31.9c-7.9-30.6-47-34.4-65.7-20.3C50,43.1,49.1,63.3,50.9,83.1
		C52.3,97.3,66.9,95.1,71.7,95.7z"/>
</g>
</svg>
