<?xml version="1.0" encoding="utf-8"?>
<!-- Generator: Adobe Illustrator 23.0.3, SVG Export Plug-In . SVG Version: 6.00 Build 0)  -->
<svg version="1.1" id="Layer_1" xmlns="http://www.w3.org/2000/svg" xmlns:xlink="http://www.w3.org/1999/xlink" x="0px" y="0px"
	 viewBox="0 0 184.3 184.3" style="enable-background:new 0 0 184.3 184.3;" xml:space="preserve">
<g id="Layer_x0020_1">
	<g id="_2429343160032">
		<path d="M26.4,112.4c0,4.1,2.7,5.9,6.7,5.9h87.1c1.3,2.5,5.2,13.1,7,14.4l19.1,9.5c1.3,0.5,3.6,2,5,2c2.2,0,4.7-2,4.7-4.1
			c0-3.8-1.3-4.1-4.5-6.1l-14.6-8.8c-1.8-0.9-1.3-0.9-2-2.9c-0.9-2.2-1.6-4.5-2.3-6.8c-1.3-3.2-4.9-15.1-6.7-16.9
			c-0.7-0.7-1.8-1.8-3.1-1.8c-4.7,0-8.8,0.5-13.3,0.5l-23,1.3c-7,0.2-8.6,0.9-15.7,2c-2,0.4-40,6.8-41.4,7.4
			C27.8,108.8,26.4,110.3,26.4,112.4z"/>
		<path d="M26.4,157.8h6.1v-18.7c0-4.5,2.9-3.4,8.3-3.4c2.5,0,5,0,7.4,0c7.2,0,5.4-0.2,5.4,17.5h6.1c0-1.8-0.2-14.9,0.2-16
			c0.5-1.8,2-1.6,4.1-1.6h38c6.7,0,5.4-0.2,5.4,11.2c0,3.6,0,7.4,0,11h6.1c0-1.4,0.4-2.7,0.2-3.8c-0.2-1.4-0.4-2,0-3.8
			c0-0.7,0-6.8-0.2-7.4c-0.2-1.8,0.2-2.5,0.2-3.8c-0.2-4.1,0.7-3.4,8.8-3.4c-2-2.9-1.6-2.2-3.1-5.6c-0.5-1.3-2.2-5.6-2.9-6.1
			c-1.1-1.1-6.7-0.5-8.5-0.5H37c-3.6,0-5.6-0.5-7.9,1.1c-0.9,0.5-1.4,1.3-2,2.3c-0.4,0.9-0.5,1.4-0.5,2.2v29H26.4z"/>
		<path d="M60.8,97.3c4.9-1.3,12.1-2.2,17.5-3.1c2.2-0.5,3.6-0.5,6.5-0.5c0.5-0.9,1.6-7,2.3-9.4l2.3-6.5c0.4-0.7,0.5-1.4,0.9-2.2
			c0.5,0.5,0.7,0.7,1.1,1.6l2.9,5.4c2,3.4,2.5,3.4,6.7,4.5c4,1.1,15.5,4.3,19.4,4.3c2.9,0,6.5-5.2,2.5-9c-1.3-1.3-9.2-3.6-11.2-4.1
			c-1.4-0.4-6.8-1.8-7.4-2.9l-6.5-13.9c-1.8-3.4-3.4-6.5-7-8.5c-4-2.2-8.6-1.4-12.2,1.3C72.3,59.2,66,74.3,63.7,82.7
			c-0.7,2.3-1.1,4.5-1.6,7C61.7,91.6,60.8,95.3,60.8,97.3z"/>
		<path d="M87.2,37.9c0,6.8,5.2,12.1,11.3,12.1c4.1,0,6.3-0.9,9.2-3.6c7.6-7.7,0.9-20-7.7-20h-0.2h-0.5c-2.2,0-3.4,0-5.6,1.3
			c-0.9,0.5-2.5,1.6-3.2,2.3C88.7,32,87.2,34.9,87.2,37.9z"/>
		<path d="M134.2,101.8c0,4,0.5,6.5,3.4,9.4c6.8,6.8,20.2,3.2,20.2-9c0-5.9-5.6-11.3-10.8-11.3c-4,0-6.5,0.4-9.4,3.4
			C136,96.1,134.2,98.9,134.2,101.8z"/>
		<path d="M134.8,153.3h6.5v-7.2c0-0.9-2-1.6-2.9-2.2c-0.9-0.5-2.5-1.4-3.6-1.6V153.3z"/>
	</g>
</g>
</svg>
