<?xml version="1.0" encoding="utf-8"?>
<!-- Generator: Adobe Illustrator 23.0.3, SVG Export Plug-In . SVG Version: 6.00 Build 0)  -->
<svg version="1.1" id="Layer_1" xmlns="http://www.w3.org/2000/svg" xmlns:xlink="http://www.w3.org/1999/xlink" x="0px" y="0px"
	 viewBox="0 0 184.3 184.3" style="enable-background:new 0 0 184.3 184.3;" xml:space="preserve">
<style type="text/css">
	.st0{fill:#FFFFFF;}
</style>
<g id="Layer_x0020_1">
	<path class="st0" d="M90.2,136.5c-1.3-0.2-1.8-0.5-2.9-1.1c0,0-0.2,0-0.2-0.2c-1.4-0.9-2.5-1.6-3.6-2.9l-0.2-0.2
		c-0.2,0-0.2-0.2-0.2-0.2c-0.4-0.7-0.9-2.2-0.9-2.9c0-1.8,0.7-3.6,2-4.7l1.6-1.1c0.4-0.2-0.2,0,0.2-0.2l3.6-1.4L90.2,136.5z
		 M64.6,59.3c2.5-0.9,0.4-1.8,3.8,0.2c0.2,0.2,0.4,0.2,0.5,0.2c0.4,0.2,0.7,0.2,1.3,0.4c1.4,1.3,11.5,0.9,13.1-0.2L83,39.5
		c-4.1,0-7.9-0.9-10.6-3.1c-0.5-0.4-0.9-1.3-1.1-1.8c-0.2-0.4-0.2-0.9-0.2-1.3c-0.2-2.2-0.4-5.6-1.1-6.7c-0.5-0.7-0.7-1.3-1.6-1.4
		c-1.3-0.4-4.3,0-5.6,0.4l-2.3,0.7c-2.7,0.9-5.2,2.2-7.9,2.9l-9.4,2.9c-3.8,0.5-7.6,0.7-11.3,0.9c-4.1,0.2-8.1,0-12.2,0
		c-3.6,0-8.5-0.4-11.3,0.9c-0.2,2.5,1.3,5.2,3.1,7l0.9,0.7c0.2,0.2,0.4,0.2,0.5,0.4l1.6,0.9c1.1,0.5,4.3,1.1,5.6,1.1
		c1.1,0,2.2,0,3.2-0.2c0,0.7,0,1.8,0.4,2.5c0.7,2,1.3,3.1,3.1,4.3l0.2,0.2c0.7,0.4,0.5,0.2,1.3,0.5c0.4,0.2,0.5,0.2,1.1,0.4
		c0.9,0.2,1.6,0.2,2.5,0.4c0.9,0,2.7-0.2,3.6-0.5c0.5-0.2,0.5-0.2,1.3-0.4l0.2,0.2c0.2,0.5,0-0.2,0,0.2c0.4,1.1,0.9,2.3,1.8,3.2
		c0.2,0.2,0.2,0.2,0.4,0.4l0.9,0.9c0.7,0.5,1.1,0.9,2.2,1.1c1.6,0.4,2.9,0.9,4.9,0.2c0.9-0.2,1.6-0.2,2.2-0.5c0.4-0.2,1.8-0.9,2-0.9
		c0.9,1.3,0.5,1.1,1.6,2.3l0.2,0.2l0.2,0.2c0,0,0,0,0.2,0.2l0,0c0.5,0.5,1.1,1.1,1.6,1.4c1.3,0.7,2.3,1.3,4,1.3
		C59.7,61.3,63.3,60.4,64.6,59.3z M117.5,58.4h0.7c0.5,0.7,0,0.2,0.5,0.5c0.4,0.2,0.5,0.4,0.9,0.5l2.2,1.1c1.6,0.5,5.8,0.9,6.8,0
		c0.5-0.2,0.5-0.2,0.7-0.5l2.7-2.3c0.4-0.4,0.2-0.4,0.5-0.7l0.9-1.4l1.8,0.9c0.7,0.4,1.4,0.4,2.2,0.7c1.6,0.5,4.5,0.2,5.9-0.5
		l3.2-3.2c0,0,0-0.2,0.2-0.2c0.4-0.7,0.5-1.6,1.1-2.3c2,0.5,2.5,0.9,4.9,0.9c2-0.2,3.6-0.7,5.2-1.6l1.1-0.9c0.4-0.4,0.2-0.2,0.4-0.4
		c1.1-1.4,2-4.3,1.4-5c0.5-0.4,0.9,0,2.5,0c1.8,0,4.5-0.4,6.1-1.1l1.3-0.5c1.6-0.9,2.7-1.8,3.6-3.4c0.4-0.5,0.4-0.4,0.5-1.1
		c0-0.2,0.2-0.4,0.2-0.5c0.4-0.7,1.1-2.5,0.5-3.2c-1.4-1.1-8.6-0.9-11.2-0.9c-7.9,0-16,0.2-23.8-0.9c-0.9-0.2-1.4-0.4-2.3-0.5
		c-0.4,0-0.9-0.2-1.3-0.2l-2.3-0.7c-0.7-0.2-0.5-0.2-1.1-0.5c-0.4-0.2-0.9-0.2-1.3-0.4l-7.9-2.9c-1.3-0.4-3.2-1.3-4.7-1.4
		c-1.6-0.2-4-0.7-5.2,0.5l0,0l-0.2,0.2c-2.2,2.7,0,7.7-2.7,10.3c-0.2,0.2-0.2,0.2-0.5,0.4c-1.8,1.6-4.9,2.5-7.2,2.7
		c-0.9,0-2,0-2.9,0.2L101,59.8c0.2,1.3,8.5,1.3,9.2,1.1c0.7,0,1.6-0.2,2.3-0.2c0.4,0,0.7-0.2,1.1-0.2
		C114.6,60.2,117,59.3,117.5,58.4z M88.2,31c-0.4,0.7-0.2,4.1-0.2,4.9l0.2,4.9c-0.4,1.3,0,10.6,0.2,12.8c0,3.4,0.9,35.6,0.7,37.1
		c-0.5,0-1.1-0.2-1.6-0.2c-0.7-0.2-0.7-0.2-1.6-0.4c-0.5,0-1.3-0.2-1.8-0.2c-0.9-0.2-0.9-0.2-1.6-0.4c-1.1-0.2-2.5-0.2-3.4-0.5
		l-4-1.1c-1.1-0.4-2-0.5-2.9-1.1l-1.8-1.1c-0.7-0.7-1.3-1.6-1.4-2.5c-0.2-1.3,0.2-3.2,0.9-4.1c0.5-0.7,1.3-1.3,2.2-1.8l2.2-0.7
		c0.7-0.2,0.9-0.2,1.6-0.4c0.5-0.2,0.7-0.2,1.4-0.2c1.8-0.2,3.2-0.2,4.3-1.6c1.8-2.3,1.8-5-0.7-6.7c-2.9-1.8-6.8,0-9.7,0.7
		c-0.9,0.2-0.7,0.2-1.4,0.5l-2,0.9c-0.5,0.4,0,0.2-0.5,0.4l-1.6,1.1c0,0,0,0-0.2,0.2L63,74.2c-0.7,1.3-0.7,1.4-1.3,2.7
		c-1.3,2.7-1.1,5.4-0.5,8.3c0.2,1.3,1.1,3.1,2,4.1l1.4,1.6l0,0l2,1.6c1.3,0.7,2.7,1.3,3.6,1.6l5.9,1.6c0.2,0,0.5,0,0.9,0.2l0.9,0.4
		l-1.3,0.9c0,0,0,0-0.2,0c0,0,0,0,0,0.2l-1.3,1.3c0,0,0,0-0.2,0l-1.4,2.2c-1.3,2.3-2,7-0.7,9.7c0.2,0.2,0.2,0.4,0.4,0.9
		c0.4,0.9,0.9,1.6,1.6,2.2l1.4,1.3c0.2,0.2,0.4,0.2,0.7,0.5c2,1.6,5.6,3.1,7.7,3.6c-0.2,0.2-0.2,0.2-0.4,0.2l-0.9,0.7
		c-0.9,0.5-1.6,1.4-2.3,2.2c-0.4,0.4-0.2,0.4-0.5,0.7c-3.2,4.3-2.3,9.9,1.8,13.3l0.2,0.2h0.2l0.9,0.7c1.3,0.7,3.2,1.8,4.5,2.2
		l-2.2,1.4c-0.4,0.2-0.2,0.2-0.5,0.4l-1.3,1.6l-0.9,1.6c-1.1,3.1,0.9,5.2,2.9,7l0.9,0.5h0.2l1.8,1.1c0.2,0.2,0.4,0.2,0.5,0.2
		c0.2,0.2,0.2,0.2,0.2,0.2l-0.7,0.5c-0.5,0.4-0.4,0.2-0.7,0.7c-1.3,1.6-0.9,1.1-1.6,3.1c-0.7,2.2-0.2,3.8,1.3,5.4l1.1,0.9
		c0.2,0.2,0.2,0.2,0.4,0.4l1.4,0.9c0,2.9-0.2,5.2,0.9,7.4c1.3,0.2,1.1,0,1.6-0.9c0.4-0.7,0.4-1.1,0.4-2c0.2-6.1-0.5-4,2.3-6.3
		c1.1-0.9,2.2-2.5,2.2-4.1c0-0.9-0.4-2.5-0.7-3.1l-0.9-1.4c-1.8-2.2-1.4-0.7-1.6-1.6c0.5-0.2,2.2-0.9,2.7-1.3l0.9-0.5h0.2
		c0,0,0,0,0.2-0.2l0.2-0.2c0.7-0.5,0.9-0.7,1.4-1.4c0.5-0.7,1.3-1.8,1.3-2.7c0-0.7,0-1.4-0.2-2.2l-0.5-1.1c-0.2-0.4,0-0.2-0.2-0.4
		c0-0.5-0.4-0.9-0.7-1.3l-0.9-0.9c-0.7-0.5-1.4-0.9-2-1.4l-0.2-0.2l5.4-3.1c0.2-0.2,0.2-0.2,0.2-0.2c0.2-0.2,0-0.2,0.4-0.4
		c0.7-0.5,1.3-1.3,1.8-2.2c1.1-2.3,1.8-4.5,1.3-7.2c-0.2-0.5-0.2-0.2-0.4-0.7l-3.2-4.9c-0.7-0.5-1.6-0.9-2.2-1.6l5.6-2.2
		c0.4-0.2,0.2,0,0.4-0.2c0,0,0,0,0.2-0.2l1.8-1.3c1.4-1.1,2.3-2.2,2.7-2.5l0.4-0.4v-0.2c0.5-0.9,0.5-0.9,0.7-1.3
		c0.7-1.3,0.9-3.4,0.7-5.2c-0.2-2.5-0.5-4.1-2-6.1c-1.1-1.6-2.3-2.3-3.8-3.6l1.8-0.4c1.8-0.2,6.8-1.6,8.3-2.5
		c0.2-0.2,0.4-0.2,0.5-0.4l0.9-0.5c0.2,0,0.2-0.2,0.4-0.2l0.2-0.2c0,0,0,0,0.2,0c0,0,0,0,0-0.2l2.5-2.3c3.2-3.8,3.2-10.4,0.5-14.8
		c-0.9-1.6-1.6-2.3-3.1-3.6c-1.1-0.9-2.5-1.8-3.8-2.2l-1.3-0.5c-0.4,0-0.5-0.2-0.9-0.2c-0.4-0.2-0.5-0.2-0.7-0.2
		c-0.5-0.2-0.9-0.4-1.6-0.4c-2.5-0.4-5-1.3-7.4,0.5l-1.6,0.2l-0.2,0.4c-0.2,0.2-0.2,0.5-0.2,0.7c-0.4,1.8,0,3.4,1.3,4.7l0.2,0.2
		c1.8,1.6,4,1.1,5.8,1.6c2.3,0.9,1.1-0.2,4.3,1.6c0.9,0.5,1.3,1.1,1.6,2.2c0.4,0.9,0.7,2.2,0.5,3.4c-0.2,1.3-1.1,2.2-2,2.7
		c-1.1,0.7-2.2,1.3-3.6,1.6c-0.7,0.2-0.9,0.4-1.4,0.5c-0.9,0.2-1.6,0.2-2.5,0.5l-7.4,1.3c-0.9,0.2-0.9,0.2-1.6,0.4
		c-0.5,0.2-1.3,0.2-1.8,0.2c0-8.3,0.5-17.1,0.5-25.6c0-3.6,0.5-23.2,0.4-26.1c0.4,0,0.2-0.7,0.2-1.4c0-0.7,0-1.4,0-2.2
		c0-1.4,0.2-3.1,0-4.7l0.2-4.5c1.1-0.9,1.4-1.1,2.2-2.2c0.2-0.4,0.2-0.2,0.4-0.5c0.4-0.5,0.4-0.5,0.5-1.3c0.4-1.6,0.9-2.7,0.2-4.5
		c-0.4-0.9-0.5-1.8-1.3-2.5v-0.2l-1.6-1.6L94.3,12c-1.3-0.4-3.8-0.4-4.9,0c-0.5,0.2-0.2,0.2-0.5,0.2l-1.4,0.7
		C87.3,13,87.3,13,87.3,13c-1.4,0.9-2.5,2.5-2.9,4.3c-0.2,1.1-0.5,2-0.2,3.1c0.2,0.4,0.2,0.9,0.4,1.4l1.6,2.9c1.3,1.6,1.6,0,1.6,3.1
		L88.2,31z M93.6,163.9l0.2-8.8c0.2,0.2,0.2,0,0.5,0.2c1.3,0.9,2.2,2.5,2.2,4.1c0,1.1-0.5,2-1.1,2.7
		C94.1,163.7,94.3,163.2,93.6,163.9z M90.7,155.1l0.2,9c0,0-0.2-0.2-0.2,0l-0.9-0.7c-1.8-1.6-2.5-4.1-1.1-6.5l1.3-1.4
		C90.3,155.1,90.2,155.1,90.7,155.1z M98.6,145c0,0.5,0.2,0.9,0.2,1.4c-0.2,0.7-0.2,0.7-0.4,1.1c-0.2,0.4-0.2,0.5-0.5,0.7l-1.4,1.4
		c0,0,0,0-0.2,0l-1.1,0.7c-0.2,0.2-0.2,0.2-0.4,0.2c-0.7,0.4-0.4,0.4-1.1,0.5V150l0.2-8.6c0.9,0,2.2,0.7,2.9,1.3l1.1,0.9
		C98.3,144.3,98.1,144.4,98.6,145z M90.5,149.3v2c-1.3-0.4-2.9-1.8-3.8-2.7c0,0,0,0-0.2,0c-1.8-1.8-0.9-3.4-0.9-4l1.6-1.8
		c0.2-0.2,0,0,0.2-0.2l1.3-0.7c0.5-0.4,0.7-0.4,1.4-0.5L90.5,149.3z M94.5,121.6c0.5-0.2,2.2,0.7,2.7,0.9l0.9,0.5c0,0,0,0,0.2,0
		c0,0,0,0,0.2,0l2.2,1.8c0.4,0.5,0.5,0.5,0.9,1.3c0.5,1.3,0.7,1.3,0.7,2.9c-0.2,3.4-2.9,5.2-5.6,6.7c-0.9,0.5-0.4,0.4-2,0.9
		L94.5,121.6z M94.5,115.5c0-3.1,0.2-5.6,0.4-8.3c0-2.7,0-5.8,0.2-8.5c2.2,0.2,6.7,1.4,8.5,2.7l1.4,1.3c1.8,1.8,2.2,5.2,1.3,6.7
		c-1.3,1.8-3.2,3.1-5,4L94.5,115.5z M89.8,115.5c-0.5,0-3.4-0.9-4-1.3c-0.4-0.2-0.4-0.2-0.9-0.4c-1.3-0.5-2.3-1.1-3.4-1.6
		c-0.5-0.4-0.2-0.2-0.7-0.5l-1.1-0.9c-0.5-0.5-1.4-1.6-1.4-1.6c-1.1-1.8-0.4-5.8,1.8-7.4c1.8-1.3,5.2-2.5,7.2-2.9
		c0.7-0.2,1.4-0.4,2-0.4c0.2,2.9,0.2,5.8,0.2,8.6C89.4,110.1,89.8,112.6,89.8,115.5z"/>
</g>
</svg>
