<?xml version="1.0" encoding="utf-8"?>
<!-- Generator: Adobe Illustrator 23.0.3, SVG Export Plug-In . SVG Version: 6.00 Build 0)  -->
<svg version="1.1" id="Layer_1" xmlns="http://www.w3.org/2000/svg" xmlns:xlink="http://www.w3.org/1999/xlink" x="0px" y="0px"
	 viewBox="0 0 184.3 184.3" style="enable-background:new 0 0 184.3 184.3;" xml:space="preserve">
<style type="text/css">
	.st0{fill:#FFFFFF;}
</style>
<g id="Layer_x0020_1">
	<g id="_2429232018336">
		<path class="st0" d="M64.7,64.3c-0.2-0.2-0.2,0-0.2-0.4c0-0.2,0-0.5,0-0.7l0.2-7.6c1.4-0.2,8.3-0.2,9.2,0.2c1.1,0.5,2.5,0.4,4.3,2
			c1.3,1.3,1.8,1.8,2.5,3.6c1.1,2.9,0.7,7.7,0.7,11.5c0,8.1,0,16.4,0,24.5h-7V70.6c0-1.6,0.4-4.5-2.3-4.1c-1.8,0.2-1.1,1.1-1.1,1.1
			c-0.7,1.6-0.4,39.4-0.4,44.5c-1.3,0.4-24.5,0.4-25.7,0c0-5,0.4-43-0.4-44.5c0.2-0.5,0.5,0-0.2-0.7c-0.4-0.5-1.6-0.5-2.5,0
			c-1.1,0.7-0.9,2.2-0.9,3.8c0,4.3-0.4,25.6,0.2,26.6h-7.2c0-8.1,0-16.4,0-24.5c0-5.8-1.3-13.9,5-16.4c0.7-0.4,1.8-0.4,2.3-0.7
			c0.9-0.4,7.7-0.4,9.2-0.2c0.2,1.3,0.4,9.2-0.2,9.5c-0.4,0.5-0.4,0.7-0.9,1.3c-0.4,0.5-0.7,0.7-1.3,1.3c-1.3,1.3-1.3,1.1-1.4,3.2
			c-0.2,1.4-0.2,2.7-0.2,4.5c0,2.7-0.2,2.2,0.9,3.8c2.7,0,2.2-1.1,2.2-5.2c0-2.5-0.5-3.6,2.2-5.4c3.2,2.2,2,3.8,2.2,9
			c0,1.6,0.5,1.8,2.2,1.8c1.1-1.6,0.9-0.9,0.9-3.8c0-1.6,0-3.2-0.2-4.5c-0.4-2.7-0.4-2.2-2.5-4.3c-0.5-0.7-0.5-0.9-1.1-1.4
			c-0.4-0.5-0.4-8.3-0.2-9.5h8.3l0.2,7.9c0,0.7,0.2,0.5-0.2,0.9c-2.7,1.8-1.1,5,1.6,5C65.8,69.4,67.4,66.1,64.7,64.3z M30.5,63.3
			v34.6h1.8c0,3.4,3.4,5.9,6.3,5.4c1.6-0.2,1.8-0.9,2.9-1.3c-0.5,0.9-0.2,12.1-0.2,14h2v36c0,2.7,3.1,5.6,5.8,5.6h1.6
			c2.7,0,5.6-3.1,5.6-5.6v-36h3.6v35.6c0,3.2,2.9,6.1,5.6,6.1h1.3c2.7,0,5.8-3.1,5.8-5.6v-36h2v-13.5c0-0.9,0,0-0.2-0.5
			c1.1,0.2,2.9,2.2,5.9,0.7c1.6-0.7,3.2-2.7,3.2-4.9h2V65.8c0-4.9-1.3-7.2-3.4-9.9c-0.7-0.9-2.5-2.2-3.8-2.9
			c-1.4-0.7-3.6-1.3-5.6-1.3H42.9C35.9,51.9,30.5,57.9,30.5,63.3z"/>
		<path class="st0" d="M114.2,109.9v47.9h39.6v-49.9c0-0.9-2.3-3.1-4.3-3.1h-30.2C116.7,104.8,114.2,107.4,114.2,109.9z"/>
		<path class="st0" d="M128.8,62.2v29.9h-19.6c-2,0-3.8,1.3-4.7,2.3c-1.4,2-1.3,2.7-1.3,5.9v28.8c0,2,0.7,4,2.2,5
			c1.3,1.1,3.2,2,5.2,1.4v-23c0-4.3,0.5-8.5,4.9-10.6c2.2-1.1,4-1.1,6.8-1.1c5.2,0,10.4,0,15.5,0c-0.2-0.5-0.5-1.3-0.9-1.8
			c-0.5-0.9-0.5-1.6-0.9-2.3c-0.5-0.9-0.2-28.6-0.2-32.2h3.8V96c-0.2,1.8,1.1,3.2,2.2,4c1.1,0.9,3.1,1.4,4.9,0.9
			c1.6-0.5,2.7-1.4,3.4-2.7c0.7-1.4,0.7-3.2,0.7-5.4V62.2c-1.3-10.3-11.3-13.1-17.8-8.3C131.1,55.7,128.8,58.8,128.8,62.2z"/>
		<path class="st0" d="M139.8,48.7c2.7,0,5.8-1.4,7.6-3.1c2.2-1.8,3.1-4.3,3.4-7.2c0.2-1.4-0.2-3.2-0.5-4.5c-1.3-3.8-5.6-7.4-9-7.4
			h-2.3c-1.6,0-2.9,0.4-4.7,1.3c-8.1,4.7-7,16.4,1.1,19.8C136.3,48,138.5,48.7,139.8,48.7z"/>
		<path class="st0" d="M57,26.5c-1.6,0-2.9,0.4-4.7,1.3c-5,2.9-7,9.2-4.5,14.6c0.5,1.1,1.6,2.5,2.3,3.2c9.9,9.2,24.8-3.8,16-15.1
			c-1.4-1.8-4.9-3.8-7-3.8H57V26.5z"/>
		<path class="st0" d="M70.8,67.6c-0.5,0.4-0.5-0.9-0.5,2.3v41.9H45.1V68.3c-0.2-0.7,0.2-0.2-0.5-0.5c0.5,1.6,0.4,39.4,0.4,44.5
			c1.3,0.4,24.5,0.4,25.7,0C70.6,107.2,70.3,69.2,70.8,67.6z"/>
		<path class="st0" d="M136.3,97.1v-32h3.2v29.5c0,2.2,0,1.4,0.4,1.8V64.7h-3.8C136,68.5,135.8,96,136.3,97.1z"/>
		<path class="st0" d="M109.2,92.1h19.6V62.2c-0.2,0.2-0.2-0.2-0.2,0.5v29.2C127.9,91.9,109.9,91.5,109.2,92.1z"/>
		<path class="st0" d="M53.9,65.2v-9.4h7.9v8.5c0.4-0.4,0.2-0.2,0.2-0.9l-0.2-7.9h-8.3C53.5,56.8,53.4,64.7,53.9,65.2z"/>
		<path class="st0" d="M50.8,65.2c0.5-0.4,0.4-8.3,0.2-9.5c-1.4-0.2-8.3-0.2-9.2,0.2h8.6h0.2v9.4H50.8z"/>
		<path class="st0" d="M64.7,64.3v-8.5h9c-0.9-0.4-7.7-0.4-9.2-0.2l-0.2,7.6c0,0.2,0,0.5,0,0.7C64.7,64.3,64.5,64.2,64.7,64.3z"/>
	</g>
</g>
</svg>
