<?xml version="1.0" encoding="utf-8"?>
<!-- Generator: Adobe Illustrator 23.0.3, SVG Export Plug-In . SVG Version: 6.00 Build 0)  -->
<svg version="1.1" id="Layer_1" xmlns="http://www.w3.org/2000/svg" xmlns:xlink="http://www.w3.org/1999/xlink" x="0px" y="0px"
	 viewBox="0 0 184.3 184.3" style="enable-background:new 0 0 184.3 184.3;" xml:space="preserve">
<g id="Layer_x0020_1">
	<path d="M107.1,116.7c1.1-0.4,3.8,3.1,4.5,3.8l4.3,4.3c1.4,1.6,2.9,2.9,4.3,4.5l3.2,3.2c3.2,2.9,6.7,6.7,9.7,9.7l2.3,2.2
		c1.8,2,4.1,3.6,2.9,4.9c-3.2,3.4-2.9,2.3-6.1-0.9c-0.4-0.4-0.7-0.5-1.1-0.9c-1.4-1.4-2.9-2.9-4.3-4.3l-21.6-22
		c-1.6-1.6-1.1-1.8,0.7-3.6C106.7,116.7,106.4,116.9,107.1,116.7z M57.2,143.4c-0.5,3.2-3.8,6.3-7.7,6.1c-3.8-0.2-6.7-3.6-5.6-7.9
		c0.7-3.2,3.8-6.3,7.7-5.9C55.3,135.8,58,139.2,57.2,143.4z M77.4,89c-0.2,0.2-0.2,0.2-0.2,0.2l-29.7,36.9c-2.2,2.5-4,4.9-5.9,7.4
		c-1.8,2.3-4,4.9-4.3,9c-1.4,12.8,13.9,18.2,22,8.8c2.2-2.3,4.1-5,6.1-7.4c9-11,17.8-22.7,27-33.7c0.4-0.5,2.7-3.1,2.9-3.8
		c-1.3-1.6-2.9-3.1-4.3-4.5L78.5,90.1C77.9,89.7,77.8,89.4,77.4,89z M147.8,46c-0.4,0.4-1.3,1.4-1.6,2l-8.3,10.4
		c-3.6,4.3-6.1,8.3-12.8,9.7c-8.5,1.6-16.2-4.1-16.7-12.6c-0.5-7.2,3.2-11.2,6.8-15.7c1.3-1.4,2.2-2.7,3.2-4.1l6.5-8.1
		c-4.1-0.9-10.4,0.9-13.9,2.3c-10.6,4.7-19.3,15.8-19.3,29c0,2,0.2,4,0.5,5.9c0.4,2,1.4,4.3,1.4,4.9c-0.9,0.7-3.8,4.5-4.7,5.6
		c-1.6,1.8-3.1,3.8-4.7,5.8c0.4,0.5,1.6,1.8,2.2,2.3c0.4,0.4,0.7,0.7,1.1,1.1c2.2,1.8,3.6,3.4,5.6,5.6c1.4,1.6,2.9,2.9,4.5,4.5
		c0.9,0.9,3.6,4,4.5,4.3c0.5-1.1,1.8-2.5,2.7-3.6l7-8.6c0.5-0.5,0.9-1.3,1.4-1.6c1.1-0.4,8.1,2.3,18.9-3.2c4.1-2.2,7.2-5.2,9.7-8.3
		c2.5-2.9,4.7-7.2,5.9-11.9c0.7-2.5,1.1-5.2,0.9-8.1C149,51.7,148.5,47.4,147.8,46z M117.5,110.4c2,2.2,4.1,4.5,6.5,6.5
		c1.8,1.6,6.5,6.7,8.6,8.8c1.4,1.4,2.9,2.9,4.3,4.3c1.6,1.6,7.4,7.7,8.5,8.6c0.7,0.5,2,1.6,0.9,2.7c-2.7,2.5-2.2,2.9-4.9,0.4
		c-0.7-0.7-1.6-1.4-2.2-2.2l-8.6-8.8c-0.5-0.7-1.6-1.4-2.2-2.2l-10.8-11c-1.4-1.4-2.9-2.9-4.3-4.3c-0.7-0.7-1.8-1.4-0.9-2.5
		c0.4-0.4,2-2,2.3-2.2C115.9,108.4,117,109.9,117.5,110.4z M95,121.8c0.9,0.9,3.1,0.9,4,1.8c0.9,1.1,1.8,2,2.9,2.9l17.1,17.3
		c2,2,3.8,4,5.8,5.9c0.9,0.9,2,1.8,2.9,2.9c2.5,2.9,8.3,5,12.8,4.1c5-0.9,10.6-6.3,11.5-11.3c0.5-3.6-0.2-6.7-1.6-9.4
		c-1.4-2.5-3.6-4.7-5.2-6.3l-25.6-25.7c-0.9-0.9-0.9-2.9-1.4-4.3c-0.4,0.2-0.2,0-0.4,0.2c-0.2,0.2-0.2,0.2-0.2,0.2l-3.6,3.6
		c-0.9,0.9-3.4,3.6-4.3,4c-0.4-0.4-0.7-0.7-1.1-1.1s-0.9-0.5-1.3-1.1c-0.7-0.7-1.4-1.4-2.2-2.3L87.5,84.9c-1.4-1.6-2.9-3.1-4.3-4.7
		c-0.4-0.4-0.9-0.5-1.3-1.1c-3.1-3.1-5.4-5.8-9-9l-3.2-3.4c-1.6-1.6-2.9-3.1-4.5-4.7c-0.7-0.7-1.4-1.6-2.2-2.2l-6.7-6.7
		c-2-2-4.1-7.6-5.2-8.3c-1.4-1.1-11.9-9.4-12.6-9.7l-3.1,3.1c-0.7,0.7-2.7,2.3-3.1,3.1l9.5,12.8c1.1,1.1,6.5,3.4,8.3,5.2
		c3.1,3.1,5.8,6.1,8.8,9.2l2.2,2.2c1.6,1.8,5.2,5.6,6.7,6.8c1.1,0.9,6.7,6.8,8.8,9l8.8,9c2.7,2.7,6.3,6.8,8.8,9.2
		c0.5,0.4,0.7,0.5,1.3,1.1c0.4,0.4,0.7,0.7,1.1,1.1l6.5,6.8C102.4,114.7,96.3,120.5,95,121.8z"/>
</g>
</svg>
