<?xml version="1.0" encoding="utf-8"?>
<!-- Generator: Adobe Illustrator 23.0.3, SVG Export Plug-In . SVG Version: 6.00 Build 0)  -->
<svg version="1.1" id="Layer_1" xmlns="http://www.w3.org/2000/svg" xmlns:xlink="http://www.w3.org/1999/xlink" x="0px" y="0px"
	 viewBox="0 0 184.3 184.3" style="enable-background:new 0 0 184.3 184.3;" xml:space="preserve">
<style type="text/css">
	.st0{fill:#020202;}
</style>
<g id="Layer_x0020_1">
	<g id="_2429380130576">
		<path class="st0" d="M65.8,171.6c5.9-0.2,4.3-4.1,10.3-4.7c3.8,2.2,6.8,8.8,14,4.7c2.5-1.6,3.2-3.4,7.6-1.8
			c3.2,1.3,3.8,3.1,8.3,2.3c6.5-1.1,8.3-5.8,16.7-3.8c3.6,0.9,5,2,8.1-0.2c5.2-3.6,1.6-2.2,8.6-2.5c1.3-14.4-8.1-44.8-12.1-57.8
			c-2.5-8.5-5.8-17.3-9.2-25.4c-5.2-13.1-3.4-16.2-1.1-29.9c-7,0.9-6.3,3.6-10.6,6.8c-6.8,5-21.6,4.9-28.6,0.4
			c-2.3-1.6-2.3-2.3-4.5-4.3c-2.2-2-2-1.3-7-3.1c2.2,23.6,4.9,14-2.9,36c-7.7,22.1-15.1,42.8-18.2,67c-0.9,6.5-1.4,14.4,7.7,11.5
			c2.7-0.9,4.9-2.9,7.7-1.3C62.9,166.8,63.1,169.6,65.8,171.6z"/>
		<path class="st0" d="M57.1,26.2l4.3,1.4c0.2,14,4,12.1,6.7,13.9c1.6,1.1,1.8,2.3,3.1,4.3l5-0.5c1.8,3.4,2,5.6,4.9,7.6
			c4.3,2.9,16.2,2.7,20.5,0c4-2.3,3.2-3.6,5.4-7.7l5.4,1.1c4.9-12.4,6.7,2.9,9.5-18.7c3.4-1.3,3.6-0.5,4.5-4.3c0.9-5,2.2-3.2,2-7.4
			c-0.9-2-16-7.2-17.3-2.5l-0.7,5.2c-2.5,20.7-32.2,23.4-38,2.7c-1.6-6.1,1.4-10.1-5.6-9.7c-2,0.2-10.8,2.3-12.1,3.4
			c-2.9,2.5-0.9,2.9,0.7,4.9C57.3,22.2,56.6,22.9,57.1,26.2z"/>
	</g>
</g>
</svg>
