<?xml version="1.0" encoding="utf-8"?>
<!-- Generator: Adobe Illustrator 23.0.3, SVG Export Plug-In . SVG Version: 6.00 Build 0)  -->
<svg version="1.1" id="Layer_1" xmlns="http://www.w3.org/2000/svg" xmlns:xlink="http://www.w3.org/1999/xlink" x="0px" y="0px"
	 viewBox="0 0 184.3 184.3" style="enable-background:new 0 0 184.3 184.3;" xml:space="preserve">
<g id="Layer_x0020_1">
	<g id="_2429622811440">
		<path d="M149.1,140.7l-16.9-0.2c-1.8-2.2-0.9-12.6-0.7-15.5h17.8c0.4,2.9,0.2,5.6,0.2,8.3L149.1,140.7z M107.7,125.4H125
			l-0.2,15.3h-17.6L107.7,125.4z M100.4,140.7H83.4c-1.4-2.3-0.7-12.8-0.5-15.5l17.8,0.2c0.4,2.7,0.2,5.4,0.2,8.3
			C101.1,135.8,101.6,138.5,100.4,140.7z M58.6,125.4h18l-0.5,15.3H58.6V125.4z M51.8,140.5l-16.9,0.2c-0.9-2-0.5-5.2-0.5-7.9
			c0-2.5-0.2-5,0.2-7.7l17.8,0.2c0.2,2.7,0.2,5.4,0.2,8.1C52.7,138.5,53.4,139.4,51.8,140.5z M28.2,156h127.6c0.4-9.2,0-18.7,0-27.9
			c0-17.8,1.8-16.2-4.7-22.7c-8.8-8.8-18.2-18.9-27.2-26.8v30.8c-4.1-1.8-31.3-30.1-31.9-30.8l-0.2,31.1c-7.6-5.8-26.3-28.1-31.9-31
			v30.6c-2.5-0.9-30.6-29.3-31.9-31L28.2,156z"/>
		<path d="M47.3,93v-43H34.5c0,9.2-0.2,18.4,0,27.4c0,5.8,3.2,6.7,8.6,12.2C44.9,91.5,45.1,91.9,47.3,93z"/>
		<path d="M52.5,96.4c0,4,2.5,5.8,5,7V72.3l7.4,6.8l0.2-29.2l-2.7-0.2h-9.9V96.4z"/>
		<path d="M69.2,32.7c-9.4,0.5-6.3,3.8-8.8,9.5c-0.9,1.8-1.6,2.2-0.9,4.7c3.6,0.9,5.2-1.8,8.1-2.7c4.3-1.3,3.8,1.8,8.5,2
			c5,0.2,5.2-3.1,7.6-4.1c3.2-1.6,4.3,0.2,8.3-3.6c1.8-1.8,4.7-5.4,1.3-7.6c-4.9-2.9-2.9,3.1-8.1-0.9c-4-2.9-3.6-0.9-8.5-1.4
			C71.7,28.2,70.7,29.1,69.2,32.7z"/>
	</g>
</g>
</svg>
