<?xml version="1.0" encoding="utf-8"?>
<!-- Generator: Adobe Illustrator 23.0.3, SVG Export Plug-In . SVG Version: 6.00 Build 0)  -->
<svg version="1.1" id="Layer_1" xmlns="http://www.w3.org/2000/svg" xmlns:xlink="http://www.w3.org/1999/xlink" x="0px" y="0px"
	 viewBox="0 0 184.3 184.3" style="enable-background:new 0 0 184.3 184.3;" xml:space="preserve">
<style type="text/css">
	.st0{fill:#FFFFFF;}
</style>
<g id="Layer_x0020_1">
	<path class="st0" d="M122.8,122.3c-1.6-14.6,20.5-16.9,21.6-2.2C145.3,134.2,124.4,135.8,122.8,122.3z M74.4,123.7
		c-4,13.9-24.3,8.1-20.9-5.8c1.3-4.9,7-9.5,13.7-7.4C71.7,112,76.4,117.1,74.4,123.7z M124.8,62.9c19.1,0,13.5-1.4,21.1,7L159,85
		c3.2,4.3,4.3,2.2,4.3,9h-44.5L124.8,62.9z M34.1,113.1l-1.3,1.1c-1.4,1.6-1.1,1.4-1.1,5.2l13.3,0.2l0.4,3.6
		c-0.2,9.4,9.7,17.6,20,16.9c10.6-0.7,17.6-8.8,17.8-20l31.5-0.2l0.5,4.1c0.4,19.8,37.3,24.1,37.4-4.1h20c1.8-8.8-1.8-4-2.3-7.7
		c0-6.7,0-13.3,0-20c0-5.9-0.5-5.6-7.7-13.3l-19.1-22.3l-23-0.2c-1.8,0.9-0.5-0.2-1.6,1.6c-1.1,2.2-6.7,37.8-8.6,43.4l-76,0.4v11.3
		H34.1z"/>
	<path class="st0" d="M89.7,63.8c1.4,0.9,0.9,0.7,0.9,5.9c0,5.6,0.7,18.2-0.5,21.8C86.4,92,86.8,92,85.2,91L85,63.8H89.7z M62,67.9
		l-0.2,22.9c-1.1,1.6-2.3,0.9-4.7,0.7c-1.1-3.2-0.9-19.6-0.2-23.8C58.9,67.2,59.6,66.8,62,67.9z M72,65.6h4.1v25.7
		c-7.6,0-4.9,0.4-5.2-19.6C70.8,68.8,70.2,67.2,72,65.6z M42.5,69.7l5-0.2v21.8l-5-0.2V69.7z M101,50.1c-16.6,1.1-56.9,6.3-76.5,8.8
		c-5.8,0.7-7.6,7-13.3,15.8c2.2,3.8,10.4,11.7,13.9,15.3c9.7,10.4,8.6,7.9,22,7.9c19.6,0,39.2-0.2,58.9,0l9.5-46.8h13.1v-6.7
		C98.3,44.3,104.1,42.5,101,50.1z"/>
	<polygon class="st0" points="115.1,123.9 114.5,119.8 83,119.9 114,119.9 	"/>
</g>
</svg>
