<?xml version="1.0" encoding="utf-8"?>
<!-- Generator: Adobe Illustrator 23.0.3, SVG Export Plug-In . SVG Version: 6.00 Build 0)  -->
<svg version="1.1" id="Layer_1" xmlns="http://www.w3.org/2000/svg" xmlns:xlink="http://www.w3.org/1999/xlink" x="0px" y="0px"
	 viewBox="0 0 184.3 184.3" style="enable-background:new 0 0 184.3 184.3;" xml:space="preserve">
<g id="Layer_x0020_1">
	<g id="_2429343226800">
		<path d="M42.6,55.5c0.7,4.9,0,15.5,0.2,21.1c0.2,9.2-0.4,60.7,0.2,64.8c0.9,6.1,5.9,9.2,11.9,9.2c7.2,0.2,14.4,0,21.6,0
			c14.2,0.2,29,0.4,43.2,0c0,4.9,0.2,7.4-5,7.4c-4.3,0-8.5,0-12.8,0c-8.3,0-16.7-0.2-25,0H39c-4.7-0.4-3.6-5.2-3.6-9.2
			c-0.2-28.8,0.5-59.4,0-87.8C35.2,55.4,37.4,55.5,42.6,55.5z M57.4,41c0.2,8.1-0.5,81.2,0.2,85.7c0.9,5.9,5.4,9.2,12.1,9.4
			c10.1,0.2,60.1-0.4,64.6,0.2c0,8.8-0.5,7-17.6,7.2H66.4c-16.6-0.2-16.4,2.2-16.4-9c-0.2-29.3,0.2-59,0-88.2
			C50,41.1,52.1,40.1,57.4,41z M119.5,31.6c1.8,1.1,15.3,14.9,17.8,17.6c1.1,1.1,2,1.8,2.9,2.9c1.4,1.4,2.3,1.8,3.1,3.4
			c-4,0-7.9,0-11.7,0c-2.9,0-9.2,0.9-11-1.1c-1.8-2-1.1-7.7-1.1-10.6C119.5,39.7,119.6,35.6,119.5,31.6z M111.7,51.9
			c1.6,1.3-0.7,3.2,4.1,8.1c2.2,2.2,4.9,3.1,9,2.9c8.1,0,16,0,24.1,0v56c-0.2,9.9,0.9,9.7-9,9.9H74.3c-11.2,0-9.7,1.4-9.5-18.4
			c0.2-24.8-0.2-50.2,0-75.1c0-9.9,0.2-9,9.9-9c5.4,0,34.7-0.4,37.6,0.2v18c-3.2,0.5-25,0.2-31.1,0.2c-3.4,0-7-0.2-7.2,3.4
			c-0.4,3.8,2.9,4,6.3,4c3.6,0,7,0,10.6,0C97.7,51.9,104.7,51.9,111.7,51.9z M57.4,33.4c-2.2,0.5-4.5,0-6.7,0.5
			c-3.6,0.9-6.5,3.8-7.6,7.2c-0.7,2.2-0.5,4.7-0.5,7c-4.3,0-8.6,0-11.7,3.4c-2.9,3.2-3.1,7-2.9,12.4c0.2,9.4-0.4,87.5,0.2,91.8
			c1.4,11.3,14,9.5,21.1,9.5h61c5.6,0,9.2,0.2,12.8-2.7c3.2-2.5,3.8-6.3,3.8-11.7c2.9-0.5,7.4,0.7,11.3-3.2c0.7-0.7,2.2-2.9,2.7-4.5
			c0.7-2.2,0.5-4.7,0.5-7c4.3,0,8.6,0,11.7-3.4c3.1-3.4,2.9-6.8,2.9-12.4c0-10.1,0-20.3,0-30.6c0-9.7,0.5-21.1,0-30.6
			c-0.2-2.5-5-6.7-7-8.3c-7.9-7.7-23.2-22.9-30.6-30.6c-1.6-1.8-3.6-1.4-6.3-1.4H73.9c-5.8,0-9-0.4-12.8,2.7
			C57.9,24.2,57.4,28,57.4,33.4z"/>
		<path d="M76.6,88.7c-2.2,0.5-4,2.9-2.3,5.4c1.3,2.2,3.8,1.6,6.7,1.6c8.3,0,50,0.5,52.2-0.2c2.2-0.5,3.4-3.2,2.2-5.4
			c-1.3-2.2-4-1.8-6.7-1.8H93.7C91,88.5,78.4,88.1,76.6,88.7z"/>
		<path d="M99.5,114.8c0.5,3.8,5.4,2.9,8.8,3.1h24.1c3.4,0,8.1,0.2,7.4-4.3c-0.5-4-4.9-3.2-8.6-3.1c-4,0-8.1,0-12.1,0s-8.1,0-12.1,0
			C103.3,110.4,98.8,110.3,99.5,114.8z"/>
		<path d="M76.6,66.5c-3.6,0.9-3.8,5.2-1.3,6.7c2,1.1,31,0.7,32,0.4c3.2-0.9,3.6-5.2,0.9-6.7c-1.6-0.9-7.9-0.5-10.4-0.5
			C94.4,66.5,79.1,66,76.6,66.5z"/>
		<path d="M73.9,115.1c0.9,3.6,6.8,2.7,11,2.7c2.5,0,10.3,1.3,9-4.7c-0.9-3.8-7-2.7-11-2.7C78.8,110.4,72.7,109.5,73.9,115.1z"/>
		<path d="M122.3,66.7c-4.3,1.1-3.6,6.8,0.9,7.2c2,0.2,12.4,0.2,13.7-0.2c3.4-1.1,3.8-6.7-1.1-7.2C134.2,66.3,123.6,66.3,122.3,66.7
			z"/>
	</g>
</g>
</svg>
