<?xml version="1.0" encoding="utf-8"?>
<!-- Generator: Adobe Illustrator 23.0.3, SVG Export Plug-In . SVG Version: 6.00 Build 0)  -->
<svg version="1.1" id="Layer_1" xmlns="http://www.w3.org/2000/svg" xmlns:xlink="http://www.w3.org/1999/xlink" x="0px" y="0px"
	 viewBox="0 0 184.3 184.3" style="enable-background:new 0 0 184.3 184.3;" xml:space="preserve">
<g id="Layer_x0020_1">
	<path d="M114,135.5c-1.8-0.7-3.4-1.8-5.2-2.7c-1.6-0.9-3.4-1.8-5-2.7c-3.2-1.8-6.5-3.6-9.9-5.4c-3.2-1.6-6.7-3.4-9.9-5.2
		c-6.7-3.8-5.2-0.7-5.2-9.7c1.4,0.2,14.8,8.1,17.6,9.4c1.8,0.9,16.6,9.2,17.8,9.5L114,135.5z M61.3,79.1l46.4,26.5
		c1.1,0.5,6.1,3.1,6.3,4v15.3l-35.1-19.1c-2.2-1.3-13.9,0.2-17.6-0.4V79.1z M78.7,68.2c1.6,0.5,3.2,1.8,4.7,2.7
		c1.6,0.9,2.9,1.6,4.3,2.5l17.6,10.4c10.4,5.9,8.6,3.6,8.5,11.3l-9-5c-5.4-3.1-22-12.4-26.3-15.3L78.7,68.2z M63.4,63.5
		c0.7-1.1,1.3-1.3,2.2-2l10.8-9c0.7-0.5,1.6-1.3,2.3-1.8c0.9-0.7,1.3-1.1,2.2-1.8c6.1,4,4.7,2.5,9.2,2.2c0.4,0.9,2,3.2,2.7,4.1
		c2,2.9,18.5,26.8,18.9,28.1c-1.6-0.7-29-17.3-32-19.1C77.7,62.9,66.7,63.7,63.4,63.5z M87.2,7.7H85v9.7c-0.4,0.5-0.2,0.4-0.7,0.7
		c-1.4,0.9-4.7,2-4.7,6.1c-0.2,4.3,2.5,5.8,5,7c0,4.7-2.9,4.1-4.3,6.5c-1.8,2.7-1.6,5.8-0.5,8.8c-1.3,1.3-3.1,2.5-4.5,3.8l-14,11.3
		c-2.5,2.3-2.3,1.8-6.7,1.8c-3.6,0-24.1-0.4-24.7,0.2c-0.7,0.5,0-0.5-0.2,0.5v2.7c0,2.2-0.4,9.7,0.2,10.6c0.5,0.9,0.9,0.7,1.8,1.3
		c0.9,0.4,1.4,0.7,2.3,1.1c1.4,0.7,2.9,1.4,4.3,2c1.6,0.7,7.9,3.4,8.6,4.3l-0.2,19.1L30,105.4c0,0-0.2,0-0.2,0.2l-0.2,14.2
		l124.7,56.7l0.2-19.6l-37.8-19.8v-6.5l37.8,20.5l0.2-4.3l-30.2-16.2c-2-1.1-4.1-2.3-6.1-3.2c-1.6-0.7-1.8-0.7-1.6-2.7
		c0.2-4-0.2-11.2,0.2-13.9c5,2.2,35.6,20.5,37.6,21.1v-12.8l-37.8-21.6v-6.7c3.1,1.3,36,21.8,37.8,22.1l0.2-3.6l-28.4-17.5
		c-1.6-0.9-8.8-5-9.4-5.9l-2.9-4.5c-1.1-1.6-2-2.9-3.1-4.7L98.5,58.6c-1.3-1.8-5.8-7.9-6.1-9.4c1.3-1.4,2.5-2.5,2.7-5.2
		c0.4-3.6,0.2-5.2-3.4-4.5c-1.1,2-0.2,9.2-6.1,7c-1.3-0.5-2.2-1.3-2.5-2.5c-1.8-5.4,5-3.4,5.6-13.1C93,29.5,94.8,23,91,19.6
		C86.3,15.4,87.2,22.6,87.2,7.7z"/>
</g>
</svg>
