<?xml version="1.0" encoding="utf-8"?>
<!-- Generator: Adobe Illustrator 23.0.3, SVG Export Plug-In . SVG Version: 6.00 Build 0)  -->
<svg version="1.1" id="Layer_1" xmlns="http://www.w3.org/2000/svg" xmlns:xlink="http://www.w3.org/1999/xlink" x="0px" y="0px"
	 viewBox="0 0 184.3 184.3" style="enable-background:new 0 0 184.3 184.3;" xml:space="preserve">
<style type="text/css">
	.st0{fill:none;}
</style>
<g id="Layer_x0020_1">
	<path d="M112.7,54.4c-2.9,0.7-49.3,0.5-57.1,0.4c-4.9,0-3.2-3.4-2.5-4c1.3-0.9,41.4-0.5,48.6-0.5C108.5,50.4,115.2,49.2,112.7,54.4
		z M122.9,60.3l4.7-0.9l3.1-0.2c0.4-2.3,0-39.6,0-45.4c0-8.5,0.2-7-8.5-7c-20.3,0-41,0.4-61.2,0c0.2,4.3,0,8.8,0,13.1
		c0,2.5,0.5,11-0.7,12.2c-1.8,2-21.2,0-25.6,0.9c0.4,15.8,0,31.9,0,47.7c0,4.9-0.5,46.3,0.5,47.3c1.3,1.3,8.8,0.7,11.2,0.7
		c14,0,80.8,0.7,83.9-0.5c0.5-2,0.7-5.6,0.4-8.1c-14.6-0.4-26.5-10.1-29.7-23.9c-1.4-6.7-0.4-15.1,2.9-21.1c1.4-2.5,3.6-5.8,5.8-7.7
		c1.3-1.1,2.2-1.8,3.8-3.1C115.9,62.8,119.9,60.7,122.9,60.3z M97.5,63.6H93l-39.2-0.2l-0.7-0.2l-0.9-0.9c0.4-3.8,2-3.1,5.8-3.1
		c2.9,0,5.6,0,8.5,0c13.5-0.2,28.8,0,42.8,0c3.4,0,5.6,1.8,2.9,4.1l-5.9,0.2h-4.5H97.5z M103.3,67.9c0.7,0.5,1.6,1.3,1.1,2.9
		c-0.4,1.3-1.4,1.3-3.1,1.4H74.9l0,0h-5.6H56.7c-1.4,0-3.4,0.4-4.1-1.1c-0.9-1.6,0.2-2.5,1.1-3.2H103.3z M36.3,28.6h20.3V8.3
		L36.3,28.6z M56.3,46.1c-6.5,0-3.8-4-2.3-4.3h28.3c6.3,0,23.2-0.4,28.8,0c3.6,0.2,3.2,4.3-0.4,4.3H56.3z"/>
	<path d="M131.7,62.8c14.8,0,26.8,12.1,26.8,26.8c0,14.8-12.1,26.8-26.8,26.8s-26.8-12.1-26.8-26.8C104.9,74.9,117,62.8,131.7,62.8z
		 M119.3,89.3l6.5,11.2l19.6-25.2l2.5,1.8l-21.1,27l-1.4,1.8l-1.1-1.8l-7.6-13.1L119.3,89.3z"/>
	<polyline class="st0" points="118.1,90 125.6,103.3 146.7,76.3 	"/>
</g>
</svg>
