<?xml version="1.0" encoding="utf-8"?>
<!-- Generator: Adobe Illustrator 23.0.3, SVG Export Plug-In . SVG Version: 6.00 Build 0)  -->
<svg version="1.1" id="Layer_1" xmlns="http://www.w3.org/2000/svg" xmlns:xlink="http://www.w3.org/1999/xlink" x="0px" y="0px"
	 viewBox="0 0 184.3 184.3" style="enable-background:new 0 0 184.3 184.3;" xml:space="preserve">
<style type="text/css">
	.st0{fill:#FFFFFF;}
</style>
<g id="Layer_x0020_1">
	<path class="st0" d="M127,64c0.5-0.4,4.9-5.9,6.1-6.8c-3.2,2.2-6.7,6.1-9.4,8.6c-1.4,1.3-2.3,2.5-3.8,4c-7.6,8.5-13.7,18-18.4,28.4
		l-2.3,5.6c-0.2,0.4-0.2,0.5-0.2,0.9l-0.5,0.9c-0.9-15.1,2.5-31.7,7.7-43.9c5.2-12.4,10.8-20.2,19.3-29.5c0.5-0.5,0.9-1.1,1.4-1.6
		c-3.2,2.3-6.8,5.8-9.4,9l-6.1,7.7c-0.5,0.7-1.4,1.8-1.8,2.5c0-1.4,0.4-2.9,0.4-4.3c0.2-3.6-0.2-7.4-0.9-10.8l-0.4-1.6
		c-0.2-0.2-0.2-0.2-0.2-0.4c-0.2,5,0,9.7-0.7,14.8c-0.4,2.2-0.7,4.3-1.3,6.5c-0.5,2.2-1.4,3.4-2.3,5.2c-2.7,5-5.2,10.6-7,16.2
		c-0.4,1.1-1.6,5-2,5.6c-2-4.1-8.6-14-11.2-17.6c-1.6-2.3-2-2.2-2.2-5c-0.2-2.3-0.2-4.7,0.2-7c0.5-6.5,2-9.5,2.2-12.1
		c-0.9,1.4-2.3,6.5-2.9,8.5c-0.9,3.8-1.3,5.9-1.4,10.1l-5.4-6.8c-0.9-1.3-1.8-2-2.9-3.2c-0.7-0.9-2.2-2.7-3.1-3.2
		c0.5,0.9,1.4,2,2.2,2.9l8.3,11.9c5.2,7.7,11.3,17.1,14.4,25.9c0.5,1.6-0.2,12.1-0.4,14.2c-0.7-0.4-1.8-1.6-2.5-2.3
		c-4-4-8.1-7.6-12.4-11.2c-5.2-4.3-10.3-8.1-16-12.1c-0.9-0.7-1.8-1.3-2.9-1.8c-1.1-0.7-2-1.3-2.9-1.8c-0.9-0.5-1.8-1.3-2.9-1.8
		c-0.9-0.5-1.8-1.3-2.9-1.6c1.6,1.3,3.2,2.7,5,4c0.7,0.5,1.8,1.4,2.5,2c2.2,2,4.9,4,7.4,5.9c1.6,1.3,3.4,2.5,4.7,4
		c-2.5-0.4-4.9-0.7-7.6-0.9c-1.8,0-6.3,0-7.7,0.5c3.8,0.4,16.2,1.1,18.7,3.2l7,6.3c3.6,3.2,7.6,7.2,10.8,11.3
		c0.9,1.1,1.3,1.3,1.3,3.1c0,2.9,0.2,5.6,0.4,8.5c-5.8-0.4-11.3-0.2-17.1,0.2c-2.7,0.2-13.7,1.6-15.3,2.5c1.3,0,2.9-0.2,4.3-0.2
		c9-0.5,19.6-0.7,28.1,1.4c0,2.7-0.2,5.6-0.2,8.3l-1.1,39.6c-0.2,5.2-0.5,10.8-0.5,16h15.3c0-2.9-0.7-6.7-0.9-9.7
		c-0.5-4.9-4.3-37.3-4.1-38c0.2-0.7,4-4.9,4.9-5.8c3.4-3.6,7.7-6.3,12.2-8.6c-2.9,0.4-7.7,2.5-10.1,4c-1.4,0.7-3.1,1.8-4.1,2.9
		c-0.7,0.5-1.3,1.1-1.8,1.6l-1.6,1.8c-0.5-3.4-0.7-7-1.1-10.6c-0.2-2.5-0.5-2.5,0.2-4.9c0.5-1.4,0.9-2.9,1.4-4.3
		c3.2-8.8,6.7-16,10.6-24.1c0.9-1.8,1.3-2.2,2.5-3.2c5.8-4.7,11.9-7,19.6-9.4c-2.2-0.4-8.1,1.1-10.1,1.6c-1.4,0.5-2.9,1.1-4.3,1.8
		c-1.3,0.5-2.7,1.8-3.8,2.2c0.5-1.3,2-3.2,2.7-4.7c0.5-0.7,0.9-1.4,1.4-2.2c0.4-0.5,1.1-1.4,1.3-2.2l4-5.2
		C126.3,64.9,126.8,64.5,127,64z M118.7,123.7c0.2,1.8,1.3,4.3,2.2,5.8c2.2,3.4,5,5.2,9.4,5.9c1.6,0.2,5.6,0,6.8-0.5
		c0-1.6-1.1-3.6-1.6-4.9C131.3,122.8,125,122.7,118.7,123.7z M64.3,59.7c-0.5,0.5-0.5,1.8-0.5,2.3c0,0.4,0,0.9,0,1.4
		c0,0.2,0,0.5,0,0.5l0.2,0.5c-0.2,1.1,0.7,3.4,1.3,4.3c1.8,3.2,5.9,6.7,8.8,7.2c1.3-1.4,1.8-6.8,1.3-9.2c-0.5-2.2-2.3-5.9-4.1-6.7
		c-0.2-0.7-0.5-0.5-1.1-1.1c-0.5-0.4-0.7-0.5-1.3-0.7c-0.5-0.4-2.2-1.3-2.7-1.3c-0.7-0.5-0.9-0.5-1.4,0.5
		C64.5,58.2,64.2,58.9,64.3,59.7z M119.1,61.1l1.1,3.1c0.9-0.2,2.9-1.3,3.6-1.8l0.4-0.4c0.9-0.4,2.5-2.2,3.1-3.1
		c3.6-4.9,2.5-9.5,0.7-14.8c-1.4,0.2-3.4,1.6-4.3,2.3C119.2,50.1,117.6,55.5,119.1,61.1z M125.4,120c0.4,0.2,0.7,0.2,1.1,0.2
		c4.1,0.2,6.7-0.9,9-2.9c1.4-1.3,4.1-4.3,4.9-6.8c-4.1-1.6-8.1-2.5-12.6-0.5c-3.1,1.4-7,6.3-7.2,8.3
		C120.9,119.1,124.3,120.3,125.4,120z M67.9,119.2l-0.2-0.2c0,0-0.9-0.2-2,0c-1.6,0.2-3.2,0.5-4.7,1.1c-0.7,0.2-0.4,0-0.7,0.5
		c-0.5,0.2-2.2,1.3-2.5,1.6c-0.5,0.4-1.1,0.7-1.3,1.4c-1.3,0.7-2.5,4.5-3.1,6.1c-0.2,0.5-0.4,1.6-0.4,2.2v0.2v0.2
		c2.5,0.9,7.2,0,9.4-1.1c2-0.9,4.9-3.4,5.6-5.6l1.6-4.1l0.4-2.2C69.2,119.2,68.7,119.2,67.9,119.2z M83.4,101.4
		c-0.2-0.2,0-0.2-0.2-0.2c-0.5-0.4-1.4-0.7-2-0.9c-2.7-0.7-5.9-0.7-8.6,0c0,2,1.3,5,2.5,6.7l1.3,1.4c0,0,0,0,0,0.2
		c0,0,0.2,0.2,0.2,0c0,0,0,0,0.2,0.2c0.7,1.6,4.3,3.1,5.8,3.4c2.5,0.7,5.8,0.5,8.3-0.2c-0.4-2.5-1.3-4.5-2.5-6.3
		C87.4,104.3,84.9,101.6,83.4,101.4z M48.1,81.3c-0.7-0.5-4.7-0.4-5.9,0c-1.8,0.5-3.1,1.1-4.3,2c-2.2,1.6-5,5.6-5.4,7.7
		c1.4,0.5,2.3,0.9,4,1.3c4,0.9,7.7-0.2,10.3-2.2c2-1.6,5.2-5.6,5.4-7.7C51.4,81.8,49.2,81.1,48.1,81.3z M113.1,17.9
		c2.2-0.9,4.7-4.1,5.2-6.7c0.7-3.1-0.5-8.3-2.3-9.4c-2.5,0.9-4.7,4.1-5.2,6.7C110.1,11.4,111.7,16.5,113.1,17.9z M18.8,80.2
		c0.9,1.1,2.2,1.8,3.6,2.5c3.1,1.4,6.7,1.3,9.5-0.5c1.1-0.5,2.9-2,3.2-2.9c-0.9-1.8-5.2-3.8-8.6-3.6C23.7,76,19.5,78.7,18.8,80.2z
		 M129,16.8c1.1,0.2,3.2-0.9,4.1-1.4c4.3-2.5,5.8-7.4,4.5-12.6c-2.2,0-5.8,2.2-7.4,4.3C128.4,9.8,128.4,13.2,129,16.8z M78.4,67.8
		c-2.3,3.6-1.8,9.7,2.5,13c0.7,0.5,2.7,2,4,2.2c0.7-2.9,2.2-5.8,0.2-9.7C83.6,70.8,80.2,67.8,78.4,67.8z M132.6,105
		c0.9,0.7,3.4,1.3,4.9,1.3c3.4,0.2,6.1-1.6,8.1-4c0.9-1.3,1.3-2.5,2.2-3.8c-0.5-0.5-1.4-0.7-2.2-0.9c-2.5-0.5-5.4-0.5-7.6,0.9
		C135.6,99.6,133.5,102.1,132.6,105z M110.2,70.8c1.8-0.4,4-2.7,5-4.1c0.4-0.5,0.7-1.3,0.9-2c1.4-4.1-0.2-6.7-1.3-9.5
		c-1.3,0.2-2.9,1.6-3.8,2.5C107.2,61.5,108.3,66.3,110.2,70.8z M143,30.5c1.6,2,4.7,4,8.3,4c2.5,0,4.7-1.3,6.5-2.7
		c0.5-0.4,1.1-0.9,1.6-1.3c-0.2-0.5-0.4-0.5-0.7-0.9c-2-1.8-4.7-3.1-7.7-3.1C147.9,26.4,143.9,28.9,143,30.5z M141.4,116.7
		c2.7,1.6,5.8,2.9,9.7,1.6c2.7-1.1,4.9-3.4,6.3-5.8c-1.6-1.8-7-2.5-9.7-1.6C145,111.9,142.1,114.6,141.4,116.7z M49.2,55.9
		c-0.2,3.6,1.1,6.7,3.1,8.6c2.7,2.7,5.6,2.5,8.8,3.1c0.4-3.6-1.4-7-3.1-8.6C56.4,57.3,52.1,55.2,49.2,55.9z M78.2,25.8
		c1.6-1.3,2.9-6.3,1.8-9.5c-0.9-2.7-4-6.1-5.8-6.5c-1.8,1.8-2.9,6.3-1.8,9.5C73.2,21.5,76,24.9,78.2,25.8z M28.3,111.7
		c1.1,2.5,4,4.7,6.8,5.2c3.8,0.9,6.7-1.1,9.4-2.5c-0.5-1.3-2.2-2.5-2.9-3.2c-1.1-0.9-2.3-1.6-4.1-2
		C33.4,108.4,31.2,110.1,28.3,111.7z M64.5,28.5c1.3-5.2,0-9.5-4.3-12.4c-0.9-0.5-3.1-1.6-4.3-1.6c-1.8,4.9,0,9.7,4.3,12.4
		C60.9,27.3,63.4,28.5,64.5,28.5z M52.6,41.5c-0.4-1.1-2.2-2.9-2.9-3.2c-4.9-3.6-8.8-2.3-13.5,0.5c1.3,2.2,4,4.7,7,5.2
		C47.2,44.7,50.3,43.1,52.6,41.5z M132,62.9c1.1,2,5.2,4,8.3,4c1.8,0,3.4-0.7,4.7-1.4c1.1-0.7,2.7-1.8,3.2-2.7
		c-0.4-0.9-2.3-2.2-3.4-2.7C139.9,57.5,134.4,59.7,132,62.9z M147.7,81.4c0,1.3,1.1,3.4,1.8,4.3c3.2,4.5,7.4,4.7,12.8,3.4
		c-0.2-1.4-1.1-3.2-1.8-4.1c-1.8-2.5-4.3-4.1-7.7-4.3C151.1,80.5,148.9,80.7,147.7,81.4z M149.1,58c0.9,1.8,5.2,4,8.6,3.6
		c2.9-0.2,7-3.1,7.7-4.5c-1.6-1.8-5.2-3.6-8.6-3.4C153.8,53.9,150.2,56.4,149.1,58z M147.5,106.5c2,0.5,2.9,0.9,5.2,0.9
		c4.7-0.2,8.3-4,9.5-8.3c-3.2-1.4-7-1.3-9.7,0.4C150.7,100.7,147.9,103.9,147.5,106.5z M121.2,95.7c1.3-0.2,3.1-1.8,3.6-2.5
		c0.9-1.1,1.8-2.2,2.2-3.8c0.9-3.1-0.4-8.1-1.8-9.5c-4.3,2.2-6.8,6.8-5.8,11.7C120.1,93.9,120.7,94,121.2,95.7z M124.6,107.4
		c2.3-0.5,5.4-3.1,6.5-5.4c1.6-3.6,0.7-6.5-0.4-9.7c-1.3,0.2-3.2,1.6-4,2.2c-1.1,0.9-2,2-2.7,3.2
		C122.8,100.7,123.4,105.9,124.6,107.4z M133.5,122.3c0.9,2.5,3.6,5,6.1,5.9c4,1.4,6.7,0,9.7-1.3c-0.4-1.3-1.6-2.9-2.5-3.6
		c-2.3-2.5-5.4-3.4-8.8-2.7C136.3,120.9,134.4,121.4,133.5,122.3z M70.1,131.5c3.1,0.9,7.4-1.1,9-2.5c0.9-0.9,1.8-2,2.3-3.6
		c0.4-0.9,1.3-3.6,0.9-4.7C72.1,119.1,69.4,129.9,70.1,131.5z M72.8,111.3c0.5-1.4-1.6-11.7-12.8-10.4c-0.2,2.9,1.6,6.5,3.6,8.1
		C66,111,70.6,112,72.8,111.3z M135.3,87.9c3.6,2.5,7.2,3.1,12.2,2.5c0.2-1.4-1.1-4.7-1.6-5.8c-3.2-6.3-8.6-7.4-15.7-6.7
		C130,82,133.1,86.3,135.3,87.9z M85.4,35c2.7-0.9,6.3-5.2,7-8.6c0.9-4.9-0.7-8.8-2.9-12.1c-1.1,0.2-3.6,2.5-4.3,3.4
		c-2.9,3.6-3.8,7.4-2.5,12.1C83.2,31.2,84.7,34.3,85.4,35z M48.7,47.4c0.2,1.6,2.5,3.6,3.6,4.5c1.4,1.3,3.1,2.2,5.2,2.5
		c2.3,0.5,4.9,0.2,6.8-0.4c2.7-0.9,3.2-1.6,5.2-2.5c-0.4-2.3-5.2-6.3-8.8-7C55.3,43.3,52.3,45.6,48.7,47.4z M42.7,106.3
		c1.4,3.2,4.1,6.3,7.9,7.7c2.2,0.7,4.5,0.9,7,0.4c3.2-0.7,4.1-1.6,5.6-2c-0.2-1.4-2.5-4-3.2-4.7C54.8,102.7,47.8,103,42.7,106.3z
		 M112.9,33.6c1.4,0.2,4.7-1.3,5.8-1.8c5.8-3.2,7.6-9,6.3-15.8c-1.8,0-4.5,1.1-5.8,1.8C113.3,21,111.9,26.5,112.9,33.6z M70.1,26
		c-3.4,6.5-2.9,12.1,2.3,17.1c0.9,0.9,3.6,2.9,4.7,3.1c0.9-1.3,1.8-4,2-5.9c0.5-4.5-1.3-8.3-4.3-11.2C73.9,28.3,71,26.2,70.1,26z
		 M107.4,28.2c2.2-2.9,3.4-8.5,1.8-12.4c-1.3-3.4-5.4-7.6-7.9-8.1c-0.5,1.6-1.6,2.5-2.2,5.6c-0.7,4.5,0.5,8.3,3.6,11.5
		C103.6,25.5,106.3,27.8,107.4,28.2z M114.2,118.2c2.2-0.5,5.9-5.2,6.7-9c0.7-4-1.3-9.9-3.4-11.9c-2.7,1.1-5.9,5.6-6.7,9
		C110.1,110.2,111.9,115.6,114.2,118.2z M135.1,55c1.4,0.7,4.9,0.9,6.8,0.7c4.3-0.5,7-2.7,9.2-6.3c0.5-0.9,2.2-4.1,2.2-5.6
		c-1.3-0.7-5-0.9-6.7-0.5c-4,0.5-7.4,2.7-9.4,6.1C136.7,50.5,135.1,53.7,135.1,55z M130.2,28.7c4.9,0.5,8.8-0.9,11.5-3.6
		c2.2-2.2,4.3-6.7,4.3-11c-4.9-0.4-9.2,1.3-11.5,3.6C131.8,20.8,130.2,24.4,130.2,28.7z M92.6,70.6c2.3-0.9,5.8-5.6,6.5-9
		c0.7-4.1-0.9-9-3.2-11.9c-1.1,0.2-3.4,2.5-4.3,3.8c-2.7,3.6-3.2,7.9-1.6,12.2C90.3,67,91.5,69.9,92.6,70.6z M36.4,126.1
		c1.3,0.9,4.1,1.6,6.1,1.8c6.5,0.5,11.7-4,13.9-9.7c-1.1-0.9-4.3-1.6-6.1-1.6c-2.5-0.2-4.7,0.2-6.7,1.3
		C39.5,120,38.2,122.8,36.4,126.1z M125.4,40c0.4,0.4,0.7,0.5,1.3,0.9c2.7,1.8,5.8,2.7,9.2,2.2c2.3-0.4,4.1-1.3,5.6-2.3
		c1.1-0.7,3.6-2.7,4-4c-2.2-2.3-7-4.5-11.5-4c-2.2,0.4-4,1.3-5.6,2.2c-0.9,0.7-3.6,2.9-4,3.8L125.4,40z M86.7,49.8
		c5.9-0.2,11.2-4.7,12.2-10.4c0.4-2,0.4-5.4-0.2-7.2c-4.1,0.2-8.1,2.9-9.9,5.2C86.7,40.6,85.9,45.1,86.7,49.8z M31.9,71.2
		c1.4,2.9,5.2,5.9,9,6.7c4.5,0.9,9.2-1.1,11.9-3.2c-0.9-2.7-5.6-5.9-9-6.8c-2.5-0.5-4.9-0.2-6.8,0.5C35.9,68.8,32.5,70.5,31.9,71.2z
		 M28.9,53.2c-0.2,1.3,1.3,4.5,2,5.6c3.2,5.6,11,7.4,16.4,5.4c-0.2-3.2-3.1-7.4-5.9-9.4C37.7,52.1,33.7,52.5,28.9,53.2z M138.1,73.3
		c0.4,1.1,3.2,3.1,4.5,3.6c4.3,2,8.3,1.8,12.4-0.7c1.3-0.7,3.8-2.5,4.3-3.6c-0.7-1.1-3.1-2.5-4.7-3.4c-1.8-0.9-4.1-1.4-6.5-1.3
		C144.6,68.1,139.9,70.8,138.1,73.3z M47.4,101.6c4.5,0.7,9.2-1.4,11.3-3.8c2.2-2.5,4.1-6.5,4-11.2c-5-0.2-8.8,1.3-11.3,4
		C49,93,47.2,97.1,47.4,101.6z M50.3,27.4c-0.4,9.4,5.9,15.1,15.5,14.8C66,32.7,59.5,26.9,50.3,27.4z"/>
</g>
</svg>
