<?xml version="1.0" encoding="utf-8"?>
<!-- Generator: Adobe Illustrator 23.0.3, SVG Export Plug-In . SVG Version: 6.00 Build 0)  -->
<svg version="1.1" id="Layer_1" xmlns="http://www.w3.org/2000/svg" xmlns:xlink="http://www.w3.org/1999/xlink" x="0px" y="0px"
	 viewBox="0 0 184.3 184.3" style="enable-background:new 0 0 184.3 184.3;" xml:space="preserve">
<style type="text/css">
	.st0{fill:#FFFFFF;}
</style>
<g id="Layer_x0020_1">
	<path class="st0" d="M38.7,47.3c1.6-2.3,1.8-2.7,4.3-5.2c1.8-1.8,2.9-3.8,4.1-4.9c5.6-5,27.5,8.5,38-17.6H99
		c4.5,10.3,11.7,16.7,26.5,16.7c9.4,0,10.4-2.5,13.5,1.6c1.6,2.3,5.6,6.7,6.7,9.4c-3.8,3.4-9.5,12.1-12.2,18.2
		c-11.7,25-4.1,50,13,66.6c-0.9,3.4-6.5,9.7-8.3,13.7c-11.2-0.4-17.8-1.8-27.7,2.9c-10.1,4.9-14.6,12.8-18.2,14.2
		c-3.2-4-8.1-8.3-13.5-11.5c-14-9-29.2-4.5-30.2-4.9c-1.6-1.3-8.5-12.1-9.7-14.4c0.9-2.2,5.2-6.1,6.8-8.3
		C63.1,99.5,58.6,68.9,38.7,47.3z M81.5,13.8c-4.9,3.4-2.7,13.1-14.9,15.8c-15.5,3.2-16.6-4.7-25,4.3c-1.4,1.6-2,2.7-3.4,4.1
		c-5.9,6.3-9.2,8.1-4,13.9c16.6,18.4,21.8,44.3,7.6,65.5c-2.2,3.4-4.3,6.3-6.8,8.5c-3.2,2.9-5.9,4-2.5,9.4
		c3.4,5.2,8.3,13.3,11.9,17.8c9.9,0.5,23-5.8,39.6,10.8c9.9,9.9,8.1,9.7,16,0.7c12.6-14.2,23-13.1,37.6-11.9c4,0.4,5-2.9,6.7-5
		c2.2-3.1,10.1-13.5,9.2-16.7c-0.7-2.2-32.9-27-13.1-65c2-3.8,3.8-6.1,5.9-9.4c6.5-9.4,9.4-7.4,2.5-16C136.2,24.8,142,29.3,129.4,30
		c-7.6,0.4-12.8,0.4-18.2-4c-5.4-4.1-5.4-8.3-9-12.4C98.4,12.9,84.4,12.5,81.5,13.8z"/>
</g>
</svg>
