<?xml version="1.0" encoding="utf-8"?>
<!-- Generator: Adobe Illustrator 23.0.3, SVG Export Plug-In . SVG Version: 6.00 Build 0)  -->
<svg version="1.1" id="Layer_1" xmlns="http://www.w3.org/2000/svg" xmlns:xlink="http://www.w3.org/1999/xlink" x="0px" y="0px"
	 viewBox="0 0 184.3 184.3" style="enable-background:new 0 0 184.3 184.3;" xml:space="preserve">
<style type="text/css">
	.st0{fill:#FFFFFF;}
</style>
<g id="Layer_x0020_1">
	<g id="_2429760765008">
		<path class="st0" d="M83.2,138.2c0.2,2.9,3.8,2.3,6.5,2.7v7.4c-6.8,0.4-16.6-2.9-21.8-5.4c-17.3-8.1-31.5-26.8-31.9-48.2h20.7
			c1.3,10.6,4.9,17.1,10.4,22.7c6.3,6.3,11.2,8.5,22.5,10.4v8.1C86.8,135.9,83.1,134.6,83.2,138.2z M22,89.6
			c-0.5-13.9,7.2-30.2,13.3-38.9l4.3-5.6c0.7-0.9,0.9-0.9,1.6-1.6c0.5-0.5,1.1-1.1,1.6-1.6c5.9-6.3,12.4-10.4,21.1-14.4
			c25.6-11.5,58.3-5.6,77.9,14.8c8.1,8.3,14.8,18.4,18.7,33.5c3.6,14.8,1.8,31.5-4,44.3c-2.9,6.7-5.9,11.3-9.9,16.2
			c-4,4.9-8.1,8.6-13.5,12.8c-9.4,7-23.6,13-38.7,13.3c0-9.9,0-19.8,0-29.9c0-9.4,1.1-9.5-4.9-10.1c-11.3-0.7-21.2-8.1-25.7-18.7
			c-5-12.1,1.6-14.4-8.3-14.2c-2.5,0-4.9-0.2-7.2,0c0.2-3.1,1.8-8.3-2-8.1c-3.1,0.2-3.1,5.9-3.1,8.3H22z M31,94.7
			c0.5,9,2.3,15.7,5.8,23.4c1.8,4,5.6,10.3,8.5,13.3l3.6,3.8c0.7,0.7,0.9,1.1,1.8,1.8l5.9,4.9c9,6.7,21.2,10.8,32.9,11.3
			c0.7,3.2-1.1,12.1,1.3,13.7c1.8,1.3,11.2-0.2,13.9-0.5c11.5-2,27.5-8.6,36.2-16.7c0.9-0.9,1.1-0.9,2-1.6c0.9-0.7,1.1-1.3,1.8-2
			c3.8-4,3.4-3.1,7.2-7.9c12.1-15.1,18.4-38.3,14.4-59.2c-1.6-8.3-4.1-15.8-7.9-22.5c-4-7.2-5-8.1-9.4-13.5c-1.3-1.4-2.5-2.5-3.8-4
			c-2.7-2.7-4.7-4.7-7.9-7c-9.4-7-19.6-11.7-31.7-13.9c-17.3-3.2-37.3,0.4-50.4,8.3c-6.5,4-11.9,7.6-17.1,13.1
			c-10.4,11-17.8,24.1-20.5,40.1c-0.4,2.5-1.8,11.7-0.7,13.7C18.4,95.6,26.2,94.5,31,94.7z"/>
		<path class="st0" d="M89.5,75c16.6-2.7,25.7,16.7,16.6,27.9C96,115,77.8,109.6,75.3,95.2C73.5,84.6,80.9,76.5,89.5,75z
			 M114.4,95.7c2.2-13.1-7.6-23.8-18.5-25.6C82.3,68,72.1,77.6,70.1,88.7c-2.3,13.3,7.6,23.9,18.5,25.7
			C102.1,116.4,112.6,106.7,114.4,95.7z"/>
		<path class="st0" d="M140.8,90.7c-0.2-0.9,0.2-1.3,0.2-2.5c0-1.3-0.4-4.1-0.7-5.2c-0.5-1.6-2.7-2.2-4.1-0.9
			c-1.3,1.3-0.2,5.6,0.2,7.7c0.4,2-0.9,5-0.2,8.6c4.5,3.1,5-0.4,5-4.7C141.2,92.1,141,91.6,140.8,90.7z"/>
		<path class="st0" d="M107.4,138.4c0.5-0.7,0.5-2.5-0.2-3.2c-1.6-2-8.1,0.2-8.8,1.3c-1.4,2.2,0.2,4.3,3.2,3.8
			C102.9,140,106.8,138.9,107.4,138.4z"/>
		<path class="st0" d="M50.5,67.7c-1.3,0.7-2.5,3.8-3.1,5.2c-0.9,2.5,0.7,4.9,3.2,3.6c0.9-0.4,2.5-4.1,3.1-5.2
			C55,68.6,52.6,66.4,50.5,67.7z"/>
		<path class="st0" d="M131.5,121.5c1.3-2.2-0.7-5.2-3.4-3.8l-4,4.3c-1.6,2.5,0.9,5,3.4,3.8c0.7-0.4,1.4-1.6,2.2-2.3L131.5,121.5z"
			/>
		<path class="st0" d="M121,131.4c1.3-2.5-1.6-4.3-3.8-3.1c-0.9,0.5-4.5,2.7-4.9,3.4c-1.3,2.5,1.3,4.5,3.8,3.2
			C117.4,134.3,120.5,132.3,121,131.4z"/>
		<path class="st0" d="M69.2,134.3c0.4,1.6,3.1,2.5,4.9,3.2c2.3,0.9,5.2,0.4,4.3-2.7C77.8,132.8,67.9,128.5,69.2,134.3z"/>
		<path class="st0" d="M138.5,108.2c0.9-2.7-1.1-4.9-3.2-3.6c-1.1,0.5-2.2,3.6-2.7,5.2c-1.3,2.9,1.1,5,3.4,3.8
			C137.1,112.8,138,109.8,138.5,108.2z"/>
		<path class="st0" d="M48.3,113.2c0,0.9,2.3,4.9,2.9,5.6c1.6,2,7.9,1.4,1.6-7.2C51.4,109.4,48.1,110.5,48.3,113.2z"/>
		<path class="st0" d="M86.3,43.7c-2.2,0.2-5.4,0.4-6.1,2c-2.3,5.2,8.5,3.6,9.4,1.4C90.6,44.6,88.6,43.4,86.3,43.7z"/>
		<path class="st0" d="M45.3,96.6c-2.2,1.1-1.4,2.9-0.7,5.9c0.4,2,1.4,4.5,4,3.2c2.2-1.1,1.1-3.8,0.7-5.9
			C48.9,97.5,48.1,95.2,45.3,96.6z"/>
		<path class="st0" d="M96.6,43.7c-2.5,1.1-2.3,3.8-0.2,4.7c1.1,0.4,5.8,1.1,6.7,0.7c2-0.9,2-3.8-0.2-4.7
			C102,44.1,97.6,43.4,96.6,43.7z"/>
		<path class="st0" d="M57.1,125.8c0.2,1.1,3.6,3.8,4.3,4.3c2.2,1.6,4.9,0.2,4.1-2.5c-0.4-1.1-3.6-3.8-4.3-4.3
			C59.1,121.5,56.4,123.1,57.1,125.8z"/>
		<path class="st0" d="M110.8,47.7c-1.8,0.7-2.9,3.1,0.2,4.7c1.4,0.7,4.3,2.7,5.9,2.2c0.9-0.2,3.6-2.9-0.5-5
			C114.9,48.8,112.6,47,110.8,47.7z"/>
		<path class="st0" d="M60,55.8c-0.9,0.2-1.8,1.3-2.2,1.8l-2.2,2.2c-1.6,1.8-0.5,5.2,2.3,4.3c0.9-0.2,3.4-3.2,4.3-4
			C64.3,58.1,62.5,55.1,60,55.8z"/>
		<path class="st0" d="M123,56c-3.8,1.4-0.5,4.3,0.4,5.2c1.1,1.1,2.7,4.1,5.2,2.9c2.5-1.3,0.7-4.3-0.5-5.2
			C125.7,56.5,125,55.2,123,56z"/>
		<path class="st0" d="M131.8,67.8c-2.7,1.3-0.7,3.6,0.2,5.6c0.7,1.6,1.8,4.9,4.5,3.2c2-1.3,0.7-3.8-0.2-5.6
			C135.4,69.1,134.4,66.6,131.8,67.8z"/>
		<path class="st0" d="M72.3,47.7c-10.1,3.6-5.2,7.6-2.7,6.8c0.5-0.2,5-2.7,5.4-2.9C76.6,49.7,75,46.8,72.3,47.7z"/>
	</g>
</g>
</svg>
