<?xml version="1.0" encoding="utf-8"?>
<!-- Generator: Adobe Illustrator 23.0.3, SVG Export Plug-In . SVG Version: 6.00 Build 0)  -->
<svg version="1.1" id="Layer_1" xmlns="http://www.w3.org/2000/svg" xmlns:xlink="http://www.w3.org/1999/xlink" x="0px" y="0px"
	 viewBox="0 0 184.3 184.3" style="enable-background:new 0 0 184.3 184.3;" xml:space="preserve">
<style type="text/css">
	.st0{fill:#030303;}
</style>
<g id="Layer_x0020_1">
	<g id="_2429456653568">
		<path class="st0" d="M45.8,107.7c-4.9,14-29.2,7.6-22.9-8.8C27.8,85.7,51.4,91.5,45.8,107.7z M98.3,60.5c11-1.8,24.7-1.1,33.8,3.2
			c15.7,7.4-3.4,14.4-12.1,15.7C86.5,84.3,63.4,66.1,98.3,60.5z M50.8,112.9c4.3,30.6,66.6,40.1,100.3,21.2
			c8.3-4.7,20.2-14.8,15.8-29.3c-1.6,1.6-1.4,2-2.9,3.8c-1.3,1.4-2.2,2.3-3.4,3.6c-2.9,2.7-4.7,4.1-8.5,6.5
			c-6.3,3.8-13.7,6.1-21.8,8.1c-29.5,6.8-78.7-2.9-81.5-31.3c-0.5-5.8,1.6-9.2,1.4-12.4c-0.4-4.9-2.5-6.3-1.1-13.3
			c1.6-7.2,7.9-14.6,13.5-16.9C60.9,55.7,51,61.1,51,73.5c-0.2,9.4,7,16.9,12.1,20.5c12.8,9.4,34,13.7,53.5,12.4
			c20.3-1.3,37.8-8.3,46.6-19.3c12.2-15.3,0.7-31.5-16.4-39.4c-34-15.3-78.5-4.5-103.1,13.1C33.4,68.3,18.2,82,16.3,99.2
			c-2.3,22,19.4,28.1,29.9,18.4L50.8,112.9z"/>
		<path d="M51.9,86.6c-3.6,5.4,0,13.7,3.1,18.2c16,23.2,69.3,25.7,94.9,11.5c7.7-4.3,23.2-16,16.9-30.1c-6.5,8.3-11,12.4-22.5,17.5
			c-24.7,10.4-60.5,8.8-82.1-6.8C56.4,92.8,55.1,89.9,51.9,86.6z"/>
		<path d="M30.5,96.2c-10.6,5.4-2.5,19.4,7.4,15.5C47.6,107.5,42,90.2,30.5,96.2z"/>
	</g>
</g>
</svg>
