<?xml version="1.0" encoding="utf-8"?>
<!-- Generator: Adobe Illustrator 23.0.3, SVG Export Plug-In . SVG Version: 6.00 Build 0)  -->
<svg version="1.1" id="Layer_1" xmlns="http://www.w3.org/2000/svg" xmlns:xlink="http://www.w3.org/1999/xlink" x="0px" y="0px"
	 viewBox="0 0 184.3 184.3" style="enable-background:new 0 0 184.3 184.3;" xml:space="preserve">
<style type="text/css">
	.st0{fill:#FFFFFF;}
	.st1{fill:#F3F3F3;}
</style>
<g id="Layer_x0020_1">
	<g id="_2429622809232">
		<path d="M90.7,111.7c17.1-6.3,23.6,19.6,9,24.8c-12.2,4.3-22.5-8.1-16.4-19.3C85.3,113.7,86.4,113.2,90.7,111.7z M59,111.7
			c17.1-6.3,23.6,19.6,9,24.8c-12.2,4.3-22.5-8.1-16.4-19.3C53.6,113.7,54.7,113.2,59,111.7z M27.3,111.7c17.1-6.3,23.6,19.6,9,24.8
			c-12.2,4.3-22.3-8.1-16.4-19.3C21.8,113.7,22.8,113.2,27.3,111.7z M111.2,116.2c-0.7-2.5-1.8-3.4-3.1-5.2c7.7-0.4,45-1.1,50.2,1.1
			c4.7,2,4.1,2.5,4.9,4.3c-4.7,0-11.9-1.1-15.1,1.1c-0.9,5.9,5.4,4.1,18,4v4.5c-0.2,0.2-0.5,0.2-0.5,0.2c-0.2,0-0.4,0.2-0.5,0.2
			s-0.4,0.2-0.5,0.2s-0.4,0.2-0.7,0.2c-2.7,0.5-4-0.5-4.9,1.6c-1.3,2.9,0.5,2.9,3.4,4.3c0.2,0.2,0.5,0.5,0.5,0.4
			c0-0.2,0.4,0.2,0.5,0.4c-3.1,2-6.5,4.1-12.1,4.1l-43-0.2c1.3-1.8,2.2-2.7,3.1-5.2c3.8,0,8.8,0.7,12.1-0.7c2-6.3-5.4-4.1-10.1-4.5
			v-5c7.9-0.7,16.9,1.6,15.8-3.2C128.3,115,117.3,116.2,111.2,116.2z M50.9,109.8c-1.1,1.6-2.3,2.9-3.8,4.5c-1.3-1.3-2-2.2-2.2-3.4
			L50.9,109.8z M60.5,102c1.4,1.6,1.8,2,2.2,3.4l-5.9,1.1L60.5,102z M72.3,79.9c17.5-5.8,23.2,20.3,8.5,25
			C63.5,110.3,55.6,85.3,72.3,79.9z M40.5,79.9c17.5-5.8,23.2,20.3,8.5,25C31.8,110.3,23.9,85.3,40.5,79.9z M93.9,84.4
			c-1.8-1.1-3.4-4-4.3-5.4h43c4.7,0,10.1,1.1,12.1,5.6c-4.7,0-12.6-1.1-15.3,1.3c-0.4,4.7,2.3,4,6.8,4c3.8,0,7.6,0,11.3,0l-0.2,5.2
			c-3.2,0-7-0.7-7.6,2.2c-0.5,2.2,0.7,2.2,1.6,2.7c2.2,1.1,1.6-0.2,3.2,1.4c-3.4,2.2-5.8,4.3-12.2,4.3H89.6c0.7-1.4,2.5-4.3,4.3-5.4
			c3.6,0,11.3,1.4,11.3-2.5c0-4-7-2.5-10.6-2.7v-5.2c3.2,0,6.7,0,9.9,0c4,0,6.7,0.5,5.6-4C106.7,83.3,98.8,84.4,93.9,84.4z
			 M56.5,78.1l6.1,0.9c-0.2,1.6-0.7,2-2.2,3.6L56.5,78.1z M59,48.2c17.1-6.3,23.6,19.6,9,24.7c-12.2,4.3-22.5-8.1-16.4-19.1
			C53.6,50.2,54.7,49.8,59,48.2z M79.5,52.7c-0.7-2.7-1.8-3.4-3.1-5.4c7.6-0.4,45-1.1,50.2,1.3c4.7,2,4.1,2.5,4.9,4.1
			c-4.7,0-11.9-1.1-15.1,1.3c-0.9,5.9,5.4,4.1,18,4v4.5c-0.2,0.2-0.4,0.2-0.5,0.4c-4.7,1.6-5.6-0.4-6.8,2.2
			c-1.3,2.9,0.5,2.9,3.4,4.3l1.3,0.7c-3.1,2.2-6.5,4.1-12.2,4.1l-42.8-0.2c1.3-2,2.2-2.7,3.1-5.2c3.8,0,8.8,0.7,12.1-0.9
			c2-6.3-5.4-4.1-10.1-4.5l-0.2-5c7.9-0.7,16.9,1.6,15.8-3.2C96.6,51.4,85.5,52.7,79.5,52.7z M12.8,121.5v5.2
			c3.2,6.7,2.9,10.1,9.4,13.7c5.6,3.1,14.4,2.2,21.6,2.2h94.5c14.2,0,20.9,2.2,28.8-6.8c3.2-3.6,2.5-4.7,4.3-8.1v-7.2
			c-2.9-5.6-2.5-7.6-7.7-11.5c-4.1-3.2-9.5-3.2-15.8-3.2c3.6-5.9,7.4-12.1,3.4-21.1c-3.2-7.2-9.2-10.3-16.7-10.8
			c1.1-2.5,3.1-4,4.1-7.6c0.9-3.1,1.3-6.1,0.5-9.4c-1.1-5.6-5-10.3-8.6-12.4c-7-4.3-30.2-2.5-40.3-2.5c-14.8,0-45.4-5.4-45.9,18
			c-0.2,8.1,4.1,11.2,6.3,14.6c-10.3-2.9-17.8,1.3-21.8,7.4c-7.7,11.7,1.4,21.1,1.8,23.4c-5.8,0.4-9,1.6-12.1,4.9
			C14,115.3,15.6,115.5,12.8,121.5z"/>
		<path class="st0" d="M100.2,66.4c-0.5-3.2,1.6-3.2,4.3-3.2c7.6,0,9.2-0.5,16.4,0.5l-0.2,4.1c-3.4,0.9-10.4,0.5-14.8,0.5
			C102.8,68.5,100.8,68.9,100.2,66.4z M103.5,53.4c2.3-1.6,5-0.9,7,0.4l-0.2,2.9c-2.2,1.8-4.7,1.8-7.2,0L103.5,53.4z M79.5,52.7
			c5.9,0,17.1-1.3,17.8,2c1.1,4.9-7.9,2.5-15.8,3.2l0.2,5c4.7,0.4,12.1-1.8,10.1,4.5c-3.2,1.6-8.3,0.9-12.1,0.9
			c-0.7,2.5-1.8,3.4-3.1,5.2l42.8,0.2c5.9,0,9.2-2.2,12.2-4.1l-1.3-0.7c-2.9-1.4-4.7-1.3-3.4-4.3c1.1-2.5,2.2-0.5,6.8-2.2
			c0.2,0,0.4-0.2,0.5-0.4v-4.5c-12.6,0.2-18.9,2-18-4c3.2-2.2,10.4-1.3,15.1-1.3c-0.7-1.6-0.2-2.2-4.9-4.1
			c-5.2-2.2-42.8-1.4-50.2-1.3C77.7,49.3,78.8,50,79.5,52.7z"/>
		<path class="st0" d="M132.1,129.9c-0.5-3.2,1.6-3.2,4.3-3.2c7.4,0,9.4-0.5,16.4,0.5v3.4c-3.1,2.2-10.4,1.3-14.9,1.3
			C134.6,131.9,132.5,132.3,132.1,129.9z M135.2,117c2.3-1.6,5-0.9,7,0.4l-0.2,2.9c-2.2,1.8-4.7,1.8-7.2,0L135.2,117z M111.2,116.2
			c6.1,0,17.1-1.3,17.8,2.2c1.1,4.9-7.9,2.5-15.8,3.2v5c4.7,0.4,12.1-1.8,10.1,4.5c-3.2,1.6-8.3,0.7-12.1,0.7
			c-0.7,2.7-1.8,3.4-3.1,5.2l43,0.2c5.6,0,9-2.2,12.1-4.1c-0.2-0.2-0.5-0.5-0.5-0.4s-0.5-0.2-0.5-0.4c-2.9-1.4-4.7-1.3-3.4-4.3
			c0.9-2.2,2.2-1.1,4.9-1.6c0.2,0,0.5-0.2,0.7-0.2c0.2,0,0.4-0.2,0.5-0.2s0.5-0.2,0.5-0.2c0.2,0,0.4-0.2,0.5-0.2v-4.5
			c-12.6,0.2-18.9,2-18-4c3.2-2.2,10.6-1.3,15.1-1.1c-0.7-1.6-0.2-2.2-4.9-4.3c-5.2-2.2-42.7-1.4-50.2-1.1
			C109.4,112.8,110.5,113.5,111.2,116.2z"/>
		<path class="st0" d="M122.2,95c3.8,0,8.5-0.7,11.9,0.9l-0.4,3.6c-2.9,1.3-16.9,1.3-19.8,0C112.3,93.6,117.7,95,122.2,95z
			 M116.4,88.3c-0.7-4.9,3.4-4.9,7-3.2l-0.4,3.6C120.2,90.3,118.8,90,116.4,88.3z M93.9,84.4c4.9,0,12.8-1.3,16.2,1.3
			c0.9,4.7-1.8,4.1-5.6,4c-3.2,0-6.7,0-9.9,0v5.2c3.6,0,10.6-1.3,10.6,2.7c0,4-7.7,2.5-11.3,2.5c-1.8,1.1-3.4,4-4.3,5.4h42.8
			c6.5,0,8.8-2.2,12.2-4.3c-1.6-1.6-1.1-0.4-3.2-1.4c-0.9-0.5-2.2-0.5-1.6-2.7c0.5-2.9,4.3-2.2,7.6-2.2l0.2-5.2c-4,0-7.7,0-11.3,0
			c-4.5,0-7.2,0.7-6.8-4c2.7-2.3,10.6-1.3,15.3-1.3c-2.2-4.3-7.4-5.6-12.1-5.6h-43C90.5,80.4,92.1,83.5,93.9,84.4z"/>
		<path class="st0" d="M55.6,62.6c-1.1-5.2,2.5-11,7.7-9.9c2.2,0.4,4.1,3.1,0,4.9c-2.9,1.3-1.3-0.9-2.9,2.2c-0.7,1.6,0,1.1-1.3,3.1
			L55.6,62.6z M59,48.2c-4.3,1.6-5.4,2-7.4,5.6C45.5,64.9,55.8,77.4,68,72.9C82.6,67.8,76.1,41.9,59,48.2z"/>
		<path class="st0" d="M55.6,126.1c-1.1-5.2,2.5-11,7.7-9.9c1.4,0.4,2.2,0.7,2.2,2.5c0,4-2.9,0.5-5,4.7c-0.7,1.6,0,1.1-1.3,3.1
			L55.6,126.1z M59,111.7c-4.3,1.6-5.4,2-7.4,5.6c-6.1,11.2,4.1,23.6,16.4,19.3C82.6,131.2,76.1,105.4,59,111.7z"/>
		<path class="st0" d="M23.9,126.1c-2-10.1,10.1-12.8,10.1-7.4c0,4-2.9,0.5-5,4.7c-0.7,1.6,0,1.1-1.3,3.1L23.9,126.1z M27.3,111.7
			c-4.3,1.6-5.4,2-7.4,5.6c-6.1,11.2,4.1,23.6,16.4,19.3C50.9,131.2,44.3,105.4,27.3,111.7z"/>
		<path class="st0" d="M87.3,126.1c-2-10.1,10.1-12.8,10.1-7.4c0,4-2.9,0.5-5,4.7c-0.7,1.6,0.2,1.1-1.3,3.1L87.3,126.1z M90.7,111.7
			c-4.3,1.6-5.4,2-7.4,5.6c-6.1,11.2,4.1,23.6,16.4,19.3C114.3,131.2,107.8,105.4,90.7,111.7z"/>
		<path class="st0" d="M42.3,90.1c-1.4,8.1-6.3,4.7-5.2-0.2c0.9-3.8,4.9-6.3,9.5-5C47.9,90,45.7,89.2,42.3,90.1z M40.5,79.9
			c-16.7,5.6-8.6,30.4,8.5,25C63.7,100.2,57.9,74.1,40.5,79.9z"/>
		<path class="st0" d="M74,90.1c-1.4,8.1-6.3,4.7-5.2-0.2c0.9-3.8,4.9-6.3,9.5-5C79.7,90,77.6,89.2,74,90.1z M72.3,79.9
			c-16.7,5.6-8.6,30.4,8.5,25C95.4,100.2,89.8,74.1,72.3,79.9z"/>
		<path d="M152.6,130.6v-3.4c-7-1.3-8.8-0.5-16.4-0.5c-2.7,0-4.9,0-4.3,3.2c0.5,2.5,2.5,2,5.6,2C142.2,131.9,149.4,133,152.6,130.6z
			"/>
		<path d="M120.6,67.8l0.2-4.1c-7.2-1.3-8.8-0.7-16.4-0.5c-2.7,0-4.9,0-4.3,3.2c0.5,2.5,2.5,2,5.6,2
			C110.1,68.4,117.2,68.9,120.6,67.8z"/>
		<path d="M113.9,99.3c2.9,1.3,16.9,1.3,19.8,0l0.4-3.6c-3.4-1.6-8.3-0.9-11.9-0.9C117.7,95,112.3,93.6,113.9,99.3z"/>
		<path d="M23.9,126.1l3.8,0.4c1.3-2,0.5-1.6,1.3-3.1c2.2-4.1,5-0.7,5-4.7C33.8,113.4,21.8,116.2,23.9,126.1z"/>
		<path d="M87.3,126.1l3.8,0.4c1.3-2,0.5-1.6,1.3-3.1c2.2-4.1,5-0.7,5-4.7C97.4,113.4,85.3,116.2,87.3,126.1z"/>
		<path d="M55.6,126.1l3.8,0.4c1.3-2,0.5-1.6,1.3-3.1c2.2-4.1,5-0.7,5-4.7c0-1.8-0.7-2.2-2.2-2.5C58.1,115.2,54.5,121.1,55.6,126.1z
			"/>
		<path d="M55.6,62.6l3.8,0.4c1.3-2.2,0.5-1.6,1.3-3.1c1.4-3.1,0-0.9,2.9-2.2c4.3-2,2.2-4.5,0-4.9C58.1,51.6,54.5,57.6,55.6,62.6z"
			/>
		<path d="M42.3,90.1c3.6-1.1,5.8-0.2,4.3-5.2c-4.7-1.4-8.6,1.3-9.5,5C35.8,94.8,40.7,98.4,42.3,90.1z"/>
		<path d="M74,90.1c3.6-1.1,5.8-0.2,4.3-5.2c-4.7-1.4-8.6,1.3-9.5,5C67.5,94.8,72.5,98.4,74,90.1z"/>
		<path d="M103.5,53.4l-0.5,3.2c2.5,1.8,5,1.8,7.2,0l0.2-2.9C108.5,52.7,105.8,51.8,103.5,53.4z"/>
		<path d="M135.2,117l-0.5,3.2c2.5,1.8,5,1.8,7.2,0l0.2-2.9C140.2,116.1,137.5,115.3,135.2,117z"/>
		<path d="M116.4,88.3c2.2,1.6,3.8,1.8,6.8,0.4l0.4-3.6C119.9,83.7,115.7,83.5,116.4,88.3z"/>
		<path class="st1" d="M45,110.8c0.4,1.3,1.1,2.2,2.2,3.4c1.6-1.6,2.9-2.9,3.8-4.5L45,110.8z"/>
		<path class="st1" d="M60.5,82.6c1.4-1.4,1.8-1.8,2.2-3.6l-6.1-0.9L60.5,82.6z"/>
		<path class="st1" d="M56.7,106.5l5.9-1.1c-0.2-1.6-0.7-2-2.2-3.4L56.7,106.5z"/>
	</g>
</g>
</svg>
