<?xml version="1.0" encoding="utf-8"?>
<!-- Generator: Adobe Illustrator 23.0.3, SVG Export Plug-In . SVG Version: 6.00 Build 0)  -->
<svg version="1.1" id="Layer_1" xmlns="http://www.w3.org/2000/svg" xmlns:xlink="http://www.w3.org/1999/xlink" x="0px" y="0px"
	 viewBox="0 0 184.3 184.3" style="enable-background:new 0 0 184.3 184.3;" xml:space="preserve">
<style type="text/css">
	.st0{fill:#FFFFFF;}
</style>
<g id="Layer_x0020_1">
	<g id="_2429456703328">
		<path class="st0" d="M65.6,71.7c0,1.1-3.1,2.3-5,3.8c-7.7,5.9-12.1,11-16.9,19.6c-1.1,2-1.8,4.3-2.7,6.5
			c-5.6,13.9-3.2,32.9,4.3,45.5c1.3,2.2,3.6,5.8,5.4,7.6c1.6,1.8,2.7,3.4,4.7,4.9c5.9,4.7,4.5,4.7,13.7,9.2
			c13.5,6.7,32.6,6.8,46.1,0.2c5.6-2.9,10.8-6.1,15.3-10.6c8.6-8.6,15.8-22.9,15.8-35.5c0-9.2-0.4-15.7-4.1-24.1
			c-0.5-1.1-1.1-2-1.6-3.2c-3.1-6.1-6.7-10.8-11.5-15.7l-5-4.1c-2.2-1.6-5.2-2.9-5.2-4V34.7H111v40.5c0,2.5,2.5,3.2,4.3,4.1
			c2,1.3,3.6,2.2,5.2,3.6c3.2,2.5,5.9,5.4,8.6,8.6c5,6.5,9.4,17.1,9.4,25.7c0,13.1-1.8,19.3-8.6,29.5c-7.4,11.2-22.7,19.3-36.5,19.3
			c-18.9,0-34.7-9.4-42.8-26.1c-5.4-11-5.9-25.4-1.4-36.9c4.1-10.3,10.8-18.2,20.5-23.8c2.2-1.3,4.1-1.4,4.1-4.9V34.7H66v37.1H65.6z
			"/>
		<path class="st0" d="M55.4,14.9v11.5c0,2.2,2.3,4.5,4.5,4.5h64.6c2.2,0,4.5-2.3,4.5-4.5V14.9c0-2.2-2.3-4.5-4.5-4.5H59.9
			C57.7,10.4,55.4,12.7,55.4,14.9z"/>
		<path class="st0" d="M61.3,118c0,2.5,0.4,4.7,3.8,5.4c2.2,0.5,4-0.5,5-2l7.4,3.8c1.6,0.7,6.5,2.9,7.2,4L67.4,138
			c-0.9-0.5-2-1.8-3.6-1.6c-2.5,0.5-2.5,2.3-2.5,4.1c0,0.9,0.9,1.3,1.4,2c-1.8,7.6,5.8,8.8,8.6,5.2c1.4-1.8,0.5-4,0.9-4.5
			c0.9-1.1,3.4-2,4.9-2.7l14.9-7.6c0.7,0,12.8,6.1,15.1,7.4c1.3,0.5,4.3,2.3,5.2,2.5c0,3.2,0.7,6.8,4.9,6.8c4,0,5.8-3.1,4.7-7.2
			c1.1-1.6,1.4-0.5,1.4-3.1c0-1.6-1.1-2.5-2.5-2.9c-1.6-0.4-2.5,0.9-3.6,1.4l-13.1-6.7c-1.4-0.7-3.6-1.4-4.3-2.5
			c3.6-1.8,12.1-5.8,14.6-7.4c2.2,3.2,8.8,3.6,8.8-3.4c0-1.1-0.5-2.2-1.1-2.7c-0.9-0.9-1.4-0.9-2.3-1.3c-2.3-0.9-0.5-0.2-1.6-2
			c-1.1-1.8-3.8-2-5-0.2c-0.7,1.1-0.5,1.8-0.5,3.4c-1.1,0.4-3.2,1.6-5,2.5c-1.8,0.9-3.2,1.6-4.9,2.5c-1.4,0.7-9.4,4.9-10.1,4.9
			l-15.1-7.4c-1.1-0.5-1.4-0.5-2.5-1.3c-1.1-0.5-1.3-0.9-2.5-1.3c0-1.6,0.2-4.7-3.1-4.7c-1.1,0-2,0.5-2.5,1.3
			c-2.2,2.7,1.8,0.5-2.9,2.5C62.4,114.9,61.3,116.6,61.3,118z"/>
		<path class="st0" d="M90.1,110.8c0-1.6,0.9-3.6,2.3-4.1c0.7,2.5,2,1.4,1.1,5.8C91.7,112.6,90.1,112.8,90.1,110.8z M95,102.3
			c0-4.5,9.2-5.4,9.2,0.4c0,3.6-4.7,5.2-7.7,2.5C95.7,104.7,95,103.4,95,102.3z M80,102.3c0-4,7.2-5,9-1.4c1.6,3.2-2.7,6.7-6.1,5.4
			C81.5,105.8,80,104,80,102.3z M75.9,97.7c0,11.2-0.9,8.3,6.1,14.8c7,6.7-1.1,7.2,13.5,7.2c3.8,0,2.3-3.8,8.6-9
			c5.4-4.5,4.3-5.6,4.3-15.5c0-7.2-7.6-13.3-14.9-13.3c-5.4,0-9.5,0.4-13.7,4.7C77.5,89,75.9,92.8,75.9,97.7z"/>
	</g>
</g>
</svg>
