<?xml version="1.0" encoding="utf-8"?>
<!-- Generator: Adobe Illustrator 23.0.3, SVG Export Plug-In . SVG Version: 6.00 Build 0)  -->
<svg version="1.1" id="Layer_1" xmlns="http://www.w3.org/2000/svg" xmlns:xlink="http://www.w3.org/1999/xlink" x="0px" y="0px"
	 viewBox="0 0 184.3 184.3" style="enable-background:new 0 0 184.3 184.3;" xml:space="preserve">
<g id="Layer_x0020_1">
	<g id="_2429230735264">
		<path d="M141.7,103.6c1.4-10.6-3.4-22-8.6-27c-4.7-4.5-6.1-4-14.2-3.8h-54c-9.7,0-14.9,11.3-16.6,19.6c-2,11.2-0.5,19.1,8.5,25.7
			c6.5,4.7,7.2,4.5,13.5,4.5c6.7,0,51.5,0.4,54,0c1.6-0.2,4.7-2.2,5.9-3.1C136,116,140.7,111,141.7,103.6z"/>
		<path d="M89,56.1c-8.5,1.3-26.1,4-27.5,11.2h66.6c-1.3-7-19.3-9.9-27.7-11.2c1.3-1.8,5-3.2,2-7.4c-1.3-1.8-4.1-3.8-7.7-3.8
			s-6.3,2-7.7,3.8C84.1,53,87.9,54.3,89,56.1z"/>
		<path d="M141.7,78.2c0.4,1.3,1.8,4,2.5,5.4c0.7,1.8,1.3,3.6,1.8,5.4c2.3-1.3,4.7-4.3,8.3-5c1.6-0.4,4.9-0.2,6.1,0.7
			s0.9,3.8,0.5,5.4c-1.1,5.6-5,8.3-9.4,10.8c-8.8,5.2-1.8,0.5-6.7,10.8c-1.8,4-2.9,4.5-4.1,6.5c5.2-1.8,14.4-6.7,18.7-9.5
			c5.2-3.4,10.4-8.3,12.1-16c2.2-9.9-0.9-16-8.5-18.7C151.6,69.7,144.6,77.1,141.7,78.2z"/>
		<path d="M64.2,128.2c-0.2,9.5,0.2,11,9.7,11.2h41.6c9.9,0.2,9.7-1.8,9.7-11.2H64.2z"/>
		<path d="M12.9,71c0.5,0.4,0.7,0.5,1.3,0.9l14.8,12.6c3.2,3.2,8.3,8.8,10.6,13c0.9,1.4,1.6,3.6,2.5,5c0.2-7.2,0.5-11.2,2.7-17.6
			c1.1-3.4,4-8.5,6.3-11c1.1-0.9,0.5-0.2,1.3-1.4c-8.5-0.5-16.4-3.1-23.4-7c-2.2-1.3-4.3-2.9-6.1-3.8c-0.9,0.5-9.5,6.8-10.8,8.1
			L12.9,71z"/>
	</g>
</g>
</svg>
