<?xml version="1.0" encoding="utf-8"?>
<!-- Generator: Adobe Illustrator 23.1.0, SVG Export Plug-In . SVG Version: 6.00 Build 0)  -->
<svg version="1.1" id="Layer_1" xmlns="http://www.w3.org/2000/svg" xmlns:xlink="http://www.w3.org/1999/xlink" x="0px" y="0px"
	 viewBox="0 0 184.3 184.3" style="enable-background:new 0 0 184.3 184.3;" xml:space="preserve">
<style type="text/css">
	.st0{fill:#FFFFFF;}
</style>
<g id="Layer_x0020_1">
	<g id="_2429380152016">
		<path class="st0" d="M72,159.7v-7.5h37.8c0,7,1.1,10.7-3.5,10.7H75.5C73.1,163.1,72,162.1,72,159.7z M85.6,63.3V44h10.7v19.3
			c0,3.8,1.7,6.9,3,9.7c2.1,4.5,8.8,18.8,9.7,22.3c0.2,0.6,0.5,2.1,0.6,2.6c0.2,1.6-0.2,1.9,0.5,3H72c0.5-0.6,0.6-3.8,0.8-5.1
			c0.5-1.7,0.8-3.5,1.6-4.8c0.6-1.6,1.3-2.7,1.9-4.3l6-13.4C83.8,70.3,85.6,67.6,85.6,63.3z M85.6,22.5h10.7v5.4H85.6V22.5z
			 M80.3,19v8.8c-1.3,0-2.6,0.6-2.6,1.9v12.3c0,1.6,1.6,1.9,2.6,1.9v17.7c0,4.9-4.9,14.2-7,18.8c-2.4,5.4-6.4,12.4-6.4,19.9v60.7
			c0,3,4.3,7,7,7h34.4c3,0,7-4.1,7-7v-60.5c0-7-4.5-15.9-7.3-21.9c-8-17.4-6.2-12.3-6.2-34.6c1.3,0,1.1,0.2,1.7-0.6
			c0.5-0.5,0.8-0.8,0.8-1.6V29.8c0-1.6-1.6-1.9-2.6-1.9c0-4.3,1.1-10.7-2.1-10.7H81.9C81.5,17.1,80.3,18.4,80.3,19z"/>
		<path class="st0" d="M77.6,124.5v14.8c0,0.8,1.3,1.9,1.9,1.9h23c0.8,0,1.9-1.3,1.9-1.9v-14.8c0-0.8-1.3-1.9-1.9-1.9h-23
			C78.7,122.6,77.6,123.9,77.6,124.5z"/>
		<path class="st0" d="M77.6,113.7c0,1.3,0.2,3.5,1.9,3.5h23c2.6,0,2.6-5.4,0-5.4h-23C78.7,111.6,77.6,112.9,77.6,113.7z"/>
	</g>
</g>
</svg>
