<?xml version="1.0" encoding="utf-8"?>
<!-- Generator: Adobe Illustrator 23.0.3, SVG Export Plug-In . SVG Version: 6.00 Build 0)  -->
<svg version="1.1" id="Layer_1" xmlns="http://www.w3.org/2000/svg" xmlns:xlink="http://www.w3.org/1999/xlink" x="0px" y="0px"
	 viewBox="0 0 184.3 184.3" style="enable-background:new 0 0 184.3 184.3;" xml:space="preserve">
<style type="text/css">
	.st0{fill:#010100;}
</style>
<g id="Layer_x0020_1">
	<g id="_2429456660864">
		<path class="st0" d="M112.6,125.2h40v20.2h-40V125.2z M77,125.2h10.1v9.7H77V125.2z M61.9,125.2h9.7v9.7h-9.7V125.2z M46.9,125.2
			h9.7v9.7h-9.7V125.2z M31.4,127.2l0.4-2.2h9.7v9.7H31.4l0.2-4.1C31.8,129.7,31.4,128.8,31.4,127.2z M77,110.1h10.1v9.7H77V110.1z
			 M61.9,110.1h9.7v9.7h-9.7V110.1z M46.9,110.1h9.7v9.7h-9.7V110.1z M31.4,110.1h10.1v9.7h-9.7c0-1.8-0.4-2.2-0.4-4
			c0-1.4,0.2-2,0.2-2.9C31.8,111.9,31.4,111.5,31.4,110.1z M21.4,95.3v50h-5v5h151.6v-5h-5V94.6h-45.4V74.5c-1.3,0-5,1.8-6.3,2.3
			L86,86.9c-2.2,0.9-4.1,1.6-6.3,2.5c-2.5,0.9-11.2,4.9-12.8,4.9V74.5c-1.8,0.4-9.2,4-11.5,4.9c-9.9,4-21.4,9.7-31.5,14
			C23,93.9,21.4,94.3,21.4,95.3z"/>
		<path class="st0" d="M117.3,44.2h5v45.4h32.9c-0.4-1.8-2.3-4.1-2.3-5.6V44.2h5V33.8h-40.5v10.4H117.3z"/>
		<path class="st0" d="M71.9,44.2h5c0,5.9,0.5,37.6-0.4,40.9c1.3-0.2,13.1-5,15.1-5.9c2.2-0.9,14.2-5.9,15.3-5.9v-29h5V33.8H71.9
			V44.2z"/>
		<path class="st0" d="M26.4,86.9c0.7-0.4,1.6-0.7,2.5-1.1c0.9-0.4,1.6-0.9,2.5-1.1V54.1h-5C26.4,54.1,26.4,86.9,26.4,86.9z"/>
		<path class="st0" d="M36.5,82.6c0.9-0.5,4-1.8,5-2V54.3h-5V82.6z"/>
	</g>
</g>
</svg>
