<?xml version="1.0" encoding="utf-8"?>
<!-- Generator: Adobe Illustrator 23.0.3, SVG Export Plug-In . SVG Version: 6.00 Build 0)  -->
<svg version="1.1" id="Layer_1" xmlns="http://www.w3.org/2000/svg" xmlns:xlink="http://www.w3.org/1999/xlink" x="0px" y="0px"
	 viewBox="0 0 184.3 184.3" style="enable-background:new 0 0 184.3 184.3;" xml:space="preserve">
<style type="text/css">
	.st0{fill:#FFFFFF;}
	.st1{fill:none;}
</style>
<g id="Layer_x0020_1">
	<path class="st0" d="M108.1,78.6c-2.9,0.7-49.3,0.5-57.1,0.4c-4.9,0-3.2-3.4-2.5-4c1.3-0.9,41.4-0.5,48.6-0.5
		C104,74.6,110.6,73.4,108.1,78.6z M118.6,84.5l4.7-0.9l3.1-0.2c0.4-2.3,0-39.6,0-45.4c0-8.5,0.2-7-8.5-7c-20.3,0-41,0.4-61.2,0
		c0.2,4.3,0,8.8,0,13.1c0,2.5,0.5,11-0.7,12.2c-1.8,2-21.2,0-25.6,0.9c0.4,15.8,0,31.9,0,47.7c0,4.9-0.5,46.3,0.5,47.3
		c1.3,1.3,8.8,0.7,11.2,0.7c14,0,80.8,0.7,83.9-0.5c0.5-2,0.7-5.6,0.4-8.1c-14.6-0.4-26.5-10.1-29.7-23.9
		c-1.4-6.7-0.4-15.1,2.9-21.1c1.4-2.5,3.6-5.8,5.8-7.7c1.3-1.1,2.2-1.8,3.8-3.1C111.5,87,115.3,85.1,118.6,84.5z M93,87.8h-4.5
		l-39.2-0.2l-0.7-0.2l-0.7-0.9c0.4-3.8,2-3.1,5.8-3.1c2.9,0,5.6,0,8.5,0c13.5-0.2,28.8,0,42.8,0c3.4,0,5.6,1.8,2.9,4.1l-5.9,0.2
		h-4.5C97.3,87.8,93,87.8,93,87.8z M98.9,92.3c0.7,0.5,1.6,1.3,1.1,2.9c-0.4,1.3-1.4,1.3-3.1,1.4H70.5l0,0h-5.6H52.3
		c-1.4,0-3.4,0.4-4.1-1.1c-0.9-1.6,0.2-2.5,1.1-3.2H98.9z M32,52.8h20.3V32.5L32,52.8z M51.8,70.3c-6.5,0-3.8-4-2.3-4.3h28.3
		c6.3,0,23.2-0.4,28.8,0c3.6,0.2,3.2,4.3-0.4,4.3H51.8z"/>
	<path class="st0" d="M127.2,87c14.8,0,26.8,12.1,26.8,26.8c0,14.8-12.1,26.8-26.8,26.8c-14.8,0-26.8-12.1-26.8-26.8
		C100.6,99.1,112.4,87,127.2,87z M114.8,113.5l6.5,11.2l19.6-25.2l2.5,1.8l-21.1,27l-1.4,1.8l-1.3-2l-7.6-13.1L114.8,113.5z"/>
	<polyline class="st1" points="113.5,114.2 121.1,127.5 142.1,100.5 	"/>
</g>
</svg>
