<?xml version="1.0" encoding="utf-8"?>
<!-- Generator: Adobe Illustrator 23.0.3, SVG Export Plug-In . SVG Version: 6.00 Build 0)  -->
<svg version="1.1" id="Layer_1" xmlns="http://www.w3.org/2000/svg" xmlns:xlink="http://www.w3.org/1999/xlink" x="0px" y="0px"
	 viewBox="0 0 184.3 184.3" style="enable-background:new 0 0 184.3 184.3;" xml:space="preserve">
<style type="text/css">
	.st0{fill:#FFFFFF;}
</style>
<g id="Layer_x0020_1">
	<path class="st0" d="M100,95.5l8.1,26.3c1.4,4.7,1.1,4.3-1.4,6.8c-1.8-1.4-6.3-9.4-7.9-11.9c-2.9-4.7-4.7-8.3-7.7-12.2
		c-4.1,4.5-9.5,8.8-13.3,13c1.3,5,2.7,5.9,0.4,9.5l-15.1-14.4c2.5-4.5,4.3-1.6,10.3-0.7c2.7-6.7,8.5-7.2,11.7-13.5
		c-4.3-4-16.9-10.6-21.6-14c-3.4-2.5-1.8-0.7-2-2.7c3.6-3.8,6.5-0.7,15.8,2.2c5.9,1.8,11.2,3.6,17.1,5.4c4.3-3.2,14.8-17.5,21.1-16
		c0.9,2.2,0.4,4.5-1.3,6.7C111,84.5,103.2,90.8,100,95.5z M79.3,48c6.7-1.8,18.9-0.9,26.5-1.1l0.2,9.9l-27.4-0.5L79.3,48z
		 M36.8,146.1l89.8-0.4c33.1,0,27.4,6.3,27.2-61.7c-0.2-33.5,0.4-27.4-32.9-27.4c-5.4-1.6-0.2-0.2-3.6-3.4
		c-3.6-3.4-3.1,4.7-3.6-13.5c-6.8-2.2-31.1-1.4-40.3-0.9c-3.8,3.1-2.3,2.5-2.7,9c-0.5,7.7-0.5,0.9-4.3,7.4l-0.7,1.6
		c-42.8,0-35.1-9.5-35.1,63.7C30.3,133.5,28,141,36.8,146.1z"/>
</g>
</svg>
