<?xml version="1.0" encoding="utf-8"?>
<!-- Generator: Adobe Illustrator 23.0.3, SVG Export Plug-In . SVG Version: 6.00 Build 0)  -->
<svg version="1.1" id="Layer_1" xmlns="http://www.w3.org/2000/svg" xmlns:xlink="http://www.w3.org/1999/xlink" x="0px" y="0px"
	 viewBox="0 0 184.3 184.3" style="enable-background:new 0 0 184.3 184.3;" xml:space="preserve">
<g id="Layer_x0020_1">
	<g id="_2429343193216">
		<path d="M23.3,71.7L23.3,71.7l13.1,13.1c0.4-0.2,5.4-4.9,5.8-5.9c0.4-1.3-0.4-2.2-0.5-3.1c-1.3-4.5,3.6-8.5,7.7-6.7
			c2.5,1.1,3.4-0.5,5-2c1.3-1.3,2.5-2.5,4-4c1.3-1.3,2.5-2.5,4-4c0.5-0.5,3.8-3.8,4-4c-0.2-3.6-0.2-5.8,1.1-9
			c0.9-2.5,2.2-4.3,4.1-6.3c0.5-0.5,0.7-0.7,1.3-1.3c1.6-1.3,2.7-2,4.9-2.9c3.2-1.3,5.4-1.3,9-1.1c-1.1-1.1-5.8-2.5-7.7-2.9
			c-0.7-0.2-2.5-0.2-3.1-0.4h-3.2c-0.7,0.2-1.6,0.2-2.3,0.4c-0.9,0.2-1.6,0.4-2.3,0.5c-1.6,0.4-2.9,0.9-4.3,1.6
			c-2.7,1.3-4,2.2-6.1,4c-1.3,1.1-5.8,5.6-6.7,6.5L39.1,56.2c-1.6,2.2,2.5,5-0.9,9c-0.5,0.5-0.9,0.9-1.6,1.3c-3.4,1.8-5.2-0.7-7-0.2
			c-0.7,0.2-1.3,0.9-1.6,1.3c-0.5,0.5-0.9,0.9-1.4,1.4C25.6,69.4,24,71.3,23.3,71.7z M84.5,80.5c0.5,0.4,22.1,15.7,23.2,16.6
			l36.9,36.7c1.1,1.1,2.2,2,3.1,3.1c0.4,0.4,0.9,1.1,1.3,1.8c0.9,1.8,1.1,4.1,0.2,6.1c-0.7,1.6-2.2,2.7-3.4,4.1
			c-5.6,5.6-9.2,5-15.1-0.9c-2.2-2.2-4.1-4.1-6.1-6.1c-4.1-4.1-8.1-8.1-12.2-12.2c-0.7-0.7-34.2-40.9-35.1-41.6L56.8,67.7l7.4-7.4
			l11.5,11.3C78.4,74.2,82.3,78,84.5,80.5z"/>
		<path d="M161,71.7L161,71.7l-13.1,13.1c-0.4-0.2-5.4-4.9-5.8-5.9c-0.4-1.3,0.4-2.2,0.5-3.1c1.1-4.5-3.6-8.5-7.9-6.7
			c-2.3,1.1-3.4-0.5-4.9-2c-1.3-1.3-2.5-2.5-4-4c-1.4-1.4-2.5-2.5-4-4c-0.5-0.5-3.8-3.8-4-4c0.2-3.6,0.2-5.8-1.1-9
			c-0.9-2.5-2.3-4.3-4.1-6.3c-0.5-0.5-0.7-0.7-1.3-1.3c-1.6-1.3-2.7-2-4.9-2.9c-3.1-1.3-5.4-1.3-9-1.1c1.1-1.1,5.8-2.5,7.7-2.9
			c0.7-0.2,2.5-0.2,3.1-0.4h3.1c0.7,0.2,1.6,0.2,2.5,0.4c0.9,0.2,1.6,0.4,2.3,0.5c1.6,0.4,2.9,0.9,4.3,1.6c2.7,1.3,4.1,2.2,6.1,4
			c1.3,1.1,5.8,5.6,6.7,6.5L145,56.2c1.6,2.2-2.5,5,0.9,9c0.5,0.5,0.9,0.9,1.6,1.3c3.4,1.8,5.2-0.7,7-0.2c0.9,0.2,1.3,0.9,1.6,1.3
			c0.5,0.5,0.9,0.9,1.4,1.4C158.7,69.4,160.3,71.3,161,71.7z M99.6,80.5C99.1,80.9,77.5,96,76.4,97.1l-36.7,36.7
			c-1.1,1.1-2.2,2-3.1,3.1c-0.4,0.4-0.9,1.1-1.3,1.8c-1.1,1.8-1.1,4.1-0.2,6.1c0.7,1.6,2.2,2.7,3.4,4.1c5.6,5.6,9.2,5,15.1-0.9
			c2-2.2,4-4.1,6.1-6.1c4.1-4.1,8.1-8.1,12.2-12.2c0.7-0.7,34.2-40.9,35.1-41.6l20.3-20.3l-7.4-7.4l-11.5,11.3
			C105.9,74.2,102,78,99.6,80.5z"/>
	</g>
</g>
</svg>
