<?xml version="1.0" encoding="utf-8"?>
<!-- Generator: Adobe Illustrator 23.0.3, SVG Export Plug-In . SVG Version: 6.00 Build 0)  -->
<svg version="1.1" id="Layer_1" xmlns="http://www.w3.org/2000/svg" xmlns:xlink="http://www.w3.org/1999/xlink" x="0px" y="0px"
	 viewBox="0 0 184.3 184.3" style="enable-background:new 0 0 184.3 184.3;" xml:space="preserve">
<style type="text/css">
	.st0{fill:#FFFFFF;}
</style>
<g id="Layer_x0020_1">
	<g id="_2430896969456">
		<path class="st0" d="M50.7,80.4C50,63.5,58.8,48.7,73.4,41.1c25.6-13.3,58.9,4,60.3,35.1c1.1,23.4-17.1,42.5-39.2,43.6
			C70.9,120.9,51.6,102.5,50.7,80.4z M56.9,43.1c-6.3,1.3-14.2-0.4-17.1,5s4,11.9,4.1,16.9C43,68,32,71.6,31.7,78
			c-0.2,4.1,2.9,6.3,4.7,7.7c2.5,2,5.2,3.6,7.4,5.4c0.7,5.2-6.8,11-4,17.3c2.9,6.3,13.5,2.9,16.9,5.4c3.1,3.6-1.3,13.9,5.2,16.9
			c5.9,2.9,12.4-4.5,17.5-4.1c3.2,3.6,6.7,12.1,12.8,12.1c5.9,0,9.5-8.8,12.8-12.1c5.2-0.5,11.3,7,17.5,4c6.1-2.9,3.1-14.8,5.2-16.9
			c2.3-2.2,14,0.9,16.9-5.4c2.9-6.1-4.7-12.1-4.1-17.3c0.9-1.8,12.2-6.3,12.1-12.8c-0.2-6.8-9-8.8-12.2-13.3
			c-0.9-3.2,13.7-19.3-4.1-21.1c-1.8-0.2-3.6-0.2-5.4-0.4c-2.5-0.2-3.4-0.2-4-2.2c-1.8-8.1,1.8-22.1-15.8-13.5
			c-3.4,1.6-5,3.2-7.6,0.4c-2.9-3.4-5.9-11.3-12.4-10.4c-5.8,0.9-7.7,8.6-11.5,11.5c-3.1,2.5-10.8-6.1-17.1-3.8
			C56.3,27.8,58.8,37.2,56.9,43.1z"/>
		<path class="st0" d="M85.3,89.6c4-2,24.1-25.7,27.5-26.1c1.6-0.2,2.9,0.9,3.2,2.2c0.5,2.7-3.4,5.6-4.7,7c-4,4-7.7,7.7-11.7,11.7
			C86.4,97.7,87.3,99.6,80.8,93L69.1,81.3c-2.2-3.1,1.6-6.7,4.9-3.6c2,2,3.8,4,5.8,5.9C81.2,85.4,84,87.8,85.3,89.6z M56.7,80.4
			c1.1,18.9,17.3,34.2,37.6,33.3c18.9-0.9,34-17.3,33.3-37.4c-0.9-18.7-17.5-34.7-37.6-33.5C71.1,44,55.6,60,56.7,80.4z"/>
		<path class="st0" d="M54.7,148.6c2,4.5,4,8.6,6.1,13.1c1.1,2.2,1.6,5,4.5,4.7c2.2-0.2,3.2-3.1,4.3-5l14-23.9l-5.4-7.9
			c-5.2,1.4-11.2,7.2-17.8,3.4c-5.4-2.9-5-10.3-5.8-17.3l-2.7-0.2l-3.6,5.9c-1.3,2-2.3,4-3.6,5.9c-2.2,4-4.7,7.7-6.8,11.7
			c-1.4,2.5-8.1,11.2,0,10.6C43.2,149.7,49.1,148.6,54.7,148.6z"/>
		<path class="st0" d="M115,161.7c1.1,1.8,2.2,4.9,4.5,4.9c2.7,0,3.2-2.9,4.3-5c2-4.1,4.1-8.6,5.9-13c5.6,0,11.7,1.3,17.3,1.3
			c7.6,0.2,1.1-8.3-0.4-10.6c-2.2-4-4.7-7.9-7-11.9l-7-11.7l-2.7,0.4c-1.3,4.3,0.9,13.3-5.9,17.1c-5.4,3.1-13.1-1.1-17.5-3.4
			c-0.9,0.5-5.2,6.5-5.9,7.9L115,161.7z"/>
	</g>
</g>
</svg>
