<?xml version="1.0" encoding="utf-8"?>
<!-- Generator: Adobe Illustrator 23.0.3, SVG Export Plug-In . SVG Version: 6.00 Build 0)  -->
<svg version="1.1" id="Layer_1" xmlns="http://www.w3.org/2000/svg" xmlns:xlink="http://www.w3.org/1999/xlink" x="0px" y="0px"
	 viewBox="0 0 184.3 184.3" style="enable-background:new 0 0 184.3 184.3;" xml:space="preserve">
<style type="text/css">
	.st0{fill:#FFFFFF;}
</style>
<g id="Layer_x0020_1">
	<path class="st0" d="M106.1,114.4c2.2,4.3,28.1,29.2,35.1,36c3.1,3.2,8.6,10.1,15.8,4.9c11-7.9-5.2-19.3-13.9-28.3
		c-6.3-6.5-18-19.4-24.7-24.3C114,104.2,108.1,111,106.1,114.4z M98.2,79.2l9.7,10.1c7.9-7.6,13.1-13.7,22.7-21.2
		c-1.8-1.8-3.8-2.9-6.1-5c-2.9-2.9-2.7-3.1-5-6.5L109.3,68C105.4,71.8,101.6,75.2,98.2,79.2z M57.5,120c2.3,2.7,3.1,2.2,5.4,4.5
		c2.7,2.7,1.4,2.9,4.3,5.4c5-5,22.3-20.9,24.8-25.7L83,95C80.7,96.3,59.8,116.4,57.5,120z M43.8,131.5c0.9-0.5-1.6-1.4,4.3-1.4
		c9.7,0,12.4,13.9,4,17.8c-5.8,2.5-11.7-0.4-13.3-4.9C35.5,134.1,42.4,132.3,43.8,131.5z M41.6,122.7c-21.6,7.6-11.2,40.3,11,33.7
		C75.3,149.7,64.3,115,41.6,122.7z M158.6,41.2c-1.8,1.8-9.4,9.9-11.2,10.8c-5.9,3.2-12.1-4.3-13.5-7.9c0.5-7.2,8.1-9.9,11.5-16
		c-9.2,0.4-18.5,3.4-22.3,8.6c-5,7.2-1.8,18.4,2.7,23.2C137.4,72.3,160.1,66.4,158.6,41.2z M60.4,66.6l43.2,43.6l10.1-9.2
		c-2.5-4.1-16.6-17.3-21.1-21.8c-4.9-4.9-17.6-19.4-22.9-21.6L60.4,66.6z M23.6,63.3l10.6,11.2c1.4-1.4,4.1-3.6,5.2-5
		c9.2-11.7,0-7.7,17.6-5l11-11.2l-6.5-8.1C64.7,35.1,74.8,34,86.5,33.8c-8.3-12.1-28.4-6.3-37.3,1.3c-3.6,3.1-10.6,9.4-12.1,14.2
		C33.2,61.9,29.8,53.1,23.6,63.3z"/>
</g>
</svg>
