<?xml version="1.0" encoding="utf-8"?>
<!-- Generator: Adobe Illustrator 23.0.3, SVG Export Plug-In . SVG Version: 6.00 Build 0)  -->
<svg version="1.1" id="Layer_1" xmlns="http://www.w3.org/2000/svg" xmlns:xlink="http://www.w3.org/1999/xlink" x="0px" y="0px"
	 viewBox="0 0 184.3 184.3" style="enable-background:new 0 0 184.3 184.3;" xml:space="preserve">
<style type="text/css">
	.st0{fill:#FFFFFF;}
</style>
<g id="Layer_x0020_1">
	<g id="_2429380162288">
		<path class="st0" d="M94.8,141.7H79c-3.1,0-2.2-2.2-1.1-2.2h18C97.1,139.6,97.7,141.7,94.8,141.7z M72.1,133.1h29.5
			c0.7,0,3.2,3.2,3.6,4H68.3C68.9,136.3,71.2,133.1,72.1,133.1z M25.3,137.2c0,4.1,3.1,6.8,6.5,6.8H142c3.1,0,6.3-3.1,6.3-6.8
			c0-0.7-4.9-6.1-5.6-7c-0.5-0.5-5.6-6.5-5.6-7v-22h-6.8v14c0,2.3-1.6,4-4,4h-79c-2,0-4-1.6-4-3.4V67.2c0-1.1,0.7-2,1.4-2.5
			c0.9-0.5,1.8-0.9,3.2-0.9h44.6v-4.1H41c-4.5,0-4.5,4.5-4.5,7v55.1c0,2.2-0.2,2.2-3.2,5.6l-5.4,6.3
			C27.5,134.4,25.3,136.7,25.3,137.2z"/>
		<polygon class="st0" points="134.8,64.3 158.9,64.3 158.9,40.2 134.8,40.2 		"/>
		<polygon class="st0" points="127.4,96.6 147,96.6 147,76.8 127.4,76.8 		"/>
		<polygon class="st0" points="115.1,73.5 131.5,73.5 131.5,57.3 115.1,57.3 		"/>
		<polygon class="st0" points="118,53.2 129.5,53.2 129.5,41.7 118,41.7 		"/>
		<polygon class="st0" points="97.7,73.5 109.2,73.5 109.2,62 97.7,62 		"/>
		<polygon class="st0" points="102,87.9 113.5,87.9 113.5,76.4 102,76.4 		"/>
		<polygon class="st0" points="112.3,100.3 123.8,100.3 123.8,89 112.3,89 		"/>
		<polygon class="st0" points="79.1,103 89,103 89,93.1 79.1,93.1 		"/>
		<polygon class="st0" points="85.1,90.1 94.8,90.1 94.8,80 85.1,80 		"/>
		<polygon class="st0" points="94.4,101.8 104.2,101.8 104.2,92.1 94.4,92.1 		"/>
	</g>
</g>
</svg>
