<?xml version="1.0" encoding="utf-8"?>
<!-- Generator: Adobe Illustrator 23.0.3, SVG Export Plug-In . SVG Version: 6.00 Build 0)  -->
<svg version="1.1" id="Layer_1" xmlns="http://www.w3.org/2000/svg" xmlns:xlink="http://www.w3.org/1999/xlink" x="0px" y="0px"
	 viewBox="0 0 184.3 184.3" style="enable-background:new 0 0 184.3 184.3;" xml:space="preserve">
<style type="text/css">
	.st0{fill:#090A0E;}
	.st1{fill:#08090D;}
</style>
<g id="Layer_x0020_1">
	<g id="_2429456666880">
		<polygon class="st0" points="92.2,157.6 128.8,67.1 125.9,67.1 58.2,66.9 55.5,67.1 		"/>
		<path class="st0" d="M111.9,134.6c2.7-3.8,55.8-74.9,56.5-76.3c-10.1,2.2-20.3,5.2-30.6,7.6c-3.2,0.7-2.3,0.2-4.3,5.2l-18.9,47.3
			c-3.6,8.8-7.7,18.2-10.8,27L111.9,134.6z"/>
		<path class="st0" d="M15.9,58.3c1.1,2.2,32,43.4,32.2,43.7l32.2,43.4c-3.1-8.6-7.2-18.2-10.8-27.2s-7.2-18-10.8-27.2l-8.3-20.5
			c-1.4-3.6-0.5-4-4.3-4.9C36.1,63.3,25.8,60.4,15.9,58.3z"/>
		<path class="st1" d="M92.1,27.3c-1.4,1.1-2.9,2.9-4.3,4.3L66.7,52.5c-1.8,1.8-7.4,6.8-8.5,8.6l67.7-0.2L92.1,27.3z"/>
		<path class="st1" d="M130.2,57.4l0.4-0.5c0.5-1.3,1.1-11.7,1.3-13.3c0.2-3.8,1.1-10.3,0.9-13.9l-32.6-3.1c0.5,0.9,1.1,1.1,1.6,1.8
			c2.5,2.9,17.8,18.2,21.1,21.1C124.3,51.2,129.1,55.7,130.2,57.4z"/>
		<path class="st1" d="M51.6,29.6l2,27.7c0.9-0.5,0.5-0.2,1.3-0.9c0.4-0.4,0.5-0.5,0.9-0.9L69,42.1c2.2-2.2,14.2-13.9,15.1-15.5
			L51.6,29.6z"/>
		<path class="st1" d="M136.3,60.2l32-7.9c-0.7-0.9-28.8-19.6-29.9-20L136.3,60.2z"/>
		<path class="st1" d="M15.9,52.1l32,8.1l-2.2-27.7c-1.1,0.2-6.3,4-7.6,4.7C35.4,39,16.8,51.1,15.9,52.1z"/>
	</g>
</g>
</svg>
