<?xml version="1.0" encoding="utf-8"?>
<!-- Generator: Adobe Illustrator 23.0.3, SVG Export Plug-In . SVG Version: 6.00 Build 0)  -->
<svg version="1.1" id="Layer_1" xmlns="http://www.w3.org/2000/svg" xmlns:xlink="http://www.w3.org/1999/xlink" x="0px" y="0px"
	 viewBox="0 0 184.3 184.3" style="enable-background:new 0 0 184.3 184.3;" xml:space="preserve">
<style type="text/css">
	.st0{fill:#221E1F;}
</style>
<g id="Layer_x0020_1">
	<path class="st0" d="M117.5,25.2c-2-0.9-2-1.3-3.6-1.8c-1.1,7.4,1.4,7.2,6.1,9.4c-3.8,3.6-6.1,4.7-9,10.3
		c-2.7,5.6-2.7,9.2-4.3,14.8c-2.9,9.7-4.9,7-14.8,14c-11,7.7-6.8,10.6-16.9,12.6C67.3,86,64.3,86,62.6,78.6c-2-9-4-6.8-8.1-11.2
		c-1.1-1.1-1.3-1.6-2.3-2.5c-5.2-4.9-3.1-4.3-6.5-8.6c-2.9,1.3-3.1,3.1-2.9,6.7c-2.7,1.8-4,0.9-1.6,7.2c-4,2.5-0.9,2.2-2.2,5.4
		c-3.2,7.6-1.3,5.2-1.6,11.2c-0.4,4.9-1.3,6.7,1.4,13.7c0.5,1.4,0.5,1.1,1.3,1.8c4.9,4.1-0.2,3.4,7.6,8.1c7,4.3,1.3,3.1,5.6,7
		c3.2,3.1,6.3,2,8.1,4c3.2,3.6,1.3,3.4,5.9,6.3c-2.2,6.8-0.5,3.6,1.8,7.4c1.6,2.7-1.1,1.8,6.8,5.2c6.8,2.9,14.2,2.5,21.6,1.3
		c0.9,2.9,2.5,2.9,3.1,6.3c-2.2,0.5-2,0.2-3.6,1.6c2,0.9,3.4,0.7,5.6,0c1.4,3.8,3.6,4.7,1.1,8.1c-3.4,0.9-3.6-1.6-5.6,2.2l5,1.1
		c2.9-0.4,2.9-2.2,6.1-2.2c0.5,0,13.3,3.1,13.5,3.1c-1.3-2.5-1.3-1.1-2.7-3.2c2.7-0.5,2.7-0.7,4.9,0.5c-0.5-1.4-0.2-2.2-5-3.1
		c1.4-1.8,4.5-1.8,0.9-2.2c-2.9-0.2-11.9,5.2-13.9-4c10.8-0.9,9.4,2.5,13.1-0.9c1.1-0.9,0.9-0.5,2.5-0.7l-1.3-2c0,0,1.4-1.1-2-0.9
		c-2.5,0.2-4.5,1.3-8.1,1.3c-2.7-2-4.7-4.1-5.4-8.3l5.8-4.9c1.8-2.2,3.2-5.8,3.8-8.8c2,1.6,6.8,3.2,9.2,0.7c0.9-0.9,3.4-7.6,4.1-9
		c5.8-13.5,16.2-17.8,11.7-40c-2.5-11.9-4.7-12.2-8.1-18.9c4.3,1.1,7.2,1.1,9.4-2c3.6-5-1.1-6.5,0-9.4c1.1-2.2-1.1-0.7,2.2-1.6
		c0.9-0.2,2.3-0.4,3.2-0.5c-2.7-4-0.9,0.2-7.2-4.7c0.7-9.7-1.1-8.5-4.7-11.5c-3.6,1.1,2.3-1.6-0.7,0.5c-1.6,1.3-0.2,1.6-1.6,0.4
		c-1.3-1.1,0-1.1-2-2.7c-1.1,1.3-0.9,0.5-0.9,2.9c-3.4-2-2.7-4.5-7.7-5.9l0.5,3.8c-2-2.2-1.8-3.2-5.2-4.1V25.2z"/>
</g>
</svg>
