<?xml version="1.0" encoding="utf-8"?>
<!-- Generator: Adobe Illustrator 23.0.3, SVG Export Plug-In . SVG Version: 6.00 Build 0)  -->
<svg version="1.1" id="Layer_1" xmlns="http://www.w3.org/2000/svg" xmlns:xlink="http://www.w3.org/1999/xlink" x="0px" y="0px"
	 viewBox="0 0 184.3 184.3" style="enable-background:new 0 0 184.3 184.3;" xml:space="preserve">
<style type="text/css">
	.st0{fill:#010101;}
</style>
<g id="Layer_x0020_1">
	<g id="_2429232614240">
		<path class="st0" d="M51.7,105.6h80.6v47H51.7V105.6z M44.9,125.5H31.8V71.9h121v53.5h-13.1V98.7H44.9V125.5z M51.7,31.6h53.5
			v26.1c0,0.7,0.2,0.9,0.9,0.9h26.1v6.3H51.7V31.6z M112.2,34.8l17.1,16.9l-17.1,0.2V34.8z M44.9,65.1H32.3c-4,0-7.6,2.9-7.6,7v53.3
			c0,2,0.7,4,1.6,5c0.9,1.1,2.7,2.2,4.7,2.2h13.9v27.2h94.5v-27.2h13.9c3.8,0,6.3-3.4,6.3-7.4V71.9c0-4-3.6-7-7.6-7h-12.6V52.3
			c0-0.9-0.9-1.4-1.6-2l-8.6-8.6c-0.7-0.7-0.9-1.3-1.6-1.8c-2.2-2.2-14.8-15.3-15.8-15.3H44.9V65.1z"/>
		<path class="st0" d="M58.4,126.4v5.9h67.3c0-4.3,0.7-7-0.9-7H59.3C58.6,125.5,58.4,125.7,58.4,126.4z"/>
		<polygon class="st0" points="58.4,119.2 125.7,119.2 125.7,112.2 58.4,112.2 		"/>
		<polygon class="st0" points="58.4,146.1 125.7,146.1 125.7,139 58.4,139 		"/>
		<path class="st0" d="M132.4,81.8c0,5.6,7,4.5,7,0.4C139.4,77.5,132.4,77.5,132.4,81.8z"/>
		<path class="st0" d="M118.9,82c0,4.7,7,4.1,7,0.4C125.7,77.1,118.9,77.7,118.9,82z"/>
	</g>
</g>
</svg>
