<?xml version="1.0" encoding="utf-8"?>
<!-- Generator: Adobe Illustrator 23.0.3, SVG Export Plug-In . SVG Version: 6.00 Build 0)  -->
<svg version="1.1" id="Layer_1" xmlns="http://www.w3.org/2000/svg" xmlns:xlink="http://www.w3.org/1999/xlink" x="0px" y="0px"
	 viewBox="0 0 184.3 184.3" style="enable-background:new 0 0 184.3 184.3;" xml:space="preserve">
<g id="Layer_x0020_1">
	<g id="_2429393510528">
		<path d="M57.9,59.2H32.7v7.2h3.2c0.5,2,0.9,12.4,1.3,15.5c0,0.9,0.2,0.7,0.2,1.6l0.7,10.6c0,1.1,0.2,0.7,0.2,1.6
			c0.2,1.6,0,2.9,0.4,5.2c0.5,4.1,0.5,8.6,0.9,12.4l1.3,15.8c0,0.9,0.2,2.5,0.4,3.4l1.1,14c0,2.2-0.5,2.3,1.6,2.3
			c10.1-0.2,20.2,0,30.2,0c-0.7-1.3-4.1-2.9-7.2-8.8c-2.2-4-0.7-3.8-3.2-4.7c-0.7-0.2-1.3-0.5-1.8-0.9c-2.2-1.3-3.8-3.6-4.7-5.9
			c-2.5-7,0.9-14.9,7.4-16.9c2.3-0.7,1.1-0.4,3.1-4c3.4-5.9,9.7-11,16.9-11c0.4-1.3,0.2-2.2,0.4-3.6c0.2-1.1,0.4-3.1,0.4-4
			c0.2-3.8,0.9-8.6,0.9-11.5c0.2-3.2,0.9-9.7,0.9-11.7h3.6v-7.2H62.9c0-6.7,2-10.6,6.3-14.8c1.6-1.4,4.1-2.9,6.5-3.6
			c3.1-0.9,5-0.4,6.3-1.1c1.3-0.7,2.7-4.9-2.9-4.3c-5.2,0.5-9.7,2-13.5,5.8c-2.7,2.7-3.6,4-5.4,7.4C58.8,51.5,57.9,56,57.9,59.2z"/>
		<path d="M136.9,128c-4.9,0-8.6-5-13.9-4.3c-5.9,1.1-10.4,8.8-19.8,3.4c-2.9-1.8-3.6-2.5-6.8-2.5c-5.8,0-8.6,5.8-13.5,2.5
			c-2.9-2-4.1-3.4-8.5-3.4c-2,0-3.6,0.9-4.9,2c-1.8,1.6-2.5,3.2-3.6,3.2c-0.9,0-1.6-0.9-1.6-1.8c0-1.1,0.9-1.6,1.4-2.5
			c0.4-0.5,0.4-0.5,0.9-0.9c3.2-2.5,4-3.4,8.5-3.4c4.9,0,6.8,4,11.2,4c2.5,0,4.5-3.2,8.3-3.2c4.5,0,4.3-0.2,8.5,2.3
			c6.7,4,10.1,1.3,14.6-1.4c7.9-4.7,11.9,0.9,17.1,2.3c4.7,1.3,6.3-2.9,8.3-2.9c0.9,0,2.9,1.6,0.7,3.2C142.3,126,140,128,136.9,128z
			 M59.9,123.1c0,2.9,0.2,5.2,2.3,7.4c1.4,1.4,3.2,2.2,5.9,2.2h75.1c5.2,0,8.3-3.4,8.3-7.7v-0.4c0-2.9,0-4.9-2.2-7.2
			c-1.3-1.4-3.1-2.3-5.6-2.3h-76C62.8,115.2,59.9,119,59.9,123.1z"/>
		<path d="M84,148.7h42.8c6.7,0,11.9-4.3,14.6-9.7c0.5-0.9,0.7-1.6,1.3-2.5H68.9c2,3.8,1.6,4.1,5.6,8.3
			C76.3,146.5,80.2,148.7,84,148.7z"/>
		<path d="M69.8,111.4h71.8c-0.2-2.3-4.1-6.3-5.9-7.6c-2.5-2.2-5.8-3.1-10.4-3.1H86.2c-6.7,0-9.7,1.8-13.9,6.5
			C71.6,108,70.1,110.3,69.8,111.4z"/>
	</g>
</g>
</svg>
