<?xml version="1.0" encoding="utf-8"?>
<!-- Generator: Adobe Illustrator 23.0.3, SVG Export Plug-In . SVG Version: 6.00 Build 0)  -->
<svg version="1.1" id="Layer_1" xmlns="http://www.w3.org/2000/svg" xmlns:xlink="http://www.w3.org/1999/xlink" x="0px" y="0px"
	 viewBox="0 0 184.3 184.3" style="enable-background:new 0 0 184.3 184.3;" xml:space="preserve">
<style type="text/css">
	.st0{fill:#221E1F;}
</style>
<g id="Layer_x0020_1">
	<path class="st0" d="M24.2,50.1c-5.9-0.2-3.4-1.3-7-1.6c-3.2-0.2-4.9,0.2-7.2-1.4c0.9,5.9,6.8,1.8,8.3,5.9l-4,1.6l1.1,1.4
		c-5.4,5.2-1.4,7.2-6.8,14.8c-1.4,2-2.9,2.2-4,3.4c-0.9,2.2,2.9,9.2,12.1,4.5c3.2-1.6,4.7-0.9,7.6,0.5c8.3,3.4,11.5,5.4,15.5,14.2
		c1.1,2.2,2.2,4.7,3.2,6.5c2.5,4.1,4,3.1,5.6,4.7c2,2.7,0.5,5.6,0.2,8.5c-0.7,4.7,2.7,5.9-0.7,13.3c-0.9,2-1.6,2-2.3,2.9
		c-1.1,1.8,1.6-0.9-1.1,2c-0.9,0.9-1.6,2-2.2,3.4c2.9,0.5,6.7,0.5,9.2-1.3c1.3-0.9,1.3-0.9,1.3-2.9c1.4,0.7,0.7,1.1,1.4,0.9
		c2.5-4.3,0.4-9.4,1.8-13.9c1.4-4.1,2.9-7.2,4.1-11.7c2.2,3.8,1.1,5.4,2.2,8.8c0.9,3.1,3.6,2.9,3.4,7.9c-0.2,5.6-2.7,9.5-2.7,10.3
		c0,0.4,0.7-0.2-0.7,1.1c-1.4,1.4-2,1.8-1.6,4.5l2.2-0.5c1.1,1.4,1.6,2,5.6,0.9c1.8-0.5,2.3-2,3.8-2.9l0.2-0.2l-0.9-4
		c0.4-0.4,0.5,0.4,1.3,0c-0.5-3.6-2.2-11.2-1.8-14.4c0.4-2.5,1.6-3.6,0.9-6.7c-0.9-3.2-1.4-2.3-0.5-6.3c7.9-1.3,16.2-3.1,24.7-2.2
		c8.1,0.9,16.9-0.5,24.1-2.7c0.9,2.2,4,4.7,7.6,5.4l0.2,2.7c2.5-0.5,0.5-0.9,2.2-1.6c0.2,1.3,0,2.3,0.5,3.2c1.4-0.2,1.3-1.3,1.3-2.9
		l3.2,0.5c0.2,3.6,0.7,3.1,0,7.2c-2.5,12.1-6.1,9-7.4,12.1l-0.5,1.4c-0.7,1.3-0.9,1.6-1.4,3.1c1.4,2.3,7.4,1.6,9.5,0.2
		c1.3-0.9,0.5-1.1,0.7-2.9c0,0,0.5-0.2,0.7-0.2c0.7-0.5,1.1-1.3,2-1.6c1.1-4.9,4.7-17.3,7.4-19.4c0.9,1.1,0.7,1.4,1.8,2.5
		c1.4,1.3,1.3,0.7,1.6,2.9c0.7,8.1-0.9,8.3-1.6,11.9c-0.2,0.9,0.5-0.5-0.4,1.1c-0.7,1.1-2.5,2.9-2.7,4.3c-0.2,1.6,1.3,2,2.3,1.1
		l0.5,1.3c2.7,0,4.9,0.2,6.5-2c0.5-0.7,0.2-0.2,0.9-0.4c-0.5-4,0.5-3.8,0.4-6.8c-0.9-8.1,2.3-18.5,1.8-22c-0.2-0.9-2.2-3.8-3.1-5
		c-1.1-1.8-1.8-3.4-2.5-5.4c-1.4-3.2-3.6-9.4-2.3-13.3c1.6,0.5,1.4,0.9,2.5,2.2c6.8,7.7,14-2.5,16.7,4.3c1.4,3.8-1.6,4.3-0.5,7.9
		l0.5-1.6c1.1,2.3,0.7,4,2.9,4.9l-0.7-2c3.1,1.3,6.7,2.9,9.2,0.2c-1.8-1.3-3.8-1.4-5.6-3.1v-0.2c0,0.2,0.2-0.4-0.2-1.1
		c-2.7-4.3-1.3-0.7-3.1-5.8c-3.2-9.9-18.2,5.2-19.4-15.3c-0.5-8.3,0.4-15.1-9.5-13.7c-3.2,0.5-7.2,1.3-10.6,1.1
		c-4.9-0.2-1.4-2.7-9,0.2c-4.9,1.6-16.4,2.2-21.8,1.8c-7.2-0.5-13.9-3.2-21.2-1.4c-1.6,0.4-2.5,1.3-4.1,0.9
		c-1.6-0.4-2.9-1.1-4.9-1.3c-1.8-0.2-3.2,0.9-10.8,0.5c-8.3-0.5-15.3,0.2-23.2,0.2c0.7-1.6,1.3-4-0.2-5.4c-1.1,0.4,0-0.2-0.9,0.5
		c-0.7,0.5-1.4,1.3-2.7,1.6c-1.1-0.5-1.3-1.3-2.3-2c-1.1-0.7-1.8-1.1-2.9-1.8c-0.7-0.5-1.6-1.3-2.5-1.6l-2.5-2
		C22,47,23.3,48.6,24.2,50.1z"/>
</g>
</svg>
