<?xml version="1.0" encoding="utf-8"?>
<!-- Generator: Adobe Illustrator 23.0.3, SVG Export Plug-In . SVG Version: 6.00 Build 0)  -->
<svg version="1.1" id="Layer_1" xmlns="http://www.w3.org/2000/svg" xmlns:xlink="http://www.w3.org/1999/xlink" x="0px" y="0px"
	 viewBox="0 0 184.3 184.3" style="enable-background:new 0 0 184.3 184.3;" xml:space="preserve">
<g id="Layer_x0020_1">
	<g id="_2429232448624">
		<path d="M58.4,48.6h39.8v30.1h-0.5H58.9h-0.5C58.4,78.6,58.4,48.6,58.4,48.6z M123.2,63.2c-0.5-1.1-4.1-5.8-4.3-6.3
			c0-0.4,0.5-4.5,0.5-4.7c0.2-0.4,3.4-1.1,4-1.3l6.1,10.8c-0.4,0.4-3.4,1.6-4,1.8L123,52.7H120v2.3h1.3L123.2,63.2z M42.9,147.8v6.7
			h70.9v-6.7h-4V88.2h2.3v-2.5c1.1,0.5,2.3,2.2,2.9,3.4c0.9,1.8,0.7,3.6,0.7,5.6v37.6c0,2.9,0.4,5,1.8,7.4c2.2,3.4,5.8,5.6,9.9,5.8
			c2,0,3.8-0.2,5.6-0.7c1.8-0.5,2.7-1.3,4-2.3c1.1-0.9,2-2,2.9-3.4c1.3-2.3,1.1-3.8,1.4-4.7v-21.6c-0.2-0.5-0.5-11.9-0.7-13.5
			c-0.9-13-2.5-23.8-6.3-36.2l0.4-0.5c-0.5-0.5-1.3-2.5-1.8-3.2c-1.1-2-6.1-12.2-6.8-13l-7.7-7c-0.4,0.2-0.2,0.2-0.7,0.4
			c-0.4-0.5-0.4-0.5-0.9-0.9l-2.5-2.3c-1.3-1.1-2-2-3.8-3.1c-1.4-0.9-3.1-1.3-4.9-1.8c-1.1-0.4-4.3-1.3-4.9-1.8h-0.2l-0.9,3.1
			c0.9,0.5,7.4,2.2,9.2,3.4c0.9,0.5,6.3,5.2,6.7,5.8l-0.5,0.5c0.9,2.2,1.3,0.9,0,3.2c-0.4,0.9-1.3,2.5-1.6,3.4
			c-0.2,0.7,1.6,2.3,1.6,3.2c0,0.7-0.4,1.6-0.2,2.2l9.5,12.8l5.4-2.5c0.5,0.7,2.2,6.7,2.5,8.1c4.9,18.4,4.5,39.6,4.5,58.7
			c0,1.8,0,3.1-0.7,4.7c-3.1,6.8-13.7,6.3-15.8-1.1c-0.5-2-0.4-7.7-0.4-10.3l0.2-31.3c0-3.6-0.5-5.9-2.2-8.5
			c-1.3-1.8-3.2-3.6-5.8-4.7V77h-2.2c-0.2-2.2,0-4.7,0-6.8V50.4c0-4.3,0.9-8.5-2.2-11.3c-3.2-3.1-6.1-2.3-11.2-2.3H56.2
			c-2.3,0-4-0.2-5.9,0.7c-4.3,2.3-4.1,5.9-4.1,9.5v87.3c0,4.3,0.2,9.2,0,13.5H42.9z"/>
		<path d="M67.6,63.9c-0.2-0.2,0,0-0.2,0c0.2,0.5,0.9,1.4,1.3,2c0.5,0.7,0.9,1.3,1.4,2s0.9,1.3,1.4,2c0.5,0.7,0.9,1.3,1.4,2
			c-0.9,0.7-3.4,1.8-4.7,5.2h19.3c-0.7-2.2-2.9-4.3-4.9-5.2c-2.5-1.3-5.6-1.4-8.3-0.5l-1.8-1.8C72.3,68.9,67.9,64.1,67.6,63.9z"/>
	</g>
</g>
</svg>
