<?xml version="1.0" encoding="utf-8"?>
<!-- Generator: Adobe Illustrator 23.0.3, SVG Export Plug-In . SVG Version: 6.00 Build 0)  -->
<svg version="1.1" id="Layer_1" xmlns="http://www.w3.org/2000/svg" xmlns:xlink="http://www.w3.org/1999/xlink" x="0px" y="0px"
	 viewBox="0 0 184.3 184.3" style="enable-background:new 0 0 184.3 184.3;" xml:space="preserve">
<style type="text/css">
	.st0{fill:#FFFFFF;}
</style>
<g id="Layer_x0020_1">
	<g id="_2429223022976">
		<path class="st0" d="M104.3,126.5c2-3.2,4.1-6.5,5.4-10.8l7.9,2.5C115.1,121.8,109.5,124.9,104.3,126.5z M67.2,118.2
			c2.2-1.6,4.7-2.3,7.7-2.3c2,3.8,3.8,7.4,5.4,10.6C74.6,124.7,70.2,121.8,67.2,118.2z M79.2,114.5c10.1-0.7,16.2-1.6,26.3,0.2
			c-1.3,5.9-6.3,13.7-13,14C85.5,129,80.7,120.9,79.2,114.5z M121.2,114.5l-9.7-2.9l2.5-17.1l14.9-0.4
			C128.2,102.2,125.7,109.4,121.2,114.5z M55.8,94.3l15.3-0.2l2,17.3l-9.9,3.4c-1.3-2.9-3.2-5.4-4.9-9.2
			C56.7,101.5,56.2,98.6,55.8,94.3z M77.1,73.8c12.4,0.5,17.5,1.4,30.1-0.2l2.7,16.6H98.3L98,94.3h11.5l-2.2,16.4
			c-18.5-1.8-11.7-1.6-30.1-0.2l-2.7-16l11.7-0.4v-4L75.1,90L77.1,73.8z M70.6,90.2H56c-0.5-3.2,0.9-8.1,2-11c1.6-4.3,3.8-6.7,5-9.5
			l10.1,3.2L70.6,90.2z M111.6,72.7l9.9-3.2c3.8,7.2,6.5,9.9,7.4,20.7h-15.1L111.6,72.7z M105.7,69.6c-8.5,1.3-18.2,1.6-26.8-0.2
			C85,50.9,99.6,51.6,105.7,69.6z M104.4,57.9c5.6,1.3,10.4,5,13.1,8.1l-8.1,2.9C108.8,65.1,106.2,60.6,104.4,57.9z M74,68.6
			l-6.5-2.3C67.4,66,67.2,66,67,65.9c3.4-3.1,7-6.7,13-7.9C79.6,59,75.3,67.5,74,68.6z M91.1,132.6c46.4,0,57.2-60.3,17.3-77.9
			C92.2,47.5,72.8,54,63.6,63C39.5,86.7,54.8,132.6,91.1,132.6z"/>
		<path class="st0" d="M67.7,37.4c3.1,1.8,5.6,5.9,12.1,4c5.6-1.6,4.7-4.3,7.4-9l11,1.8c1.3,2.7,2.2,6.3,7.2,7.6
			c5.9,1.4,8.8-2,11.3-4.1c4.1,2,7.4,4.3,11,5.9c-1.1,9.4,2.9,15.7,12.8,13.5c2.2,2.3,5.6,7.4,6.5,11.3c-6.7,7.4-6.3,15.8,5.2,18.5
			l-0.4,10.8c-4.7,2.2-7.4,2.5-8.8,7.2c-1.8,6.5,2.3,8.6,4,12.1c-1.6,4-4,7.7-6.1,10.6c-10.1-1.8-14.6,2.9-13.1,13.5
			c-2.9,1.3-7,4.1-11,5.9c-2.5-2-5.8-5.8-11.7-4c-4,1.1-6.7,5.9-7.7,9l-9.5-0.4c-1.4-1.6-1.8-4-3.2-5.6c-6.7-8.6-16,0.7-16.4,0.9
			c-4.1-2-7.4-4.3-10.8-5.9c1.4-9.7-3.2-15.5-13.1-13.3c-2-3.4-4.3-6.1-6.1-10.6c1.4-3.4,12.2-13-5.2-19.3L33,87.3
			c4.5-1.6,7.7-2.3,9-7.2c1.6-6.1-1.4-9-4-11.5c0.9-2.7,2.5-5.6,3.8-7.7c2.7-4.7,1.8-2.9,7-3.1c7.4-0.2,9.4-6.3,8.6-13.9
			C60,42.1,64.5,39.4,67.7,37.4z M114.2,32.2c-2.2,2.3-2.7,6.8-8.1,5.4c-4.5-1.3-4-4.9-3.8-8.6c-7.9-0.9-12.2-0.7-20.2-0.2
			c0.2,4.7-0.2,8.1-4.7,8.8c-5,0.9-5.2-3.4-7.4-5.6c-3.6,1.4-6.7,2.7-9.9,4.5c-3.4,2-5.9,4.3-8.6,5.8c6.5,15.5-8.5,9.5-9.4,9.2
			c-2.2,5-8.6,11.5-9.7,18.9c3.1,1.8,6.3,2.9,5.2,7.6c-1.1,5-6.8,4-8.6,4.9c-0.7,5.6-1.3,12.8,0.2,18.4c1.6,1.3-0.4,0.2,1.8,0.7
			c1.6,0.4-0.4-0.2,1.4,0.2c7.9,1.6,7.4,9.7-0.2,11.3c1.8,7.4,6.8,14.4,10.4,19.3c2.9-0.9,5.6-3.2,8.8-0.4c3.1,2.7,1.3,6.1,0.4,9
			c3.4,3.6,12.6,8.5,18.4,10.6c2-1.8,2-7,8.3-5.4c4,1.1,4.1,4.7,3.4,8.3c7.4,1.4,13.1,1.1,20.5,0.2c-0.9-6.7,0.7-9.4,8.1-8.5
			l3.4,5.2c7.4-2,13.5-6.5,18.5-10.6c-1.3-3.2-2.7-6.8,0.7-9.4c3.6-2.5,5.4-0.4,8.3,0.7c3.4-5.2,8.6-11.7,10.4-19.4
			c-3.2-0.7-6.3-2.7-5.6-7.2c0.9-4.7,4-3.6,8.6-4.3c0.9-7.4,0.9-12.1,0-19.6c-4.3-0.5-7.7,0.4-8.6-4.3c-1.1-5.4,2.3-5.8,5.2-7.6
			c-1.1-5.8-7.2-15.7-10.4-18.9c-2.9,1.4-5.6,3.2-8.8,0.4c-3.6-3.2-0.9-6.1-0.2-9C128.6,38.9,120.3,34.2,114.2,32.2z"/>
		<polygon class="st0" points="90.4,94.1 94.2,94.1 94.5,91.2 94,90 90.8,90.2 		"/>
	</g>
</g>
</svg>
