<?xml version="1.0" encoding="utf-8"?>
<!-- Generator: Adobe Illustrator 23.0.3, SVG Export Plug-In . SVG Version: 6.00 Build 0)  -->
<svg version="1.1" id="Layer_1" xmlns="http://www.w3.org/2000/svg" xmlns:xlink="http://www.w3.org/1999/xlink" x="0px" y="0px"
	 viewBox="0 0 184.3 184.3" style="enable-background:new 0 0 184.3 184.3;" xml:space="preserve">
<style type="text/css">
	.st0{fill:#FFFFFF;}
</style>
<g id="Layer_x0020_1">
	<path class="st0" d="M87.7,58.4L83,58.6c-3.6,0.2-5.4,1.6-7.7,3.1c-0.9,0.7-0.7,0.9-1.8,1.4c-0.2,0.4,0,0.2-0.2,0.7
		c-0.2,0.2-0.5,0.5-0.5,0.7c-0.5,0.7-0.7,0.9-1.1,1.6l-0.5,1.3C71,67.8,71,67.8,70.8,68l-0.7,4v23.4c2.5,0.2,8.5,4,9.9,5.2
		c0.9,0.5,1.3,0.7,1.8,1.3c0.7,0.5,1.1,0.9,1.4,1.6c0.4,0.2,0.2,0,0.7,0.4c0.5,0.5,0.2,0.2,0.4,0.5c1.1,0.5,0.7,0.9,1.8,1.6V82
		c0.2-2.5,1.4-3.8,3.8-4.1c4.5,0.2,48.2-0.2,49.9,0.2c4.5,1.3,3.1,8.8,3.1,13.5c0.2,11.2-0.2,22.1,0,33.3
		c0.2,19.1,0.7,15.5-17.6,15.7h0.2H94.2c-0.2,1.6-2.7,8.6-3.8,9.4l-1.6,2.7c-0.4,0.7-0.7,1.4-1.4,1.8c-0.4,1.3-0.5,0.9-1.4,1.8
		c-0.4,0.4-0.4,0.5-0.7,0.9c-0.7,0.7-0.2,0.4-1.1,0.9c0,0.5,0.7,0-0.5,0.5l60.1,0.4c3.4,0,6.8,0.2,10.3,0c3.6-0.2,4.9-1.8,4.9-5.2
		c0-13.5,0.2-27,0-40.5c-0.2-13.5,0.2-27.2,0-40.7c-0.2-1.8-0.5-3.6-1.3-5.2c-0.9-2-1.8-2.5-2.5-4c-0.5-0.4-0.4-0.2-0.5-0.7
		c-1.3-0.5-3.2-3.4-8.5-3.8c-0.9-0.2-1.8-0.2-2.9-0.2c-0.4,0-1.1,0-1.4,0c-1.1-0.2-0.4,0.2-0.9-0.4c-2,0.2-3.2-1.3-4-2.7
		c-0.7-1.6-0.4-4-0.4-5.9c-0.2-0.9,0.2-0.7-0.5-0.9H92C92,53.6,92.8,57.7,87.7,58.4z M85.9,24.6c0.2,4.5-1.3,11.3,0.5,15.1
		c0.9,0.5,0.5,0.2,0.9,1.1c0.5,0,0.2,0,0.7,0.2c0.2,0.2,0.5,0.2,0.7,0.4c1.4,0.5,31.5,0.2,33.3,0.2c3.1,0,15.7,0.4,17.5-0.4
		c2.5-1.1,2.7-3.1,2.7-6.3c0-3.1,0.2-6.3,0-9.2c-1.1-3.1-1.1-2.5-3.4-4H89.3c-0.9,0.5-0.9,0.2-2,1.1l-1.3,1.4
		C86.1,24.4,85.9,24.6,85.9,24.6z M51,100.2c-1.6,0.2-3.2,0.7-4.9,1.3c-1.1,0.4-3.1,1.6-4,1.6l-4,2.7c-0.7,0.5-0.7,0.2-0.7,1.1
		c1.3,0.9,9.2,9,10.8,10.6l26.8,26.8c0.9,0.9,1.6,1.6,2.5,2.5c0.9,0.9,2.2,2,2.3,2.7l1.4,1.1l1.1-0.7c0.2-0.7,0.9-1.6,1.4-2.3
		l1.1-1.4c0.2-0.9,1.4-3.2,1.8-4.7c0.5-1.6,1.1-3.2,1.3-5l0.5-2.7l0.2-4.3c-0.4-0.5,0,0.2-0.2-0.7c0-0.2-0.2-0.9-0.2-1.1
		c-0.2-0.7-0.2-1.3-0.4-2c-0.2-1.6-0.7-3.6-1.3-5c-0.5-1.3-1.6-3.2-1.6-4.3c-0.7-0.5-0.7-0.5-1.1-1.3c-0.4-0.7-0.5-0.9-0.7-1.4
		c-0.4-0.2-2.3-2.9-2.5-3.2c-0.7-0.5-0.9-0.7-1.3-1.6c-0.5-0.2-0.4,0-0.4-0.4l-4.1-3.1c-0.7-0.5-1.4-0.9-2.2-1.4
		c-0.7-0.4-1.6-0.7-2.2-1.3c-1.6-0.2-5.2-1.8-7.7-2.3c-3.1-0.5-6.1-0.7-9.4-0.4L51,100.2z M29.4,115.7c0,0.7-1.6,4-2.2,5.2
		c-0.5,1.6-1.3,4.1-1.4,5.9l-0.2,0.5l-0.2,6.7c0.5,0.5,0.5,2,0.5,2.9c0.2,1.6,0.7,3.1,1.3,4.5c0.5,1.3,1.6,3.4,1.6,4.3
		c0.9,0.7,3.2,5.2,7,8.6c2,1.6,4.7,3.1,5.2,4c1.3,0.2,4.3,1.8,5.9,2.5c0.9,0.4,2.2,0.5,3.2,0.9c1.3,0.2,2.9,0.2,3.8,0.7h5
		c2.7-0.9,5.2-0.4,10.8-2.9l3.2-1.4l0.4-0.5c0.7-0.4,0.2-0.2,0.9-0.5c0.9-0.5,0.2-0.2,0.9-0.4c0.5-0.9,0.2-0.2,0.9-0.9
		c0.5-0.7,0.5,0.4,0.4-1.1l-1.1-0.9c-0.9-0.4-0.4-0.2-1.1-0.7c-0.4-0.4-0.5-0.5-0.9-0.9c-0.7-0.7-1.1-0.9-1.6-1.8l-0.9-0.9
		c-1.1-0.5-2-1.6-2.5-2.5c-0.5-0.2-0.4,0-0.9-0.5c-0.5-0.5-0.5-0.5-0.7-0.9c-0.9-0.4-0.9-0.5-1.6-1.3c-0.7-0.7-0.9-0.7-1.3-1.6
		c-0.7-0.4-0.9-0.5-1.4-1.3c-0.5-0.5-0.9-0.9-1.3-1.4c-0.9-0.4-1.4-0.9-1.8-1.8c-0.7-0.4-1.4-1.3-1.8-1.8c-1.1-0.5-2.2-1.6-2.5-2.5
		c-0.5-0.2-0.5-0.2-1.1-0.7c-0.5-0.5-0.5-0.5-0.9-1.1c-0.7-0.4-0.9-0.5-1.6-1.3c-0.2-0.2-0.5-0.4-0.7-0.7c-0.5-0.5-0.2-0.4-0.5-0.9
		l-0.2-0.2c-0.9-0.5-3.4-2.9-4-4l-0.2-0.2c-0.7-0.4-0.5-0.2-1.1-0.7c-0.4-0.4-0.5-0.5-0.9-0.9c-0.7-0.7-1.1-1.1-1.6-1.8
		c-0.7-0.4-0.9-0.5-1.3-1.3c-0.9-0.4-1.1-0.7-1.6-1.4c-0.4-0.4-0.5-0.5-0.9-0.9c-0.5-0.5-0.2-0.2-0.5-0.9c-0.9-0.2-0.4-0.2-0.4-0.4
		c-1.1-0.5-2.2-1.6-2.5-2.5c-0.5-0.2-0.4-0.2-0.9-0.5c-0.5-0.5-0.4-0.4-0.7-0.9c-0.9-0.5-0.7-0.7-1.6-1.1
		C31,113.2,30.5,114.8,29.4,115.7z"/>
</g>
</svg>
