<?xml version="1.0" encoding="utf-8"?>
<!-- Generator: Adobe Illustrator 23.0.3, SVG Export Plug-In . SVG Version: 6.00 Build 0)  -->
<svg version="1.1" id="Layer_1" xmlns="http://www.w3.org/2000/svg" xmlns:xlink="http://www.w3.org/1999/xlink" x="0px" y="0px"
	 viewBox="0 0 184.3 184.3" style="enable-background:new 0 0 184.3 184.3;" xml:space="preserve">
<style type="text/css">
	.st0{fill:#FFFFFF;}
</style>
<g id="Layer_x0020_1">
	<g id="_2429343219200">
		<path class="st0" d="M154.9,101.2c-2.3-7.4-0.9-18.9-0.9-27.5c0-9.7-3.2-21.4,7-18.9c2,5.8,1.6,41.4,0.2,46.6L154.9,101.2z
			 M146.8,84.1c-0.9-1.3-0.5,0.2-1.3-2.2V71.7h5l-0.2,12.4C150.4,84.1,146.8,84.1,146.8,84.1z M38.5,110L28,110.2l-0.5-54.4
			C48.2,55.5,54.7,67.9,68.3,67c9.7-0.7,21.8-5.2,45.2-6.5c23-1.1,27.2,0,28.4,22.7c0.9,16.2,2.9,33.7,2.9,49.9h-38.7
			c2.9-26.5,21.2-46.3-15.8-48.2C34,82.1,48.5,86.1,38.5,110z M122.3,56.4c-23.6,3.2-19.3,0.5-50.6,6.5
			c-17.3,3.2-47.5-26.6-47.9-1.1l-0.2,31.5c-4.9-0.5,0.2-0.7-5.2-2.7c-1.3,3.1-0.5,1.8-2.7,4.5c1.1,2.3,2,3.6,3.1,5.4
			c5.9-2.2-1.1-2.2,5-2.7c-0.2,9.4-1.3,12.6,2.5,15.3l3.4,1.6c0.2,0.2,0.7,0.2,0.9,0.4c0,4.9-1.3,10.6,1.8,13.3
			c1.1-1.6,0.5-0.2,1.3-2.9l0.4-11.7l7.2-0.9c3.2-10.4,2.5-21.1,12.2-24.7c7.9-2.7,27.2-0.7,36-0.2c12.6,0.7,22.3,0,19.1,14.8
			c-1.3,5.8-5.2,25.7-7,29.3c-13.5,1.3-53.3,0.4-71.3,0.4c-8.6,0-17.3-2.7-18,5.9c7.2-1.1-0.5-1.3,7.4-2.2l143.8-0.2
			c9,0.7,0.9,1.6,8.3,2.3c-0.7-11.2-7.9-3.2-23.2-6.3c-0.4-6.8-4-41.6-1.8-44.8c9,0.4-0.7,11.7,6.8,16.4
			c10.1,6.3,11.3-4.9,12.2-11.2c6.1-1.6,4.3,1.3,5.8-3.6l-6.1-2.3c0-6.1,1.3-29-1.3-32.8c-2.3-3.6-8.6-4.5-11.9-0.9
			c-3.1,3.4-0.9,9.9-2.3,15.1c-14.2,0.2,0.5-7.4-23.8-11.9c-0.4-5,0.9-7.7-1.8-10.8C121.4,48.7,122.7,51.4,122.3,56.4z"/>
		<path class="st0" d="M130.8,102.1c-18.4,1.1-16.2-17.5-5.9-19.6c5.4-1.3,11.2,1.4,12.4,6.8C138.7,96.4,134.6,99.2,130.8,102.1z
			 M124,80.2c-16,4.5-9.5,28.4,7.2,24.1c5.8-1.6,10.3-8.8,8.1-16C137.6,82.5,131.5,78.2,124,80.2z"/>
	</g>
</g>
</svg>
