<?xml version="1.0" encoding="utf-8"?>
<!-- Generator: Adobe Illustrator 23.1.0, SVG Export Plug-In . SVG Version: 6.00 Build 0)  -->
<svg version="1.1" id="Layer_1" xmlns="http://www.w3.org/2000/svg" xmlns:xlink="http://www.w3.org/1999/xlink" x="0px" y="0px"
	 viewBox="0 0 184.3 184.3" style="enable-background:new 0 0 184.3 184.3;" xml:space="preserve">
<g id="Layer_x0020_1">
	<g id="_2429621531760">
		<path d="M94.8,45.5h4.4c0.9,1,0.3-0.3,1,1.6c3.8,8.6,1,27.2-4.1,37.1c-6,11.6-12.7,16.6-13.7,32.7h-5.3
			C79.1,86.7,101.8,92.7,94.8,45.5z M118.2,45.5h5.5c2.4,15.2,2.8,25.1-3.8,38.5c-3.7,7.4-10.4,16.1-12.6,22.5
			c-1.1,3.5-0.7,7.1-1.6,10.1l-5.3,0.4c1-15.9,7.8-21,13.6-32.4C121.6,69.7,120,62.4,118.2,45.5z M106.5,45.7
			c5.8-0.2,5.3-0.3,6.2,3.7c0.3,1.3,0.5,3.4,0.7,4.8c3.1,32.9-17.3,37.1-19.1,62.6l-5.3,0.3C90.9,86.2,113.2,93.6,106.5,45.7z
			 M126.8,41.9l-2.8,0.4H56.1l-2.8-0.3C66,10.8,114.1,10.8,126.8,41.9z M66.7,120.8l46.8,0.2c3.5-20.9-1-10.3,11.5-30.9
			c20-33.7,3.9-74.8-34.4-75.1C52.4,14.6,35.1,55,55.2,89.5c2.8,4.8,5.5,8.3,8.1,13.4C66.3,109.5,65.5,113.4,66.7,120.8z"/>
		<path d="M66.7,124.9c0.7,2.4,2.8,8.8,5.1,8.8h36.4c2.7,0,4.6-6.4,5.5-8.8H66.7z"/>
		<path d="M111.1,140.1c-0.4-1.3-0.2-1-1.3-2.5c-1.8-2.3,0.2-0.7-2.5-1.8H72.9c-2,0.9-2.3,0.5-3.8,4.4c2.5,2.5,0.5,2.1,3.8,3.5h32.8
			C109.7,143.6,108.6,142.5,111.1,140.1z"/>
		<path d="M72.9,162.5h32.8c3.2,0,4.2-1.4,5.3-4.4l-2.5-3.5H71.8l-2.5,3.4C70.1,160.6,70.4,161.4,72.9,162.5z"/>
		<path d="M71.4,153h37.5c1-2,1.4-2,2.1-4.1l-2.5-3.7l-36.7,0.2l-2.5,3.4C70,150.8,70.4,150.8,71.4,153z"/>
		<path d="M104.9,164.1H75.2c0.5,2.5,1.3,4.4,3.4,5.3h23.2C103.9,168.5,104.5,166.8,104.9,164.1z"/>
	</g>
</g>
</svg>
