<?xml version="1.0" encoding="utf-8"?>
<!-- Generator: Adobe Illustrator 23.0.3, SVG Export Plug-In . SVG Version: 6.00 Build 0)  -->
<svg version="1.1" id="Layer_1" xmlns="http://www.w3.org/2000/svg" xmlns:xlink="http://www.w3.org/1999/xlink" x="0px" y="0px"
	 viewBox="0 0 184.3 184.3" style="enable-background:new 0 0 184.3 184.3;" xml:space="preserve">
<g id="Layer_x0020_1">
	<g id="_2429456648928">
		<path d="M79.1,64.7h8.3c0.2,3.6,0,7.9,0,11.5c0,4.5-0.4,6.5,2,9.7c3.6,5.2,11.9,4,19.6,4c3.8,0,7.7,0,11.7,0
			c3.4,0,6.3-1.8,7.7-3.8c2.3-3.2,2-5.2,2-9.7c0-3.8-0.2-8.1,0-11.7h8.3V143H79.1V64.7z M75,145.5c0.4,1.8,2,1.6,4,1.6h39.4
			c7.4,0,15.3,0.4,22.5,0c2.2,0,2.3-1.4,2.3-3.4V70.6c0-12.4,1.8-10.3-12.2-10.3c-1.8,0-3.8-0.2-4.3,1.4c-0.2,0.9-0.2,15.3-0.2,16.9
			c0,3.2-0.9,6.1-4.3,6.8c-1.8,0.4-19.1,0.2-22.3,0.2c-2,0-3.4,0.2-5-0.7c-1.1-0.5-2.2-1.6-2.5-2.9c-0.7-1.8-0.4-13.1-0.4-16.6
			c0-1.8,0.4-4-0.9-4.7c-1.1-0.7-9-0.5-10.8-0.5c-6.1,0-5,0.5-5,6.5C75,74.2,74.8,143.9,75,145.5z"/>
		<path d="M57.9,43.3c0-1.6,0.2-2.2,1.8-2.2h11.7c2.5,0,3.1,0,3.1,2.2v6.8H57.7v-6.8H57.9z M71.7,54.3c5.2,0,7,0.9,7-2.9
			c0-6.3,1.6-14.4-5.8-14.4c-3.4,0-6.8,0-10.1,0c-9.4,0-9.2,1.8-9.2,10.8c0,2.7-0.5,5.6,1.3,6.3c0.5,0.2,1.4,0.2,2.2,0.2
			c-1.1,7.6-6.1,13.3-9.4,18c-5.9,8.3-6.7,10.4-6.7,20.3c0,3.6-0.4,9.9,0.7,12.8c1.3,3.6,3.8,5.4,3.6,10.1c-0.2,4-2.2,6.8-3.4,10.3
			c-1.6,5.2-1.3,12.1,1.6,16.7c3.1,4.9,5.4,4.7,9,4.7h13.5c3.4,0,2.9-2.7,1.8-3.6c-1.3-1.1-13-0.5-16.2-0.5c-1.4,0-2,0.2-2.9-0.5
			c-4.3-3.8-4.5-10.8-2.9-15.8c1.3-3.6,3.1-5.6,3.2-10.3c0.5-6.5-2.2-7.9-2.9-10.4h18.9c1.1,0,2.2,0.2,2.9-0.5
			c0.5-0.5,0.9-1.3,0.5-2.3c-0.5-1.8-2.9-1.4-5-1.4H45.3c-0.4-2.7,0-6.8,0-9.7c0-3.6-0.2-5.4,0.7-8.6c5.6,0.2,12.2,0,17.8,0
			c1.8,0,4.1,0.4,4.9-1.3c0.9-2-0.9-2.9-2.7-2.9H48.1c0.5-1.3,3.1-4.7,4-5.8c2.7-3.6,5.6-7.4,7.2-11.9c0.9-2.3,2.2-6.8,2.3-7.4
			C64.9,54.1,68.5,54.3,71.7,54.3z"/>
		<path d="M95.1,109.5H123v14H95.1V109.5z M92.6,105.4c-2.2,0.5-1.6,3.2-1.6,5.8c0,17.3-1.6,16.6,5.6,16.6c3.6,0,27.7,0.2,29.2-0.2
			c2-0.5,1.4-3.6,1.4-5.9V107c-0.4-2.3-3.4-1.8-5.6-1.8C118.2,105.4,93.7,105,92.6,105.4z"/>
	</g>
</g>
</svg>
