<?xml version="1.0" encoding="utf-8"?>
<!-- Generator: Adobe Illustrator 23.0.3, SVG Export Plug-In . SVG Version: 6.00 Build 0)  -->
<svg version="1.1" id="Layer_1" xmlns="http://www.w3.org/2000/svg" xmlns:xlink="http://www.w3.org/1999/xlink" x="0px" y="0px"
	 viewBox="0 0 184.3 184.3" style="enable-background:new 0 0 184.3 184.3;" xml:space="preserve">
<style type="text/css">
	.st0{fill:#FFFFFF;}
</style>
<g id="Layer_x0020_1">
	<path class="st0" d="M90,105c-0.9-2.9-0.5-3.6,1.8-4.9c2.2,0.5,1.8,0.5,2.9,1.8C94.8,105.7,93.2,106.1,90,105z M53.1,44h77.6
		l0.5,48.1H53.1V44z M75.6,115.1c-1.4,7.9-5.9,4.3-7.6,9.7c5,0.5,45,0.9,47.5-0.4c1.1-3.4-1.8-2.2-4-3.4c-2-1.3-2.5-3.6-3.1-5.9
		c7,0,13.9,0,20.9,0c7,0,12.8-0.2,13.5-7.6c1.1-9.5,0.2-47.5,0.2-62.3c0-8.1,0.5-12.6-8.1-12.8c-25.4-0.5-58.1,0-84.2,0
		c-8.3,0-9.4,3.6-9.4,11.7c0.2,18.9-0.9,46.1,0,63C41.9,119.2,56.5,113.6,75.6,115.1z"/>
	<path class="st0" d="M142.9,141.7c1.6-2.5,5.4-2.5,7,0c-0.9,1.3-0.9,1.4-3.2,1.6C144.1,143.5,143.8,143,142.9,141.7z M133.7,141
		c2-1.1,5.2-2.2,7,0.7c0,0-0.2,1.8-4,1.6C133.3,143.2,134.4,142.1,133.7,141z M124,141.7c1.6-2.9,4.9-2,7-0.7
		C129.7,144.4,126.1,143.7,124,141.7z M114.1,141.7c1.6-2.5,5.4-2.5,7,0c-0.9,1.1-0.9,1.4-3.2,1.6S115.2,143,114.1,141.7z
		 M104.2,141.7c1.6-2.5,5.4-2.5,7,0c-0.9,1.1-0.9,1.4-3.2,1.6C105.6,143.5,105.1,143,104.2,141.7z M94.3,141.7c1.6-2.5,5.4-2.5,7,0
		c-0.9,1.1-1.1,1.6-3.2,1.6C95.7,143.5,95.2,143,94.3,141.7z M84.2,141.7c1.6-2.5,5.4-2.5,7,0c-0.9,1.1-1.1,1.6-3.2,1.6
		C85.6,143.5,85.1,143,84.2,141.7z M74.3,141.7c1.6-2.5,5.4-2.5,7,0c-0.9,1.1-0.9,1.6-3.2,1.6C75.7,143.5,75.2,143,74.3,141.7z
		 M64.4,141.7c1.6-2.5,5.4-2.5,7,0c-0.9,1.3-0.9,1.6-3.2,1.6C65.8,143.5,65.3,143,64.4,141.7z M54.3,141.7c1.6-2.5,5.4-2.5,7,0
		c-0.9,1.3-0.9,1.6-3.2,1.6C55.9,143.5,55.4,143,54.3,141.7z M44.4,141.7c1.4-2.5,5.4-2.5,7,0c-0.9,1.3-0.9,1.6-3.2,1.6
		C45.9,143.5,45.3,143,44.4,141.7z M34.3,140.8c2.2-0.9,5.2-2,7,0.9c0,0-0.2,1.8-3.8,1.6C34,143.2,35.1,142.1,34.3,140.8z
		 M138.2,136.1c1.6-2.5,5.2-2.3,7,0C142.9,138.5,140.2,138.5,138.2,136.1z M132.3,134.3c2.3,0.2,2.7,0.4,3.2,2.5
		c-2.7,0.9-5.4,1.6-7-0.9C129.4,134.7,129.7,134.3,132.3,134.3z M118.8,136.1c1.4-2.5,5.4-2.3,7,0
		C123.8,138.7,120.7,138.5,118.8,136.1z M108.9,136.1c1.4-2.5,5.4-2.3,7,0C113.7,138.5,110.8,138.5,108.9,136.1z M99,136.1
		c1.6-2.5,5.4-2.5,7,0C103.8,138.5,100.9,138.5,99,136.1z M88.9,136.1c1.6-2.5,5.4-2.5,7,0C93.7,138.7,91,138.5,88.9,136.1z
		 M79,136.1c1.6-2.5,5.4-2.5,7,0C83.8,138.5,81.1,138.5,79,136.1z M69.1,136.1c1.6-2.3,5.4-2.5,7,0
		C73.9,138.5,71.1,138.5,69.1,136.1z M59,136.1c1.6-2.3,5.4-2.5,7,0C64,138.5,61.2,138.5,59,136.1z M49.1,136.1c1.6-2.3,5.6-2.5,7,0
		C54.1,138.5,51.3,138.5,49.1,136.1z M39.2,136.1c1.6-2.3,5.6-2.5,7,0C44.2,138.7,41.4,138.5,39.2,136.1z M23.4,152.2h137.3
		c1.1-4.3-0.4-5-2.3-7.2l-9.9-10.1c-2.5-2.9-2.2-4-7-4H42.6c-3.6,0-7.2,4.9-11.3,9C25.5,145.7,22.1,147.1,23.4,152.2z"/>
</g>
</svg>
