<?xml version="1.0" encoding="utf-8"?>
<!-- Generator: Adobe Illustrator 23.0.3, SVG Export Plug-In . SVG Version: 6.00 Build 0)  -->
<svg version="1.1" id="Layer_1" xmlns="http://www.w3.org/2000/svg" xmlns:xlink="http://www.w3.org/1999/xlink" x="0px" y="0px"
	 viewBox="0 0 184.3 184.3" style="enable-background:new 0 0 184.3 184.3;" xml:space="preserve">
<style type="text/css">
	.st0{fill:#FFFFFF;}
</style>
<g id="Layer_x0020_1">
	<g id="_2429613224464">
		<path class="st0" d="M41.9,110.3c10.3,12.1,85.1,12.2,100.4,0.9V86.3c-15.5,5.9-32,7.4-50.2,7.4c-21.6,0-30.8-1.6-50.2-7.4V110.3z
			"/>
		<path class="st0" d="M41.9,81.1c13.5,7,32.9,8.3,50.2,8.3c14.6,0,40.5-1.3,50.2-8.3V56.3C124.8,68.3,60.6,65.8,42,56.1L41.9,81.1z
			"/>
		<path class="st0" d="M42,116.2c-0.4,1.8-0.7,17.6,0.4,19.8c4.7,9.7,40.7,10.6,50.2,10.6c6.8,0,49.9-0.9,49.9-11
			c0-4.5,0.2-15.7-0.4-19.4c-10.4,5.8-36,7.4-50,7.4C74.8,123.6,56.6,122,42,116.2z"/>
		<path class="st0" d="M44.2,50.5c6.1,5.4,12.8,6.7,22,8.1c9.2,1.3,18.9,1.8,28.3,1.8c50.4-0.4,64.6-15.3,26.3-21.1
			c-18.5-2.7-50.9-2.9-68.8,3.2C46.5,44.8,44,46,44.2,50.5z"/>
	</g>
</g>
</svg>
