<?xml version="1.0" encoding="utf-8"?>
<!-- Generator: Adobe Illustrator 23.0.3, SVG Export Plug-In . SVG Version: 6.00 Build 0)  -->
<svg version="1.1" id="Layer_1" xmlns="http://www.w3.org/2000/svg" xmlns:xlink="http://www.w3.org/1999/xlink" x="0px" y="0px"
	 viewBox="0 0 184.3 184.3" style="enable-background:new 0 0 184.3 184.3;" xml:space="preserve">
<style type="text/css">
	.st0{fill:#FFFFFF;}
</style>
<g id="Layer_x0020_1">
	<g id="_2429220722224">
		<path class="st0" d="M90.5,157.2c0.4-1.4-0.2-0.7,1.3-1.3l32.6-12.4c0.9,1.6,2.5,11.5,2.7,13.9C122.2,157.2,92.5,157.9,90.5,157.2
			z M64.2,135.8c0.2,0.4,0-0.2,0.2,0.7c0,0.4,0,0.4,0.2,0.7v5.8l-13.5,0.2c0-1.8,0-3.4,0-5.2c0-2.7,0-2.5,2.9-2.5
			C56.3,135.4,62.1,134.9,64.2,135.8z M91.8,150.4c0.4-1.8,1.4-9.9,2.2-10.8l27.7-10.8c0.9,1.8,1.6,7,1.8,9.2L91.8,150.4z
			 M94.8,133.6l1.8-10.6c0.9-0.7,21.2-8.3,22.5-8.6l1.6,9.2L94.8,133.6z M97.9,116.9l1.8-10.8l16.6-6.3c0.7,1.3,1.6,7.6,1.8,9.2
			L97.9,116.9z M100.9,100c0.2-1.8,0.7-3.8,1.1-5.8c0.7-3.6,0.4-4.5,1.6-5.2c1.8-0.9,8.3-3.2,10.1-3.8c0.7,1.1,1.6,7.4,1.8,9.2
			C114.3,95.5,102,100,100.9,100z M60.3,87.4c-1.3-0.5-3.8-0.7-5-1.1v44.1c-10.4,0-9.4,3.6-9.4,13.1c-0.4,1.6-3.2,0.9-3.8,5
			c-0.4,2.5,0.2,6.1-0.2,8.8c-3.2,0.2-7,0-10.4,0c-2.9,0-8.5-0.9-9.4,1.8c-1.4,4.1,4.3,3.4,7,3.4h119.3c3.4,0,7.7,0.2,11,0
			c3.6-0.2,4-4.7,0.2-5h-16.4h-6.1c-2.2-7.9-5.2-29-7.2-39.1c-1.1-4.9-6.7-37.8-7.4-39.4c-9.5-0.5-10.1,2.3-18.5,4.7l0.7-4.7h-9.9
			l-14.4,78.3c-1.8,0.7-4.9,0.4-7,0.2c-0.5-5.8,1.4-10.1-2.7-12.6c-1.4-0.9-0.7,0.2-1.3-1.3c0-9.4,1.1-13.1-9.4-13.1L60.3,87.4z"/>
		<path class="st0" d="M100.2,58.9c0-1.8,0.5-1.8,2.2-1.8c16,0,15.1-1.6,14.6,5h-16.7L100.2,58.9z M143.4,157.4h16.4
			c-0.9-6.5,1.1-14.9-1.4-18c-1.3-1.4-2.2-1.6-4.1-2.5V41.1c2.5-1.8,2.5-1.6,2.5-5.9c0-7.7,1.6-12.1-5-12.1c-3.2,0-4.7,0.5-5,3.6
			L70,46.7c-0.2,3.1-0.4,7.4,1.1,10.1l35.1-9l0.2,4.3c-3.6,0-6.8-0.5-9,1.6c-2.5,2.3-1.4,4.9-2.2,8.5c-1.8,0-5-0.2-5.8,3.2
			c-2.2,11.2,6.7,8.3,19.4,8.3c14.8,0,20.7,2.3,19.4-8.1c-0.4-3.1-2.5-3.6-5.8-3.6c-1.3-7,1.8-10.3-11.2-10.1v-5.8l34.9-9
			c1.4,2.9-0.4,1.4,2.7,3.8v95.8c-3.8,1.6-5.6,2.2-5.6,7.6C143.4,148,143.8,154.2,143.4,157.4z"/>
		<path class="st0" d="M55.2,86.3c1.4,0.2,3.8,0.5,5,1.1c1.3-1.3,1.8-1.8,3.1-3.1c0.5-0.5,1.1-0.9,1.6-1.4c8.5-8.3,9.7-7.2,4.3-16
			C64,58.2,63.5,46.5,66.7,37c2.7-8.1-1.6-8.3-9.7-13c-2.5-1.4-5-3.8-8.3-1.4C43,27.1,41,43.8,41.4,51.4c0.4,7.4,1.8,13.7,4.1,20
			c1.1,2.9,2.5,5.6,4,8.1C51.3,82.3,52.7,84.9,55.2,86.3z"/>
	</g>
</g>
</svg>
