<?xml version="1.0" encoding="utf-8"?>
<!-- Generator: Adobe Illustrator 23.1.0, SVG Export Plug-In . SVG Version: 6.00 Build 0)  -->
<svg version="1.1" id="Layer_1" xmlns="http://www.w3.org/2000/svg" xmlns:xlink="http://www.w3.org/1999/xlink" x="0px" y="0px"
	 viewBox="0 0 184.3 184.3" style="enable-background:new 0 0 184.3 184.3;" xml:space="preserve">
<g id="Layer_x0020_1">
	<path d="M90.5,20.2h3.3c6,0.3,12.1,1.8,17.4,4.8c1.3,0.8,2.2,1.3,3.5,2.2c5.4,3.6,10.2,8.7,13.7,14.5c8.1,13.1,10.7,31.5,5.5,46.3
		c-0.3,1.1-0.6,2-1.1,3.3c-0.4,1.1-0.9,2-1.3,3c-0.9,1.9-1.8,3.6-2.8,5.5l-31.8,60.5c-1,1.8-1.6,3.9-4.1,3.9c-2.2-0.1-3-2-4.1-3.9
		l-3.4-5.8c-5.8-10.7-12.3-22.2-17.9-32.8c-2-3.8-4.1-7.3-6-11.1c-4.1-7.6-8.5-14.5-11.2-22.7c-2.2-6.8-2.5-12.1-2.5-19.4
		c0-15.1,8-30.5,18.8-39.1c2.2-1.8,4.1-3.1,6.7-4.6C78.4,21.9,84.4,20.4,90.5,20.2z M92.1,39.7c5,0,9.2,4.1,9.2,9.2S97.1,58,92.1,58
		s-9.2-4-9.2-9.2S87,39.7,92.1,39.7z"/>
</g>
</svg>
