<?xml version="1.0" encoding="utf-8"?>
<!-- Generator: Adobe Illustrator 23.0.3, SVG Export Plug-In . SVG Version: 6.00 Build 0)  -->
<svg version="1.1" id="Layer_1" xmlns="http://www.w3.org/2000/svg" xmlns:xlink="http://www.w3.org/1999/xlink" x="0px" y="0px"
	 viewBox="0 0 184.3 184.3" style="enable-background:new 0 0 184.3 184.3;" xml:space="preserve">
<style type="text/css">
	.st0{fill:#FFFFFF;}
</style>
<g id="Layer_x0020_1">
	<path class="st0" d="M107.7,143.3c1.1,0.7,1.1,0.4,1.3,2.2C107.9,144.7,107.7,144.9,107.7,143.3z M149.3,142.4L149.3,142.4z
		 M107.7,143.3c-0.5-0.5-0.5-0.5-0.9-1.3C108.6,142.2,108.3,142,107.7,143.3z M119.1,135.7c-1.4,0.2-1.6,0.4-2.5,0.9
		c0-2.5,0.4-3.1,0.4-5.6c1.3,0.9,0.9,1.3,2.5,1.6C118.9,133.9,118.4,134.3,119.1,135.7z M70.3,130.2c2.2,0.2,2.5,0.7,2.5,2.9
		c-2.9,0-1.8,0.2-3.4-0.9C69.8,130.9,69.8,131.8,70.3,130.2z M120.3,131.6L120.3,131.6z M114.4,133.9c-1.3,0-1.6,0.2-2.5,0.4l0.5-5
		c1.3,0.7,1.3,0.9,2.5,1.6C114,132.7,114,132.3,114.4,133.9z M159,133.2c0.2-1.6,0.5-2,0.5-4.3c1.3,0.9,0.9,1.3,2.5,1.6
		C160.8,132.9,161.2,132,159,133.2z M105.6,129.8c0.2-0.9,0.4-1.6,1.6-1.6c1.4,0,1.6,1.6,1.6,2.9
		C106.3,131.1,106.7,131.4,105.6,129.8z M33.6,129.4c1.1,0.4,0.9,0.2,1.6,0.9C33.2,130.2,34.5,130.7,33.6,129.4z M120.3,131.6
		c-0.5-0.4-1.1-0.7-1.8-1.3c-0.5-0.5-1.1-0.9-1.6-1.3C119.4,129.3,120.2,129.8,120.3,131.6z M94.2,126v0.9h-2.5
		C92.8,124.8,91.5,125.8,94.2,126z M25.5,126.9c-0.4,0.2-1.8,0-0.2-0.5C26.4,125.8,25.8,126.7,25.5,126.9z M33.9,128.2
		c0-2.2,0.4-2.5,0.4-5c2,0.5,0.5,0.7,2.5,1.3C35.9,127.8,36.1,127.6,33.9,128.2z M126.6,123.5v1.3h-2.5
		C124.5,123,124.5,123.5,126.6,123.5z M148.6,121.9L148.6,121.9z M62.6,121.9c0.2-0.9,0.2-1.3,1.3-1.3s0.7,0.2,1.3,0.9
		C64,122.1,64.4,121.9,62.6,121.9z M87.4,113.4c0.9,0.5,1.1,1.3,1.6,2.2h-1.6V113.4z M53.7,115c-0.4,0.2-1.8,0-0.2-0.5
		C54.6,114.1,54.1,114.9,53.7,115z M65.1,111.3c0.9,0.7,1.1,1.3,1.6,2.2h-1.6V111.3z M79.5,113.4c-0.4,0.2-1.8,0-0.2-0.5
		C80.4,112.3,79.8,113.2,79.5,113.4z M113.1,112.9c0.5-0.5-0.4,0.2,0.7-0.5c0.5-0.4,0.5-0.4,1.1-0.7
		C114.4,113.2,114.8,112.9,113.1,112.9z M42.8,102.4c1.4,0,1.6,1.6,1.6,2.9c-2.5,0-1.8,0.2-3.4-0.9
		C41.3,103.5,41.5,102.4,42.8,102.4z M103.1,103c1.3-0.7,0.9-0.5,2.5-0.5c-0.2,1.1-0.4,1.3-0.9,2.2L103.1,103z M80.4,96.1l3.8,2.5
		C80.6,98.3,80.6,96.5,80.4,96.1z M79.5,95.2l0.5,1.6h-1.3c0-2.7-0.7-1.4,0-4.3H80c0.4,1.3,0.5,1.3,0.9,2.5h-1.4V95.2z M114,92.4
		c2.2-0.2,0.5-0.4,2.5-0.9l-0.5,5c-1.4-0.4-0.9-0.4-2-1.3C114.2,93.6,114.8,93.8,114,92.4z M105.6,88.6c0.9,0.4,0.4,0,1.1,0.7
		c0.4,0.4,0.5,0.7,0.7,1.1h-1.6v-1.8H105.6z M94.2,84.8c-7.7,1.8-8.1,11.5-13.9,2.9l7.9-24.8c2-6.3,4.7-0.7,9.4-0.4l-2,10.6
		C95,76.7,94.2,81,94.2,84.8z M49.6,139c0.9-1.3,0.2-0.7,1.6-1.3l4.5-0.2c2.2,0.5,1.3-0.2,1.4,1.6c2-0.5,0.4-0.7,2.5-0.9
		c0.4,0.5,0.5,0.7,0.9,1.3l0.9,1.3c0,0,0.2,0,0.2,0.2l2,1.1c-0.4,1.6-1.3,1.8-0.5,2.9c0.7,1.3,1.6,0.9,3.4,0.9
		c0-1.1-0.4-2.5-0.9-3.4h4.7c1.1,1.6,0.5,2,2.5,2.2c0-0.9,0.2-1.3-0.2-1.8c-0.4-0.9-0.9-0.7-1.4-1.1c4-0.9,5.2-4.3,8.1-5
		c0,2,0.2,4-0.4,5.4c0.5,0,2-0.4,2.3-0.5c1.6-0.9,0.5,0.4,0.7-1.6c0.2-2.9-0.2-1.8-1.4-3.8c2,0,4,0,5.9,0c2.5,0,3.6-0.4,5.4-0.5
		l-0.5,1.6c1.8,0,1.8,0.2,3.1-0.4c-0.2-1.1,0-0.5-0.4-0.9c-1.4-2,1.3,1.3-0.4-0.5l5.4-0.4c0,2.7-0.9,3.8,0.7,3.4
		c1.1-0.4,1.1-0.7,3.1-0.9v2.9c2.2-0.5,0.4-0.7,2.9-0.9c0.2,0.5,0.4,1.1,0.2,1.3c-0.2,1.4-0.7,0.5-1.3,2c-0.9,2.2,1.6,2.5,2.9,3.2
		c1.3,0.9,1.8,1.4,3.6,1.6c-0.5-2.2-0.9-0.9-2.2-2.5c2,0.2,0.7,0.4,2.5,0c-0.7-2.7-0.7,0.2-0.5-3.4c2.3,0,1.1-0.2,2-0.5l1.8-0.7
		c0.9,0.7,0.5,0.2,0.9,1.3h2.9c-0.2-1.8-0.4-0.7,0-1.6c0.7-1.6,0.4,0,1.1,0.5c0.9,0.9,0.7,0.7,2.7,0.7c-0.5-0.7-2.2-2.2-0.4-2.3
		c2.3-0.4-0.2,1.3,2.9,1.6c0-2-0.4-2,0-2.9c0.9,0.4,0.9-0.4,1.6,3.4h2.2c1.4-2.5,0.9-1.8-0.4-3.8c2.2,0.2-0.9,0.9,3.4,0.2
		c0.7-0.2,1.3-0.2,2-0.2v2.5c1.6-0.4,1.3-0.7,2.9-0.9l-0.5-1.6c3.4,1.8,2.9,0.7,4.7,4.1c2.2,0,1.8,0.4,2.9-0.9
		c0,1.6,0.2,1.6,0.9,2.5c2-1.4,0.7-2.7,4.7-0.9c0.4,1.8,1.6,2.2,2.9,2.9c0-10.3-0.2-5.4,1.8-9l0.7-0.9c2.5-1.6,4.5-0.9,4.9-0.9
		c1.3-0.2,0.2-0.5,2.3-0.5c-0.9-3.6,1.8-1.4,3.8-4.1c-1.4-0.4-6.7-4.3-7.7-5.2c-3.4-2.9,1.1-1.4-6.5-6.5c-0.7,1.1-2,3.1-2.9,3.8
		c0.4-1.8-0.2-3.2-0.7-6.1c-0.4-2.3-1.1-4.5-1.1-6.7c2.3-0.5,2.2-1.4,2.2-4.1c-13.3-7-8.3-7.4-11.7-10.6c-2-1.8-4.9-2.3-7.7-3.2
		c-2.9-1.1-4.3-2.9-8.5-2.9v-2.2c-2.3,0.2-2.9,2-5,2.5c2-3.6,3.8-7,5.6-10.8c0.7-1.4,2.7-4.3,2.2-5.8c-0.5-1.6-3.8-2.3-5.4-3.1
		c-4.5-1.8-7.9-2.9-9.2-7.2c-1.1-3.2,1.1-17.8,1.6-22.7c0.2-1.4,0.2-2.3-1.3-2.5c-1.3-0.2-1.4,0.9-1.6,2.3c-0.5,5-1.3,10.1-1.8,15.1
		c-0.5,6.1-0.5,8.8,2.9,12.8c1.6,2,2.9,2.2,5.2,3.2c1.6,0.7,4.3,2.2,5.9,2.5c0,3.1-2.7,7.7-4.3,10.4c-0.5,1.1-2.7,2.5-5.4,6.5
		c-4-0.9-7.4-4.9-12.2-5c1.3-1.8,2.3-4.1,3.4-6.3c1.1-2.5,2.5-4.9,2.2-6.7c-2.3,0.2-0.9,0.2-4.1,6.5c-1.1,2.2-2.2,5.4-4,6.7
		c0-6.3,2.9-17.3,4-23.8l2-22.1c-0.2-1.8-0.4-1.6-2.2-1.6c-0.9,1.6-1.6,13.5-2,16.9c-0.2,2-0.5,4-0.5,5.8c-1.3-0.5-2.7-1.3-4.1-1.8
		c-0.9-0.4-2.7-1.4-4-1.3c-2.3,0.2-2.5,3.4-4,7.2l-7.9,24.1c-2.7,0-4.1,0.4-7.2,0.4c0,2-0.7,2.9-0.9,4.7c-1.4-1.8-0.9-2.9-2.9-5.4
		L62,82.8c-0.9,2.2-1.6,4.9-2.5,7.2c-0.9,2.2-1.6,3.8-5,4.7c-0.4-1.3-0.9-1.8-1.6-2.5c0.2,2.2,1.3,3.2,1.3,5.9c-2.3,0-5,1.4-6.8,1.1
		c-3.2-0.7-3.2-1.4-7.4-1.4c-2.5,3.8,0.4,4.5-1.1,8.6c-0.7,2.2-3.8,4-4.5,6.5c0.9,0.2,0.9,0.4,2.2,0.4c-0.5,1.6-6.3,8.5-8.1,8.5
		c-2-0.5-2.2-1.6-3.8-2.2v5c-1.4,0.9-5.9,3.2-6.3,5c5.4,1.4-1.1,3.8,11.2,1.8c8.6-1.4,6.3,2.3,8.6,5.8c-1.4,0.4-1.3,0.2-1.6,1.6
		c2.3-0.2,0.5-0.5,2.5-0.7C40.4,137.9,44.4,139,49.6,139z"/>
</g>
</svg>
