<?xml version="1.0" encoding="utf-8"?>
<!-- Generator: Adobe Illustrator 23.0.3, SVG Export Plug-In . SVG Version: 6.00 Build 0)  -->
<svg version="1.1" id="Layer_1" xmlns="http://www.w3.org/2000/svg" xmlns:xlink="http://www.w3.org/1999/xlink" x="0px" y="0px"
	 viewBox="0 0 184.3 184.3" style="enable-background:new 0 0 184.3 184.3;" xml:space="preserve">
<style type="text/css">
	.st0{fill:#FFFFFF;}
</style>
<g id="Layer_x0020_1">
	<g id="_2429762698496">
		<path class="st0" d="M130.2,107.6c7.6-3.8,11.3,8.6,4.7,10.8C127.5,120.7,123.2,111.2,130.2,107.6z M79.3,107.8
			c6.8-3.6,11.2,7.6,4.7,10.4C77.9,121.1,70.8,112.1,79.3,107.8z M76.6,98.6c-0.9-2.2-1.3-29.3,0-31.1c1.4-2.2,39.6-1.1,47-1.1
			c3.4,0,12.8-1.4,14.2,1.4c1.1,2.2,0.5,28.4-0.2,30.8C133.7,100.2,79.8,100,76.6,98.6z M80.2,61.3c-5.9,0-6.1-6.7,0-6.7h53.6
			c6.3,0,6.1,6.7,0,6.7H80.2z M75.9,130.6c0.4,4.7-0.5,7,1.1,11c4.5,1.6,10.4,1.8,10.4-4.5c0-2.3-0.2-4.3,0.2-6.7h39.2
			c0.2,3.4-0.4,7.4,0.7,9.9c2,2.2,6.7,2.7,9.4,1.1c2.3-2.5,1.3-6.8,1.6-10.8c3.2-0.5,5.6,0.2,8.3-0.7c1.6-5.4-1.1-8.5-1.1-13.5V68.7
			c0-5.2,0.2-10.8,0-15.8c-0.4-6.7-4-5.9-10.1-5.9c-7.9,0-60.7-0.5-63.7,0.2c-4.7,1.3-3.6,6.7-3.6,11.9c0,11.5,0.5,52.2,0,59.8
			c-0.2,2.9-0.4,1.8-0.9,3.8C65.3,131.5,69,130.4,75.9,130.6z"/>
		<path class="st0" d="M28,46.2c0,29.3-1.8,25.4,7.6,25.7v65.2c-4.3,0.4-8.5-1.3-10.1,2.3c0.5,2.9,1.3,2.9,4.1,2.9
			c4.7,0,17.1,1.1,20.5-1.1c0.9-5.2-1.8-4.1-9.7-4.1V71.8l7-0.2c1.1-6.1,0.9-23,0-29.3c-5.6-0.9-9.9-0.5-16.2-0.5h0.5
			C28.4,41.9,28,42.6,28,46.2z"/>
		<path class="st0" d="M149,96.4c2,0.7,6.7,1.4,8.5-0.5c2.2-2,1.1-8.3,1.1-11.3c0-5.9,1.3-7.7-5.2-7.7c-6.3,0.2-4.9,2-4.9,7.7
			C148.4,88.5,148.1,93.2,149,96.4z"/>
		<path class="st0" d="M55.7,80.9c0,17.3-2,16.9,9.5,15.7c1.1-5.8,0.5-9.4,0.5-15.7c0-4.5-2-4-6.3-4C56.3,77,55.7,77.7,55.7,80.9z"
			/>
	</g>
</g>
</svg>
