<?xml version="1.0" encoding="utf-8"?>
<!-- Generator: Adobe Illustrator 23.0.3, SVG Export Plug-In . SVG Version: 6.00 Build 0)  -->
<svg version="1.1" id="Livello_1" xmlns="http://www.w3.org/2000/svg" xmlns:xlink="http://www.w3.org/1999/xlink" x="0px" y="0px"
	 viewBox="0 0 184.3 184.3" style="enable-background:new 0 0 184.3 184.3;" xml:space="preserve">
<style type="text/css">
	.st0{fill-rule:evenodd;clip-rule:evenodd;fill:#FFFFFF;}
</style>
<g id="Layer_x0020_1">
	<g id="_2307216884288">
		<path class="st0" d="M75.9,95.6c5.1-1.6,11,5.2,12.2,8.3c2,5.5-4.1,11.2-7.8,12.2c-5.4,1.5-11-5-12.3-8.3
			C65.9,102.3,72.1,96.8,75.9,95.6z M108.3,90.6c5.3-1.5,11.1,5.1,12.3,8.5c1.9,5.5-4.5,11.3-8.3,12.2c-5.1,1.1-10.7-5.1-12-8.6
			C98.5,97.4,104.5,91.7,108.3,90.6z M92.9,77.9c0,0.1,0.1,0.1,0.1,0.2l0.9,5.6c0.3,2,0.6,4,0.8,6c0.8,5.5,4.7,32.1,4.9,35.3l-4.1,4
			L89,81.7L92.9,77.9z M69.9,66.3c4.4,7-2.2,16.4-10.6,13.8c-9-2.7-8.2-15.2-0.9-17.5c-0.5,4.5-2.1,6.4-2.2,8.3
			c-0.1,3.1,1.9,5.3,4.3,5.9c3.3,0.8,5.8-1.1,6.7-3.2c0.6-1.3,0.6-6.3,1.7-8.5L69.9,66.3z M72.4,49.6c4.2-0.2,8.5-0.1,12.7-0.1
			c8.3-0.1,10.7,4.2,16.1,9.4c2.1,2.1,4.1,4.1,6.2,6.3l31.5,31.5c1.7,1.7,4.3,3.8,5,7.4c0.8,4.5-1.4,7.2-3.4,9.2
			c-2.1,2.1-4.1,4.1-6.2,6.2c-8.4,8.5-16.7,16.7-25.2,25.2c-4.5,4.5-8.8,10.8-16.1,7.8c-2.7-1.1-5.2-4.1-6.9-5.8L48.4,109
			c-1.8-1.8-4.5-4.1-6-6.5c-2.1-3.5-2-6.1-2-10.8l0.1-25.2c0.1-4.3-0.2-7.4,1.7-10.8c4-6.7,9.7-6,19.1-6.1l-1,3.8
			c-3.5,0.4-8-0.5-11,0.9c-6.7,3-4.9,10.7-5,18.4c-0.1,3.8-0.1,7.6-0.1,11.3c0,3.7-0.3,8.2-0.1,11.7c0.3,3.9,2.3,5.7,4,7.5
			c3.9,4,7.7,7.6,11.5,11.6c9.6,9.7,19.6,19.4,29.2,29.2c1.4,1.4,4,4.5,6.4,5.1c3.8,0.9,6-2.1,7.6-3.7c2-2,3.8-3.8,5.8-5.8
			l29.2-29.2c5.1-5.2,0.6-8.6-1.9-11.1L98.1,61.6c-6.4-6.5-6.5-8.2-14.8-8.2c-3.9,0.1-7.8,0.1-11.7,0.1L72.4,49.6z M73.4,45.7
			c0.3-2.7,1.7-8,2.4-10.9c1.1-4.7-1.5-7.9-5.3-7.7c-4.4,0.2-4.9,3.9-5.8,7.7l-2.5,10.8c-6.1,1-14.9-2.2-21.6,5.7
			c-5.4,6.3-4,13.7-4.1,23.2c-0.1,6.2-0.9,21.3,0.7,26.1c1.9,5.6,7.8,10.5,12.2,14.9l34,34c2,2.1,4.2,4.7,7.4,6.3
			c3.4,1.6,7.4,1.7,11.1,0.3c3.2-1.3,5.4-4,7.3-6l34-34c5.7-5.7,6.1-13.3,1-19.3c-0.9-1-44.8-45.2-47.6-47.4
			C90,44,82.7,45.9,73.4,45.7z"/>
		<path class="st0" d="M75,100.9c-3.5,1.6-2.2,4.2-0.4,6.4c6,6.9,8.6,2.4,8.5,0.5C83.1,105.5,77.7,99.7,75,100.9z"/>
		<path class="st0" d="M107.6,95.8c-6.5,2.7,2.8,11.2,5.8,10.1c1-0.4,2.2-1.6,2.2-3c0-1.4-1.1-2.6-1.8-3.4
			C113,98.6,109.8,94.9,107.6,95.8z"/>
	</g>
</g>
</svg>
