<?xml version="1.0" encoding="utf-8"?>
<!-- Generator: Adobe Illustrator 23.0.3, SVG Export Plug-In . SVG Version: 6.00 Build 0)  -->
<svg version="1.1" id="Livello_1" xmlns="http://www.w3.org/2000/svg" xmlns:xlink="http://www.w3.org/1999/xlink" x="0px" y="0px"
	 viewBox="0 0 184.3 184.3" style="enable-background:new 0 0 184.3 184.3;" xml:space="preserve">
<style type="text/css">
	.st0{fill-rule:evenodd;clip-rule:evenodd;}
</style>
<g id="Layer_x0020_1">
	<path class="st0" d="M141.2,85.4c0.5,1.4,4.3,1.4,4.7,2.6c0.3,0.8,0.6,2,0.8,2.9c0.2,0.6,0.8,3.8,1.7,2l1.5-4.6
		c0.4-1.2,3-1.4,4.5-2.4c0-1-0.4-0.8-2-1.5c-3-1.3-2.1-0.3-3.7-5.3c-0.3-0.7-0.3-0.9-1-0.9c-0.8,1-1.2,3.9-1.9,5
		c-0.3,0.5-1.6,0.8-2.2,1.1C142.5,84.6,141.5,84.8,141.2,85.4z M35,113c-1-4.8,6.5-6.5,7.6-1.5C43.6,116.5,36,118.2,35,113z
		 M37.6,106.3c-3,0.6-5.6,3.5-4.8,7.3c1.6,7.8,13.6,5.6,12-2.5C44.2,108.1,41.3,105.6,37.6,106.3z M137.7,116.2
		c0.9-0.3,1.2-2.3,1.5-3.2c1.7-4.9,0.3-3.8,5.8-6c3.2-1.3-0.2-2.1-3.1-3.4c-0.6-0.3-1.1-0.3-1.4-0.8c-0.8-1.4-1.5-5.5-2.4-6.5
		c-1,0-1,0.7-1.8,2.9c-1.6,4.6-0.7,3.6-4.3,5.1c-2.2,0.9-4.7,1.5-1.6,2.7c1.5,0.6,4.4,1.4,4.7,2.4c0.4,1.2,0.7,2.4,1.1,3.6
		C136.5,114,136.7,116.1,137.7,116.2z M93.6,106.7h2.5c9.7,0.1,11.6,13.2,3.8,13.2H83.5c-1.9,0-3.3-1.1-4-2.1
		c-1.2-1.9-0.5-3.3-0.8-5.4l-4.2,3.3c-3.7,3.1-9.3,7.7-13,10.5c-0.9,0.7-1.7,1.1-1.7,2.1c0.1,1.4,1.2,1.4,2.5,1.4
		c17.3-0.2,35.3,0,52.7,0h42.6c1.3,0,2.9,0.2,2.9-1.4c0-1.2-3.1-3.2-4.3-4.3c-1.4-1.2-11.5-9.3-12.2-9.6c-1.3,7-6.4,8.2-9.8,5.4
		c-1.4-1.2-2.1-4.2-2.8-6.3c-0.4-1.3-0.3-1-1.5-1.4c-2.9-1.1-5.9-2.4-5.6-6.5c0.2-2.7,1.7-3.1,2.1-4c-10.5,0.2-22,0.1-32.6,0.1
		c-2.4,0-2.4,0-1.6,2C92.5,104.4,93.1,106.1,93.6,106.7z M33.6,103.2c2.2-0.7,3.4-1.7,6.8-1.1c4,0.6,7.6,3.8,8.5,7.8
		c0.7,3,0.2,4.4-0.7,6.9c1.6,0.2,9.6,0.2,10.9-0.2c3.9-1.2,3.3-5.2,3.3-7.8c0-3.7,0-7.4,0-11.1c0-3.5,0.4-7.4-0.7-10.6
		c-1.6-5.1-6.1-9.3-12.1-10.1c-3-0.4-7.9-0.2-11-0.1c-1.8,0.1-3.2,0.8-3.9,1.7c-1.1,1.4-1.1,2.3-1.1,4.5c-0.6-0.3-0.6-0.7-1.5-1.3
		c-0.5-0.3-1-0.9-1.4-1.4c-0.8-1-1.4-2.4-1.7-4c-0.7-3.7,0.8-6.7,2.6-8.6c2.1-2.2,4.2-2.6,7.9-3.5c4.3-1,15-3.8,18.5-4.3
		c3.4-0.6,5.7,1.6,7.2,4.2c1.3,2.4,3.9,8.7,5.3,11.9c0.5,1,1.5,3.1,1.7,4.1c-2,0-3.2,0.2-2.7,2.7c0.4,1.7,2.7,1.2,4.5,1.2
		c0.9,3,10.8,24.8,11.3,26.8c-2.7-0.1-2.2,0.1-2.3,2.9c0,0.3,0,0.7,0,0.9l0.3,0.8c0.6,0.4,7.2,0.2,8.5,0.2c1.4,0,7.8,0.3,8.6-0.2
		c0.5-0.6-0.1-3.4-2.7-4.3c-1.4-0.6-5.2-0.2-6.9-0.3l-2.9-6.6C85.7,99,83,93.2,80.8,87.7c-0.5-1.1-1.1-2.4-1.4-3.5
		c2,0,3.1-0.3,2.7-2.7c-0.4-1.9-2.8-0.9-4.4-1.3c-1.6-4-3.4-8.2-5.1-12c-0.9-2-1.7-3.9-2.6-6c-2-4.5-2.3-8.1-9.6-7.5
		c-3.8,0.3-16.6,3.7-20.9,4.7c-2.1,0.5-4.9,1.1-6.7,1.8c-6.4,2.8-9.9,9.8-8.4,16.7c0.8,3.2,2.6,6.1,4.9,8c0.3,0.3,4.2,3.7,4.3,4.2
		V103.2z"/>
</g>
</svg>
