<?xml version="1.0" encoding="utf-8"?>
<!-- Generator: Adobe Illustrator 23.0.3, SVG Export Plug-In . SVG Version: 6.00 Build 0)  -->
<svg version="1.1" id="Livello_1" xmlns="http://www.w3.org/2000/svg" xmlns:xlink="http://www.w3.org/1999/xlink" x="0px" y="0px"
	 viewBox="0 0 184.3 184.3" style="enable-background:new 0 0 184.3 184.3;" xml:space="preserve">
<style type="text/css">
	.st0{fill-rule:evenodd;clip-rule:evenodd;fill:#010101;}
</style>
<g id="Layer_x0020_1">
	<g id="_1216886408480">
		<path class="st0" d="M50.9,74.4l5.3,0.1c-1-6.4-3-10.6-2.1-17.6c2.8-23.5,28.9-34.3,47.6-23.7c8.6,4.9,14.7,13.8,15.9,24
			c0.8,7.6-1.1,10.8-2.1,17.4l5-0.1c1.2-7.1,3.6-11.8,2.6-19.7C121,39.2,105.9,24.3,85.9,24c-19.1-0.4-34.8,15-37.2,30.7
			C47.4,63,50,66.9,50.9,74.4z"/>
		<path class="st0" d="M116.7,114.9c1,6.4,1.8,9.6,0.1,16.3c-1.2,4.9-3.5,9-6.1,12.2c-6.1,7.3-14.2,11.9-24.8,11.7
			C72,155,62.3,147.6,57.4,138c-1-2-2-4.2-2.6-6.6c-1.6-7.2-0.8-9.7,0.4-16.6l-4.5,0.1c-1.6,6.8-2.9,10.8-1,18.2
			c1.9,7.4,7.2,14.7,12.9,19c6.5,5.1,14.5,8.1,23.4,8.1c12.7,0.1,21.4-5.4,28.9-13.4c3.3-3.4,5.6-8.2,7.4-13.7
			c2.6-7.7,0.3-12.8-0.7-18.3L116.7,114.9z"/>
		<path class="st0" d="M61.4,74.3l4.9,0.2C65.4,68,61,59,66.7,50.1c9.5-15.2,29.6-14.1,38-0.4c1.9,3.1,3.3,7.6,3.2,11.8
			c-0.1,5.1-1.9,8.3-2.3,12.9c7,0.1,4.4,0.7,6.3-6.6c4.3-16.3-7.1-33.6-25.6-33.7c-11-0.1-18.7,5.6-22.9,11.8
			C57.3,55.1,58.8,63.2,61.4,74.3z"/>
		<path class="st0" d="M106.6,114.8c0.4,2.2,0.9,3.6,1.2,6c0.6,5.7-1.2,11.2-4.4,15.6c-11.6,15.7-36.2,9-39.1-9.9
			c-0.8-5.1,0.2-7,1-11.6h-4.8c-0.9,5.9-2,7.9-0.8,14.4c0.9,4.3,2.9,8,5,10.7c13.3,17.1,42.8,12.1,47.6-11.1
			c1.2-5.9,0.2-8.6-0.7-13.9L106.6,114.8z"/>
		<path class="st0" d="M44.7,79.8c-1.7,0.9-4.1,4.7,3.4,4.8c12.1,0.1,78.1,0.2,79.3-0.3c1-0.5,4.3-4.7-3.5-4.8
			C111.8,79.4,45.7,79.3,44.7,79.8z"/>
		<path class="st0" d="M44.6,99.9c-1.8,0.9-3.9,4.9,3.4,4.8c12.7-0.2,77.6,0.4,79.3-0.3c1.2-0.5,2-2.2,1-3.7
			c-0.8-1.3-2.7-1.1-4.5-1.1c-3.8-0.1-7.6,0-11.4,0c-7.6,0-15.2-0.1-22.7-0.1C84.7,99.7,45.7,99.4,44.6,99.9z"/>
		<path class="st0" d="M44.6,89.8c-1.3,0.7-2.2,2-1.1,3.7c0.9,1.4,2.6,1.1,4.5,1.1c12.3-0.1,78,0.3,79.3-0.2c1.2-0.6,2-2.3,1-3.7
			c-0.9-1.3-2.6-1.2-4.5-1.1c-3.8,0.1-7.6-0.1-11.4-0.1C102.9,89.7,45.7,89.3,44.6,89.8z"/>
		<path class="st0" d="M72,74.5l4.4-0.1c-0.9-5.2-3.7-11.4-2.3-16.5c3.3-11.7,20.2-11.3,23.5-0.3c1.5,4.9-1.3,11.7-2.3,16.8l4.8-0.1
			c0.5-1.2,2-8.2,2.3-9.8c2-9.4-4.8-20.5-16.9-20.3C74,44.4,67.2,54.8,69.3,64.6C69.5,66,71.2,74,72,74.5z"/>
		<path class="st0" d="M96.6,114.9c1.1,5.3,3,8.7,0.2,13.9c-4.9,9-17.5,8-21.6,0.1c-3-5.8-1-8.4,0.2-14h-4.9
			c-0.5,3.7-1.7,5.1-1.5,9.5c0.9,16,21.8,21.7,30.9,8.3c4.5-6.8,2.6-12,1.5-17.8L96.6,114.9z"/>
		<path class="st0" d="M81.6,109.9c-0.6,3.9-2.6,9.1-2.9,12.2c-1,10.3,15.3,10.3,14.4,0l-3-12.2C88.7,109.7,83.2,109.7,81.6,109.9z"
			/>
		<path class="st0" d="M81.8,74.4c10.9,0.1,7.7,1.3,9.6-5.8c0.5-1.9,1.3-4.2,1.6-6c0.7-4.8-2.3-8.1-6.8-8.3
			c-4.5-0.2-7.9,3.2-7.4,7.8C78.8,62.9,81.5,73.6,81.8,74.4z"/>
		<path class="st0" d="M126.9,114.8c0,0.6,0.8,4.9,1.1,5.6c0.3,0.6,2.6,3.2,3.1,3.6c1.8,1.5,5.1,4.3,8.2,5.1
			c0.3-2.4,1.3-4.1,2.1-6.1c-2.8-2.2-9.2-6.1-10.6-11.4C129.2,112.4,128.7,113.7,126.9,114.8z"/>
	</g>
</g>
</svg>
