<?xml version="1.0" encoding="utf-8"?>
<!-- Generator: Adobe Illustrator 23.0.3, SVG Export Plug-In . SVG Version: 6.00 Build 0)  -->
<svg version="1.1" id="Livello_1" xmlns="http://www.w3.org/2000/svg" xmlns:xlink="http://www.w3.org/1999/xlink" x="0px" y="0px"
	 viewBox="0 0 184.3 184.3" style="enable-background:new 0 0 184.3 184.3;" xml:space="preserve">
<style type="text/css">
	.st0{fill-rule:evenodd;clip-rule:evenodd;}
</style>
<g id="Layer_x0020_1">
	<path class="st0" d="M104.5,146.4c-0.6-0.1-10.3-9.8-11.5-11.1l-2.9-2.9c-0.3-0.3-0.6-0.5-0.8-1l15.2,0.1L104.5,146.4z M96.7,111.5
		c1,0.2,11.8,0.1,13.8,0.1c2.7,0,7.4,0.1,9.9-0.1c0.8-0.1,2.4,0.4,3.2-0.1c0.4-0.8,0.2-3.2,0.1-4.3l-26.9-0.1V111.5z M106.9,39.3
		l8.7,5.3c0.9,0.5,2.1,1.4,3,1.7l0.1-16.3l-11.7-0.1L106.9,39.3z M96.7,92.6h41.4v-4.4H96.8L96.7,92.6z M96.7,102
		c1.2,0.4,41,0.2,41.4,0v-4.3l-41.4-0.1V102z M46.9,51.6L46.5,52c-0.1,0-0.1,0.1-0.1,0.1L43,54c-0.7,0.6-1.9,1.2-2.9,1.8
		c-1,0.6-2,1.2-2.9,1.8c-0.5,0.3-5.5,3.2-6,3.7l5.3,8.8c0.8-0.1,4.7-2.8,5.8-3.4l34.4-20.8c7-4.2,5.5-4.2,8.7-2.3
		c12.3,7.6,24.9,15.1,37.3,22.6c1.8,1.1,1.5,0.9,3.8,0.9c1.5,0,3.2,0.1,4.7-0.1l3.5-5.8l-1.3-0.9c-0.8-0.3-0.6,0.5-1.7,0.1
		c-0.8-0.3-1.5-1.6-2-2.2c-0.7-0.7-39.4-23.9-44-26.7c-3.3-2-2.1-1.9-5.6,0.2L63.5,41.7C61.5,42.9,47.6,51.5,46.9,51.6z M76.7,67.1
		c1.4-0.3,7.8-0.1,9.7-0.1c4,0,27.5,0.2,29.3-0.1c-1-0.8-6.9-4.2-8.7-5.3l-21.8-13c-2.5-1.4-1.9-1.6-4.3-0.1
		c-5.9,3.7-11.3,6.6-17.5,10.4L46,69.5c-0.3,5.2-0.1,11-0.1,16.2V130c0,0.7,0.1,1.3,0.1,2.1c0.1,2.4-0.6,1.4,1.7,1.5l3.8-0.1
		c0.5-0.1,1,0.1,1.7,0.1c7.6,0,16.2-0.2,23.4,0c0.3-1.3,0.3-21.4,0-22.7l-21.5-0.1V80.1l21.6,0.1V67.1z M87.7,77.5
		c11.1-0.2,23,0,34.2,0c7.1-0.1,17.2-0.2,24,0c-0.1,20.3-0.1,40.5-0.1,60.7c-0.1,2.1,0.3,7.1-0.1,8.3c-1,0.3-18.6,0.1-21.3,0.1
		c-4.2,0-9.8,0.1-13.8-0.1c-0.1-6.1,0.2-16.3-0.1-21.4c-7,0.1-16,0.2-22.9,0V91.3V77.5z M152.9,123.7V101c0-2.4,0.1-28.8-0.1-30.5
		l-71.8,0.1c-0.4,2-0.1,7.4-0.1,9.7V129c0.1,2.6-0.3,3.2,0.7,4.2c0.9,0.9,1.6,1.7,2.4,2.4c1.6,1.6,3,3.1,4.8,4.9l12,12.3
		c1.5,1.5,0.8,1.5,3.4,1.5c16.1,0,32.7-0.2,48.7,0C152.8,128.6,152.9,133.5,152.9,123.7z"/>
</g>
</svg>
