<?xml version="1.0" encoding="utf-8"?>
<!-- Generator: Adobe Illustrator 23.0.3, SVG Export Plug-In . SVG Version: 6.00 Build 0)  -->
<svg version="1.1" id="Layer_1" xmlns="http://www.w3.org/2000/svg" xmlns:xlink="http://www.w3.org/1999/xlink" x="0px" y="0px"
	 viewBox="0 0 184.3 184.3" style="enable-background:new 0 0 184.3 184.3;" xml:space="preserve">
<style type="text/css">
	.st0{fill:#FFFFFF;}
</style>
<g id="Layer_x0020_1">
	<path class="st0" d="M120.3,140.6c0-6.1,9.2-6.5,9.2,0.2c0,1.8-2.2,4.1-4.5,4.1C122.7,145.1,120.3,143,120.3,140.6z M25.3,33.9
		v-1.1c0-1.8,2-3.6,4.7-3.6h17.8c5.4,0,5.9,4.1,6.8,7.6l3.1,11c1.8-0.4,3.2-1.6,5.8-1.6h83.3c3.4,0,6.7,1.6,8.5,3.4
		c3.2,3.2,3.8,5.6,3.8,10.1c0,2.7-8.1,34.2-9.2,38.3c-1.6,6.7-2.2,12.8-7.4,16.4c-1.4,0.9-3.6,1.8-5.8,2c-5,0.2-10.6,0-15.7,0H73.3
		c-2.7,0-5.2-0.2-7.2,0.7c-4.1,2.2-3.2,7.9,1.3,9c1.8,0.5,51.7,0.2,54.9,0.2c4.9,0,8.5,0.4,12.1,3.6c2.5,2.3,4.9,5.9,4.9,10.8
		c0,11.9-13.5,19.3-23.8,11.2c-4.7-3.6-6.7-11.2-4.5-15.7H94.6c0.9,4.1,1.3,6.8-0.7,10.8c-0.7,1.4-1.8,3.2-2.9,4.1
		c-10.8,9.5-24.7,0.9-24.7-10.1c0-5.9,1.8-4.9-0.5-5.2c-3.2-0.4-6.8-2.5-8.8-4.9c-3.4-4.3-3.6-6.7-3.6-11.5c0-4.3,4.3-10.1,8.8-11.7
		c0.7-0.2,1.4-0.5,2.2-0.7c-0.4-0.7-1.1-3.2-1.3-4.3l-3.6-12.8c-2.7-10.6-7-23.6-9.7-34.2c-1.3-5.2-3.6-12.1-4.9-17.1
		c-2.2,0-16.2,0.4-17.6-0.4C25.5,36.9,25.3,35.7,25.3,33.9z M81.1,145.1c-2.7,0-4.7-2.2-4.7-4.7c0-5.9,9.2-5.9,9.2,0.4
		C85.6,142.8,83.2,145.1,81.1,145.1z M72.3,96.7H80c2.5,0,1.8-0.5,2.9,4.9c0.4,1.4,0.9,3.2,0.9,4.5c-1.8,0-3.4,0-5.2,0
		c-2.2,0-3.1,0.2-4.1-1.1C74.1,104.3,72.4,98.1,72.3,96.7z M92.1,96.7h8.6v9.4h-6.5c-0.4-1.6-0.7-3.2-1.1-4.7L92.1,96.7z
		 M128.2,106.2l1.8-8.6c0.4-1.3,0.9-0.7,4.5-0.7c1.8,0,3.6,0,5.4,0c-0.9,1.8-1.3,6.8-2.3,8.1c-0.9,1.4-1.8,1.3-4,1.3
		C131.8,106.2,130,106.2,128.2,106.2z M117.4,106.2h-6.8v-9.4h9.4l-1.6,7.4C118.3,105,118.3,106.2,117.4,106.2z M122.1,86.8h-11.5
		V76.5h13.5c-0.2,1.4-0.7,3.6-1.1,5C122.8,83.2,122.3,85.2,122.1,86.8z M66.5,76.7h11c0.5,0.9,0.9,3.8,1.3,5c0.5,1.8,0.7,3.4,1.3,5
		H69.6c-0.4-0.7-0.5-1.6-0.7-2.5L66.5,76.7z M142.3,86.8h-9.9c0-1.4,0.7-3.8,0.9-5c0.4-1.8,0.7-3.4,1.1-5.2h10.4L142.3,86.8z
		 M87.7,76.7h13V87c-12.1,0-10.6,0.7-11.2-2.2L87.7,76.7z M61.6,58.5c0-1.1,0.5-1.6,1.3-2.2c1.3-0.9,8.5-0.5,10.3-0.5l2.3,11H63.8
		C63.6,65.2,61.6,60.3,61.6,58.5z M147.3,66.8h-10.8l1.6-7.7c0.2-1.1,0.5-1.6,0.5-2.9h8.1c2.7,0,2.5,2.5,2.2,4.5
		C148.2,62.5,147.7,64.7,147.3,66.8z M83.2,56h17.5v10.8H85.6c-0.4-1.8-0.9-3.4-1.3-5.4C84,59.6,83.4,57.8,83.2,56z M126.3,66.8
		h-15.7V56h18c-0.4,0.9-0.9,4.1-1.3,5.4C127.2,63.2,126.8,65,126.3,66.8z"/>
</g>
</svg>
