<?xml version="1.0" encoding="utf-8"?>
<!-- Generator: Adobe Illustrator 23.0.3, SVG Export Plug-In . SVG Version: 6.00 Build 0)  -->
<svg version="1.1" id="Livello_1" xmlns="http://www.w3.org/2000/svg" xmlns:xlink="http://www.w3.org/1999/xlink" x="0px" y="0px"
	 viewBox="0 0 184.3 184.3" style="enable-background:new 0 0 184.3 184.3;" xml:space="preserve">
<style type="text/css">
	.st0{fill-rule:evenodd;clip-rule:evenodd;}
</style>
<g id="Layer_x0020_1">
	<g id="_2307217139952">
		<path class="st0" d="M62.2,123c0,10.8,0,21.6,0,32.3c0,8.7,0.6,12-4.5,19.7l-2.5,3.5c-0.4,0.6-0.7,0.6-0.7,1.3
			c4.3,0.4,7.8-0.5,11.1-2.1c2.1-1,4.4-2.5,6-3.9c0.7-0.6,1.1-1.4,2.3-1.1c1.1,2.4-2.5,5.8-4.2,7c-0.8,0.6-1.9,1.1-2.4,1.8h19.2
			c3.6,0,5.5,0.3,8.5-1.1c3.5-1.6,5.2-3.9,6.1-3.1c0.8,1.2-0.7,2.8-1.1,3.9c1.8-0.3,3.2-1,4.7-1.9c1.1-0.6,3.2-2.3,4.4-2.2
			c0.8,1.6-0.6,2.9-1.1,4l10.5,0.1c3.5,0.1,5.7-3.6,7-6.6c4.3-9.2,3.2-23.2,3.2-33.5c0-6.2,0-12.3,0-18.4L62.2,123z"/>
		<path class="st0" d="M62.4,91.4l-0.2,10.9h66.2l0.1-10.9c-3.3-0.9-13.1,0.6-16-0.3c-3.4-1.1-6.6-5.2-8-8.3
			c-2.1-4.6-2.5-8.1-2.1-13.7l3.2-45.4c0.3-4.5,1.5-10.9-0.3-14.5c-4.1-8.8-16.1-8.2-20-0.2c-1.8,3.8-0.7,9.8-0.4,14.5
			c0.8,10.1,1.4,20.3,2.1,30.4c0.4,4.9,0.6,10.2,1.1,15.1c0.8,8.3-2.4,19-9.9,22C75.7,92,65.7,90.5,62.4,91.4z"/>
		<polygon class="st0" points="61,115.2 129.7,115.2 129.8,106.8 61.1,106.8 		"/>
	</g>
</g>
</svg>
