<?xml version="1.0" encoding="utf-8"?>
<!-- Generator: Adobe Illustrator 23.0.3, SVG Export Plug-In . SVG Version: 6.00 Build 0)  -->
<svg version="1.1" id="Layer_1" xmlns="http://www.w3.org/2000/svg" xmlns:xlink="http://www.w3.org/1999/xlink" x="0px" y="0px"
	 viewBox="0 0 184.3 184.3" style="enable-background:new 0 0 184.3 184.3;" xml:space="preserve">
<style type="text/css">
	.st0{fill:#FFFFFF;}
</style>
<g id="Layer_x0020_1">
	<g id="_2429619168656">
		<path class="st0" d="M84.5,88.3H138v57.2H84.5V88.3z M94.1,76.8H138v7.7H94.1V76.8z M84.5,76.8h5.8v7.7h-5.8V76.8z M80.8,75v70.7
			H46.4V69.2h53.5V73H82.6C81.5,73,80.8,73.7,80.8,75z M46.4,38.6h53.5v26.8H46.4V38.6z M42.4,36.7v111.2c0,0.7,1.1,1.4,2,1.4h95.4
			c1.3,0,2-0.7,2-2V75c0-1.3-0.7-1.8-2-1.8h-36.2V36.7c0-1.1-0.7-1.8-1.8-1.8H44.4C43.3,34.9,42.4,35.6,42.4,36.7z"/>
		<path class="st0" d="M94.1,118.9c0-2,0.9-5.4,1.4-6.8c0.9-1.8,2.2-3.8,3.4-5.2c1.4-1.6,3.1-2.5,5-3.6c12.4-6.1,27.2,5.8,23.9,19.1
			c-1.6,6.7-5.9,11.3-12.8,13.1c-6.8,1.8-14-1.3-17.8-6.7C95.3,125.9,94.1,122.3,94.1,118.9z M90.3,117.7c0,6.7,1.4,11.3,6.1,16
			c2,2,3.2,2.9,5.8,4.1c10.1,5,22.7,1.1,28.1-9.7c2.7-5.4,2.9-12.6,0.2-18.2c-3.4-6.7-10.4-12.1-17.8-12.1c-4.1,0-6.5,0.2-10.3,2
			C95.5,103.3,90.3,110.3,90.3,117.7z"/>
		<path class="st0" d="M98,120.7c4.7,0,0.2-4.1,5.6-9.5c2.5-2.5,4.3-2.9,7.6-3.2c2.9-0.2,2.5-4.3-0.9-4c-2.3,0.2-4.9,0.9-6.8,2.2
			c-2.2,1.3-2.2,1.6-3.6,3.2C96.8,113,95,120.7,98,120.7z"/>
		<path class="st0" d="M50.2,49.6v11.9c0,2.7,3.8,2.5,3.8,0V50C53.9,47.5,50.2,47.8,50.2,49.6z"/>
		<path class="st0" d="M50.2,73v11.3c0,2.7,3.8,2.2,3.8,0.5V73C53.9,70.3,50.2,70.5,50.2,73z"/>
		<path class="st0" d="M97.9,80.6c0,2.5,2.7,2,6.1,2c1.8,0,2.2-3.8-0.5-3.8C100.7,78.8,97.9,78.2,97.9,80.6z"/>
		<path class="st0" d="M107.4,80.6c0,2.5,2.7,2,6.3,2c1.8,0,2.2-3.8-0.5-3.8C110.3,78.8,107.4,78.2,107.4,80.6z"/>
	</g>
</g>
</svg>
