<?xml version="1.0" encoding="utf-8"?>
<!-- Generator: Adobe Illustrator 23.0.3, SVG Export Plug-In . SVG Version: 6.00 Build 0)  -->
<svg version="1.1" id="Livello_1" xmlns="http://www.w3.org/2000/svg" xmlns:xlink="http://www.w3.org/1999/xlink" x="0px" y="0px"
	 viewBox="0 0 184.3 184.3" style="enable-background:new 0 0 184.3 184.3;" xml:space="preserve">
<style type="text/css">
	.st0{fill-rule:evenodd;clip-rule:evenodd;}
</style>
<g id="Layer_x0020_1">
	<path class="st0" d="M118.5,110.2c0.4,0.5,13.2,9.9,14.8,11.3l14.9,11.2c0.8,0.6,1.9,1.2,1.7,2.6c-0.1,1.5-1.4,1.8-2.6,1.8H38.6
		c-1.4,0-2.9,0.3-3.8-0.6c-2.1-2.1,1.4-3.9,2.7-4.9l29.7-22.5c1.6-1.3,23.9-18.2,24.8-18.7c0.7,0.4,1.2,0.8,1.7,1.2
		c0.6,0.5,1,0.7,1.6,1.2l18.9,14.3c0.7,0.5,2.6,2.1,3.2,2.2c0.2,0.2,0.1,0.2,0.4,0.5C118.1,110.1,118.2,110.1,118.5,110.2z
		 M80.4,57.8c0.5-5.7,5.4-10.4,11.2-10.7c6.3-0.3,11.2,4.3,12.1,9.6c1.2,6.8-3.2,11.8-8.1,13.4c-1.4,0.4-3.8,0.4-4.7,0.8
		c-4,1.7-2.5,10.8-2.6,12.9c-2.1,1.8-4.5,3.4-6.7,5.1l-50.1,37.9c-1.3,0.9-2.1,1.6-3,2.8c-3.7,5.1-1.2,13,5.5,14.6
		c1.7,0.4,9.2,0.2,11.5,0.2c31.3,0,62.5,0,93.8,0c2.8,0,9.2,0.2,11.2-0.3c6.6-1.8,8.8-9.8,4.9-14.7c-1.5-1.9-11-8.7-13.1-10.3
		l-33.4-25.3c-4-3.1-9.3-6.9-13.3-10.1v-6c0.4-0.2,2.1-0.6,2.7-0.8c5.4-1.8,10.1-6.4,11.9-12.1c2.7-8.4-0.9-16.4-5.3-20.2
		c-13.5-11.6-31.7-1.1-32,13.1H80.4z"/>
</g>
</svg>
