<?xml version="1.0" encoding="utf-8"?>
<!-- Generator: Adobe Illustrator 23.0.3, SVG Export Plug-In . SVG Version: 6.00 Build 0)  -->
<svg version="1.1" id="Layer_1" xmlns="http://www.w3.org/2000/svg" xmlns:xlink="http://www.w3.org/1999/xlink" x="0px" y="0px"
	 viewBox="0 0 184.3 184.3" style="enable-background:new 0 0 184.3 184.3;" xml:space="preserve">
<g id="Layer_x0020_1">
	<g id="_2001969848512">
		<path d="M46.9,35.7c17.6-3.4,23.2,23.6,5,27.4C34.4,66.7,27.8,39.3,46.9,35.7z M24.7,106.5l12.4-0.2c2.7-3.4,5.8-9.4,8.1-13.1
			C55,76.8,57.1,68.5,64.7,78.2c2.7,3.6,6.7,8.3,9.7,11.3C82.9,73.4,89.3,44.9,96.9,64c5.4,13.9,11.9,28.3,16.7,42.3l11.9-0.2V24.8
			H24.7L24.7,106.5L24.7,106.5z"/>
		<path d="M145.5,160.5h3.2c3.8-3.6,2.9-4,3.4-10.3c1.3-14.4,7.4-86.8,8.3-88.9v-3.1c-2.9-4.1-4.3-3.1-10.3-3.6
			c-6.3-0.5-6.3-1.4-11,1.4l0.2,4.3c2.5,1.8,1.3,1.8,5.2,2.2c2.3,0.2,4.7,0.4,7,0.5l-8.1,88c-4.5,0.4-43-3.8-51.1-4.3
			c-8.3-0.7-16.9-1.6-25-2.3c-10.1-0.9-22.9-4.1-20.7,4.3c0.9,3.4,6.7,3.1,11,3.4C72.1,153.5,143,159.4,145.5,160.5z"/>
		<polygon points="125.7,125.7 125.5,115.3 24.5,115.3 24.5,125.6 		"/>
		<path d="M47.4,106.5l57.1-0.2L91,73.9c-3.6,5-8.6,21.6-13.9,28.1c-5.4,0.4-4.7-0.9-9.9-7c-1.6-2-6.3-7.9-7.7-8.8L47.4,106.5z"/>
		<path d="M24.7,106.5V24.8h100.8v81.7c1.8-1.3,0.7-38,0.7-40.5c0-12.4,1.1-29.7-0.2-41.4c-2.7-0.9-95-1.3-101.7-0.2
			c-0.2,1.4-0.9,76.9-0.2,80.8C24.4,106.3,24.4,106.1,24.7,106.5z"/>
		<path d="M125.7,125.7H24.5v-10.3h100.8L125.7,125.7z M125.7,125.7c0.9-1.8,0.5-8.6,0.4-10.4c-2.3-0.9-95.8-1.3-101.7-0.2
			c-0.5,3.1-0.7,8.3,0.2,11.2c1.6,0.2,92.9,0.9,99.4,0.2C126.1,126.1,125,126.5,125.7,125.7z"/>
		<path d="M46.9,44.7c-1.4,0.7-2,0-2.7,2.7c-1.4,5.2,3.2,8.6,7.9,6.5C56.9,51.8,54.6,41,46.9,44.7z"/>
	</g>
</g>
</svg>
