<?xml version="1.0" encoding="utf-8"?>
<!-- Generator: Adobe Illustrator 23.0.3, SVG Export Plug-In . SVG Version: 6.00 Build 0)  -->
<svg version="1.1" id="Layer_1" xmlns="http://www.w3.org/2000/svg" xmlns:xlink="http://www.w3.org/1999/xlink" x="0px" y="0px"
	 viewBox="0 0 184.3 184.3" style="enable-background:new 0 0 184.3 184.3;" xml:space="preserve">
<g id="Layer_x0020_1">
	<path d="M110,138.2v-35.6l16-5.4l1.8,31.5L110,138.2z M54.8,131.9V99.1c4,0.2,26.1,1.8,27.7,3.1c0.9,1.3,1.8,18.7,1.8,21.6
		L54.8,131.9z M126.6,79.3l-36.4-3.1c0-3.4,1.1-20.3,2.2-22.7l35.5,2.5L126.6,79.3z M93.5,37.8l36.4,2.5l-0.9,8.5l-36-2.3L93.5,37.8
		z M94.6,23l36.7,2l-0.9,7.4L94,30.6L94.6,23z M83.4,76.6c-6.5,1.6-13.3,2.5-20,4c-3.6,0.7-16.9,2.9-17.5,6.8
		c0.4,2.5,0.9,1.1,1.1,3.6v52.7c0,5.6-0.5,14.2,0.2,19.4c2.9,1.4,3.8,0.7,6.3,0l1.3-22.7L85,130.1l1.3,19.6c3.1,0.7,4.1,1.1,6.7-0.9
		l-1.8-46.3l11.7,1.1l-0.4,67.3c3.6,0.9,3.8,0.5,6.3-0.9l1.3-23.8c1.4-1.4,7-4.3,9-5.6c1.6-0.9,7.9-4.9,9.4-5l0.9,14.9
		c0,1.4-0.2,3.2,0.7,4.7c2.7,0.4,4.1,0.5,6.1-1.1c-2.3-43.4-3.8-55.6-0.7-99.2c0.5-6.8,1.1-13.5,1.6-20.2c0.2-2.7,2.3-18.9,0.9-20
		c-0.7-0.2-2.9-0.4-4-0.2c-2.5,0.5-0.5,0.9-1.8,2.9L95.5,16c-0.7-1.1-0.4-1.8-0.9-3.1l-4-0.2C88.8,16.9,84.3,68,83.4,76.6z"/>
</g>
</svg>
