<?xml version="1.0" encoding="utf-8"?>
<!-- Generator: Adobe Illustrator 23.0.3, SVG Export Plug-In . SVG Version: 6.00 Build 0)  -->
<svg version="1.1" id="Layer_1" xmlns="http://www.w3.org/2000/svg" xmlns:xlink="http://www.w3.org/1999/xlink" x="0px" y="0px"
	 viewBox="0 0 184.3 184.3" style="enable-background:new 0 0 184.3 184.3;" xml:space="preserve">
<style type="text/css">
	.st0{fill:#1C1C1C;}
</style>
<g id="Layer_x0020_1">
	<path class="st0" d="M105.9,67.1l-0.2,81.5c-0.9,0.4,0.9,0.2-1.8,0.5l-25.7-0.4l0.2-81.9c4-1.3,14.9-0.5,21.2-0.7
		c0.9,0,2.7-0.2,3.6,0L105.9,67.1z M117.2,102.2h23.9V149l-24.3-0.2L117.2,102.2z M43.4,148.4c-1.8-4-0.9-39.2-0.5-46.6l24.7,0.2
		l-0.4,47l-22.1,0.2C43.8,149,43.6,148.6,43.4,148.4z M147.5,66.7c2.7,2.2,1.4,22.3,0.5,24.5h-24.5c-6.7,0.2-5.8,0.7-6.7-0.9
		l0.2-23.6H147.5z M36.1,66.9l31.1,0.2V91l-31.5-0.2L36.1,66.9z M57.5,38.8c4.3-5,13.1-5,18.4-1.3c3.4,2.5,7.9,11.3,9,17.5
		C73.7,53.9,58.2,47.8,57.5,38.8z M98.2,54.8c2.9-8.6,2.9-11.2,9-16.7c4.7-4.3,14.6-4.5,18.5,0.9C124.3,49.1,106.3,54.7,98.2,54.8z
		 M54.4,55.4c-32.2,2.5-29.5-9-29.9,33.7c-0.2,14.6,5.9,10.8,7.2,13.9c0,9.4,0,18.9,0,28.4c0,35.1-7,29,60.1,29c9.5,0,52.2,2,57.2-2
		c5.6-4.3,3.4-18,3.4-26.1c0-9.7,0-19.6,0-29.3c5.9-4.9,7.2-2.2,7.2-13.9c-0.2-38,3.8-33.3-31.1-33.5c1.4-2.5,0.9-1.6,2.9-3.8
		c3.6-4,6.3-7.7,5.6-13.9c-1.6-17.1-37.1-21.6-45,2c-4.9-4-9.5-21.4-33.3-15.1c-6.5,1.8-12.1,5.9-12.8,13.1
		C45.2,46.6,51.2,52,54.4,55.4z"/>
</g>
</svg>
