<?xml version="1.0" encoding="utf-8"?>
<!-- Generator: Adobe Illustrator 23.0.3, SVG Export Plug-In . SVG Version: 6.00 Build 0)  -->
<svg version="1.1" id="Layer_1" xmlns="http://www.w3.org/2000/svg" xmlns:xlink="http://www.w3.org/1999/xlink" x="0px" y="0px"
	 viewBox="0 0 184.3 184.3" style="enable-background:new 0 0 184.3 184.3;" xml:space="preserve">
<g id="Layer_x0020_1">
	<path d="M60.3,80.4c-7.9-0.2-8.5,0.7-10.1-4.7c-0.7-2.3,1.3-3.1,2.9-4c1.4-0.7,3.6-1.8,5.2-2.2L60.3,80.4z M142.2,107.2
		c-2.3,1.1-1.1,4.7,1.6,3.8C146.4,110.1,144.9,106.1,142.2,107.2z M42.9,107.2c-2.3,1.1-1.1,4.7,1.6,3.8
		C47,110.3,45.8,106.1,42.9,107.2z M42.3,101.8c4.3-0.9,7.9,2.2,8.6,5.8c0.9,4.5-2.2,8.1-5.8,8.8C35.9,118.4,32.6,104,42.3,101.8z
		 M55.7,110.6c0.9-7-4.5-12.6-10.4-13.3c-7-0.9-12.6,4.3-13.3,10.4c-0.9,7,4.3,12.6,10.4,13.5C49.4,122,54.9,116.7,55.7,110.6z
		 M141.7,101.8c4.5-0.9,7.9,2.2,8.6,5.8c0.9,4.5-2.2,8.1-5.8,8.8C135,118.4,132,103.8,141.7,101.8z M155,110.3
		c0.7-7-4.5-12.4-10.6-13.1c-7-0.7-12.6,4.3-13.1,10.6c-0.7,7,4.3,12.4,10.6,13.1C148.7,121.8,154.3,116.6,155,110.3z M60.3,69
		c3.2-0.7,5.9-1.6,9.4-2c3.1-0.4,7.2-0.9,10.3-0.7l2.7,14.4c-4.1,0-15.1,0-19.3-0.2c-0.2,0-0.4,0-0.5-0.2c-0.5-0.2,0,0.2-0.4-0.2
		C62.3,79.7,60.7,70.5,60.3,69z M115.2,81.6c-8.3-0.2-18-0.7-26.1-0.7c-0.4-0.5-3.6-13.1-4-14.6c9.4,0.4,14.6,1.3,22.9,4.1
		c4.1,1.4,10.1,4,13.7,6.5c1.4,0.9,2.9,4.3,1.1,4.9c-0.2,0.2-0.7,0.2-1.1,0.2c-0.7,0-1.4,0-2.2-0.2
		C118.1,81.6,116.7,81.6,115.2,81.6z M169.2,90.3c0.2-2.5-4.7-4.7-7.4-5.6c-3.2-1.1-7.2-1.8-10.8-2.5c-5-1.1-17.5-2.9-21.2-4.9
		c-12.2-5.9-23.4-12.2-38.9-13.9c-16-1.6-31.7,0.5-44.8,6.7c-4,1.8-9.4,4.7-13.5,6.3C28.7,78,17,78,15.9,79.3
		c-0.4,0.4-0.7,1.8-0.9,2.5c-0.4,1.3,0.2,1.3,1.4,1.3c1.8-0.2,4.7-0.4,6.3,0c0.4,2.2-5.2,5.8-7,7c-0.9,0.5-3.8,2.3-4.1,2.9
		C11,93.9,11,98.2,11,99.5c0.2,1.3,1.1,4.5,1.6,5.4c0.9,1.8,2.5,1.8,4.9,2.2c1.8,0.4,11,2.2,11.9,2.2c0.5-0.7,1.3-4.7,1.6-5.9
		c0.7-2,1.6-3.4,2.7-4.7c4.3-5.4,19.4-7.2,23.4,5.8c0.4,0.9,0.5,2,0.7,3.1c0,0.5,0.2,1.3,0.2,1.8l0.2,1.3c0,0,0,0.2,0.2,0.2v0.2
		c0.5,0.2,69.1,0.4,70.2,0c1.1-0.7-0.2-6.8,3.8-11.3c7-8.3,20.9-5.2,23.9,4.5c0.4,1.3,1.3,6.3,1.4,5.9c0,0,0.2,0,0.2,0.2
		c0.9,0.4,5.8-0.4,7-0.5c2.3-0.2,5.4,0,6.3-1.6c1.6-2.9,3.8-9.5,0.4-11.9c-2.5,0-1.6,0.9-4.7-0.4c-2.2-0.9-4.7-2.3-6.7-3.8
		c-0.5-0.4-0.9-0.7-1.4-1.3c-2.5-2.2,0.5-1.6,1.8-1.4C162.2,89.4,168.5,90.5,169.2,90.3z"/>
</g>
</svg>
