<?xml version="1.0" encoding="utf-8"?>
<!-- Generator: Adobe Illustrator 23.0.3, SVG Export Plug-In . SVG Version: 6.00 Build 0)  -->
<svg version="1.1" id="Livello_1" xmlns="http://www.w3.org/2000/svg" xmlns:xlink="http://www.w3.org/1999/xlink" x="0px" y="0px"
	 viewBox="0 0 184.3 184.3" style="enable-background:new 0 0 184.3 184.3;" xml:space="preserve">
<style type="text/css">
	.st0{fill-rule:evenodd;clip-rule:evenodd;fill:#FFFFFF;}
</style>
<g id="Layer_x0020_1">
	<g id="_2307207149888">
		<path class="st0" d="M129.6,133.6c0-3,2.5-5.6,5.9-5.9v11.8C132.2,139.2,129.6,136.7,129.6,133.6z M68.5,129.6v-3.9
			c0.9,0.2,1.9,0.9,1.9,1.9C70.4,128.7,69.4,129.4,68.5,129.6z M68.5,117.8c14.9,7.9,44.4,7.2,60.7,2.7c2.4-0.7,4.4-1.6,6.4-2.7v5.9
			c-5.7,0-9.8,4.6-9.8,9.1c0,2.7,0.2,4.5,1.9,6.7l2.9,2.6c0.8,0.6,0.6,0.2,1.1,0.9l-6.4,2c-6.3,1.6-8.9,1.4-14.6,2.1
			c-1.3,0.2-2.8,0-4.1,0.1c-1.9,0.1-4.4,0.4-6.6,0.3c-1.1-0.1-1.2-0.3-2.4-0.3c-7.1-0.1-16.5-1-22.9-3.5c-1.4-0.5-2.1-1.1-3.4-1.7
			c-3.3-1.7-2.6-2.7-2.6-8.3c6.1,0,7.5-7.2,4.1-10.3c-1-0.9-2.3-1.6-4.1-1.6V117.8z M84.2,113.8c2.8,0,10.6,1.6,9.7,4.3
			c-0.2,0.4-0.8,1.2-1.1,1.2c-3,0-6.5-0.5-9-0.9c-1.4-0.3-2.8-0.5-4.1-0.8c-1.1-0.3-3.1-1-4.2-1c0.3-1.1,2.4-1.8,3.6-2
			C80.4,114.2,82.7,113.8,84.2,113.8z M71.7,114.6c-1.6-0.2-2.6-1.5-3.2-2.7c1.8-3.5,11.8-5.9,15.7-6.5c3.8-0.6,17.7-2.1,21.8-1.1
			c0,4.6,5.2,7.7,8.9,7.7c4.9,0,8-1,10.4-5.5c2.5,0.6,8.8,2.5,10,4.6c2.8,5.1-19.2,7.9-20.8,8.1c-2,0.2-12.4,0.9-14.1,0.7l-2.5-0.3
			c1.7-7-7.5-9.6-12.1-9.6c-4.1,0-8.8,0.3-12.1,2.7C72.4,113.4,71.9,113.7,71.7,114.6z M109.9,104.2c1.7,0.2,3.8,0.3,5.6,0.6
			l5.5,0.7c-0.3,0.9-0.7,1.1-2,1.7c-2.2,1-4.8,0.9-6.9-0.3C110.4,106,110.5,105.5,109.9,104.2z M64.5,111.6v28.1
			c0,1.6,0.9,2.6,1.5,3.7c-3.2,0-18.1,0.2-19.9-0.1c-5.9-0.8-9.2-4.8-9.2-11.1V94.1h7.9c1.4,0,2.9,5.9,12.6,5.9
			c3.6,0,7.9-2.2,9.8-4.9c0.3-0.4,0.6-1,1.3-1h7.9v8.1c0,1.1-1.3,0.8-3.5,1.7c-1.4,0.5-2.4,1-3.7,1.7
			C67,106.8,64.5,108.9,64.5,111.6z M36.9,82.2h9.6c2.3,0,2.8-5.7,10.2-5.9c2.9-0.1,6.1,1.6,7.8,4c0.7,0.9,0.9,1.9,2.3,1.9h9.6v7.9
			h-9.6c-1.4,0-1.6,1-2.2,1.8c-1.1,1.4-2.7,2.8-4.4,3.5c-4.3,1.5-8.5,0.2-11.3-3.4c-0.7-0.8-0.8-1.9-2.3-1.9h-9.6V82.2z M44.7,78.3
			h-7.9c0-8.7-0.7-5.5,2-11.8l4.3-9.5c0.6-1.3,1.6-4.3,2.6-4.3h21.7c0.8,0,1.2,1.4,1.5,2c0.4,1,0.7,1.5,1.1,2.4
			c0.8,1.8,6.3,13.7,6.3,14.4v6.9c-13.5,0-5.5,0.4-12.2-3.8C58,70.7,49.8,72.1,46,77.3C45.7,77.7,45.4,78.3,44.7,78.3z M92.6,63
			l2.6,0.8c12.1,3.5,36.7,3.5,48.8,0.1c1.1-0.3,1.8-0.7,2.9-0.9l-3.5,58.7h-3.9v-10.4c0-2.8-3.1-5-5.1-6
			c-11.2-5.7-26.8-5.3-39.3-5.3c0-1.2-0.2-1.3-0.3-2.2c-0.1-0.8,0.1-1.6,0-2.4c-0.1-1.1-0.2-3.4-0.4-4.6l-1.4-20.8
			C93,68.6,93,63.9,92.6,63z M92.1,54.9c10.3,4.9,45.1,4.9,55.3,0v3.4c-3.2,1.7-8.3,2.7-12.6,3.2c-2.4,0.3-4.8,0.5-7.1,0.8
			c-1.3,0.2-2.7-0.1-3.9,0.1c-6.5,0.6-12.4-0.1-18.7-0.8c-4.1-0.5-9.9-1.6-12.9-3.2V54.9z M92.9,50.4c1.8-0.5,2.9-1,6-1.7
			c3.9-0.9,9.4-1.4,13.5-1.8c1.2-0.1,2.4,0.1,3.6-0.1c6.1-0.7,21.7,0.7,27.7,2.6c1,0.3,1.9,0.7,3,1v0.5c-2,0.5-2.7,1-5.8,1.6
			c-5.6,1.1-7.8,1.2-13.3,1.8c-1.2,0.2-2.5,0-3.7,0.1c-5.8,0.3-5.5,0.1-11.1,0l-7.2-0.7c-2.4-0.3-7.6-1.1-9.8-1.8
			c-0.9-0.3-1.9-0.7-3-1V50.4z M44.7,46c0-4.4-0.9-9.1,2.2-9.1h19.2c1.2,0,2.2,1,2.2,2.2v7.4c0,1.2-1,2.2-2.2,2.2H47
			C45.4,48.7,44.7,47.5,44.7,46z M40.8,38.3v8.9c0,1.5,0.9,2.2,0.9,3c0.1,0.7-0.8,2.1-1.2,2.9c-1.2,2.9-7.6,16.3-7.6,17.1v64.2
			c0,3.7,2,7,3.9,8.9c1,1,2.3,2.1,3.7,2.8c1.2,0.6,3.4,1.4,5.1,1.4h22.2c3.4,0,1.4-1.4,5.1,0.1c16.3,6.5,66.7,5.4,66.7-7.8v-14
			c6.7,0,7.6,0.7,8-2.6l3.1-51.7c0.1-0.8-0.1-1.6,0-2.4c0.1-1.1,0.3-1,0.3-2.2c0.2-5.8,0.5-9.9,0.5-16.3c0-10.2-63.2-10.2-63.2,0
			c0,5.6-0.2,6.3,0.5,11.8l1,16.3c0.1,2,0.2,3.6,0.2,5.4c0.1,1.4,0.3,1.5,0.3,2.7l0.3,5.5c0.1,2,0.5,5.5,0.5,8.4
			c-3.9,0-8.7,1.2-10.6,1.2V70.1c0-1-8.7-19-8.8-19.8c-0.1-0.9,0.9-1.6,0.9-3.1v-8.9c0-2.8-2.7-5.5-5.4-5.5H46.2
			C43.4,32.9,40.8,35.5,40.8,38.3z"/>
		<path class="st0" d="M121.7,86.2c0.1-3.5,1.7-6.5,3.5-8.3c1.8-1.9,4.8-3.5,8.3-3.5C133.5,81,128.3,86.1,121.7,86.2z M106,74.4
			c6.5,0.2,11.7,5.3,11.8,11.8C111.3,86.1,106.1,81,106,74.4z M102,72.4c0,5.7,0.5,9,4.6,13.2c1.3,1.3,2.6,2.3,4.3,3.1
			c2.8,1.1,3.6,1.5,6.9,1.5v5.9h3.9v-5.9c4.6,0,8.1-1.5,11.2-4.6c4.2-4.2,4.6-7.7,4.6-13.2c0-2.4-2.7-2-4.9-2
			c-5.4,0-11.9,4.8-12.6,7.9h-0.5c-0.4-1.6-3.4-4.4-4.8-5.3c-3.9-2.6-6.4-2.6-10.8-2.6C102.8,70.4,102,71.2,102,72.4z"/>
		<path class="st0" d="M90.1,136.5c0-0.7,0.8-1.7,1.3-2.1c1.5-1.1,3.7-1.1,5.3,0c1.7,1.1,1.7,3.1,0,4.2c-1.5,1.1-3.7,1.1-5.3,0
			C91,138.3,90.1,137.2,90.1,136.5z M86.2,136.1c0,2.7,0.4,3.5,2.3,5.4c6.2,6.2,18.8-2.1,11.2-9.7c-2.8-2.8-8.5-2.8-11.2,0
			C87.4,132.7,86.2,134,86.2,136.1z"/>
		<polygon class="st0" points="104,115.8 107.9,115.8 107.9,111.9 104,111.9 		"/>
		<polygon class="st0" points="96.1,111.9 100,111.9 100,107.9 96.1,107.9 		"/>
	</g>
</g>
</svg>
