<?xml version="1.0" encoding="utf-8"?>
<!-- Generator: Adobe Illustrator 23.0.3, SVG Export Plug-In . SVG Version: 6.00 Build 0)  -->
<svg version="1.1" id="Layer_1" xmlns="http://www.w3.org/2000/svg" xmlns:xlink="http://www.w3.org/1999/xlink" x="0px" y="0px"
	 viewBox="0 0 184.3 184.3" style="enable-background:new 0 0 184.3 184.3;" xml:space="preserve">
<style type="text/css">
	.st0{fill:#FFFFFF;}
</style>
<g id="Layer_x0020_1">
	<path class="st0" d="M44.6,95.6c-1.8,3.6-9,7.7-8.3,17.5c0.5,7.2,5.8,13.3,4.3,20.7l-6.3,1.8c-2.9,12.4,13.3,41,21.4,28.6
		c1.6-5.8-11.7-4.3-11.3-16.9c0-4.9,2.7-6.7,6.7-7.6c3.4-0.9,7.9-2.5,11.3-1.8c0.9,6.7,4,13.7,10.1,15.8c2.3,0.7,6.1,2,7.7,0.2
		c2.9-5.4-6.1-5.2-7.9-8.3c-4.5-7.7,7-12.8,10.1-16c6.3-6.3,0-6.7,9.4-8.6c4.1-0.9,11.3-0.9,14.8,1.8c3.8,3.1-0.9,7.4,3.1,22.7
		c6.1,23,21.2,20.2,17.3,11.7c-1.3-2.9-11.5-6.1-7.2-23c0.5-1.8,0.9-3.2,1.8-4.9c1.1-2.2,0.7-2.3,3.4-2.5
		c0.2,1.1-3.4,32.4,12.4,27.5c2.5-7.4-3.8-2.5-5.2-10.8c-0.9-5.8,2.2-14.9,3.6-21.4c0.5-2,0.7-6.1,1.1-7.4c0.5-1.6,4.1-4.1,4.9-12.4
		c0.7-6.3-0.2-9.4,4.3-12.4c3.6-2.5,6.8-3.6,7.7-9.7c0.5-4.1-2.5-9-4-12.6c-1.1-2.7-2.3-3.2-2.5-5.8c-0.2-3.2,0.2-5.4-0.5-8.5
		c-5.9,2.5-3.4,10.1-14.2,7.9c-2.7-1.3-3.1-9.9-3.2-12.1c-6.7,0.5-6.5,13.3-7.7,15.5c-2.3,4-7,4.7-4.1,18.2
		c-10.3-3.8-14.6-7.6-29-7.9c-11.5-0.2-20.9,2.9-29.3,7.7c-7.6,4.3-7.4,6.7-12.2,4.3c-13.9-7-0.7-27.4,0.9-43.2
		c2.2-22.3-7.7-32-15.8-23.8c-4.9,4.9,3.6,10.8,5.4,20.7c1.4,7-4.7,23-5.6,31.5C30.4,84.8,35.6,91.9,44.6,95.6z"/>
</g>
</svg>
