<?xml version="1.0" encoding="utf-8"?>
<!-- Generator: Adobe Illustrator 23.0.3, SVG Export Plug-In . SVG Version: 6.00 Build 0)  -->
<svg version="1.1" id="Layer_1" xmlns="http://www.w3.org/2000/svg" xmlns:xlink="http://www.w3.org/1999/xlink" x="0px" y="0px"
	 viewBox="0 0 184.3 184.3" style="enable-background:new 0 0 184.3 184.3;" xml:space="preserve">
<g id="Layer_x0020_1">
	<path d="M141.9,152.5c2.2,0,4.3-2.5,4.7-4.7c0.4-2,0.2-36.7,0.2-43.7c0-2.3,0.4-2.9-0.9-4.1c-3.8-3.1-7-5.8-10.8-8.8
		c-3.6-2.9-7.2-5.8-10.8-8.8c-0.9-0.7-1.6-1.4-2.5-2.2c-5.8-4.5-12.8-10.8-18.9-15.5c-1.4-1.1-9.5-8.1-10.8-8.8
		c-1.3,0.7-4,3.2-5.2,4.3c-1.8,1.6-3.4,2.9-5.4,4.5c-3.6,2.9-7.2,5.9-10.8,8.8l-32,26.3c-1.4,1.3-1.1,1.3-1.1,3.6
		c0,7.4-0.2,41.9,0.2,44.1c0.4,2.3,2.5,4.9,4.9,4.9c0.4,0.9,7.9,0.5,9.2,0.5c4.9,0,26.8,0.4,28.4-0.2v-36.4h24.1v36.4
		c1.6,0.4,29.2,0.2,35.6,0.2C140.5,152.9,141.4,153,141.9,152.5z M92.1,47.4c2.5,1.6,21.8,18.2,24.8,20.7c7.6,6.1,17.5,14.6,25,20.9
		l14,11.7c1.3,0.9,3.4,3.4,5.8,1.3c0.7-0.5,2-2.2,2.7-3.1c5.8-7,6.8-5.9-5-15.1l-12.6-10.4c-0.2-12.4,0.4-26.3,0-38.2
		c0-1.8-0.5-2.9-2-3.4c-1.8-0.5-19.8-0.4-20.9,0.4c-2.2,1.4-1.3,6.7-1.3,9.7c0,3.6,0,7.4,0,11.2c-1.1-0.4-21.4-17.6-22.7-18.7
		c-4.5-3.8-10.8-3.8-15.3,0l-11.3,9.5c-6.8,4.9-16.2,13-22.9,18.4L16.6,90.4c-2.3,2.5,0.4,5,1.6,6.7c1.1,1.3,4,4.9,5,5.4
		c1.4,0.5,2.9-0.2,3.6-0.9c6.3-5.4,14-11.3,19.8-16.6c4.9-4.3,11.7-9.5,16.9-14L92.1,47.4z"/>
</g>
</svg>
