<?xml version="1.0" encoding="utf-8"?>
<!-- Generator: Adobe Illustrator 23.0.3, SVG Export Plug-In . SVG Version: 6.00 Build 0)  -->
<svg version="1.1" id="Layer_1" xmlns="http://www.w3.org/2000/svg" xmlns:xlink="http://www.w3.org/1999/xlink" x="0px" y="0px"
	 viewBox="0 0 184.3 184.3" style="enable-background:new 0 0 184.3 184.3;" xml:space="preserve">
<style type="text/css">
	.st0{fill:#FFFFFF;}
</style>
<g id="Layer_x0020_1">
	<g id="_2429341176064">
		<path class="st0" d="M118.8,145.9c-0.9-0.2-2-0.7-3.1-1.1c-10.3-2.7-18.2,5.9-13.1,12.6c5.9,7.7,20.2,5.4,21.4-2.7
			c0.7-4.7,0.9-10.8,1.1-15.8c0.4-5.2,0.7-10.4,1.1-15.7c0.2-2.3,2.3-30.1,2.2-31.5l-50.9,11.3l-3.6,51.3c-4.1-1.6-7.9-2.5-12.4-0.5
			c-2.9,1.4-6.5,4.5-5.2,9.4c1.8,7,13.7,10.1,19.8,4.7c3.6-3.1,2.9-6.1,3.4-11.7l2.9-42.1l39.6-8.8L118.8,145.9z"/>
		<path class="st0" d="M50.7,100c-1.6-1.6-2.3-2.7-5-4c-8.5-4.1-17.1,0.4-15.1,8.5c1.1,4.1,5,7.7,9,9c3.4,1.1,8.1,1.1,10.8-1.4
			c2.3-2.2,6.5-11,8.3-14.2C60.8,93.9,63,90,65,86s4.1-7.9,6.3-11.7c2.2-4,4.1-8.1,6.3-11.7c3.2,2.5,5.2,5.4,6.5,11.2
			c0.5,2.2,1.3,5.6,0.5,7.7c-1.1,2.5-3.4,3.2-4.3,4.5c3.6-0.7,6.1-2.7,7.2-5.9c1.8-5.4-1.6-16-4.1-20.7c-0.9-1.8-1.6-2.5-3.1-3.4
			c-1.1-0.5-3.4-2-4.5-2.3L57.2,88.3c-1.1,2-2,3.8-3.1,5.8l-2.9,5.4C50.9,99.9,50.9,99.9,50.7,100z"/>
		<path class="st0" d="M88,37.8c-1.6-0.9-3.2-2.2-6.1-1.6c-2,0.5-3.8,2-3.4,4.5c0.7,3.8,7.2,6.3,10.3,3.1c1.6-1.8,6.3-19.8,8.1-24.1
			c1.6-0.4,16.9,0.2,20,0.2l-6.1,19.1l-0.9-0.5c-0.2-0.2-0.4-0.2-0.7-0.4c-4.7-2.5-10.4,1.1-7,5.8c1.1,1.4,3.6,2.9,6.5,2.5
			s3.4-2.2,4.3-4.7c0.5-1.8,8.6-26.3,8.8-27.5l-25.9-0.5L88,37.8z"/>
		<path class="st0" d="M123.1,58.6l11.3,13.9c1.8,2.3,3.8,4.7,5.8,7c1.3,1.6,4.9,5.8,5.8,7.2c-3.1,0.5-5.6,3.4-6.7,5.9
			c-2.7,7.4,6.7,11.3,12.8,3.8c2.2-2.9,2.3-6.1,0-9l-22.5-27.2c-0.4-0.5-0.2,0-0.4-0.5c3.6-2.5,11.5-1.3,13.7,0.4
			c1.3,1.1,0.9,2.7,1.8,3.8c0.5-5.8-3.2-7.6-8.5-8.3c-2.5-0.4-5.4-0.7-7.9-0.4c-2,0.2-2.7,1.1-4.1,2.2L123.1,58.6z"/>
	</g>
</g>
</svg>
