<?xml version="1.0" encoding="utf-8"?>
<!-- Generator: Adobe Illustrator 23.0.3, SVG Export Plug-In . SVG Version: 6.00 Build 0)  -->
<svg version="1.1" id="Livello_1" xmlns="http://www.w3.org/2000/svg" xmlns:xlink="http://www.w3.org/1999/xlink" x="0px" y="0px"
	 viewBox="0 0 184.3 184.3" style="enable-background:new 0 0 184.3 184.3;" xml:space="preserve">
<style type="text/css">
	.st0{fill-rule:evenodd;clip-rule:evenodd;}
</style>
<g id="Layer_x0020_1">
	<g id="_2341750111424">
		<path class="st0" d="M95.7,126.1c0.1-1.4,0-1.5-0.3-2.6c0.5,0.3,3.4,0.5,4.1,0.5c2.3,0,4.6,0.1,6.9,0.1c1.7-0.1,4.4-0.4,6.1-0.6
			c-0.4,0.9-0.6,1.6-1.1,2.5c-2,3.2-7.3,7.3-9.9,7.7c-1.6,0.3-5.1,0-6.8,0c0-1.1,0.4-2.4,0.6-3.7C95.7,128.5,95.7,127.9,95.7,126.1z
			 M69.2,81.1c0.2-0.2,0-0.1,0.4-0.4l1.4-0.9c3.1-2,10.7-6.7,13.5-7.4c0.9-0.5,1.4-0.7,2.5-1.1c0.9-0.3,1.8-0.5,2.5-1
			c1.4-0.1,3.7-1,5.1-1.2c1.7-0.4,3.1-0.6,5.1-0.6c3-0.5,8-0.1,11.1,0.3c3.4,0.5,6.8,1.1,9.8,2c1,0.4,4.1,1.1,4.6,1.8
			c1.3,0.2,1.4,0.5,2.4,0.9c0.7,0.4,1.3,0.5,1.9,0.9c4.7,2.8,9.6,6.1,13,10.5c2.4,3.2,5.5,7,6.7,10.9c0,1.9-3.5,6.4-4.9,7.9
			c-0.5,0.4-0.7,0.7-1.2,1.1l-1.1,0.8c-0.9,1.7-5.4,4.6-7.1,5.6c-2.7,1.5-5.4,2.7-8.5,3.8c-6,2-13.7,3.3-21.7,3.3
			c-4.7,0.6-2.4,0-5.4,0c-3.3,0-12.9-1.9-14.9-3.3c-0.9-0.1-4.3-1.6-4.9-2c-3.9-1.6-6-3.2-9.3-5.2c-2.1-1.2-6.1-4.4-8.1-5.9
			c-1.2-0.9-3.8-3.8-5.1-4.2c-3.6-1-3.5,4-6.2,8c-2.9,4.2-8.2,8.8-14.4,8.8c1.5-2.8,3-5.7,4.1-8.9c3.5-9.9,3-17.2-1.7-26.4
			c-0.5-1-1.9-3.4-2.1-4.2c1.4,0,4.4,1.3,5.5,1.9c0.8,0.5,1.5,0.9,2.2,1.4c3.2,2.3,6.4,5.9,8.5,9.4c2.7,4.6,4,3.1,6.3,1.4
			C62.6,86.3,65.1,83.8,69.2,81.1z M100.1,51.2c0.4-0.4,1.6-0.7,2.3-0.7c0.9-0.1,1.9,0.4,2.6,0.7c2,0.5,4.2,2.3,5.6,3.6
			c0.8,0.9,1.5,1.4,2.2,2.4c0.7,1,1.2,1.7,1.7,2.7l2,4.3c-1.7-0.2-3.4-0.7-5.4-0.7c-1-0.1-0.5,0.1-0.8-0.3c-1.9,0-2.7-0.3-4.6-0.3
			c-8.3,0.1-10.9,0-19.1,2.7c-2,0.7-4.4,1.5-6.2,2.4c0.2-1.7,0.3-1.5,0.1-3.3c-0.6-4.2-1-4.6-3.1-7.9C81,55.9,84.9,55,88.6,54
			C90.8,53.4,98.3,51.3,100.1,51.2z M89.5,47.9c-0.4,0.4-1,0.4-2.4,0.8c-0.7,0.2-2,0.5-2.6,0.8c-1.3,0.1-3.8,0.9-5.1,1.2
			c-1.8,0.5-3.4,0.9-5.1,1.3c-0.9,0.2-1.7,0.4-2.7,0.7c-0.7,0.2-0.9,0.2-1.4,0.4c-0.6,0.3-0.3,0.3-0.9,0.5c-2.9,3.4,1.6,5.1,2,5.3
			c4.1,2.7,5.1,11.2,1.7,13.2l-12.4,8.5c-0.9,0.8-3.1,2.8-4,2.9c-0.3-1.1-2.6-3.7-3.5-4.7c-0.5-0.5-0.5-0.7-0.9-1.1
			c-1.5-1.6-5.7-4.7-8-5.9c-3.4-1.7-3.3-1.2-5.5-2.1c-2.3-0.1-4.9-1.1-6.8,0.1c-4.3,2.5-0.2,7.9,1.2,10.4c0.6,1.2,2,4.3,2.3,5.6
			c0.6,0.5,0.6,1.3,0.9,2.2s0.6,1.7,0.7,2.6c1,5.3-0.5,10.5-2.2,14.8c-2.3,5.9-6,9.2-4.9,12.3c1.9,5.8,17.7,1.4,23-5.3
			c0.6-0.8,0.1-0.6,1.1-1c-0.1-0.3-0.2-0.3,0.2-0.3c0.6-1.1,1.2-1.7,1.8-2.8c0.5-0.9,1-1.8,1.5-2.8c0.6,0.5,1,0.6,1.5,1.3
			c0.9,0.5,1.1,0.7,1.9,1.4c3.4,2.7,5.8,4.2,9.4,6.4l4,2.4c1,0.3,1.7,0.8,2.7,1.2l7.6,3.2c1,0.1,2.2,0.6,3.3,0.9
			c1.3,0.4,1.8,0.4,2.2,1.6c0.5,1.5,0.4,4.3-0.1,5.9c-0.1,0.1-0.1,0.2-0.1,0.2l-0.1,0.4c0,0.2-0.1,0.6-0.1,0.7
			c-0.1,0.5-0.1,0.3-0.3,0.6c0,1.6-1,3.6-0.3,5.1c0.2,0.7,0.3,0.7,0.5,1.3c0.9,0.6,1,0.9,2.1,1.2c1.1,0.3,1.8,0.3,3,0.3h5.2
			c0.9,0,1.8,0.1,2.8-0.1c0.9-0.2,1.5-0.6,2.3-0.7l3.6-1.9l4.9-4.1c1.7-1.7,3.7-5,4.4-7.3c0.2-0.6,0.4-2,0.8-2.3
			c0.1,0,0.2-0.1,0.2-0.1l1.2-0.4c6-1.3,10.3-2.5,15.9-5.4l4.9-2.8c0.4-0.5,3.5-3,4.2-3.2l8.3-10.3c0.9-1.5,1.2-2.7,1.2-4.9
			c-0.1-3.2-1.9-6.2-3.6-8.7c-0.5-0.7-0.8-1.1-1.3-1.8l-3.9-5.3c-1-0.7-1.7-1.6-2.6-2.5c-0.5-0.5-0.8-0.8-1.3-1.2
			c-0.7-0.5-0.7-0.4-1.2-1.1c-7.6-5.4-6.7-4.9-15.5-8.6c-0.5-0.3-0.8-0.4-1.3-0.5c-0.7-0.3-0.6-0.1-1.2-0.4l-1.9-5.3
			c-0.8-1.7-1.6-3.2-2.4-4.6c-3.2-5.5-11.9-12.2-17.4-10.8c-1.9,0.5-3.8,1.1-5.7,1.5C93.9,47,91,47.8,89.5,47.9z"/>
		<path class="st0" d="M120.8,92.8c0.5,2.4,2.9,5.1,6,4.5c7.2-1.2,5.8-11.4-1.4-10.6C122.4,87.1,120.3,90.3,120.8,92.8z"/>
	</g>
</g>
</svg>
