<?xml version="1.0" encoding="utf-8"?>
<!-- Generator: Adobe Illustrator 23.0.3, SVG Export Plug-In . SVG Version: 6.00 Build 0)  -->
<svg version="1.1" id="Layer_1" xmlns="http://www.w3.org/2000/svg" xmlns:xlink="http://www.w3.org/1999/xlink" x="0px" y="0px"
	 viewBox="0 0 184.3 184.3" style="enable-background:new 0 0 184.3 184.3;" xml:space="preserve">
<g id="Layer_x0020_1">
	<g id="_2429622802608">
		<path d="M30.5,102.3c0,4.1,3.8,8.3,9,8.3c7.7,0,17.8-16.6,26.3-22.1c0,7.7-1.6,18,2.5,18H116c3.4,0,2.5-3.8,2.5-7.4
			c0-3.6,0-7.2,0-10.8c9.4,6.3,17.8,22.1,27.2,22.1c5,0,8.3-3.6,8.3-9c0-4.9-16.4-19.3-20.3-23.2c-4-4-7.2-7.2-11.2-11.2
			c-3.1-3.1-7.6-9.2-13-9.2H74.7c-5.9,0-19.4,15.8-24.1,20.3C44.5,84.7,30.5,96.4,30.5,102.3z"/>
		<path d="M67.4,26.7v4.1c0,29.5,47,33.5,50-0.2c0.7-8.8-5.6-19.3-13.5-23C83.2-2.5,67.4,15.2,67.4,26.7z"/>
		<path d="M79.8,179.7c6.3,0,9.9-4.5,9.9-8.3c0-9-15.3-14.8-17.3-22.1l13.3-13.9l-19.8-20.2c-3.8,2.5-11.7,11.2-15.3,14.8
			c-5.4,5.6-7.6,13.9-2,20.5L63,165.7C67.7,170.5,75.1,179.7,79.8,179.7z"/>
		<path d="M98.5,135.1l13.5,14c-2,6.8-17.5,14.4-17.5,21.6c0,5.8,4,9,9.9,9c4.7,0,14.2-11.3,19.1-16.2c2-2,2.2-2.5,3.8-4.5
			c5.9-7.6,10.8-7,10.8-18.7c0-9.7-13.1-14.8-19.6-24.7L98.5,135.1z"/>
	</g>
</g>
</svg>
