<?xml version="1.0" encoding="utf-8"?>
<!-- Generator: Adobe Illustrator 23.0.3, SVG Export Plug-In . SVG Version: 6.00 Build 0)  -->
<svg version="1.1" id="Layer_1" xmlns="http://www.w3.org/2000/svg" xmlns:xlink="http://www.w3.org/1999/xlink" x="0px" y="0px"
	 viewBox="0 0 184.3 184.3" style="enable-background:new 0 0 184.3 184.3;" xml:space="preserve">
<g id="Layer_x0020_1">
	<g id="_2058152468272">
		<path d="M85.1,150.6v-13.9c0-7.2,6.8-11.5,11.5-5.8c1.3,1.4,1.8,3.2,1.8,6.1c0,3.1,0.2,12.1-0.2,14.6c-1.8,0.5-11.3,0.5-13,0
			C85.1,151.1,85.1,151.1,85.1,150.6z M145,148.1v5.9c-0.2,1.3-0.5,2-1.6,2H39.5c-0.7,0-1.3-1.1-1.3-2v-5.2c0.2-2.7,0.7-2.5,3.2-2.5
			c0-15.5-0.4-14.4-0.4-27.2h100.6v27.2C143.2,146.1,145,145.7,145,148.1z M41.1,117.8c0-0.9,0-2,0-3.1c-16.9,0,31.3-6.3,32.4-7.4
			C75,106,90.1,91.9,90.8,91.6c1.3-1.3,1.8,0.2,4.5,2.3c0.5,0.5,0.7,0.7,1.3,1.3c0.5,0.5,0.9,0.7,1.3,1.1l10.6,9.7
			c0.9,0.9,1.8,1.6,2.7,2.5c0.7,0.7,43.7,7.7,30.6,7.7v1.6C141.8,117.8,41.1,117.8,41.1,117.8z"/>
		<path d="M60.4,62.2c8.6-4.7,7-4.7,11-12.8l3.4,0.2c2.9,5.6,2.9,8.6,10.3,12.2c0.4,0.2,0.7,0.4,1.1,0.5c0.7,0.4,0.5,0.2,0.9,0.7
			c-0.2,8.1-5.9,14.4-14.2,14.2C65.1,77.2,59.1,71,59,63.1L60.4,62.2z M97.3,62.8c4.9-1.6,8.5-4.7,10.6-8.8c2.3-4.9,0.5-4.5,5.4-4.3
			c1.3,5.6,3.8,8.6,8.1,11.5c0.9,0.5,1.1,0.5,2,1.1l2,1.3c-0.2,7.9-6.3,14.8-14.6,14.2C103.2,77.2,96.9,70.7,97.3,62.8z M124.3,58.1
			c-2.9-0.9-5.4-4-6.7-7C120.7,52.3,123,55,124.3,58.1z M60,58.3c0.9-2.9,4-6.3,6.7-7C65.6,54.1,62.9,57.2,60,58.3z M98.6,58.1
			c1.1-3.1,3.6-6.3,6.5-7C103.8,54.3,101.8,57.2,98.6,58.1z M86,58.3c-2.9-0.9-5.6-4.1-6.7-7C82,52.1,84.9,55.2,86,58.3z
			 M116.6,46.9c0-7,3.2-11.3,8.1-13.7c5.8-2.7,12.8-0.4,16,3.1c8.8,9.9,0.9,25.6-11.9,23.4C126.6,55,124.1,48.2,116.6,46.9z
			 M78.2,46.7c-0.7-19.6,28.8-19.4,27.9,0c-4.9,1.4-8.3,4.7-10.6,8.8c-2.3,4.5,0,4.5-5.4,4.3C88.5,53.4,84.7,48.5,78.2,46.7z
			 M55.7,59.9C41.1,60.8,35,45.5,43.7,36.1c8.3-9,24.7-3.1,24.1,10.6C61.7,48.4,57.2,53.4,55.7,59.9z M36.3,42.4v6.5
			c1.1,2,0.9,3.6,2.3,5.9c4.7,8.3,11,7.7,16.7,8.6c1.3,10.6,7,17.6,17.8,17.5c5.4,0,10.1-2.5,12.6-5.2c3.4-3.8,3.6-6.5,5-12.4h2.5
			c1.6,6.8,1.1,8.1,5.6,12.4c7.4,7.4,19.1,6.3,25,0c3.2-3.4,4.1-6.3,5-12.4c9.7-0.9,13.9-2.9,17.3-9.7c3.4-7,1.3-15.5-2.7-19.8
			c-8.5-9-28.6-8.3-30.6,12.1h-3.1c-1.8-7-0.9-7.7-5.4-12.6c-7-7.4-27-9.2-30.2,12.6h-2.9c-0.9-5.9-1.6-8.5-4.9-12.1
			c-6.1-6.7-17.5-7.2-23.9-1.6C37.5,36.8,38.1,38.6,36.3,42.4z"/>
	</g>
</g>
</svg>
