<?xml version="1.0" encoding="utf-8"?>
<!-- Generator: Adobe Illustrator 23.0.3, SVG Export Plug-In . SVG Version: 6.00 Build 0)  -->
<svg version="1.1" id="Livello_1" xmlns="http://www.w3.org/2000/svg" xmlns:xlink="http://www.w3.org/1999/xlink" x="0px" y="0px"
	 viewBox="0 0 184.3 184.3" style="enable-background:new 0 0 184.3 184.3;" xml:space="preserve">
<style type="text/css">
	.st0{fill-rule:evenodd;clip-rule:evenodd;}
</style>
<g id="Layer_x0020_1">
	<g id="_1216675523024">
		<path class="st0" d="M71,125.9c-0.4-2.5-0.2-46.6-0.2-50.3c0.1-4.2,0-8.4,0-12.6c0.1-4.7,1.1-6.8,3.7-8.8
			c4.4-3.3,15.1-2.6,16.3,5.8c0.5,3.3,0.1,9,0.1,12.6v50.3c0.1,9.7-7.9,11.8-14.2,9.8C74,131.8,71.6,129.1,71,125.9z M47.2,117.8
			c-1.2,0.5-1.7,0.8-2.5-0.4c-1-1.6,0.7-20.3,1.2-24.3c0.4-3.1-0.3-6.2,3.1-5.4c0.8,1.9-0.7,11.3-0.9,14.5
			C47.9,106,48,115.1,47.2,117.8z M59.4,48.9c1.3-0.8,2.8,0.1,2.2,1.7c-0.1,0.1-4.4,6.7-7.6,16.4c-0.5,1.6-1.4,6.7-2.3,7.3
			c-1.4,0.8-2.5-0.3-2.3-1.8C50.2,67.7,56.4,50.8,59.4,48.9z M122.7,142.5c1.2-7.6,0.4-32-0.2-40.6c-0.9-15.1-4.3-37.8-11.6-50.9
			c-5.2-9.5-4.3-7.8-12.9-7.9c-8.7,0-34.8-0.4-41.6,0.1l-3.2,4.3c-6.7,10.5-10.5,26.9-12,39.1c-1.2,9.1-1.9,18-2.1,27.2
			c-0.2,5.4-0.4,24.1,0.4,28.6L122.7,142.5z"/>
		<path class="st0" d="M132.2,112.1c-1.1,1.1-3.7,2.8-4.1,4.2c-0.3,1.2-0.2,6.8,0.2,7.7c0.9,2.1,3.3,2,5.3,0.8
			c4.9-2.9,9.1-7.1,12-12.6c9.7-18,9.3-48.2-7.6-61.1c-7.1-5.4-24.1-9.7-22.8-2.6c0.1,0.5,2.2,5.1,2.6,5.7c2.2,3.9,7.3-0.7,16.2,8
			c5.8,5.6,7.1,17.6,6.8,25.8C140.4,98,137.3,107,132.2,112.1z"/>
		<path class="st0" d="M35,147.3c-0.5,0.8-0.1,1.4,0.3,2.4c2.2,6.2,6.3,9.3,13.7,9.3h52.4c9.5,0,20.6,2,24.7-7.9
			c1.3-3.1,1.6-3.8,0.1-4c-3.8-0.3-9.2,0.1-13.2,0c-8.7-0.1-17.4-0.1-26.1,0C83.9,147.2,36.6,147,35,147.3z"/>
		<path class="st0" d="M87.5,122.7c-2.3,0.1-6.1,0.5-7.6-0.5l0.1-1.6l7.5-0.3v-3.3c-1.7-0.2-3.3,0.2-4.7-0.4l-0.1-1.7
			c1.6-0.6,3-0.2,4.7-0.4l0.1-3.2c-1.5-0.2-3.2-0.1-4.7-0.1c-1.9,0-3.2,0.4-2.9-1.8c1.5-1,5.3-0.6,7.6-0.6l-0.1-3.4
			c-1.5,0.1-3.4,0.2-4.7-0.3v-1.8c1.7-0.6,3-0.1,4.7-0.4v-3.1c-4.1-0.9-8.5,1.4-7.4-2.2l7.4-0.3v-3.2c-2.2-0.6-5.5,1-4.6-2.2
			c1.3-0.5,3.1-0.2,4.6-0.5v-3.2c-2.3-0.3-6,0.5-7.5-0.6c-0.5-2.9,3.2-1.3,7.4-1.9l0.1-3.2c-1.8-0.3-3.1,0.2-4.7-0.4
			c-0.5-2.9,2.2-2.1,4.8-2.1l-0.1-3.4c-2.3-0.1-5.4,0.3-7.4-0.3L79.8,75c1.8-1.2,5.3-0.2,7.7-0.7l-0.1-3.1c-1.5-0.3-3.4,0-4.6-0.4
			c-0.9-3.1,2.2-1.7,4.7-2.2l-0.1-3.1c-2.5-0.6-5.8,0.5-7.6-0.7l0.1-1.6l7.5-0.3c0.2-5.1-2-7-7-6.9c-5.3,0.1-6,3.1-6,8.2v56.8
			c0,4.8,0.3,8.4,5.4,8.6C85.3,130,87.4,128.3,87.5,122.7z"/>
		<path class="st0" d="M78.8,25.1c-16,1.1-27.5,13.4-17.8,13.4h37.7c2.4,0,5.3,0.5,5.9-1.6c1.2-4-8.8-8.9-12.5-10.1
			C87.9,25.5,83.5,24.8,78.8,25.1z"/>
		<path class="st0" d="M39.5,70.3c0.6-3.8,2.3-8.6,3.5-12.1l4.7-10.9H32.3c-0.6,5.4,1.6,15.9,5.2,20.9
			C38.6,69.7,38.3,69.7,39.5,70.3z"/>
	</g>
</g>
</svg>
