<?xml version="1.0" encoding="utf-8"?>
<!-- Generator: Adobe Illustrator 23.0.3, SVG Export Plug-In . SVG Version: 6.00 Build 0)  -->
<svg version="1.1" id="Livello_1" xmlns="http://www.w3.org/2000/svg" xmlns:xlink="http://www.w3.org/1999/xlink" x="0px" y="0px"
	 viewBox="0 0 184.3 184.3" style="enable-background:new 0 0 184.3 184.3;" xml:space="preserve">
<style type="text/css">
	.st0{fill-rule:evenodd;clip-rule:evenodd;}
</style>
<g id="Layer_x0020_1">
	<path class="st0" d="M38.4,79.2c0.2,0.4,0.1,0.2-0.1,0.2c-0.2,0.3-1.5,1.6-2.3,2.7c-2.5,3.5-3.3,7-3.3,11.4v49.1
		c0,4.8,0.4,4.5,1.5,8.3c0.2,0.3,0.6,1,0.8,1.5c0.3,0.5,0.6,0.9,0.9,1.4c0.6,0.8,1.8,2.1,2.1,2.7c0.3,0.1,0.2,0.1,0.5,0.3
		c0.4,0.3,0.2,0.1,0.4,0.5c0.4,0.1,0.9,0.6,1.3,0.9c0.4,0.3,0.9,0.6,1.3,0.9c0.8,0.5,2.4,1.1,3,1.4c0.7,0.2,1.3,0.4,2,0.6l1.5,0.3
		c1,0.3-0.8-0.3,0.3,0.1l0.3,0.2c0.5-0.2,1.3-0.1,1.9-0.1h3.3h2.7h3.3h2.7h3.3h2.7h3.3h2.7h3.3h2.7h3.3c2.4,0,4.8,0,7.3,0
		c1.2,0,2.3,0,3.6-0.1c1.1-0.1,2.4-0.6,3.3-0.6l0.2-0.1c0.8-0.5-0.4,0.2,0.2-0.2c0.1-0.1,0.3-0.1,0.4-0.2c3.5-1.2,5.1-3.2,5.8-3.4
		c0.2-0.7,0.9-1,1.3-1.5c4.2-5.1,4.3-8.8,4.3-15.4c0-7.4,0.1-14.9,0-22.4l-0.7,0.7c-0.1,0.7-1,2.2-1.4,2.9c-0.3,0.5-1.1,2.4-1.4,2.7
		c-0.3,1-1,2.2-1.5,3.2c-0.5,0.9-1,2.5-1.7,3c-0.1,0.5-2.5,5.5-2.8,5.8c-0.3,0.7-2.9,6-3.4,6.4c0.1,0.4-1.8,4.1-2.2,4.5
		c-0.4-0.3-1.5-1.4-1.6-1.8c-0.5-0.3-0.7-0.6-1-1c-1.5-1.9-4.6-6.2-5.2-8.2c-0.5-0.4-2.1-4.4-2.1-5.3c-0.3-0.3-0.3-0.4-0.4-0.9
		c-0.1-0.2-0.2-0.5-0.2-0.8c-0.2-0.7-0.3-1.2-0.5-1.9c-0.2-0.6-0.3-1.3-0.2-1.8c-0.3-0.4-0.3-1.1-0.3-1.6c-0.1-1-0.3-4.1,0.2-4.7
		V118l0.5-3l0.7-2.6c0.3-1.4,1.3-3.6,1.9-5c0.2-0.5,0.5-1.1,0.9-1.5c-0.1-0.6,1.1-2.3,1.5-3c0.4-0.7,1.2-2.3,1.7-2.6
		c0.9-2,4.8-6.2,6.3-7.7c1.1-1.1,2.2-2.2,3.5-3.3c0.8-0.7,3-2.7,3.9-3.1c0.1-0.1-0.1-0.1,0.2-0.2c0.6-0.7,2.9-1.8,2.8-2.8
		c-0.7-1.5-2.2-2.8-2.7-3.6c-0.5-0.3-0.3,0.1-0.5-0.5c-0.4-0.1-0.4-0.2-0.7-0.5c-2.1-1.8-4.1-2.3-4.8-2.9c-2.9-0.7-3.9-1.1-7.2-1.1
		H50.3c-3.5,0-6.7,1-9.5,2.8C39.9,78.1,39.3,78.8,38.4,79.2z M70.8,34.6c-0.2,0.4-3.1,5.9-3.8,6.4c-0.1,0.5-4.6,8.3-4.8,8.5
		c-0.4,1.4-0.6,0.7-0.6,2.7c0,1-0.1,2.1,0.1,3l22,0.1l0.1-2.6c0-0.5,0.1-1.4,0-1.9c-0.1-0.6-0.4-0.7-0.6-1.3c-0.2-0.2-4.8-8-4.8-8.5
		l-0.6-0.8c-0.2-0.3-0.3-0.5-0.4-0.7c-0.3-0.6-0.6-1-0.9-1.5c-0.5-0.9-1.5-2.3-1.7-3.3l-1.9-3.2C72.1,32.2,71.4,34.2,70.8,34.6z
		 M56.9,58.4v12.3l31.2,0.1L88.2,57l-31.3,0.1V58.4z M90.4,36.4c-0.1-1.7,2.6-4.3,4.4-4.1c0.7-0.6,3-0.2,3.5,0.5
		c0.6,0.1,1,0.4,1.3,0.8c0.3,0.2,0.4,0.3,0.6,0.5c0.4,0.4,0.2,0.1,0.4,0.5l1,1.1c0.3,0.4,0.5,1,0.7,1.6c0.5,1.2,0.9,2.1,1,3.6
		c-0.1,1.7-0.5,2.7-1.3,3.6c-0.5,0.5-1.9,1.8-3,1.9c-0.1,0,0.1,0.3-1,0.3c-0.4-0.1-1-0.1-1.3-0.2c-0.7-0.2-1.5-0.3-1.9-0.8
		c-0.9-0.1-2.1-1.2-2.3-1.8c-0.8-0.4-1.5-2.1-1.8-3.2C90.3,39.8,89.7,37.3,90.4,36.4z M136.3,46.6c-1,0.1-2-0.2-2.4-0.6
		c-1.1-0.4-2.3-1.5-2.6-2.4c-0.3-0.2-0.6-0.8-0.4-1.3c-0.9-1-0.1-4.3,0.8-5.1c0-1.7,3.1-4.7,4.6-4.7c0.3-0.3,0.4-0.3,0.9-0.4
		c0.4-0.1,0.7-0.1,1,0c0.6,0,1.3,0.2,1.7,0.4c1.1,0.3,2.6,1.4,2.8,2.1c0.2,0.1,0.2,0.1,0.5,0.7c0.2,0.3,0.3,0.6,0.3,0.9
		c0.2,0.8,0.3,1.5,0.2,2.3C143.4,42.4,140.9,46.1,136.3,46.6z M83.4,30.5c-0.2,0.3-0.2,0.5-0.3,0.7c-0.1,0.3-0.1,0.2-0.2,0.4
		c-0.1,0.2-0.1,0.2-0.2,0.3l-0.5,2.8l-0.1,3.1c0.1,0.8,0.4,1.7,0.2,2.4c0.1,0.1,0.1,0.1,0.2,0.3c0.1,0.2,0.1,0.3,0.2,0.5
		c0.1,0.4,0.1,0.6,0.2,0.9c0.4,1.5,1.1,3.4,1.8,4.7c0.7,1.8,3,4.6,4.1,5.6c0.9,0.8,1.6,1.4,2.8,2.1c0.6,0.3,3.1,1.5,3.2,1.6l3.6,1.1
		l3.7,0.3c0.6,0.9,4,6.3,4.1,6.9c0.4,0.3,0.2,0.1,0.5,0.5l2.4,4.1c0.7,1.2,2.3,3.6,2.8,4.8c0.4,0.2,1.5,2.3,1.8,2.7
		c0.4,0.7,1.7,2.3,1,2.9c-0.3,1.1-1,2.4-1.4,3.4c-0.4,0.8-0.9,2.6-1.5,3.1c-0.1,0.6-0.3,1-0.6,1.5c-0.3,0.6-0.3,0.9-1,1
		c-0.2,0.3,0.1,0.2-0.5,0.4c-0.1,0.1-3.5,2.4-3.9,2.8c-3.3,2.4-6.3,5.3-8.8,8.4c-0.4,0.5-1.2,1.7-1.5,1.9c-0.2,0.4-0.3,0.6-0.6,0.9
		l-0.7,0.9c-0.1,0.4-1.1,2.1-1.4,2.7c-0.4,0.6-1.1,2.6-1.4,2.9c-0.1,0.4-0.8,2.9-1.1,3.3c0.1,0.7-0.5,3.1-0.7,4.2
		c-0.2,1.5-0.2,3.1-0.2,4.6c0.2,3.3,0.8,5.9,1.2,9c0.3,0.3,0.7,2.1,0.7,2.7l0.3,0.5c0.1,0.2,0.2,0.5,0.2,0.7
		c0.2,0.4,0.3,0.9,0.5,1.3l0.8,1.7c0.4,0.6,0.2,0.3,0.6,0.5c0.3-0.8,2.1-4.5,2.8-5c-0.1-0.5,1-2.1,1.3-2.7c0.4-0.7,1.1-2.3,1.5-2.7
		c0.4-1.2,1.8-3.5,2.4-4.6c0.5-0.9,0.8-1.5,1.2-2.2c0.4-0.7,0.8-1.8,1.3-2.2c0.1-0.5,0-0.3,0.3-0.8c0.9-1.6,2-3.5,2.8-5.2
		c0.4-0.6,2.9-5.6,3.4-6c0-0.4,2.6-5.4,2.9-5.7l3.2-6.1c0.3,0.2,0.1-0.1,0.3,0.2l0.7,1.2c0.3,0.5,0.5,1,0.8,1.5
		c0.5,1.2,2.9,4.8,2.9,5.7c0.5,0.4,3.3,5.7,3.5,6.4c0.2,0.1,4.4,8,4.5,8.5c0.6,0.6,3.3,5.9,3.4,6.3c0.4,0.5,3,5.4,3,5.8
		c0.2,0.2,0.1,0,0.3,0.4l3.1,5.9c0.3,0.3,0.4,0.6,0.4,0.9l0.5,0.6c0.3-0.3,0.4-0.5,0.5-0.8c0.2-0.4,0.3-0.7,0.6-1
		c0.1-0.5,0.7-2.1,0.9-2.8c0.3-0.9,0.5-2,0.8-2.8c0.2-0.8,0.6-3.6,0.9-3.9c-0.2-1.5,1-4.9,0.2-10.8c-0.2-1-0.6-2.6-0.6-3.3
		c-0.3-0.4-0.9-2.4-1.1-3.1c-0.4-1.1-1-2.1-1.3-3.2c-0.2-0.1-1.4-2.4-1.6-2.8c-0.4-0.7-1.8-2.4-1.9-2.9c-0.3-0.2-0.1,0-0.3-0.2
		c-0.1-0.1-0.2-0.2-0.3-0.3c-0.4-0.4-0.3-0.3-0.4-0.7c-0.3-0.1-0.3-0.2-0.6-0.5c-0.3-0.3-0.3-0.4-0.6-0.7c-0.5-0.5-0.7-0.8-1.1-1.2
		l-2.3-2.3c-0.4-0.2-0.5-0.3-0.7-0.5c-0.1-0.1-0.2-0.2-0.3-0.3c-0.3-0.3-0.1-0.1-0.3-0.4l-0.6-0.4c-0.3-0.2-0.4-0.3-0.6-0.5
		c-0.4-0.3-0.9-0.6-1-0.9c-0.5-0.2-0.6-0.2-0.9-0.7c-0.6-0.2-2.5-1.6-3.4-2.1c-0.6-0.4-1.2-0.6-1.6-1.3c-0.2-0.5-0.7-1.5-0.7-2
		c-0.4-0.4-0.6-1-0.8-1.5L119,79c-0.3-0.7,1-2.3,1.3-2.9c0.4-0.7,1.1-2.2,1.6-2.6c0.3-0.9,1.3-2.3,1.8-3.2c0.4-0.6,0.5-0.9,0.9-1.5
		l0.7-1.1c0.2-0.2,0,0,0.2-0.2c0.2-0.2,0.1-0.1,0.3-0.3c0.1-0.4,4.8-8.4,5.2-8.6l0.7-1.4l2.3-0.2c0.7-0.1,1.6-0.4,2.2-0.3
		c0.5-0.4,1.1-0.4,1.7-0.6l3.3-1.4c0.6-0.3,1-0.7,1.6-0.9l0.1-0.1l1.7-1.4c1.1-0.9,2.4-2.4,3.2-3.6c0.3-0.5,0.9-1.8,1.2-2
		c0.4-1.2,0.9-2,1.4-3.3c0.4-1.1,0.7-2.3,0.9-3.5c0.6-3.4,0.3-5.1-0.4-8.2c-0.2-0.3-1.1-2.5-1.2-2.8c-0.4-0.3-0.3-0.3-0.6-0.7
		L146,25c-0.4-0.3-0.3-0.2-0.6-0.6c-0.4-0.1-0.3-0.1-0.7-0.3c-0.2-0.2-0.3-0.2-0.6-0.4c-0.4-0.2-0.8-0.4-1.3-0.5
		c-0.9-0.2-2-0.4-3-0.4c-2.9-0.1-3.8,0.4-6.2,0.9c-0.3,0.2-0.9,0.4-1.3,0.6c-0.3,0.2-0.4,0.3-0.7,0.4c-0.5,0.2-0.3,0.2-0.7,0.3
		c-0.4,0.6-1.4,1.1-1.9,1.5c-3.5,3.2-3.7,5-4.5,5.7c-0.1,0.5-0.3,0.8-0.6,1.3c-0.3,0.4-0.5,0.9-0.7,1.4c-0.4,0.7-1,2.4-1.2,2.8
		c-0.1,0.6-0.9,3.5-1.1,3.8l-0.1,1.7l0.2,3.7l0.6,2.4c0.5,0.5,0.6,1.1,0.9,1.8c1.6,2.7,1.5,1.2,1.9,3.7c0.2,0.8,0.4,1.6,0.5,2.6
		l-0.1,0.4c0.7,1-0.2,1.8-1.2,3.7c-0.5,0.8-1.5,3.1-2.1,3.6c-0.1,0.6-2.6,5.1-3,5.5c-0.3,0.7-1.2,2.4-1.7,2.9
		c-0.5-0.6-3.1-5.2-3.3-5.9c-0.3-0.3-2.3-3.9-2.8-4.7l-0.3-0.8c-0.5-0.4-1-1.6-1.3-2.1c-0.7-1.2-0.7-1-0.4-2.6
		c0.2-0.9,0.4-1.8,0.5-2.7c0.3-1.2,0.3-1.7,1.2-2.2c0.1-0.4,0.5-0.8,0.8-1.3c0.2-0.4,0.5-1.1,0.7-1.3c0.6-2.6,1-3.3,1-6.3
		c0-1-0.2-1.9-0.4-2.8c-0.2-0.9-0.6-1.7-0.6-2.6c-0.4-0.4-0.5-1.1-0.8-1.7c-0.2-0.6-0.5-1.1-0.7-1.7c-0.3-0.4-1.2-2.2-1.6-2.9
		c-0.3-0.6-0.6-1-0.9-1.4c-0.4-0.7-0.7-0.8-0.8-1.3c-0.3-0.2-0.2-0.1-0.4-0.5c-0.3-0.2-0.4-0.4-0.7-0.7c-0.2-0.3-0.4-0.4-0.6-0.7
		c-0.5-0.4-1-0.7-1.3-1.2c-0.7-0.2-0.3-0.1-0.4-0.3c-0.3-0.1-2.5-1.4-2.7-1.6c-2.1-0.6-2.7-1.2-5.5-1.3c-1.7-0.1-4.6,0.1-5.9,0.7
		C87.2,24.9,84.6,27.7,83.4,30.5z"/>
</g>
</svg>
