<?xml version="1.0" encoding="utf-8"?>
<!-- Generator: Adobe Illustrator 23.0.3, SVG Export Plug-In . SVG Version: 6.00 Build 0)  -->
<svg version="1.1" id="Livello_1" xmlns="http://www.w3.org/2000/svg" xmlns:xlink="http://www.w3.org/1999/xlink" x="0px" y="0px"
	 viewBox="0 0 184.3 184.3" style="enable-background:new 0 0 184.3 184.3;" xml:space="preserve">
<style type="text/css">
	.st0{fill-rule:evenodd;clip-rule:evenodd;fill:#FFFFFF;}
</style>
<g id="Layer_x0020_1">
	<g id="_2002302638928">
		<path class="st0" d="M76.8,119.2l30.8-0.1c0.3,1.8,0.6,5.2,3.3,6.2H73.5C75.5,124.7,76.7,121.8,76.8,119.2z M80.4,110.4
			c-2,6.9-12.3,3.6-10.2-3.1C72.4,100.7,82.3,104,80.4,110.4z M114.5,110.1c-1.5,6.8-12,4.5-10.2-2.6c0.6-2.4,3.1-4.5,6.5-3.7
			C113.1,104.5,115.2,107.1,114.5,110.1z M68.2,99.7c-0.5-2.7,2.9-7,4.6-11.3C75,82.7,77.4,83,84.1,83c5.6-0.1,11.1,0,16.7,0
			c2.9,0,5-0.4,7.1,1.1c2.4,1.8,4.1,6.4,6.2,10.3c3.9,7.3,4.1,5.8-14.1,4.7c-5.7-0.3-11-0.2-16.6,0.1
			C80.1,99.4,70.3,100.6,68.2,99.7z M42.8,110.2c-0.1-0.1-0.2,0-0.2-0.1c0.8-0.7,2.3-0.4,3.1-1.2c1.3-1.4,1.2-4.6-0.3-5.8
			c-1.5-1.2-2.6,0.3-2.7-1.2c2.6,0,4-1,4-3.8c-0.2-4-3.4-2.9-4.1-3.8l0.9-0.2c1.9-0.3,3.2-1.3,3.2-3.6c0-2.9-1.4-3.7-4.1-3.7v-0.7
			c2.8,0,4.1-0.8,4-3.7c0-2.6-1.5-3.5-4-3.5c0.4-1-0.2-0.4,1.5-0.7c3.4-0.7,4.2-7.1-1.5-7.1c-0.6-1.4-0.8-2-2.7-2.1h-9.7
			c-2.2,0.3-1.5,1.6-2.7,2.1c-5.1,0-5.3,7.2,0.3,7.2c-0.3,0.7-0.7,0.5-1.6,0.7c-0.6,0.1-0.9,0.2-1.3,0.6c-1.8,1.7-2,6.6,3,6.6v0.7
			c-4.9,0-4.9,4.9-2.8,6.6c1.3,1,2.1-0.2,2.8,1.2c-2.6,0-4,0.9-4,3.7c0.1,2.7,1.4,3.6,4,3.6c-0.1,1.1,0.2,0.5-1.3,0.7
			c-1.7,0.3-2.6,1.7-2.7,3.5c0,3,1.3,3.1,3.4,3.7c0.7,0.2,0.3,0,0.7,0.3c-1.6,0.8-3.9-0.1-4,3.8c-0.1,2.6,1.3,3.7,3.7,3.7
			c1.7,0.5-1,2.1,5.4,2.1l-0.1,5.7c-1.5,0-3.9-0.4-5.1,0.3c-0.9,0.6-1.4,2.3-0.3,3.4c0.8,0.8,2.6,0.5,3.8,0.5h26.1
			c23.1-0.3,46.2,0.1,69.3,0h26.1c3.2,0.1,5.7-0.2,3.8-3.8c-1.4-0.5-3.7-0.4-5.5-0.3v-5.7c5.5,0.2,3.7-1.7,5.4-2.1
			c2.4,0,3.7-1.1,3.7-3.7c-0.1-2.7-1.3-3.5-4-3.6c0.4-0.8-0.2-0.2,0.6-0.5c0.1,0,0.8-0.1,0.9-0.2c3.4-0.7,3.9-7.1-1.5-7.1
			c0.2-1.4,1.3,0.1,2.8-1.4c1.4-1.3,1.5-4.3,0.1-5.7c-0.6-0.6-1.4-0.6-2.2-0.9c-0.7-0.2-0.3,0-0.7-0.3c1.7-0.8,4,0,4-3.8
			c0-2.8-1.6-3.7-4.1-3.7v-0.7c2.7,0,4.1-0.9,4-3.7c-0.1-4.3-3.4-2.9-3.8-3.7c-0.1-0.1-0.2-0.1-0.2-0.1c0.1-0.1,0.2-0.1,0.2-0.1
			l0.5-0.2c0.1-0.1,0.2-0.1,0.2-0.1c0.7-0.2,1.5-0.3,2.1-0.8c0.7-0.7,1-1.6,1-2.7c0.1-2.6-1.2-3.8-3.7-3.8c-1.2-0.6-0.4-1.8-2.7-2.1
			c-1.3-0.1-3.5-0.1-4.8,0c-3.5,0-6.3-0.9-7.6,2.1c-2.7,0.1-4.2,1.1-4,4.1c0.2,1.9,1.1,2.9,2.7,3.1c1.8,0.3,0.9-0.5,1.3,0.7
			c-2.7-0.1-4.1,0.8-4.1,3.7c0.1,2.8,1.5,3.5,4.1,3.5v0.7c-2.8,0-4.1,0.8-4.1,3.7c0.1,3.7,2.4,3,4.1,3.8c-0.7,0.9-4.4-0.3-4,4.3
			c0.3,4.4,3.8,2.5,4,4c-2.7,0-4.1,1-4,3.8c0.1,2.6,1.5,3.4,4,3.4c-0.4,1.1,0.1,0.4-1.6,0.7c-0.7,0.2-0.8,0.2-1.3,0.6
			c-1.8,1.6-2.4,6.5,3,6.5c0.7,2.9,2.1,1.8,4.9,2.2l-0.1,5.5h-28.8c3.4-1.9,3.2-4.8,3.2-9.3c0.1-4.1-0.1-8.5,0.1-12.6
			c4.1-0.5,7.5,1.2,7.4-4.1c-0.1-4.5-3.1-3.3-8.3-3.4c-1.6-1.9-2.8-4.7-4-6.9c-0.8-1.2-1.1-2.4-1.8-3.8c-2.7-4.9-5.3-5.4-11.1-5.4
			H81.1c-4.2-0.1-6.4-0.3-9,2c-2.7,2.4-2.2,3.9-3.9,7.1c-1.3,2.4-2.7,4.6-3.8,7C63,95.9,60,95.9,58.5,96c-2.2,0.2-2.7,1.2-2.6,3.4
			c0.1,2.1,0.2,3.3,2.1,3.8c1.5,0.4,3.8,0.2,5.4,0.2c0,4.2,0.1,8.5,0,12.7c-0.1,4.6,0.1,7.4,3.2,9.3H37.6v-5.6
			c2.8-0.3,4.2,0.5,4.9-2.2c2.8,0,4.2-0.7,4.2-3.7c0-1.8-0.9-3.2-2.5-3.5L42.8,110.2z"/>
		<path class="st0" d="M108.9,63c-8.2,2.2-4.5,14.1,3.2,11.9c2.8-0.8,5.4-3.9,4.3-7.7C115.6,64.5,112.7,62,108.9,63z"/>
		<path class="st0" d="M59.5,77.3c0.4,2.6,3,4.8,6.2,4.5c2.9-0.3,5.2-3.1,4.7-6.4C69.4,68.5,58.4,69.6,59.5,77.3z"/>
		<path class="st0" d="M65.2,60c-5.9,1.1-4.3,10.1,1.8,8.9C72.7,67.7,71.2,58.9,65.2,60z"/>
		<path class="st0" d="M115.4,79.5c0.5,4.5,8.2,4,7.6-1C122.3,73.4,114.8,74.3,115.4,79.5z"/>
		<path class="st0" d="M55.8,66.5c-3.1,1.5-1.2,6.3,2.3,5.1C61.5,70.2,59.4,64.7,55.8,66.5z"/>
		<path class="st0" d="M78.8,63.5c-4.1,1.3-1.5,6.3,1.6,5.3C83.7,67.7,82.3,62.4,78.8,63.5z"/>
		<path class="st0" d="M121.4,66.5c-3.3,1.6-1.1,6.4,2.2,5C126.9,70.2,125,64.7,121.4,66.5z"/>
		<path class="st0" d="M51.2,54.9c-3.2,1-1.9,6.3,1.9,5.2C56.4,59.1,54.9,53.7,51.2,54.9z"/>
		<path class="st0" d="M128,80.9c0.2-1.2,0-1.8-1.3-1.3c-0.2,0.3-0.6,0.6,0,1.2C127.2,81.3,127.6,81,128,80.9z"/>
		<path class="st0" d="M132.1,79.9c-1.2-0.2-1.8,0-1.3,1.3C132.1,81.8,132.3,81.1,132.1,79.9z"/>
		<path class="st0" d="M132.1,76.7c0.2-1.2,0-1.9-1.3-1.3C130.2,76.7,130.9,76.9,132.1,76.7z"/>
		<path class="st0" d="M134.8,71c-0.6,1.3,0.1,1.5,1.3,1.3C136.3,71.1,136.1,70.5,134.8,71z"/>
		<path class="st0" d="M128.6,82.1c-0.2,1.2,0.1,1.8,1.3,1.3C130.4,82.1,129.8,81.9,128.6,82.1z"/>
		<path class="st0" d="M55.7,88.2c0.2-1.2,0-1.8-1.3-1.3C53.9,88.2,54.5,88.4,55.7,88.2z"/>
		<path class="st0" d="M55.7,82c-1.2-0.1-1.8,0.1-1.3,1.3C55.7,83.9,55.9,83.2,55.7,82z"/>
		<path class="st0" d="M132.7,77.7c-0.3,1.2,0,1.8,1.3,1.3c0.4-0.9,0.3-0.1,0.1-1.3L132.7,77.7z"/>
		<path class="st0" d="M52.2,86c1.2,0.1,1.8-0.1,1.3-1.3C52.3,84.2,52,84.8,52.2,86z"/>
		<path class="st0" d="M126.7,85.5c1.5,0.7,1.7-0.7,1.2-1.2C127.3,83.8,126.2,84.2,126.7,85.5z"/>
		<path class="st0" d="M128,90.3c0.2-1.2,0-1.8-1.3-1.3c-0.4,0.8-0.3,0.1-0.1,1.2L128,90.3z"/>
		<path class="st0" d="M48.1,72.3c1.3,0.3,2,0.1,1.4-1.2c-0.9-0.4-0.2-0.3-1.2-0.2L48.1,72.3z"/>
		<path class="st0" d="M130,88c0.1-1,0.3-0.3-0.1-1.2c-1.3-0.5-1.5,0.1-1.3,1.4L130,88z"/>
		<path class="st0" d="M52.4,81.3c1,0.2,0.4,0.3,1.1-0.1c0.6-1.3-0.1-1.5-1.4-1.3L52.4,81.3z"/>
		<path class="st0" d="M50.3,79.1c1.3,0.5,1.5-0.1,1.3-1.4l-1.4,0.2C50,78.9,50,78.3,50.3,79.1z"/>
		<path class="st0" d="M130,77.7c0-0.1-0.1-0.2-0.1-0.2c-0.5-0.2-0.9-0.5-1.3,0.3c-0.4,0.8,0.3,1,0.3,1.2l1.1-0.3L130,77.7z"/>
		<path class="st0" d="M57.7,90.2c0.2-1,0.3-0.4-0.1-1.2c-1.3-0.6-1.5,0.1-1.3,1.3L57.7,90.2z"/>
		<path class="st0" d="M51.5,82.5c-0.6-0.2-0.2-0.1-0.8-0.1c-0.1,0-0.2,0.2-0.2,0.1c-0.1-0.1-0.2,0.1-0.3,0.1
			c-0.4,1.3,0.2,1.5,1.4,1.3L51.5,82.5z"/>
		<path class="st0" d="M134.1,74.4c0-0.3,0.1-0.3,0.1-0.6c-0.1-0.6-0.1-0.4-0.3-0.6C132.2,72.5,131.8,75.2,134.1,74.4z"/>
		<path class="st0" d="M57.6,85.5c0.4-1.2-0.5-1.9-1.2-1.2C55.7,85.1,56.4,85.9,57.6,85.5z"/>
		<path class="st0" d="M131.9,84.6c-1-0.2-0.3-0.3-1.2,0.1c-0.6,1.3,0.2,1.5,1.4,1.3L131.9,84.6z"/>
		<path class="st0" d="M48.2,75.6c-0.2,1.2,0.1,1.8,1.3,1.3c0.4-0.8,0.3-0.1,0.2-1.2L48.2,75.6z"/>
		<path class="st0" d="M50.4,73.2c-0.4,0.8-0.3,0.1-0.2,1.1l1.4,0.3C51.8,73.3,51.7,72.6,50.4,73.2z"/>
		<path class="st0" d="M132.8,82.5c-0.5,1.3,0,1.7,1.3,1.3l-0.2-1.3L132.8,82.5z"/>
		<path class="st0" d="M134.8,76.9c0.8,0.4,0.1,0.3,1.2,0.2v-1.5l-1.3,0.3C134.5,76.7,134.5,76.1,134.8,76.9z"/>
		<path class="st0" d="M56.3,79.9c-0.4,0.7,0.2,1,0.3,1.2l1.2-0.2l-0.2-1.2C57.2,79.5,56.7,79.1,56.3,79.9z"/>
		<path class="st0" d="M53.7,76.5c0.2-1.1-0.1-0.8-0.2-1.3h-1.2v1.5L53.7,76.5z"/>
		<path class="st0" d="M55.7,78.8c0.3-2.1-1.6-1.9-1.5,0H55.7z"/>
		<path class="st0" d="M48.3,80.3c-0.7,2.1,1.9,1.9,1.2,0H48.3z"/>
		<path class="st0" d="M136,80.3c-0.6-0.2-0.2-0.1-0.8-0.1l-0.4,0.2c-0.4,1.2,0.2,1.4,1.4,1.3L136,80.3z"/>
	</g>
</g>
</svg>
