<?xml version="1.0" encoding="utf-8"?>
<!-- Generator: Adobe Illustrator 23.0.3, SVG Export Plug-In . SVG Version: 6.00 Build 0)  -->
<svg version="1.1" id="Livello_1" xmlns="http://www.w3.org/2000/svg" xmlns:xlink="http://www.w3.org/1999/xlink" x="0px" y="0px"
	 viewBox="0 0 184.3 184.3" style="enable-background:new 0 0 184.3 184.3;" xml:space="preserve">
<style type="text/css">
	.st0{fill-rule:evenodd;clip-rule:evenodd;}
</style>
<g id="Layer_x0020_1">
	<path class="st0" d="M71.9,116.6c3.1-0.3,8.7-4,11.5-5.2c-0.8,1.2-1.2,1.4-2.3,2.1c-1,0.6-1.5,0.9-2.7,1.4
		C76.6,115.6,73.5,116.6,71.9,116.6z M118,99.5c0.3-1.3,0.6-1.5,1.9-1.8C119.7,99.2,119.5,99.2,118,99.5z M126.6,95.5l4.7,1.7
		c-6.6,2.6-3.1,1.8-6.1,3.5l-0.5-4.1L126.6,95.5z M116.4,96.2c-0.4,0.9,0.4,0.4-0.6,0.7c-1.4,0.3-0.4-0.1-0.9-0.3
		C115.3,96.2,115,94.9,116.4,96.2z M79,96c-0.7,0.4-0.3,0.6-1.1,0.4c-1.3-0.4-0.5-0.2-1-1L79,96z M118.6,95.5
		c1.9-1.1,5.4-1.2,7.7-0.6l-6,1.9L118.6,95.5z M78.6,95.3c-1.2,0.1-1.1-0.1-1.6-0.9C78.5,94.4,78,94.1,78.6,95.3z M111.5,94.8
		c0.1-0.8,0.5-0.7,1.4-0.9C112.6,94.9,112.8,95.5,111.5,94.8z M56.8,98.7c1-1.1,2-1.9,3.2-3c4.4-4.4,2.1-4,8-3.8
		c1.9,0.1,3.4,0.4,4.8,1.3c-1.4,4.8-2.2,3.1-0.3,8.3c-1.2-0.6-1.8-1.3-3.4-2C65.1,97.5,60.9,97.4,56.8,98.7z M75.7,93
		c1,0.8,0.7,0.6,0.8,1.2c-1.2-0.4-2.4-0.7-2.4-2C74.7,92.5,75.2,92.7,75.7,93z M117.5,92.3c-0.1-1.1,1.3-3.1,2-3.8
		c1.5,0.9,4.2,3.1,5.1,4.6L117.5,92.3z M113.2,91.4c0.6,0.3,2,1,2.8,1.5c-0.7,1.6-0.4,0.9-2.3,0.4L113.2,91.4z M80.9,90.1
		c0.6,1.5,0.2,1.5-0.1,2.9c-1.6-0.4-1.5-0.2-1.6-2.1L80.9,90.1z M107.6,92.8c0.5-1.2,0.7-1.2,2.1-1.5
		C109.3,92.6,109.3,92.5,107.6,92.8z M75.9,92.4c-1.1-0.4-2-0.5-0.9-1.7L75.9,92.4z M73.8,91.2c-0.4-0.2-1-0.7-1.2-0.8l1.8-0.5
		L73.8,91.2z M70.1,90.4h-1.9C68.8,89.2,69.2,89.5,70.1,90.4z M104.7,90.3c0-0.9,0.1-0.9,0.8-1.1c1.6-0.4,1.1,0.3,1.1,0.4
		C106.1,90.2,105.8,90.8,104.7,90.3z M66.1,89.4l1.5,0.1c0.2,0.6-0.2,0.5-0.1,1.5c2.3,0.2,4.8-1,6,1.1c-1,0.6-2.4-0.4-3.7-0.6
		c-1.7-0.3-3.5-0.1-5.3-0.2L66.1,89.4z M73.1,87.8l1,1.6c-1.9,0.9-2.9,0.9-4.3-0.2L73.1,87.8z M116.5,92c-1.6-0.1-3.6-1.1-3.1-2.9
		c0.3-1,3.8-0.9,5.3-1L116.5,92z M113.2,91.4l-1.2-0.7c-1.3-0.5-1.1,0.2-2.9-1.6c-0.1-0.1-0.2-0.1-0.2-0.2c-0.1-0.2-0.2-0.2-0.3-0.2
		l4.1,0.1L113.2,91.4z M103.5,88.4c-0.8,1.5-1.2,1.5-2.3,0.4C101.3,87.9,102.9,88.1,103.5,88.4z M83.7,88.5
		c-1.7-0.5-2.1-0.8-1.4-2.7C84.2,85.8,84,86.9,83.7,88.5z M113.9,83.9c1,0.4,4,2.9,4.6,3.7l-5.2,0.4L113.9,83.9z M105.1,88.4
		c-1,0.8-1.2,0.8-0.8,2.6c2.7,0.4,2.2-0.6,3.4-1.7l1.9,0.8l-0.7,0.6c-1.5,1.1-1.9,0.8-1.9,2.3c2.7,1.1,3.4-1.5,3.6-1.8
		c1.7,0,1.9,0.2,2.4,1.7c-0.1,0.1-0.3,0-0.3,0.2c-0.2,0.5-0.7,0.1-1.3,0.7c-0.9,0.9-0.6,0.4-0.5,1.7c2.4,0.3,1.5-0.5,3-1.5
		c0.9,0.5,0.8,0.4,1.3,0.9c-0.5,0.9-1.1,0.9-0.8,2.3c2.3,1.2,2.3-0.4,2.8-1.3l2,1c-1.2,1.3-2,0.9-1.8,3c2.8,1,3-2.2,3.3-2.4l3.5-1.3
		c-0.3,2.7,1.1,1.6-0.4,7.9c-11.1,2.3-22.9,3.3-32.5-1.6c-0.2-2.2,6-18.6,11.9-15.2c-0.1,0.1-0.2-0.1-0.3,0.1
		c-0.1,0.1-0.2,0.1-0.3,0.1l-1.8,0.6c-0.8,0.5-0.7,1,0,1.7C102.9,91.2,103.7,88.7,105.1,88.4z M76,87c-0.2,0.3-0.3,0.6-0.5,1
		l-0.9,1.2l-0.7-1.7L76,87z M70.3,83.1c0.6,1.4,1.7,2.7,2.4,4.1c-2.8,1.2-3,1.9-6.2,1.5L70.3,83.1z M75.9,88.9
		c0.6-2.6,2.4-3.4,4.3-2.8C80.1,87.8,79.4,87.9,75.9,88.9z M112.5,88.1c-2.2,0.1-6.2,0.6-4.8-2.2c0.8-1.6,2.4-3.1,3.7-3.8
		c1,0.4,1,0.6,1.9,1.1C113.2,84.6,113.1,86.9,112.5,88.1z M78.6,85.4c-1.4,1-1,0.2-1.3,0C77.8,84.9,77.1,84.1,78.6,85.4z M79.2,82.6
		c0.9,0.4,1.7,1,2.1,1.9c-1.6,0.9-1.5,0.7-3.1-0.2L79.2,82.6z M73.6,86.9c-1-1.1-2.1-2.6-2.5-4l6.1,1.9c-0.6,1.1-0.2,1-1.2,1.5
		C75.3,86.5,74.2,86.7,73.6,86.9z M84.6,83c-0.4-2-0.2-1.7,0.9-2.7C88.3,81.2,88.1,85.4,84.6,83z M106.9,78.3
		c0.8,1.5,2.4,2.4,3.9,2.9c-1.5,2.3-6.5,5.4-2.3,7.6c-1.2-0.2-2.9-0.5-3.9-1.1l-1.2-1.1c-2.9-2-6,1.8-7.3,3.4c0.7-3,7-9.4,10.1-11.3
		C106.8,78.2,105.8,78.7,106.9,78.3z M80.9,86c0.3-1.3,0.4-0.5,1.1-1.8c-1.3-2.6-3.4-1.5-1.6-3.9c1.4,0.8,0.4,0.2,1.5,1.3
		c2,1.8,2.2,0.8,2.7,4.2c-0.8-0.5-1.4-0.7-2.6-0.4c-0.4,0.8-0.7,1.7-0.2,2.7c0.4,0.7,0.1,0.2,0.8,0.8c1,1,0.9,0.4-0.3,2.7l-1.2-2
		c-2.3,0.2-3.4,2-1.1,4.1l-0.3,2l-1.3-1.5c-1-0.9-2.2-1.7-2.9-4.2C79.4,87.9,80.2,89,80.9,86z M113.3,82.4c-1.2-0.5-0.8,0.1-1.2-1
		C113.5,81.4,113,81,113.3,82.4z M77.8,77.4c1.3,2,2.3,1.1,1.2,3.8c-1.7-0.3-4.4-2.3-4.7-4L77.8,77.4z M78.3,77.1h2.8L80.2,79
		L78.3,77.1z M82.6,76.6c1.5-0.6,5.6-2.5,6.5-1.5C91.6,77.7,83.9,76.7,82.6,76.6z M76.9,76.1c1.2-1,3.7-1.2,5.3-1.4
		c-0.5,1.4-0.3,1.6-2.2,1.7C78.8,76.4,77.8,76.3,76.9,76.1z M74.8,74.2l0.9,1.3l-1.8,1.1c-0.2,3.1,2.4,3.7,4.6,5.5l-0.7,2L70.6,82
		L74.8,74.2z M89.5,74.4c3.2,0.7,1.6-0.5,4-0.6c3.9,1.1,4.5,11.8,0.8,16.6c-1.1,1.5-2.1,2.8-3.3,4.2c-5.8,6.9-8.4,9.9-17.7,12.6
		c-4.1,1.2-8.7,1.9-13.2,1.7c-4.2-0.2-10.2-2-6.4-6.7c2.4-2.9,6-4.4,11-3.5c6.8,1.3,7.6,4.9,9.7,5.2c-0.5-3.5-4.8-4.3-0.9-10.3
		c3.6,1.3,4.3,6.6,7.1,0.8l2.9-4.5c2-3.1,1.7-0.6,1.2-5.9c6,1.8,2.2-6.8-0.6-3.2l-1,1.4l-2.7-2.2c0.8-3.5,1.4-2.7,4.9-2.4
		C88,77.6,91.8,77.7,89.5,74.4z M82.7,75.8c0.1-0.8,0.4-1,0.9-1.4l3.3,0.1L82.7,75.8z M88.2,71.5l0.7,2.3l-5.2-0.1l0.9-1.9
		L88.2,71.5z M83.7,72c-0.8,2.2-0.6,1.8-3.3,2.3c-1.4,0.3-2.8,0.7-4.2,0.9l-0.8-1.5L83.7,72z M91,73c0.3,0.4,0.2,0.5,0.7,0.7
		c-0.4,0.5-0.3,0.3-0.9,0.7l-0.2-0.5c0-0.1-0.1-0.2-0.1-0.2c-0.2-0.3,0.8-0.1-0.5-0.2c-1-0.5-1.1-0.5-1-2.1c2.1-0.2,2.6-0.1,3.1,1.6
		H91z M85.5,71.1c1.3-1.8,1.7-2.5,4.5-1.7C87.8,70.8,88.9,70.9,85.5,71.1z M100.7,69.2c-0.9,0.9-3.1,0.5-4.4,0.5
		c1.4,0.3,1.3,0,2.5,0.7l-3,0.4c3,0,3.7-0.2,6.2-1.1c2.2-0.8,2.1-1.9,3.3-3.8c3.5,14.1,3,8.9-4.7,16.6L96.7,87
		c1.7-14.3-1.6-11.4-3.8-14.3c-1.5-2,0.9-1.2-3.5-2.2c1.9-0.9,3.2-0.2,5.3-0.2l1.1-0.1l-1-0.4l1-0.7c-5.3,0.2-7.7-2.3-10.5,0.9
		c-1.5,1.7-2,1.3-4.5,1.8c-1.8,0.3-3.5,0.9-5.3,1.2c1.5-4.9,5.3-2.4,9.4-4.5c1.8-0.9,2.7-1.8,4.1-3c1.3-1,2.2-1.8,3.7-3
		C105.5,53.1,106.3,67.2,100.7,69.2z M30.5,118.6v0.6h25.1c-0.7-1.5-1.9-1.2-3.3-2.6c-4.3-4.2-2.4-8.6-0.5-12.6
		c0.9,2.9,0.2,3.5,3.6,4.6c8,2.8,25-1,31.6-8.6l7.8-9l-8.2,16.5c-1.9,3.4-11.5,7.8-16.1,8.9c-2.1,0.5-4.4,0.7-5.3,1.9
		c2.1,1,17.7-2.7,20.5-8.6c4.7,0.7,9.6,1.3,14.5,2.1c4.8,0.8,9.4,3,13.9,3.4c-1.3-1.1-11.7-3.6-13.2-3.9c-3.6-0.6-11.7-0.8-14.4-2.3
		c1-2.4,2.8-4.9,3.8-7.9c1.2,2.7,1.9,2.7,5,3.6c14,4,24.2,0.7,38.1-1.5c2.9-0.5,12.7-1.4,14-3c-4.4-0.9-17.6,3.1-22.7,3.5
		c0.4-2.1,3.4-4.3,5.8-4.9c1.3-0.3,2.6,0.3,4.5,0c3.7-0.5,11.9-0.8,14,2c1,1.3,2.3,6.4,2.6,8.3c-10.6,2.8-26.2,6-37.7,5.7
		c1.9,1.4,7.8,0.4,10.4,0.1c3.3-0.4,6.4-0.8,9.7-1.4c6.1-1,12.4-2.5,18.2-3.8c-0.1-2.3-0.8-4.6-1.5-6.7c-0.8-2.4-1.3-3.5-3.7-4.3
		c-5.4-1.6-11.4,0.3-14.8-0.6c-0.4-1-0.2,1.4,0.5-0.8c-10.9-6.2-12.1-1.5-16.3-2.3c-0.2-0.3-0.8,0.7-0.2-1.1
		c0.8-2.4,5.6,0.7,9.1-0.3c0-1.3-0.1-0.8-1-1.7l-8.4-7c-2.4-1.9-1.5-0.8-2.6-3.8c-2.7-0.5-1,1.3-5.5-2.1c3.9,0.6,7.8,2.6,12.1,3
		c7.6,0.9,6.8-4,10.3-4.9c2.7,0.9,3.9,5.5,6.7,5.8c1.7-1,2.1-3.2,2.9-5.3c2.3,0.9,1.7,2.9,3.9,3.9c-0.7-1.6-2-3.8-3.4-4.5
		c-2.5,1-1.2,3.9-3.7,5.2c-2.4-1.3-3.7-4.8-5.5-5.5c-3-1.2-3.9,2.7-6.5,4c-5.2,2.7-13.3-2.9-18-2.3c1.4-2.6,1.2-3.6,0.4-7.1
		c-0.5-2.1-1.1-5.2-2-6.9c-0.8,0.9-0.6,0.8-0.9,1.9c0.2-2.2,0.6-4.5-0.9-6.1c-5.5-5.6-15.7,7.7-20.7,8.8c-2.1,0.5-5,0.3-6.4,1.5
		c-1.1,1.1-7.3,13.7-10.1,17.6c-1.4,1.9-0.8,0.6-2.2,1.9c-0.6,0.7-1.4,2.5-3.5,4.4c-5.1,4.7-14.2,11.9-10.8,20.1
		c1,2.3,2.2,3,3.9,4.3H30.5z"/>
</g>
</svg>
