<?xml version="1.0" encoding="utf-8"?>
<!-- Generator: Adobe Illustrator 23.0.3, SVG Export Plug-In . SVG Version: 6.00 Build 0)  -->
<svg version="1.1" id="Layer_1" xmlns="http://www.w3.org/2000/svg" xmlns:xlink="http://www.w3.org/1999/xlink" x="0px" y="0px"
	 viewBox="0 0 184.3 184.3" style="enable-background:new 0 0 184.3 184.3;" xml:space="preserve">
<g id="Layer_x0020_1">
	<g id="_2458315068352">
		<path d="M92.5,116.5c0.2-1.4,0.5-3.2,0.7-4.9c1.4-11.3,2.5-28.6-1.4-38.9c-0.5-1.1-1.6-2.7-0.5-3.6c0.5-0.5,2.9-1.3,3.8-1.6
			c1.3-0.5,2.3-1.1,3.6-1.6c7.4-4,12.2-9.7,14.8-17.5c0.4-1.1,0-0.9-0.4-2c-0.5-1.6-0.2-3.1,0.5-4.5c1.1-2,1.8-0.2,1.4-6.5
			c-0.2-1.3,0-4.1-1.8-3.2c-0.9,0.4-0.9,3.1-1.1,4.3c-0.7,5.6-2.5,11.2-5.8,15.7c-1.4,2-3.4,4-5.6,5.2c-1.1,0.7-2.2,1.3-3.6,1.8
			c-3.1,1.3-5.8,1.4-9.4,1.3c-14.2,0-23.4-0.4-31.1,11.9c-2.9,4.5-4.5,10.3-5,16.4c-0.2,1.6-0.7,9,0.4,10.1c0.9,0.9,2.7,0.9,2.9-1.3
			c0.5-6.3,3.2-15.7,5.6-21.1c0.7-1.6,4.1-8.5,6.5-5.9c0.7,0.9,0.9,5.9,0.9,7c0.2,10.1-0.7,20-2.3,29.7c-0.5,3.1-1.3,6.1-1.6,9h28.6
			V116.5z"/>
		<path d="M167.3,82.5v-5.4c-0.4-0.7-0.2-2.9-0.4-4c-0.2-2.2-0.7-5-1.3-7.2c-1.3-4.7-4-10.8-7.9-13.7c-0.4,0.2-0.9,0.7-1.3,0.9
			c-2.2,1.6-3.1,1.6-4.5,2.3c0.5,0.5,2.5,1.4,3.4,1.6c0.7,0.2,1.4,0.4,1.6,0.9c0.4,0.5,0.4,1.4,0,2c-0.9,1.1-2.5,0.4-3.8-0.2
			c-3.6-1.4-6.5-3.8-9.2-6.3c-0.5-0.4-0.7-0.9-1.3-1.3c-0.4-0.4-0.4-0.4-0.5-0.7l-1.8-2.2c-3.6-4.7-5.8-9-8.3-14.9
			c-0.2-0.4-0.2-0.5-0.4-0.9c-0.2-0.4-0.2-0.5-0.4-0.9c-0.2-0.5-0.5-1.4-0.7-1.8c-1.4-2.2-5.9-1.3-4.5,2.9l0.7,1.8
			c0.2,0.4,0.2,0.5,0.4,0.9c0.2,0.4,0.2,0.7,0.4,1.1c1.8,4.7,4.5,9.7,7,13.5c0.7,1.1,1.4,2.2,2.2,3.1c0.4,0.5,0.7,0.9,1.3,1.4l1.8,2
			c0.2,0.2,0.4,0.4,0.5,0.7c0.7,0.9,3.1,2.9,4,3.8c1.4,1.3,4.3,3.2,6.1,4.1c1.1,0.5,2.2,1.3,3.4,1.6c2.3,0.9,2.3,0.5,4.1,1.1
			c1.4,0.4,1.4,2.5,0,3.1c-1.8,0.5-7.7-2.2-9.4-3.2c-0.5-0.4-1.3-0.7-1.8-0.9c-0.2,7.2,1.6,11.5,0.5,20.9c-0.4,2.5-0.9,4.7-1.1,6.3
			h19.6c0.2-1.1,0.4-2,0.5-2.9c0-0.5,0.2-1.1,0.2-1.6C167,88.6,167.2,83.1,167.3,82.5z"/>
		<path d="M16.9,77.5v4.1C17,82.5,17,84,17,84.9c0.2,3.6,0.7,6.3,1.3,9.9h19.6c-0.2-0.9-0.4-2-0.5-3.1c-0.5-3.2-0.9-6.8-0.9-10.3
			c0-4.9,0.9-9.4,0.9-14c-2.5,1.3-3.2,2.2-6.8,3.2c-0.9,0.4-3.2,1.1-4.3,0.9c-1.4-0.4-1.4-2.5-0.2-3.1c1.1-0.4,1.8-0.2,4-1.1
			c1.3-0.5,2.3-1.1,3.6-1.6c2.9-1.4,4.5-2.9,6.8-4.7l2-1.8c0.5-0.4,0.9-0.9,1.3-1.3c6.7-7.4,10.6-14.6,14.2-24.3
			c1.6-4.3-2.9-5.2-4.3-3.2C53,31,52.3,33.2,52,34.1c-3.8,9.7-10.6,21.1-20.7,25.4c-1.1,0.5-2.9,1.4-3.8,0.5c-0.4-0.4-0.7-1.3-0.2-2
			c0.4-0.7,2.2-1.1,3.4-1.6c0.4-0.2,0.5-0.2,0.9-0.4s0.7-0.4,0.9-0.5c-3.4-0.9-4.9-2.9-5.6-3.2c-3.1,2-5.6,7-7,10.4
			C16.9,70.3,17.2,75.9,16.9,77.5z"/>
		<path d="M45.8,155.2h1.1c1.4,0.2,2.5-1.4,3.1-2.7c2.5-6.7,5.4-13.3,8.1-20c1.3-3.2,1.8-5.8-0.2-8.8c-0.4-0.7-3.1-3.8-4-4.7
			c-1.8-1.8-3.6-4-5.4-5.9l-1.4-1.4c-0.9-0.9-1.8-1.6-2.9-2.7c-0.2-0.2-0.5-0.4-0.7-0.7c-0.2-0.2-0.5-0.5-0.7-0.7
			c-3.1-2.5-2.9-2-3.4-5c-0.2-0.7-0.5-4.3-0.9-4.7c-0.2-0.2,0.2,0-0.2-0.2h-1.1c-6.3,0-12.8-0.2-19.1,0c-0.4,1.3-0.2,4.3,0.2,5.8
			c0.9,4.7,3.4,8.1,7.9,10.1c0.5,0.4,1.6,0.5,2.2,0.9l4.5,3.1c0.2,0.2,0.5,0.4,0.9,0.5c0.9,0.5,1.4,1.3,2.7,1.8
			c0.4,0.2,0.5,0.4,0.9,0.7l7.2,4.9c3.8,2.5,4.9,2.9,3.4,7.4c-0.9,2.9-5.2,17.1-5,18.9C43.1,153.8,44.4,155.4,45.8,155.2z"/>
		<path d="M132.8,149.1c0.4,0.4,0.7,1.4,0.9,2c0.2,0.7,0.5,1.4,0.9,2.2c0.5,0.5,0.5,0.9,1.1,1.4c0.4,0.4,1.1,0.7,1.6,0.7h1.1
			c1.4,0.2,2.9-1.6,3.1-3.1c0.2-1.8-4.1-16.2-5-19.1c-0.5-1.8-1.1-3.1,0-4.7c0.7-1.1,2.2-1.8,3.4-2.7c2.3-1.6,14.8-10.3,16.2-11
			c0.5-0.4,1.4-0.5,2.2-0.9c2.9-1.3,5-3.2,6.3-5.8c1.3-2.3,2.3-7,1.6-10.1c-4-0.2-8.5,0-12.4,0c-2.2,0-4.1,0-6.3,0
			c-1.8,0-1.6-0.4-1.8,1.3l-0.9,5.4c-0.2,1.3-0.5,1.3-1.3,1.8l-4.9,4.5c-0.5,0.5-1.1,1.1-1.6,1.6l-7.4,8.1c-1.4,1.6-3.2,3.2-3.8,5.6
			c-0.5,1.8-0.2,3.6,0.4,5.2c1.1,2.9,2.5,5.9,3.6,9C129.7,141.6,132.8,148.4,132.8,149.1z"/>
		<path d="M90.5,28.9h-1.8c-0.9,0.4-3.2,0.5-5,2.9c-0.5,0.5-0.5,0.5-0.9,1.3c-0.2,0.4-1.4,0.7-2,0.4c-0.7-0.4-0.2-0.7-2-0.5
			c-4,0.4-7.6,3.1-8.8,7c-1.8,5.4,1.3,11.7,7.2,13.1c4.3,1.1,8.8-0.7,11.2-4.1c0.5-0.9,1.6-2.5,1.3-3.8c-0.2-1.6-0.5-3.1-0.7-4.7
			c-0.2-1.8-0.4-2.9-1.3-4c-0.5,0.4-0.4,0.9-1.3,1.1c-0.7,0.2-1.4-0.2-1.6-0.7c-0.7-1.3,0.5-2.5,1.1-3.2c1.3-1.8,4.3-1.1,5.6,2.5
			c1.4,4.5,0.5,13.5,5.6,14c0-0.9-0.4-2-0.4-3.1s0-2.3,0.2-3.4c0.2-3.4,1.1-9.5-0.9-12.4C93.5,29.1,91.6,29.4,90.5,28.9z"/>
		<path d="M145.9,30c-3.6,0.5-5.8,2.2-7.4,4c-0.5,0.5-0.7,0.9-1.3,1.6c-0.5,1.1-0.5,0.9-0.2,2c1.6,3.6,4.1,7.6,6.5,10.6l2.7,3.1
			c0.5,0.5,0.9,0.9,1.4,1.3c0.4,0.4,0.4,0.5,0.9,0.5c0.4,0,0.9-0.2,1.3-0.2c5.4-1.3,10.1-6.7,8.8-13.5C158,33.7,152.6,29.1,145.9,30
			z"/>
		<path d="M25.1,41.7c0,3.8,1.8,7.2,4.9,9.4c1.3,0.9,5,2.9,6.1,1.8c1.1-0.9,2-2,2.9-2.9c3.1-3.1,5.9-8.3,7.7-12.1
			c0.7-1.4,0.9-1.3-0.9-3.6c-2-2.7-5.6-4.7-9.7-4.5c-3.1,0.2-6.7,1.8-8.5,4.3c-0.7,0.9-1.1,1.6-1.6,2.7C25.3,38.1,25.1,40,25.1,41.7
			z"/>
		<path d="M152.9,155.2h1.3c1.3,0.2,3.2-1.3,3.6-3.2c0.4-1.8-0.7-4-1.3-5.2c-2.3-5-4.5-8.3-7.6-12.6c-0.4-0.5-2.9-3.4-2.9-3.8
			c-0.2-0.9,0.5-1.8,0.9-2.3l2.7-4.1c0.5-0.7,1.1-1.4,1.3-2.2c-0.5,0.2-12.1,8.3-12.1,8.3c-0.2,0.5,1.8,6.8,2.2,7.7
			c0.5,1.6,0.5,2.5,1.3,3.6l7.7,11.7C150.6,154.2,151.7,155.2,152.9,155.2z"/>
		<path d="M29.8,155.2h1.3c0.7,0.2,1.4-0.4,1.8-0.5c1.1-0.7,1.4-1.6,2.2-2.7c0.4-0.5,0.7-0.9,0.9-1.4c1.3-2,2.7-4,4-5.9
			c2.5-4,2-2.2,3.2-6.7c0.4-1.1,2.3-7,2.2-7.7c-0.2-0.2-8.1-5.6-9-6.3l-3.1-2c0.2,0.5,0.9,1.6,1.3,2.2c4.5,7,4.3,5.6,2.2,8.5
			c-0.5,0.5-1.1,1.3-1.4,1.8c-2.5,3.2-9.7,13.9-9,17.8C26.8,153.8,28.4,155.4,29.8,155.2z"/>
		<path d="M80.8,119.8c-0.2,2.2-0.5,10.1,0,11.7c0.2,0.7,0.5,1.4,1.1,2.2c0.2,0.4,0.4,0.7,0.5,0.9L93,152.7c1.3,2.2,3.1,1.8,3.8,0.7
			c0.5-0.7,0.5-1.4,0.2-2.3c-1.3-5.2-3.2-10.6-6.5-14.8c-0.2-0.4-0.4-0.5-0.7-0.9c-1.8-2.2-3.2-2.3-3.1-4.3
			c0.4-3.6,0.9-7.6,0.9-11.3L80.8,119.8z"/>
		<path d="M75.2,155.2h1.1c2,0,1.6-3.1,1.6-4.1c-0.2-4.7-1.1-10.3-3.1-14.4c-2-4-3.2-4-2.7-5.9l3.4-11.2h-7.2
			c-0.4,2.5-2.2,7.7-2.2,9.7c0,2,2,7.2,2.5,9.2l4.3,13.1C73.6,153.1,73.7,155.2,75.2,155.2z"/>
		<path d="M131.2,59.3c0.4,0.2,0.7,0.4,0.9,0.5c0.5,0.4,0.7,0.2,1.3,0.4c0.5,0.4-0.2,0.2,1.3,1.1l0.5,0.4c0.7,0.2,5.8,3.1,9,3.8
			c-0.2-0.4-2.2-1.6-2.9-2.5c-1.3-1.3-2.3-2.2-3.8-4l-3.6-4.3c-0.7-0.9-1.6-1.4-2.9-2.3c-2.3-1.8-3.6-3.1-5.6-4.7
			c-0.9-0.7-4.7-4.9-5.2-5.2c-2.2-1.3-4.5,0.9-3.8,3.1c0.4,1.1,4,4.5,4.9,5.4c0.5,0.4,0.9,0.9,1.4,1.3l2.7,2.5
			c1.6,1.3,2.9,2.2,4.5,3.4C130.1,58.6,130.8,58.9,131.2,59.3z"/>
		<path d="M104.2,78.9c-0.5,0.2-1.1,0.5-1.3,1.1c-0.2,0.7,0.2,1.1,0.4,1.8c0.5,0.9,0.9,2.2,1.3,3.2c2.2,7,2.3,12.4,0.7,19.6
			c-0.4,1.4,0.5,2.5,2,2.2c1.1-0.4,1.3-1.6,1.4-2.9c0.4-1.3,0.5-2.7,0.5-4c0.5-6.3-0.5-13.1-2.9-18.9C106,80,105.6,78.6,104.2,78.9z
			"/>
		<path d="M48.9,86.1c0-0.9,0.4-2,0.5-2.9c0.2-0.7,0.5-2.2,0.5-2.7c-1.4-0.9-5.4-4-6.5-5.2c-0.5-0.7-1.4-1.3-2.3-2.5
			c-0.4-0.4-0.9-1.1-1.1-1.3l-0.5,7c0,0.5,0,0.7,0.4,1.3c1.1,1.1,4,3.1,5.2,4C45.8,84.3,48.2,85.9,48.9,86.1z"/>
		<path d="M111.4,76.4c-2.3,0.7-0.5,2.9,0.2,4.1c1.4,2.9,2.7,6.5,3.2,9.7c0.2,0.9,0.2,2.3,0.4,2.9c0.2,0.7,1.1,1.4,2,1.1
			c1.6-0.5,1.1-3.4,0.7-5c-0.7-4.3-2.2-8.1-4.3-11.9C113,76.8,112.4,76,111.4,76.4z"/>
		<path d="M59.3,91.3c1.1,0.5,4,1.6,5,1.8c0-1.3-0.4-0.5-0.2-1.6c0.2-0.2,0.4-0.2,0.4-0.5c0-0.4-0.2-0.4-0.2-0.7
			c0.4-0.2,0.4-0.4,0.4-1.1c0-0.5,0.2-1.1,0.2-1.6c-1.4-0.2-2.9-1.3-4.1-1.4C60.4,87.6,59.5,89.9,59.3,91.3z"/>
		<path d="M134.9,61.6l-0.5-0.4c-1.4-0.9-0.7-0.7-1.3-1.1c-0.5-0.2-0.5,0-1.3-0.4c-0.4-0.2-0.5-0.4-0.9-0.5
			c-0.4,0.5-0.2,2.2-0.2,2.9c0,0.2,0,0.4,0,0.5c0,0.2,0,0,0,0.2c0.2,0.2,0,0.2,0.2,0.2c0.5,0.2,3.2,0.2,3.8,0
			C134.9,62.7,134.8,62,134.9,61.6z"/>
	</g>
</g>
</svg>
