<?xml version="1.0" encoding="utf-8"?>
<!-- Generator: Adobe Illustrator 23.0.3, SVG Export Plug-In . SVG Version: 6.00 Build 0)  -->
<svg version="1.1" id="Livello_1" xmlns="http://www.w3.org/2000/svg" xmlns:xlink="http://www.w3.org/1999/xlink" x="0px" y="0px"
	 viewBox="0 0 184.3 184.3" style="enable-background:new 0 0 184.3 184.3;" xml:space="preserve">
<style type="text/css">
	.st0{fill-rule:evenodd;clip-rule:evenodd;}
	.st1{fill-rule:evenodd;clip-rule:evenodd;fill:#FEFEFE;}
</style>
<g id="Layer_x0020_1">
	<g id="_1217107622432">
		<path class="st0" d="M101.1,33.7c3.4,0.2,9.2,1.9,12.1,3.1c5.8,2.2,10.1,4.5,14.8,7.9c0.8,0.6,1.4,1.1,2.1,1.6
			c1.8,1.4,2.6,2.2,4.1,3.6l5.6,6.1c13.1,15.8,17.3,39.5,9.9,59.3c-1.4,3.6-3.1,7.5-4.9,10.4c-1.8,2.9-3.6,5.8-5.9,8.3
			c-0.3,0.3-0.3,0.3-0.5,0.6c-1.2,1.6-3.1,3.1-3.8,4l-4,3.6c-19,15.3-46.7,18.7-69.7,5.1c-4.3-2.5-8.4-5.5-11.8-9.1
			c-0.4-0.4-0.6-0.6-1-1c-0.8-0.6-1.1-1.2-1.8-1.9c-1-0.9-4.3-5.5-5-6.4c-14.4-21.2-13.9-48.8,1-70c1.1-1.6,3-4,4.2-5.4
			c0.4-0.4,0.6-0.6,0.9-1c1.6-1.9,5.1-4.9,7-6.4c0.4-0.3,0.7-0.6,1.1-0.8c10.6-8,24.1-12.5,37.6-12.1c0.6,0.1,1.3-0.1,1.6,0.3
			c1,0.8,1.7,3,0.9,4.4c-1,0.1-2.3-0.1-3.4-0.1c-13.6-0.1-25.8,4.6-36.2,12.9l-2.9,2.4c-0.4,0.3-0.5,0.6-0.8,0.9l-1.8,1.7
			c-14.4,15.7-19.4,37.7-11.9,58.3c2.3,6.2,5,10.7,8.8,15.7l2.3,2.9c1.4,1.6,4.5,4.5,6.3,6c8.2,6.7,18.6,11.3,29.6,12.4
			c12.1,1.3,23.9-1.3,34.1-7c1.5-0.8,3.1-1.8,4.3-2.7c1.4-1,2.8-1.9,4-3c10.7-9,18-21.1,20.1-36c2.4-17.6-3.6-32.6-11.8-43.1
			l-2.4-2.9c-1.1-1.3-0.7-0.8-1.7-1.8c-0.3-0.3-0.5-0.5-0.8-0.9c-0.6-0.7-1.2-1-1.8-1.6c-0.3-0.4-0.6-0.5-1-0.8
			c-1.8-1.7-4.9-3.8-7.1-5.2c-4.9-3.1-14.6-7.1-20.5-7.6C101.5,36.5,101.6,35.6,101.1,33.7z M91.5,24.7h2.2c1.7,0.6,3.2,0.3,5.7,2.3
			c3.9,3.1,1.2,2.9,4.6,3.4c7.9,1.4,16.9,5.1,23.3,9.3c3.3,2.3,4.1,3,6.9,5.2l2.2,2c11.2,10.1,18.7,25.4,20.3,40.7
			c0.1,1,0.1,3.1,0.4,3.8v6c-0.2,0.6-0.6,5.7-0.8,7c-0.4,2.2-0.8,4.3-1.3,6.4c-2,7.8-5.4,14.7-9.8,21c-1.7,2.5-3,3.8-4.3,5.5
			c-0.4,0.5-0.5,0.5-0.9,1c-0.7,0.7-1.1,1.3-1.8,2l-3.1,2.9c-1.6,1.2-3.1,2.7-5.4,4.2c-8.6,5.8-16.5,9.4-27.2,11.2
			c-1,0.2-6.5,0.7-6.9,0.9c-0.2,0.1-6.5,0.1-6.8-0.1c0,0-0.1,0-0.1,0l-0.8-0.2c-4.5-0.3-8.2-0.9-12.6-2c-8.1-2.1-14.5-5.4-21.2-9.9
			c-2.7-1.8-6.2-4.9-8.4-7.1l-6.3-7.4c-2.4-3.4-4.4-6.8-6.4-11c-2.7-5.5-4.4-11.7-5.4-17.9L27.1,97v-5.1l0.7-7.4
			c1.8-11.2,6.8-22.7,14-31.2l3.9-4.3c0.7-0.7,1.5-1.4,2.1-2.1c0.5-0.5,0.6-0.6,1.1-1l3.4-2.8c1.5-1.2,3.1-2.3,4.8-3.4
			c6.8-4.6,16.9-8.4,25.4-9.6c1.7-0.2,0.5-0.8,3.3-2.9C88.8,24.8,89.7,25.4,91.5,24.7z M94.2,49.2c2.8,0.3,5.4,0.3,8.2,0.7
			c6.9,1,14,3.4,19.9,6.6c2,1.1,9.2,5.3,10.3,7.4c1.3,2.7-1,4.9-2.7,5.7c-3.6,1.6-4.8-0.9-5.8-2l-3.6,0.1c0.7,0.8,1.3,1.3,2,2.2
			c3.5,5,3,11.9,3.5,18c1,11.9,3.3,27.9,3.5,39.2c0.1,2.6-0.1,5.4-1.2,7.5c-1.2,2.1-3.5,2.1-6.3,2.2c-2.8,0-5.5,0-6.6-2
			c-0.9-1.6-0.7-5.9-0.8-7.9c0-5.7,0.2-11.3,0.3-16.9c0.1-1.2,0.6-14.9-1-15.8c-1.5,1.9-0.4,13.2-0.2,16.3
			c0.3,5.3,0.4,11.7-0.3,16.9c-4.3,2.7-15.4,3.6-20.7,3.6c-6.3,0-15.6-0.9-20.6-3.6c-0.7-5.2-0.6-11.7-0.3-17.1
			c0.2-2.6,1.4-15.1-0.3-16.1c-1.7,1.5-0.7,28.6-0.7,32.9c0,7.6,0.6,9.6-7.6,9.5c-3,0-5-0.2-6.2-2.3c-1.1-1.9-1.2-5-1.1-7.3
			c0.2-5.3,0.7-10.7,1.2-15.9c0.5-5.2,1-10.4,1.6-15.6c0.6-5.3,0.8-10.5,1.2-15.8c0.3-3.7,1-7,3-9.9l2-2.3c-4.6,0-3.3-0.3-4.5,1.2
			c-2.5,3.2-9.4-0.4-7.7-4.7c0.5-1.1,1.3-1.7,2.2-2.3c6.1-4.7,13.2-8.3,20.8-10.4c6.9-1.9,8.7-1.7,15.5-2.3c0.4-2-0.7-7.4,0.7-8.4
			c0.7-0.5,4.3-0.1,5.3-3.6c0.7-2.8-1.1-5.1-3.2-5.7c-1.7-0.5-2.3,0-3.6,0.5c-0.5,0.2-3.4,0.3-4.2,0.3c0.4-0.9,1.5-2,2.3-2.6
			c3.4-2.3,8-1.5,10.3,1.8c2.4,3.4,1.8,7.9-1.4,10.3c-0.5,0.4-0.9,0.7-1.5,1c-0.4,0.2-1.4,0.5-1.7,0.7L94.2,49.2z"/>
		<path class="st0" d="M77.6,62.7c2.2-0.3,4.6-0.9,7.1-1.1c4.3-0.5,4.4-0.1,8-0.2c2.9-0.1,5.1-0.2,8,0.2c2.8,0.3,5.3,0.9,7,1.1
			c-1.1,7-14.3,13.9-15.1,13.9c-1.3-0.1-7.6-4.3-9-5.5C81.8,69.6,78,66.2,77.6,62.7z M63.2,65.2c1.3-0.1,5.3,0.2,6.1-0.2
			c1.4-0.5,3.4-1.3,4.8-1.5c0.9,2.5,1.6,3.8,3,5.5c1.6,1.9,1.8,1.9,3.2,3.3c0.7,0.7,2.7,2.1,3.6,2.8c1.8,1.3,6.2,4,8.2,4.8
			c-0.6,0.3-0.5-0.1-0.6,0.8h2.1c-0.1-0.9,0-0.5-0.6-0.8c3.3-1.1,9-5.2,11.7-7.4c1.5-1.2,4-4,5-5.8c0.5-1,0.9-1.9,1.3-3.1
			c1.5,0.3,3.3,1,4.7,1.5c0.9,0.3,4.9,0.1,6.2,0.2c-0.7-1.3-3.8-3.9-5.4-5c-2-1.4-4.1-2.7-6.7-3.8c-10.4-4.7-24.2-4.7-34.7-0.1
			c-2.4,1.1-4.8,2.4-6.7,3.8C67.2,61.3,63.9,63.9,63.2,65.2z"/>
		<path class="st1" d="M77.6,62.7c0.5,3.6,4.2,6.9,6.1,8.4c1.4,1.2,7.7,5.4,9,5.5c0.8,0.1,14-6.8,15.1-13.9c-1.7-0.2-4.2-0.8-7-1.1
			c-3-0.3-5.1-0.2-8-0.2c-3.6,0.1-3.7-0.3-8,0.2C82.2,61.8,79.8,62.4,77.6,62.7z"/>
		<path class="st0" d="M96.6,83.3c-0.5-0.2-0.3-0.1-0.8-0.6c-0.1-0.1-0.2-0.2-0.2-0.3c-0.5-0.6,0.6-2.4,1.9-0.3
			C97.5,82.7,97.1,83.1,96.6,83.3z M100.1,88.4c0.6-0.2,2.5-2.3,2.7-2.8c-0.4-0.6-1.3-1.2-1.8-1.6l-3.6-3.1c-1.3-1-1.1-0.4-2,0.4
			c-1.6,1.3-0.1,1.6,1.6,3.7c0.3,0.4,0.3,0.5,0.7,0.9C98.3,86.4,99.3,88,100.1,88.4z"/>
	</g>
</g>
</svg>
