<?xml version="1.0" encoding="utf-8"?>
<!-- Generator: Adobe Illustrator 23.0.3, SVG Export Plug-In . SVG Version: 6.00 Build 0)  -->
<svg version="1.1" id="Livello_1" xmlns="http://www.w3.org/2000/svg" xmlns:xlink="http://www.w3.org/1999/xlink" x="0px" y="0px"
	 viewBox="0 0 184.3 184.3" style="enable-background:new 0 0 184.3 184.3;" xml:space="preserve">
<style type="text/css">
	.st0{fill-rule:evenodd;clip-rule:evenodd;}
</style>
<g id="Layer_x0020_1">
	<path class="st0" d="M46.1,111c-2.8-11.7,13.8-14.9,16.2-4.4c1.2,5.4-2,9.8-6.1,10.8C51,118.5,47,114.9,46.1,111z M129.6,109.9
		c-1-12,15.5-13.2,16.6-2.1C147.4,119.9,130.5,120.7,129.6,109.9z M122.3,82.6l-17.9-0.2l-0.1-15.1c8.3-0.8,15.8,0.1,21.7,6.7
		c0.7,0.8,2.7,3.3,3.1,4.3l-5.7-0.5C122.9,79.4,122.7,81.2,122.3,82.6z M157.9,99.6c1.7-2.1,0.8-8.9-0.7-10.8
		c-2.5-3.3-13.9-6.1-17.8-7.7c-4.3-1.8-1.7-1.8-6.9-5.9c-1.5-1.1-2.1-1.9-3.5-3.1c-13.2-10.7-18-8.7-35.6-8.7
		c-16.9,0-33.9-0.2-50.8,0.1c-11.3,0.2-10.5,1.2-13.3,12.6c-1.7,6.9-2.6,16-2.6,23.5c-1.1,2.7-0.6-0.4-2,2.5
		c-4.6,9.2,13.1,9.3,17.2,9.9c0.1-2.1-0.3-4.4,0.4-6.4c1-2.9,0-0.3,0.9-1.6c-1.7,9.1,1.5,16.4,10.2,16.8c7.7,0.4,13-5.7,11.8-15.7
		l0.5,0.9c1.1,3.3-0.5-2.7,0.3,1l0.2,4.9L126,112c0.1-3.5-0.7-5.5,1.3-8.5c-4.7,21.1,20,22.2,21.9,7.3c3.1,3.8,6.3-1,8.7-2.5
		c2-1.2,2.5-1.8,2.4-4.7C160.2,99.7,159.5,101.6,157.9,99.6z"/>
</g>
</svg>
