<?xml version="1.0" encoding="utf-8"?>
<!-- Generator: Adobe Illustrator 23.0.3, SVG Export Plug-In . SVG Version: 6.00 Build 0)  -->
<svg version="1.1" id="Layer_1" xmlns="http://www.w3.org/2000/svg" xmlns:xlink="http://www.w3.org/1999/xlink" x="0px" y="0px"
	 viewBox="0 0 184.3 184.3" style="enable-background:new 0 0 184.3 184.3;" xml:space="preserve">
<style type="text/css">
	.st0{fill:#010101;}
</style>
<g id="Layer_x0020_1">
	<g id="_2429220740144">
		<path class="st0" d="M55.7,104.3h72.9v42.5H55.7V104.3z M49.4,122.3H37.6V73.9h109.3v48.4h-11.9V98H49.4V122.3z M55.7,37.5h48.4
			v23.6c0,0.5,0.2,0.9,0.9,0.9h23.6v5.8H55.7V37.5z M110.3,40.4l15.5,15.3h-15.5V40.4z M49.4,67.6H38.1c-3.6,0-6.8,2.7-6.8,6.3v48.1
			c0,1.8,0.7,3.4,1.4,4.5c0.7,0.9,2.5,2,4.1,2h12.4v24.7h85.5v-24.5h12.4c3.4,0,5.8-3.1,5.8-6.7V73.9c0-3.6-3.2-6.3-6.8-6.3h-11.3
			V56.2c0-0.7-0.9-1.3-1.4-1.8l-7.7-7.7c-0.5-0.5-0.9-1.3-1.6-1.6c-2-2-13.3-13.9-14.4-13.9H49.4V67.6z"/>
		<path class="st0" d="M61.7,123.2v5.4h60.8c0-3.8,0.5-6.3-0.9-6.3h-59C61.9,122.3,61.7,122.5,61.7,123.2z"/>
		<polygon class="st0" points="61.7,116.5 122.5,116.5 122.5,110.2 61.7,110.2 		"/>
		<polygon class="st0" points="61.7,140.8 122.5,140.8 122.5,134.5 61.7,134.5 		"/>
		<path class="st0" d="M128.5,82.7c0,4.9,6.3,4,6.3,0.2C134.8,78.9,128.5,78.9,128.5,82.7z"/>
		<path class="st0" d="M116.2,83.1c0,4.3,6.3,3.8,6.3,0.4C122.5,78.6,116.2,79.1,116.2,83.1z"/>
	</g>
</g>
</svg>
