<?xml version="1.0" encoding="utf-8"?>
<!-- Generator: Adobe Illustrator 23.0.3, SVG Export Plug-In . SVG Version: 6.00 Build 0)  -->
<svg version="1.1" id="Livello_1" xmlns="http://www.w3.org/2000/svg" xmlns:xlink="http://www.w3.org/1999/xlink" x="0px" y="0px"
	 viewBox="0 0 184.3 184.3" style="enable-background:new 0 0 184.3 184.3;" xml:space="preserve">
<style type="text/css">
	.st0{fill-rule:evenodd;clip-rule:evenodd;fill:#FFFFFF;}
</style>
<g id="Layer_x0020_1">
	<g id="_2341750127104">
		<path class="st0" d="M112.4,110.8c-0.6-14.6-1.2-32.2,0.2-46.6c0.7-6.5,5.4-33.4,0.6-36.7c-1-0.7-3.9-1.1-5.3-1
			c-1.4,0.2-3.3,1.2-3.8,2c-0.7,1-1,3.4-1,4.9c-0.4,8.2,2,23.7,2.8,32.8c0.7,8.4,1.8,40.1-0.7,46.2c-6.8,5-7-1.8-6.7,19.7
			c0.1,3.3,0.2,24.1,0.8,25.5c1.7-0.3,1.1-1.8,1.3-6.6l0.8-14.5c0.1-2-0.5-6.5,1.3-6.7c2.2-0.3,1.6,4.6,1.7,6.1
			c0.2,2.4,0.3,4.7,0.4,7.3l0.6,12.8c0.6,2.6-0.5,0.8,1.3,1.6c0.4-5.4,0.5-24.1,1.6-27.8c1.5-0.2,1.8-0.4,2.2,1.1
			c0.7,3,0.1,22.5,1.5,23.9c1.8-0.5,1.1-0.8,1.3-5.7c0.1-2,0.3-4,0.4-5.9c0.2-4,0.1-9.7,0.7-13.2c3.3-0.9,2.3,2,2.6,5.3l0.7,15.8
			c0.1,1.4,0.2,2.3,0.2,3.7c0.2,3.9,0.3,2.8,1.1,2.9c0.7-1.6,0.8-23.1,0.8-26.6c0.2-12,1.6-14.7-3.9-17
			C113.8,113.2,113.3,112.9,112.4,110.8z"/>
		<path class="st0" d="M113.2,86.1c1.2-0.9,3.6-4.5,7.2-7.4c2-1.7,6.5-4.8,9.6-4.9c-4.6,1.4-15.3,10.6-16,15.2
			c3.4,0.7,7.9,1.4,11.4,0.4c2.7-0.8,6.1-1.5,8.4-4.2c0.7-0.9,1.7-2.7,2.3-3.6c0.8-1.2,1.3-3,1.8-4.5c2.1-6,3.6-5.8,4.6-7.7
			c-2-0.9-8.6-0.6-11.3-0.4c-3.3,0.3-6.4,1.3-8.8,2.9C119.4,73.8,113.6,81.1,113.2,86.1z"/>
		<path class="st0" d="M74.8,133.6c-0.8,2.9-1.3,11.9-1.3,15.4c0,6,1.4,10.4,8,8.4c2.8-0.8,3.2-1.6,3.6-4.8c0.6-4.9-0.9-20-1.9-24.1
			c-1.6-18.3-2.3-38-0.3-56.5c4.6-2.7,6.8-4.4,9-9.2c2-4.5,3.2-9.4,2.9-15.2c-0.3-4.8-2.4-9.8-4.7-13.3c-3.4-5.1-9.1-10.6-15.3-6.2
			C64,35.8,61.3,50.6,66.8,62.7c2.8,6,5.1,6.6,9,9.2C78.5,95.4,76.8,111,74.8,133.6z"/>
		<path class="st0" d="M84,89.7c1.7-1,3.9-7.1,7.5-8.3c-1.5,2.1-6.2,6.1-6.7,11.1c8,0.1,12.4-2.8,13.4-10.1c0.5-3.9,0.9-3.6,1.7-6.3
			C91.2,76.1,84.3,80.9,84,89.7z"/>
		<path class="st0" d="M104.2,109c2-5.6-3.2-10.4-9.2-10.1c0.4,1.6,1.4,6.3,2.1,7.3C98.6,108.2,101.1,109.1,104.2,109z"/>
		<path class="st0" d="M60.4,98.3c-0.6-1.5-0.9-0.7,0.8-1c4.8,3.2,10,7.2,13,12.1c0.9-1.9-7.3-19.6-18.3-19
			c-0.8-0.7,0.3-0.3-1.4-0.6c-0.2,0-1.6-0.1-1.8-0.1c-1.5-0.1-2.8-0.1-4.3-0.1l-6.7,0.4c0.9,3.2,1.7,0.4,5,9.1
			c1.3,3.5,2.6,6.9,4.9,9.2c5,5,14.4,6.1,21.8,3.7C72.5,108.5,63.9,99.6,60.4,98.3z"/>
	</g>
</g>
</svg>
