<?xml version="1.0" encoding="utf-8"?>
<!-- Generator: Adobe Illustrator 23.0.3, SVG Export Plug-In . SVG Version: 6.00 Build 0)  -->
<svg version="1.1" id="Livello_1" xmlns="http://www.w3.org/2000/svg" xmlns:xlink="http://www.w3.org/1999/xlink" x="0px" y="0px"
	 viewBox="0 0 184.3 184.3" style="enable-background:new 0 0 184.3 184.3;" xml:space="preserve">
<style type="text/css">
	.st0{fill-rule:evenodd;clip-rule:evenodd;}
</style>
<g id="Layer_x0020_1">
	<g id="_2341760324560">
		<path class="st0" d="M117.9,109.4c1.4,4.3,11.2,20.6,14.4,25.8c3,4.7,10.2,6.6,12.7,0.9c2.2-5.1-2.4-10.7-4.7-14.5
			c-25.2-42.8-9.3-26.9-50.9-30.6l-0.1-10.3c8.3-0.1,19.7,1.4,25.8-1.7c3.3-12.6-7.3-8.2-26.3-9.1c-1-5.4-0.6-11.5-3.5-15.2
			c-2.7-3.3-8.7-5.5-14-2.8c-9.1,4.6-5.6,19.5-4.9,30.9C68.4,117.5,68.6,107.8,117.9,109.4z"/>
		<path class="st0" d="M117.6,123.2c-4.6,7.4-4.6,16-18.7,23.1c-33,16.8-71-25.8-38.6-58.2l-0.4-9.9c-4.5,0.5-11.5,9.2-14.1,13.2
			c-23.5,36.2,15.8,83.1,56.8,63.3c7.3-3.5,11.7-7.9,15.9-13.2C124.4,133.8,124.3,131.1,117.6,123.2z"/>
		<path class="st0" d="M71.1,26.3c-15.4,7.4-3.8,27.1,9.5,21.1C93.7,41.3,85.5,19.3,71.1,26.3z"/>
	</g>
</g>
</svg>
