<?xml version="1.0" encoding="utf-8"?>
<!-- Generator: Adobe Illustrator 23.0.3, SVG Export Plug-In . SVG Version: 6.00 Build 0)  -->
<svg version="1.1" id="Livello_1" xmlns="http://www.w3.org/2000/svg" xmlns:xlink="http://www.w3.org/1999/xlink" x="0px" y="0px"
	 viewBox="0 0 184.3 184.3" style="enable-background:new 0 0 184.3 184.3;" xml:space="preserve">
<style type="text/css">
	.st0{fill-rule:evenodd;clip-rule:evenodd;fill:#FFFFFF;}
</style>
<g id="Layer_x0020_1">
	<path class="st0" d="M72.2,85.3L72,71h12.7v-11l14.8,0.2V71l12.3,0.1l0.1,14.3c-3,0.1-10.2-0.8-12.6,0.4L99.3,114H85l-0.2-28.2
		C82.5,84.6,75.2,85.3,72.2,85.3z M33.7,158.9c37.8-0.5,78.7,0,116.8,0v-12h-8.3V74.5c0-45.9-54.6-64.9-87.3-34
		C45.1,49.9,41.9,63.6,42,77.6v69.3l-8.3-0.1v9.7V158.9z"/>
</g>
</svg>
