<?xml version="1.0" encoding="utf-8"?>
<!-- Generator: Adobe Illustrator 23.0.3, SVG Export Plug-In . SVG Version: 6.00 Build 0)  -->
<svg version="1.1" id="Livello_1" xmlns="http://www.w3.org/2000/svg" xmlns:xlink="http://www.w3.org/1999/xlink" x="0px" y="0px"
	 viewBox="0 0 184.3 184.3" style="enable-background:new 0 0 184.3 184.3;" xml:space="preserve">
<style type="text/css">
	.st0{fill-rule:evenodd;clip-rule:evenodd;fill:#FFFFFF;}
</style>
<g id="Layer_x0020_1">
	<path class="st0" d="M62.7,118.5c-4.9-0.7-7.9-2.7-12.5-4.8c-6-2.9-8.1-2.6-11.8-6.4C42.4,108.1,59.6,114.9,62.7,118.5z M53.4,63.8
		c0.8,1.4,0.8-0.9,0.9,2.6c0,0.6-0.9,3.4-1,3.7C50.5,64.9,53.3,63.8,53.4,63.8z M62.7,118.5l15.8,5.3c5.5-7.3,7.6-13.2,13.2-20
		l7.2,10c2,3.2,4.3,6.5,5.9,10.8l10.4-3.4c1-1,0.2-0.9,3.2-2.6c1.5-0.9,2.3-1,3.7-1.6c3.3-1.4,4.3-2,8.2-2.8l25.7-11.9L135.6,63h-7
		c1.8,3.1,2.6,6.9,3.1,11.5c-1-1.2-1.2-1.1-2.4-3c-2.3-3.7-2.4-5.6-2.5-8.9l-10.2-0.1l2.4,12.1c-2.3-1.9-1.8-1.1-3.8-3.8
		c0-0.1-1.2-2.3-1.3-2.7l-2.3-5.6h-9.6l-22.4,0.3c0.9,4.6-0.2,9.2-2.1,13c-0.9-6.1-1.3-7.4,0.6-13.3l-10,0.3l-4.3,8.9
		c-1.1-6.1,0.2-7.1,1.4-8.9l-16.9-0.1l-19.7,39.4l7.2,3.9c0.2-0.3,0.6,0.4,0.8,0.8l-9.6-3.5l-3.1,8.3l48.6,21.8l4.6-7.9L62.7,118.5z
		"/>
	<polygon class="st0" points="135.4,61 135.4,50.9 48.7,50.7 49.1,61.2 	"/>
	<path class="st0" d="M130.3,114.2c-0.9,1-0.2,0.9-3.1,2.6c-0.3,0.2-3.3,1.4-3.8,1.6c-3.3,1.4-4.5,2-8.2,2.8l-8.3,5.1l3.5,6.6
		c7.7-0.4,39.8-17.5,50.1-21.2V110l-3.6-6.9L130.3,114.2z"/>
</g>
</svg>
