<?xml version="1.0" encoding="utf-8"?>
<!-- Generator: Adobe Illustrator 23.0.3, SVG Export Plug-In . SVG Version: 6.00 Build 0)  -->
<svg version="1.1" id="Livello_1" xmlns="http://www.w3.org/2000/svg" xmlns:xlink="http://www.w3.org/1999/xlink" x="0px" y="0px"
	 viewBox="0 0 184.3 184.3" style="enable-background:new 0 0 184.3 184.3;" xml:space="preserve">
<style type="text/css">
	.st0{fill-rule:evenodd;clip-rule:evenodd;fill:#FFFFFF;}
</style>
<g id="Layer_x0020_1">
	<g id="_2306981686096">
		<path class="st0" d="M85.5,95.4c-1.1,1.4-7.7,6.2-9.9,7.4c-1.9,1-12.2,5.5-8.1,7.8c3.2,1.8,11.2-1.8,13.7-3
			c4.1-2,7.3-4.3,10.8-6.7c0.4,0.2,7.2,5.1,12.4,7.4c2.4,1.1,13,5.3,15.5,4c0.5-2-2.4-3.8-4.3-5.1c-4-2.7-14.6-8.4-17.1-11.7
			c1.9-2.9,7.6-5.7,13.1-17.5c1.6-3.4,3.2-7.3,4.4-11c0.7-1.9,1-4.2,1.2-6.4c0.7-6.3-4-8.3-7.4-7.1c-6.4,2.2-1,11.7-10.9,27.6
			c-1.5,2.4-5.1,7.4-6.9,8.5c-4.7-3.5-9.7-12.9-11.8-18.9c-0.6-1.9-1.2-3.9-1.5-5.9c-0.7-3.6-0.3-9.5-4.2-11.2
			c-3.7-1.5-8.5,1.1-7.8,6.6c0.3,2.2,0.6,4.5,1.3,6.5c2.6,7.3,5.5,14.5,10.1,20.6c1.2,1.6,2.3,2.9,3.6,4.2
			C82.5,92.3,85.1,94.6,85.5,95.4z"/>
		<path class="st0" d="M80.7,134.6c-0.7-3.9-3.9-3.2-4.3-13.7c-1.6,0.3-5.5,1.9-7.2,2.6c-8.2,3.1-24.5,12.6-31,17.9
			c-5.4,4.3-5.9,7,2.4,9c5.4,1.3,11.8,1.8,17.9,1.8c12.7,0,20.2-3.8,31.9-7.2c5-1.4,9.2-2.5,14.3-2.8c0.6,0,1.5,0,1.9-0.3
			c-4.7-2.8-17.8-2.7-24.1-2.1c-4.4,0.4-21.9,1.9-25,1.6L80.7,134.6z"/>
		<path class="st0" d="M106.3,121.1c0.1,3.6,0.3,6.1-1,9.1c-0.7,1.7-3.6,4.8-3.5,6.3c6.8,1.3,11.2,1.8,17.9,3.5
			c0.9,0.2,1.8,0.5,2.8,0.8c0.9,0.3,2,0.5,2.7,1c-1.2,0.3-4.3,0.3-5.9,0.4c-4.7,0.2-11.7,1-16.1,1.9c-4.4,0.9-15.6,3.6-17.7,6.3
			c2.8,0.2,5.9-0.2,8.7-0.3c8-0.2,18.1-0.2,25.8,0.2c9.5,0.6,24.3,3.2,29.6-3.5c2.5-3.2-5.7-7.7-7.8-8.9
			C137.5,135.4,111.2,121.9,106.3,121.1z"/>
		<path class="st0" d="M90.6,110.5c-7.4,0.9-11.1,7.6-9.8,13.8c1.1,5.4,6.1,12.1,11.8,12.4c5.8,0.3,8.9-8.5,9.6-14.3
			C103.3,114.1,99,109.5,90.6,110.5z"/>
		<path class="st0" d="M88.9,32.3c-13.2,3.1-9.1,25.7,3.7,22.9c5.1-1.1,9-6.8,8-13.5C99.8,36.5,95.3,30.8,88.9,32.3z"/>
	</g>
</g>
</svg>
