<?xml version="1.0" encoding="utf-8"?>
<!-- Generator: Adobe Illustrator 23.0.3, SVG Export Plug-In . SVG Version: 6.00 Build 0)  -->
<svg version="1.1" id="Layer_1" xmlns="http://www.w3.org/2000/svg" xmlns:xlink="http://www.w3.org/1999/xlink" x="0px" y="0px"
	 viewBox="0 0 184.3 184.3" style="enable-background:new 0 0 184.3 184.3;" xml:space="preserve">
<style type="text/css">
	.st0{fill:#FFFFFF;}
</style>
<g id="Layer_x0020_1">
	<g id="_2429220751600">
		<path class="st0" d="M72.6,84c-1.6-4.5,2.7-7.2,8.5-1.1c3.1,3.4,5.2,5.4,8.6,8.6c7.4,7.4,49.3,48.4,49.7,50.9
			c0.5,3.8-2.2,6.1-7.9,0.2l-25.4-25.4C103.2,114.6,72.6,84.2,72.6,84z M59.5,81.9c4.3,2.9,8.3,5,11.3,8.3l49,49.1
			c3.6,3.6,16.4,20.3,23.9,9.4c3.8-5.4,1.1-9.7-2.2-13l-49-49c-7-7-12.2-10.4-17.5-21.6C70.6,75.6,67.4,75.7,59.5,81.9z"/>
		<path class="st0" d="M25.1,48.4c0.2,10.4,3.8,22.9,10.6,28.1c8.5,6.5,23.8,3.1,30.2-3.2C76,63.5,82,33.4,41.8,31.8
			c6.1,13,23.6,13.5,9.9,27.2C38.9,72.1,37.1,54.5,25.1,48.4z"/>
		<path class="st0" d="M157.6,54l0.2-4.1l-2.3,1.6c-10.1,4.5-10.4,21.4-24.8,7c-11.5-11.7,4.7-15.3,11-26.5c-54.5,2.5-29,59,2.2,47
			C151.3,75.9,158.1,64.8,157.6,54z"/>
		<path class="st0" d="M88.8,113.2l-2.7-2.7c-8.1,3.1-34.9,40-40.7,35.3l-0.5-1.6c-0.7-7.9,31.9-32.2,35.3-39.6l-3.2-3.2l-33.8,33.1
			c-12.2,12.4,1.4,24.3,12.1,13.3C61.8,141.1,87,117.1,88.8,113.2z"/>
		<path class="st0" d="M123.5,83.3l0.2-2.9c-4.7-0.9-6.5-2.9-9.4-5.9l-6.5-9.2c-2.2,8.5-8.8,13.1-13.3,17.8l3.6,4
			c4-3.6,8.8-10.4,12.2-6.5c2.3,4.9-4.5,7.9-6.7,11.9l2.5,3.1C112.2,93.4,114.7,84.7,123.5,83.3z"/>
		<path class="st0" d="M155.6,51.3l2.3-1.6l-0.2,4.1c0.9-1.6,0.9,2.2,1.3-2.3c0.5-7,0.2-1.4-0.9-3.2C155.8,50,156.5,49.6,155.6,51.3
			z"/>
		<polygon class="st0" points="123.5,83.3 125.7,82.2 123.7,80.4 		"/>
	</g>
</g>
</svg>
