<?xml version="1.0" encoding="utf-8"?>
<!-- Generator: Adobe Illustrator 23.0.3, SVG Export Plug-In . SVG Version: 6.00 Build 0)  -->
<svg version="1.1" id="Layer_1" xmlns="http://www.w3.org/2000/svg" xmlns:xlink="http://www.w3.org/1999/xlink" x="0px" y="0px"
	 viewBox="0 0 184.3 184.3" style="enable-background:new 0 0 184.3 184.3;" xml:space="preserve">
<g id="Layer_x0020_1">
	<g id="_2429220708304">
		<path d="M122,95c-0.5-0.9-0.4-2.5-0.4-3.8s0-2.7,0-4c-1.8,0-6.3,0.4-7.7-0.2c-0.4-1.8-0.5-8.3,0.2-9.5h7.7v-7.9h9.7v7.9h7.9v9.7
			h-7.9l-0.2,7.9H122V95z M32.5,85.1C31.2,73.2,40.4,64,50.9,62.9c11.7-1.3,21.4,7.9,22.1,18.5c0.9,11.7-7.9,21.1-18.5,22
			C42.6,104.3,33.6,95.7,32.5,85.1z M69.6,52.1c-0.9-2-2.2-2.7-3.4-4.1c-4-4.3-11.3-5.4-17.3-3.4c-7.6,2.5-13.3,8.6-16.9,13.1
			c-24.1,30.1-21.2,83.7,4.9,83c11.3-0.2,21.1-11.2,26.1-19.1c1.8-2.7,4-6.5,5.2-9.7H116c4.5,11.2,17.5,28.8,31.7,28.8
			c8.8,0,14.6-6.7,17.3-13.1c9.4-22,0.4-54-13-70c-3.6-4.5-9.4-10.8-17.1-13.1c-4.3-1.3-8.6-1.4-12.6,0.5c-3.1,1.6-6.7,4.5-7.9,7.2
			L69.6,52.1z"/>
		<path d="M39.2,84.4c0.5,7,6.8,13,14.8,12.2c7-0.5,13.1-6.8,12.4-14.8C64.7,64.4,37.9,66.2,39.2,84.4z"/>
		<polygon points="122.9,86.2 130.6,86 130.4,78.4 122.9,78.4 122.9,84.2 		"/>
		<path d="M122,95l-0.2-8.1H114v-9.5c-0.7,1.3-0.5,7.7-0.2,9.5c1.4,0.5,5.9,0.2,7.7,0.2c0,1.3,0,2.7,0,4
			C121.6,92.5,121.4,94.1,122,95z"/>
	</g>
</g>
</svg>
