<?xml version="1.0" encoding="utf-8"?>
<!-- Generator: Adobe Illustrator 23.0.3, SVG Export Plug-In . SVG Version: 6.00 Build 0)  -->
<svg version="1.1" id="Layer_1" xmlns="http://www.w3.org/2000/svg" xmlns:xlink="http://www.w3.org/1999/xlink" x="0px" y="0px"
	 viewBox="0 0 184.3 184.3" style="enable-background:new 0 0 184.3 184.3;" xml:space="preserve">
<style type="text/css">
	.st0{fill:#FFFFFF;}
</style>
<g id="Layer_x0020_1">
	<path class="st0" d="M90,118.5c-0.9-2.9-0.5-3.6,1.8-4.9c2.2,0.5,1.8,0.5,2.9,1.8C94.8,119.2,93.2,119.5,90,118.5z M53.1,57.4h77.6
		l0.5,48.1H53.1V57.4z M75.6,128.5c-1.4,7.9-5.9,4.3-7.6,9.7c5,0.5,45,0.9,47.5-0.4c1.1-3.4-1.8-2.2-4-3.4c-2-1.3-2.5-3.6-3.1-5.9
		c7,0,13.9,0,20.9,0c7,0,12.8-0.2,13.5-7.6c1.1-9.5,0.2-47.5,0.2-62.3c0-8.1,0.5-12.6-8.1-12.8c-25.4-0.5-58.1,0-84.2,0
		c-8.3,0-9.4,3.6-9.4,11.7c0.2,18.9-0.9,46.1,0,63C41.9,132.5,56.5,127.1,75.6,128.5z"/>
	<path class="st0" d="M142.9,92.4c1.6-2.5,5.4-2.5,7,0c-0.9,1.3-0.9,1.4-3.2,1.6C144.1,94,143.8,93.6,142.9,92.4z M133.7,91.6
		c2-1.1,5.2-2.2,7,0.7c0,0-0.2,1.8-4,1.6C133.3,93.6,134.4,92.5,133.7,91.6z M124,92.4c1.6-2.9,4.9-2,7-0.7
		C129.7,95.1,126.1,94.3,124,92.4z M114.1,92.4c1.6-2.5,5.4-2.5,7,0c-0.9,1.1-0.9,1.4-3.2,1.6C115.5,94,115.2,93.6,114.1,92.4z
		 M104.2,92.4c1.6-2.5,5.4-2.5,7,0c-0.9,1.1-0.9,1.4-3.2,1.6C105.6,94,105.1,93.4,104.2,92.4z M94.3,92.4c1.6-2.5,5.4-2.5,7,0
		c-0.9,1.1-1.1,1.6-3.2,1.6C95.7,94,95.2,93.4,94.3,92.4z M84.2,92.4c1.6-2.5,5.4-2.5,7,0C90.3,93.4,90.1,94,88,94
		C85.6,94,85.1,93.4,84.2,92.4z M74.3,92.4c1.6-2.5,5.4-2.5,7,0c-0.9,1.1-0.9,1.6-3.2,1.6C75.7,94,75.2,93.4,74.3,92.4z M64.4,92.4
		c1.6-2.5,5.4-2.5,7,0c-0.9,1.3-0.9,1.6-3.2,1.6C65.8,94,65.3,93.4,64.4,92.4z M54.3,92.4c1.6-2.5,5.4-2.5,7,0
		c-0.9,1.3-0.9,1.6-3.2,1.6C55.9,94,55.4,93.4,54.3,92.4z M44.4,92.4c1.4-2.5,5.4-2.5,7,0c-0.9,1.3-0.9,1.6-3.2,1.6
		C45.9,94,45.3,93.4,44.4,92.4z M34.3,91.5c2.2-0.9,5.2-2,7,0.9c0,0-0.2,1.8-3.8,1.6C34,93.8,35.1,92.5,34.3,91.5z M138.2,86.8
		c1.6-2.5,5.2-2.3,7,0C142.9,89.1,140.2,89.1,138.2,86.8z M132.3,85c2.3,0.2,2.7,0.4,3.2,2.5c-2.7,0.9-5.4,1.6-7-0.9
		C129.4,85.2,129.7,84.8,132.3,85z M118.8,86.8c1.4-2.5,5.4-2.3,7,0C123.8,89.1,120.7,88.9,118.8,86.8z M108.9,86.8
		c1.4-2.5,5.4-2.3,7,0C113.7,89.1,110.8,89.1,108.9,86.8z M99,86.8c1.6-2.5,5.4-2.5,7,0C103.8,88.9,100.9,89.1,99,86.8z M88.9,86.8
		c1.6-2.5,5.4-2.5,7,0C93.7,89.3,91,88.9,88.9,86.8z M79,86.8c1.6-2.5,5.4-2.5,7,0C83.8,89.1,81.1,89.1,79,86.8z M69.1,86.8
		c1.6-2.3,5.4-2.5,7,0C73.9,89.1,71.1,88.9,69.1,86.8z M59,86.8c1.6-2.3,5.4-2.5,7,0C64,89.1,61.2,89.1,59,86.8z M49.1,86.8
		c1.6-2.3,5.6-2.5,7,0C54.1,89.1,51.3,89.1,49.1,86.8z M39.2,86.8c1.6-2.3,5.6-2.5,7,0C44.2,89.1,41.4,88.9,39.2,86.8z M23.4,102.6
		h137.3c1.1-4.3-0.4-5-2.3-7.2l-9.9-10.1c-2.5-2.9-2.2-4-7-4H42.6c-3.6,0-7.2,4.9-11.3,9C25.5,96.1,22.1,97.6,23.4,102.6z"/>
</g>
</svg>
