<?xml version="1.0" encoding="utf-8"?>
<!-- Generator: Adobe Illustrator 23.0.3, SVG Export Plug-In . SVG Version: 6.00 Build 0)  -->
<svg version="1.1" id="Livello_1" xmlns="http://www.w3.org/2000/svg" xmlns:xlink="http://www.w3.org/1999/xlink" x="0px" y="0px"
	 viewBox="0 0 184.3 184.3" style="enable-background:new 0 0 184.3 184.3;" xml:space="preserve">
<style type="text/css">
	.st0{fill-rule:evenodd;clip-rule:evenodd;fill:#FFFFFF;}
</style>
<g id="Layer_x0020_1">
	<path class="st0" d="M129.1,51.9c0-4-1.1-9.6,3.3-9.4c4.1,0.2,3.2,5.5,3.2,9.3L129.1,51.9z M148.7,37.2c0.7-2.4-1.6-3.4-3.5-4.8
		l-9.7-7.3c-1.9-1.5-3.2-2.4-5.7-0.6c-3.2,2.4-6.5,4.9-9.7,7.4c-2.8,2-4.4,2.5-4.4,4.3c-0.2,4,4.2,1.1,5.4,0.4L121,93.8l-14.2-6.9
		l0.1-15.1c2.1,0.9,4.2,2.5,6.7,2.7c3.3-4.1,0.7-4.6-0.2-5.1l-12.7-6.3c-2.4-1.2-13.1-7-14.7-6.9c-1.4,0.1-27.7,13.4-28.6,14.5
		c-0.3,1-0.3,0.8,0.2,1.8c1.5,3.8,3.6,0.9,8.1-0.8l0.1,14.6l-18.6,9.5c-3.1,1.5-5.9,3.1-9.2,4.6c-1.8,0.9-3.2,1.4-2.6,4.1
		c0.4,1.7,1.4,3.5,2.7,4.1c2.8,1.4,9.1-3.7,12.2-4.4l0.1,56.4l26-0.2c-0.1-6.7,0-13.5,0-20.2c-0.1-6.8,2.3-10.8,9.1-10.8
		c7.9,0,10.6,2.6,10.6,11.3l0.1,19.9h47.3l-0.1-124.1C145.4,37.3,146.6,39.7,148.7,37.2z"/>
</g>
</svg>
