<?xml version="1.0" encoding="utf-8"?>
<!-- Generator: Adobe Illustrator 23.0.3, SVG Export Plug-In . SVG Version: 6.00 Build 0)  -->
<svg version="1.1" id="Layer_1" xmlns="http://www.w3.org/2000/svg" xmlns:xlink="http://www.w3.org/1999/xlink" x="0px" y="0px"
	 viewBox="0 0 184.3 184.3" style="enable-background:new 0 0 184.3 184.3;" xml:space="preserve">
<style type="text/css">
	.st0{fill:#221E1F;}
</style>
<g id="Layer_x0020_1">
	<path class="st0" d="M169.6,68.5v-3.8c-12.6,5.8-11.3,0.5-23.4,2.3c-3.4,0.5-2.5-1.3-8.6-4.1c-10.3-5-16.2-2.7-24.3-4
		c-9-1.3-5.9-8.3-18-10.6c-5-1.1-8.5,0-13.1,0c-1.6-7.4-4.9-16-10.4-18.5c-4.9-2-7.2,0-12.2-0.9c-3.6-0.7-15.5-3.2-19.1-1.8
		c-2.2,0.9-2,2.3-2.7,4.5c-1.3,3.6-5,2.5-6.5,8.1C28.5,50.8,17,49.2,14.8,52.8c-1.3,4.7,3.8,11.2,6.7,12.8c8.3,4.3,0.2,4.7,16,4.3
		c7.9-0.2,9.4,3.2,12.4,8.3c5.4,8.6,6.7,15.1,9.9,20.7c2,3.1,3.6,4.3,6.3,8.6c1.3,1.8,1.1,1.3,2.5,2.9c3.8,4.7,5.8,19.4,5.2,25.7
		c-0.5,6.7-9.7,11.7-5.9,13.9l4.9,0.9c9-0.5,7.7-7.6,9.7-11.7c1.6-3.2,2.5-6.8,3.4-10.4c1.8-7.4,0.9-6.7,1.6-11.3l0.4-1.4
		c2.7,0.4,2.3,0.2,2.7,3.6c0.7,6.3,1.6,25-1.8,29.3c-0.2,0.2-8.3,5.9-3.4,7.7c13.5,4.9,15.8-10.6,17.5-13.7c2-3.8,4.1-6.8,5.9-10.8
		c1.6-3.6,3.2-10.6,4.5-12.8c2-1.3,6.3-1.3,8.8-2c2.9-0.9,5.4-2,8.3-2.9c0.9,1.1,2.3,2.7,3.8,3.8c1.3,1.1,3.6,1.8,4.9,2.9
		c0.2,5.8-5.6,4.7-4.3,9.9c2.3,0.4,5.8,0.7,7.7-0.7l4-5.2c0.5-1.8,0.2-6.7-0.2-8.6c-0.7-3.2-1.6-3.2-3.6-5c0.5-1.8-0.2-0.9,1.6-2.2
		c5.4,4.3,0.7,3.4,10.1,6.5c0.2,0,0.7,0.2,0.9,0.4c3.6,1.4,2,9.4,0.5,11.7l-4,5.2c-0.4,0.9-0.2,0.4-0.2,1.4c0.2,3.8,7.7,1.6,7.9,1.6
		c0.5-0.5,7-13,7.2-13.3c0.9-3.1,1.1-6.5,0.4-9.7c-1.1-4.7-2.2-3.2-4.7-5.6c-0.9-5.6,2-10.1,0.2-17.1c-1.3-5.2-4.7-7.9-6.3-11.9
		c9.4,0.7,5.9-0.2,9.4-2.5c1.6-1.1,1.4-0.9,2.5-2.3l-2.5-0.7C167.1,71.4,168,70.3,169.6,68.5z"/>
</g>
</svg>
