<?xml version="1.0" encoding="utf-8"?>
<!-- Generator: Adobe Illustrator 23.0.3, SVG Export Plug-In . SVG Version: 6.00 Build 0)  -->
<svg version="1.1" id="Livello_1" xmlns="http://www.w3.org/2000/svg" xmlns:xlink="http://www.w3.org/1999/xlink" x="0px" y="0px"
	 viewBox="0 0 184.3 184.3" style="enable-background:new 0 0 184.3 184.3;" xml:space="preserve">
<style type="text/css">
	.st0{fill-rule:evenodd;clip-rule:evenodd;fill:#FFFFFF;}
</style>
<g id="Layer_x0020_1">
	<g id="_1216678753664">
		<path class="st0" d="M46.2,36.1c0-4.8,2.3-7.2,7.1-7.2L87.8,29c26.8,0.1,27.3-3,27.3,13.1v91c0.1,22.1,1.9,22.4-12.8,22.3
			l-34.4-0.1c-10-0.1-21.8,2.3-21.7-6.6V36.1z M138.2,51.4c-1.6-0.7-2.9-2-3.8-3.6c-1.1-1.9-1-4.1-0.6-6.4
			C139.1,44.1,138,45.6,138.2,51.4z M49.6,161.1h62.1c4.2-2.4,5.5-1.3,7.9-6c2.6-5.1,1.4-32.5,1.4-39.1c7.4,0.8,5.4,11.5,5.7,18.8
			c0.3,7,7.5,11.9,13.5,7.5c5.5-4,3.7-12.9,3.8-20.5c0-8.1,0.1-16.1,0.1-24.2c-0.1-16.4,0.1-32.7-0.1-49c-0.1-8,1.6-5.6-9.6-14.6
			c-2.5-2-4.7-3.8-6.8-5.6c-2.6-2.2-4.5-3.6-6.6,0.3c0.4,2.4,1.9,3.5,3.7,4.8c1.8,1.4,3,2.4,4.5,4c-2.4,7-1.7,13.1,4.3,17.9
			c1.3,1,3.2,2.7,4.7,3.4c0.3,13.4,0.1,27,0.1,40.5c0,6.8,0.2,13.7-0.1,20.5c-0.2,8.3,1.3,13.9-1.5,18.3c-9.7,0.5,1.4-15.9-8.8-24.8
			c-2.6-2.2-4.2-2-6.7-3.7l-0.2-71.6c0.1-11.9-4-11.5-9.2-14.5H49.6c-2.7,1.5-3.9,1.5-6,3.6c-4.9,5-3,17.1-3.2,26
			c-0.2,13,0.1,26.3,0.1,39.3c0,11.5-0.7,48.3,0.1,58.2c0.2,2.7,1.2,5.3,2.8,6.9C45.4,159.5,46.8,159.5,49.6,161.1z"/>
		<path class="st0" d="M57.7,40.4l45.9,0.1v34.4l-45.9,0.1V40.4z M54.1,34.9c-2.2,1-2.1,1.7-2.2,4.4v32.3c-0.1,4.4-1,8.6,3.6,9
			c3.8,0.4,51,0.1,51.9-0.3c3.2-1.1,1.9-7.3,1.9-10.9l0.1-25.9c-0.1-4.6,1.2-8.8-3.8-9C101.2,34.4,55,34.6,54.1,34.9z"/>
		<path class="st0" d="M109.1,91.3c1.4-6.4-4.3-5.1-9.9-5c-7.8,0.1-44.9-1.1-46.6,1.2c-1.4,1.9,0,3.9,1.6,4.4
			c1.1,0.4,6.4,0.3,7.9,0.3C70.3,92.3,105.8,92.9,109.1,91.3z"/>
	</g>
</g>
</svg>
