<?xml version="1.0" encoding="utf-8"?>
<!-- Generator: Adobe Illustrator 23.0.3, SVG Export Plug-In . SVG Version: 6.00 Build 0)  -->
<svg version="1.1" id="Livello_1" xmlns="http://www.w3.org/2000/svg" xmlns:xlink="http://www.w3.org/1999/xlink" x="0px" y="0px"
	 viewBox="0 0 184.3 184.3" style="enable-background:new 0 0 184.3 184.3;" xml:space="preserve">
<style type="text/css">
	.st0{fill-rule:evenodd;clip-rule:evenodd;fill:#1D1D1B;}
	.st1{fill-rule:evenodd;clip-rule:evenodd;fill:#FEFEFE;}
	.st2{fill-rule:evenodd;clip-rule:evenodd;fill:#20201E;}
	.st3{fill-rule:evenodd;clip-rule:evenodd;fill:#1F1F1D;}
</style>
<g id="Layer_x0020_1">
	<g id="_2307217185008">
		<path class="st0" d="M76.9,142.6c3,0,5.9-0.7,7.9-2c2.4-1.6,2.9-3.9,3.9-6c0.9,1.8,0.6,7.7-2.1,10.1c-2.9,2.6-7.9,2.9-12.3,2.9
			c-2.8-0.1-12.9-1.1-15.5,0.3c-0.7,0.4-2.1,3-0.5,3c0.1-1.1-0.5-0.6,0.1-1.9c2,0.5,2.6,1.4,6.2,1.7c2.4,0.3,4.3,0.5,6.6,1.1
			c7.8,2,17.9,7.2,25.1,3.9c1.8-0.9,3.2-1.8,5.2-2.6c1.8-0.6,4.3-1.3,6.4-1.3c3.6,0,2.1,0.1,5,0.7c0.9,0.2,2.9,0.1,3.6,0.5l-1.3,0.5
			c3.2-0.1,3.8-1.8,1.9-4c-1.1-1.3-3.5-2.1-5.9-2.1c-2.1-0.2-9.3,0.7-12.1,0.8c-4.3,0.2-8.8-0.9-11.7-3.1c0.1-0.5,0.7-1.1,1.1-1.7
			c0.4-0.8,0.4-1.3,0.7-2c0.5,0.1,1.4,0.9,2,1.2c0.7,0.4,1.3,0.7,2.1,0.9c4.7,1.6,6.7,1,11.3,0.1c2.1-0.4,3.9-0.7,6.2-0.7
			c13.3,0,17.1,9.1,10.5,13.1s-13.9-3.3-24.3,4c-3.2,2.2-7.8,2.7-12.2,1.8c-3.8-0.8-7.1-3-10.1-4.7c-9.3-5.2-13.3-1.2-18.2-4.2
			c-1.4-0.8-2.7-2.2-2.7-4.6C53.9,140.1,70.9,142.6,76.9,142.6z M66.4,132.4c-0.5-0.6-0.8-1.8,0.1-2.4l5.7-4.2
			c2.9-2.2,2.3-1.1,5.5-4.4c0.8-0.8,1.1-1.2,2-1.3c0.7,2.1-1,3.1-2.2,4c-1.2,0.9-2.3,1.8-3.7,2.8L66.4,132.4z M59.2,118.7
			c0.6,0,7.4,3.1,12.5-1.8c1.2-1.2,1.2-1.6,2.1-3.2c1.6-0.1,4.5,3,3.1,6.6c-1.9,4.8-9.6,7.2-14.2,5.3
			C59.9,124.5,58.9,122.5,59.2,118.7z M125.5,118c-0.2,2.8-2.6,4.4-5.4,4.8c-3.7,0.6-5.8-0.6-7.8-2.2c-1.3-1.1-3.5-3.8-4.4-5.8
			c-2.1-4.4,1-6.4,2.3-6.2c0.7,2.2,0.6,2.8,1.9,4.7c0.9,1.3,2,2.4,3.3,3.3C120.6,120.4,122.8,118.6,125.5,118z M47.7,92.9
			c0-7.4,6-20.1,9.1-24.8c1.1-1.6,2.7-3.7,3.9-4.7c2.3-2,2.8-2.6,3.6-1.5c2.4,3,5.8,8.6,5.8,13.4c0,4.3-1,7.3-2.6,11.1
			c-0.8,1.7-2,4.9-3.1,6.2c-0.7,0.7-1.1,0.7-1.7,1.3c0.5,0.2,0.9-0.1,1.5-0.2l-0.6,2.1c0.3-0.2,0.3-0.1,0.5-0.4
			c0.1-0.2,0.1-0.2,0.3-0.4c0.3-0.3-0.2,0,0.3-0.2c0.8,1.8,3.6,6.1,4.8,8c1.3,1.9,4.2,5.6,4.2,8.6c0,5-5,7.7-9.7,7.7
			c-6.4,0-8.5-5.1-11.2-9.9C50.4,105.1,47.7,98.3,47.7,92.9z M116.6,89c-0.7-0.4-1.9-1.9-2.5-2.5c-2.8-2.8-4.2-5.7-4.9-10.1
			c-0.5-3.5,0.2-5.3,1.3-8.2c1-2.6,2.1-4.6,3.6-6.3c0.6-0.7,1.9-2.2,3-2c2.1,0.2,4.3,2.8,5.6,4.3c0.8,1,1.5,1.8,2.2,2.7
			c4.1,5,8.9,12.8,10.8,19.1c2.8,9.4-2.3,15-5,23.3c-0.9,2.7-1.6,5.3-3.2,6.8c-1.5,1.4-5.1,2.7-7.9,1.9c-4.7-1.3-8.9-5.1-8.9-11
			c0-3.1,2.2-5.9,3.5-8.5c1.1-2.4,2.8-5.6,2.8-8.8c0.1-1,0-0.9-0.2-1.9L116.6,89z M85.2,76.1c-2.3-0.5-0.3,2.1-4.3-2.1
			c-0.5-0.5-3-3.3-3.2-3.9c-0.2-0.5,0.7-1.9,0.9-2.4c1.3-2.5,2.1-5.2,2.4-8.1l3.8,5.4c1.8,2.8,4.3,9.6,4.7,13.1
			c0.2,1.6,0.1,6.9-0.2,8.5c-0.4-0.2-0.1,0.1-0.3-0.3l-0.5-1.1c-0.3-0.5-0.5-0.9-0.7-1.3c-1-2-2-3.2-3.1-4.9
			C84.1,77.7,85.6,77.2,85.2,76.1z M90.1,86.5c-0.4-4.3,0.6-11.9,1.5-15.9c0.6-2.3,1.2-4.6,2.1-6.6c0.9-1.7,2.2-4.2,3.8-4.8
			c-0.5,3.5,2.8,6.1,4.1,7.9c-0.4,0.9-2.3,3.4-3,4.3c-1.2,1.9-1.3,2.9-2.3,3.2c-0.6,0.2-0.9,0.2-1.2,0.5c0.3,1.5,1.9,1.5,0.6,3.1
			c-0.7,0.9-1.3,1.7-2,2.7L90.1,86.5z M79.3,65c-1.8,4.7-3.4,4.2-1,6.8c0.5,0.6,1.1,1.2,1.6,1.8c4.2,4.9,3.1,3.2,4.7,3
			c-0.6,2.1-1.5,1,1.1,4.4c1.9,2.6,3.8,6,3.7,9.4l-0.9,31.8c-0.1,4,0.6,8.8-0.6,12.4c-2.8,8.8-10.3,7.3-18.4,7
			c-2-0.1-4.4-0.1-6.4,0.1c-3,0.2-4.3,0.7-5.7,0.8c0.1-0.7,0.9-3.1,1.2-4c1.6-5.6,1.8-6.4,2.9-12.5c0.8,0.1,1.3,0.5,2.1,0.6
			c2.7,0.4,4.4-0.2,6.8-0.5c-0.3,0.6-4.4,3.4-4.9,3.7c-0.1,1.4-0.3,2.8,1,3.3c0.5-0.3,2.8-2.3,4-3.2c1.4-1,9.3-6.8,9.7-7.9
			c0.4-0.9-0.1-2.4-0.6-2.8c-0.9,0.1-1.1,0.9-2,1.2c0.5-3.3,0.1-4.1-1.7-6.3c-0.4-0.6-0.6-0.6-1.2-0.9c-1.4-0.8-0.4-1.4-1.5-4.7
			c-0.7-2.2-2-3.6-3.1-5.3c-1.1-1.7-2.1-3.3-3.2-5.1c-1.5-2.6-1.4-2.4-0.8-6.8c0.4-2.7,2.3-6.2,3.3-9.2c0.2-0.6,0.3-1.1,0.6-1.5
			c0.2-0.5,0.5-0.7,0.8-1.2c1-1.4,2.6-5.1,1.7-6.2c-0.2,0.5-0.7,4.1-1.9,5.5c-0.2,0.3,0,0.1-0.3,0.3c0.1-1.7,0.4-3.8,0-5.6
			c-0.3-1.5-0.8-3.1-1.3-4.4c-0.6-1.5-1.2-2.7-1.9-4l-2.3-3.5c3.6,0.3,4.6,0,7.8-1c2.4-0.8,4.8-1.6,7.7-1.2
			C80.8,61.2,79.9,63.6,79.3,65z M96.1,75.2c1.6,0,1.2-0.3,1.8-1.4c1.1-1.9,2.3-3.9,3.7-5.6c0.5-0.7,1.2-1.1,0.4-1.9
			c-1.3-1.3-3.4-3.6-3.7-5.5c-0.9-5.9,7.1-3.4,11-3.4c1.1,0,2-0.2,3-0.2c0.4-0.1,1.9,0.6,2.3,0.8c0.7,0.4,1.2,0.9,1.5,1.5
			c-0.7,0.9-1.1,1.1-1.7,1.9c-1.4,1.5-3.3,4.8-4.2,6.8c-1.4,3.4-1.9,5.6-1.3,9.1c0.2,1,0.6,2,0.8,3c-1.8-0.7-2.3-2.6-3.1-4.5
			c-0.1,2.7,1.6,4.2,3.3,5.5c0.9,0.7,1.3,3.1,3.5,5.1c1.4,1.3,1.2,1.7,1.6,4.2c0.2,1.4,0.8,3.8,0.2,5c-1.1,2.6-2.8,4.9-3.9,7.7
			c-0.8,1.9-0.9,2.4-0.9,4.7c-1.1,0.7-1.6,0.4-2.5,1.6c-1.9,2.7,0,6.3,1.7,8.5c1.9,2.2,3.9,4.3,6.8,5.4c1.6,0.6,2,0.3,3.5,0.4
			c0.6,3.9,1,7.7,1.7,11.5l2,11.1c-1.2-0.5-3.3-3.3-10.3-4c-7-0.8-8.9,1.1-12.8,1.2c-2.3,0.1-4.5-0.1-6.5-0.7
			c-1.1-0.4-4.2-1.6-4.3-2.7c-0.2-2-0.2-4.8-0.3-6.9c-0.5-14.2,0.2-27.6,0.7-41.7c0.1-2.8,0-3.5,1.2-5.8c0.8-1.5,1.8-3.1,2.8-4.3
			c0.8-1.1,2.5-2.7,3.1-3.9C96.7,76.6,96.1,76.2,96.1,75.2z M85.8,54.9c0.2,1.8,0.5,3.5,2.5,3.2c1.9-0.2,1.8-1.9,2.1-3.7
			c1.3-0.2,4.1,0.4,5.4,0.6c1.8,0.3,3.5,0.5,5.4,0.7c-0.8,1.3-7.3,1.8-10,14.5c-0.2,0.7-1.2,6.9-1.2,6.9c-0.2-0.4-0.6-2.4-0.8-3.1
			c-0.3-1-0.6-1.9-1-3c-0.7-1.9-1.5-3.8-2.4-5.5c-0.9-1.7-3.4-5.6-4.6-7.2c-1.5-1.9-1.2-1.3-1.8-2c0.3-0.2,2.7-0.6,3.3-0.7
			C83.5,55.5,85.1,54.9,85.8,54.9z M89.8,54.5c0.6,2.6-2,3.6-3.1,2.3c-0.1-0.2-0.9-2,0.3-2.4C87.8,54.1,89.1,54.3,89.8,54.5z
			 M80.4,58.4c-0.6,0.3-1.2,0.2-1.9,0.3c-1.5,0.1-3.8,0.7-5.3,1.1c-2.3,0.7-4.3,1.7-7,1.2c-4.9-0.9-7.2-6.8-5.4-10.3
			c3.9-7.4,13.7-10.9,22-11.8c10.3-1.1,20.6,0.9,27.9,5.4c2.3,1.4,8.5,5.9,5.3,10c-2.7,3.6-9.3,2.3-14,1.7c0.3-0.3,4.4-2.1,5.1-2.3
			c-0.2,0.6-0.6,0.5-0.9,1c2.6-0.4,3-3.4,1.8-5.5c-1-1.8-2.7-3-4.9-3.8c-7.7-2.7-21.8,0.7-29.2,3.8c-2.2,1-3.9,2-5.1,3.7
			c-0.6,0.9-1.1,2.2-0.5,3.4c0.3,0.6,1.6,2.1,2.5,1.5c-0.7-0.8-2-0.5-2.1-2.4l0.2,0.2c0.5,0.4,0.4,0.4,1.1,0.6
			c0.5,0.1,1.1,0.2,1.6,0.2C74.2,56.4,79.5,55.7,80.4,58.4z M63.6,46.3c0.2-1.1,1.1-3.7,1.4-4.8c1.8-5.8,4.2-12.4,9.5-15.5
			c7.7-4.4,16.8-4.7,24.4,0.1c3.4,2.1,7.4,5.9,9.6,9.2c2,3.1,5.4,8.7,6.5,12c-0.5-0.2-1.4-1.1-1.8-1.4c-0.7-0.5-1.2-0.9-1.9-1.5
			c-8.5-5.9-7.8-1.4-9.7-7.1c-0.4-0.9-0.7-1.3-1.2-2c0,0.5,0.6,1.8,0.8,2.4c0.3,0.8,0.8,1.8,0.9,2.4c-2.1-0.4-4-0.9-6.2-1.2
			s-4.5-0.5-6.8-0.5c-2.4,0-4.6,0.1-7,0.4c-3.1,0.4-4.6,1-6,1.2c-0.1-1.6,0.9-4.9,0-6.2c-0.4,5.1,0.1,6.3-2.6,7
			c-3,0.8-5.8,2.5-8.3,4.3C64.8,45.3,64.2,46,63.6,46.3z M62.5,60.5c-0.3,0.6-0.7,0.8-1.3,1.3c-0.5,0.4-0.9,0.9-1.3,1.3
			c-6,5.9-10.4,16.7-12.2,24.8c-1.8,7.6-0.2,11.4,2.4,17.4c1.9,4.3,4.3,10.4,8.2,13.1c0,2-0.2,2.9,0.6,4.8c1.4,3.8,3.4,0.2-0.1,12.3
			c-0.6,2.2-1.6,6.4-3.1,7.7c-0.9,0.8-1.5,1.8-2.2,3.1c-1.8,3.7,1.5,7.7,7.1,8.2c3.6,0.4,6.3-0.2,9.7,1c5.6,1.8,8.6,5.7,14.6,6.9
			c3,0.6,7,0.4,9.7-0.5c5.3-1.7,7.1-5.8,16.3-4.6c5.6,0.8,13.2,1.5,14.7-5.9c0.3-1.4-1.5-7.2-1.8-9c-0.6-3-1.2-5.9-1.7-9
			c-0.5-2.7-1.4-7.1-1.3-9.7c2.8-0.3,4.9-2.2,5.5-4.4c0.5-1.9-0.1-1,1.3-2c1.7-1.4,3.4-6.3,4.4-8.9c2.2-5.9,6.7-13.3,5.1-20.9
			c-1.4-6.3-5.3-12.6-8.7-17.8c-1.8-2.7-6.8-9-9.5-10.4c-1-0.5-1.3-0.3-2.3-1.1c-0.6-0.5-1.4-0.9-2-1.4c0.3-0.4,0.8-0.7,1.2-0.9
			c1.3-0.9,2.2-2.7,2.1-4.4c-0.1-1.3-2-4.9-2.6-6.2c-1.3-3-4.4-8.7-6.3-11.2c-8.6-11.5-22.7-17-35.5-8.5c-8.9,5.9-9,18.6-12.2,22.7
			c-1.2,1.6-2.2,4-2.1,6.7C59.2,56.3,60.9,59.7,62.5,60.5z"/>
		<path class="st1" d="M103.4,120.4c0.5,0.3,1.1,0.7,1.6,1.1c2.1,1.5,10.8,8,11.8,8c0.3-1.2-0.1-1.3-0.8-1.9l-5.1-4.1
			c-1.2-1-6-5.2-6.9-5.3C103.5,118.8,103.3,119.5,103.4,120.4z"/>
		<path class="st2" d="M103.4,120.4c-0.1-1,0.1-1.6,0.6-2.3c1,0.1,5.7,4.3,6.9,5.3l5.1,4.1c0.7,0.6,1.1,0.7,0.8,1.9
			c-1,0-9.7-6.5-11.8-8C104.5,121.2,103.9,120.7,103.4,120.4z M117.2,130.4c0.8-2.5-0.2-2.7-2-4.2l-7.4-6c-0.9-0.7-2.4-2.6-3.9-2.8
			c-0.5,0.4-1.1,1.5-1.2,2.3c-0.1,1.3,0.9,1.5,1.7,2c1.5,1,2.7,2,4.2,3C109.9,125.7,116.3,130.3,117.2,130.4z"/>
		<path class="st2" d="M95,129.6c2-1,2.7,1.8,1.1,2.4c-0.6,0.3-1.7-0.3-1.9-0.7C93.9,130.6,94.4,129.9,95,129.6z M99.3,132
			c-0.6-1.1-1.3-0.8-1.6-1.2c0.7-0.5,0.8,0.1,1.5-0.3c-0.4-0.8-1-0.3-1.6-0.7c-0.4-0.2-0.6-0.7-1.4-0.8c-1.4-0.3-2.6,0.7-2.7,1.9
			c-0.1,1.2,1.4,2.2,2.5,1.9c0.8-0.2,0.8-0.7,1.3-1C98,131.4,98.6,131.9,99.3,132z"/>
		<path class="st3" d="M95.4,108.2c1.5-0.9,2.6,1.3,1.5,1.9c-0.7,0.4-1.3,0-1.7-0.4C94.7,109.2,94.7,108.6,95.4,108.2z M99.5,110.4
			c-0.4-0.6-0.9-0.3-1.5-0.7c0.3-1.3,0.7-0.5,1.6-1c-0.1-0.3-0.1-0.3-0.7-0.4c-0.4-0.1-0.8,0.1-1.2,0.1c-1.1-2-4.3-0.7-3.4,1.3
			c1,2.1,3,0.8,3.4,0.8C98.3,110.4,99,110.6,99.5,110.4z"/>
		<path class="st3" d="M95.3,86.5c1.5-0.6,2.7,1.2,1.1,2.1c-0.5,0.4-1.5,0.1-1.7-0.4C94.4,87.5,94.8,86.8,95.3,86.5z M98.8,89.2
			c-0.5-0.9-0.9-0.5-1.1-1.2c0.4-0.9,1.2-0.2,1.5-0.8c-0.7-0.2-1-0.1-1.5-0.5c-0.4-0.3-0.5-0.6-1.2-0.8c-2.3-0.7-4,2.8-1,3.6
			C97.2,89.9,96,88.7,98.8,89.2z"/>
		<path class="st1" d="M124.8,114.1c0.4-0.7,0.2-1.8-0.7-2c-1-0.3-1.9,0-2.1,0.9C121.6,115.4,124.1,115.7,124.8,114.1z"/>
		<path class="st3" d="M94.7,98.1c-0.5-1.6,2.7-1.4,2.6,0c-0.1,0.6-0.6,1.1-1.2,1C95.6,99.2,94.8,98.5,94.7,98.1z M99.2,99.3
			c-0.2-0.4-0.1-0.3-0.6-0.6c-0.5-0.3-0.6-0.2-0.7-0.6c0.3-0.6,0.2-0.3,0.9-0.5c0.1,0,0.1,0,0.1-0.1c0.1,0,0.1,0,0.2,0
			c0-0.1,0.1-0.1,0.1-0.1c0-0.1,0.1-0.1,0.1-0.1c-0.6-0.5-0.8-0.2-1.4-0.4c-0.1-0.1-3.7-1.8-3.7,1c-0.1,0.9,1,1.8,1.9,1.7
			c0.9-0.1,0.9-0.4,1.4-0.6C98,99,98.7,99.3,99.2,99.3z"/>
		<path class="st3" d="M95.7,118.7c1.6-0.8,2.9,1.4,1.4,2.1c-0.7,0.3-1.6-0.1-1.9-0.6c-0.2-0.2-0.2-0.6-0.1-0.9
			C95.2,118.7,95.4,118.8,95.7,118.7z M99.3,121.3c-0.5-0.4-0.8-0.4-1-1c0.5-0.5,0.3-0.2,1.2-0.4c0.1,0,0.1,0,0.1,0
			c-0.4-0.7-0.8-0.3-1.3-0.7c-0.4-0.4-0.3-0.8-1-1.1c-2.6-1.3-4.2,2.7-1.4,3.4c0.8,0.2,1.1-0.1,1.7-0.3c1-0.3,0.6,0.3,1.5,0.1
			C99.2,121.3,99.2,121.3,99.3,121.3z"/>
		<path class="st1" d="M60.1,112.8c-2,0.9-0.8,3.3,1.2,2.6c0.5-0.2,1.1-1,0.8-1.9C61.9,112.6,61.1,112.4,60.1,112.8z"/>
		<path class="st3" d="M60.1,112.8c0.9-0.4,1.8-0.2,2,0.7c0.3,0.9-0.3,1.7-0.8,1.9C59.4,116.1,58.1,113.7,60.1,112.8z M59.9,112.2
			c-2.7,0.9-1,4.8,1.6,3.8C64,115,62.9,111.2,59.9,112.2z"/>
		<path class="st2" d="M124.8,114.1c-0.7,1.6-3.2,1.4-2.8-1.1c0.2-0.9,1.1-1.2,2.1-0.9C125,112.3,125.2,113.4,124.8,114.1z
			 M121.5,113.8c0.2,3.2,4.2,2.1,4.1-0.4C125.3,110.1,121.4,111.5,121.5,113.8z"/>
		<path class="st1" d="M95,129.6c-0.6,0.3-1.2,1-0.8,1.8c0.2,0.4,1.3,0.9,1.9,0.7C97.7,131.4,97.1,128.6,95,129.6z"/>
		<path class="st1" d="M95.7,118.7c-0.4,0.2-0.5,0.1-0.7,0.6c-0.1,0.3-0.1,0.7,0.1,0.9c0.3,0.5,1.3,0.9,1.9,0.6
			C98.6,120.1,97.4,117.9,95.7,118.7z"/>
		<path class="st1" d="M95.3,86.5c-0.6,0.3-1,1-0.6,1.7c0.2,0.5,1.2,0.8,1.7,0.4C98,87.7,96.9,86,95.3,86.5z"/>
		<path class="st1" d="M95.4,108.2c-0.7,0.4-0.7,1-0.2,1.5c0.4,0.4,1,0.8,1.7,0.4C98,109.5,97,107.3,95.4,108.2z"/>
		<path class="st1" d="M94.7,98.1c0.1,0.3,0.9,1,1.4,1c0.6,0.1,1.1-0.5,1.2-1C97.4,96.8,94.3,96.6,94.7,98.1z"/>
	</g>
</g>
</svg>
