<?xml version="1.0" encoding="utf-8"?>
<!-- Generator: Adobe Illustrator 23.0.3, SVG Export Plug-In . SVG Version: 6.00 Build 0)  -->
<svg version="1.1" id="Layer_1" xmlns="http://www.w3.org/2000/svg" xmlns:xlink="http://www.w3.org/1999/xlink" x="0px" y="0px"
	 viewBox="0 0 184.3 184.3" style="enable-background:new 0 0 184.3 184.3;" xml:space="preserve">
<g id="Layer_x0020_1">
	<g id="_2429759044288">
		<path d="M63.9,44c-0.4-0.4-1.3-1.8-1.6-2.2c-1.6-2.2-1.8-2.5-3.4-4.1c-0.5-0.7-1.3-1.3-1.8-1.8l-2-1.8c-1.8-1.6-4.7-3.2-6.8-4.3
			c-4-1.6-7.6-2.7-12.4-2.7c-4.3,0-8.8,0.9-12.4,2.5c-1.8,0.7-3.4,1.6-4.9,2.7C10.5,37.7,5.8,46.7,5.6,57c0,4.7,0.4,9.4,1.3,13.7
			c1.6,7.4,4.3,12.2,8.5,17.8c1.1,1.4,2.3,2.9,3.4,4.1c0.9,1.1,7.7,7.9,9.4,9.2l3.4,3.1c0.2,0.2,0.2,0.4,0.4,0.5
			c0.7,0.5,1.4,1.1,2,1.8l8.1,7c0.4,0.2,0.7,0.5,1.1,0.9l4.9,4.3c1.6,1.3,3.6,3.2,5,4.5l10.6,9.7l4.9-4.5c0.4-0.4,0.7-0.5,0.9-0.9
			c0.4-0.4,0.5-0.5,0.9-0.9l4.9-4.3c-0.4-0.5-0.9-0.9-1.3-1.3c-0.7-0.7-1.4-1.4-2-2.2c-1.3-1.4-2.5-2.7-3.6-4.3
			c-4.1-6.7-6.8-12.2-8.6-19.8c-1.1-4.7-1.4-9.7-1.3-14.6c0.2-11.3,5.2-21.6,14.6-27.9c1.8-1.3,3.6-2.2,5.6-3.1
			c4.3-2,9.4-2.9,14-2.9c5,0,9.4,1.1,13.9,2.9c2.7,1.3,5.6,3.1,7.9,4.9l0,0l2.2,1.8c0.9,0.7,1.6,1.4,2.2,2.3c0.5,0.7,1.3,1.3,1.8,2
			c0.5-0.5,1.1-1.3,1.6-1.8c0-0.9,0-1.6,0-2.5c-0.2-11.9-6.8-22.5-17.6-27.2c-8.3-3.6-16.7-3.2-24.8,0.2c-3.6,1.4-6.1,3.6-9,5.9
			c-1.8,1.6-3.8,4-5.2,5.9C65.2,42.2,64.3,43.7,63.9,44z"/>
		<path d="M120.4,68.2c-0.2-0.4-1.3-1.8-1.4-2.3c-1.6-2.2-1.8-2.3-3.4-4.1c-0.5-0.7-1.3-1.3-1.8-1.8l-2-1.8
			c-1.8-1.4-4.7-3.2-6.8-4.3c-4-1.6-7.6-2.7-12.4-2.7c-4.5,0-8.8,0.9-12.4,2.5c-1.8,0.7-3.4,1.6-4.9,2.5
			c-8.1,5.6-12.8,14.4-12.8,24.7c0,4.7,0.4,9.4,1.3,13.7c1.6,7.4,4.3,12.2,8.5,17.8c1.1,1.4,2.5,2.9,3.4,4.1
			c0.9,1.1,7.7,7.9,9.4,9.2l3.4,3.1c0.2,0.2,0.2,0.2,0.5,0.4c0.7,0.5,1.4,1.3,2,1.8l8.1,7c0.4,0.2,0.7,0.5,1.1,0.9l4.9,4.3
			c1.4,1.3,3.6,3.4,4.9,4.5l10.6,9.7l4.9-4.5c0.4-0.4,0.7-0.5,0.9-0.9c0.4-0.4,0.5-0.5,0.9-0.9l5.4-4.9c0.2-0.2,0.4-0.2,0.5-0.4
			c0.2-0.2,0.4-0.4,0.5-0.5c0.2-0.2,0.2-0.2,0.5-0.4l2.5-2.2c0.2-0.2,0.4-0.2,0.5-0.5c2.7-2.7,7-5.9,9.9-8.6
			c0.4-0.4,0.7-0.5,0.9-0.9c1.4-1.3,4.7-3.8,5.9-5.2l5.8-5.4c2.7-2.3,4.9-4.9,7.4-7.6c8.3-9.5,11.5-20.2,11.3-33.7
			c-0.2-11.9-6.8-22.3-17.6-27.2c-8.3-3.6-16.7-3.2-24.8,0.2c-3.6,1.6-6.1,3.6-9,6.1c-1.8,1.4-3.8,4-5.2,5.9
			C121.7,66.4,120.8,67.8,120.4,68.2z"/>
	</g>
</g>
</svg>
