<?xml version="1.0" encoding="utf-8"?>
<!-- Generator: Adobe Illustrator 23.0.3, SVG Export Plug-In . SVG Version: 6.00 Build 0)  -->
<svg version="1.1" id="Layer_1" xmlns="http://www.w3.org/2000/svg" xmlns:xlink="http://www.w3.org/1999/xlink" x="0px" y="0px"
	 viewBox="0 0 184.3 184.3" style="enable-background:new 0 0 184.3 184.3;" xml:space="preserve">
<style type="text/css">
	.st0{fill:#FFFFFF;}
</style>
<g id="Layer_x0020_1">
	<g id="_2429762209376">
		<path class="st0" d="M72.3,130.9l-0.4-3.6l3.4,1.6l3.2-2.2c0.9-0.5,2.7-1.8,3.4-2c-0.2-1.3-0.4-1.6-0.4-3.2l3.1,1.6
			c2.2-1.4,4.5-2.9,6.7-4.3l-0.2-3.2c3.6,0.9,0.4,3.6,9.9-2.7c0-1.6-0.4-1.8-0.4-3.2c0.4,0.2,2.3,1.3,2.7,1.3
			c0.9,0.2,0.2,0.4,2.5-1.1l4.9-3.1c-0.2-1.3-0.4-1.4-0.4-3.1c3.2,0.7,1.6,2.2,4.9,0l4.9-2.9c0-1.8-0.2-2.3-0.4-3.6
			c1.3,0.7,2.7,1.8,4.1,1.1l7.6-4.7c0.7-0.4,1.1-0.7,1.8-1.3c0.9-0.5,1.3-0.5,1.8-1.3h-27.7c-2,0-1.8-0.4-2.9-1.4
			c-1.8-2.2-14.4-14.9-15.7-15.8l-64.4,64.3l14,14.2l5.2-3.1c0-1.8-0.2-2.3-0.4-3.6c0.5,0.4,1.6,1.1,2.3,1.4
			c0.9,0.4,0.9,0.2,2.7-0.9c1.1-0.7,4-2.7,5-2.9c0-1.6-0.4-1.6-0.4-3.4c3.1,0.7,1.8,2.3,5.2,0c1.6-1.1,3.2-2,4.9-3.1
			c-0.5-1.3,0-1.8-0.5-3.1l2.3,1.1c0.5,0.4,0.4,0.2,0.7,0.5L72.3,130.9z"/>
		<path class="st0" d="M115.1,57.5c13.9,0,24.5,7.4,30.1,15.8l-7.7,7.6c-1.3-0.5-2.3-1.3-3.8-1.8c-7.2-3.6-15.5-8.3-22.7-11.9
			c-1.4-0.7-2.5-1.3-4-2c0.4-1.6,4.7-4.7,5.8-5.8C113.5,58.6,114.4,57.5,115.1,57.5z M108.4,86.7h33.8c1.1,0,12.1-11.5,13.7-13.1
			c4.5-4.7,6.8-4.3,0.2-11.9c-0.7-0.9-1.3-1.1-2.2-1.8c-1.4-1.4-2.7-2.2-4.3-3.2c-5-3.4-10.4-5-16.6-6.5c-12.1-3.1-7.4-2.3-7.4-7.2
			c0-1.8-1.6-3.4-4.3-3.4c-1.6,0-4.7,3.6-6.3,5.2c-3.2,3.2-22.3,22.1-22.9,23.6c-0.5,1.6,0.4,2.9,1.3,4c1.6,1.8,2.5,2.2,3.2,2.9
			l8.6,8.6C105.9,84.5,107.5,86.7,108.4,86.7z"/>
		<path class="st0" d="M35.5,62c-0.7-1.1-1.6-2.3-2.7-3.1l-4.5,5.6c-0.9,1.1-1.3,1.8-2.2,2.7c-0.7,0.9-1.6,2-2.2,2.9l10.3,10.4
			l11.3-9l-3.1-3.1c3.2-2.2,5-6.5,13.1-6.5c3.1,0,5.2,0.9,7.4,2.2c3.1,1.6,12.1,12.2,14.6,13.9l7.9-7.7
			c-3.2-4.7-17.5-14.8-17.5-20.3c0-9.9,18.2-12.6,24.3-11.3l2.7-2.9c-6.7-1.8-11.3-3.8-19.4-3.8c-15.3,0-15.1,1.6-25.7,12.2
			c-1.4,1.4-7.4,6.8-7.7,8.3c-1.1,3.6,0.7,2.3-2.3,5.6C38.6,59.1,37,61.1,35.5,62z"/>
		<path class="st0" d="M107.9,114c0.7,1.3,1.1,1.4,2,2.5l5.6,6.1c3.6,4.1,8.8,9.4,12.2,13.5l4.3,4.7c1.1,0.9,1.3,1.6,2.3,2.5
			c0.9,0.9,1.3,1.3,2.2,2.3c0.9,1.1,1.6,1.6,2.3,2.5c2.5,2.9,2.7,3.8,7,3.8c2.5,0,5.2-3.6,6.7-5c1.4-1.4,5-4.9,5.9-6.3
			c2.2-3.8,0-6.1-2-8.3l-28.4-26.3c-0.7-0.5-0.9-0.7-1.6-1.4c-0.7-0.5-0.9-0.9-1.6-1.4L107.9,114z"/>
		<path class="st0" d="M72.3,130.9c1.3-0.5,2.2-1.1,3.1-2l-3.4-1.6L72.3,130.9z"/>
	</g>
</g>
</svg>
