<?xml version="1.0" encoding="utf-8"?>
<!-- Generator: Adobe Illustrator 23.0.3, SVG Export Plug-In . SVG Version: 6.00 Build 0)  -->
<svg version="1.1" id="Layer_1" xmlns="http://www.w3.org/2000/svg" xmlns:xlink="http://www.w3.org/1999/xlink" x="0px" y="0px"
	 viewBox="0 0 184.3 184.3" style="enable-background:new 0 0 184.3 184.3;" xml:space="preserve">
<style type="text/css">
	.st0{fill:#FFFFFF;}
</style>
<g id="Layer_x0020_1">
	<g id="_2429220704720">
		<path class="st0" d="M79.2,110.3c-1.1,14.4-4.3,21.1-20.7,22.5c-5.6,0.5-14.6,0.4-19.6-1.4c-5.8-2.2-7.7-5.6-9.4-12.4
			c-1.3-5.2-2.7-14,2-17.1c8.1-5.2,27.5-4.9,37.1-2.5C76.3,101.1,79.7,101.6,79.2,110.3z M105.1,109.4c-0.4-4,0.4-6.3,3.1-7.7
			c2-1.1,5.8-2,8.1-2.5c9.7-2.2,29.2-2.5,36.9,3.1c4.1,2.9,2.5,12.4,1.3,17.6c-1.6,6.3-4,9.7-9.7,11.7c-5.6,1.8-13.9,1.6-19.8,1.1
			C108.1,131.1,106,123,105.1,109.4z M169.3,99.8c1.6-6.3-1.3-7.7-6.7-8.5c-13.9-1.8-30.4-2.5-44.1-1.6c-9.4,0.5-19.4,2.7-28.8,2.2
			c-9.7-0.5-18.7-2-28.4-2.3c-9.7-0.4-20.3,0-29.9,0.7C27.9,90.5,21,91,18,92.1c-2.2,0.7-3.4,1.6-3.6,4.1s0.2,4.7,1.3,6.3
			c3.6,4.7,2.5,5.8,3.6,12.1c1.6,11.5,7.2,23.6,20.3,25.6c8.1,1.3,20.5,1.4,28.3-0.5c8.3-2.2,13.5-7.4,16-14.9
			c1.4-4.1,2.2-8.1,3.2-12.4c0.4-2,0.7-4.3,1.4-6.3c0.4-1.3,0.7-1.6,1.8-2c5.6-1.4,5.2,5.2,6.8,11.7c2.9,11.9,5.9,22,21.8,24.5
			c7.7,1.3,20.7,1.3,28.1-0.7c11.9-3.4,16.9-17.1,17.6-28.6C165.6,103.8,168.6,103.4,169.3,99.8z"/>
		<path class="st0" d="M112.8,43.3c-2.9,0.4-8.8,0.9-10.1,2.9c-0.9,1.8,0,3.8,1.6,4.1c1.3,0.4,4-0.5,5.6-0.7
			c8.5-1.1,15.5,2,19.3,6.3c3.4,3.8,7.6,11,10.1,15.7l6.7,12.6c1.1,1.4,3.2,1.1,5.4,1.3c5,0.4,11.2,2,10.1-0.9
			c-0.4-0.9-4.3-6.7-5.2-7.7c-3.8-5.2-7-10.3-11-15.1C138.7,53.2,130.6,41.7,112.8,43.3z"/>
		<path class="st0" d="M67.1,57c-7.4,1.1-12.8,4.7-17.6,7.9c-10.8,7.4-16,12.2-25.2,19.3c-2.5,1.8-0.9,2.3,1.8,2.2
			c4-0.5,7.7-0.9,11.7-1.1c6.1-0.4,4.1,0.5,8.8-4.1l9.7-9.2c16.6-15.8,29-3.4,32.4-3.4c1.8,0,3.2-1.6,2.7-3.6
			C90.7,61.7,77.4,55.5,67.1,57z"/>
		<path class="st0" d="M57,126.6c0.5-1.4,0.5-1.3-0.2-2.5c-2.7-0.7-16.6,3.1-18.9-9c-0.2-1.1,0-3.1-0.7-4c-0.9-1.3-2.5-0.4-2.7,1.1
			c-0.4,2.3,0.9,5.8,1.8,7.6C40.3,127.2,49.8,128.4,57,126.6z"/>
		<path class="st0" d="M148.5,110.8c-2,0.7,0.4,8.8-7.4,12.2c-2.5,1.3-5.6,1.4-8.6,1.3c-1.3-0.2-3.2-0.7-4.1,0.2
			c-1.3,1.3-0.2,2.5,1.6,2.7c8.5,1.4,17.1-1.1,20-9.2C150.1,116.2,151.7,109.4,148.5,110.8z"/>
	</g>
</g>
</svg>
