<?xml version="1.0" encoding="utf-8"?>
<!-- Generator: Adobe Illustrator 23.0.3, SVG Export Plug-In . SVG Version: 6.00 Build 0)  -->
<svg version="1.1" id="Layer_1" xmlns="http://www.w3.org/2000/svg" xmlns:xlink="http://www.w3.org/1999/xlink" x="0px" y="0px"
	 viewBox="0 0 184.3 184.3" style="enable-background:new 0 0 184.3 184.3;" xml:space="preserve">
<style type="text/css">
	.st0{fill:#FFFFFF;}
</style>
<g id="Layer_x0020_1">
	<g id="_2429230752192">
		<path class="st0" d="M58.6,55.5c18.4-6.3,27.7,21.8,9.5,27.7C48.7,89.7,40.9,61.4,58.6,55.5z M19,62.3c-0.2,15.5,0,14.6-9.5,22
			l5.4,11.9L28,96.3c2.7,3.4,4.3,5.8,8.3,7.9v14.2l11.5,4c5.9-4.9,5.2-8.8,15.3-8.8s9,4.1,15.5,9.4l11.2-4.7v-14.2
			c12.2-6.3-0.5-7.4,22.3-7.7l4.3-12.1c-2.5-1.8-4.7-3.8-6.7-6.1c-9.7-10.8,6.7-24.5,6.7-24.5c-5.9-22-8.6-2.3-22-15.7
			c-5.4-5.4-4.3-2.3-4.3-17.1c-3.2-1.8-7-3.6-11.3-4.3c-7.4,5-5,9.2-16.6,8.8c-8.3-0.2-9.2-4.7-14.4-9.4l-11.3,4.7
			c0,2.7,0.2,9.4-0.2,11.7c-0.9,3.8-1.8,3.1-4.9,5.9c-6.7,6.7-4.7,3.8-16.6,4.5c-2.5,2.9-4,6.7-5,11.2L19,62.3z"/>
		<path class="st0" d="M120.9,117.9c12.1-3.6,16.4,15.1,4.5,17.8C113.1,138.5,110.4,121,120.9,117.9z M100,99.9
			c-2.7,3.8-5.2,3.4-4.1,8.6c0.5,2.7,3.1,6.5,3.6,9.4c1.1,7.4-7.2,11.3-10.4,14.8c1.6,15.8,10.1,4.7,17.6,12.4
			c7.6,7.7-3.1,15.8,13.9,16.4c11.2-19.6,14.6-7.9,27.2-8.5c2.2-3.6,4.3-3.4,3.4-7.6c-0.5-2.9-3.1-6.7-3.6-9.5
			c-1.1-7.4,6.5-11.9,10.8-14.8l-2.3-8.8c-22.3-3.2-13.7-2.2-21.1-19.3l-7.6-1.1c-3.4,3.4-7,9.9-11,10.8
			C111,104.3,105.2,100.8,100,99.9z"/>
		<path class="st0" d="M58.6,146.6c6.1-1.8,8.3,7.6,2.3,8.8C54.8,156.8,53.4,148,58.6,146.6z M48.1,137.6c-1.3,1.8-2.5,1.6-2.2,4.3
			c0.4,1.4,1.6,3.2,1.8,4.7c0.5,3.6-3.6,5.6-5.2,7.4c0.9,7.9,5,2.3,8.8,6.1c3.8,4-1.6,8.1,7,8.3c5.6-9.7,7.4-4,13.5-4.1
			c1.1-1.8,2.2-1.8,1.6-3.8c-0.4-1.4-1.6-3.2-1.8-4.9c-0.5-3.8,3.2-5.9,5.4-7.4l-1.3-4.3c-11.2-1.6-6.8-1.1-10.6-9.7l-3.8-0.5
			c-1.8,1.8-3.6,4.9-5.4,5.4C53.7,139.7,50.8,137.9,48.1,137.6z"/>
		<path class="st0" d="M148.2,54c9.7-1.8,17.3,4.9,18.7,12.4c4.1,20.9-27,27-31.3,6.3C133.6,63.2,140.5,55.5,148.2,54z M154.5,90
			l0.7-0.9c3.2-0.4,2-0.9,5,0.9c1.8,0.9,2.2,0.5,4-0.5c0.5-6.8-0.2-6.3,6.7-6.8c3.2-4.5-1.4-3.6-0.4-7.9c0.9-3.6,4.7-1.3,4.3-6.5
			c-1.8-1.4-4.9-2.2-4.3-5.4c0.4-2.5,3.1-3.2,0.9-5.6c-1.6-1.8-4,0.4-6.1-1.8c-1.4-1.4-0.9-3.1-1.1-5.6c-3.1-3.1-3.6,0-6.3,0.4
			c-3.2,0.5-4-2.5-5.2-4.3h-2.5c-1.8,1.8-1.8,4.7-5.2,4.3c-1.3-0.2-2.3-1.1-3.4-1.6c-1.4-0.5-1.6,0.2-3.1,0.7c-0.4,3.2,0.2,5-2,6.3
			c-2.2,1.4-5.4-0.7-5.9,2.3c-0.7,3.1,5.8,6.1-2.9,9.7c0,3.2-0.4,2.9,2,4.1c6.5,3.6-1.8,5.9,1.8,10.4c2.9,0.2,4.1-0.4,5.8,1.4
			c1.4,1.6,0.7,2.9,1.1,5.2c2,4,6.7-3.4,9.7,1.3c2.2,3.1,0.9,2.9,4.7,2.7L154.5,90z"/>
	</g>
</g>
</svg>
