<?xml version="1.0" encoding="utf-8"?>
<!-- Generator: Adobe Illustrator 23.0.3, SVG Export Plug-In . SVG Version: 6.00 Build 0)  -->
<svg version="1.1" id="Livello_1" xmlns="http://www.w3.org/2000/svg" xmlns:xlink="http://www.w3.org/1999/xlink" x="0px" y="0px"
	 viewBox="0 0 184.3 184.3" style="enable-background:new 0 0 184.3 184.3;" xml:space="preserve">
<style type="text/css">
	.st0{fill-rule:evenodd;clip-rule:evenodd;}
</style>
<g id="Layer_x0020_1">
	<g id="_1216681228528">
		<path class="st0" d="M54.3,82.5c4,0,1.3,8.4,2.3,10.1c1.1,1.8,9.8-1.8,9.8,2.6c0,3.2-5,2.2-9.9,2.2v24c0,3-4.4,3-4.4,0v-24h-6.6
			c-2.1,0-3.3-2.6-1.6-3.9c1.2-1,4.5-0.5,6.6-0.5c2.2,0,1.6-0.2,1.6-5.6c0-1.1-0.2-2.4,0.2-3.4C52.6,83.1,53.3,82.5,54.3,82.5z
			 M23.7,93.8v54.6c0,0.7,0.2,0.8,0.8,0.8h60.7L84.9,96c0-6.1-1.6-10.8-5.2-14.7c-3.6-4.1-6.6-6.2-12-8.5c-12-4.9-26.6-2.8-36.3,5.8
			C27.3,82.3,23.7,87.8,23.7,93.8z"/>
		<path class="st0" d="M129.6,82.5c2.2,0,2.2,2.4,2.2,3.8c-0.1,7.4-0.5,6.7,2.4,6.6c3.9-0.1,7.4-0.7,7.4,2.2c0,3.2-4.9,2.2-9.9,2.2
			v24c0,3-4.4,3-4.4,0v-24h-6.6c-2.2,0-3.1-2.6-1.6-3.9c1.2-1,4.6-0.5,6.6-0.5c2.2,0,1.6-0.2,1.6-5.6c0-1.1-0.2-2.4,0.2-3.4
			C127.9,83.1,128.7,82.5,129.6,82.5z M99,94.3v53.5c0,0.8,0.2,0.8,0.3,1.4h61.2c0-1.4-0.3-1.5-0.3-3c-0.2-16.3,0-34.2,0.1-50.5
			c0-8.3-3.2-13.1-8.8-18c-3.9-3.4-12.5-7.4-19.6-7.4c-6.3,0-9.2-0.1-15.3,2.3C108,76.1,99,83.9,99,94.3z"/>
		<path class="st0" d="M81.9,57.6c0-3.2,4.3-2.5,7.7-2.5v-4.7c0-4.3,4.7-4.3,4.7,0v4.7c1.9,0,6.4-0.5,6.4,2.2c0,2.9-3.9,2.4-6.4,2.4
			v19.3c0,4.2-4.7,4.8-4.7-0.3v-19C87.2,59.8,81.9,60.4,81.9,57.6z M61.2,65.3c4.2,1,7.2,2.2,10.7,4c10.4,5.2,17.7,14.7,17.7,26.9
			v34.2h4.7V96.8c0-5.3,0.7-8.9,2-12.9c0.7-1.9,1.5-3.4,2.5-4.9c2.7-4.4,7.6-8,12.2-10.2c3.8-1.8,7.2-2.4,11.7-3.5
			c0-10.6-0.5-14.7-7.7-21.8c-4.5-4.6-14.1-8.5-21-8.5c-6.9,0-9.5,0.1-16.1,2.7c-2.8,1.1-6.9,3.6-9.1,5.8
			C61.6,50.5,61.2,55.5,61.2,65.3z"/>
	</g>
</g>
</svg>
