<?xml version="1.0" encoding="utf-8"?>
<!-- Generator: Adobe Illustrator 23.0.3, SVG Export Plug-In . SVG Version: 6.00 Build 0)  -->
<svg version="1.1" id="Layer_1" xmlns="http://www.w3.org/2000/svg" xmlns:xlink="http://www.w3.org/1999/xlink" x="0px" y="0px"
	 viewBox="0 0 184.3 184.3" style="enable-background:new 0 0 184.3 184.3;" xml:space="preserve">
<style type="text/css">
	.st0{fill:#020202;}
</style>
<g id="Layer_x0020_1">
	<path class="st0" d="M100.8,125.4c-2.3-4.1-0.5-11.3,1.4-15.8c2.2-4.9,5.2-8.1,8.5-10.8c3.4-2.7,23.2-13.1,29.2-8.5
		c3.2,2.5-1.6,11.3-3.1,13.9C129.8,116.4,112.3,128.3,100.8,125.4z M43.2,93.9c-0.7-9.9,25-2.7,35.6,13.9c2,3.1,4.9,10.1,4.9,14.6
		c0,4-1.4,4-5.6,4c-3.1,0-5.9-0.4-8.6-1.1C56,121.8,44.1,106.5,43.2,93.9z M89.8,169.9h4c4.5-2.5,3.1-0.2,10.4-5.8
		c19.6-15.1,39.8-51.3,47.3-73.8c12.4-36.9-5.6-65.2-39.1-73.6c-3.4-0.9-12.4-1.6-14.6-2.5H86.6c-4.5,1.8-13,0.2-27,6.7
		c-7.7,3.6-14.2,8.3-19.8,14.8c-24.3,28.1-3.1,73.3,15.7,99.7C67.2,152.8,72.2,159.8,89.8,169.9z"/>
</g>
</svg>
