<?xml version="1.0" encoding="utf-8"?>
<!-- Generator: Adobe Illustrator 23.0.3, SVG Export Plug-In . SVG Version: 6.00 Build 0)  -->
<svg version="1.1" id="Layer_1" xmlns="http://www.w3.org/2000/svg" xmlns:xlink="http://www.w3.org/1999/xlink" x="0px" y="0px"
	 viewBox="0 0 184.3 184.3" style="enable-background:new 0 0 184.3 184.3;" xml:space="preserve">
<g id="Layer_x0020_1">
	<path d="M114.3,106.8c-0.2,1.1-5.4,8.6-6.7,9.5c-4,2.7-11.9-1.8-7-8.5c0.5-0.9,1.1-1.4,1.8-2.3c2.3-3.4,4.5-7.7,9.7-4.3
		C113.4,102.5,114.8,104.1,114.3,106.8z M70.7,137.4c2.3-3.1,4-6.8,3.2-11.9c-0.4-2.3-0.9-3.8-1.8-5.8c-1.3-2.2-2.9-3.8-3.1-4.7
		V99.6c0.7,0.4,3.8,2.3,4.1,3.1c0.9,0.2,8.6,6.1,9.5,6.7l9.4,6.8c1.4,0.9,3.4,2.3,4,3.1c0.9,0.2,6.1,4.1,7.4,5s2.5,1.8,3.8,2.7
		c0.9,0.7,2.9,1.8,3.6,2.7l5.6,4c6.8,5.2,5.2-1.6,9.7-0.5c0.7,0.2,4.9,3.1,5.8,3.8c1.3,0.9,1.6,1.3,3.8,1.1c1.3-0.7,2.3-2,2.9-3.2
		l1.1-1.4c0.2-0.2,0.2,0,0.2-0.4l0.2-0.2l0.7-0.9l0.2-0.5c1.3,0.4,1.8,0.9,3.4,1.3c2,0.4,2.9-0.2,4.3-0.2c0.7-0.7,1.3-0.5,3.1-2.3
		c0.9-0.9,1.6-2,2.3-3.2c1.4-2.2,3.4-4.1,3.2-7.9c-0.4-3.1-1.6-4.1-3.2-5.6c1.8-3.4,5.9-7.2,9.5-8.8c0.9-0.5,3.4-1.8,4.3-1.8
		c0.5-0.7,0.5-0.4,2-1.1c0.7-0.4,1.4-0.7,2.2-0.9c-0.4-0.4-0.4-0.2-0.5-0.7c-0.7-0.2-0.9-0.5-1.6-0.9l-1.3-0.9
		c-0.4-0.2-0.2,0-0.4-0.4c-1.4-0.7-3.2-2.2-4.7-3.2c-1.4-1.1-2.9-2.2-4.5-3.2l-22.1-16c-7.2-5.4-14.8-10.4-22-15.7
		c-0.9-0.7-3.4-2.2-3.8-2.9c-0.5,0-0.2,0-0.7-0.4l-8.8-6.1c-1.6-1.1-3.1-2.2-4.7-3.4c-9.7-6.7-21.4-7.6-32.6-3.8
		c-0.2,0.2-2.3,1.4-2.9,1.6c-1.1,0.7-1.8,1.3-2.7,2c-1.8,1.4-3.2,3.1-4.7,4.9c-1.1,1.4-2.2,3.1-3.1,4.9c-0.4,0.9-2.2,5.6-2.3,5.8
		c0,0.7-0.5,3.6-0.7,4.7c-0.2,1.6-0.2,3.8,0,5.2c0.4,2.9,0.9,6.1,2,8.6l1.8,3.6c0.4,1.1,0.2,14.4,0.2,16v12.4
		c-0.9,0.2-2.3,1.1-3.1,1.4c-1.8,1.3-3.6,2.9-4.7,4.7c-0.4,0.7-1.3,2.5-1.6,2.9c-5.9,0.2-14.2,0-20.5,0c-5.8,0-3.8,0.4-6.1,0.9
		l-0.9,0.7c-5.8,4.3-3.2,14.2,4.9,14.4h23.8c1.6,0,2-0.2,2.5,1.1c0.5,0.2,0-0.2,0.5,0.4c0.5,0.5,0.2,0.2,0.4,0.5l0.4,0.2
		c1.1,0.7,1.6,1.3,2.9,1.8c1.1,0.5,2.3,0.9,3.2,1.3C60.3,144.2,66.4,143.3,70.7,137.4z M64.8,133.1l-0.9,0.9
		c-0.7,0.4-1.3,0.9-2.2,1.3c-0.9,0.4-1.6,0.5-2.5,0.7c-2.3,0-3.6,0-5.4-1.1c-0.5-0.2-0.2-0.2-0.5-0.4l-0.2-0.2c0,0-0.2,0-0.2-0.2
		c-0.9-0.7-1.8-1.6-2.5-2.9c-0.5-1.4-1.1-3.1-0.9-4.7c0.4-3.2,2.5-5.9,4.7-6.8c0.5-0.9,4.5-1.1,5.9-0.7c4,0.9,6.7,4.7,6.7,8.6
		C66.8,130.4,65.7,131.5,64.8,133.1z M99.2,99.6c-0.2,0.7-0.9,1.4-1.4,2.2c-0.4,0.7-0.9,1.4-1.4,2.2c-1.1,1.4-2,3.1-4.1,3.6
		c-2,0.9-4.3-0.9-5.4-1.8c-1.1-0.9-2.3-4.1-0.9-5.6c0.4-0.9,3.8-5.6,4.5-6.7c0.7-0.9,0.9-1.6,1.8-1.8l0.5-0.5
		c2.3-1.3,4.7-0.2,6.3,1.4C101.2,94.2,101.3,98.2,99.2,99.6z M86.8,88.1c-0.4,1.1-5.6,8.5-6.8,9.2c-4,2.3-9.7-2.2-7.9-6.5
		c0.5-1.1,3.8-5.6,4.9-7.2c0.7-0.9,0.9-1.4,2-2.2C82.6,79.3,88.6,83.4,86.8,88.1z M111.4,73.3c0.9,0.4,1.8,1.3,2.5,1.8
		c0.7,0.5,1.8,1.3,2.5,1.8c1.8,1.3,3.4,2.3,5,3.6c1.6,1.1,2.9,2.2,4.5,3.2c0.9,0.5,4,2.7,4.5,3.4c0.5,0.2,0.5,0.2,1.3,0.5
		c2,1.4,16,11.2,16.2,11.7c1.6,0.5,3.2,2.2,2.7,4.1c-0.4,1.6-2.3,3.1-4.3,2.2c-0.9-0.4-7.9-5.2-8.3-5.9c-0.9-0.2-1.3-0.7-2-1.3
		c-0.5-0.5-1.4-1.1-2-1.4c-1.1-0.7-3.2-2.2-4-2.9c-1.3-0.5-12.2-8.5-14.2-9.9c-0.7-0.5-4.1-2.7-4.7-3.4c-0.5-0.2,0,0.5-0.5-0.4
		l-6.7-4.9c-2.7-1.8-17.6-12.4-18.2-13.1c-0.4-0.5-0.7-1.1-0.7-2c0-1.6,1.3-2.9,2.5-3.1c1.8-0.4,3.1,0.9,4.1,1.6l18.2,13
		C110.5,72.4,111.1,72.8,111.4,73.3z"/>
</g>
</svg>
