<?xml version="1.0" encoding="utf-8"?>
<!-- Generator: Adobe Illustrator 23.0.3, SVG Export Plug-In . SVG Version: 6.00 Build 0)  -->
<svg version="1.1" id="Layer_1" xmlns="http://www.w3.org/2000/svg" xmlns:xlink="http://www.w3.org/1999/xlink" x="0px" y="0px"
	 viewBox="0 0 184.3 184.3" style="enable-background:new 0 0 184.3 184.3;" xml:space="preserve">
<style type="text/css">
	.st0{fill:#FFFFFF;}
</style>
<g id="Layer_x0020_1">
	<g id="_2429380135728">
		<path class="st0" d="M107,87.9c2.2,14.6,13.5,21.6,10.8,35.1c-1.8,9.2-9,14.4-15.1,20.2c-1.6,1.6-4,4-5.4,6.3
			c-2.7,4-6.8,11.2-5.4,17.6c1.3,5.8,6.5,9.5,11.7,11.7c7.4,2.9,12.2,2.5,17.6-2.5c2-1.8,3.2-4.3,4.7-7.2c1.3-2.7,2.7-5,4.1-7.4
			c3.1-4.9,5.9-9.5,9-14.4c6.3-10.1,12.6-18.4,17.1-29.9c2.5-6.3,4.1-12.4,2-19.8c-2.9-10.6-13.3-20-23.4-23.6
			c-5.2-1.8-14.4-3.6-20-1.4C109.5,74.8,105.9,79.8,107,87.9z"/>
		<path class="st0" d="M57.3,29.8c-8.1,0.9-14.9,3.8-20.7,8.3l-4.5,4.1c-1.6,1.8-2.2,2.3-4,4.9c-7.7,11.5-3.6,24.7,1.8,36.2
			c2.5,5.4,5,10.3,7.9,15.3c2.9,4.9,5.4,10.1,8.1,15.1c3.6,6.5,4.7,9.4,7.6,15.7c4.5,9.9,13.5,11.9,23.2,7.4c1.4-0.7,2.5-1.3,3.6-2
			c10.6-7,6.3-19.4,0.2-28.3l-5.2-6.3c-4-4.1-7.7-7.6-10.1-13.1c-2.7-6.3-1.8-13.1,1.1-18.9c2.3-4.7,5.2-7.6,8.6-14.6
			c2.5-5.6,4.3-13.1,0.2-18.4C71.4,30.3,66,29.1,57.3,29.8z"/>
		<path class="st0" d="M62,3.9C50.1,6,55.7,28.7,65.8,26.4c4.5-1.1,7-7.4,6.5-13.1C71.9,7.6,68.1,2.8,62,3.9z"/>
		<path class="st0" d="M121.4,45.8c-5,1.3-7.7,6.3-7.2,12.8c0.4,5,3.8,11.5,9.7,9.4c6.8-2.5,9.9-15.1,4.9-20
			C127.2,46.2,124.7,45.1,121.4,45.8z"/>
		<path class="st0" d="M44.4,12c-8.6,2.2-2.9,18.4,4.7,16.7C56.6,27.1,53.2,9.8,44.4,12z"/>
		<path class="st0" d="M139.2,55.2c-8.8,2.3-8.3,19.4,0.4,16.4c3.1-1.1,5.8-4.7,6.5-8.5C147,58.2,143.9,53.9,139.2,55.2z"/>
		<path class="st0" d="M149.9,66.7c-6.1,1.6-6.1,14,0.7,11c1.8-0.9,4.1-3.4,4.5-6.1C155.4,68.5,152.9,66,149.9,66.7z"/>
		<path class="st0" d="M33.9,22.8c-6.8,1.6-1.8,12.2,3.2,11.5c2.9-0.4,3.6-4.3,2.5-7C39,24.7,37,22,33.9,22.8z"/>
		<path class="st0" d="M157.6,76.6c-5.4,2.2-4.9,12.2,0.9,9.4c1.6-0.7,3.6-3.1,4-5.4C162.8,77.7,160.3,75.5,157.6,76.6z"/>
		<path class="st0" d="M25.5,31.8c-6.3,1.6-1.4,10.8,3.1,10.1C33.2,41.1,30.7,30.5,25.5,31.8z"/>
		<path class="st0" d="M163.7,86.8c-4.1,1.3-4.7,9.2,0.2,7C168.6,91.9,167.9,85.8,163.7,86.8z"/>
		<path class="st0" d="M18.8,42c-4.1,1.8,0,8.3,3.2,7.4C25.7,48.3,22.8,40.2,18.8,42z"/>
	</g>
</g>
</svg>
