<?xml version="1.0" encoding="utf-8"?>
<!-- Generator: Adobe Illustrator 23.0.3, SVG Export Plug-In . SVG Version: 6.00 Build 0)  -->
<svg version="1.1" id="Livello_1" xmlns="http://www.w3.org/2000/svg" xmlns:xlink="http://www.w3.org/1999/xlink" x="0px" y="0px"
	 viewBox="0 0 184.3 184.3" style="enable-background:new 0 0 184.3 184.3;" xml:space="preserve">
<style type="text/css">
	.st0{fill-rule:evenodd;clip-rule:evenodd;}
</style>
<g id="Layer_x0020_1">
	<path class="st0" d="M84.2,30.6c5.5-1.1,6.7,3.7-0.6,4.7C76.7,36.4,78.1,31.7,84.2,30.6z M52,52.7c1.6,0.8,3.6-1.2,6.3-1.6
		c-0.4,0.8-2.6,4.9-2.7,5.4c-0.2,3.2,3.4-2.8,8.6-6c1.3-0.8,4.3-2,5.4-3.1c-1.8-1.4-2.6-1.9-3.9-3.3c-2.5,0.7-8.4,4.3-10.8,6.1
		C54,50.8,52,51.7,52,52.7z M88.5,136.5c5.9-1.2,21-7.4,22.7-11.2c1.1-2.6-0.7-5.3-2-6.1c-2-1.2-4.7-0.5-6.9,0.1
		c-4.1,1.1-9.5,2.3-13.7,2.8V136.5z M73.6,148.9c-5.4,0.7-14.6,2.6-14.6,7.8c-0.1,2,1.2,2.2,3.2,2.2h27.8c2.8,0,8.7,1.1,8.7-2.2
		c0-4.9-9.5-7.3-14.6-7.7l-0.1-35.8l-10.3,2.3L73.6,148.9z M44.4,65.6c5.2,11,17.3,14.2,29.2,16.2v8.8L84,88.5v-6.7
		c7-0.7,13.7-2.6,18.9-5.6c4.2-2.4,11.7-9,10.8-13.6c-1.5-1.8-3.2-1.2-6.2-1.2c-2.6,0-5.1,0-7.7,0c-17-0.1-36.7-0.4-53.4-0.1
		C43.4,61.4,43.1,63,44.4,65.6z M68.9,124c-2.7-0.2-5.3-0.4-7.4-1.6c-1.7-1-3.5-3.2-1.8-5.5c4-5.5,31.5-9.6,40.2-11.8
		c16.8-4.4,33.2-13.3,39.3-30.3c3.2-8.8,3.3-20.9-1.1-28.9c-4.1-7.3-10.3-11.9-19.6-15.2c-8.3-3-19.7-5.3-29.3-5.5
		c-5.2-0.1-9.8,1.6-13.7,3.7c-7.1,3.9-12.1,8.2-4.6,13.9c1.8,1.3,3.5,2,5.9,2.7c16.1,4.5,31.9-7.1,43.8,2.3
		c7.2,5.7,8.3,14.9,3.2,25.1C115.6,89.1,94.1,91,76.1,94.7c-11.3,2.4-17.2,3.6-25.3,9.5c-6,4.3-11.4,14.6-5.6,24.5
		c3.9,6.6,12.9,10.9,23.8,10.8L68.9,124z"/>
</g>
</svg>
