<?xml version="1.0" encoding="utf-8"?>
<!-- Generator: Adobe Illustrator 23.0.3, SVG Export Plug-In . SVG Version: 6.00 Build 0)  -->
<svg version="1.1" id="Layer_1" xmlns="http://www.w3.org/2000/svg" xmlns:xlink="http://www.w3.org/1999/xlink" x="0px" y="0px"
	 viewBox="0 0 184.3 184.3" style="enable-background:new 0 0 184.3 184.3;" xml:space="preserve">
<style type="text/css">
	.st0{fill:#FFFFFF;}
</style>
<g id="Layer_x0020_1">
	<path class="st0" d="M48.7,133.5c1.3-4,11.7-3.6,13.9-0.4l0.7,3.4c0,1.3,0,2.5,0,3.8c0,2.7,0.2,5.4-0.2,8.1H48.1l-0.2-13.3
		C48.1,132.9,47.8,134.4,48.7,133.5z M55.3,103.2c-3.4,3.2-6.5,5-9.7,9c-6.3,7-13.1,8.8-13.1,15.5v19.1c-0.5,2.7-3.2,2.7-1.4,7.2
		c3.2,1.3,42.7,0.9,48.2,0.2c1.4-5.4-0.5-3.8-1.1-8.1c-1.1-10.4,3.1-20-3.2-25.4C68.3,114.9,62.2,108.4,55.3,103.2z"/>
	<path class="st0" d="M49.9,63.4l30.2,14.9l3.6-6.7c5.9,2.2,11.7,7,17.6,9l4.9-10.3L88.6,62l3.2-6.7L61.8,40L49.9,63.4z"/>
	<path class="st0" d="M112.6,86.8c4.9,3.4,27.4,14.8,34.6,18.9c12.6,7.4,19.4-7.9,8.6-13.1c-4-2-8.1-3.6-12.2-5.6
		c-7.7-3.6-17.1-8.6-25-11.3L112.6,86.8z"/>
	<path class="st0" d="M23.3,123.6c6.8,2.5,10.4-5.2,17.3-10.8c1.4-1.3,2.3-2,3.8-3.2c1.4-1.3,2-2.2,3.4-3.6c2.3-2.3,5.2-4.3,7.7-6.7
		L78,119.1c3.2,2.7,3.6,5.9,9.7,4.7c0.5-3.6-1.8-3.6-4.1-5.9c-2.2-2.3-3.2-2.9-5.2-4.9l-0.2-15.1l-9-0.2l-0.2,6.3
		c-8.1-4.3-11-16-18.5-7.9c-2.5,2.7-3.4,3.2-5.9,5.4l-19.6,18.4C23.6,121.2,22.9,121.2,23.3,123.6z"/>
	<path class="st0" d="M79.1,80.5L49,65.8c-11.7,8.8,1.1,11.9,9.9,16.4C71.3,88.5,78.2,94.2,79.1,80.5z"/>
	<path class="st0" d="M62.9,37.7c7.7,2.9,23.6,12.4,30.6,14.9c8.1-9.7,3.4-9.5-10.6-16.6C72.2,30.7,63.8,23.7,62.9,37.7z"/>
	<path class="st0" d="M104.3,85.9c5,2.3,5.6,0,7.6-4.1c1.6-3.4,4.5-6.7,2.9-10.8l-4.9-0.9c-1.4,2.2-2.5,4.7-3.8,7.2
		C104.3,80.9,103,81.4,104.3,85.9z"/>
	<path class="st0" d="M62.5,133.1l0.4,14.8H48.7l0.2-14.4c-0.9,0.9-0.5-0.7-0.9,1.8l0.2,13.3h14.9c0.4-2.7,0.2-5.4,0.2-8.1
		c0-1.3,0.2-2.5,0-3.8L62.5,133.1z"/>
</g>
</svg>
