<?xml version="1.0" encoding="utf-8"?>
<!-- Generator: Adobe Illustrator 23.0.3, SVG Export Plug-In . SVG Version: 6.00 Build 0)  -->
<svg version="1.1" id="Livello_1" xmlns="http://www.w3.org/2000/svg" xmlns:xlink="http://www.w3.org/1999/xlink" x="0px" y="0px"
	 viewBox="0 0 184.3 184.3" style="enable-background:new 0 0 184.3 184.3;" xml:space="preserve">
<style type="text/css">
	.st0{fill-rule:evenodd;clip-rule:evenodd;fill:#020202;}
</style>
<g id="Layer_x0020_1">
	<path class="st0" d="M77.5,86l8.3-0.1v8.4h-8.3V86z M114.8,121.7l0.6-0.1l4.1,0.1v33.6H43.8V142v-20.3l19.7,0.1l0.9-0.1l4.1,0.1
		l2.4-0.1L114.8,121.7z M73.2,114v3.3c-0.3,0.2,0.1,0-0.3,0.1l-6,0.1l0.1-6.8c0-0.6,0.1-1.7-0.2-2.1c0.2-0.9-0.8-2.1-1.4-2.7
		c-0.9-0.8-1.6-1-3.2-1H56c-1.8,0.1-2.8-0.2-4.2,0.8c-1.1,0.8-1.7,1.9-1.8,3.4c-0.1,2.8,0,5.7,0,8.4h-6.3V98.5
		c13.4-0.1,27.8,0.2,41.3,0H97c0.3,0,0.5,0.1,0.8,0.1c0.1,0,0.3-0.1,0.4-0.1l0.5-0.1c0.2,0.4,9.1,0.1,10.4,0.1c3.4,0,7-0.1,10.5,0.1
		v13.1v3.4l0.1,2.3l-6.4,0.1c0.1-1.8,0-3.6,0-5.4c0-2.4,0.3-4-1-5.6l-1.5-1.2c-0.3-0.2-0.5-0.3-0.9-0.4H99.6
		c-0.8,0.2-1.5,0.7-2.1,1.2c-1.9,1.7-1,7.8-1.2,11.3h-6.3c0.1-2.1,0.3-7.6-0.2-9.2c-0.4-1.3-0.1-0.9-0.8-1.7c-0.8-1-1.6-1.6-3.1-1.7
		c-2-0.1-5.1,0.1-6.8,0c-2.5-0.2-4.6,0.2-5.7,2.6c-0.5,1.1-0.3,4-0.3,5.4V114z M54.3,109.1l8.4-0.1v8.3l-8.3-0.1L54.3,109.1z
		 M136.3,91.3c0-1.9,0.1-2.6-1.5-3.2c-0.9-0.4-3.3-0.2-4.4-0.2c-1.4,0.1-2.4,0.8-2.4,2.1c-0.1,1.1-0.1,8.5,0.1,9
		c0.2,0.5,0.6,1.1,1.1,1.3c0.8,0.3,5.7,0.3,6.3-0.1c0.4-0.2,0.9-0.7,1-1.4V91.3z M127.9,77.7c0.1,0.6,0.1,0.7,0.5,1.1
		c0,0.1,0.1,0.1,0.1,0.1c0.8,0.9,1.4,0.8,2.9,0.8c1.9,0,3.6,0.3,4.5-0.7c0.7-0.8,0.5-3.5,0.5-4.8c0-1.6,0.2-3.7,0-5.2
		c-0.1-0.4-0.2-0.8-0.3-1.1l-0.7-0.6c-0.7-0.4-1.7-0.3-2.5-0.3c-0.9,0-1.8,0-2.7,0c-2.9,0.2-2.2,3-2.2,5.6
		C127.9,74,127.7,76.4,127.9,77.7z M54.4,132.2H109l-0.1,12.6c-6.7-0.1-13.7,0.1-20.3,0c-11.3-0.2-22.9,0.3-34.3,0V132.2z
		 M50.1,147.2c0,0.5,0.1,0.7,0.4,1c0.9,1.1,1.8,0.9,3,0.9h52.7c5,0,7,0.9,7-3.5v-10.5c0-2.3,0.6-5.6-0.9-6.7
		c-0.7-0.6-1.3-0.5-2.4-0.5H62.3c-1.5,0-10.2-0.2-11,0.2c-0.2,0.1-0.2,0.1-0.3,0.2l-0.1,0.1c-1.1,0.8-1,1.1-1,3.2L50.1,147.2z
		 M100.5,109.1h8.5v8.3h-8.5V109.1z M77.5,109.1h8.3v8.3h-8.3V109.1z M100.5,85.9h8.5v8.4h-8.5V85.9z M140.5,44.2l-0.1,111.1
		l-16.8,0.1V29.1h16.8L140.5,44.2z M113.2,94.3c0.2-1.6,0.1-3.7,0.1-5.4c0-2,0.3-4.5-1.3-5.9l-0.4-0.3c-0.3-0.2-1-0.7-1.8-0.9
		c-0.7-0.2-9.4-0.2-10.3,0.2c-0.3,0.1-0.7,0.2-1,0.4c-0.6,0.3-1.1,0.7-1.4,1.2c-0.1,0.2-0.1,0.3-0.3,0.5c-0.2,0.3,0-0.1-0.2,0.3
		c-0.5,1.1-0.4,9.3-0.2,10l-6.4,0.1c0-2.2,0.4-8.9-0.6-10.5c-0.4-0.6-1.1-1.4-1.7-1.6c-0.2-0.1-0.4-0.1-0.5-0.2
		c-0.5-0.2-0.2-0.1-0.5-0.2c-1.1-0.4-4-0.1-5.1-0.1c-1,0-4.2-0.2-5.1,0.1c-0.2,0.1-0.7,0.3-1,0.4c-0.6,0.2-0.7,0.4-1.2,0.8
		c-0.5,0.4-0.5,0.6-0.8,1.1C73.7,84,73.7,84,73.7,84c-0.8,1.2-0.4,8.2-0.4,10.3H67v-7.9c0-1.2-0.1-1.3-0.5-2.2
		c0-0.1-0.2-0.4-0.2-0.5L66,83.4c-1.8-2.3-4.3-1.7-7.7-1.7c-0.9,0-1.8-0.1-2.7,0s-2.6-0.2-3.7,0.7l-1.5,1.8
		c-0.6,1.1-0.3,8.1-0.4,10.1c-2.1,0.1-4.4,0-6.3,0c0-0.4-0.1-1-0.1-1c0-0.1,0.1-0.6,0.1-1c0-0.8,0-1.6,0-2.4V75.4h75.6v18.9H113.2z
		 M39.6,145.3c-0.2,1.6,0,5.3,0,7.2c0,2.8-0.3,4.3,1.3,5.9c1.5,1.5,4.3,1.1,6.3,1.1h65.2c2.5,0,27.2,0.2,29-0.1
		c1.5-0.3,2.4-1.3,3-2.6c0.7-1.3,0.4-6.6,0.4-8.6v-43.5c0-1.2,0.2-56.6-0.1-57.9c0.1-1.5,0.2-16.1,0-18.1c-0.1-1.5-1.2-3-2.6-3.5
		c-1.9-0.8-8.9-0.4-11.5-0.4H94.4c-7.9,0-16.1,0.2-24,0h-6.5c-5.8,0.2-12,0-18,0c-2.1,0-1.3-0.2-3,0.3c-0.4,0.1-0.6,0.1-0.9,0.3
		l-1.1,0.7c-0.1,0-0.1,0.1-0.1,0.1c-2.1,2.1-1.3,6.4-1.3,10.4V136C39.6,139,39.4,142.4,39.6,145.3z M54.4,86l8.3-0.1v8.4h-8.3V86z
		 M61.6,73.5c1.1-0.6,1.8,1.2,0.8,1.7C61.2,75.7,60.3,74.1,61.6,73.5z M77.5,62.7l8.4,0.1l-0.1,8.4h-8.3L77.5,62.7z M54.4,62.7
		l8.3,0.1l-0.1,8.4h-8.3V62.7z M100.5,62.7h8.5v8.4h-8.5L100.5,62.7z M66.3,72.9c-0.5-0.2-1.1-0.9-1.5-1.3c-1.2-1.1-0.3-0.5-1.3-0.9
		c-0.1-0.1-0.2-0.2-0.3-0.3c0.2-0.4,0.3-0.5,0.7-0.7c0.5,0.4,2.6,2.3,2.7,2.9C66.4,72.7,66.5,72.7,66.3,72.9z M119.4,61.7v5.7v1
		l0.1,2.7h-6.2v-7.2c0-1.3-0.1-2.6-0.8-3.5c0-0.1-0.2-0.2-0.3-0.4c-0.1-0.2-0.1-0.1-0.2-0.3c-1.8-2-7.3-1.3-10.6-1.3
		c-2.2,0-3.3,0.5-4.5,2.2c-1,1.5-0.5,7.7-0.5,10.4h-6.3c0.1-1.8,0-3.6,0-5.4c0-2,0.3-4-0.9-5.5c-1-1.2-1-1-2.4-1.5
		c-0.8-0.3-9.6-0.3-10.3,0c-1.1,0.5-1.2,0.3-2.1,1.2L73.6,61c-0.6,1-0.4,8.3-0.4,10.1h-6.3c0.1-1.7,0.1-3.6,0.1-5.4
		c0-1.8,0.3-3.8-0.7-5.2L66,60.2c-0.3-0.4-0.2-0.3-0.6-0.7c-1.7-1.5-4.6-1-6.9-1c-2.4,0-4.1-0.4-6.1,0.5l-0.7,0.5l-0.1,0.1l-0.7,0.8
		c-1.4,1.6-0.9,8.3-0.8,10.8h-6.3V52.2h75.6L119.4,61.7z M100.5,39.6l8.5,0.1l-0.1,8.4h-8.4V39.6z M77.5,39.6l8.3,0.1l-0.1,8.4h-8.3
		V39.6z M54.4,39.6c2.7,0,5.9-0.1,8.3,0.1l-0.1,8.4h-8.3v-8V39.6z M119.5,29.1v19l-6.4-0.1c-0.3-2.5,0.4-8.3-0.4-10.3
		c-0.6-1.4-1.8-1.9-3.1-2.3c-1.3-0.4-3.6-0.2-5.1-0.2c-2.6,0-5.3-0.5-7.1,1.3l-0.4,0.5c-0.2,0.2-0.2,0.3-0.3,0.4
		c-0.9,1.3-0.6,7.9-0.5,10.3C95.6,48,95.7,48,95,47.9L90.1,48c0-1.1,0-1.5,0-2.5c0.1-2.6,0.4-6.9-0.9-8.4C89.2,37,89.1,37,89,36.9
		l-0.4-0.5c-0.6-0.4-1-0.7-1.7-0.9c-0.6-0.2-9.4-0.3-10.4,0c-1,0.4-0.8,0.2-1.3,0.7l-1.6,1.8c-0.7,1.2-0.1,8.1-0.4,10.2H67
		c-0.7-3.9,1.1-8.6-1.1-11.2c-0.7-0.8-1-1-2.3-1.3c-1.1-0.4-9.4-0.4-10.3-0.1c-1,0.4-1.4,0.6-2.1,1.3l-0.8,1.2
		c-0.7,1.4,0,8-0.4,10.2c-0.6,0-1.1,0-1.6,0h-4.6v-19L119.5,29.1z"/>
</g>
</svg>
