<?xml version="1.0" encoding="utf-8"?>
<!-- Generator: Adobe Illustrator 23.0.3, SVG Export Plug-In . SVG Version: 6.00 Build 0)  -->
<svg version="1.1" id="Livello_1" xmlns="http://www.w3.org/2000/svg" xmlns:xlink="http://www.w3.org/1999/xlink" x="0px" y="0px"
	 viewBox="0 0 184.3 184.3" style="enable-background:new 0 0 184.3 184.3;" xml:space="preserve">
<style type="text/css">
	.st0{fill-rule:evenodd;clip-rule:evenodd;}
</style>
<g id="Layer_x0020_1">
	<path class="st0" d="M144.7,124.2c-0.3,1.9-3.5,5.5-5.9,6.3c-5.1,1.8-9.3-4.2-9.3-5.3c0-0.6,0.9-1.4,1.4-1.5c1.5-0.3,1.5,2,4.5,0.9
		c3.2-1.2,1.7,0.1,4.3,0.6C142.9,125.9,142.2,124.7,144.7,124.2z M132,83c0.7,2,2.9,1.3,4,0.3c-0.2-0.7-0.7-1-1.1-1.4L132,83z
		 M90.1,75c-2.7,1.6-0.2,4.5,1.7,3.5C93.8,77.5,92.3,73.6,90.1,75z M58.4,74c-0.7-0.5-1.1-1.6-0.5-2.7c0.4-0.8,1.6-0.5,2.4-0.3
		C60.4,72.3,59.7,74,58.4,74z M59.5,69.7c-1.5,0.4-4.7,1.3-5.5,2.2c-1.3,1.7-0.8,4.8,1.6,4.5c3.6-0.4,3.5-0.2,5.1-2.6
		c0.6-0.9,1-1.4,1-2.9C61.6,69.6,60.8,69.3,59.5,69.7z M85.4,118.4c0.6-0.4,1.7-0.7,2.7-0.7c0.6,0.8,1.3,2.6,1.1,3.7
		c-0.9,0.2-0.8-0.2-2-1.2C86.5,119.6,85.7,119.3,85.4,118.4z M90.3,114.2c-0.3-2.2,1.6-1.9,2.2-3.3c0.8-1.7,0.9-2.3,2.3-3.3
		c3.4-2.1,5.8,1.1,6.6,3.5c0.4,1.2,0.6,1.8-0.6,4.1c-1.6,2.9-5.3,3.4-7.2,1.1c-0.6-0.8-0.3-1-1.3-1.4
		C91.3,114.6,91.1,114.8,90.3,114.2z M132.5,106.5c0.3-1.5,3.9-3,5.9-2.7c1.9,0.3,4.6,2.1,5.1,3.4L132.5,106.5z M89.6,111.9
		c-1.2-0.1-0.6-0.4-2.1-0.5c-2.2-0.3-1.4-3.1,0.6-4.5c1.2-0.9,5.1-3.6,6.5-3.4c0.2,2.2-3.5,5.9-3.7,6.3
		C90.5,110.9,90.6,111.3,89.6,111.9z M59.5,125.4c1.9-3.1-0.1-2.8,1.3-3.4c0.5-0.2,1.1-0.1,1.4,0.2c0.7,0.7-0.9,4.2-1.2,5
		c-5.4,12.5-18.5,13.3-25.1,6.4c-1.9-1.9-3.7-5.3-4.5-8.8c-1.6-6.9,1.2-15.6,6.3-19.6c1.9-1.6,6-4.1,9.5-3.6c0.1,1-1,6.8-1.4,7.4
		c-1.5-0.1-0.8-0.8-3.2-0.1c-1.7,0.5-0.6,0.9-2.6,1.5c-2.7,0.9-2.1,2.4-2.8,3.4c-0.1,0.2-2.2,1.6-1.8,4.1c0.2,1,0.5,0.6,0.1,1.8
		c-0.9,2.8,0.3,3,1.1,4.3c0.7,1.1-0.4,1.3,1,3c1.3,1.4,1.9,0.7,2.6,1.4c0.8,0.9,0,1.4,2.4,1.6c0.9,0.1,1.3-0.2,2,0.1
		c0.4,0.1,0.7,0.5,1.3,0.7c1.7,0.6,2.4-0.4,3.3-0.2c0.9,0.3,0.4,0.5,1.8,0.2c1.8-0.4,1.7-1,2.5-1.5c1.2-0.9,1.7,0.2,3.3-2.7
		C57.6,125.3,57.7,125.6,59.5,125.4z M86.2,101.1c1-0.5,0.7-0.5,1.2-1.5c0.6-1.2,0.9-0.5,1.1-1.6c0.3-1.4-0.2-0.8,0.6-2.2
		c0.4-0.7,0.4-1.3,1.2-1.5c0.8,0.9,1.3,5.6,1.7,6.5c0.3,0.9,0.6,1.3,0.4,2.2c-1.8,0.4-0.5-0.7-2.2,0.1c-0.8,0.3-1.4,0.7-2.1,1
		c-0.1,1.1,0.4,1.5-0.9,1.6c-0.8,0.1-1.5-0.2-1.7-0.8c-0.3-0.8,0.3-1.2,0.6-1.7C86.4,102.3,86.3,102.2,86.2,101.1z M61.9,96.9
		c-1.1-0.2-0.9-0.1-1.4-0.8c-1.1-1.4-0.7-1.3,0-2.8c0.4-0.9,0.2-0.9,1-1.1C62.3,94,62.7,95.1,61.9,96.9z M58,92
		c0.1-0.7,2-6.4,2.9-6.8c0.5,0.3,0.2,0.1,0.4,0.5l0.3,0.6c0.2,0.3,0.5,0.6,0.7,0.9c-0.1,1.1-2.1,5.3-2.8,5.9
		C58.8,92.9,58.4,92.4,58,92z M111.7,92.9c-0.5,0.6-1.8,1.2-3,1c-0.8-0.2-1.8-1.1-2.5-1.6c-1.6-1.2-3.2-2.2-4.9-3.4
		c-3.5-2.6-2.9-2.2-5.6-0.8c-1.1,0.6-5.8,3.5-3.5-0.5c0.6-1.1,1.1-1.5,2.3-2c1-0.4,1.8-1,2.7-1.4c1.4-0.6,2.3,0.4,3,1
		c1,0.8,6.6,5,7.2,5.1c1.3,0.1,1.8-1.2,2.8,0.1C110.6,90.9,111.6,92.3,111.7,92.9z M64.1,96.9c0.2-1.4-0.4-1.5-0.3-2.7l2.9-6.5
		l2.8-1.8c0.6,0.9-1.7,5.3-2.2,6.4c-0.8,1.8-2,5.8-3.1,5.5L64.1,96.9z M129.5,83.8c0.3-0.3,5.2-2.7,6.7-2.7c1.1,0.1,1.1,0.2,2-0.3
		c1.1-0.5,1-0.5,1.3-1c1-1.8,6.2-2.8,6.3-2.8c1,0.6-0.1,2.9-0.5,3.5c-0.7,0.9-1.5,1.5-2.3,2.3c-1.3,1.4-1.3,1-3.5,1.1
		c-0.9,1.4-4.4,4.4-5.7,5.7c-0.7,0.7-0.9,1.4-1.7,2.2l-8.3-0.9c0.4-2.3,4.3-5.2,6.3-6.4C130,83.9,129.7,84.3,129.5,83.8z M77.1,79.1
		c2.2-1.3,6-2,8.7-0.8c0.1,1.8-1.7,11.3-2.1,14.4c-0.3,1.9-0.2,2.8-1.4,3.8C82,94.7,82.7,90,82.9,88c0.2-1.9,0.7-6.7,0.5-8.5
		C81.2,77.4,79.6,78.9,77.1,79.1z M80.4,76.6c-0.1-1.6,0.9-1.8,2.1-2.1c5.1-1.5,5.2-2.9,9.9-0.1c1.2,0.7,1.5,1.2,1,2.8l-2.7,6.2
		c-0.3,0.9-0.2,1-0.6,1.8c0,0.1-0.3,0.7-0.3,0.7c-0.4,0.6,0,0.3-0.6,0.6c-0.7-0.4-1.6-2.5-2.5-3.7c-1.3-1.8,0.2-3-0.1-5.3
		C85.2,76.5,82.6,77.1,80.4,76.6z M68.1,59c0.1-1,0.9-4,1.3-4.7c1,0.3,1.3,1,1.5,2.1c0.4,1.8-0.2,2-0.6,3L68.1,59z M59.3,56.7
		c0.2-1.8,1.4-3.7,3.8-3.6c-0.3,0.7-0.9,1.8-1.3,2.5C61.3,56.3,60.9,56.4,59.3,56.7z M64.5,42.7c0.5-1.1,0.7-1.5,2.1-1.8
		c1.9-0.4,5.2,0.1,5.7,1.7c0.3,1-0.5,5.6-0.7,6.7c-0.1-0.1-0.1-0.1-0.1-0.2c-0.5-0.6-0.9-1.4-2.4-0.3c-2.3,1.8-0.4-0.9-4.8,2.5
		c-1.2,0.9-1.2,0.4-2.8,0.8l-0.4-1.1c-0.3-0.5,0.1,0-0.4-0.5l-0.3-0.3L64.5,42.7z M71.7,58.5c0.1-0.8,0.2-1.6,0.1-2.3
		c-0.2-0.7-0.5-1-0.5-1.9c0-0.7,0.3-3.6,0.5-4c0.7-1.5,1.9-5.7,1.1-7.8c-0.7-1.8-4.2-2.7-6.7-2c-2.1,0.7-2.9,3.1-3.9,5
		c-2.4,4.6-12.3,21.4-9.1,26c0.9-0.3,1.8-0.9,2.8-1.3c1-0.4,1.9-0.7,2.9-1.1c3.2-1.2,2.7-1.6,6-0.4c-0.1,1.1-0.9,3.1-1.3,4
		c-0.7,1.7-1.1,1.8-2.1,3c-1.2,1.5-1.6,1-3.8,1.3c-2.1,0.3-2.8,0.3-4.8-0.1c0.1,4,2.2,1.7,5.2,6.6c2.1,3.5,0.4,5.3-1.1,8.4
		c-4.4-1.1-19,0.9-21.6,3.7c1,1,3.9,0.3,5.4,0.3c-1.9,1.1-3.2,1.2-5.7,2.9c-3.6,2.4-6,5.1-8.1,9.1c-5.2,9.9-3.6,24.5,5.5,31.5
		c3.4,2.6,6.9,4.6,12.7,4.6c7.8-0.1,13.5-2.4,17.9-8c5.1-6.3,5.8-11,6.2-19.3l1.6,0.1c0.2-1.2-0.3-3-0.6-4.1c-0.5-1.6,0-2.3-0.7-3.8
		l-1.3-3.2c-0.5-1.3-1.3-1.8-1.7-2.7c0.7-0.9,1.8-0.9,3-1.2c1.3-0.4,1.6-0.8,3.6-0.6c0,1.2-0.7,1.8-0.8,3.5c-0.2,2-1,1-0.7,3.6
		c0.1,1.3,0.4,2.4,0.4,3.8c0,1.4-0.6,2.1-0.4,3.6c0.4,0.4,1.1,0.8,1.5,1.3c0.7,0.9,1.5,2,2.5,2.8c0.5,0.4,1,0.8,1.4,1.1
		c3.2,2.6,1.9,2.8,7.3,3.3c1.6,0.2,3.3,0.5,4.7,0.6c1.9,0.2,10.1-0.3,13-0.4c1.3,0,0.8-0.3,1.9-0.6c0.2,0.6,0.7,1.9,0.8,2.1
		c0.7,0,1-0.1,1.2-0.7c0.3-0.7,0.1-0.1,0.2-1.3c1.1-0.2,0.5-0.2,1.6-0.2c3.3,0.2,2.9-1.1,4.9-0.7c2.3,0.6,1.2-0.3,3.1-0.5
		c0.7-0.1,1.5,0.1,2.1,0.1c1.3-0.2,0.3-0.5,1.1-0.5c0.5,0.8,2.6,12.4,13.2,15.2c3.9,1,8.7,0.4,11.9-1.2c9.9-4.9,13.6-19.1,9.1-29.1
		c-1.5-3.4-3.7-6.2-6.1-8c-4.8-3.6-9.1-2.8-10.4-3.6c0.6-1.5,2,0.1,2.6-3.7c0.2-1.3,0.5-1,0.2-2.7c-0.2-1-0.3-1.9-0.4-2.9
		c0.1-0.1,0.1-0.1,0.2-0.1c0.9-0.3,0.5,0.1,1.5-0.5c0.3-0.2,1-0.7,1.2-0.9c0.9-0.8,1.2-1.6,2.3-1.9c0.6,0.5,1.2,1,1.5,1.9l-0.8,0.6
		c0.7,1.5,1.8,2.9,3.3,3.7c2,1,1.9,1.7,3.4,3.5c0.3,0.3,0.6,0.7,0.8,1.1c0.7,1.5,0.5,0.8,1.4,1.9l2.1,3c0.4,0.4,2,1.6,2.3,0.5
		c0.5-1.4,0.1,0.8,0.2-0.5c0-1.2-1-2.3-0.9-3.6l2.3-0.2c0.2-0.8-1.5-4.3-1.9-5.5c-1.5-3.6-0.4-2.3-3.6-4.1c-0.3-0.7-0.1-0.7-0.3-1.3
		c-0.5-1.8-0.2-0.8,1.3-1.6l-0.1-1.1c-0.9-0.5-1.1-0.1-2.1-0.7c-0.7-0.5-1.2-0.8-1.6-1.2c0.6-0.4,1.9-0.3,1.9-1.1
		c-0.5-1.2-3.1-0.7-4.2-0.7c0.1-0.8,0.4-1.1,0.8-1.7c1.5-2,0.1-2.1,1.8-3.1c0.6-0.3,1-0.5,1.9-0.6c0.2,0.9-0.1,1.2,0.6,1.7
		c0.3-0.4,0.5-2.3,0.2-2.9c-0.5-0.8-1.6-0.5-2.4-0.4c-2.1,0.3-2.5-0.4-6.1,0.5c-4,1-8.4,0.9-12.3,1.7c-1.3,0.3-7.4,1.6-8.4,2.2
		c-1.2,0.8-0.2,0.9-1.9,1.5c-0.5,0.2-0.9,0.3-1.4,0.5c-0.9,0.4-0.5,0.4-0.9,0.8c-0.8,0.8-0.1,0.2-1.1,0.6c-1.6,0.6-3.7,2.9-5.2,3.4
		c-1.3,0.4-5.2,0.1-6.5-0.4c-2.4-0.8-5.5-4.7-7.6-6.5c-1.5-1.2-3.2-4.3-4.7-5.9c-0.6-0.7-1-1.3-1.6-1.8C93,66,85,65.2,82.8,66.3
		c-1.1,0.5-1.4,0.5-2.5,0.9c-1.3,0.5-1.1,1.4-2.2,0.4c0.5-1.1,0.9-0.7,1.8-1.3c0.7-0.5,0.5-0.7,1.7-1.3c1.6-0.8,2.2-1.8,4.6-1.3
		c1.1,0.2,1.1,0.8,2.3,0.7c1.2-0.1,1.2-0.7,2.2,0c0.9,0.6,1.1,0.8,2.5,0.6c1.5-0.2,1-0.7,0.9-1.7c2-0.4,8.6,1.8,9.1-1.4
		c0.6-3.2-5.7-0.5-8.2-2.4c-1.3-1-0.9-1.4-2.7-1.9c-1.2-0.4-2.8-0.1-3.8-0.7c-0.3-3.2,4.6-6,5.1-6c1.1,0.3,1.2,0.8,2.7,0.4
		c2.8-0.8,4.7-1.4,4.7-5c-0.1-2.2-2.7-1.6-4.5-1.4c-2.9,0.4-2.6,0.5-3.8,2.4c-0.7,1.2-0.3,1.5-0.8,2.4c-0.4,0.6-0.9,1-1.3,1.9
		c-0.8,1.8-2.2,1.8-2.8,3.6c-0.3,1.1-0.1,1.5-0.8,2.4c-1.8,2.3-1.4,2-4,2.3c-1.8,0.2-0.7,0.4-1.5,1.5c-1.1-0.1-0.8-0.3-2.2-0.1
		c-1.7,0.2-3.5,0-5.1-0.7l-0.6-0.3l-0.1-1.4L71.7,58.5z"/>
</g>
</svg>
