<?xml version="1.0" encoding="utf-8"?>
<!-- Generator: Adobe Illustrator 23.0.3, SVG Export Plug-In . SVG Version: 6.00 Build 0)  -->
<svg version="1.1" id="Layer_1" xmlns="http://www.w3.org/2000/svg" xmlns:xlink="http://www.w3.org/1999/xlink" x="0px" y="0px"
	 viewBox="0 0 184.3 184.3" style="enable-background:new 0 0 184.3 184.3;" xml:space="preserve">
<style type="text/css">
	.st0{fill:#010100;}
</style>
<g id="Layer_x0020_1">
	<g id="_2429220696784">
		<path class="st0" d="M82.4,90.5l0.2-0.7L82.4,90.5z M101.8,89.2L101.8,89.2L101.8,89.2z M115.9,76.1L115.9,76.1
			C115.9,76.3,115.9,76.1,115.9,76.1z M80.4,66.4c0-3.6,1.8-6.3,3.6-8.1c4.5-4.5,11.5-4.7,16.4,0l0.2,0.2c0,0.2,0.2,0.4,0.4,0.4
			l1.8,2.5c3.6,7.7-1.6,16.7-10.8,16.7C85.6,78.1,80.4,72.7,80.4,66.4z M115.9,56.8l-0.7,0.4L115.9,56.8z M82.8,43.3L82.8,43.3
			L82.8,43.3z M102.6,42.8L102.6,42.8z M82.4,90.5c0,5.2-0.2,9.9,5.2,12.8c7,3.6,14-1.4,14.8-7.4c0.4-2.3-0.4-4-0.4-5.9
			c1.6,1.3,2,4.5,6.7,5.9c4,1.3,8.1-0.2,10.1-2.2c4.5-4.3,4.7-11-0.7-15.5c-0.7-0.5-1.3-0.7-1.8-1.6c4.9,0,7.2,0.2,9.9-2.2
			c2.3-2,4-4,3.8-8.3c0-3.6-2-6.3-4.1-7.9c-4-2.7-5.2-1.4-10.3-1.4c1.3-1.3,2.5-1.6,3.6-2.7c7-7.6-0.2-19.4-9.7-17.1
			c-2.5,0.5-4.3,2-5.8,3.8c-0.5,0.5-0.4,0.5-0.7,0.9l-0.7,0.9c0-4.9,0.4-7.4-2-10.1c-6.3-7.7-16.9-3.2-18,4.5
			c-0.4,2.5,0.2,3.8,0.2,5.9c-1.1-0.9-2.5-4.7-7-5.9c-4.3-1.3-7.9,0.5-9.9,2.5c-2,2.2-3.8,5.6-2.7,9.7c0.7,2.9,2.2,4.3,4.1,5.9
			c0.4,0.4,0.5,0.4,0.9,0.7l0.4,0.4c0.5,0.5,0.2,0.2,0.5,0.5c-4.7-0.4-6.7-0.9-10.3,1.6c-2.3,1.6-4.3,4.3-4.1,8.1
			c0,5.4,4.1,9.7,8.6,10.1c2.5,0.2,4.1-0.4,5.9-0.4l-1.8,1.3c-9.9,6.5-3.8,20.7,7.4,18.5C79.2,95.3,80.6,92.6,82.4,90.5z"/>
		<path class="st0" d="M128.7,23.7c-1.1-1.3-1.8-3.2-3.6-4.7c-7-4.9-14.8-1.1-16.4,5.8c-0.2,0.9-0.7,5.2,0.5,5.2
			c4.3,0.2,6.7-0.7,11.7,2.2c3.8,2.3,4.9,4.1,7,8.1c2.5-0.9,2.3-5.4,11.2-5.4c5.4,0,10.6,5.2,10.6,10.8c0,4.1-0.7,7.2-4.5,10.1
			c-1.8,1.4-6.5,3.6-9.7,1.8c0.5,2.9,2,2.5,2,9.4c0,3.2-1.1,6.1-2.3,8.1c-2.5,4.3-4,4.1-5,5.6c4.3,6.5,16.2,5.2,17.8-5.2
			c0.4-1.8-0.4-4.1-0.5-5.9c1.6,1.8,5.2,9.7,14,6.1c0.9-0.4,2.5-1.4,3.2-2.2c0.5-0.5,1.6-2.2,2-2.9c2.2-4.9,0.7-9-3.1-12.2l-2.3-1.8
			c4.1,0.5,7.7,0.5,11.3-2.7c7.7-7.2,1.3-17.6-6.7-17.6c-1.8,0-3.4,0.5-5,0.7l2.3-1.6C176.4,25,158.5,8,148.8,21.4l-1.1,1.3
			c0-2.9,1.6-6.8-2.5-11.2c-6.5-6.5-16-2.7-17.3,5.9C127.8,19.7,128.5,21.7,128.7,23.7z"/>
		<path class="st0" d="M36.3,70.1l0.2-0.7L36.3,70.1z M55.8,23L55.8,23C55.8,23.2,55.8,23,55.8,23z M36.3,70.1c0,3.2-1.6,9.5,4.7,13
			c4.7,2.5,10.3,1.4,13-2.5c-1.1-1.4-8.3-6.1-7-16.6c0.5-3.4,1.6-4.5,2-6.1c-6.8,3.2-18.2-6.1-13.5-16.2c1.6-3.2,5-6.3,9.4-6.7
			c4.9-0.2,9.7,2,10.8,5.4h0.7c0.4-1.8,1.6-3.2,2.7-4.7c6.5-7.7,15.8-5.2,16.2-5.8c0.9-0.9,1.6-9.5-6.1-12.6c-4-1.6-8.6,0-11,2.5
			c-0.9,0.9-1.3,2.2-2.2,2.7c0.2-2.5,1.6-6.3-1.3-10.1c-5.9-7.7-17.1-4.3-18.4,4.9c-0.2,1.6,0.5,4.3,0.5,5.9L36.5,23
			c-0.2-0.4-0.2-0.2-0.4-0.5c-1.6-2.5-3.1-4.3-6.3-5.4c-4-1.3-7.7,0-10.1,2.3c-4,3.8-4.3,9.9-0.4,14.2l1.8,1.6
			c0.9,0.7,1.4,0.9,2,1.6c-8.8-2-15.1,2.5-15.1,9.4c0,5.4,4.1,9.5,9,10.4c1.8,0.4,4.1-0.4,5.8-0.5c-1.1,1.4-4.9,2.3-6.3,7.2
			c-2.2,7.2,4,14.4,12.1,12.8C32.9,75.2,34.5,72.1,36.3,70.1z"/>
		<path class="st0" d="M91.8,176c5,0,4-4.7,4.9-10.8c1.8-11.5,6.8-25.9,12.1-36.2c0.9-1.8,1.6-3.6,2.7-5.4
			c4.7-8.3,6.8-11.9,12.2-19.8l6.8-9.2c1.6-2.2,3.1-3.1,3.1-5.6c0-2.7-3.6-4.9-6.7-1.6c-0.5,0.7-0.7,0.9-1.3,1.6
			c-0.5,0.7-0.9,0.9-1.4,1.6c-0.9,1.3-1.6,2.2-2.5,3.4c-0.9,1.3-1.6,2.2-2.5,3.4c-7.9,10.4-9.9,15.7-15.8,25.9
			c-1.4,2.3-5.4,12.2-6.8,15.5l-0.5-25.2c0-5.6-0.7-5.9-4.3-5.9c-4.3,0-3.1,6.8-3.1,11v42.5l-0.2-0.2l-9-13.3
			c-2.7-4.3-5.8-10.4-8.1-14.9l-4.7-10.6c-3.4-9.4-7.2-20-8.1-30.1c-0.9-9.9-6.7-5.4-7.2-4.5c-2.3,4,4.7,27.7,5.9,31.3
			c5.8,17.5,16.2,34.9,27,49.5C85.5,170,89.4,176,91.8,176z"/>
	</g>
</g>
</svg>
