<?xml version="1.0" encoding="utf-8"?>
<!-- Generator: Adobe Illustrator 23.0.3, SVG Export Plug-In . SVG Version: 6.00 Build 0)  -->
<svg version="1.1" id="Livello_1" xmlns="http://www.w3.org/2000/svg" xmlns:xlink="http://www.w3.org/1999/xlink" x="0px" y="0px"
	 viewBox="0 0 184.3 184.3" style="enable-background:new 0 0 184.3 184.3;" xml:space="preserve">
<style type="text/css">
	.st0{fill:none;}
	.st1{fill-rule:evenodd;clip-rule:evenodd;}
</style>
<g id="Layer_x0020_1">
	<line class="st0" x1="196.9" y1="44.8" x2="361.6" y2="72.1"/>
	<g id="_1216871916064">
		<path class="st1" d="M30.8,27.1c0,0.8-0.7,0.8-1.5,1.1c-0.8,0.3-1.1,0.5-1.8,0.8C14.3,34.6-1.8,40.7-15.3,46.3l-15.5,6.2v7.9
			c0.4,5,3.5,4,20.2,4c1.8,0,3.3-0.9,4.1-2.4c0-0.1,0.1-0.2,0.1-0.2l0.3-0.5c0.2,1.9,2.1,3.2,4.2,3.2h32.8v35.2h5.5V64.3h32.8
			c2.1,0,3.3-1,4.2-2.7l0.3-0.5c0.2,2.1,2.2,3.2,4.5,3.2h15.2c3.2,0,4.3-1.5,4.7-3.7v-8.2c-1.2-0.3-2.4-1-3.7-1.4l-11.8-4.8
			c-5.3-2.1-10.2-4.1-15.5-6.3c-5.3-2.1-10.2-4.1-15.5-6.3L38,28.2c-1.9-0.7-1.7-0.2-1.7-3.3h-5.5V27.1z"/>
		<path class="st1" d="M-7.3,101.6v13.1H-23v36.2h2.3c0,1.9,0,1.3-1.2,2.2c-2.1,1.6-1.3,5.8,1.8,6.2h0.9c3-0.3,4.2-4,2-6.1
			c-1.4-1.3-1.4,0.2-1.4-2.3h13.1c0,2.6-0.6,8,4.3,8.4h1c1.7-0.2,3-1.3,3.6-2.3c1-1.5,0.8-3.6,0.8-6h1.5c0,2.4-0.3,4.3,0.6,6
			c0.9,1.6,2.3,2.3,3.9,2.4h0.4c1.6-0.1,3.2-0.9,4-2.3c0.9-1.4,0.8-3.7,0.8-6H41c0,2.2,0.2,1.1-1.2,2.2c-2.2,1.8-1.2,6,2.1,6.2h0.6
			c2.9-0.2,4.4-4.1,2-6.1c-1.5-1.2-1.4,0.1-1.4-2.3h2.6v-36.2H41v-11.3c0-2.1-0.1-1.9-2.1-1.8C24.2,101.8,7.6,101.6-7.3,101.6z"/>
		<path class="st1" d="M57,106.3h17.9v44.1H57V106.3z M52.8,103.1v51.2h2.9v4.9h3.4v-4.9h13.7v4.9h3.2v-4.9h2.9v-51.9H53.6
			C53,102.4,52.8,102.5,52.8,103.1z"/>
		<path class="st1" d="M5.1,85.3c9.3,0,11.9-13.1,3.6-16.7C2,65.7-3.6,70.8-3.7,76.4C-3.8,81.1,0.2,85.3,5.1,85.3z"/>
		<path class="st1" d="M-7.3,101.6c0.4-1.4,1.3-2.3,1.6-3.4l0.3,1.3h3.7V87.7c-2,0-2.4,0.2-3.6,1.1c-4.6,3.5-8.1,9.7-9.5,15.4
			c-0.5,2.1-1.5,5.9-1.5,8.5h6.3c0-2.2,1.1-6.4,1.8-8.4L-7.3,101.6z"/>
		<path class="st1" d="M11.9,99.5h3.7l0.3-1.1c0.2,0.8,0.1,0.5,0.5,1.1h6.8c-0.8-3.4-6.8-11.8-10.3-11.8h-1V99.5z"/>
		<polygon class="st1" points="0.3,94.7 9.8,94.7 9.8,87.7 0.3,87.7 		"/>
		<path class="st1" d="M59.1,123.6v1.3h13.4c0-3,1.3-2.1-12.6-2.1C59.3,122.8,59.1,123,59.1,123.6z"/>
		<path class="st1" d="M59.1,128.4v1.3h13.4v-2.1H59.9C59.3,127.5,59.1,127.7,59.1,128.4z"/>
		<path class="st1" d="M59.1,114.9c0,0.6,0.2,0.8,0.8,0.8h12.6v-2.1H59.1V114.9z"/>
		<path class="st1" d="M59.1,138.3c0,0.6,0.2,0.8,0.8,0.8h11.8c1,0,0.8-0.7,0.8-2.1H59.1V138.3z"/>
		<path class="st1" d="M59.1,109.7c0,0.8-0.1,1.3,0.8,1.3h12.6v-2.1H59.9C59.3,108.9,59.1,109.1,59.1,109.7z"/>
		<path class="st1" d="M59.1,133c0,0.9-0.1,1.3,0.8,1.3h12.6v-2.1H59.9C59.3,132.3,59.1,132.4,59.1,133z"/>
		<path class="st1" d="M59.1,118.9v1.3h6.6c1.1,0,1.5,0.2,2.1,0.2l4.7-0.2v-1.8c-1.2,0-1.7-0.2-2.4-0.2l-3.1,0.2
			c-1.1,0-1.5-0.2-2.1-0.2l-3.6,0.2C60.1,118.4,59.1,117.6,59.1,118.9z"/>
	</g>
</g>
</svg>
