<?xml version="1.0" encoding="utf-8"?>
<!-- Generator: Adobe Illustrator 23.0.3, SVG Export Plug-In . SVG Version: 6.00 Build 0)  -->
<svg version="1.1" id="Livello_1" xmlns="http://www.w3.org/2000/svg" xmlns:xlink="http://www.w3.org/1999/xlink" x="0px" y="0px"
	 viewBox="0 0 184.3 184.3" style="enable-background:new 0 0 184.3 184.3;" xml:space="preserve">
<style type="text/css">
	.st0{fill-rule:evenodd;clip-rule:evenodd;}
</style>
<g id="Layer_x0020_1">
	<g id="_1216675694880">
		<path class="st0" d="M22.7,128.3v2.8c3,4.2,3.5,9.4,7.7,12.9c4.2,3.5,10.8,2.6,17,2.6c13.2,0,26.3,0,39.5,0
			c16.7,0,43.3,0.6,59.2,0c6.7-0.3,9.2-3.4,11.5-8.1c1.7-3.5,6.6-11.7,0.1-13.1l-118.3-0.2C29.5,125.2,26.5,123.9,22.7,128.3z"/>
		<path class="st0" d="M81.6,116.7c-2.3-1.4-6.4-8.7-7-13.8c-0.8-6.7,1.3-12.8,4.2-17.4c8.8-13.8,17-13.9,23.5-18.9
			c-9.8-4.4-21.5-5-32.6-5c-40.9,0.1-50.8,31.6-41.1,50.3c3.3,6.4,6,5,14.5,5C54.9,116.8,70.2,117.6,81.6,116.7z"/>
		<path class="st0" d="M161.6,65.5v-3.1c-1.8-2.4-2.1-3.7-5.8-4.4c0.7-6.1-3.7-10.4-8.9-7.5c-3.6,1.9-3.2,8.5-5.4,11.9
			c-1.1,1.8-7.1,6.8-9.8,6.8c-15.1-0.4-27.6,3.4-39.1,12.1c-5.1,3.9-13.1,14.2-9.3,24c3.2,8.3,12.3,12.4,23.9,9.1
			c10.1-2.9,15.1-8.3,20.2-14.4c2.6-3.2,4.5-6.4,6.6-10.6c3.9-7.9,3.3-11.7,4.1-13.3c0.9-1.8,8-6.1,11.2-6.3
			C157,69.5,157.5,72.5,161.6,65.5z"/>
		<path class="st0" d="M121.8,116.4c6.7-0.2,13.4-0.1,20.1-0.1c10.1,0,11.9,1.2,17.5-2.1l-0.2-4.8c-5.4-3.7-6.5-2.1-14.5-4.4
			c-0.6-3-1.9-6.7-3.8-9.2c-0.6-0.8-0.3-0.5-1-1c-1.8,4.5-9,13.9-12.6,16.9L121.8,116.4z"/>
		<path class="st0" d="M113.2,58.2c4.8-4,6.7-4.1,11.5-3.8c3.5,0.3,6.1-0.9,6.6-4.1c0.5-3.7-1.8-5.3-4.6-5.9c0.5-5-3.1-8.6-7.4-6.1
			c-3.4,1.9-2,6.7-4.6,10.2c-6.9,8.9-15.6,2.2-21.9,7.1c6.5,1.1,12.7,3.5,18.3,6L113.2,58.2z"/>
	</g>
</g>
</svg>
