<?xml version="1.0" encoding="utf-8"?>
<!-- Generator: Adobe Illustrator 23.0.3, SVG Export Plug-In . SVG Version: 6.00 Build 0)  -->
<svg version="1.1" id="Livello_1" xmlns="http://www.w3.org/2000/svg" xmlns:xlink="http://www.w3.org/1999/xlink" x="0px" y="0px"
	 viewBox="0 0 184.3 184.3" style="enable-background:new 0 0 184.3 184.3;" xml:space="preserve">
<style type="text/css">
	.st0{fill-rule:evenodd;clip-rule:evenodd;fill:#FFFFFF;}
</style>
<g id="Layer_x0020_1">
	<g id="_1216946077472">
		<path class="st0" d="M85.9,65.5C86.6,72.2,94,76.6,100,79c7.1,2.8,15.2,4,23.7,3.9c8.1-0.1,16.8-1.6,23.3-4.6
			c5.3-2.4,13.3-7.2,12.4-14.8c-0.8-6.7-8.1-11.2-14.2-13.5c-13.8-5.3-33.2-5.3-46.8,0.7C92.9,53,85.1,58,85.9,65.5z"/>
		<path class="st0" d="M98.4,94c1.2-7.6-6.5-13-11.9-15.3c-13.8-5.9-33-6.5-46.9-1.1c-6.1,2.4-13.3,6.6-14.4,13
			c-1.4,7.7,6.7,13.2,12,15.4c14.1,5.9,32.5,6.3,46.8,1C90,104.8,97.4,100.3,98.4,94z"/>
		<path class="st0" d="M25.6,102.7c-6.7,16.2,33.3,29.3,61,16.9c5.7-2.6,13.6-8.4,11.7-15.6c-0.3-0.9-0.2-0.6-0.6-1.1
			c-0.8,0.6-0.7,0.9-1.6,1.6c-4.6,3.3-7.9,5.1-13.6,7c-15.5,5.2-40.4,4.2-53.9-6.1C27.4,104.5,26.7,103.5,25.6,102.7z"/>
		<path class="st0" d="M25.5,116.6c-1.1,4.8,0.3,8.3,2.8,10.9c7.9,8.1,22.2,10.8,33.8,10.7c10.9-0.1,26.5-3,33.4-11
			c1.7-2.1,4.6-7,2.3-10.6l-3.4,2.8c-8.8,6.7-21.8,8.8-32.9,8.8c-7.6,0.1-14.2-0.9-20.9-3.1c-2.9-0.9-5.7-2.1-8.2-3.6
			C27.1,118.4,27.4,117.8,25.5,116.6z"/>
		<path class="st0" d="M102.4,93.5c3.3,1.8,13.5,2.9,17.8,3.1c6.4,0.3,12.8-0.4,18.8-1.8c8.9-2.1,23.5-8.9,20-19.7
			c-1.7,1.3-3.1,2.7-5.5,4.1c-14.7,8.5-30.8,9.1-47.3,5.7c-2.7-0.5-5-1.6-7.3-2.1c0.8,1.5,1.8,2.6,2.6,4.7
			C102.2,89.6,102.1,91,102.4,93.5z"/>
		<path class="st0" d="M102.3,107.3c2.7,0.5,5.5,1.5,8.5,2c13.9,2.1,30.8,1.1,42.3-7.1c5.3-3.7,7-7.6,5.8-13.6
			c-0.8,0.5-1.8,1.5-2.6,2.1c-0.9,0.8-1.5,1.2-2.6,1.9c-14.9,9.7-36,9-52.1,4.7c-1.7,1.7-0.7,2.3-0.1,4.2
			C102.2,103.3,102.3,105.3,102.3,107.3z"/>
		<path class="st0" d="M102.3,121.1c8.2,1.6,7.8,2.5,17.8,2.9c13.1,0.5,42.9-4.4,38.8-21.7c-1.8,1.2-3,2.7-5.2,4.1
			c-10.1,6.4-25.5,8.5-37.3,7.4c-9.7-0.8-10.1-2-15.1-2.9c-1.3,3.5-0.8,1.2,0.3,4.5C102.2,117.2,102.4,119.1,102.3,121.1z"/>
	</g>
</g>
</svg>
