<?xml version="1.0" encoding="utf-8"?>
<!-- Generator: Adobe Illustrator 23.0.3, SVG Export Plug-In . SVG Version: 6.00 Build 0)  -->
<svg version="1.1" id="Livello_1" xmlns="http://www.w3.org/2000/svg" xmlns:xlink="http://www.w3.org/1999/xlink" x="0px" y="0px"
	 viewBox="0 0 184.3 184.3" style="enable-background:new 0 0 184.3 184.3;" xml:space="preserve">
<style type="text/css">
	.st0{fill-rule:evenodd;clip-rule:evenodd;fill:#FFFFFF;}
</style>
<g id="Layer_x0020_1">
	<g id="_1216690675664">
		<path class="st0" d="M132.6,115.7l3.4-0.6c1.4,2.3,0.5,0.5,1.5,3.2c-0.8,0.3-3.3,0.4-4.3,0.4L132.6,115.7z M64.9,111.2
			c8.4-1.7,26-0.4,34.7,0.9c2.3,0.4,5.1,1.1,7.6,1.6c4.3,0.9,7.7,1.4,12,1.8l4,0.4c1.3,0.1,8.4-0.2,8.7-0.1l0.5,2.8
			c-17.5-0.2-28.3-5.5-46.4-3.1c-2.4,0.3-4.9,0.8-7.3,1.3c-1.8,0.4-5.3,1.5-6.7,1.6l-1.5-5C67.7,113.3,66.1,112.7,64.9,111.2z
			 M63.4,100.8c3.7-0.7,13.7-0.2,18.1,0.3c5.7,0.5,11.4,1.3,16.7,2.7c7.9,2,15.7,3.9,23.9,4.9c3.3,0.5,5.6,0.5,8.6,0.9l0.9,5.2
			c-5.8,0.5-11.6-0.4-17.2-1.1c-5.5-0.7-10.3-2.3-15.6-3.2c-13.3-2.2-21.9-1.4-34.8-0.6C62.9,108,63.3,102.8,63.4,100.8z
			 M36.7,114.7c1.7,0.7,0.5,1.8,0.5,2.2c0.2,0.5,2.9,2.4,2.9-4.4c0-2.7-0.1-6.6,1-8.8c1.5-3.2,4.9-0.9,4.2,0.9
			c-0.5,0.9-2.4,0.6-1.7-1.2c0.2-0.5,0.1,0.3,0.2-0.5c-2.4-0.5-2.1,3.3-2.1,4.8c0.1,3.7,1,10.1-3.5,10.6c-1.1,0.2-1.6-0.4-2-1.3
			C35.6,116,35.6,115.2,36.7,114.7z M57.2,103c0,0,1.2,2.3-0.7,2.1c-3.1-0.4,2.8-6.8,4,0.6c0.4,2.4,0.4,5.1,0.4,7.2
			c-0.1,2.2,0.3,5.9,3,4.2c-0.1-0.9-0.7-0.6-0.2-2.2c2.4-1,1.6,3.3-0.3,3.4c-2.2,0.1-3.3-1.5-3.9-3.4C58.9,113,60.3,101.2,57.2,103z
			 M83.2,90.8l4.1,0.8l1.8,6c0.3,0.3,1,2.3,1.1,2.9c-7.7-0.9-12.1-1.4-20-1.4c-2,0.1-4.8,0.4-6.6,0.2c0.5-1.9,1-2.2,3.2-2.4
			c0.3-2.9,0.1-4.8-0.1-7.6C71.6,89.2,78.9,89.8,83.2,90.8z M110.6,85.8l15.1-3.6l1.8,11.4c-1.9-1-2.8-1.7-5.6-0.9
			c-3.1,0.9-1.2,1.7-5.2,0.6c-1.6-0.4-3.7-1.2-5.1-1.8c-0.9-0.4-0.6-0.6-0.9-2.6C110.7,88.1,110.4,86.5,110.6,85.8z M100.3,88.2
			c1.6,0.1,7.7,3.4,9.7,4.1l0.6,4.5l-14.5-4.7l-8.5-2.2l-1.4-6.6c2.1,0.3,5.2,1.5,7.3,2.2c1.1,0.4,2.2,0.9,3.3,1.3
			C97.9,87.2,99.6,87.5,100.3,88.2z M61.4,78.6c3.8,0.1,8.7,0.9,12.3,1.6c2.3,0.5,9.9,1.8,11.4,2.8l1.5,6.7
			c-6.8-1.1-13-1.9-20.2-1.9c-1-3.1-1.5-4.7-3.4-7.3C62.5,79.7,61.9,79.2,61.4,78.6z M52.6,69.1c6.3-0.4,14.6,0.2,20.6,1.4
			c2.9,0.6,5.9,1.6,7.9,3.1c2.7,2,2.6,3.7,3.6,7.4c-1.1-0.1-3.3-0.8-4.5-1.1c-1.6-0.4-3-0.6-4.6-0.9c-3.1-0.7-6.3-1.2-9.5-1.5
			c-1.7-0.2-3.5-0.3-5.2-0.4c-2.4-0.1-1.2-0.2-3.9-1.6C54.6,74.2,52.1,72.2,52.6,69.1z M36.5,109.2c-1.3,3.5-3.1,4.1-6.2,4.3
			c-0.7,1.1-1.5,3.7-1.8,5.1c-0.4,1.6,0.1,1.5-1.3,2.1c-0.8,0.4-1.6,0.9-2.2,1.2l3-1.3c-1.2,8.1-1,13.9,3.7,19.3c1.7,2,4,3.7,7,5.1
			c2.9,1.3,7.2,1.3,10.6,1.6l0.4,4.2l0.4,3.5c0,0.3-0.1,1,0.2,1.2c0.2-0.4,0.3-4,0.5-4.9c0.1-1.1-0.1-3.2,0.5-3.9
			c0.1-0.1,6.1-0.9,7.2-1.1c1.7-0.5,4.7-1.6,6-2.5c1.9-1.3,3.3-2.1,4.7-3.6c0.5-0.6,0.6-0.5,1-1.1c0.3-0.5,0.5-0.9,0.8-1.4
			c0.5-1,0.9-2.1,1.3-3l0.6-3.2c0.6-4.5-0.1-7-0.6-11.2l7.7-1.6c2.6-0.8,9.7-1.3,13-1.5c11.4-0.5,27.2,3.9,39.7,3.5l1,6
			c-3.9-2.1-8.4-0.4-9.5,3.2c-0.1,1,0.1,1.5,0.4,2.3l0.5,0.6c1.4,0.7,2.3,1.4,4.4,1c0.8-0.2,1.3-0.3,2-0.6c0.8-0.4,1.3-0.8,1.9-1
			l0.6-0.8c0.5-1.1,0.7-1.2,0.7-2.8c-0.2-0.8-0.4-1.7-0.4-2.6c-0.3-0.4-1-4.9-1.1-5.4l4.3-0.3l0.1,1.2c0.2-0.2,0.3-0.2,0.5-0.6
			c0.2-0.2,0.3-0.5,0.5-0.7c0.4-0.4,1.2-0.4,1.8-0.6c4.4-0.8,6.6-2.4,14.1-3.1c0.9-0.1,1.8-0.2,2.7-0.2c0.8,0,2.2,0,2.8-0.3
			c-3.7-0.1-7.4-0.1-11.1,0.5c-3.3,0.6-6.3,1.7-9.6,2.1c0.1-0.6,0.3-1.3,0.2-2c-0.1-0.9-0.5-1.2-0.2-1.7l9.1-2.2
			c4.2-1,6.2-0.9,10.5-0.9c-2.6-1.5-11.7,0.4-14.7,1.1l-5.2,1.1c-1.3,0.2-1.3-0.6-4.1-2c-0.5-0.3-0.9-0.5-1.4-0.8
			c-0.2-0.2-0.3-0.2-0.6-0.5l-0.6-0.7c7.3,0.4,16-0.2,22.2-2.5c-0.7,0.1-1.9,0.4-2.7,0.6c-1,0.2-1.9,0.4-2.9,0.5
			c-5.4,0.8-10.7,0.8-16.1,0.5c-1.4-0.1-2.2,0.2-2.2-1.2l-0.5,0.9c-7.2-0.7-13.6-1.9-20.4-3.4c-3.2-0.7-6.4-1.5-9.5-2.4l-9.7-2.1
			c0-0.1-0.1-0.2-0.1-0.2l-0.5-1.2c-0.2-0.7-0.4-0.9-0.3-1.6c-0.8-0.9-1.4-4.4-1.6-5.8c0.7,0.2,6.8,1.5,7.5,2c1.1-0.1,7.9,2.5,9.3,3
			c-1.1,1-2.4,1.2-2.8,3.2c-0.7,3.5,4.2,4.7,7.5,2.9c1.4-0.8,2-1.6,2.4-3c0-0.1,0.1-0.3,0.1-0.3s0.1-0.1,0.1-0.2l0.1-0.3
			c3.3,0.9,6.3,1.8,9.6,2.5c3.2,0.7,7.2,1.6,10.5,1.8c5.8,0.3,10.2,1.1,16.8,0.1l4.9-1.1c-2,0-4.7,1.1-11.1,1
			c-8.9-0.1-18-2-26.4-4.4c-1.5-0.4-3.3-1.1-4.7-1.4l-0.6-4.6l7.1,2.2c-0.3,1.3-0.7,2.3,0.4,3.4c0.7,0.8,1.7,1.2,3.2,1.3
			c3.1,0.2,4.4-1.1,5.9-3c3.9,0.1,16.1,1.4,19.4,0.1h-7.6c-2.1,0-9.4-0.9-11.6-1.1c-0.2-1.7-1-5.3-0.9-6.7c-0.3-0.4-0.4-1.4-0.4-2.1
			c-0.1-0.9-0.5-2-0.3-2.9c-0.1-0.1-0.1-0.1-0.1-0.1l-1.1-6.4l-0.2-0.8l-16.7,3.6l1.3,10.3c-0.7-0.1-4.9-2.2-5.7-2.6
			c-1.9-1-9.9-4-11.9-4.6l-6.2-2c-0.5-1.1-0.7-3.6-1.1-4.9c-3.2-9.5-24.6-9.1-32.4-8.9l0.1-9.9c-0.1-4.5,0.2-8.7,0.1-13.4
			c0-2.8,0.8-0.7,0.7-2.7c-0.1-0.9-0.3-2.1-0.4-3c-0.6-5.8-0.4-3.6-2.1-4.6L50.9,33l2.2-0.1c0.2-1.9-0.2-1.5-0.2-1.6l-0.6-1.1
			l-1.4-0.1l-0.1-1.6h-1.5l-0.2,1.6l-1.3,0.1c-0.1,0-0.1,0.1-0.1,0.2l-0.4,0.8c-0.4,0.7-0.4,0.6-0.3,1.8h2.1l-0.1,0.9
			c-0.7,0.4-1.3,0.2-1.6,0.9l-0.5,6.4c-0.2,1.8,0.2,1,0.6,1.7c0.3,0.5,0,14.9,0,15.7c-0.1,2.7,0.2,6.7-0.1,9.2
			c-4.2,0.3-8.1,0.7-12.1,1.3c-1.7,0.2-9.5,1.2-11.3,1.7c1.5,0.1,4.1-0.4,5.9-0.5c1.9-0.2,3.7-0.4,5.7-0.6c3.4-0.2,8.5-0.8,11.9-0.6
			c0.1,4.6-5.6,8.4-9,9c-4.3,0.8-10.3,2.1-13.9,3.8c0.9-0.1,2.2-0.6,3.3-0.9c3.6-0.9,6.7-1.8,10.6-2.1c-1.8,2.2-2.2,2.2-3.5,5.4
			c-0.9,2.2-1.3,4.6-1.5,7.2c-1.4,0.2-7.4,2-8.3,2.5l8.2-1.9v4.5c1.9,0.2,2.8,0.4,3.6,1.9c0.6,1.1,0.9,3.5,0.5,4.7
			c-2,1-8.1,2.1-11.6,3.8c1.6-0.2,3.9-1.2,5.7-1.6c1.8-0.5,4.1-1.2,6-1.4C37.5,105.7,37.1,108.2,36.5,109.2z"/>
		<path class="st0" d="M96.2,92.1l14.5,4.7l-0.6-4.5c-2.1-0.7-8.1-4-9.7-4.1H96C95.7,89.4,96.4,90.7,96.2,92.1z"/>
		<path class="st0" d="M134.4,125.3c-0.1,0.9,0.2,1.7,0.4,2.6l0.2,0.3c0.1,0,0.2,0.3,0.2,0.4c0.9-0.2,3.8-0.5,4.5-0.9
			c0.5-2.5-0.1-5.8-2.7-6.6c-0.7-0.2-1.2-0.3-1.8-0.1C134.4,122.2,134.6,124.1,134.4,125.3z"/>
		<path class="st0" d="M133.1,118.7c1.1,0,3.5-0.1,4.3-0.4c-1-2.7-0.1-0.9-1.5-3.2l-3.4,0.6L133.1,118.7z"/>
	</g>
</g>
</svg>
