<?xml version="1.0" encoding="utf-8"?>
<!-- Generator: Adobe Illustrator 23.0.3, SVG Export Plug-In . SVG Version: 6.00 Build 0)  -->
<svg version="1.1" id="Livello_1" xmlns="http://www.w3.org/2000/svg" xmlns:xlink="http://www.w3.org/1999/xlink" x="0px" y="0px"
	 viewBox="0 0 184.3 184.3" style="enable-background:new 0 0 184.3 184.3;" xml:space="preserve">
<style type="text/css">
	.st0{fill-rule:evenodd;clip-rule:evenodd;}
</style>
<g id="Layer_x0020_1">
	<g id="_1216683939648">
		<path class="st0" d="M132.1,124.3c0.4,2-3.4,8.8-4.3,10.3c-1.6,2.6-4.5,6.2-6.8,8.1l-2,1.7c-0.7,0.6-1.4,1.1-2.1,1.6
			c-1.8,1.2-3.2,2.3-5.1,2.3H78.7c-1.8,0-1.7,0-3-0.8C68.1,143,62,136,59,127.6c-1.4-3.8-2.3-8.1-2.4-12.5c0-0.7-0.1-3.1,0.2-3.7
			c0.2-0.6,0.5-0.5,1.2-0.4c0.6,0.1,1.1,0.2,1.7,0.2c6.1,0.8,11.6,2.6,17,5.2c5.3,2.4,5.4,3.2,9.3,5.3c12.8,6.9,26.9,10.5,41.2,4.7
			c0.9-0.4,1.7-0.7,2.6-1.2C130.4,124.8,131.3,124.1,132.1,124.3z M56.5,90.3c-1-4.3,11.5-15.3,13-12.8C70.9,80,60.2,91.7,56.5,90.3
			z M74.9,69.9c-2.6,0.8-7.7,4.1-10,5.8c-1,0.7-1.9,1.5-2.8,2.3c-0.5,0.4-0.9,0.9-1.3,1.2c-3,2.6-6.1,6.6-8.2,10.1
			c-14.5,23.8-6.3,53.9,16.9,67.7c1.8,1.1,1.5,1.1,3.9,1.1h41.6c2.4,0,2.3,0,4.1-1.1c2.9-1.8,3.6-2.3,6.2-4.3
			c4.4-3.3,9.1-9.1,11.8-14.1c8.7-15.8,8-34.6-0.9-49.2c-1.2-1.9-3-4.5-4.4-6.1c-0.9-0.9-1.6-1.9-2.5-2.8c-4-4.1-10.1-8.5-15.4-10.6
			c-0.3,0.4-0.2,1.2-0.6,2.1c-0.3,0.6-0.7,1.3-1.1,1.7c-0.6,0.8-2,1.7-3.5,2c-2.1,0.4-8.3,0.1-10.8,0.1v49.3
			c-1.2-0.2-6.1-2.2-7.1-2.9V75.9c-2.7,0-8.6,0.3-10.9-0.1C77.2,75.2,75.1,73,74.9,69.9z"/>
		<path class="st0" d="M150.7,64.4c2.3-1,6.3,2,7.3,4c0.5,1.1,0.4,2.2-0.6,2.6C154.1,72.2,147.3,65.7,150.7,64.4z M104.9,48.9
			c3,0.1,14.6,0.7,16.9,1.3c4.8,1.1,7.7,4.3,8.6,9.5c0.5,3-0.3,5.2,0.7,8.3c0.5,1.5,1.5,3.5,2.4,4.5c3.7,3.7,4.6,2.3,5.1,4.1
			c0.7,2.7,2.2,5.1,4.5,6.6c9.3,6.3,21.3-2.6,17.7-13.2c-2.4-7.2-11.1-10.2-17.5-6c-2.8,1.9-3,3.4-4.1,4.7
			c-3.1-2.1-1.3-7.1-2.8-12.4c-2.4-8.6-8.7-12.6-17.5-13.2c-4.7-0.3-9.5-0.6-14.2-0.9L104.9,48.9z"/>
		<path class="st0" d="M80.2,59.1c0.8-0.3,8.2-0.1,9.7-0.1c1.1,0,3.9-0.2,4.7,0.3c1.2,0.7,0.9,2.7-0.5,3.1
			c-0.6,0.2-13.4,0.4-14.3-0.3C78.7,61.4,78.9,59.5,80.2,59.1z M76.4,70.4c0.7,4.8,6.1,4,9.4,4h20.2c2.6,0,3.7,0,5.1-1.5
			c1.5-1.6,1.3-2.9,1.3-5.4c0-1.8,0.2-4.9-0.1-6.6c-0.7-4.9-6.2-4-9.4-4H82.7c-2.7,0-3.5,0.1-5.1,1.6c-1.5,1.4-1.3,3.1-1.3,5.4
			C76.4,65.6,76.2,68.7,76.4,70.4z"/>
		<path class="st0" d="M88.2,38.8c0.9-0.5,1.7,0.1,1.8,0.8c0.2,0.6,0.1,2.2,0.1,2.9c0,1.5,0.5,4.6-0.7,5.1c-2.3,0.9-1.9-2.3-1.9-3.8
			C87.5,41.2,87.1,39.5,88.2,38.8z M103.8,55.8c0.3-1.2,0.2-12.7,0.1-14.7c-0.2-6-6.4-5.1-9.6-5.1c-2.1,0-5.2-0.3-6.8,0.6
			c-1.5,0.8-2.6,2.3-2.6,4.6c-0.1,1.8-0.2,13.7,0.1,14.6H103.8z"/>
		<path class="st0" d="M25.9,47.7c-0.3-2,5.9-1.9,6.3-0.1C32.6,49.6,26.1,49.5,25.9,47.7z M69.7,50c0.3-1.2-1.3-1-2.3-1.1l-22.5-2.3
			c-4.2-0.5-8.5-0.9-12.8-1.3c-1.8-0.2-4.7-0.7-6.3-0.2c-3.8,1.4-4.1,6.6-0.8,8.6c1.8,1.1,3.9,0.5,6.1,0.3
			C35.3,53.7,68.8,50.4,69.7,50z"/>
		<path class="st0" d="M43.9,28.8c-0.3-2.4,5.6,0.2,5.7,2.1C49.7,33.2,44.1,30.7,43.9,28.8z M70.3,43.8c-0.2-0.8-2.4-2.2-3.2-2.8
			l-6.8-5.1c-1.2-0.9-2.3-1.7-3.5-2.6L50,28.3c-1-0.8-2.2-1.9-3.8-2.1c-5.6-0.8-7.8,7.1-2.5,9.2c2.3,1,15,5,17.8,6l6.6,2.2
			C69.1,44,69.7,44.5,70.3,43.8z"/>
		<path class="st0" d="M46.4,63.9c-1.1,1.7-7.2,3-5.7,0.5c1.1-1.7,5.1-2.8,5.7-1.5C46.6,63.1,46.5,63.7,46.4,63.9z M69.4,57.2
			c0.3-0.3,0.3-0.9-0.4-1c-0.2,0-1,0.2-1.2,0.2l-21.4,4.2c-1.3,0.3-3.5,0.6-4.7,1c-2.7,1-4.3,4.4-2.2,7.3c0.6,0.9,1.9,1.9,3.8,2
			c1.7,0,3-0.9,4.2-1.6L69.4,57.2z"/>
		<path class="st0" d="M72.6,142.5l-10.4-20.1c-1.1-2.1-2.2-4.7-3.5-6.6c0.3,4.3,3.1,11.8,4.7,15.4c1.1,2.2,2.5,4.6,3.9,6.3
			c0.8,1,1.5,1.9,2.3,2.7C70.3,140.9,71.7,142.1,72.6,142.5z"/>
		<path class="st0" d="M93.6,115.3c0.7-1.1,0.4-12,0.4-14.8c0-1.2,0.5-4-1-3.9c-1.4,0.1-0.9,3-0.9,4.2c0,2.8-0.3,13.5,0.3,14.6
			L93.6,115.3z"/>
	</g>
</g>
</svg>
