<?xml version="1.0" encoding="utf-8"?>
<!-- Generator: Adobe Illustrator 23.0.3, SVG Export Plug-In . SVG Version: 6.00 Build 0)  -->
<svg version="1.1" id="Layer_1" xmlns="http://www.w3.org/2000/svg" xmlns:xlink="http://www.w3.org/1999/xlink" x="0px" y="0px"
	 viewBox="0 0 184.3 184.3" style="enable-background:new 0 0 184.3 184.3;" xml:space="preserve">
<g id="Layer_x0020_1">
	<path d="M127.4,50.1c-0.5-0.5-0.5-0.7-0.9-1.3c-1.3-1.3-1.1-0.9-0.5-2.9c1.1-4,3.1-10.6,3.8-14c-3.6,0.5-7.2,3.1-9,4.7
		c-0.9,0.9-2.2,2.5-3.1,3.8c-5.6,9,0.4,15.3-9.4,25l-41,41.2c-1.6,1.6-2,2-3.6,3.4c-1.1,0.9-2.7,1.8-4.3,2.5
		c-4.9,2.2-7.7,1.4-11.7,2c-7.6,1.1-13,6.3-15.3,12.2c-1.4,3.6-1.8,7.9-0.7,11.9c0.9,2.9,2.7,6.8,5,8.6l4.1-15.5l10.6-3.4l6.3,7
		c1.3,1.3,1.1,0.9,0.5,2.9c-0.9,3.8-3.1,10.6-3.8,14c7-1.4,12.4-6.8,14.2-13.3c1.3-4,0.5-7.9,1.8-11.9c1.3-3.8,3.2-6.3,5.2-8.3
		c2.3-2.3,4.5-4.7,6.8-7l27.4-27.4c2.9-2.9,7.2-7.7,10.4-10.3c1.1-0.9,2.7-1.8,4.3-2.5c4.9-2.3,7.7-1.4,11.7-2
		c7.4-1.1,13.1-6.3,15.3-12.2c1.4-3.8,1.8-7.9,0.7-11.9c-0.9-3.1-2.7-6.7-5-8.6l-4.1,15.5l-10.6,3.4L127.4,50.1z M136.2,148
		c-2.2-2.2-4.1-4.1-6.1-6.1c-4.1-4.1-8.1-8.1-12.2-12.2c-0.7-0.7-23.8-23.9-24.7-24.5L107.1,91c0.5,0.4,5.2,5.2,6.1,6.1l36.9,36.7
		c1.1,1.1,2.2,2,3.1,3.1c0.4,0.5,0.9,1.1,1.3,1.8c1.1,1.8,1.1,4.1,0.2,6.1c-0.7,1.6-2.2,2.7-3.4,4.1
		C145.8,154.3,142.2,153.8,136.2,148z M62.4,67.8l20.3,20.3l7.6-7.6c-2.2-2.3-6.3-6.3-8.8-8.8L70,60.4L62.4,67.8z M28.9,71.7
		L28.9,71.7L42.1,85c0.4-0.2,5.4-4.9,5.8-6.1c0.4-1.3-0.4-2.2-0.5-3.1c-1.3-4.5,3.4-8.5,7.7-6.5c2.3,1.1,3.4-0.5,4.9-2.2
		c1.3-1.3,2.5-2.5,4-4c1.4-1.4,2.5-2.5,4-4c0.5-0.5,3.8-3.8,4-4c-0.2-3.6-0.2-5.8,1.1-9c1.1-2.7,2.3-4.5,4.1-6.3
		c0.5-0.5,0.7-0.7,1.3-1.3c1.6-1.3,2.9-2,4.9-2.9c3.1-1.3,5.4-1.3,9-1.1c-1.1-1.1-5.8-2.5-7.7-2.9c-0.7-0.2-2.5-0.2-3.1-0.4h-3.1
		c-0.7,0.2-1.6,0.2-2.5,0.4c-0.9,0.2-1.6,0.4-2.3,0.5c-1.6,0.4-2.9,0.9-4.3,1.6c-2.7,1.3-4,2.2-6.1,4c-1.3,1.1-5.8,5.6-6.7,6.5
		L44.6,56.2c-1.6,2.2,2.5,5-0.9,8.8c-0.5,0.5-0.9,0.9-1.6,1.3c-3.4,1.8-5.2-0.7-7-0.2c-0.9,0.2-1.3,0.9-1.6,1.3
		c-0.5,0.5-0.9,0.9-1.4,1.4C31.3,69.4,29.7,71.4,28.9,71.7z"/>
</g>
</svg>
