<?xml version="1.0" encoding="utf-8"?>
<!-- Generator: Adobe Illustrator 23.0.3, SVG Export Plug-In . SVG Version: 6.00 Build 0)  -->
<svg version="1.1" id="Livello_1" xmlns="http://www.w3.org/2000/svg" xmlns:xlink="http://www.w3.org/1999/xlink" x="0px" y="0px"
	 viewBox="0 0 184.3 184.3" style="enable-background:new 0 0 184.3 184.3;" xml:space="preserve">
<style type="text/css">
	.st0{fill-rule:evenodd;clip-rule:evenodd;fill:#FFFFFF;}
</style>
<g id="Layer_x0020_1">
	<g id="_1216606367936">
		<path class="st0" d="M66.4,57.5c-1.7,1.2-4.5,1.9-6.6,3.7c-7.4,6.1-4.3,18.9-4.4,20.6c-0.1,2.5,0.1,0.5-1.8,2.5
			c0.1,9,3.8,5.9,5.6,12.9c1.7,6.8,5.5,11.9,5.7,12.7c2,8-14.4,7.8-23.9,12.3c-9.7,4.6-9.1,8.8-10.8,13.4v7.4c1,2.2,0.5,2.7,2.9,4.1
			c14.6,8.8,33.3,8.9,36.9,10.2h14.6c3.2-1.1,14-1,25.5-5.2c9.4-3.4,14.4-4.2,13.5-16.3c-0.7-9.1-6.6-12.7-14.4-15.5
			c-3.9-1.4-8-1.9-12.1-3.1c-13.5-3.8-6.3-8.8-4.3-13.7c1.1-2.6,1.5-4.9,2.1-7.7c0.5-2.3,6.3-6.7,4.2-12.3
			c-2.8-7.4,1.7-10.6-3.5-18.1c-2.6-3.7-6.6-4.6-12.2-7.1C76.6,55.5,73,56.6,66.4,57.5z"/>
		<path class="st0" d="M68.6,51.9c1.1,1.2-0.6,0.6,1.8,0.7c0.1,0,2.1-0.2,2.3-0.2c5.3-11.6,16.3-18.5,29-20.6
			c20.2-3.5,43.3,5.9,48,25c4.6,19.2-11.8,28.1-23.8,37.7c-2.6,2-4.4,3.2-6.8,5.1l1.8-6.1c-7.2,0.5-11.7,1.1-19,0.1
			c-1,0.5-2.8,2.4-3.3,3.6c6.4,0.9,9.6,1.5,16.4,1l-4.4,12.9c3.2-1.1,16.1-11.9,19.1-14.3c2-1.6,4.1-3.3,6.4-4.9
			c7.2-5.2,12.3-9.6,15.7-17.8c1.3-3.1,1.3-6.2,2.2-8.8v-6.7c-0.9-1.8-1.3-4.9-2.2-7.1c-9.1-21.8-31.7-22.6-36.4-24.4H105
			c-2.5,1-8.5,1.7-12.3,3.1c-3.6,1.3-7.7,3.3-10.3,5.1C76.2,39.3,72.1,43.9,68.6,51.9z"/>
		<path class="st0" d="M116.5,79.4c-1.6,0.3-3,0.1-4.1-0.4c-1-4,3.7-21,4.6-26.3l-9.3,0.1c-1.2,2.7-5.1,21.2-5.3,24.6
			C101.8,90.1,117.3,87.1,116.5,79.4z"/>
		<path class="st0" d="M111.7,39.3c-6.1,3.8-1.5,11.5,4.6,9.3C122.8,46.3,117.9,35.3,111.7,39.3z"/>
	</g>
</g>
</svg>
