<?xml version="1.0" encoding="utf-8"?>
<!-- Generator: Adobe Illustrator 23.0.3, SVG Export Plug-In . SVG Version: 6.00 Build 0)  -->
<svg version="1.1" id="Layer_1" xmlns="http://www.w3.org/2000/svg" xmlns:xlink="http://www.w3.org/1999/xlink" x="0px" y="0px"
	 viewBox="0 0 184.3 184.3" style="enable-background:new 0 0 184.3 184.3;" xml:space="preserve">
<style type="text/css">
	.st0{fill:#FFFFFF;}
</style>
<g id="Layer_x0020_1">
	<g id="_2429613234416">
		<path class="st0" d="M135.8,115.3h14.6v9.5h-14.6V115.3z M135.8,87.4h14.6v9.5h-14.6V87.4z M135.8,59.3h14.6v9.5h-14.6V59.3z
			 M133.5,44.5v11.2c0,0.7,0.5,1.1,1.1,1.3c-0.5,0.7-1.1,0.5-1.1,1.8v10.8c0,0.7,0.7,1.1,1.1,1.6c-0.4,0.4-1.1,0.5-1.1,1.3v10.8
			c0,1.3,0.5,1.1,1.1,1.8c-0.4,0.4-1.1,0.5-1.1,1.3v10.8c0,1.1,0.2,1.4,1.1,1.6c-0.4,0.5-1.1,0.9-1.1,1.6v10.8
			c0,1.1,0.2,1.4,1.1,1.6c-0.4,0.5-1.1,0.9-1.1,1.6v10.8c0,1.1,0.2,1.4,1.1,1.6c-0.4,0.5-1.1,0.9-1.1,1.6v10.8
			c0,1.3,0.5,1.8,1.8,1.8h15.7c0.9,0,1.8-0.5,1.8-1.3v-11.2c0-1.3-0.5-1.1-1.1-1.8c0.5-0.2,1.1-0.2,1.1-1.1c0-1.8,0.4-11.2-0.2-12.1
			l-0.7-0.7l-0.2-0.2c0.5-0.2,1.1-0.2,1.1-1.1v-10.8c0-1.3-0.5-1.1-1.1-1.8c0.5-0.2,1.1-0.2,1.1-1.1V86.8c0-1.1-0.2-1.4-1.1-1.6
			l0.7-0.5c0.7-1.1,0.5-12.1,0.2-12.8c-0.2-0.4-0.2-0.2-0.4-0.5l-0.4-0.2c0,0-0.2,0-0.2-0.2c0.5-0.2,1.1-0.2,1.1-1.1V58.7
			c0-1.3-0.5-1.1-1.1-1.8c0.5-0.2,1.1-0.2,1.1-1.1V44.7c0-1.3-0.5-1.8-1.8-1.8h-15.3C134.5,42.9,133.5,43.6,133.5,44.5z"/>
		<path class="st0" d="M93.5,124.6c0-0.9,3.2-10.6,3.8-11.7h5.4c0.4,1.8,1.3,4,1.8,5.6c2.5,7.4,2.3,4.9,0,12.2
			c-0.4,1.3-0.7,2-1.1,3.2c-0.9,2.5-0.4,2.5-4,2.5c-3.8,0-2.3-1.1-5-8.5C94.2,127.3,93.5,125.5,93.5,124.6z M97.3,84.7h5.4
			c0.5,1.8,1.3,4.1,1.8,5.8c2.3,7.2,2.5,4.5,0,11.7c-0.5,1.4-1.8,4.7-1.8,6.1h-5.4c-0.5-2.2-3.8-10.8-3.8-11.7L97.3,84.7z
			 M97.3,56.4h5.4c0.2,1.8,3.8,10.8,3.8,11.7c0,0.7-1.4,4.7-1.8,5.9c-0.5,2.2-1.4,4-2,5.9h-5.4c-0.2-0.5-3.8-11.3-3.8-11.7
			C93.3,67.2,96.7,58.6,97.3,56.4z M88.8,53.5v86c0,0.9,1.3,1.8,2.3,1.8H109c1.3,0,2.3-1.1,2.3-2.3V53.9c0-1.3-1.1-2.3-2.3-2.3H90.6
			C89.9,51.5,88.8,52.8,88.8,53.5z"/>
		<path class="st0" d="M71,132.4c0-3.2-0.5-6.1,1.1-6.1h9c1.4,0,0.9,2.5,0.9,6.1c0,0.5-0.5,1.1-1.1,1.1h-8.3
			C71.9,133.3,71,133.1,71,132.4z M68.1,77.3v61.9c0,1.4,1.1,2.2,2.3,2.2h12.1c1.3,0,2.3-1.1,2.3-2.3V77.5c0-1.3-1.1-2.3-2.3-2.3
			H70.3C69,75.1,68.1,76,68.1,77.3z"/>
		<path class="st0" d="M54.1,97.6h8.1v1.3h-8.1V97.6z M54.1,94.4h8.1v1.3h-8.1V94.4z M54.1,86.8h8.1v1.3h-8.1V86.8z M54.1,83.6h8.1
			v1.3h-8.1V83.6z M54.1,75.7h8.1v1.3h-8.1V75.7z M54.1,72.4h8.1v1.4h-8.1V72.4z M51.9,70.1v68.8c0,1.3,1.1,2.3,2.3,2.3H62
			c1.4,0,2.3-1.3,2.3-2.7V69.9c0-3.6-5.2-2.5-9.7-2.5C53,67.2,51.9,68.3,51.9,70.1z"/>
		<path class="st0" d="M38.8,126.2c-1.8-0.2-1.3-0.5-1.3-5c0-7-0.9-4,1.6-10.4c0.5-1.1,1.6-3.8,1.8-4.9c1.8,0.2,1.4,0.5,1.3,5
			c0,1.8,0.5,4.3,0.2,5.9C41.8,118.3,38.8,125.2,38.8,126.2z M31.4,138.7c0,1.8,3.8,2.2,5.8,2.5c3.4,0.5,3.2-2,3.8-4.5l5-28.8
			c2.9-16.9,4.7-15.7-3.4-17.1c-3.2-0.5-3.2,1.8-3.8,4.3L31.4,138.7z"/>
		<path class="st0" d="M126.6,92c0-1.4,0-2.7,0.2-4.1c0.2-0.7,0.2-1.3,0.2-2c0-1.3,0.2-1.4-0.5-1.8c-0.2,0-7.7-0.4-8.5-0.4
			c-0.2,1.4-0.2,2.5-0.2,4.3C117.6,91.9,114.6,92,126.6,92z"/>
		<path class="st0" d="M116.7,103.9l9,0.5l0.5-7.9c-2,0-2.9-0.2-4.5-0.2c-0.7,0-1.6,0-2.3,0c-1.1,0-1.3-0.2-2.3-0.2L116.7,103.9z"/>
		<path class="st0" d="M118.2,78.5v0.9l6.8,0.2c1.1,0.2,0.9,0.2,2.2,0.2l0.5-7.9c-2,0-2.7-0.4-4.5-0.2c-2,0-3.1-0.4-4.9-0.4
			C118.3,74.2,118.2,75.8,118.2,78.5z"/>
		<path class="st0" d="M125.2,116.7c0-9.9,1.8-7.6-4-7.9c-1.6-0.2-2.9-0.2-4.7-0.2l-0.4,6.3C115.8,116.5,115.1,116.7,125.2,116.7z"
			/>
		<path class="st0" d="M115.5,128.6l9,0.5l0.5-7.9c-10.6,0-9-2.3-9.4,3.2C115.6,125.7,115.5,126.8,115.5,128.6z"/>
		<path class="st0" d="M114.9,138.7c0,1.1,0.5,2,1.6,2.3c0.4,0.2,2.9,0.2,3.4,0.4c3.1,0.4,4-0.5,4.1-3.1c0.2-1.3,0-2.2,0.2-3.4
			c0.2-1.6,0.2-1.4-2-1.3c-2.7,0-4.3-0.2-7.2-0.2C115.1,135.2,114.9,136.3,114.9,138.7z"/>
		<path class="st0" d="M127.9,67.6c0-4.3,0.9-7.6-1.8-7.9c-0.5-0.2-1.4,0-2.2,0c-1.3-0.2-3.8-1.1-4.7,1.1c-0.4,0.9-0.2,2.3-0.4,3.6
			c-0.2,1.3-0.9,2.7,0.9,2.9L127.9,67.6z"/>
		<path class="st0" d="M116,119.4c1.8,0.4,6.7,0.5,9,0.5v-1.8c-3.1,0-6.1-0.4-9-0.5V119.4z"/>
		<path class="st0" d="M117.8,82.5l7.7,0.4c1.4,0.2,1.6,0.5,1.6-1.1c0-1.4-2.9-0.7-4.3-0.9c-1.6-0.2-3.1-0.2-5-0.2V82.5z"/>
		<path class="st0" d="M115.1,131.6l9.2,0.5v-1.8l-4.5-0.2c-1.6,0-2.5-0.2-4.5-0.2C115.3,130.6,115.1,130.7,115.1,131.6z"/>
		<path class="st0" d="M126.3,95.3v-1.8c-3.1,0-6.1-0.4-9-0.5c0,2.9,0.4,2.2,3.4,2.2C122.7,94.9,124.1,95.3,126.3,95.3z"/>
		<path class="st0" d="M118.5,69.4c0,1.1,0.2,0.2-0.2,0.9l4.5,0.2c1.6,0,2.7,0.2,4.7,0.2v-1.8c-1.8,0-3.1-0.2-4.5-0.4l-4.5-0.2V69.4
			z"/>
		<path class="st0" d="M116.5,107.2l8.3,0.4c1.3,0,0.9-0.2,0.9-1.8l-9.2-0.5V107.2z"/>
	</g>
</g>
</svg>
