<?xml version="1.0" encoding="utf-8"?>
<!-- Generator: Adobe Illustrator 23.0.3, SVG Export Plug-In . SVG Version: 6.00 Build 0)  -->
<svg version="1.1" id="Livello_1" xmlns="http://www.w3.org/2000/svg" xmlns:xlink="http://www.w3.org/1999/xlink" x="0px" y="0px"
	 viewBox="0 0 184.3 184.3" style="enable-background:new 0 0 184.3 184.3;" xml:space="preserve">
<style type="text/css">
	.st0{fill-rule:evenodd;clip-rule:evenodd;fill:#FFFFFF;}
</style>
<g id="Layer_x0020_1">
	<g id="_2307216897056">
		<path class="st0" d="M49.7,38h84.9l-0.1,13.8H49.7L49.7,38z M28.4,69.2c-0.1,1.7-0.2,8.5,0.1,9.8c0.6,2.1,3.3,4.1,5.1,5.2
			c3.2,1.9,4.7,1.3,7.5-0.5c5.6-3.6,4.3-5.9,4.3-13.3c0-1.3-0.1-1.1,0.7-1.9c0.8-0.8,1.6-1.9,2.3-2.7c3.2-3.6,7.8-8.7,10.7-12.2
			c0.7-0.8,0.5-0.9,1.9-0.9c-0.5,0.9-5.2,6.2-6.1,7.2c-2.6,2.8-5.1,6.1-7.6,8.7c-0.8,0.8-0.6,1.3-0.6,2.8c0,2.1-0.1,4.5,0,6.7
			c0.2,3.2,4.1,5.6,6.4,6.8c3.3,1.8,7.5-1.9,8.9-3.4c1.5-1.6,1.7-2.2,1.7-5c-0.1-9.3-0.8-5.6,4.2-15.6c0.8-1.5,1.4-2.9,2.2-4.4
			c0.4-0.8,0.7-1.5,1.1-2.2c0.7-1.4,0.3-1.5,1.9-1.5c-0.3,1.2-7,14.4-7.6,15.6c-0.8,1.5-0.5,3.4-0.5,5.2c0,1.4-0.1,4.6,0.2,5.7
			c0.7,2,6.4,8,10.8,5.5c6.8-3.9,6-5.4,6-11.5c0-5.3,1-10.4,1.9-15.6l0.6-3.8c0.2-1.1,0.1-1.1,1.5-1.1c-0.6,6.5-2.6,12.7-2.6,19.3
			c0,5.8-1.1,8.2,4.4,11.8c1.3,0.8,2.1,1.5,4,1.5c2.7,0,5.3-2.1,6.9-3.8c2.4-2.4,1.7-5.4,1.7-9.3c0-6.4-1.8-13.2-2.6-19.4
			c1.5,0,1.3,0,1.5,0.9l1.3,8.8c0.6,3.8,1.1,6.4,1.1,10.5c0,5.3-0.8,6.2,2.4,9.2c1.5,1.4,5.3,4.3,8.2,2.8c2.2-1.1,5.3-3.3,6.2-5.4
			c0.4-1.1,0.6-9.6-0.2-11l-7.7-15.8c1.6,0,1.2,0,1.9,1.4c0.4,0.8,0.7,1.5,1.1,2.2c0.8,1.5,1.5,2.9,2.2,4.4c0.7,1.5,1.3,2.9,2.1,4.3
			c3,5.9,2.1,3.2,2.1,11c0,2.8-0.1,3.5,1.5,5.2c1.3,1.4,5.7,5.4,9,3.7c2.3-1.2,6.2-3.8,6.5-6.6c0.2-1.2,0.4-8.7-0.3-9.6
			c-0.6-0.7-0.9-1.1-1.6-1.7c-0.4-0.5-11.8-13.5-12.2-14.4c1.2,0,1-0.2,1.6,0.5c3.9,4.6,9,10.2,12.5,14.5c0.8,1,1.4,1.1,1.4,2.9
			c-0.1,7.3-1.1,9.2,3.9,12.8c1.5,1.1,3.8,2.7,6.3,1.7c1.9-0.8,3.7-2.3,4.9-3.5c2.6-2.5,1.8-5.5,1.8-10.5c0.1-2.2,0.1-1.9-1.3-3
			c-1.5-1.2-3.1-2.4-4.5-3.7l-13.8-11.2c-1.2-0.9-0.8-1.5-0.8-3.3c0-3.4,0.2-10.1-0.1-12.7H49c-0.3,4-0.1,9-0.1,13.1
			c0,2.9,0.3,1.9-2.3,4.1c-1.2,1-2.4,1.9-3.7,3L28.4,69.2z"/>
		<path class="st0" d="M51.7,115.1l31.7-0.1v29c-4.4,0.2-12,0.1-16.6,0.1c-4.4,0-10.9,0.1-15.1-0.1V115.1z M55.5,112.2h-3.8V98.9
			l10-0.1l0.1,13.4l-0.7,0.1c-0.6-0.9-0.1-4.1-0.3-6l-5.3-0.1L55.5,112.2z M68,109.9c0,2,0.3,2.3-0.5,2.3c-0.8,0-0.5-0.8-0.5-2.8
			V98.8h16.3v13.4h-3.8l-0.1-7.5h-5.3l-0.1,6.7c0,0.9,0.3,0.8-0.4,0.8c-0.7,0-0.5,0.1-0.5-0.8l-0.1-8.7c-1.6,0-3.6-0.3-5.2,0.1
			L68,109.9z M61.8,96L48.9,96v51h37.3V96H67.1l-0.1-3.4l-5.4-0.1L61.8,96z"/>
		<path class="st0" d="M113.9,121.9l-0.1-3.1h-22c-0.5,2.7-0.2,8.9,0.8,11.2c3.6,8.1,14.4,8.7,19.2,2c2.1-2.9,2.6-7.9,10.2-13.9
			c1-0.9,1.7-1.6,2.7-1.8c1.8-0.4,0.6-0.4,1.6-1.3c1.2-1,6.1-3,7.4-3.4c3.7-1.2,6.3-1.5,10.5-1.6v-1.2c-11.7-0.6-16.8,3.7-19.6,4.3
			c-1.7,0.4-0.6,0.3-1.7,1.1c-1,0.8-2.1,1.4-3.2,2.2C118,117.9,114,121.8,113.9,121.9z"/>
		<path class="st0" d="M71.4,137.2c0.6-0.4,0.9-0.6,1.4-0.9c0.2-0.9,2.2-1.7,2.7-5.4c0.8-7.1-7.1-12.1-13.4-7.9
			c-5.5,3.8-4.4,12.9,2.5,15C67.5,138.9,69.1,138.2,71.4,137.2z"/>
	</g>
</g>
</svg>
