<?xml version="1.0" encoding="utf-8"?>
<!-- Generator: Adobe Illustrator 23.0.3, SVG Export Plug-In . SVG Version: 6.00 Build 0)  -->
<svg version="1.1" id="Layer_1" xmlns="http://www.w3.org/2000/svg" xmlns:xlink="http://www.w3.org/1999/xlink" x="0px" y="0px"
	 viewBox="0 0 184.3 184.3" style="enable-background:new 0 0 184.3 184.3;" xml:space="preserve">
<g id="Layer_x0020_1">
	<path d="M77.4,85.2c-0.7-1.8-31.5-45.5-35.1-51.5c-2.7,0.5-9.7,5.9-11.3,7.6c-7.7,7.2-11.5,16-11.3,27.2c0.2,6.1,1.6,11,2.5,16.7
		c2,12.8,2.3,26.8,3.1,39.8l0.2,14.4c0,5-1.4,12.4,3.2,10.8c1.4-0.5,1.3-2,1.3-3.6c-0.2-12.8,0-25.4,0-38.2c0-6.5,0.4-11.3,2.5-16.6
		c7.7-17.5,25.7,6.7,31.3,14.2c4,5.4,7.7,11.9,10.4,18.2c0.5,1.3,2.5,6.1,3.1,6.7c0.5,2.5,3.2,7.7,4.5,10.1c1.8,2.9,4.1,5.2,7.7,6.8
		c16.2,7,53.8-0.7,72.5-5.4c1.4-0.4,1.6-0.2,2.3-1.3c0.5-3.1-2.2-6.5-3.6-8.1c-1.6-1.8-4.3-3.6-7.2-4.9
		c-27.9-13.7-31.5,23-72.2-36.4C80.5,89.7,78.7,86.5,77.4,85.2z"/>
</g>
</svg>
