<?xml version="1.0" encoding="utf-8"?>
<!-- Generator: Adobe Illustrator 23.1.0, SVG Export Plug-In . SVG Version: 6.00 Build 0)  -->
<svg version="1.1" id="Livello_1" xmlns="http://www.w3.org/2000/svg" xmlns:xlink="http://www.w3.org/1999/xlink" x="0px" y="0px"
	 viewBox="0 0 184.3 184.3" style="enable-background:new 0 0 184.3 184.3;" xml:space="preserve">
<style type="text/css">
	.st0{fill-rule:evenodd;clip-rule:evenodd;fill:#010101;}
	.st1{fill:none;stroke:#000000;stroke-width:10;stroke-miterlimit:10;}
</style>
<g>
	<g id="Layer_x0020_1">
		<g id="_2001910914416">
			<path class="st0" d="M41.3,150c0-3.5,0-6.9-0.1-10.4c0-3-0.3-3.2,3.6-7.1l10.4-11.3c0.9-0.9,1.6-1.6,2.6-2.6l10.1-11
				c1.3-1.2,1.5-1.8,2.6-3c1.9-2.3,3.5-3,5-5.8l24.4,26.3c3.2-2.4,14.5-18,17.4-18.7c0.5,2,4.6,4.8,6.7,7.4l17,18.2
				c4.2,5.4,3.1-0.4,3.1,18h-12.1c-2,0-2.6-0.4-3.8-0.4l-5.7,0.4c-1.9,0-2.6-0.4-3.8-0.4l-5.5,0.4c-2,0-2.6-0.4-3.8-0.4l-5.7,0.4
				c-1.9,0-2.6-0.4-3.8-0.4l-5.5,0.4c-2,0-2.6-0.4-3.8-0.4l-5.7,0.4c-1.9,0-2.6-0.4-3.8-0.4l-5.5,0.4c-2,0-2.6-0.4-3.8-0.4l-5.7,0.4
				c-1.9,0-2.6-0.4-3.8-0.4l-5.5,0.4c-2,0-2.6-0.4-3.8-0.4l-5.7,0.4C44.8,150,43.3,149.1,41.3,150z M41.3,125.5V46.8h102.6v77.4
				c-0.8-0.5-2.3-2.6-3.4-3.6c-1.3-1.3-2.3-2.3-3.5-3.5c-1.5-1.5-1.9-2.4-3.2-3.8L120,98.9c-1.2-1.5-1.8-3.1-4.2-3.4
				c-0.4,1.6-4.4,5.4-5.8,7l-6.3,7.3c-1.5,1.8-2.4,3.2-4.3,4.6c-2.8-4.3-3.5-3.6-5.7-6.5c-3.8-4.7-11.6-12.4-14.7-16.3
				c-1.2-1.5-2.2-2-3.1-3.5c-2.2,1.5-2.7,2.7-4.3,4.6L41.3,125.5z M33.8,132.5v24.9h116.3c1.1,0,1.5-0.4,1.5-1.3V39.3H33.8V132.5z"
				/>
			<path class="st0" d="M103.7,63.7c12.9,0,11.4,16.4,0.9,16.4C93.2,80.1,94.8,63.7,103.7,63.7z M104.1,87.6
				c9.4,0,15.9-7.1,16.3-15.1c0.5-7.8-6.5-16.3-14.4-16.3c-5.1,0-8.5,0.7-12.1,4.3C82.8,71.1,91.7,87.6,104.1,87.6z"/>
		</g>
	</g>
	<line class="st1" x1="57.1" y1="26.9" x2="128.1" y2="26.9"/>
	<line class="st1" x1="92.7" y1="41.6" x2="92.7" y2="30.5"/>
</g>
</svg>
