<?xml version="1.0" encoding="utf-8"?>
<!-- Generator: Adobe Illustrator 23.0.3, SVG Export Plug-In . SVG Version: 6.00 Build 0)  -->
<svg version="1.1" id="Livello_1" xmlns="http://www.w3.org/2000/svg" xmlns:xlink="http://www.w3.org/1999/xlink" x="0px" y="0px"
	 viewBox="0 0 184.3 184.3" style="enable-background:new 0 0 184.3 184.3;" xml:space="preserve">
<style type="text/css">
	.st0{fill-rule:evenodd;clip-rule:evenodd;fill:#FFFFFF;}
</style>
<g id="Layer_x0020_1">
	<g id="_1216968532800">
		<path class="st0" d="M138,95.2c0,3.9,0.7,2.8,0.7,7.4c0,3.5-1.4,4.9-1.7,6.1l-2.2-1.2c-1.9-1-5.4-2.4-7.5-3.2
			c-10.5-4-17.5-5.5-28.5-6.6c-2.6-0.3-7.8-0.5-10.1-0.3c-1.1,0.1-2.3-0.1-3.4,0.1c-1.3,0.2-4.3,0.2-6.5,0.6c-2.1,0.3-4,0.6-6,0.9
			c-4.1,0.7-7.4,1.7-11.3,2.8l-5.4,1.7c-1.6,0.6-3.4,1.3-5,2l-5,2.1l0.7-3.7c0.8-6.7,0.1-13.2-4.8-17.8c-0.3-0.3-0.6-0.5-0.9-0.8
			c-4.2-3.7-10.1-3-14.1,0.4c-1.8,1.5-3.1,4.6-3.7,6.8c-0.4,1.6-0.5,2.9-0.7,4.6c-0.5,4.6-0.1,9.8,0.9,14.4c1.2,5.9,3.1,10.9,5,16
			c0.6,1.6,5.1,11.7,6.1,12.2c1.6,0.8,3.3,0.6,5.1,0.6v5.4c0,2.1,2.8,4,5,4h1.4c2.3,0,5.3-1.7,5.3-3.9v-5.5h81.5
			c0,2.8-0.6,6.5,1.5,8.1c1.1,0.8,2.4,1.2,3.8,1.3h1.2c2.8-0.2,5.4-1.7,5.4-4v-5.4c3.2,0,2.4,0.3,4.5-1.2c0.2-0.1,0.9-0.5,1-0.7
			c0.7-0.7,6.3-13.9,6.8-15.1c0.7-1.7,1.1-3.3,1.7-5.1c0.3-0.9,0.5-1.6,0.8-2.4c1.2-3.7,2.2-8.8,2.4-13.9v-4
			c-0.2-3.2-0.7-6.1-1.7-8.5c-1.4-3.5-6.1-6.9-10.4-6.9c-3.9,0-6.4,1.4-8.6,3.9C139.7,88.5,138,92.2,138,95.2z"/>
		<path class="st0" d="M34,72.8l0.3,4.4c1.5,0.2,5.5,2.4,6.8,3.3c1.9,1.2,2,1.6,3.5,2.8l1.8,2c2.2,2.7,3.7,7.8,3.8,11.5
			c0,1.7,0,3.4,0,5.1c5.2-2.7,13.6-5.5,19-6.9c6.8-1.7,14.7-2.8,23.1-2.8c1.1,0,1.8,0.2,3,0.2c9-0.1,21.9,3,30,5.7
			c1.6,0.6,3.1,1.2,4.6,1.9l3.4,1.4c0.5,0.2,0.8,0.3,1.2,0.5c0-4.2-0.7-7.3,1-12.2c0.8-2.4,1.7-4,3.4-5.7c3-3,5.4-4.7,9.7-6.2
			c0.5-0.2,1.1-0.5,1.7-0.6c0-5.4-0.6-11.3-2.1-16c-1.4-4.5-3-8.7-6.3-12c-1.1-1.1-1.9-1.9-3.2-2.9c-6.1-4.5-13.9-7.4-21.2-9.3
			c-6-1.6-13.5-2.5-21.1-2.7h-6.7c-7.3,0.2-14.4,1-20.2,2.5c-4.3,1.1-7.2,2-11.1,3.7c-5,2.1-8.7,4.3-13.1,7.7
			c-1,0.8-2.9,2.7-3.7,3.7l-2,2.6c-1.5,2.1-3,5.6-3.9,8.1C34.6,65.4,34,69.5,34,72.8z"/>
	</g>
</g>
</svg>
