<?xml version="1.0" encoding="utf-8"?>
<!-- Generator: Adobe Illustrator 23.0.3, SVG Export Plug-In . SVG Version: 6.00 Build 0)  -->
<svg version="1.1" id="Layer_1" xmlns="http://www.w3.org/2000/svg" xmlns:xlink="http://www.w3.org/1999/xlink" x="0px" y="0px"
	 viewBox="0 0 184.3 184.3" style="enable-background:new 0 0 184.3 184.3;" xml:space="preserve">
<g id="Layer_x0020_1">
	<g id="_2429456711392">
		<path d="M72.1,80.3l20-11.5l20,11.5v23.4l-20,11.5l-20-11.5V80.3z M91,168.7h2.2c3.8-2.2,3.8-1.6,3.8-8.3c0-4.1,0-8.3,0-12.4
			c5,1.3,12.1,8.1,16.2,6.1c1.6-0.7,3.1-2.3,2.9-4.9c-0.5-5.2-14.2-8.3-19.1-12.1v-13.3l20-11.7l11.7,6.7c-0.2,4-0.4,8.1-0.7,12.2
			c-0.4,4.3-1.4,8.6,2,10.6c1.6,0.9,3.8,0.7,5.2-0.5c1.3-0.9,1.8-2.2,2-4.5c0.2-4.1,0.5-8.3,0.7-12.4c1.4,0.5,3.4,1.8,4.9,2.7
			c6.1,3.4,12.2,8.8,15.5,3.6c1.3-2,0.9-4.1-0.5-5.6c-2-2.2-13.3-7.4-14.8-9.2c2.7-2.9,12.2-6.8,13.1-10.3c0.7-3.1-2-8.6-8.3-4.5
			c-1.6,1.1-3.1,2-4.7,3.1c-1.6,1.1-3.1,2.2-4.7,3.1c-1.4,0.9-3.6,2.5-4.9,3.2l-11.5-6.7V80.5l9.5-5.4c1.6-0.9,1.6-1.6,3.1-0.5
			c4.3,2.7,8.1,5.4,12.4,8.1c2.2,1.3,4.3,3.4,7.4,1.3c2.2-1.4,3.1-4.9,0.9-7.2c-1.8-1.8-10.3-6.5-12.1-8.3c0.7-0.9,8.1-4.9,9.7-5.8
			c2.9-1.6,8.5-4,5.8-8.6c-2.5-4.5-7.2-1.6-10.4,0.4l-10.1,5.8c-0.2-4.1-0.5-8.1-0.7-12.2c-0.2-3.6-2.9-7.6-7-5.2
			c-3.6,1.8-2.5,6.1-2.3,10.6c0.2,4,0.7,8.6,0.7,12.4c-1.3,1.1-5.9,3.6-7.7,4.5c-5,2.9-3.1,2.5-8.3-0.4c-2.7-1.4-14.2-8.3-15.8-9
			c0-16.6-1.4-12.8,5-16c1.8-0.9,3.4-1.8,5.2-2.5c3.2-1.6,8.3-3.1,9-6.7c0.5-2.7-0.9-4.3-2.5-5c-2.9-1.4-7,1.4-11.2,3.4
			c-1.4,0.7-4.1,2.2-5.4,2.7c0-2.7,0.4-16-0.4-17.8c-0.5-1.8-1.8-2-3.2-3.1h-2.3c-1.3,0.9-2.5,1.3-3.2,3.1
			c-0.5,1.6-0.2,15.3-0.4,17.8c-2.5-0.7-7.9-3.8-10.6-5.2c-1.8-0.9-3.4-2-5.9-0.9c-1.6,0.7-2.9,2.5-2.5,5c0.5,3.6,5.6,5.2,8.8,6.7
			c1.8,0.9,3.2,1.6,5.2,2.5c6.5,3.2,5-0.5,5,16l-15.8,9c-4.7,2.7-3.4,2.9-8.1,0.4c-2.7-1.4-5.2-3.1-7.7-4.5
			c-0.4-2.9,0.4-9.2,0.5-12.4c0.2-4.3,1.4-8.6-2.2-10.6c-1.8-1.1-4-0.7-5.2,0.4c-3.1,2.5-1.8,10.1-2.7,16.9
			c-8.1-3.4-16.9-12.8-20.5-6.1c-2.7,4.9,2.9,7.2,5.8,8.8l7.4,4.3c0.9,0.5,1.8,0.9,2.5,1.6c-2.5,2.2-10.4,6.5-12.1,8.3
			c-2.2,2.3-1.3,5.6,0.9,7c2.9,2.2,5.2,0,7.4-1.3c16-10.3,11.5-9.7,18.7-5.8c1.8,1.1,4.7,2.9,6.3,3.6v23.4L51,110.5l-9.7-6.3
			c-1.6-1.1-3.1-2-4.7-3.1c-1.6-1.1-3.4-2.3-5.9-1.1c-1.6,0.9-2.9,3.1-2.5,5.4c0.7,3.2,10.1,7.4,13.1,10.3c0,0.2-0.2,0.2-0.2,0.2
			l-9.9,5.8c-2.2,1.3-8.5,4-5.4,8.8c4,6.3,12.2-2.9,20.5-6.3c0.9,6.7-0.2,14.6,2.7,16.9c1.3,1.1,3.4,1.4,5.2,0.5
			c3.4-1.8,2.3-6.3,2-10.8c-0.2-4-0.5-8.1-0.7-12.2c2.3-1.1,5.6-3.1,7.9-4.5c4.7-2.9,3.6-2.2,8.1,0.5c2.5,1.6,14.2,8.1,15.7,9.2
			L87,137c-5.6,4.1-18.5,6.8-18.9,12.1c-0.2,2.5,1.1,4.1,2.7,4.9c4.3,2,9.9-4.1,16.4-6.1c0.2,4,0,8.3,0,12.2
			C87.4,166.9,87.2,166,91,168.7z"/>
		<path d="M90.8,82.6c-4.9,0.7-8.8,5.2-8.1,10.8c1.6,12.4,20.7,9.9,18.9-2.9C100.9,86,96.4,81.7,90.8,82.6z"/>
	</g>
</g>
</svg>
