<?xml version="1.0" encoding="utf-8"?>
<!-- Generator: Adobe Illustrator 23.0.3, SVG Export Plug-In . SVG Version: 6.00 Build 0)  -->
<svg version="1.1" id="Layer_1" xmlns="http://www.w3.org/2000/svg" xmlns:xlink="http://www.w3.org/1999/xlink" x="0px" y="0px"
	 viewBox="0 0 184.3 184.3" style="enable-background:new 0 0 184.3 184.3;" xml:space="preserve">
<style type="text/css">
	.st0{fill:#FFFFFF;}
</style>
<g id="Layer_x0020_1">
	<path class="st0" d="M70.3,154.7c-7.6-2.9-16.9-7.6-21.1-12.4L77,114.6l7.6,3.6L70.3,154.7z M41.7,135.1
		c-4.9-5.4-10.1-12.8-12.2-21.4l36.4-14l3.6,7.6L41.7,135.1z M113.9,95.3c-5.6,29.5-47.9,21.4-43.6-6.8
		C74.7,59.3,119.1,67.6,113.9,95.3z M143.1,48.9c1.3,2.7,4.7,6.3,6.8,10.1c1.6,2.9,4,7.7,4.9,11.2l-36.5,14l-3.6-7.4L143.1,48.9z
		 M114.3,29.6c3.8,1.1,8.5,3.4,11.5,5.2c3.8,2.2,6.5,4.9,9.7,6.7l-28.1,27.7l-7.4-3.4L114.3,29.6z M36.1,148.1
		c30.8,29.9,79.9,30.8,111.1,0.7c19.6-19.1,28.4-50,21.1-76.7c-6.1-22.9-20-39.8-40.7-50.4c-21.8-11.2-48.4-11.2-70.4-0.2
		c-7.9,4-16.2,9.9-21.1,14.8C6.6,66.9,4.8,117.6,36.1,148.1z"/>
	<path d="M69.4,107.2l-3.6-7.6l-36.4,14c2.2,8.6,7.6,16,12.2,21.4L69.4,107.2z"/>
	<path d="M84.6,118.2l-7.6-3.6l-27.7,27.7c4.3,4.9,13.5,9.5,21.1,12.4L84.6,118.2z"/>
	<path d="M90.1,75.3c21.1-3.2,26.5,30.4,4.3,33.3C72,111.3,68.2,78.6,90.1,75.3z M113.9,95.3c5.2-27.7-39.2-36-43.6-6.8
		C66.2,116.7,108.5,125,113.9,95.3z"/>
	<path d="M114.6,77l3.6,7.4l36.5-14c-1.1-3.6-3.2-8.3-4.9-11.2c-2.2-3.8-5.6-7.4-6.8-10.1L114.6,77z"/>
	<path d="M99.9,65.8l7.4,3.4l28.1-27.7c-3.2-2-5.9-4.7-9.7-6.7c-2.9-1.8-7.7-4.1-11.5-5.2L99.9,65.8z"/>
	<path d="M88.7,82.7c12.2-5.4,19.8,13.5,7.2,18.9c-8.1,3.4-17.3-5.2-12.8-14.2C84.7,83.8,84.9,84.3,88.7,82.7z M90.1,75.3
		c-22.1,3.4-18.4,36,4.3,33.3C116.8,105.8,111.2,72.1,90.1,75.3z"/>
	<path class="st0" d="M88.7,82.7c-3.8,1.6-4,1.1-5.6,4.7c-4.3,9,4.7,17.6,12.8,14.2C108.5,96.2,100.9,77.3,88.7,82.7z"/>
</g>
</svg>
