<?xml version="1.0" encoding="utf-8"?>
<!-- Generator: Adobe Illustrator 23.0.3, SVG Export Plug-In . SVG Version: 6.00 Build 0)  -->
<svg version="1.1" id="Livello_1" xmlns="http://www.w3.org/2000/svg" xmlns:xlink="http://www.w3.org/1999/xlink" x="0px" y="0px"
	 viewBox="0 0 184.3 184.3" style="enable-background:new 0 0 184.3 184.3;" xml:space="preserve">
<style type="text/css">
	.st0{fill-rule:evenodd;clip-rule:evenodd;fill:#FFFFFF;}
</style>
<g id="Layer_x0020_1">
	<g id="_1216606370016">
		<path class="st0" d="M137.1,56.4c-2.3,0.6-4.6,2.6-9.6,3.2c-4.2,0.5-8.1-0.7-6-5.5c1.7-4,4.5-4.5,8.5-3.3
			C131.8,51.4,136.7,55.3,137.1,56.4z M110.5,70.1c-2.2-0.7-3.7-2.2-7.7-3.1c-8.2-1.9-18.5,1.6-23.8,7.6c-3.6,4.1-5.8,8.8-6.9,14.5
			c-1.4,6.7-1.2,12.9,0.1,19.6c1.2,5.9,3.1,11.2,5.5,15.9c1.2,2.4,2.7,4.7,4.1,6.7c1.7,2.3,3.1,3.8,5.1,5.8
			c2.8,2.6,9.5,6.5,15.2,6.1c4.4-0.3,8.3-2.1,11.6-4.5c0.5-0.3,1-1,1.7-0.7c2.1,0.8,8.4,7.3,18.6,4.4c5.7-1.6,10.1-5.6,12.8-8.9
			c6.2-7.5,11.1-18.1,12.1-30.9c1.2-14.7-2.9-25-11.3-31.3c-4.1-3.1-10.2-5.2-16.8-4.8c-3.3,0.2-5.9,1.1-8.3,2.4
			c-3.7,1.8-6,4-6.5,4.2c-0.4-3.8,1-7.4,2-10.5c1.8,0.3,1.8,2.2,6.9,2.2c3.3,0,5-0.2,7.9-1.1c2.9-1,9.8-4.1,12.3-5.8
			c-0.9-1.9-5.8-6.9-7.3-8.4c-1.2-1.1-3-2.3-4.7-3.2c-3.2-1.6-5-1.2-6.1-1.9c0.5-1.2,2.9-3,1.5-5c-3.4-4.8-8.8,6.4-10.3,9.1
			c-1.7,3.2-3.1,6.6-4.4,10.2c-0.7,1.8-1.2,3.5-1.7,5.4C111.7,65.3,110.9,69.6,110.5,70.1z"/>
		<path class="st0" d="M53.5,71.4c4.1-0.2,8.4-0.1,12.6-0.1c1.7,0,1.5-0.2,2.4,0.8c0.4,0.5,1.1,1.1,1.2,1.9c0.1,1.1-0.6,1.6-1,2.1
			c-0.8,0.9-1,0.6-2.5,0.6c-2.2,0-14,0.5-15.4-0.6c-1.7-1.4-0.9-3.6-0.1-4.3C51.3,71.2,52.6,71.4,53.5,71.4z M43.7,45.6
			c-0.5-0.4-1.2-2.2-1.5-3c-1.4-2.9-3.8-6.1-6-8c-1.3-1-6.8-5.4-8.8-5.1c-1,0.1-2.1,1.4-2.2,2.6c-0.1,3,4.6,2.9,9.7,8.9
			c2.5,3,4.9,8.4,4.9,13.7c-0.1,3.8-3.5,2.9-5.9,12.8c-1.3,5.4-1.5,11.4-1.3,17.2c0.3,11.5,2.8,21.7,4.9,32.4
			c1.5-0.5,0.7-1.6,3.6-1.8l10.4,0.2c3.8,0.2,4.2,2.5,3.1,4c-1.6,2.2-2.9,1.5-6.6,1.4c-1.7,0-3.5-0.1-5.2-0.1
			c-2.4-0.1-2.6-0.1-4.3-0.9c0,2.9,10.3,35.7,11.5,37.3c2.8-5.6,9.6-24.9,11.3-30.5c2.7-8.6,4.7-15.9,6.6-24.7c0.5-2.1,1.5-7,1.4-9
			c-1.1,0.1,0.1,0.8-3.6,0.9l-14.4,0.1c-1.2-1.4-2.6-3.1-0.5-4.8c1.2-1,0.8-0.9,2.9-0.8c1.2,0.1,2.3,0.1,3.5,0.1
			c2.4,0.1,4.8,0.1,7.2,0.3c5.5,0.3,3.8,0.4,5.2,2.1c0.9-3.2,0.9-11.6,0.6-15.3c-0.3-4.4-1.4-9.3-3.1-12.8
			c-3.2-6.6-5.5-4.4-4.1-11.2C65.5,38.2,74.8,36.4,77,33.5c1.4-1.8-0.8-4.3-3.2-3.5c-1.6,0.5-3.8,2-5.1,2.9
			c-3.1,2.1-5.7,4.7-7.7,8.2c-3,5.1-3.3,10.4-3.8,11.2c-0.4,0.7,0.1,0.3-0.7,0.5c-0.3-1.4,0.9-10.4,0.3-15.6c-0.7-6-7.5-11-9.9-9.8
			c-0.9,0.4-1.6,1.2-1.6,2.4c0.3,3.5,5.8,2.5,6.3,9.9c0.1,1.3,0,10.5-0.6,11.5c-0.3,0.5-1,0.6-1.3,0.1c-0.1-0.2-0.1-1.5-0.2-1.8
			c-0.1-2.3-0.6-5-1-7.2c-1-4.9-2.2-8.1-4.2-12c-0.8-1.5-2.1-4.3-4.4-2.8c-2.4,1.6-1,3.4,0,5.6C41,35.4,44.1,42.7,43.7,45.6z"/>
	</g>
</g>
</svg>
