<?xml version="1.0" encoding="utf-8"?>
<!-- Generator: Adobe Illustrator 23.0.3, SVG Export Plug-In . SVG Version: 6.00 Build 0)  -->
<svg version="1.1" id="Layer_1" xmlns="http://www.w3.org/2000/svg" xmlns:xlink="http://www.w3.org/1999/xlink" x="0px" y="0px"
	 viewBox="0 0 184.3 184.3" style="enable-background:new 0 0 184.3 184.3;" xml:space="preserve">
<style type="text/css">
	.st0{fill:#FFFFFF;}
</style>
<g id="Layer_x0020_1">
	<g id="_2429380165488">
		<path class="st0" d="M56.4,80.8c1.8-3.1,9.5-13.3,11-14.6c4-3.1,16-1.6,21.6-1.8v16.2L56.4,80.8z M132.4,111.5
			c3.6-16.7,25.4-14.4,26.6,2h15.1v-31H99.1l-1.6-23c-6.5-0.9-20.3,0-27,0.9c-6.7,0.9-9,6.1-15.5,13.9c-8.6,10.3-8.1,7.9-31,11.5
			c-1.6,0.4-4.7,0.5-6.1,1.1C8,89.4,10.7,97,10.2,113.2l20,0.4c2.2-15.1,17.1-16.9,23.6-8.1c5,6.8-0.5,7.7,8.3,8.1h69.1
			C132.6,111.7,131.3,114.4,132.4,111.5z"/>
		<circle class="st0" cx="145.9" cy="113.3" r="11.7"/>
		<circle class="st0" cx="43.1" cy="113.3" r="11.7"/>
	</g>
</g>
</svg>
