<?xml version="1.0" encoding="utf-8"?>
<!-- Generator: Adobe Illustrator 23.0.3, SVG Export Plug-In . SVG Version: 6.00 Build 0)  -->
<svg version="1.1" id="Livello_1" xmlns="http://www.w3.org/2000/svg" xmlns:xlink="http://www.w3.org/1999/xlink" x="0px" y="0px"
	 viewBox="0 0 184.3 184.3" style="enable-background:new 0 0 184.3 184.3;" xml:space="preserve">
<style type="text/css">
	.st0{fill-rule:evenodd;clip-rule:evenodd;fill:#FFFFFF;}
</style>
<g id="Layer_x0020_1">
	<g id="_2001915090240">
		<path class="st0" d="M130.7,89.7c-7.1,0-7.6-7.1-3.2-9.5c0,3.1-0.6,7,2.4,7s2.4-4,2.4-7C137.7,83.7,134.2,89.7,130.7,89.7z
			 M51.7,80.2c0,4.6-0.7,7.8,2.8,7.8c3.1,0,2.1-6,2.1-7.8c4.4,2.3,3.9,9.5-3.2,9.5c-2.3,0-3.9-2-4.3-4.1c-0.3-1-0.1-2.1,0.5-3.2
			C50.2,81.2,50.6,80.8,51.7,80.2z M90.3,31.4c10.7,0,13-0.2,21.5,6.6c0.9,0.7,1.4,1.3,2,2.1c4.3,5.6,6.7,8.8,9.3,16.6
			c1.1,3.2,3.3,10.5,3.3,14.2H58c0.2-8.1,8.5-26.4,16.5-32.6C79,35,83.5,31.4,90.3,31.4z M53.1,71.1c-3.3,0-7.2-0.3-9.9,1.3
			c-4.7,2.7-4.2,9.2-5.4,16.4c-1.5,9.5-2.6,6.7,5.5,15.6l0.5,0.5c9.9,9.9,23.5,16.1,37.4,18.1c1.8,0.3,4.9,0.7,6.6,0.8
			c0.1-6,8.3-6,8.4,0c15.3,0,28.9-3.4,40.1-12.5c0.9-0.7,1.1-0.8,1.9-1.6c0.8-0.8,1.2-1,2.1-1.7c1.3-1.2,2-2.3,3.3-3.7
			c5.6-5.8,4.1-6.5,2.6-15.8c-0.3-2.1-0.5-4.1-0.9-6.1c-0.3-1.4-0.7-4.9-1-6c-1.9-5.6-8.7-5.2-13-5.2c0-7.8-5.5-22.2-10.1-29.2
			c-5.2-7.7-14-15.4-24.3-15.4c-9.7,0-13.3-0.4-21.8,5.3c-9.9,6.6-17.1,19.1-20.3,30.6C54.4,64.6,53.2,68.7,53.1,71.1z"/>
		<path class="st0" d="M28.2,152.5c0,2.9,4.4,5.3,7.4,5.3h112.7c2.1,0,3.5-0.6,4.9-1.4c4.6-2.7,2.6-7,1.3-15.3l-5.5-35.6
			c-1.4,0.4-0.7,0.5-2.4,2.2c-2.2,2.2-0.7,1.4-3.3,3.4c-0.6,0.4-0.8,0.7-1.3,1.2c-3.2,3.2-9.7,7.4-13.8,9.4
			c-8.8,4.3-19.3,6.7-31.9,6.7c-0.2,6.1-8.4,6.1-8.4-0.4c-14.5,0-31.2-6.4-42.2-15.4c-0.5-0.4-0.6-0.6-1.1-1
			c-0.7-0.6-0.8-0.5-1.4-1.1c-1-0.9-1.4-1.5-2.5-2.3c-0.9-0.7-4.2-4.2-4.4-5.1h-0.7C35.6,106.7,28.2,147.6,28.2,152.5z"/>
	</g>
</g>
</svg>
