<?xml version="1.0" encoding="utf-8"?>
<!-- Generator: Adobe Illustrator 23.0.3, SVG Export Plug-In . SVG Version: 6.00 Build 0)  -->
<svg version="1.1" id="Livello_1" xmlns="http://www.w3.org/2000/svg" xmlns:xlink="http://www.w3.org/1999/xlink" x="0px" y="0px"
	 viewBox="0 0 184.3 184.3" style="enable-background:new 0 0 184.3 184.3;" xml:space="preserve">
<style type="text/css">
	.st0{fill-rule:evenodd;clip-rule:evenodd;fill:#1C1C1C;}
</style>
<g id="Layer_x0020_1">
	<path class="st0" d="M90,34.5c4.6-1.4,9.3,2.2,10.2,6c1.1,4.8-1.9,8.9-5.6,9.9C83.7,53.3,79.6,37.7,90,34.5z M83.5,56.6
		c0.7,1.1,0.5-0.1,0.7,2.3l-0.2,16.9l-24.7-0.1l-0.1,7.9L84,83.9c0.1,0.7,0.8,50.3,0.1,55.7c-0.2,0.9-0.3,1-0.5,1.3
		c-15.5-3.1-29.2-16.3-31.9-32.2h6.9c-0.8-2.6-14-22.2-16.2-24.3c-1.5,1.6-2.8,4.1-4.1,5.8l-12,18.5c12.4,0.1,7.3-0.5,10.9,10.1
		c5.5,16.3,15.7,26.7,30.6,34.2c15.1,7.6,34.8,7,49.8-0.6c6-3.1,10.3-5.8,14.8-10.5c7.1-7.4,10.5-11.6,14.5-22.7
		c4-11.3-1-10.9,11-10.5l-15.9-24.5c-1.9,1.3-15.7,22.4-16.4,24.4h6.9c-2.7,16.7-16.2,28.2-31.8,32.2l-0.4-0.8
		c-0.9-3.5-0.1-55.8,0-56.4l24.7-0.1v-7.8l-24.6-0.2c-0.5-2.4-0.8-18.1,0.5-19c4.4-3.8,9.4-9,7.3-18.2c-0.8-3.6-3-6.4-4.9-8.1
		c-3.3-3-4.5-2.6-8.5-4.4h-5.7c-3.6,1.8-5.1,1.5-8.2,4.4c-2.2,2-4,4.4-4.9,8.2C74.1,46.8,78.7,53.7,83.5,56.6z"/>
</g>
</svg>
