<?xml version="1.0" encoding="utf-8"?>
<!-- Generator: Adobe Illustrator 23.0.3, SVG Export Plug-In . SVG Version: 6.00 Build 0)  -->
<svg version="1.1" id="Livello_1" xmlns="http://www.w3.org/2000/svg" xmlns:xlink="http://www.w3.org/1999/xlink" x="0px" y="0px"
	 viewBox="0 0 184.3 184.3" style="enable-background:new 0 0 184.3 184.3;" xml:space="preserve">
<style type="text/css">
	.st0{fill-rule:evenodd;clip-rule:evenodd;fill:#FFFFFF;}
</style>
<g id="Layer_x0020_1">
	<g id="_1216675693152">
		<path class="st0" d="M28.1,73.9c6.6,0,3.2-0.1,7.4-2.4c7.1-4,17.2-3,24,0.9c7.7,4.4,12.8,13,15.6,24l28.5-0.1
			c1.2-1.8,2.7-6.9,3.5-9.4c0.8-2.3,3.7-8.7-0.2-9.3c-2,2.4-0.4,6.8-6.2,6.9c-12.7,0.3-1.9-6.7-11.5-7.1c-1.7-0.1-3.4,0.2-5.1,0.5
			c-1.4,4.3,1.4,5.5-6.7,5.5c-5.9,0.1-4.9-0.8-6.9-5.6c-2.1-5.2,0.2-5.5,5.1-5.4c1.7,0,4.5-0.2,6.2,0.1c2.9,0.4,1.6,1.7,2.8,3.3
			c3.6-0.6,4.9-0.4,8.4,0.3c-0.5-5.6,2.2-4.8,7.1-4.8c4.1,0,8.3-0.7,7.3,4.4c8.4,1.4-0.8,16.1-1.4,20.7l4.4-0.1
			c3.2-8.2,6.4-19.7,9.5-28.8c1-2.9,0.4-3.8-1.3-7l-1-1.5c-0.3-0.4-0.2-0.3-0.6-0.5c-0.5,11.8-5.9,9.5-18.3,9.4c-4.6,0-9.3,0-14-0.1
			c-3.7,0-8,1.4-12.4,1.6c-8.5,0.4-17.6-0.9-25.6-2.4c-4.7-1-7.1-1.9-11.7,0.3c-1.7,0.8-2.9,1.6-4.1,2.7
			C30.3,70.6,28.3,72.5,28.1,73.9z"/>
		<path class="st0" d="M133.7,89.9c-0.9-2-2.4-4.1-3-6.1c-7.2,4.8-5.8,19.4,5.6,21.7c10.7,2.2,19.3-9.5,13.4-18.9
			c-1.8-2.9-6.5-7-11.9-6.1c-1.4,0.3-1.2-0.2-0.7,1.2c0.1,0.3,0.6,1.1,0.8,1.5c1.3,2.4,1.9,4.5,3.5,5.6c0.9,0.6,1.7,1.1,2.2,2.2
			c2.4,5.1-4,9.9-8.3,5.8C132.5,94.1,134.8,92.3,133.7,89.9z"/>
		<path class="st0" d="M83.3,65.6c7.5,0.3,15.5,0.1,23,0.2c4.7,0,9.4,1,8.7-8.6c-0.2-2-1.1-2.4-2.7-3.2c-8.3-4.2-19.8-0.5-26.2,4.3
			c-0.8,0.6-2.5,1.8-3.1,2.5C82.4,61.9,83.1,63.9,83.3,65.6z"/>
		<path class="st0" d="M126,156.8c-1.5,0-8.9-0.2-9.7,0.2c-1.5,0.8-1.1,2.7,0.9,2.9c2.1,0.3,23.3,0.2,24.6-0.4c1-3.2-1.4-2.7-4-2.7
			c-7.3,0-5.5,0.9-11.2-3.9c-6.3-5.3-14-11.1-20.2-16.4C99,130.2,89.7,123,82,116.6c-5.4-4.4-4.4-4.5-10-4.2L126,156.8z"/>
		<path class="st0" d="M62.5,101.6c-0.8-0.5-2.1-0.6-3.1-0.7c-2.4,2.2-3.2,4.4-7.9,5.8c-4,1.2-8.4,0.5-11.4-1.4
			c-6.2-3.8-6.2-9-7-10.1c-1.1-1.6-3.6-0.5-1.1-7l2-0.2c1.5-3.2,3.3-5.5,6-7c3-1.8,6.5-2.7,10.5-1.7c3,0.7,6.2,2.7,8,5.1
			c2.2,3.1,2.8,5.6,3,10.1l3,1c2.1-21.9-27.5-26.8-33.8-7.8c-3.2,9.9,2.8,18.5,9.3,21.4C49.9,113.3,59.1,108.1,62.5,101.6z"/>
		<path class="st0" d="M128.5,79.5c-2.7,1.3-5.6,5.7-6.6,9.7c-3.3,13.8,11.2,26.1,24.6,19.6c16.8-8.2,11.1-36.3-12.1-32.6l1,2.5
			c4.7-0.5,8.2-0.1,11.6,2.1c14.4,9.6,2.9,31.9-13.1,26.1c-6.8-2.5-10.9-9.6-9.4-16.8c1.1-5.3,3.6-6.4,5-8.5L128.5,79.5z"/>
		<path class="st0" d="M59.8,156.8c0.7-1.3,14.8-12.3,16-13.3l14.9-12.1c0.6-0.5,0.3-0.2,0.8-0.8c-0.5-0.7-1.4-1.5-2.3-1.9
			c-0.8,0.4-3.6,2.8-4.5,3.6l-13.2,10.7c-2.9,2.5-5.8,4.7-8.9,7.2c-1.8,1.5-7.2,6.6-9.4,6.6c-1.7,0-6.1-0.3-6.8,0.5
			c-1.3,2.1,0.2,2.7,2.2,2.7h2.1c5.9,0,16.2,0.6,21.5-0.4c0.7-2.2,0.1-2.8-2.2-2.8H59.8z"/>
		<polygon class="st0" points="65.3,110.4 120.4,110.4 120.2,107 65.3,107 		"/>
		<path class="st0" d="M37.1,62.1c3.4,0.8,4,1.6,9.9,2.7c12.8,2.5,21.4,3.3,34.2,1.3c-0.2-1.3-0.3-2.8-0.8-3.7
			c-7.7,1.5-12.9,1.9-20.5-0.3c-6.4-1.8-13.9-2.2-20.8-2.3L37.1,62.1z"/>
		<path class="st0" d="M36.4,88.2c3.2,0.1,8.5,1.8,11.6,2.7c3.5,1,8,2.4,11.5,3.1c0.1-6.7-3.8-11.2-9.1-12.6
			C43.6,79.6,38.1,83.9,36.4,88.2z"/>
		<path class="st0" d="M41.2,96.2c5.1,0.8,29.2,5.2,30.8,4.7l0.3-1.5c-0.3-0.2-0.2-0.2-0.7-0.4l-1.7-0.6C60.2,96,41,90,33.3,89.8
			l-0.6,2.8C35.8,95.6,36,95.4,41.2,96.2z"/>
		<path class="st0" d="M107,33c1.2,0.9,1.2,0.8,1.2,2.8v8.3l-8,0.1c-2.9,0-4.4,2.9,1.2,2.9c8.3,0,6.8-0.9,12.2,3.3
			c2.2,1.6,2.6,2.5,5.2,0.4c-0.3-0.3-1.4-1.2-1.5-1.3c-0.6-0.8,0.2-0.8,0.2-1.7l-1.9-1.5c-0.4,0.4-0.8,0.8-1.4,1
			c-1-0.9-2-1.6-3.1-2.3v-9.4c0-4.1-2.2-4.1-4.1-6.2c0.1-1.6,0.9-5-1.2-5c-1.9,0-1.5,3.1-1.6,4.7c-0.1,1.3-0.5,4.8-0.1,5.8
			c0.3,0.6,1.8,1.7,2.6-0.5l0.3-1C106.9,33.1,106.9,33,107,33z"/>
		<path class="st0" d="M80.2,145.3c-6.4,0-3.9,0.1-7.9,3.1h41c-0.3-0.6-1.6-1.5-2.1-2c-1.4-1.1-1.1-1.1-3.4-1.1H80.2z"/>
		<path class="st0" d="M120.2,144.5c1.1,2.3,1,2,2.8,3.5c1.2,1,2.2,2,3.6,2.8c-0.7-2.1-6.5-13.8-8.1-16.9l-8.1-16.5
			c-1.1,0.6-1.1,1-2.3,1.6C108.4,120.6,118.6,141.1,120.2,144.5z"/>
		<path class="st0" d="M59.2,151c2.4-1.6,5-3.5,6.3-6.3c2.7-5.8,10.5-21,12.2-25.4c-0.7-0.9-1.4-1.4-2.4-2.1L59.2,151z"/>
		<path class="st0" d="M117.5,53.3l18.1,35.8c0.6-0.3,1.7-0.9,2.3-1.2l-18-35.7L117.5,53.3z"/>
		<path class="st0" d="M73.2,101.8c6.3,1,12.8,1.6,19.1,2.4c7.8,1,11.5,1.8,13.4-6.3h-3c-0.9,2.7-1.4,4.5-4.8,4.1
			c-6.7-0.8-18.6-2.6-24.1-2.9L73.2,101.8z"/>
		<path class="st0" d="M36,97.1c1.7,4.3,4.3,7.1,9,8c6.4,1.2,9-2,11.8-4.3c-0.9-0.7-3.8-0.9-5.1-1.1L36,97.1z"/>
		<path class="st0" d="M96.4,82.1c1.2,0.6,3.2,0.5,4.6,0.4c2.7-0.1,2.2-1.3,3.9-6.1c0.5-1.4,1.3-2.8-0.5-3.1
			c-1.4-0.3-8.7-0.3-9.3,0.5C94.5,74.5,95.6,81.2,96.4,82.1z"/>
		<path class="st0" d="M96.4,126.5c1.1-0.4,7.6-5.9,8.9-6.9c1.2-1,8.1-6.5,8.4-7.2c-5.8,0-4-0.7-10.9,5.1c-1.7,1.5-7.7,5.9-8.6,7.2
			C95.1,125.3,95.5,125.6,96.4,126.5z"/>
		<path class="st0" d="M71.7,74.5c0.1,1.5,0.6,2.3,1.1,3.5c1.2,2.8,0.3,4.3,8.8,3.3l0.6-6.7C78.3,74.3,75.8,74.4,71.7,74.5z"/>
		<path class="st0" d="M131.6,59.5c0.4-1.2,0.7-7.1,0.1-8.4c-1.2-2.6-4.4,0.6-5.6,1.4c-2.4,1.8-3.4,2.8-0.5,5
			C128.8,59.9,129.5,60.5,131.6,59.5z"/>
		<path class="st0" d="M136,94.2c1,3.4,6.7,2.2,5.8-1.8C141,88.8,134.7,89.9,136,94.2z"/>
		<path class="st0" d="M116.7,44.8c0.6,0.9,1,1.1,1.8,1.4l2.1-2.3c-0.5-0.8,0-0.3-0.7-0.9c-0.7-0.6-0.5-0.5-1.3-0.8
			C118,43.3,117.3,43.8,116.7,44.8z"/>
	</g>
</g>
</svg>
