<?xml version="1.0" encoding="utf-8"?>
<!-- Generator: Adobe Illustrator 23.0.3, SVG Export Plug-In . SVG Version: 6.00 Build 0)  -->
<svg version="1.1" id="Layer_1" xmlns="http://www.w3.org/2000/svg" xmlns:xlink="http://www.w3.org/1999/xlink" x="0px" y="0px"
	 viewBox="0 0 184.3 184.3" style="enable-background:new 0 0 184.3 184.3;" xml:space="preserve">
<style type="text/css">
	.st0{fill:#FFFFFF;}
</style>
<g id="Layer_x0020_1">
	<path class="st0" d="M46.5,35.2c17.6-3.4,23.2,23.6,5,27.4C33.9,66.2,27.4,38.8,46.5,35.2z M24.4,106.1l12.4-0.2
		c2.7-3.4,5.8-9.4,8.1-13.1c9.7-16.4,11.9-24.7,19.4-14.9c2.7,3.6,6.7,8.3,9.7,11.3C82.5,73,89,44.6,96.6,63.7
		c5.4,13.9,11.9,28.3,16.7,42.3l11.9-0.2V24.2H24.4C24.4,24.2,24.4,106.1,24.4,106.1z"/>
	<path class="st0" d="M145.2,160h3.2c3.8-3.6,2.9-4,3.4-10.3c1.3-14.4,7.4-86.8,8.3-88.9v-3.1c-2.9-4.1-4.3-3.1-10.3-3.6
		c-6.3-0.5-6.3-1.4-11,1.4l0.2,4.3c2.5,1.8,1.3,1.8,5.2,2.2c2.3,0.2,4.7,0.4,7,0.5l-8.1,88c-4.5,0.4-43-3.8-51.1-4.3
		c-8.3-0.7-16.9-1.6-25-2.3c-10.1-0.9-22.9-4.1-20.7,4.3c0.9,3.4,6.7,3.1,11,3.4C71.7,152.9,142.6,159.1,145.2,160z"/>
	<polygon class="st0" points="125.4,125.2 125.2,115 24.2,115 24.2,125.2 	"/>
	<path class="st0" d="M46.9,106.1l57.1-0.2L90.6,73.4C87,78.4,82,95,76.8,101.5c-5.4,0.4-4.7-0.9-9.9-7c-1.6-2-6.3-7.9-7.7-8.8
		L46.9,106.1z"/>
	<path class="st0" d="M46.5,44.4c-1.4,0.7-2,0-2.7,2.7c-1.4,5.2,3.2,8.6,7.9,6.5C56.6,51.2,54.3,40.6,46.5,44.4z"/>
</g>
</svg>
