<?xml version="1.0" encoding="utf-8"?>
<!-- Generator: Adobe Illustrator 23.0.3, SVG Export Plug-In . SVG Version: 6.00 Build 0)  -->
<svg version="1.1" id="Layer_1" xmlns="http://www.w3.org/2000/svg" xmlns:xlink="http://www.w3.org/1999/xlink" x="0px" y="0px"
	 viewBox="0 0 184.3 184.3" style="enable-background:new 0 0 184.3 184.3;" xml:space="preserve">
<style type="text/css">
	.st0{fill:#FFFFFF;}
</style>
<g id="Layer_x0020_1">
	<g id="_2429341186176">
		<path class="st0" d="M50.5,127.5c2,0.2,60.1,0,66.8,0c2.5,0,7.7,0.4,9.7,0v-17.3H50.5V127.5z"/>
		<path class="st0" d="M130.3,127.5H152c2.2,0,4.5,0,7,0v-17.5c-1.1,0-2.3,0-3.4,0H145c-4.9,0-9.9,0-14.8,0V127.5z"/>
		<path class="st0" d="M30.5,106.3h3.2c0.5-2.5-2.9-7.2-1.6-12.6c1.1-4.3,2.9-5.6,0.5-12.2c-0.7-2-1.1-4-0.7-6.3
			c0.4-3.6,3.1-6.8,1.4-12.8c-0.2-0.9-0.7-1.8-0.9-2.7c-0.2-0.9-0.4-2.2-0.5-2.9l-3.2-0.2c0,4.9,2.9,6.7,1.6,12.8
			c-0.5,2-1.3,3.4-1.6,5.8c-0.5,6.1,2.2,6.7,1.8,12.8c-0.2,2.7-0.9,3.8-1.4,5.9c-0.5,2-0.5,4.7-0.2,6.7L30.5,106.3z"/>
		<path class="st0" d="M42.4,106.3h3.2c0.4-3.6-3.1-7.2-1.6-12.4c0.5-2.2,1.4-3.2,1.6-5.8c0.5-6.3-2.3-6.7-1.8-13
			c0.2-2.5,1.1-3.8,1.6-5.8c1.3-5.9-1.3-7.9-1.4-12.8h-3.2c-0.5,3.6,2.7,6.5,1.6,12.4c-0.5,3.2-2.9,6.7-0.9,12.4
			c0.9,2.2,1.3,3.6,1.1,6.3c0,2.7-0.9,3.8-1.4,6.1C39.7,98.2,41.3,102.1,42.4,106.3z"/>
		<path class="st0" d="M39.7,106.3c0.5-3.6-3.1-7-1.6-12.6c1.3-4.3,2.9-5.9,0.5-12.2c-2.2-5.8,0.2-9,0.9-12.4
			c0.7-3.6-0.2-6.1-1.1-9.4c-0.4-1.1-0.4-2.2-0.7-3.1h-3.1c-0.5,4,3.2,6.3,1.4,13.1c-0.5,2.5-1.4,3.4-1.4,6.3
			c-0.2,5.9,2.9,7.2,1.6,13.7c-0.4,2.2-1.4,3.6-1.6,6.1c-0.2,2.7,0,4.7,0.9,7C36.8,106.5,35.2,106.3,39.7,106.3z"/>
		<polygon class="st0" points="42.1,127.5 47.3,127.5 47.3,110.2 42.1,110.2 		"/>
		<polygon class="st0" points="33.6,127.5 39,127.5 39,110.2 33.6,110.2 		"/>
		<path class="st0" d="M25.3,127.5c1.6,0,3.8,0.4,5-0.2v-0.2V127l-0.2-16.9c-1.3-0.4-3.6-0.2-5-0.2v17.6H25.3z"/>
	</g>
</g>
</svg>
