<?xml version="1.0" encoding="utf-8"?>
<!-- Generator: Adobe Illustrator 23.0.3, SVG Export Plug-In . SVG Version: 6.00 Build 0)  -->
<svg version="1.1" id="Livello_1" xmlns="http://www.w3.org/2000/svg" xmlns:xlink="http://www.w3.org/1999/xlink" x="0px" y="0px"
	 viewBox="0 0 184.3 184.3" style="enable-background:new 0 0 184.3 184.3;" xml:space="preserve">
<style type="text/css">
	.st0{fill-rule:evenodd;clip-rule:evenodd;fill:#FFFFFF;}
</style>
<g id="Layer_x0020_1">
	<path class="st0" d="M118.9,51.6c1.9-1,1.4-1.7,1-3.3c-3.3-1-7.9-0.1-11.6-0.7c0-1.3-0.1-2.9-0.1-4.1c0-0.7,0-1.2,0.2-1.8
		c0.4-1.2,0.3-0.7,0.9-1.3c1.1-0.9,9.9-0.9,12.2-0.7c2.2,0.2,1.7-0.2,2.5,1.3l0.2,107.2h-15.5L108.5,52h9.1
		C119,51.8,118.6,51.8,118.9,51.6z M31.7,152.5h4.7h111.3h4.7v-4.7V52.5c-1.7-2.8-2.1-4.4-6.4-4.7c-1.4-0.1-17.6-1.4-13.1,3.3
		c1.7,1.7,13-0.6,14.8,1.3c1.3,1.2,1.2,94.2,0,95.4c-2.6,1.5-14.9,0.7-19.5,0.7V63.9c5.6,0,14.3,1.2,14-2c-0.3-2.7-3.9-1.9-6.4-1.9
		c-2.4,0-4.9,0-7.3,0c-0.8-5.3,0.7-15.5-0.5-19.9c-1.6-5.8-9.1-4.3-15.8-4.3c-8.8,0-8,4.5-8,12.6v99.9H84.3V44
		c2.9,0.1,12.8,0.8,14.4-0.5c1.4-0.7,1,0.7,1.2-1.6c0.1-1-0.1-1.2-0.9-1.7c-1.7-1-10.4,0.2-15.1-0.6c0-5.8-1.1-5.4-4.2-7.9H56.7
		c-2.1,1.3-3.1,1-4.1,3.2c-1.2,2.6-0.7,17.4-0.7,20.8c-3.8,0.6-8.3-0.3-11.7,0.7c-0.5,1.6-0.9,2.2,1,3.3c0.4,0.2-0.3,0.2,1.3,0.5
		h9.1v88.1l-14.5-0.1c-1.3-0.6-0.8,0.9-1.3-1.7l-0.1-93.3c-0.1-8,2.7-4.6,9.5-5.4c3.4-0.4,3.9-3.5,0-4c-1.4-0.2-7.8-0.1-9.1,0.3
		c-3.1,0.7-2.9,2.1-4.4,4.5v99.1V152.5z M115.5,140.4h1.6c4.6,0,4.2-4,0-4h-1.6C111.3,136.4,110.9,140.4,115.5,140.4z M43,140.4h1.6
		c4.6,0,4.2-4,0-4H43C38.8,136.4,38.3,140.4,43,140.4z M43,92h1.6c4.6,0,4.2-3.9,0-3.9H43C38.8,88.1,38.3,92,43,92z M115.5,67.9h1.6
		c4.6,0,4.2-4,0-4h-1.6C111.3,63.9,110.9,67.9,115.5,67.9z M115.5,76c3.8,0,5.4,0.2,4.3-3.5C111.8,70.1,109.6,76,115.5,76z
		 M43,132.3c3.8,0,5.4,0.2,4.4-3.5C39.3,126.5,37.1,132.3,43,132.3z M43,84c3.8,0,5.4,0.2,4.4-3.5C39.3,78.1,37.1,84,43,84z
		 M115.5,84c3.8,0,5.4,0.2,4.4-3.5C111.8,78.1,109.6,84,115.5,84z M115.5,132.3c3.8,0,5.4,0.2,4.4-3.5
		C111.8,126.5,109.6,132.3,115.5,132.3z M91.3,140.4h5.4c5.2,0,4.5-4,0-4h-5.3C87.1,136.4,86.7,140.4,91.3,140.4z M133.6,136.7
		c-1,0.6-2.8,3.6,2.3,3.7c14,0.3,8-3.9,5.5-4.1C139.5,136.3,134.7,136.1,133.6,136.7z M91.3,132.3h5.4c5.5,0,3.7-4,1.1-4h-6.5
		C87,128.4,86.8,132.3,91.3,132.3z M135.9,132.3c6.7,0,9.3,0.8,8.1-3.5c-2.6-0.7-6.2-0.5-9.2-0.5
		C132.2,128.4,130.4,132.3,135.9,132.3z M63.4,132.3h9.2c5.5,0,3.6-4,1-4h-11C59.8,128.4,57.9,132.3,63.4,132.3z M61.1,136.7
		c-0.6,0.4-4.2,3.8,4.4,3.7c1.8-0.1,8.4,0.3,9.5-0.4c1.2-0.8,1.3-2.3-0.1-3.2c-1-0.6-3.2-0.4-4.5-0.4
		C68.1,136.4,62.6,135.9,61.1,136.7z M140.5,83.8v16.6c0,5.3,3.9,4.8,3.9,0.6V83.2C144.5,79,140.5,78.6,140.5,83.8z M132.5,83.2V101
		c0,3.4,1,3.5,3.5,2.8c0.9-3.1,0.5-16.4,0.5-20.5C136.4,79,132.5,78.6,132.5,83.2z M67.9,95.6c-5.3,1,5.4,1,7.3,0H67.9L67.9,95.6z
		 M64,92.2h7.9L72,67.9h-7.9L64,92.2z M96.2,68.2v23.6c-0.8,0.5,1.2,0.5-1.6,0.6l-2.7-0.2L92,67.8l2.5-0.1
		C97.2,67.7,95.4,67.7,96.2,68.2z M88.1,67.2c0,4.9-0.5,25.2,0.5,28.5c2.6,0.7,5.2,0.5,8.1,0.5c2.8,0,3.4-0.2,3.4-3.2V67.2
		c0-4.1-1.3-3.3-8.8-3.3C88.7,63.9,88.1,64.5,88.1,67.2z M80,39.2c0,13.3,0.6,104.1-0.3,109.3H55.9V47.8h11.3c2.3,0,8.9,1.2,8.7-2.1
		c-0.2-2.9-6.5-1.8-9.2-1.8c-3.5,0-7,0-10.6,0.1l-0.1-4.7c0-4.8,2.8-3.5,12.3-3.5C77.5,35.7,80,34.4,80,39.2z"/>
</g>
</svg>
