<?xml version="1.0" encoding="utf-8"?>
<!-- Generator: Adobe Illustrator 23.0.3, SVG Export Plug-In . SVG Version: 6.00 Build 0)  -->
<svg version="1.1" id="Layer_1" xmlns="http://www.w3.org/2000/svg" xmlns:xlink="http://www.w3.org/1999/xlink" x="0px" y="0px"
	 viewBox="0 0 184.3 184.3" style="enable-background:new 0 0 184.3 184.3;" xml:space="preserve">
<style type="text/css">
	.st0{fill:#FFFFFF;}
</style>
<g id="Layer_x0020_1">
	<path class="st0" d="M46,138.3c0.9,2.5,4.3,5.9,6.8,7c4-1.6,13.7-12.6,17.3-16.2c4-4,14.8-13.5,16.7-17.6l-7.4-7.2
		C76.8,106.1,47.6,135.4,46,138.3z M74.4,95.1l26.5,26.1c3.2,3.2,24.5,25.6,26.8,25.7c3.2-0.9,5.9-3.6,6.7-6.8
		c-2.7-4.5-71.5-73.3-77.2-79.2c-3.2-3.2-6.7-5.9-9.9-9.2c-3.4-3.6-6.3-6.7-9.7-10.1c-6.1-6.1-11.5,1.4,0.9,21.6
		C47.4,77.8,55.5,85,63.8,96C68.8,102.3,69.7,100.2,74.4,95.1z M92.1,91.7l7.2,7.4c6.3-3.2,4.3-7.9,16-8.6
		c9.2-0.5,14.2-0.9,18.9-6.3c3.4-4,7-9.9,10.4-14.6c2.9-3.8,10.8-13.1,8.3-15.7c-2.7-2.5-8.8,5.4-12.8,9.4c-4,4-10.6,12.4-13.5,9.4
		c-2.7-2.9,5.8-9.2,9.7-13.1c2.2-2.2,3.6-3.6,5.8-5.8c2.5-2.5,5-3.6,3.2-8.1c-4.9-1.6-7,2.9-13.7,9.4c-4.3,4.1-10.4,12.4-13.5,9.4
		c-4.3-4.5,20.9-19.8,19.3-25c-1.1-3.6-4-1.4-5.9-0.2c-8.3,5.8-27.2,17.8-29.7,25.2c-1.8,5-0.5,11-2,16.2
		C98.4,86.7,94.9,87.9,92.1,91.7z"/>
</g>
</svg>
