<?xml version="1.0" encoding="utf-8"?>
<!-- Generator: Adobe Illustrator 23.0.3, SVG Export Plug-In . SVG Version: 6.00 Build 0)  -->
<svg version="1.1" id="Layer_1" xmlns="http://www.w3.org/2000/svg" xmlns:xlink="http://www.w3.org/1999/xlink" x="0px" y="0px"
	 viewBox="0 0 184.3 184.3" style="enable-background:new 0 0 184.3 184.3;" xml:space="preserve">
<style type="text/css">
	.st0{fill:#FFFFFF;}
</style>
<g id="Layer_x0020_1">
	<g id="_2429380132112">
		<path class="st0" d="M43.5,150.7c-0.5-4,0.5-15.3,0.7-19.8c1.1-16.4,1.4-45.5,3.1-58.9l-2.3-0.2c28.6,0,63.9-0.5,91.8,0.2
			c1.6,12.1,1.4,27.2,2.2,39.8l1.8,39.1H43.5V150.7z M127.9,61.3h3.4c1.1,1.8,3.1,4.3,3.6,6.5h-8.5L127.9,61.3z M49.2,67.8
			c0.4-1.6,1.3-2.5,1.8-3.8c1.1-1.8,1.1-2.2,2.5-2.7l0.5,6.5H49.2z M101.8,54.6c1.1,1.4,3.2,10.6,3.4,13.1H73.5l-1.4-6.1L101.8,54.6
			z M100.7,46l25,5.9l-3.8,15.8h-12.1c-1.3-4.1-3.1-14.8-4.9-17.5c-2.7-0.5-2.7,0.2-5.2,0.2L100.7,46z M87.4,40.2L89,52.5
			c-0.9,1.3-0.5,0.9-2.5,1.4c-0.7,0.2-1.8,0.4-2.7,0.5c-22,5-15.5,3.1-14.6,13.1l-10.3-0.2l-2.7-23.6L87.4,40.2z M84,36.1
			c7.6-5.2,18.5-1.4,20.7,6.3c-2.9-0.5-4-1.3-7-0.9c-1.3,2.5-1.1,9.7-4.3,10.6l-0.9-2c-0.5-2.5-0.7-12.2-2-13.5
			C87.9,35,86.3,36.8,84,36.1z M40.2,154.9h103.7c2-2.3,1.1-7.9,0.9-11.7l-3.4-66.4c-0.5-9.5-0.9-8.8-7.6-19.6L129,57
			c0.4-2.5,1.6-5,1.3-7.9c-2.3-1.8-16.4-4.7-20.3-5.2c-2.9-11-8.8-11.3-14.8-14.4h-5.9c-3.2,1.6-5.2,1.6-8.3,4
			c-4.1,3.2-0.9,3.8-7.7,4.5c-28.1,2.9-20.9-0.4-19.8,18.9c-2.9,1.4-2.3-0.5-4.3,2.9c-4.9,8.8-5.4,6.5-5.9,15.7l-2.7,54
			C39.9,133.6,37.9,152.2,40.2,154.9z"/>
		<path class="st0" d="M105.9,83.2c0-2.2,0-2.2,2-2.9c1.6,0.5,2,0.9,2.2,3.1C108.4,82.7,107.9,82.5,105.9,83.2z M74.1,83.4
			c0.2-2,0.5-2.5,2.2-3.1c2,0.7,2,0.5,2,2.9C75.7,82.5,76.6,82.3,74.1,83.4z M105.9,89c0,4.7,0.4,9.5-1.4,13.3
			c-5.4,11.3-22,10.3-25.7-2c-0.7-2.3-0.5-4.5-0.5-6.8c-0.2-10.3,4-3.8,4.3-10.6c0.4-11-16.9-6.8-11.7,2.7c1.3,2.3,3.1,2,3.4,4
			c0,7.6-0.4,13,4,17.8c8.1,9.5,20.9,9.4,28.8-0.7c3.6-4.7,3.4-11,3.4-17.8c0.2-0.7,2-1.3,3.2-3.1c5.8-8.8-10.6-14.6-11.5-4.1
			c-0.2,1.8,0.2,3.2,1.3,4.5l2.7,2.3C105.7,88.6,105.7,89,105.9,89z"/>
	</g>
</g>
</svg>
