<?xml version="1.0" encoding="utf-8"?>
<!-- Generator: Adobe Illustrator 23.0.3, SVG Export Plug-In . SVG Version: 6.00 Build 0)  -->
<svg version="1.1" id="Livello_1" xmlns="http://www.w3.org/2000/svg" xmlns:xlink="http://www.w3.org/1999/xlink" x="0px" y="0px"
	 viewBox="0 0 184.3 184.3" style="enable-background:new 0 0 184.3 184.3;" xml:space="preserve">
<style type="text/css">
	.st0{fill-rule:evenodd;clip-rule:evenodd;}
</style>
<g id="Layer_x0020_1">
	<g id="_1217107649216">
		<g>
			<path class="st0" d="M150,70.3h-19.9l0.1,0.1c4.2,0.2,7.5,3.5,7.5,7.8s-3.5,7.7-7.7,7.7c-4.3,0-7.8-3.5-7.8-7.7
				c0-0.3,0.1-0.5,0.1-0.8l-6.7-7.1H68.2l-6.7,7.1c0,0.3,0.1,0.5,0.1,0.8c0,4.2-3.5,7.7-7.8,7.7c-4.2,0-7.7-3.5-7.7-7.7
				s3.3-7.6,7.5-7.8l0.1-0.1H34.2c-2.2,0-4,1.8-4,4v71.4c0,2.2,1.8,4,4,4H150c2.2,0,4-1.8,4-4V74.3C154,72.1,152.2,70.3,150,70.3z
				 M53.1,98.4H85v6.1H53.1V98.4z M88.8,128.2H49.3V122h39.5V128.2z M138.3,120.1h-15.7v6.3c0,1.9-0.7,5-5.6,5h-7.2l-1.6-6.2
				l1.6,0.1c2,0.2,4,0.2,5.8,0.2c0.3,0,0.5,0,0.5-0.1v-5.4H98.8v-6H116v-2.7h-13.8v-6.1H116v-2.4c-4.2,0.2-8.2,0.3-12.1,0.3h-0.8
				l-2.2-5.8h1.7c11.5,0,21.4-0.9,29.3-2.5l0.8-0.2l3.4,5.3l-1.6,0.4c-3.6,0.8-7.6,1.4-11.8,1.9v2.9h12.6v6.1h-12.6v2.7h15.7V120.1z
				 M59.3,78.1c0,3.1-2.4,5.5-5.5,5.5c-3,0-5.5-2.4-5.5-5.5c0-3,2.5-5.5,5.5-5.5C56.9,72.7,59.3,75.1,59.3,78.1z M130,72.7
				c3,0,5.5,2.4,5.5,5.5c0,3.1-2.5,5.5-5.5,5.5c-3,0-5.5-2.4-5.5-5.5C124.5,75.1,126.9,72.7,130,72.7z M85.7,49.4L55.3,79.8l-2.1-1
				c-1.4-1.4-1.4-3.6,0-5l29.4-29.4C83.1,46.4,84.2,48.1,85.7,49.4z M131.1,78.8l-2.1,1L98.6,49.4c1.5-1.3,2.6-3,3.1-5l29.4,29.4
				C132.5,75.2,132.5,77.4,131.1,78.8z M92.1,34.5c4.1,0,7.4,3.3,7.4,7.4c0,4.1-3.3,7.4-7.4,7.4s-7.4-3.3-7.4-7.4
				C84.7,37.8,88,34.5,92.1,34.5z"/>
		</g>
	</g>
</g>
</svg>
