<?xml version="1.0" encoding="utf-8"?>
<!-- Generator: Adobe Illustrator 23.0.3, SVG Export Plug-In . SVG Version: 6.00 Build 0)  -->
<svg version="1.1" id="Livello_1" xmlns="http://www.w3.org/2000/svg" xmlns:xlink="http://www.w3.org/1999/xlink" x="0px" y="0px"
	 viewBox="0 0 184.3 184.3" style="enable-background:new 0 0 184.3 184.3;" xml:space="preserve">
<style type="text/css">
	.st0{fill-rule:evenodd;clip-rule:evenodd;}
</style>
<g id="Layer_x0020_1">
	<g id="_1216684899984">
		<path class="st0" d="M122.4,123c1-3.1-0.4-0.4,1.8-2.5c1-1,1.3-0.9,2.3-2.1c1.5-1.7,2.4-3.4,4.1-5.8c1.2-1.6,2.4-3.7,3.1-5.8
			l0.4-5.5c-0.7-2.2-0.3-0.9-1-1.9c-5.5-1.5-11.2,7-13.6,10.3c-2.8,3.8-3.9,2.9-6.4,6c-3.9,4.8-0.5,1.3-6.6,5.9
			C92,132.5,95,137.5,95,159.4l23.8,0.5c0.1-3.5,0.1-8.1,0.5-11.5c0.5-4.7,1.6-5.1,4.2-7.2c3.8-3.1,7.8-8.2,11.3-11.9
			c4.3-4.6,6.4-5.4,9.2-14c2.7-8.1,3.7-11.5,3.7-20.7c0-5.3,1.1-19.2-4-19.8c-6.2-0.7-5.8,13-5.9,17.8
			C137.4,105.1,131.6,120.8,122.4,123z"/>
		<path class="st0" d="M36.8,95.5c-0.1,9.1,0.8,11.5,3.4,19.5c3.3,9.8,4,8.1,9.4,13.9c14.5,15.6,15.8,13.9,15.9,30
			c3,1.7,13.4,1.1,23.9,0.9c-0.5-14.9,2.7-22.7-4.9-32.7c-1.8-2.4-4.1-3.6-6.9-5.7c-10.3-7.6-6.6-6.2-12.7-12.2
			c-1.4-1.4-1.9-1.4-3.5-2.8c-2.6-2.3-6.5-10.1-10.5-6.7c-4.7,4.1,3.4,14.3,7,18.1c4.5,4.6,3.2,2.3,4,5.4c-3.1-1.5-4.7-3.8-6.9-5.9
			c-7.4-7.4-7.7-15.6-8.7-26.3c-0.7-6.7,0.2-18.9-6.6-16C35.2,76.9,36.8,90.4,36.8,95.5z"/>
		<path class="st0" d="M115.3,24.5l-0.5,16.2c-2.2-0.6-15.8-12.2-19-14.3c-4.8-3.2-8.8,0.9-11.3,2.9L47.6,57.4
			c-3.8,2.9-11.8,8.1-10.1,10.2c1.2,1.4-0.4,2.7,6.9-2.6l27.4-20.8c2.9-2,4.4-3.4,7-5.5c3-2.3,11.3-8.9,13.7-9.7l12.1,9.1
			c1.3,0.9,1.5,0.9,3.1,2.2l6.1,4.8c2.2,1.1,1.6,1.7,3.2-0.2c1-0.9,1.8,1.9,1.6-7.5c0-3.1-0.3-6.3,0.3-9.3l12.4,0.1l0.2,31
			c2.9,2.2,12.1,9.6,15.1,9c1.5-4.6-0.7-3.5-4.5-6.2l-6.9-5.8c-0.5-8,0.9-25.4-0.7-31.2C123.9,23.8,126,24.3,115.3,24.5z"/>
		<path class="st0" d="M79.7,72.2l25-0.1l-0.2,25.1L79.7,97L79.7,72.2z M76.2,68.8l-0.3,31.8c6.5,1,12.2,0.7,18.8,0.7
			c16.3,0.1,14,1.9,14-26.3c0-5.1-0.7-6.7-6-6.7L76.2,68.8z"/>
	</g>
</g>
</svg>
