<?xml version="1.0" encoding="utf-8"?>
<!-- Generator: Adobe Illustrator 23.0.3, SVG Export Plug-In . SVG Version: 6.00 Build 0)  -->
<svg version="1.1" id="Layer_1" xmlns="http://www.w3.org/2000/svg" xmlns:xlink="http://www.w3.org/1999/xlink" x="0px" y="0px"
	 viewBox="0 0 184.3 184.3" style="enable-background:new 0 0 184.3 184.3;" xml:space="preserve">
<style type="text/css">
	.st0{fill:#FFFFFF;}
</style>
<g id="Layer_x0020_1">
	<g id="_2429456649248">
		<path class="st0" d="M16.9,105.8H110c0-19.3,0-38.3,0-57.4c0-12.6-0.4-11-17.6-11c-7.7,0-69.1-0.4-71.6,0.2c-4.7,0.9-4,5.8-4,10.4
			C16.7,67.3,16.9,86.5,16.9,105.8z"/>
		<path class="st0" d="M125.3,79.2c-0.5-2.7-0.2-8.5-0.4-11.7c0-6.5-0.9-8.3,3.1-8.3c2.2,0,9.9-0.4,11.3,0.4
			c2.2,1.1,9.4,15.1,11.3,18.4c1.3,2.2-0.7,2-2.7,2C143.8,79.7,127.6,80.2,125.3,79.2z M165.8,106.9c-2.2-0.9-7.2-1.6-7.4-7.7
			c0-5.2,3.4-6.8,7.2-7.7c1.1-6.1-2.2-10.6-4.5-14.6c-2.3-4.1-4.7-8.1-7-12.2c-9.7-17.1-6.3-15.5-23.4-15.5
			c-6.5,0-13.1-1.3-15.3,4.1c-1.3,2.9-0.7,14.4-0.7,18.5c0,5.9,0.4,35.5-0.2,38.7H67.7c0.5,1.3,2.5,3.4,4,5.8h45.5
			c9.2-19.3,45.2-15.8,44.3,13.9c7.4,0.5,9.4-0.4,9.4-7.9c0-2,0.4-7-0.2-8.6c-0.4-1.1-1.3-2-2-2.5c-0.7-0.5-0.7-0.4-1.6-0.7
			C165.6,109.9,165.8,110.8,165.8,106.9z"/>
		<path class="st0" d="M49.5,121.5c10.3-2.5,13,12.8,3.8,15.1c-4.7,1.3-8.6-2.2-9.5-5.8C42.7,126,45.7,122.4,49.5,121.5z
			 M33.7,130.6c0.7,9.4,9.2,16.9,19.6,15.8c9-1.1,16.7-9.2,15.7-19.4c-0.9-8.6-9.4-16.9-19.6-15.7C40.3,112.5,32.9,120.2,33.7,130.6
			z"/>
		<path class="st0" d="M130.3,130.3c-1.6-10.6,13.9-11.9,15.1-2.5C146.9,138.6,131.8,139.6,130.3,130.3z M155.5,131
			c1.1-10.4-6.5-18-15.3-19.4c-10.4-1.6-18.9,6.3-19.6,15.3c-0.9,10.1,6.5,19.1,15.5,20C146,147.7,154.6,139.8,155.5,131z"/>
		<polygon class="st0" points="75.1,130.1 114.1,129.9 114.3,124.3 74.9,124.2 		"/>
		<path class="st0" d="M31,116.1c1.6-3.6,4-4.3,4.1-5.8c-4.7,0-9.2-0.2-13.9-0.2c-5.2,0-7.9,0.2-8.1,5.9L31,116.1z"/>
		<path class="st0" d="M27.9,124.3H13.3c0.2,7.7,7.6,5.9,14.2,5.8L27.9,124.3z"/>
		<path class="st0" d="M165.8,102.9v-7.7C161.1,95,161.3,102.9,165.8,102.9z"/>
	</g>
</g>
</svg>
