<?xml version="1.0" encoding="utf-8"?>
<!-- Generator: Adobe Illustrator 23.0.3, SVG Export Plug-In . SVG Version: 6.00 Build 0)  -->
<svg version="1.1" id="Livello_1" xmlns="http://www.w3.org/2000/svg" xmlns:xlink="http://www.w3.org/1999/xlink" x="0px" y="0px"
	 viewBox="0 0 184.3 184.3" style="enable-background:new 0 0 184.3 184.3;" xml:space="preserve">
<style type="text/css">
	.st0{fill-rule:evenodd;clip-rule:evenodd;}
</style>
<g id="Layer_x0020_1">
	<g id="_2307210389952">
		<path class="st0" d="M140.7,131.6c0,6.3,1.8,9.7,1.9,11.6c-1.8-0.2-6.2-2.1-11.9-2.1c-3.5,0-6.5,4.3-18.3,4.3
			c-7.8,0-14.1-3.1-19.5-7.1l-4.5-4.5c8-0.7,17.8-4.7,24.2-9.5c5.2-3.8,7.5-6.2,11.3-11.3c1.7-2.2,3.1-4.5,4.3-7
			c2.3-4.7,5.2-12.4,5.2-17.6c2.4,1.6,6.3,6.6,7.7,9.4c4.1,8.2,4.9,17.1,2,26C142.2,126.8,140.7,128.4,140.7,131.6z M82.8,31.3h0.6
			c7,0.1,14,1.5,20.7,4.6c4.8,2.3,7.2,4,11.2,7l3.2,2.8c1.8,1.9,4.2,4.4,5.7,6.6c4.9,7.1,9.6,17.2,9.6,26.7c1.4,0.4,6.2,4.4,7.3,5.5
			l4.3,5.2c0.4,0.7,0.8,1.1,1.3,1.8c3.6,5.8,5.7,12.3,6.1,19v4.9c-0.2,3-0.7,5.9-1.5,8.8c-0.4,1.5-0.9,2.7-1.4,4
			c-0.4,1.1-1.5,2.5-1.4,3.6c0.4,7.2,4.4,16.1,4.4,16.7c0,2.6-1.6,4.3-3.3,4.3c-4.5,0-11.4-4.1-18.5-4.1c-0.1,0-2.8,1.3-3.1,1.4
			c-0.9,0.5-2.3,0.9-3.3,1.2c-1.9,0.6-5.3,1.5-7.6,1.5h-7.3c-3.3-0.2-6.2-0.6-10.6-2.3c-6-2.3-10.5-5.4-14.9-9.8
			c-1.6-1.5-4.1-5-5.2-6.9c-4.4,0-12.1-1.9-15.9-3.6c-0.8-0.3-3.9-1.9-4.5-1.9c-4.6,0-12.8,2.4-17.4,3.9c-1.2,0.4-4,1.5-5.2,1.5
			c-2.3,0-4.5-0.7-4.5-3.6c0-3.2,5.9-15.5,5.9-23.3c0-0.2-1.9-4.2-2.1-4.9c-3.4-8.4-3.8-12.8-3.8-21.9c0-3.9,0.8-7.6,1.6-10.7
			c2.3-9.2,7-16.8,13.7-23.4c6.3-6.3,15.1-11.4,23.7-13.3C74.6,31.9,78.8,31.4,82.8,31.3z M82.3,126.3c-13.2,0-19.7-5.7-22.6-5.7
			c-5.3,0-9.7,0.7-14.5,2.1c-1.2,0.4-2.6,0.9-3.8,1.2c0.3-2.7,3.3-8.1,3.3-17.6c0-3.5-5.7-10.5-5.7-21.6c0-8.1,0.8-14.1,4.2-20.9
			c2.3-4.5,5.4-9.1,9.1-12.5c7.2-6.7,15.8-10.6,25.7-11.9c4.6-0.6,10.2-0.1,14.6,1l6,1.8c15.9,6,27.6,22.8,27.6,39.9
			c0,15.8-8.1,28.9-18.7,36.2C100.2,123.4,91.5,126.3,82.3,126.3z"/>
		<path class="st0" d="M65.4,76.5c0-8.2,9.7-9.2,12.6-3.3c0.6,1.1,0.4,2.8,1.1,3.8c1.4,1.9,3.9,2.7,6,0.6c2.2-2.2,0.4-5.3,4.8-7.3
			c4.3-2,9.5,1.2,9.5,5.5c0,5.8-3.1,11.1-6.4,14.3c-1.9,1.9-1.9,2.3-4.9,4.8c-1.9,1.5-3.8,2.9-5.8,4.2l-0.7-0.5
			c-0.3-0.2-0.5-0.3-0.7-0.5c-0.6-0.4-0.8-0.6-1.4-1c-1-0.8-1.8-1.4-2.8-2.2c-4.3-3.4-9-8.9-10.6-14.1
			C65.7,79.4,65.4,78.1,65.4,76.5z M82.3,107.3c3.3,0,9.6-5.8,12.7-8.2c1.5-1.2,3.7-3.6,5.1-5.2l4.1-6.1c3.8-7.2,5.2-16.8-1.8-22.6
			c-5.4-4.5-12-4.6-17.8-0.8c-0.9,0.6-1.3,1.1-2,1.6c-2.3-1.6-4.9-4.3-9.7-4.3c-3.8,0-6.5,0.6-9.3,2.8c-2.1,1.7-3.4,3.3-4.5,5.9
			C56.5,75.8,58,82,60.5,87.1c2.4,4.9,5.4,8.2,9.1,11.8c2,1.9,6.6,5.2,8.9,6.7C79.5,106.3,80.8,107.3,82.3,107.3z"/>
	</g>
</g>
</svg>
