<?xml version="1.0" encoding="utf-8"?>
<!-- Generator: Adobe Illustrator 23.0.3, SVG Export Plug-In . SVG Version: 6.00 Build 0)  -->
<svg version="1.1" id="Livello_1" xmlns="http://www.w3.org/2000/svg" xmlns:xlink="http://www.w3.org/1999/xlink" x="0px" y="0px"
	 viewBox="0 0 184.3 184.3" style="enable-background:new 0 0 184.3 184.3;" xml:space="preserve">
<style type="text/css">
	.st0{fill-rule:evenodd;clip-rule:evenodd;fill:#080808;}
	.st1{fill-rule:evenodd;clip-rule:evenodd;fill:#050505;}
	.st2{fill-rule:evenodd;clip-rule:evenodd;fill:#040404;}
	.st3{fill-rule:evenodd;clip-rule:evenodd;fill:#070707;}
</style>
<g id="Layer_x0020_1">
	<g id="_1216871964640">
		<path class="st0" d="M92.3,78l9-1.2c3.5-0.5,6.1-1.1,8.7,0.7c2.2,1.5,3.1,3.6,3.2,7.1c0.1,3.6-0.1,6.2-2.7,7.6
			c-2.4,1.3-5.8,1.3-8.9,1.4c-3.3,0.1-6.9,0.3-10.2,0.2c-6.3-0.2-9.5-5.9-8.4-9.4c0.3-0.8,0.7-1.1,1-1.7c0.9,0.1,3.2,1.4,3.5,2
			c0.6,1.3,0.4,1.8,1.9,3.4c1.4,1.5,4.5,3.5,7.1,3.8c-0.6-0.5-1.4-0.9-1.7-1.5l2,0.3c-0.1,0-0.1-0.1-0.1-0.1l-1-0.8
			c-1.3-1.2-2.1-2.2-2.8-4C92.1,83.6,91.9,81,92.3,78z M104.4,68.9c2.6-0.6,3.4,3,1.1,3.7C102.8,73.4,102.2,69.4,104.4,68.9z
			 M70.1,49.4c2.9-0.8,4,3.6,1.2,4.4c-1.4,0.5-2.6-0.4-2.9-1.6C67.9,50.7,68.9,49.7,70.1,49.4z M103.2,48.7
			c-0.1,0.4-1.4,2.6-1.7,3.2C98.5,57.5,97.3,57,92,57c-1.7,0-3.4,0-5.1,0c-4.2,0-5.3,0.6-5.6-4.1c-0.1-1.3-0.4-3.3-0.3-4.6
			L103.2,48.7z M32.5,131.6c-0.2,0.9-1.7,2.9-1.3,4c0.3,0.8,3,1.1,4.1,1.2c6.4,0.7,13.1,1.8,19.4,2.4c1.5,0.2,3.5,0.7,4.6-0.2
			c1.3-1,1.4-3.2,1.5-4c2.6-0.2,3.6,0.1,4.1-1.2c0.4-0.9,0.7-0.4,0.2-2.7c-0.2-0.9-0.4-1.6-0.4-2.6c0.1-2.5,1.1-4.5,2.9-5.8
			c0.5-0.4,1.4-0.9,1.7-1.3c1.3-2,0.4-2.7,0.3-4.5c-0.3-3.7,1.4-5.6,3.9-7.6c0.7-0.5,0.8-0.9,1.2-1.7c0.6-1.1,0.1-1.2-0.1-2.4
			c-0.7-4.6,2.7-10.1,7.7-9.4c1.7,0.3,2.7,1.2,4.1,1.8c3.1,1.3,6.8,0.9,10.5,0.8l16.9-0.5c3.8-0.1,4.1,0.1,5.2-1.9
			c0.6-1.1-0.3-2.1-0.7-3.5c-0.4-1.7-0.7-3.3-0.8-5.2c-0.1-1.7-0.1-3.9,0.1-5.6c0.2-2,0.7-3,1.8-3.9c2.5-2.1,5.8-1.8,9.8-1.8
			c3.7-0.1,7.8,0,11.4-0.2c1.4-0.1,7.3,0.1,8.3-0.3c1.1-0.4,1.2-2.8,3.7-0.8c1,0.9,0.5,0.7,2.2,0.6c2.7,0,3,0.3,3.5-0.9
			c0.8-1.9,0.5-0.7,0.7-3.7c0-0.4,0-1,0.1-1.3c0.1-1,0.1-0.1,0.5-1.1c0.4-0.9,0.3-0.2,0.5-0.9c0.1-0.3,0.1-1.1,0.1-1.4
			c0.1-1.3,0.3-1.7-0.8-2.1l0.1-3l1.2-0.2c0.2-0.7-0.2-0.4,0.4-1.1c0.5-0.6-0.1,0.5,0.2-0.2l-0.1-8.5l-1.4-0.3
			c-0.2-0.6-0.1-1-0.4-1.6c-0.8-1.5-1.8,0.3-3-1.3c-3.6-5.1-2.9-1-5.8-0.1c-1.5,0.5-46.7,0.5-50,0.4c-11.1-0.2-22.1-0.3-33.2-0.3
			H46.3c-1.4-0.1-2.9,0.3-3.4-1c-0.5-1.2-0.2-2.8-2-2.2c-1.2,0.4-1.1,1.6-1.9,2.4c-0.8,0.9-2,0.7-3.3,0.8c-1.6,0.1-2.5,0.1-3,1.4
			C31,54.3,33,59.6,31.8,64.6c-0.5,2-3,4.8-0.3,5.5c1.2,0.3,2.4,0.3,3.5,0.6c3,0.9,5.5,3.1,6.7,6.1c1.8,4.6-0.3,8.2-2.4,13
			c-2.1,4.6-3.3,6.9-5.5,11.3c-3.4,6.7-9.2,14.7-10.6,23C22.6,127.7,27.8,131.6,32.5,131.6z"/>
		<path class="st1" d="M129.3,135.8c0,0.3,0.2,0.6,0.3,0.7c0.2,0.8-0.6,1.3,0.2,2c1.7,1.6,8.5,1.4,8-1.1c-0.2-1.1-0.4-0.2,0-1.2
			c0.2-0.6,0.1-1.2,0.1-1.8c0-2.7,0.2-8.9-0.3-10.8c-1.1-5.6-5.6-6.1-7.4-1.8c-0.8,1.9-0.8,4.2-0.8,6.6
			C129.3,130.3,129.1,134.1,129.3,135.8z"/>
		<path class="st1" d="M82.9,135.9c0.2,0.8,0.5,0.3,0.2,1.3c-0.5,1.6,1.7,2.1,3,2.3c1.7,0.2,5.7-0.1,5.2-2.1c-0.3-1.7,0.1,0,0.1-3.3
			c0-2.6,0.1-9-0.3-10.8c-1.1-5.1-5.6-6.1-7.5-1.5c-0.8,1.9-0.7,4.2-0.7,6.6C82.9,130.1,82.7,134.6,82.9,135.9z"/>
		<path class="st1" d="M102.9,136.2c0.2-0.7,0.1-6.3,0.1-7.4c0-2.3,0.1-4.7-0.7-6.7c-0.6-1.6-2-3.5-4.2-3c-4.2,0.9-3.6,8.3-3.6,11.3
			c0,1.2,0,2.5,0,3.7c0,0.5-0.1,1.4,0.1,1.8c0.2,0.8,0.5,0.4,0.2,1.2c-0.8,2,2.9,2.4,4.7,2.3c4.7-0.3,3.3-2.5,3.3-2.8
			C102.7,136.4,102.8,136.5,102.9,136.2z"/>
		<path class="st2" d="M106.1,132.2c0,0.9-0.1,3,0.1,3.7c0.3,1.1,0.4,0.3,0.1,1.4c-0.8,3,9.2,3.1,8.2-0.1c-0.4-1.2,0.2,0.1,0.2-3
			c0-2.5,0-4.9,0-7.4c-0.1-2.3-0.3-4.5-1.4-6.2c-1.1-1.6-3.1-2.6-4.9-1C105.5,122.2,106.1,127.6,106.1,132.2z"/>
		<path class="st2" d="M152.5,135.9c0.1,0.2,0.3,0.6,0.3,0.7c0.2,0.8,0.1,0.1-0.1,0.7c-1,3.2,9,3.1,8.2,0.1
			c-0.5-1.6,0.2,0.5,0.1-3.1c0-2.8,0.2-8.6-0.3-10.8c-0.9-5.1-5.5-6.2-7.4-1.6c-1,2.4-0.8,7.3-0.8,10.4
			C152.5,133,152.4,135.2,152.5,135.9z"/>
		<path class="st1" d="M149.3,136.2c0.2-0.9,0.1-6.1,0.1-7.4c0-2.2,0.1-4.8-0.7-6.7c-0.6-1.5-1.9-3.5-4.2-3c-4.2,1-3.6,8.3-3.6,11.4
			l0.1,5.6c0.2,0.8,0.5,0.3,0.2,1.2c-1.2,3,8.8,3.3,8.2,0.3C149.1,136.4,149,137.3,149.3,136.2z"/>
		<path class="st3" d="M126.1,136.2c0.3-0.9,0.1-6.1,0.1-7.4c0-2.2,0.1-4.9-0.7-6.7c-2-4.9-6.4-3.5-7.5,1.1
			c-0.5,1.9-0.3,5.1-0.3,7.2l0.1,5.6c0.2,0.8,0.5,0.4,0.1,1.2c-0.8,2.1,3,2.3,4.7,2.3c1.2,0,3.8-0.4,3.5-2.1
			C125.9,136.4,125.8,137.2,126.1,136.2z"/>
	</g>
</g>
</svg>
