<?xml version="1.0" encoding="utf-8"?>
<!-- Generator: Adobe Illustrator 23.0.3, SVG Export Plug-In . SVG Version: 6.00 Build 0)  -->
<svg version="1.1" id="Layer_1" xmlns="http://www.w3.org/2000/svg" xmlns:xlink="http://www.w3.org/1999/xlink" x="0px" y="0px"
	 viewBox="0 0 184.3 184.3" style="enable-background:new 0 0 184.3 184.3;" xml:space="preserve">
<style type="text/css">
	.st0{fill:#FFFFFF;}
</style>
<g id="Layer_x0020_1">
	<path class="st0" d="M44.5,121.7c1.1-2.5,4.5-3.8,5-5.9c1.1-4.9-3.6-3.2-5.6-2.3c0-5.4,1.3-16.9-1.1-20.7l-4,0.4
		c-1.1,4.1-0.4,10.1-0.5,14.8c-2-1.6-3.2-4-5.6-3.8c-3.2,0.4-1.1,0.2-1.8,0.9c-4,4.5,7.4,7.2,7.6,13.9c0,2.3,0,5.2-0.2,7.4L19.7,126
		l21.6-79c1.3,2.2,4.7,16.2,5.6,20C49,75.8,51,78,50.1,88c-2.7,29.2,10.6,32,12.8,37.8l-18.4,0.4V121.7z M80.7,126.2
		c-11.2-1.1-18.4-7.7-22.1-14.9C45.3,86.4,76-6.3,102,51.1c9.7,21.6,21.6,70.6-15.7,75.2c0-4.1-0.5-4,1.8-6.3c1.4-1.4,2.5-2.3,4-3.8
		c5.2-5.4,6.3-4.7,5-8.8c-4.3-1.3-4.9,1.4-8.1,4.5c-1.6,1.4-0.5,0.9-2.5,1.8c0-2.9-0.2-5.8,0-8.6c0.2-5,2-4.5,7-9.9
		c1.6-1.6,2.2-2.7,0.2-4.9c-2.5-1.8-3.8,1.1-5.4,2.3c-1.4,1.1,0,0.4-1.8,1.1c0-4,0.4-6.3-0.9-9.4c-7.7-0.9-4,7.9-4.7,23.6
		c-2.2-2-6.7-8.5-10.1-6.3c-2.7,4.1,3.8,8.5,6.1,10.6C82.3,117.9,80.7,116.1,80.7,126.2z M138.9,125.8c3.8-4,11.7-9.4,8.6-12.4
		c-2.9-2.3-4,0.2-5.6,2c-1.4,1.6-2.5,3.1-4.7,4c0-4.3,0-8.6,0-13.1c0-5.4,1.3-8.3-4.7-7.7c-1.8,3.4-1.1,10.3-1.1,15.1
		c-2-0.9-1.3-0.5-2.9-2.2c-4.3-4.1-3.4-5.6-7.9-4.3c-0.9,3.4,0.4,4.1,2.2,6.1c10.6,10.3,8.3,7.4,8.5,18.5
		c-9.7-0.9-18.9-6.7-21.8-12.2c10.1-13.7,7.7-25,5.6-43.6c8.6-5.2,16.9-8.5,28.8-4.5c9,2.9,15.5,9.7,18.7,17.8
		c7.4,17.5-3.6,40.3-25.9,42.5C137.2,128,136.7,128,138.9,125.8z M13,128.4v2c3.6,3.2,16.6,1.4,25.4,1.8c0.7,8.8-1.4,21.6,1.8,25.4
		h2.2c2.7-2.3,1.6-5.8,1.6-11.5c0-4.3-0.2-9.7,0.2-13.9h24.1l1.6-2.7l10.8,2.9c0.2,7.6-1.1,22,1.8,25.2h2.2
		c2.7-2.2,1.6-5.8,1.6-11.5c0-4.7,0-9.4,0-14c7.2-0.7,15.1-4,18.9-7.7c3.8,1.8,9.2,12.1,26.5,13.3c0,3.6,0,7.4,0,11c0,4.5-0.9,7,2,9
		h1.8c2.9-2.9,2-4.3,2-9c0-3.6,0-7.4,0-11c7.9-0.7,12.1-2.7,18.2-6.7l8.5-8.3c5.6-7.6,5-13,7.2-17.8v-7.4
		c-1.8-4.5-1.3-10.3-6.8-17.8c-12.2-16.6-32.6-19.8-50-9.5c-4.3-12.1-2.7-12.8-9.9-26.6c-3.4-6.7-6.8-11-12.6-14.4
		c-2.5-1.4-4.1-1.4-6.1-2.5h-4.3c-2.2,1.1-4,1.1-6.3,2.5c-12.4,7.6-18,26.1-22,39.2l-9.7-34.9c-5.8-1.3-5.4,3.2-6.7,8.6L26.7,78.7
		c-2.2,8.1-4.5,16.6-6.7,24.7C18.6,108.9,14.8,124.8,13,128.4z"/>
</g>
</svg>
