<?xml version="1.0" encoding="utf-8"?>
<!-- Generator: Adobe Illustrator 23.0.3, SVG Export Plug-In . SVG Version: 6.00 Build 0)  -->
<svg version="1.1" id="Livello_1" xmlns="http://www.w3.org/2000/svg" xmlns:xlink="http://www.w3.org/1999/xlink" x="0px" y="0px"
	 viewBox="0 0 184.3 184.3" style="enable-background:new 0 0 184.3 184.3;" xml:space="preserve">
<style type="text/css">
	.st0{fill-rule:evenodd;clip-rule:evenodd;}
</style>
<g id="Layer_x0020_1">
	<g id="_2307213764656">
		<path class="st0" d="M108,57.4c0,8.1,2.7,13.3,2.7,25.4c0,8.8-8,20.8-10.6,28.1c-1.8,5.1-8.1,28.2-8.1,31.3c0,3,13.2,7.2,16.2,7.9
			c9,2.2,15.3,2.8,25.3,2.8c4.3,0,12.8-1.8,16-4c0-10.3-1-20-2-29.3c-2.3-21.1-11.5-25.5,1.1-46.4c4.5-7.6,7-22.2,3.4-31.5
			c-2.8-7-2.3-6.9-5.8-6.9c-4.7,0,1.5,1.7-2,16.7c-2.8-0.7-3.8-1.3-8.3,1.7c-2,1.4-3.7,2.5-4.3,4.9h-1.3c-1.2-4.8-5.2-9.5-10.7-10
			c0-3.5,0.2-5.5,0.8-8.6c0.7-4,2.5-3.3,2.6-7.4c-1.8-0.5-1.2-0.7-2.7-0.7C114.7,31.3,108,49.3,108,57.4z"/>
		<path class="st0" d="M34.6,82.1l1.5-1.2c2.3,0.5,10.3,9,12.8,11c2,1.7,3.1,1.4,3.8,4.2c-3.7,1.7-3.6-1.6-9.4-6
			C42.2,89.3,35.2,82.9,34.6,82.1z M72.6,54.1c-2.8,0-4.1-0.4-5.3-2c6.1,0,8.7,1.9,19.6-0.4c3.9-0.8,6.8-2.7,10.4-3
			C94.5,52.6,79.9,54.1,72.6,54.1z M78.6,49.4l-13.2-1c-4.2,1.5,1.7,2.9-3,5.5c-12.1,6.5-11.4,10.6-21.6,18.5
			c-1.3,1-1.3,1.2-2.4,2.2c-1.7,1.6-1.4,1.1-3.2,2.2c-2,1.3-4,3.4-4.7,6l20.7,18.7c1.4-0.9,2.3-1.8,3.6-3.1l2.3-3.1
			c0.8-1.1,0.1-0.3,0.8-1.2l4.6,36.9c0.4,3.6,0.5,5.5,1,9c0.4,3.2,0.6,6.1,3.9,6.8c3.5,0.7,14.4-1.9,19.2-1.9
			c0.2-8.6,9.7-35.5,13.2-42.3c7.2-14.3,7.7-18,5.3-33.6c-2.1-13.3-2.2-7.3-1-20.3h-3.5c-0.4-1.6-0.7-3.4-1.3-4.7
			C94.8,45.1,90.3,49.4,78.6,49.4z"/>
	</g>
</g>
</svg>
