<?xml version="1.0" encoding="utf-8"?>
<!-- Generator: Adobe Illustrator 23.0.3, SVG Export Plug-In . SVG Version: 6.00 Build 0)  -->
<svg version="1.1" id="Livello_1" xmlns="http://www.w3.org/2000/svg" xmlns:xlink="http://www.w3.org/1999/xlink" x="0px" y="0px"
	 viewBox="0 0 184.3 184.3" style="enable-background:new 0 0 184.3 184.3;" xml:space="preserve">
<style type="text/css">
	.st0{fill-rule:evenodd;clip-rule:evenodd;fill:#FFFFFF;}
</style>
<g id="Layer_x0020_1">
	<path class="st0" d="M43,110.5l3.3,8.7l7.4-2.9c-0.3,10.2-16.2,11.2-19.4,2.7c-4.5-11.8,10.7-20.3,16.6-11.8L43,110.5z
		 M141.1,104.1c11.1-0.3,14.7,13.9,6.2,19.1c-8.9,5.4-19.1-2.2-14.9-14l4,7.6c3.5-1,5.1-2.4,8.7-3.4L141.1,104.1z M65.3,92.4
		c-3.1-0.8-5.8-2.1-8.9-3.4c-4.4-1.8-4.2-1-5.2-5.8C60.5,88,64.8,87.5,65.3,92.4z M142.2,72.3c0.2-6.9-13.9-23.9-22.5-21.8
		c-1.1,3.7,2.4,7.3,3.7,11.2c-3.3,1.4-2.3-0.9-5.8,1.6c2,5.4,3.7,1,5.8,5.2c-7.9,2.1-14.8-3.1-24.2-2.8C87,66,84.3,73.5,81.9,76.2
		C71.7,75.3,70,69.7,63.7,69c-6.9-0.7-18.3,0.2-25.7,0.1c-3.1,9.4-2.4,6.7,0.7,8.1l-2.8,1.3c-0.1-0.3-0.5,0.4-0.7,0.5
		c1.5,3.8,0.2,0.5,1.1,2.2c2.7,4.4-0.5-1.6,1,1.4c-1.1,1-2.9,3.1-4.6,5.1c-1.5,1.7-2.4,2.7-2.3,4.8c4.7,2.7,6.5-5.4,13-10.8
		c4.5,2,2.4,3.7,4.9,7.8c1.7,2.8,4.3,3.3,7.2,4.5c5.5,2.2,16.3,4.6,5.2,9c-2.4-1.3-2.4-2.4-5.1-4.4c-15-11.3-38.5,3.5-30.2,23.4
		c5.5,13.2,24.9,17,34.7,2.7c2.9-4.2,3-7.4,3.4-13.5l4.7-1.9c14.9,10.6,1.9,15.1,31.5-4.6c8.4-5.5,12.3-8.2,26-7.9
		c-1.5,3.5-8.7,6.7-13.7,7.4c-6,0.9-7,0.5-13.8,7.7h23.4c-0.3,14.4,10.1,26.1,26.2,20.7c8-2.8,14.2-12,12.3-22.2
		c-0.7-3.5-1.1-2.4-0.3-5.8c0.8-3.9-5.3-8-8.5-9.4c-4.6-2-8.8-1.7-14.2-2c3.7-4.4,4.9-2.6,5.9-9.5c-3.9-0.1-2.7,0.7-4.9-1
		C137.3,72.4,142.1,75.6,142.2,72.3z"/>
</g>
</svg>
