<?xml version="1.0" encoding="utf-8"?>
<!-- Generator: Adobe Illustrator 23.0.3, SVG Export Plug-In . SVG Version: 6.00 Build 0)  -->
<svg version="1.1" id="Layer_1" xmlns="http://www.w3.org/2000/svg" xmlns:xlink="http://www.w3.org/1999/xlink" x="0px" y="0px"
	 viewBox="0 0 184.3 184.3" style="enable-background:new 0 0 184.3 184.3;" xml:space="preserve">
<g id="Layer_x0020_1">
	<path d="M19.6,103.5l-1.1,9.9c0.9,3.2-0.4,11.7,8.5,18.4c6.3,4.7,16.2,4.7,24.7,5.6l41.9,4.3c6.7,0.7,7.2,1.3,11.2-2l57.8-47
		c0.7-0.5,1.1-0.9,1.8-1.6c0.9-0.9,0.7-1.4,1.3-2.3l0.2-1.3c-0.7-2.5,0-2.2-1.8-4c-4-4.3-9.4,1.1-11.5,2.9l-51.5,41.9
		c-4,3.2-2.2,2.9-8.8,2.2l-34.6-3.6c-4.9-0.5-18.7-1.4-22.3-3.1c-5.9-2.7-6.1-10.1-4.7-17.5c1.3-6.5,7-9.4,14-8.6
		c7.7,0.9,15.7,1.6,23.4,2.3c4.5,0.5,19.3,1.3,22,3.4c2.2,1.8,2.2,6.7,0.2,8.8c-1.8,2-7.6,0.4-10.6,0.2c-3.6-0.4-32.2-3.8-34.6-3.1
		c-2.5,0.7-4.9,3.8-3.6,7.2c1.3,3.2,4.1,3.6,8.3,4l34.9,3.6c7.6,0.7,9-0.4,13.1-3.6c1.3-0.9,2.2-1.4,3.2-2.3
		c4.7-4.5,37.1-30.2,45.2-36.7c4.7-3.6,9-6.7,10.6-13.1c0.5-2.3,1.3-8.5,1.1-10.8c-0.2-8.1-7-9.9-13.3-10.4
		c-7.7-0.9-15.7-1.6-23.4-2.5c-7.6-0.7-15.7-1.8-23.2-2.3c-7.7-0.5-13.3,1.3-17.6,4.7c-8.6,7-40.5,32.4-44.6,36.9l-8.8,8.6
		C19.7,99,21.5,100.3,19.6,103.5z"/>
</g>
</svg>
