<?xml version="1.0" encoding="utf-8"?>
<!-- Generator: Adobe Illustrator 23.0.3, SVG Export Plug-In . SVG Version: 6.00 Build 0)  -->
<svg version="1.1" id="Layer_1" xmlns="http://www.w3.org/2000/svg" xmlns:xlink="http://www.w3.org/1999/xlink" x="0px" y="0px"
	 viewBox="0 0 184.3 184.3" style="enable-background:new 0 0 184.3 184.3;" xml:space="preserve">
<g id="Layer_x0020_1">
	<g id="_2429341215296">
		<path d="M89.4,44.6c6.8-0.5,14.6,0.9,20.3,3.2c16.9,6.7,28.8,22.7,30.1,41.6c1.6,27.2-19.6,49-44.8,50.4
			c-27.2,1.6-49.1-19.4-50.6-44.8C42.9,68,62.7,46.6,89.4,44.6z M24.2,88.4v7.6c0.4,0.9,0.5,5.6,0.9,7c2.3,14.6,9,27.2,19.1,37.3
			c10.1,10.1,22.3,16.6,36.9,18.9c1.6,0.4,6.3,0.5,7.4,0.9H96c0.9-0.4,5.4-0.5,7-0.9c14.6-2.3,27.2-9,37.3-19.1
			c10.1-10.1,16.6-22.3,18.9-37.1c0.2-1.6,0.5-6.3,0.9-7.2v-7.4c-0.4-0.9-0.7-5.8-0.9-7.4c-0.4-2.2-0.9-4.3-1.4-6.5
			c-1.3-4.3-2.5-7.9-4.3-11.7c-3.4-7.4-8.6-14.2-13.3-18.7c-4.7-4.7-11.3-10.1-18.7-13.3c-5.9-2.7-11.7-4.7-18.5-5.8
			c-1.4-0.2-6.1-0.5-7-0.9h-8.1c-2.5,1.1-17.6,0-35.3,12.8l-6.7,5.2c-9.4,8.3-16.2,20.5-19.4,32.6C25.1,79.4,24.4,88,24.2,88.4z"/>
		<path d="M104.8,88.4c1.6-0.2,4.1-0.4,4.1,1.6c0,1.8-2.5,1.6-4.1,1.4V88.4z M100.2,100.8h4.9v-6.1c2-0.2,2.2,0.9,2.9,2.3
			c0.5,1.3,1.4,2.5,1.8,3.8h5.4c-0.7-2.2-1.6-4-3.1-5.6c-0.9-0.9-0.7-0.5-1.6-1.3c4.5-1.3,4.3-5.9,2-7.7c-1.6-1.3-9.7-0.9-12.1-0.9
			L100.2,100.8z"/>
		<path d="M90.1,89.6l1.4,5.2h-3.1L90.1,89.6z M81.8,100.8h4.7c0.5-0.7,0.5-1.6,0.7-2.5h5.6l0.7,2.5h4.9c-0.5-2-5-14.2-5.8-15.3
			h-4.9C87,86.2,82.2,99.3,81.8,100.8z"/>
		<path d="M57.5,95.4l-4.1,0.2c-0.5,1.8,1.1,4.5,4.3,5.2c9.2,2.2,11.5-6.1,7.6-8.6c-1.8-1.1-5.8-1.4-7-2.9c0.5-1.6,2.5-2.5,4.1,0.7
			l4.3-0.2c-1.1-6.8-9.9-4.7-11.5-3.2c-0.9,0.7-1.8,2.7-1.1,4.3c1.3,3.2,4.3,2.5,7.4,4.1C64.3,96.5,59.3,100.8,57.5,95.4z"/>
		<path d="M68.3,89.1l4.9,0.2v11.5c5.9,0.5,4.9-0.2,4.9-2.9c0-2.9,0-5.8,0-8.6h4.7v-3.8H68.5L68.3,89.1z"/>
		<path d="M115.3,89.1l5,0.2v11.5c1.4,0.2,3.2,0.4,4.7-0.2V89.3h4.9v-3.8h-14.6V89.1z"/>
	</g>
</g>
</svg>
