<?xml version="1.0" encoding="utf-8"?>
<!-- Generator: Adobe Illustrator 23.0.3, SVG Export Plug-In . SVG Version: 6.00 Build 0)  -->
<svg version="1.1" id="Livello_1" xmlns="http://www.w3.org/2000/svg" xmlns:xlink="http://www.w3.org/1999/xlink" x="0px" y="0px"
	 viewBox="0 0 184.3 184.3" style="enable-background:new 0 0 184.3 184.3;" xml:space="preserve">
<style type="text/css">
	.st0{fill-rule:evenodd;clip-rule:evenodd;fill:#FFFFFF;}
</style>
<g id="Layer_x0020_1">
	<g id="_1216683935776">
		<path class="st0" d="M59.9,145.1c0,6.4,7.8,8.5,11.2,3.5c1.1-1.5,4.3-16.4,4.9-18.9c3.6-14.4,0.9-9.5,11.7-20.3
			c5.3-5.3,10.6-10.4,15.8-15.8c2.9-3,2-7.9,2-13.8c0-5.8-0.2-10.2,0.3-15.8l7,4.1c3.5,2,2.6,2.9,2.6,8.8c0,3.6-0.7,13.8,1,15.8
			c2.8,3.5,6.6,2.2,8.1-0.4c1-1.9,0.5-4.6,0.5-7.3c0-1.3,0.2-1.7,0.3-2.4l-0.3-3.6c0-1.3,0.2-1.7,0.3-2.4l-0.3-3.6
			c0-1.4,0.3-1.7,0.3-2.7c-0.1-2.6-0.2-5.3-2.1-7.1c-1.5-1.5-5.7-3.6-7.8-4.8c-2.7-1.6-5.3-3-7.9-4.6c-1.8-1.1-6.2-4.1-8.4-4.1
			c-4,0-5.5,1.5-9.7,4c-4.4,2.7-4,2.1-4,8.5v25.1c0,5.7,0.9,3.5-6.2,10.5c-2.8,2.8-5.4,5.4-8.2,8.2c-2.3,2.4-2.1,1.5-3,5.4
			c-0.6,2.3-1.1,4.6-1.6,6.7c-1.1,4.5-2.2,9.1-3.3,13.4C62.3,133.7,59.9,143.4,59.9,145.1z"/>
		<path class="st0" d="M95,106.5c0.3,1.1,2.5,4.6,3.2,5.9l10.2,17.6c3.1,5.6,7.1,11.9,10.1,17.4c3.8,7,12.1,4,12.1-2.3
			c0-1.8-5.1-10.2-6.3-12.1c-1.2-2-2.2-3.8-3.4-5.9l-15.2-26.3c-0.5-0.9-1.4-2.3-1.7-3.1L95,106.5z"/>
		<path class="st0" d="M81.7,36.7v1.8c0,4.2,3,9.2,7.2,9.2c7.6,0,21-9.7,15.1-18.4c-3-4.4-8.6-4.3-13.3-2.6
			C86.3,28.4,81.7,31.8,81.7,36.7z"/>
		<path class="st0" d="M140.2,158.6h19.1l-13.4-20.3h-13.5c0.1,1.4,4.7,12.2,5.8,15.1C138.8,154.7,140.1,157.2,140.2,158.6z"/>
		<path class="st0" d="M24.9,158.6h19.1c0.1-1.2,0.5-1.5,0.8-2.4c0.4-1,0.6-1.6,1-2.6c0.6-1.6,1.3-3.5,2-5.1l3.9-10.2
			c-3.9,0-7.8-0.1-11.7-0.1c-2.9,0-3.1,1.9-5.8,6.1c-1.6,2.4-3.1,4.6-4.7,7L24.9,158.6z"/>
		<path class="st0" d="M83.1,158.6h18c-0.7-2.8-1.6-11.3-2.1-14.9c-0.3-1.8-0.6-3.4-0.6-5.4H85.9C85.9,140,83.5,157.9,83.1,158.6z"
			/>
		<path class="st0" d="M62.6,92.5c0,2.1,2,4.8,4.1,4.8c3.9,0,3.9-1,7.1-4.3l7.5-7.4c1.4-1.3,1-1.6,1-4.1c0-3.4,0-6.8,0-10.2
			c-1.4,0.4-9.4,8.9-10.3,10c-1.5,2-8.3,8.1-8.8,9.1C63,90.7,62.6,92.2,62.6,92.5z"/>
	</g>
</g>
</svg>
