<?xml version="1.0" encoding="utf-8"?>
<!-- Generator: Adobe Illustrator 23.0.3, SVG Export Plug-In . SVG Version: 6.00 Build 0)  -->
<svg version="1.1" id="Livello_1" xmlns="http://www.w3.org/2000/svg" xmlns:xlink="http://www.w3.org/1999/xlink" x="0px" y="0px"
	 viewBox="0 0 184.3 184.3" style="enable-background:new 0 0 184.3 184.3;" xml:space="preserve">
<style type="text/css">
	.st0{fill-rule:evenodd;clip-rule:evenodd;}
	.st1{fill-rule:evenodd;clip-rule:evenodd;fill:#060606;}
</style>
<g id="Layer_x0020_1">
	<g id="_2341750105376">
		<g>
			<path class="st0" d="M38.8,106.4c2.9-4.7,0.3-23.5,1.6-29.2c0.1-0.2,0.2-0.3,0.3-0.6c0-0.3,0.1-0.4,0.2-0.6
				c2.2,0.9,1.5-0.8,1.7,3.7l-0.1,13.1c0,9.3-0.9,58.1,0.8,60.9c0.9,1.5,3.2,2.8,5.7,1.9c4.3-1.5,3.1-8.6,3.1-13.9
				c0-10.1-0.9-25,0.2-34.4l3.5,0.1c0.9,10.4,0.2,24.3,0.2,35.1c0,5.7-1.4,12.4,3.8,13.4c6.5,1.1,5.8-6.2,5.8-11.3V83.3
				c-0.1-7.2-0.7-6,1.1-7.4c2,1.3,1.3,1.1,1.3,4.5c0.1,4.5-1.5,24.5,1.8,26c4.6,2,5.1-2.7,5.1-5.7c0-7.4-0.1-14.9-0.1-22.3
				c0-7.5,1.2-14.6-5.1-16.7C66,60.3,52.8,60.9,48,60.9c-7.1-0.1-13.7-0.1-14.6,7.3c-0.7,5.7-0.1,15.5-0.1,21.6
				C33.3,102.2,31.5,107.5,38.8,106.4z"/>
			<path class="st0" d="M50.4,39.4c-5.9,2.6-7.9,7.7-5.9,13c1.6,4.4,6.8,8.2,13.1,6C70,54.1,63.3,33.8,50.4,39.4z"/>
		</g>
		<g>
			<path class="st0" d="M117.5,75.1l-11.9,43.1l10.5,0.1c0,7.3,0,14.6,0,21.9c0,7.6-2.1,16.2,7,13.8c3.7-7.3-0.6-26.4,1.7-35.7
				l2.7-0.1c0.8,4.6,0.3,14.5,0.3,19.7c0,4.8-2,16.1,3.9,16.5c8.9,0.6,2.3-22.9,4.7-36.2l10-0.1c-1.2-6.7-12.3-40.8-11.2-43.4
				c3.1,0.4,2.3,2.1,4.5,9.7c1.1,3.9,4.3,20.4,7.9,21.1c6,1.1,3-7.2,2.1-10.2c-9-32.5-5.3-33.5-24.6-33.5
				c-17.9-0.1-14.6,5.1-23.1,35.1c-0.9,3.3-2.9,9.7,2.8,8.7c3.4-0.7,6.7-17.3,7.8-21.3C114.9,75.9,114.1,74.7,117.5,75.1z"/>
			<path class="st0" d="M122.2,40.6c-12.4,5.3-3.9,23.5,8,18.2C141.6,53.8,134.9,35.2,122.2,40.6z"/>
		</g>
		<path class="st1" d="M89.5,28.3c-1.6,1.8-1,2.2-1,7V144c0,0.9-0.1,2.9-0.1,3.7c0.1,1.2,0.1,0.9,0.4,1.9l0.7,1.1
			c1.1-2.1,0.7-4.7,0.7-7.4C90.1,124,91.1,30.8,89.5,28.3z"/>
	</g>
</g>
</svg>
