<?xml version="1.0" encoding="utf-8"?>
<!-- Generator: Adobe Illustrator 23.0.3, SVG Export Plug-In . SVG Version: 6.00 Build 0)  -->
<svg version="1.1" id="Layer_1" xmlns="http://www.w3.org/2000/svg" xmlns:xlink="http://www.w3.org/1999/xlink" x="0px" y="0px"
	 viewBox="0 0 184.3 184.3" style="enable-background:new 0 0 184.3 184.3;" xml:space="preserve">
<style type="text/css">
	.st0{fill:#FFFFFF;}
</style>
<g id="Layer_x0020_1">
	<path class="st0" d="M102.4,123.2c4.1-1.1,7.9,1.8,8.6,5c1.1,4.3-1.6,8.3-5.2,9C96.1,139.8,92.9,125.7,102.4,123.2z M116.1,73.7
		H133l-0.2,7.4h-16.9L116.1,73.7z M142.7,84.5c0.5-2,0.4-13.3-0.4-15.1c-1.4-4.3-5.2-5.6-10.4-5.6c-9.4,0-23.8-2.5-25.7,6.3
		c-0.5,2.5-0.5,13.3,0.2,15.5c0.5,1.6,2.5,3.6,4,4.3c3.1,1.6,18.9,1.1,22.7,0.9C138.2,90.8,141.5,89.2,142.7,84.5z M67.9,91.2
		c4.3-0.4,9.4,0,13.7-0.2c7.4,0,5.4-0.4,5.4,7.6c0,8.1,0.7,19.1,0,26.8H67.7L67.9,91.2z M67.9,68.1l19.3,0.2v12.8H67.7L67.9,68.1z
		 M57.6,121.8c-8.8-5.6-7-18.5-7-31.1c0-8.6-1.4-29.3,2.3-35.5c6.5-10.1,15.3-8.6,29.7-8.6c10.6,0,27-0.9,36.5,1.3
		c18.7,4.1,33.8,19.3,37.4,39.1c1.6,8.3,2.3,26.1-3.8,33.1c-2.7,3.1-7.6,5.4-13.5,5.4c-5.8,0-13.1,0.4-18.7-0.2
		c-3.1-5.2-3.8-7.7-8.6-10.3c-6.7-3.4-9-1.3-14.9-0.7c-0.2-13.1,0-26.6,0-39.8C97,55.9,95,58,73.3,58c-7.2,0-12.8-0.7-14.9,5.2
		C56.7,67.9,58.9,114.4,57.6,121.8z M46.4,125.4c-5.2,0.4-24.1-0.7-27.2,0.5c-3.2,1.3-4,6.7-0.9,8.6c3.2,2,65.3-0.2,68.2,0.7
		c1.6,1.1,1.8,2.7,2.7,4.3c5.2,8.6,17.3,10.6,25,4.3c3.6-2.9,3.8-4,6.1-8.5c13.5-2.2,23.9,4.5,38.2-7.6c3.1-2.5,7-8.6,8.1-14.8
		c2.2-11,0.5-29.3-4.3-40.5c-2.2-5-6.8-12.8-9.7-15.8c-21.4-22.5-38.2-20-68.9-20c-17.1,0-27.5-1.1-36.4,9.7s-6.7,23.4-6.7,39.1
		c0,9.2-1.1,24.8,1.8,32.4C43.7,121,45.5,123.2,46.4,125.4z"/>
</g>
</svg>
