<?xml version="1.0" encoding="utf-8"?>
<!-- Generator: Adobe Illustrator 23.0.3, SVG Export Plug-In . SVG Version: 6.00 Build 0)  -->
<svg version="1.1" id="Livello_1" xmlns="http://www.w3.org/2000/svg" xmlns:xlink="http://www.w3.org/1999/xlink" x="0px" y="0px"
	 viewBox="0 0 184.3 184.3" style="enable-background:new 0 0 184.3 184.3;" xml:space="preserve">
<style type="text/css">
	.st0{fill-rule:evenodd;clip-rule:evenodd;fill:#FFFFFF;}
</style>
<g id="Layer_x0020_1">
	<path class="st0" d="M59.7,115.2l-2,0.8c-0.6-0.7-0.3-0.8-1.4-1.1c0-1.1,0.2-2.9,0.1-3.8c-0.2-1.1,0.2-1.4,0.6-2.9
		c0.5-1.4,1.7-4.9,2.4-5.9c0.3,2.3,0.7,7.8,0.4,9.7C59.6,113,59.6,114,59.7,115.2z M112.1,97c0.5-0.4,3-1.9,3.4-2
		c0.9,2.1,0.3,4.4,0.6,6.4c0.1,0.4,1.8,4.2,2.1,5c0.5,0.9,0.9,1,1.2,2.1c0.3,1.1,0.3,2.1,0.6,3.2c0.7,2.8,1,2.8,0.5,6
		c-0.4,0.2-0.7-0.2-2,1.7c-4.3-0.6-8.3-3.4-12-4.6c0.1-2.4-1.2-3.2-0.2-5C107.5,107.5,112.9,100.2,112.1,97z M110.1,80l2,0.9
		c0.4,5,0.5,3.2-2.2,6.6c-1.6,2.1-2.7,2.9-3.9,5.7c-0.8,1.7,0.2,0.9-0.4,2.4c-0.1,0.2-0.3,0.6-0.3,0.9c-0.2,1,0.5,4.8-1.4,10.1
		c-0.1,0.3-0.2,0.6-0.4,0.9c-0.1,0.1-0.2,0.2-0.2,0.3c-0.4,0.4,0,0.1-0.5,0.4l3.3-28.1c0.3-2.6,0.2-7,1.4-9c0.7,0.5,1.2,1.1,2.1,1.6
		c1.8,1,1.1,0,1.9,2c0.4,0.9,0.3,0.1,0.1,1.8c-0.1,0.6,0.1,0.2-0.2,0.9C111.3,78.5,110.4,78.5,110.1,80z M64.8,72.6l4.8-0.3
		c-0.2,3.5,0.1,7.1,0,10.6c-0.1,1.7-0.4,3.3-0.2,4.7L69.1,103c-0.1,0.8-0.3,1.1-0.2,1.9c0.1,1,0.1,1.5,0.1,2.5
		c-0.1,1.6,0.1,3.6-0.2,5.2c-4.1-0.6-4-3.5-4-7.9c0.1-1.5-0.3-4.7,0.2-5.9c1-2.5,0.7-2.9,0.4-5.7c-0.3-2.2-0.7-9.3-1.4-10.8
		c-1.4-3.1-0.2-1.7,0.2-4.4C64.7,75.7,63.9,74.7,64.8,72.6z M94.1,111.4c0.6-2.8,2-7.3,2.9-10c1.4-4.3,2.8-11.7,4-15.5
		c0.9-2.8,1.5-6.3,2.6-10.1c0.2-0.8,0.4-1.7,0.6-2.6c0.4-1.3,0.7-0.9,1-2.3l0.2,0.6c0,0.1,0,0.1,0.1,0.2c0.2,0.8-0.1-0.2,0.1,0.6
		c0.7-0.2,0.4,0.1,0.8-0.9l-0.8,10.5c-0.3,1-0.3,2.7-0.5,3.8c-0.4,3.8-1.3,11.2-1.4,14.3c-0.1,2.6-0.7,6.5-1.1,9
		c-1,0.5-1.2,0.5-2,1.2c-0.6,0.5-0.9,0.9-1.9,1.1c-2.7,0.3-1.1,0.5-2.2,0.8C95.6,112,94.5,111.6,94.1,111.4z M31.3,121.2v20.4h121.6
		v-22.2c-1.3,0.5-1.6,1.1-2.6,1.7c-3.1,1.9-6.4,0.2-10-0.4c-2.6-0.4-5.3-0.4-7.7,0.2c-4.8,1.3-1,1.1-6.8,0.9
		c-1.2-2.9-1.3-5.4-0.8-8.8c0.2-1.5,0.6-2.9,0.7-4.4c0.1-2.2,0-1.3,0.3-2.1l-0.9-4.9c-0.1-0.5,0.1-0.2-0.1-0.9
		c-0.2-0.7-0.7-0.9-0.9-1.8c-0.4-1.9,0.5-5.1,0.6-7c0.1-1.9-0.6-2.7-0.4-4.4c0.2-0.4,1.1-0.9,1.3-1.8c0.1-0.1,0.1-0.1,0.1-0.2
		c0.5,1.6,3.3,4.1,5.7,3.6c0.9-0.2,2.6-1.2,3.2-1.7c1.1-0.8,1.5-1.3,1.5-3.2l0.2,0.6c0.1,0.1,0.1,0.1,0.1,0.2l0.2,2.6
		c0.7-0.5,0.5,0.1,0.5-0.9c0-0.9,0-0.7,0.1-1.5c0.1-0.8,0.1-0.2-0.3-1.1c-0.8-2.1-0.8-4.6-1.1-6.9c1.2-0.1,2.3-0.3,3.3-0.7l-0.6-9.1
		c0.9-0.1,1.3,0.5,1.8,1.1l0.4,0.4c0.1-0.1,0.1,0.1,0.2,0.2c-0.6-2.6-2.3-2-2.8-3.5c-0.6-1.6-0.3-3.8,0.5-4.9c1,1.5-0.1,2.2-0.4,3.4
		c0.6-0.1,0.4,0.1,0.6-0.5c0.5-0.8,0.4-2.3,0.3-3.1c-0.1-1.9-0.5-2.2-1.3-3.1c-1.6-1.5-0.7-5.1-1.6-7.2l-3.2,0.1
		c0.2-1.4,0.2-0.2,0.6-1.3c0.3-0.7,0.2-1.1,0.1-1.8c-0.2-0.5-1-2-1.3-2.4c-2.2-3.2-9.8-1.7-10.4,0.7c-0.4,1.9-1.2,3.8-2.7,4.7
		c-0.5-1.1-0.7-1-1.4-1.7c-1-1-0.4-1-0.8-2.3c-0.4-1.1-2.7-2-4.2-2.1c-5.9-0.5-2.7,1.2-4.2,2.1c-1.2,0.7-3.7,0-3.9,2.4
		c1.1,0.3,2.3,0.3,3.5,0.2c0.3,1.8,0.2,1.2-0.6,2.9c0.4,0.6,1.1,0.8,1.3,1.6c0.4,1.5-0.5,0.5,0.2,2c1.8,0.9,1.4-0.9,3.3,1.5
		l-0.5,5.5c-0.4,3.4-2.5,1.9-2.6,3.8c0.8,0.4,0.9-0.1,1.9-0.4c-0.3,0.9-0.4,1.7-0.3,2.8c-3.6-0.9-3.1-2.4-3.1-4.1
		c-0.6-0.2-0.6-0.1-1.1-0.2c-0.8-0.3-0.2-0.4-1.3-0.4c-0.6,0.2-1.9,1.8-2.1,2.3c-0.7,1.6-0.3,2.1,0.6,3.1c0.3,0.9-6.9,29-7.9,31.9
		c-0.9,2.6-1.4,8.3-2.7,10.5c-1.4-0.3-1.8-0.7-3-1.3c-1-0.4-1.9-0.7-2.9-1c-2.9-1-2.7-3-5.6-2.4c-2.2,0.4-7.7,4.1-10.4,5.3
		c0.1-3.6-0.3-8.1,0-11.5c0.3-3.3,0-7.5,0-11.2c0-2.7-0.2-15.3,0.6-16.8c1-1.9-0.3-2.6,0.4-4.4L69.4,68c-0.2,1.1,0.1,1.7-1.4,2
		c-1.1,0.2-2.5,0.2-3.5-0.1c-0.1-5.4,2.1-4.2,0.6-8.2c-0.5-1.2-1-2.4-1.5-3.6c-1-2.1,0.1-1.9,0.2-3.8h2.3c0.2-0.7,0-1.1,0.2-1.9
		c0.5-1.7,0.4-0.7,1-1.7c-0.4-0.9-0.8-0.8-1-1.7c-0.7-3,0.1-2.8-2.6-4.9c-2.1-1.7-1.5-0.5-3.5-0.3c-1,0.1-1.1-0.5-1.6-0.7
		c-1.8-0.8-3.1,1.3-1.9,2.7c1.5,1.8,0.5,0.8,0.4,2.8c-0.1,1.6,2.6,2.8,2.2,5.8c-0.4,1.1-2,1.6-2.9,2c-1.8,0.7-2.4-0.4-3.2-1.2
		c-1-1-5.3-3.1-6.8-1c-2.6,3.5-1.3,2.8-1.8,5c-0.2,0.7-0.6,0.8-0.2,1.8c0.3,1,0.6,0.6,0.7,1.9c0.5,5.6-0.8,4.1-1.6,5.4
		c-0.3,1.7,0.6,3.3,1.6,4c1.4,1.1,1.1,1.9,1.7,3.8c1.2,3.3,2.9,4.2,6.9,3.9c-0.4,3.7,1.2,6.4,1.1,7.6c0,0.7-0.2,1.5-0.2,2.4
		c0.1,1.2,0.4,1.3,0.2,2.7c-0.4,2.3-0.8,4.4-1.6,6.7c-0.9,2.5-1.9,6.5-2,9.4l-1.3,9.8c-4.1-1.7-2.5-5.4-9.7-2.6
		C35.3,118,33.8,120.2,31.3,121.2z"/>
</g>
</svg>
