<?xml version="1.0" encoding="utf-8"?>
<!-- Generator: Adobe Illustrator 23.0.3, SVG Export Plug-In . SVG Version: 6.00 Build 0)  -->
<svg version="1.1" id="Layer_1" xmlns="http://www.w3.org/2000/svg" xmlns:xlink="http://www.w3.org/1999/xlink" x="0px" y="0px"
	 viewBox="0 0 184.3 184.3" style="enable-background:new 0 0 184.3 184.3;" xml:space="preserve">
<style type="text/css">
	.st0{fill:#FFFFFF;}
</style>
<g id="Layer_x0020_1">
	<path class="st0" d="M83.1,125.3h17.8l2.7,8.1H80.2L83.1,125.3z M92.1,100.2l4.9,13.7h-9.7L92.1,100.2z M58,158h13.3
		c2-3.6,2.2-4.7,5.2-7.9c3.2-3.2,9.7-5.8,15.3-5.8c5.6,0,12.4,2.5,15.5,5.8c0.9,0.9,1.4,1.4,2,2.3c1.4,1.8,1.8,3.2,3.1,5.4h13.3
		c0-1.3-17.5-50.6-19.4-56c-1.6-4.7-3.2-9.4-4.9-14c-3.1-9,0-7.7,3.1-13.3c5-9.4-1.3-21.4-13-21.4c-10.3,0-18.2,11.3-12.4,21.6
		c3.1,5.6,6.5,4.5,3.6,13c-1.6,4.7-3.2,9.4-4.9,14c-3.4,9.4-6.5,18.7-9.9,27.9C66.7,133.2,58,156.8,58,158z"/>
	<path class="st0" d="M154,70.7v-5.9c-0.9-1.8,0-15.8-10.8-31c-0.9-1.3-2.2-3.1-3.1-4c-0.9-0.9-2.2-2.5-3.4-3.6
		c-0.7,0.2-8.3,7.7-8.6,8.6c4,3.4,7.4,9,9.4,13.7c5.4,11.5,5.6,26.6,0,38.3c-1.6,3.4-5.2,9.7-8.1,12.4c-0.7,0.7-0.9,0.9-1.3,1.6
		c0.5,0.9,7.9,8.1,8.6,8.6c3.8-4,8.6-9.9,11.5-16.4c2.3-5.2,4-10.1,4.9-16C153.4,75.4,153.3,72.2,154,70.7z"/>
	<path class="st0" d="M30.3,64.2c0,11.9,0.4,17.5,5.6,29c2.9,6.5,7.7,12.2,11.3,16.2c0.9-0.5,8.1-7.7,8.6-8.6l-5.2-6.5
		c-5.2-6.8-8.3-17.5-8.5-26.6c0-10.6,3.4-20.3,9.5-28.3c0.5-0.5,0.9-1.3,1.3-1.8c1.1-1.1,1.6-2.2,2.9-2.9c-0.4-0.9-8.1-8.5-8.6-8.6
		c-0.7,0.5-1.1,1.1-1.6,1.6c-1.4,1.4-3.4,4.1-4.7,5.6C35.4,41.4,30.3,54.3,30.3,64.2z"/>
	<path class="st0" d="M111.7,51.1c0.4,1.1,2.7,2.9,4.5,7c2.9,6.1,2.9,13.1,0.2,19.3c-1.3,2.9-2.9,5.2-4.7,6.8c0.2,0.9,0.9,1.3,2,2.5
		c1.4,1.3,5.8,5.9,6.7,6.5c1.1-0.9,3.1-3.4,4-4.9c1.3-1.8,2.2-3.4,3.2-5.6c5.2-10.8,3.8-25.6-3.1-35.1c-0.7-0.9-3.2-4.3-4.1-4.9
		C119.2,43.2,112.8,49.8,111.7,51.1z"/>
	<path class="st0" d="M63.8,93.2c0.7-0.4,8.3-7.7,8.6-9c-4-2.7-6.8-10.8-6.8-16.6c0-3.4,0.9-6.8,2.2-9.5c2-4.5,4-5.6,4.7-7
		c-1.6-1.4-7.6-7.9-8.6-8.5c-0.9,0.5-3.4,4-4.1,4.7c-1.1,1.6-2.3,3.8-3.2,5.6c-5.2,11.3-3.8,24.8,3.2,35.1
		C60.6,89.4,62.7,92.3,63.8,93.2z"/>
</g>
</svg>
