<?xml version="1.0" encoding="utf-8"?>
<!-- Generator: Adobe Illustrator 23.0.3, SVG Export Plug-In . SVG Version: 6.00 Build 0)  -->
<svg version="1.1" id="Livello_1" xmlns="http://www.w3.org/2000/svg" xmlns:xlink="http://www.w3.org/1999/xlink" x="0px" y="0px"
	 viewBox="0 0 184.3 184.3" style="enable-background:new 0 0 184.3 184.3;" xml:space="preserve">
<style type="text/css">
	.st0{fill-rule:evenodd;clip-rule:evenodd;fill:#020202;}
	.st1{fill-rule:evenodd;clip-rule:evenodd;fill:#010101;}
</style>
<g id="Layer_x0020_1">
	<g id="_1216688996576">
		<path class="st0" d="M22.5,127.1c-0.2,6.3-0.8,27.2,0.3,32.1H39l0.1-29.1l5.4,0.1v29h48.3c1.3-6.1,0.2-23.1,0.4-30.6
			c1.8-1.3,25.5-10.5,29.6-12c9.1-3.5,10.3-18.2,16.2-25.3c1.6,3.2-0.9,5.5,4.8,4.1c1.1-3.7-1.2-8.3-0.8-12.2
			c0.4-3.7,3.7-5.4,0.6-10.9c-2.8-4.9-2,1.2-3.6-10.1c-0.5-3.8-1.4-8.2-1.5-12c3.7-2,7.6-5.1,11.6-7.7l12-7.8
			c-1.5-1.4-5.2-2.1-7.1-2.7l-18.5-5.5c-2.8-1.1-0.6-1.2-3.8-1.9l-2.1,0.8c-0.4,4.4,1.8,16.2,2.4,21.1c0.9,6.9,2.1,13.8,2.8,20.8
			c-7.1,0.3-7.6,3.3-10.3,8.1c-2.2,4.1-3.8,7.7-5.8,11.9c-4,8.3-3.1,9-7.6,10.7c-4.2,1.5-8.3,3.3-12.7,5.1
			C83,110,88.6,104.9,82,121.9c-6.5,16.8-5.9,13.5-5.8,30.5H60c0-4.6,0.1-9.2,0.1-13.7c-0.1-5.5-7.9-22-10.2-30.3
			C36.6,108.9,27.2,106.5,22.5,127.1z"/>
		<path class="st1" d="M63.7,61.2c-26.9,5.8-19,46.4,8.6,41.1c9.6-1.9,18.9-12,16.2-24.8C86.3,67.1,76.3,58.4,63.7,61.2z"/>
		<path class="st0" d="M63.8,135.1H74l9.6-26l-30.3-0.6c0.7,3.4,5.5,15.6,7.3,20.3c0.4,1.1,0.8,2.1,1.3,3.4c0.1,0.2,0.5,1.3,0.6,1.5
			C63.1,134.9,62.6,134.5,63.8,135.1z"/>
	</g>
</g>
</svg>
