<?xml version="1.0" encoding="utf-8"?>
<!-- Generator: Adobe Illustrator 23.0.3, SVG Export Plug-In . SVG Version: 6.00 Build 0)  -->
<svg version="1.1" id="Livello_1" xmlns="http://www.w3.org/2000/svg" xmlns:xlink="http://www.w3.org/1999/xlink" x="0px" y="0px"
	 viewBox="0 0 184.3 184.3" style="enable-background:new 0 0 184.3 184.3;" xml:space="preserve">
<style type="text/css">
	.st0{fill-rule:evenodd;clip-rule:evenodd;fill:#010101;}
	.st1{fill-rule:evenodd;clip-rule:evenodd;fill:#121212;}
	.st2{fill-rule:evenodd;clip-rule:evenodd;fill:#020202;}
	.st3{fill-rule:evenodd;clip-rule:evenodd;fill:#1F1F1F;}
	.st4{fill-rule:evenodd;clip-rule:evenodd;fill:#333333;}
	.st5{fill-rule:evenodd;clip-rule:evenodd;fill:#3B3B3B;}
	.st6{fill-rule:evenodd;clip-rule:evenodd;fill:#3D3D3D;}
</style>
<g id="Layer_x0020_1">
	<g id="_2341750111808">
		<path class="st0" d="M117.8,111.1c-0.5-0.1-0.6-0.3-0.9-0.6c-1-1-1.8-1.4-1.2-2.2c0.2-0.3,1-1.2,1.4-0.9c0.4,0.4-0.7,0.8-0.9,1.4
			l0.4,0.4c0.5-0.3,0.6-0.7,0.9-0.8c0.2-0.1,0.4-0.2,0.4,0.2c0,0.2,0.1,0.3-0.3,0.6c-0.2,0.2-0.3,0.3-0.5,0.5
			C117.6,110.4,118.3,110.3,117.8,111.1z M76.1,150.2l0.7,0.1c-0.7-1.2-1.8-1-0.4-2.4c0.4-0.4,0.5-0.7,0.9-0.5v0.4v0.1
			c-0.2,0.4-0.6,0.5-0.9,1.1l0.4,0.4c0.6-0.3,0.7-0.7,1-0.8c0.1,0,0.4,0,0.4,0.2l-0.7,1.2c0.2,0.4,0.3,0.3,0.5,0.8
			c9.1,0.6,18.3,0.6,27.1-1.2c3.5-0.7,8.5-2.1,10.2-4.2c1.2-1.6,1.5-3.5,0-5.2c-0.9-1.1-3.4-2.1-1.7-4.4c4.7-6.7,7.2-13.4,6.6-22.1
			c-0.2-3.1-1.3-9.9-3.3-11.3c-1.9-1.3-4.2,0-4.3,2.1c-0.1,1,0.5,1.9,0.8,2.9c0.3,1,0.5,1.8,0.8,2.7c0.5-0.1,0.3-0.4,1-0.3
			c1.1,0.1,0.8,1.1,1.4,1.4c0.4,0.2,0.6,0.2,0.9,0.6c-0.9,1.1-0.8-0.5-2,0.3c0.2,0.8,0.5,0.4,0.6,1.1l-0.2,0.3
			c-0.7-0.1-0.6-0.4-1.2-0.9c-0.3,2.4,0.9,5.2-1.1,11.4c-2.8,8.7-9.9,16.2-19.7,18.6c-13.6,3.3-27.3-4.1-32.2-17.3
			c-3.4-9-1.3-20.1,4.7-26.9c0.6-0.7,1-1.1,1.6-1.7c1.7-1.8,4.9-4.7,7.8-4.9c1.8-0.1,3.4,0.8,5,1.3c5.5,1.6,11.4,1.1,16.4-1.1
			c4.8-2.1,9.3-6.2,11.6-10.8c0.3-0.5,0.7-1.6,1-2.1c-0.1,0-0.1-0.1-0.1-0.1c-0.1,0-0.1-0.1-0.2-0.1c0-0.1-0.2-0.2-0.2-0.2
			c-0.2-0.2-0.1-0.1-0.3-0.3c-2.4-2-0.8-2.3-1.4-3.7c-0.8-1.8,0.5-2.4,2.1-4.1c2.2-2.2,1.3-1,1.7-2.5c0.5-2.1-1.5-7.8-2.9-10.1
			c-0.6-1.1-0.9-2-0.7-3.5c0.4-2.1,2.6-11.1,2.2-12.9c-0.1-0.4-0.2-0.6-0.3-0.9l-0.4-0.6c-0.3,0.5-1.3,1.4-1.9,1.6
			c-0.5,0.1-2-0.9-1.8-2.7c0.1-0.7,0.3-0.4,0.4-0.9l-11.7-4.4c-3.7-1.3-4.9,1.6-6.3,3.9c-0.7,1.2-1.4,2.2-2,3.4
			c-2.1,3.7-2,4.2-5.6,5.3c-11.2,3.4-18.4,14.2-17.1,26c0.2,1.1,0.5,3.5,1,4.3c0.7,1.1,2.2,1.9,3.8,1.1c2.6-1.5,0.6-3.8,0.7-8.8
			C68.9,56.2,82,47.8,93.5,52c5.3,2,8.9,5.6,11,10.8c2.5,6.2,1.1,12.6-1.9,17.2c-4.7,7.1-14.6,10.3-23,6.5c-1.6-0.7-2.2-1.2-4.3-1.1
			c-1.5,0.1-2.9,0.7-4,1.3c-16.9,9.2-22.4,31.7-11.1,47.8c0.7,0.9,2,2.2,0.9,3.8c-0.8,1-1.8,1-2.6,2.8
			C55.4,148.2,74.3,150.4,76.1,150.2z"/>
		<path class="st0" d="M117.1,75.6c-3.9,1.3-0.5,8.6-2.7,10.8c-0.7,0.7-1.6,1.5-2.4,2.1L99.9,98.9c-0.7,0.6-1.7,1.2-1.7,2.8
			c-0.1,2,2.3,4.2,5.1,1.6l4.8-4.1c0.9-0.7,1.6-1.3,2.4-2c1.1-1,2-0.6,3.7-0.4c1.5,0.2,6.8,1.2,7.9,0.9c2.4-0.7,2.7-4.1,0.4-5.2
			c-1-0.5-3.1-0.4-3.8-0.7c-1.4-0.8,0.8-2.1,1.2-2.4c0.7-0.6,9.2-7.8,9.6-8.4c1.5-2.3-0.9-5.3-3.6-4c-1.5,0.8-4.4,4.2-5,3.7
			c-0.4-0.3,0.1-2.6-0.7-3.8C119.8,75.9,118.6,75.1,117.1,75.6z"/>
		<path class="st0" d="M81.9,71.1c-1.5,0.3-3.9,2.5-5.1,3.5c-0.8,0.7-1.6,1.3-2.4,1.9l-7.1,5.9c-2,1.7-0.4,2.2,0.2,2.2l16.7-4.7
			c2.6-0.8,3.6-2.3,2.6-5.3C86.3,72.8,84.5,70.5,81.9,71.1z"/>
		<path class="st0" d="M86.1,101.3c-1.6,0.6-3.2,2.2-2.5,4.6c1.3,4.5,8.4,2.8,7.1-2C90.3,102.3,88.5,100.6,86.1,101.3z"/>
		<path class="st0" d="M86.4,113.1c-4.8,1.1-3.3,8.2,1.6,7.2c1.7-0.4,3.2-2.2,2.8-4.4C90.4,114.2,88.6,112.5,86.4,113.1z"/>
		<path class="st0" d="M91.8,63.9c-3.7,1.2-1.9,6.7,1.8,5.5C97.1,68.2,95.4,62.7,91.8,63.9z"/>
		<path class="st1" d="M109.6,78.7c0.2-0.7,0.6-1.5,0.8-2.4c0.3-0.8,0.4-1.7,0.6-2.6c0.2-1.1,0.8-4.8,0.2-5.8
			c-0.4,1.5,0.5,0.3-1.7,2.5c-1.6,1.6-2.9,2.2-2.1,4.1c0.6,1.4-1,1.6,1.4,3.7c0.2,0.2,0.2,0.1,0.3,0.3c0.1,0,0.2,0.1,0.2,0.2
			c0.1,0,0.1,0.1,0.2,0.1C109.5,78.7,109.5,78.7,109.6,78.7z"/>
		<path class="st2" d="M75.4,68.8c0,0,2.1-2.3,1.8-1c-0.1,0.2-0.2,0.3-0.3,0.4c-0.4,0.3-0.5,0.3-0.6,0.8l0.3,0.3
			c0.6-0.3,1.3-1.5,1.4-0.6c0.1,0.4-0.2,0.4-0.5,0.6l0.4,0.1c2.5-0.1,3.1-4.6,0.1-5.5c-2.2-0.7-4.1,1.2-3.7,3.4
			c0.1,0.4,0.2,0.7,0.4,0.9c0.1,0.1,0.2,0.3,0.3,0.3C75.2,68.7,75.1,68.6,75.4,68.8z"/>
		<path class="st3" d="M109.2,40c-0.4-0.6-0.7-0.9-1.3-1.2c-0.8-0.4-1.2-0.6-2-0.7c-0.1,0.5-0.3,0.2-0.4,0.9
			c-0.3,1.8,1.3,2.7,1.8,2.7C107.8,41.4,108.9,40.5,109.2,40z"/>
		<path class="st4" d="M114,109.8c0.1,0.5,0.2,2.1,0.5,2.4c0.6,0.5,0.5,0.9,1.2,0.9l0.2-0.3c-0.1-0.7-0.4-0.3-0.6-1.1
			c1.2-0.8,1.1,0.9,2-0.3c-0.3-0.4-0.6-0.4-0.9-0.6c-0.6-0.4-0.3-1.4-1.4-1.4C114.3,109.4,114.5,109.7,114,109.8z"/>
		<path class="st5" d="M117.8,111.1c0.5-0.8-0.2-0.7-0.6-1.4c0.2-0.3,0.3-0.3,0.5-0.5c0.3-0.3,0.3-0.4,0.3-0.6
			c-0.1-0.3-0.2-0.2-0.4-0.2c-0.3,0.1-0.5,0.5-0.9,0.8l-0.4-0.4c0.2-0.7,1.3-1,0.9-1.4c-0.4-0.3-1.2,0.7-1.4,0.9
			c-0.6,0.8,0.2,1.2,1.2,2.2C117.2,110.8,117.3,111,117.8,111.1z"/>
		<path class="st6" d="M76.1,150.2c0.2,0.1,0.1,0.1,0.4,0.2c0.2,0.1,0.3,0.1,0.5,0.1c0.3,0,0.6,0,1,0.1c-0.2-0.5-0.3-0.5-0.5-0.8
			l0.7-1.2c0-0.2-0.3-0.2-0.4-0.2c-0.3,0.1-0.4,0.5-1,0.8l-0.4-0.4c0.3-0.6,0.7-0.7,0.9-1.1v-0.1v-0.4c-0.4-0.2-0.6,0.1-0.9,0.5
			c-1.4,1.4-0.3,1.2,0.4,2.4L76.1,150.2z"/>
		<path class="st5" d="M75.4,68.8l0.5,0.4c0.6,0.3,1.7,0.6,2.1,0.2l-0.4-0.1c0.3-0.2,0.5-0.2,0.5-0.6c-0.2-0.9-0.9,0.4-1.4,0.6
			L76.3,69c0.1-0.5,0.2-0.5,0.6-0.8c0.2-0.2,0.3-0.3,0.3-0.4C77.5,66.4,75.4,68.8,75.4,68.8z"/>
	</g>
</g>
</svg>
