<?xml version="1.0" encoding="utf-8"?>
<!-- Generator: Adobe Illustrator 23.0.3, SVG Export Plug-In . SVG Version: 6.00 Build 0)  -->
<svg version="1.1" id="Layer_1" xmlns="http://www.w3.org/2000/svg" xmlns:xlink="http://www.w3.org/1999/xlink" x="0px" y="0px"
	 viewBox="0 0 184.3 184.3" style="enable-background:new 0 0 184.3 184.3;" xml:space="preserve">
<style type="text/css">
	.st0{fill:#FFFFFF;}
</style>
<g id="Layer_x0020_1">
	<path class="st0" d="M146.3,163.3H38c1.1-1.6,2.2-2.9,3.4-4.3c1.8-2.3,1.1-1.8,5.6-1.8c10.4,0,92-0.2,94,0c0.9,0.2,1.4,1.1,2,1.8
		L146.3,163.3z M52.4,145.5h79.6c0.7,1.4,4.1,5,4.7,6.1H47.9c0.4-0.7,1.8-2.2,2.3-3.1C50.9,147.5,51.8,146.4,52.4,145.5z M70,133.1
		h44.1l7-0.7c0.5,1.1,2,2.7,2.7,3.8c0.5,0.7,0.9,1.1,1.4,1.8c0.4,0.5,1.1,1.3,1.4,1.8H57.6l4.3-5.8c0.9-1.3,1.1-1.8,3.2-1.6
		C66.8,132.9,68.4,133.1,70,133.1z M59.2,107c-0.7-6.3,3.8-11.3,9.4-11.9c6.3-0.7,11.3,3.8,12.1,9.4c0.7,6.3-4,11.3-9.5,11.9
		C64.8,117.1,59.7,112.4,59.2,107z M104,106.4c-0.4-6.1,4.1-11,9.7-11.5c6.3-0.5,11.3,4.1,11.7,9.9c0.5,6.1-4.3,11.2-9.9,11.5
		C109.4,116.9,104.4,112.2,104,106.4z M62.1,35.9c2.9-0.5,40.1-0.2,46.4-0.2c9.7,0,19.3-2.2,22.7,8.1c1.1,3.2,0.7,10.6,0.7,14.6
		c0,4.3,0.5,10.8-1.3,14.4c-1.6,3.1-4.3,5.8-8.8,6.3c-3.4,0.4-25.6,0-31,0c-5,0-27.2,0.4-30.2-0.5c-3.8-0.9-6.8-4-8.1-7.4
		c-1.1-3.1-0.5-11-0.5-14.6c0-4.7-0.5-10.3,1.3-14.2C54.7,39.5,57.8,36.6,62.1,35.9z M70,23.8c2.5-1.6,17.8-1.1,22-1.1
		c4.3,0,19.3-0.7,22,0.9v2.9c-2.5,1.6-17.8,1.1-22.1,1.1c-4.5,0-18.9,0.7-21.8-1.1L70,23.8z M57.6,130.2c-0.4,0.7-16,19.3-16,19.3
		l-14.2,16.9c-0.5,0.7-1.6,1.8-2,2.5h133.4l-24.1-29c-1.4-1.6-2.5-3.2-4-4.9l-4-4.9c0.7-0.9,4.1-2.2,6.3-4.7
		c0.5-0.5,0.7-0.7,1.4-1.3c0.9-0.7,2.9-3.8,3.6-4.9c3.6-6.7,3.1-11,3.1-19.1c0-14.9,0-29.9,0-44.6c0-6.3,0.5-15.5-1.1-21.2
		c-3.2-11.3-13.9-18.7-25.7-18.9c-7.4-0.2-14.9,0-22.3,0s-14.9-0.2-22.3,0c-11.7,0.2-22.3,7.4-25.9,18.7c-1.8,5.4-1.1,15.1-1.1,21.2
		c0,14.9,0,29.9,0,44.6c0,7.6-0.2,13.1,3.2,19.3c2.3,4,4.7,6.3,8.1,8.8C55.1,128.8,56.5,129.5,57.6,130.2z"/>
</g>
</svg>
