<?xml version="1.0" encoding="utf-8"?>
<!-- Generator: Adobe Illustrator 23.0.3, SVG Export Plug-In . SVG Version: 6.00 Build 0)  -->
<svg version="1.1" id="Layer_1" xmlns="http://www.w3.org/2000/svg" xmlns:xlink="http://www.w3.org/1999/xlink" x="0px" y="0px"
	 viewBox="0 0 184.3 184.3" style="enable-background:new 0 0 184.3 184.3;" xml:space="preserve">
<style type="text/css">
	.st0{fill:#FFFFFF;}
</style>
<g id="Layer_x0020_1">
	<g id="_2429613288336">
		<path class="st0" d="M71.5,36.1c0.2,0.4,0.2,0,0.7,1.1l11.3,28.6l-26.3-0.2L71.5,36.1z M91.2,60.6c-1.6-1.8-11.7-27.5-12.6-31.1
			h32.8C111,32.3,94,56.5,91.2,60.6z M105.9,0.7c-2.9,5.6,1.6,14,2.7,20.5H76c-1.6-0.4-2.2-2.9-2.5-4c3.6-1.4,7-0.9,7.6-4.7
			c-3.1-2-24.1-1.8-27-0.4c-1.4,3.4-0.5,6.8,0.7,9.5c4.5,0.7,6.1-0.9,10.1-2c4.1,4.1,1.1,7.9-1.1,12.6L51.7,58.1
			c-10.1,20-7,16,31.5,16.2c11.5,0,8.1,1.3,20.9-18c3.4-5,7.4-10.4,10.4-15.5l12.2,25.4c1.6,3.1,3.2,4.9,5,7.7l5.2-0.4
			c2.7-5.8,0-5.8-5-15.3c-6.8-13.3-15.8-35.5-17.6-50.2c5.2,0.2,10.1-1.6,13.3-4c2.2-1.4,7.9-6.8,3.6-10.3c-4.3-3.2-7,2.9-10.6,4.5
			C115.6,0.5,110.4-0.8,105.9,0.7z"/>
		<path class="st0" d="M112.8,50.3l-3.1,3.4c-16.9,24.7,9.7,57.1,38.7,42.7c9.9-5,19.3-19.1,13.9-35.5
			c-3.4-10.3-16.2-23.6-31.7-20.2c0.4,2.2,1.6,4.9,2.5,6.8c1.6,4.3,2.2,2.3,6.8,3.6c25.2,7,14.4,46.4-11.7,38.5
			c-11-3.2-16.6-15.5-13.1-25.4C116,61.5,119.6,60.8,112.8,50.3z"/>
		<path class="st0" d="M78,79.7c-15.3-0.2-6.8-0.7-15.7,6.5C47.6,98.4,22.6,81.5,33,60.8c3.2-6.5,8.5-8.8,16.9-10.4l4-9.2
			C31.4,36.5,10.3,64,25.6,86.5C40.4,107.9,71.5,100.9,78,79.7z"/>
		<path class="st0" d="M67.2,59.9c3.2,0.9,7.4,0.5,10.6,0.2c-1.3-4.7-4-9-7.2-11.2C69.4,51.4,66.3,56.6,67.2,59.9z"/>
	</g>
	<path class="st0" d="M70.3,191.3v-83h26.8c10.1,0,16.7,0.4,19.8,1.3c4.7,1.3,8.6,4,11.9,8.1c3.2,4.1,4.9,9.5,4.9,16.2
		c0,5-0.9,9.4-2.7,12.8s-4.1,6.1-7,8.1c-2.9,2-5.8,3.2-8.6,4c-4,0.7-9.7,1.3-17.3,1.3H87.2v31.3L70.3,191.3L70.3,191.3z M87,122.5
		v23.6h9.2c6.5,0,11-0.5,13.1-1.3c2.2-0.9,4-2.2,5.2-4.1c1.3-1.8,1.8-4,1.8-6.5c0-3.1-0.9-5.6-2.7-7.6c-1.8-2-4-3.2-6.7-3.6
		c-2-0.4-5.9-0.5-12.1-0.5H87z"/>
</g>
</svg>
