<?xml version="1.0" encoding="utf-8"?>
<!-- Generator: Adobe Illustrator 23.0.3, SVG Export Plug-In . SVG Version: 6.00 Build 0)  -->
<svg version="1.1" id="Layer_1" xmlns="http://www.w3.org/2000/svg" xmlns:xlink="http://www.w3.org/1999/xlink" x="0px" y="0px"
	 viewBox="0 0 184.3 184.3" style="enable-background:new 0 0 184.3 184.3;" xml:space="preserve">
<style type="text/css">
	.st0{fill:none;}
</style>
<g id="Layer_x0020_1">
	<line class="st0" x1="48.1" y1="67.4" x2="135.1" y2="67.4"/>
	<polygon points="48.1,66.1 135.1,66.1 135.1,68.7 48.1,68.7 	"/>
	<line class="st0" x1="48.1" y1="74.8" x2="135.1" y2="74.8"/>
	<polygon points="48.1,73.5 135.1,73.5 135.1,76 48.1,76 	"/>
	<line class="st0" x1="48.1" y1="82.2" x2="135.1" y2="82.2"/>
	<polygon points="48.1,80.7 135.1,80.7 135.1,83.4 48.1,83.4 	"/>
	<line class="st0" x1="48.1" y1="89.4" x2="135.1" y2="89.4"/>
	<polygon points="48.1,88.1 135.1,88.1 135.1,90.8 48.1,90.8 	"/>
	<line class="st0" x1="48.1" y1="96.7" x2="135.1" y2="96.7"/>
	<polygon points="48.1,95.5 135.1,95.5 135.1,98 48.1,98 	"/>
	<path d="M22.6,154.2c0,1.4,1.1,2.9,1.8,3.4c0.9,0.7,2.2,1.3,3.8,1.3H156c3.1,0,5.8-2,5.8-4.9V86.1c0-1.1-0.9-1.8-1.8-2
		c-0.9,0-1.8,0.9-2.3,1.3c-1.4,1.1-2.9,2.2-4.3,3.2l-25.6,19.6c-9.9,7.6-20,15.1-29.9,22.9c-3.6,2.9-7.6,2.9-11.2,0l-29.9-22.9
		c-5.8-4.3-11.3-8.6-17.1-13.1l-12.8-9.7c-0.5-0.5-1.4-1.3-2.3-1.3s-2,0.7-2,1.6L22.6,154.2L22.6,154.2z"/>
	<path d="M33,69.6c-0.5,0.2-1.1,0.7-1.6,1.1c-1.3,1.1-7,5-7.4,5.9c-0.9,1.8,0.7,2.7,1.6,3.4l10.8,8.3c0.5,0.4,1.1,0.9,1.6,1.3
		c0.2-2,0-8.8,0-11.3c0-1.8-0.2-21.4,0-22.7c0.2-1.4,1.4-2.5,2.7-2.9s4-0.2,5.6-0.2h91.3c2.9,0,7.6-0.9,8.3,3.1
		c0.2,1.3,0.2,25.6,0.2,28.4c0,1.6-0.2,4.1,0,5.8c0.5-0.5,2.2-1.6,3.1-2.3l9.2-7c0.9-0.7,2.3-1.6,1.6-3.4c-0.4-0.9-2-1.8-2.9-2.5
		c-0.2-0.2-5.9-4.5-6.1-4.9c0-4.3,0-8.6,0-12.8c0-4-2.3-6.7-5-7.7c-1.8-0.7-3.2-0.9-5.6-0.9h-16c-1.8,0-1.3,0-2.3-0.9
		c-4.9-3.8-9.7-7.6-14.6-11.2c-2.3-1.8-4.9-3.6-7.2-5.6c-1.3-0.9-2.3-1.8-3.6-2.9c-1.1-0.9-2.3-2.2-4.3-2.2c-1.8,0-3.2,1.4-4.3,2.2
		c-8.5,6.5-17.1,13-25.6,19.6C61.3,48.1,61.6,48,60,48h-9.7c-4,0-9.2-0.5-12.1,0.9c-2.7,1.3-5,3.8-5,7.7C33,60.7,33.2,65.2,33,69.6z
		"/>
</g>
</svg>
