<?xml version="1.0" encoding="utf-8"?>
<!-- Generator: Adobe Illustrator 23.0.3, SVG Export Plug-In . SVG Version: 6.00 Build 0)  -->
<svg version="1.1" id="Layer_1" xmlns="http://www.w3.org/2000/svg" xmlns:xlink="http://www.w3.org/1999/xlink" x="0px" y="0px"
	 viewBox="0 0 184.3 184.3" style="enable-background:new 0 0 184.3 184.3;" xml:space="preserve">
<style type="text/css">
	.st0{fill:#010101;}
</style>
<g id="Layer_x0020_1">
	<g id="_2429222445184">
		<path class="st0" d="M91.3,98.8c4.9,0,7.4,0.5,11.2,4.1c9,8.6,3.1,25.2-10.4,25.2c-7.6,0-14.2-5.9-14.8-14.2
			C76.9,106.1,83.6,98.8,91.3,98.8z M106.6,71v3.2c0,6.7-6.7,13.3-13.3,13.3c-7.2,0-11.7-2-14.8-8.8c-4.9-11,5.8-23.8,18.4-19.6
			C102.1,60.8,106.6,66.5,106.6,71z M92.1,17.9c8.1,0,14.2,6.3,14.8,14.2c0.5,7.7-5.6,15.1-15.5,15.1c-7.7,0-14.2-7.4-13.9-14.8
			C77.5,24.6,83.8,17.9,92.1,17.9z M58,13.3v119.9c0,3.1,3.4,5.8,6.7,5.8h54.7c3.6,0,6.7-2.7,6.7-5.8V13.3c0-3.6-2.9-6.3-6.3-6.3H64
			C61.6,7.1,58,9.3,58,13.3z"/>
		<polygon class="st0" points="81.3,177.2 102.9,177.2 102.9,143.2 81.3,143.2 		"/>
		<path class="st0" d="M130.2,47.8c9.4,0,9.7-5.8,13.5-16c1.4-4,4.5-9.4-0.5-13.9c-3.4-3.1-8.1-2.5-13-2.5V47.8z"/>
		<path class="st0" d="M38.2,24.1c0,2.2,4,12.1,4.9,14.6c1.8,4.9,2.7,9,10.8,9V15.2c-4.9,0-9.2-0.5-12.8,2.2
			C39.9,18.7,38.2,21.9,38.2,24.1z"/>
		<path class="st0" d="M130.2,128.3c7.2,0,8.6-2.2,11.2-9.5c2.9-8.5,7.4-14.2,2-19.8c-3.2-3.4-7.4-2.5-13.1-2.5
			C130.2,96.4,130.2,128.3,130.2,128.3z"/>
		<path class="st0" d="M38.2,104.5c0,2.2,5.9,18.5,7.2,20.2c2.7,3.6,5.2,3.4,8.6,3.4V96.2c-5.8,0-9.9-0.9-13.1,2.5
			C39.7,100,38.2,102.5,38.2,104.5z"/>
		<path class="st0" d="M130.2,88c9.7,0,9.4-5.6,13.5-16c0.5-1.4,2.3-5.9,2.3-7.2c0-4.3-3.6-8.6-7.9-8.6h-7.9V88z"/>
		<path class="st0" d="M38.2,64.7c0,1.4,6.1,18.4,7.4,20c2.2,2.9,5,3.2,8.3,3.2V56.1H46C41.8,56.1,38.2,60.4,38.2,64.7z"/>
	</g>
</g>
</svg>
