<?xml version="1.0" encoding="utf-8"?>
<!-- Generator: Adobe Illustrator 23.0.3, SVG Export Plug-In . SVG Version: 6.00 Build 0)  -->
<svg version="1.1" id="Layer_1" xmlns="http://www.w3.org/2000/svg" xmlns:xlink="http://www.w3.org/1999/xlink" x="0px" y="0px"
	 viewBox="0 0 184.3 184.3" style="enable-background:new 0 0 184.3 184.3;" xml:space="preserve">
<style type="text/css">
	.st0{fill:#FFFFFF;}
</style>
<g id="Layer_x0020_1">
	<path class="st0" d="M82.7,116.7c-1.6-8.8,8.8-15.1,15.8-9.7c5,4,5.6,11,1.3,15.1c-2,1.8-2.5,1.3-2.5,5c0,2.7,0.4,12.6-0.4,14.4
		c-1.6,3.8-7.6,3.4-8.8-0.7c-1.1-3.6,0.9-15.5-0.9-17.3c-0.4-0.4-0.5-0.4-1.1-0.7C84.5,121.2,83,119.2,82.7,116.7z M49.4,78
		c-6.7,0-11.5,4.7-12.1,10.8c-0.4,3.8,0,18.2,0,23.2V147c0,3.8-0.4,7,1.3,10.3c1.3,2.3,3.4,4.3,6.1,5.4c3.1,1.3,7.4,0.9,10.8,0.9
		c23.2,0,46.4,0,69.7,0c8.6,0,13.9,1.4,19.1-4c2-2,3.1-4.9,3.1-8.5V92.8c0-4,0-6.7-1.8-9.5c-4.3-6.5-10.8-5.2-18-5.2H69.2
		c-0.5-2.5-0.2-16.2,0.5-18.9c1.6-7,6.7-13.5,13-16.6c2.2-1.1,4.9-1.8,7.7-2.2c11.9-1.1,23,7.4,25,19.3c0.4,1.8,0.2,2.5,1.4,3.6
		c1.8,1.6,6.1,0.9,8.8,0.9c8.3,0,11.2,1.1,9-9.2c-5.4-26.8-35.1-42.1-60.1-30.4C61.2,30.9,51.7,44,49.7,58.8
		C49.2,64.2,49.7,76.2,49.4,78z"/>
</g>
</svg>
