<?xml version="1.0" encoding="utf-8"?>
<!-- Generator: Adobe Illustrator 23.0.3, SVG Export Plug-In . SVG Version: 6.00 Build 0)  -->
<svg version="1.1" id="Layer_1" xmlns="http://www.w3.org/2000/svg" xmlns:xlink="http://www.w3.org/1999/xlink" x="0px" y="0px"
	 viewBox="0 0 184.3 184.3" style="enable-background:new 0 0 184.3 184.3;" xml:space="preserve">
<style type="text/css">
	.st0{fill:#FBFBFB;}
</style>
<g id="Layer_x0020_1">
	<g id="_2429393542080">
		<path d="M67.9,111.4c-4,24.5-34.6,29.3-46.8,9.4C7.4,98.6,34.2,73.6,52.9,84.9c-1.6,3.8-4.3,5-2.7,9.9c5,1.8,7.2-2.3,9-5.8
			c3.8,2.5,7.9,8.3,8.3,15.1H49.9c1.3-4.1,2.5-2,1.6-7.4c-6.3-2.7-5.8,1.1-8.8,4.7c-2,2.5-7.9,4.9-4,9.9c2.9,3.8,7.2,0.2,12.6,0
			C56.7,111.2,62.3,111.4,67.9,111.4z M129.3,89.6c1.8,2,2.7,2.2,5.9,0c0.7-4,0.4-2.9-0.7-6.3c32.9-6.3,43.9,34.9,17.6,47.5
			c-19.6,9.4-41.2-9.7-34.9-30.2c2.2-6.8,5.6-10.1,10.3-13.7L129.3,89.6z M69.9,73c1.8,2.2,8.3,24.1,9,28.3l-3.2,2.9
			c-1.8-3.2-2-8.3-4.5-12.4c-2.9-4.5-4.7-5.6-7.4-9.2L69.9,73z M87,98.6c-2-1.4-1.1-0.2-2.2-3.6l-8.1-27l37.4,0.2L101,83.7
			C97.9,86.9,90.6,97.5,87,98.6z M115.2,48.4c-3.1,3.8,0.5,7.9,1.6,12.6L74,60.8l-2.5-9.7c4.1,0,7.6,0.4,10.8-0.7
			c2.9-8.6-7.6-6.3-14-6.3c-6.5,0-16-2.2-13.1,6.7l8.3,0.5c8.6,18.5-1.1,14.6-5.6,27.5c-8.8-2.2-11.7-5-22.7-2.5
			c-6.7,1.6-13.5,5.9-16.6,9.4c-21.1,24.7,1.4,62.1,32.8,53.5c7-1.8,12.6-5.9,15.8-10.1c7.9-9.9,5.6-11.7,8.3-17.6
			c0.5,0.4,8.1,10.8,16.2,2.5c3.4-3.4,2.2-5,2-9.4c0-2.7-0.4-1.3,1.8-3.8c1.1-1.3,1.4-1.8,2.5-3.2c4.5-4.9,7.4-8.5,11.7-13.3
			c3.4-3.8,7.2-9.7,11.5-12.8l3.2,8.3c-34.4,21.4-7,74.5,30.6,57.2c31.9-14.6,22.3-69.5-24.1-60.5l-8.6-21.6
			c4.3-0.4,12.6-0.9,16,0.5c4.9,5.9-2.3,6.3-5.8,7.9c-2.7,13.1,19.8,4.1,13.3-9.7c-2.3-5-6.1-6.3-13.1-6.3
			C128.2,47.7,119,46.8,115.2,48.4z"/>
		<path class="st0" d="M63.7,82.6c2.7,3.6,4.7,4.7,7.4,9.2c2.5,4,2.7,9.2,4.5,12.4l3.2-2.9c-0.7-4.3-7.2-26.1-9-28.3L63.7,82.6z"/>
		<path d="M134.7,92.8c-4.9,2.3,0.4,7.7,1.4,11.9c0.7,2.9-0.2,5,1.8,7c3.2,3.1,10.4,0.9,8.6-5.4c-0.7-2.5-2.3-2.7-4-5.2
			C140.6,97.9,139.5,90.3,134.7,92.8z"/>
	</g>
</g>
</svg>
