<?xml version="1.0" encoding="utf-8"?>
<!-- Generator: Adobe Illustrator 23.0.3, SVG Export Plug-In . SVG Version: 6.00 Build 0)  -->
<svg version="1.1" id="Layer_1" xmlns="http://www.w3.org/2000/svg" xmlns:xlink="http://www.w3.org/1999/xlink" x="0px" y="0px"
	 viewBox="0 0 184.3 184.3" style="enable-background:new 0 0 184.3 184.3;" xml:space="preserve">
<g id="Layer_x0020_1">
	<g id="_2429456700608">
		<path d="M19.2,117.6c9.7-6.5,56.9-21.4,70.9-22.7v54.7c-15.1-2-17.5-7.6-21.4-8.6c-5-1.3-11.3,6.3-21.6,7
			c-8.1,0.5-19.3-2.3-23.4-6.3C19.2,137.6,19.6,125,19.2,117.6z M93.9,149.7V94.8c19.1,2,56.2,14.8,70.9,22.7
			c-1.1,15.5,0.2,32.2-27.9,30.6c-11-0.7-16.2-8.3-21.2-6.8C110.1,142.8,110.6,148.2,93.9,149.7z M31.8,106.7l-1.4-14
			c9.4-7.2,50-20.3,61.2-20.3c14.6-0.2,53.3,13,62.3,19.6l-1.1,15.1c-13.1-2.7-39.6-16.2-59.9-16.6c-9.4-0.2-23.6,4.3-32.2,6.8
			C54.7,98.9,35.4,106.5,31.8,106.7z M85.6,68.9c0-20-3.1-20.5,11.7-18.9l0.2,18.5L85.6,68.9z M79,45.5l-0.9,21.4
			c-14.8,2.2-47.3,14.6-55.4,22l1.3,17.3c-13,9.4-14,1.6-11,26.8c2.7,22.1,26.3,25.2,40.7,21.6c4.5-1.1,12.6-5.6,13.9-5.4
			c10.1,1.8,16.4,17.6,49.9,0c21.6,11,48.6,8.3,52.7-12.4c5.8-29.5,2-21.6-9.9-30.6c3.2-21.4,0.7-20.9-17.1-28.1
			c-10.3-4.3-26.3-9.5-37.8-11.5l-0.5-21.2C95.7,41.3,87.6,41.3,79,45.5z"/>
		<path d="M33.8,161.7c-4,17.6,33.5,5.6,34.4,5.9c9.4,2.7,20.2,10.1,40.1,3.2c15.1-5.2,2.5-4.5,17.1-0.2c15.8,4.5,31.1-6.3,21.4-9.2
			c-3.6-1.1-5.2,1.6-9.9,2.5c-11,1.8-13-3.4-19.6-5.4c-9.4,3.2-11.7,7.7-25.9,7.6c-16.7-0.2-20.9-7.7-24.7-7.7
			c-6.3,1.6-6.8,5.2-16,5.8C41.9,164.6,40.4,160.3,33.8,161.7z"/>
		<path d="M83.3,29.6c0.5-2.2,1.3-2.2,2-3.8c0.2-0.2,0.4-0.5,0.4-0.9l0.7-1.8c1.8-4,0.5-5.2,6.3-5.6c2.9-0.2,14.8,2.3,16.9,3.4
			c0.2,9.9-5.2,3.2-12.8,7.9C91,32.7,88.3,33.4,83.3,29.6z M89.4,10.9c-7.2,1.8-6.8,2.2-9.7,8.3l-0.9,1.6c-1.3,2.3-4.9,5.4-2,12.1
			c1.6,3.6,5.9,5.9,11.2,6.3c8.5,0.7,8.5-2,13.9-4c6.5-2.5,22.1-4.3,13.5-17.1C111.7,12.5,95.2,9.5,89.4,10.9z"/>
	</g>
</g>
</svg>
