<?xml version="1.0" encoding="utf-8"?>
<!-- Generator: Adobe Illustrator 23.0.3, SVG Export Plug-In . SVG Version: 6.00 Build 0)  -->
<svg version="1.1" id="Layer_1" xmlns="http://www.w3.org/2000/svg" xmlns:xlink="http://www.w3.org/1999/xlink" x="0px" y="0px"
	 viewBox="0 0 184.3 184.3" style="enable-background:new 0 0 184.3 184.3;" xml:space="preserve">
<style type="text/css">
	.st0{fill:#FFFFFF;}
</style>
<g id="Layer_x0020_1">
	<path class="st0" d="M120.6,79l19.4,63.9c3.4,11.2,2.9,10.4-3.6,16.6c-4.3-3.6-15.1-22.7-19.1-29c-7-11.3-11.3-20.3-18.5-29.9
		c-9.9,11-23,21.4-32.2,31.5c2.9,12.2,6.5,14.4,0.7,23.4l-36.9-34.7c6.1-10.8,10.4-4,25-2c16.6-16.9,16.9-18.7,28.1-32.9
		c-10.3-9.9-41.2-25.7-52.6-34c-8.3-6.1-4.5-1.8-4.7-6.5c8.8-9,15.8-1.6,38.5,5.2c14.4,4.3,27,8.6,41.4,13
		c10.6-7.7,36-42.5,51.3-38.7c2.3,5.6,0.9,10.8-3.1,16.4C146.8,52.2,128.1,67.7,120.6,79z"/>
</g>
</svg>
