<?xml version="1.0" encoding="utf-8"?>
<!-- Generator: Adobe Illustrator 23.0.3, SVG Export Plug-In . SVG Version: 6.00 Build 0)  -->
<svg version="1.1" id="Livello_1" xmlns="http://www.w3.org/2000/svg" xmlns:xlink="http://www.w3.org/1999/xlink" x="0px" y="0px"
	 viewBox="0 0 184.3 184.3" style="enable-background:new 0 0 184.3 184.3;" xml:space="preserve">
<style type="text/css">
	.st0{fill-rule:evenodd;clip-rule:evenodd;fill:#FFFFFF;}
</style>
<g id="Layer_x0020_1">
	<g id="_1216886384320">
		<path class="st0" d="M27.7,134.9v0.6c13.1,0.4,27.3,0.3,40.5,0c13.6-0.2,23.9-0.2,33.8-7.3c8.5-6.2,11.8-12.7,13.4-27.4
			c0.3-2.9,0.8-5.2,2.2-7.4c7-11.3,18.8-3.9,21.8-9.7c-2.9-1.5-33,1.2-35.7,2c-21.6,6.2-8.9,37.8-35.9,44.2
			c-9.8,2.3-28.1,2.1-38.6,1.9L27.7,134.9z"/>
		<path class="st0" d="M156.5,48.5H89.9c-3.4,1.5-8.2,1.6-12.2,3.3c-10.7,4.3-17,14.4-21.1,25.6l25.1,0.2c2.9-1.2,1,0.2,3-2.7
			c6.2-8.7,9.7-15.5,23.8-19.3c13.2-3.6,31.6-3.2,45.9-2.8L156.5,48.5z"/>
		<path class="st0" d="M50.5,90c-4.8,10.8-15.8,28.1-18.3,37.2c16.1-0.7,22.9-2.8,30.1-12.7c4-5.4,13.5-20.4,16-27.3L50.5,90z"/>
		<path class="st0" d="M103,77.5h38.1c3.3-0.7,10.3-17.8,11.4-20.6C133.7,55.4,110.6,58.6,103,77.5z"/>
	</g>
</g>
</svg>
