<?xml version="1.0" encoding="utf-8"?>
<!-- Generator: Adobe Illustrator 23.0.3, SVG Export Plug-In . SVG Version: 6.00 Build 0)  -->
<svg version="1.1" id="Layer_1" xmlns="http://www.w3.org/2000/svg" xmlns:xlink="http://www.w3.org/1999/xlink" x="0px" y="0px"
	 viewBox="0 0 184.3 184.3" style="enable-background:new 0 0 184.3 184.3;" xml:space="preserve">
<style type="text/css">
	.st0{fill:#FFFFFF;}
</style>
<g id="Layer_x0020_1">
	<g id="_2429622832720">
		<path d="M125.7,112.6c13.1-4,17.5,15.7,5.9,18.9C118.5,135.5,113.1,116.4,125.7,112.6z M52.8,112.6c12.8-4.1,17.8,15.5,5.9,18.9
			C46.1,135.3,39.8,117,52.8,112.6z M75.1,46.2c12.1-1.3,53.1-3.2,58.7,9c1.4,2.9,4.1,26.8,4,30.8c-0.2,6.1-5,6.3-10.8,6.3H57.6
			c-5.6,0-10.8,0.4-11.3-5.6c-0.4-2.7,2.9-29.2,3.8-31.1C53,48.6,65.7,47.1,75.1,46.2z M111.1,26.4c2.2,5.4-0.5,6.3-6.5,6.3
			l-30.1-0.4c-3.1-1.1-4.3-6.5,3.1-6.5C87.5,25.9,101.7,25.2,111.1,26.4z M42.3,165.2h19.8c5.2-3.6,3.2-5.8,3.4-13.3h52.9
			c0.4,7.4-1.6,9.7,3.6,13.3h19.8c2.3-2.2,3.1-2,3.2-6.3c0.2-2.9-0.2-5.8,0-8.6c7.9-7,6.7-8.6,6.7-22c0-9.4,0-18.9,0-28.3
			c1.3-2.5,0.5-0.7,3.6-2.3c1.4-0.7,2-1.3,2.5-3.1c1.1-3.1,0.5-7,0.5-10.3c0-9.5,0.4-11.5-9-12.2c-4.3-25-0.2-42.7-30.6-45.2
			c-0.7-10.4-9.5-7.7-27-7.7c-16.9,0-25.6-2.7-26.3,7.7C35.5,29.3,38.9,46,35,72.1c-9.9,0.9-9,3.1-9,13c0,3.2-0.5,7.4,0.7,10.1
			c1.8,4.1,5.2,2,5.9,4.9c0,9.7,0,19.3,0,29c0,13-1.3,14.4,6.7,21.2c0.2,3.1-0.2,6.3,0,9.2C39.3,163.2,40.4,163.6,42.3,165.2z"/>
		<path class="st0" d="M62.1,165.2h59.9c-5-3.6-3.1-5.9-3.6-13.3H65.6C65.2,159.4,67.2,161.6,62.1,165.2z"/>
	</g>
</g>
</svg>
