<?xml version="1.0" encoding="utf-8"?>
<!-- Generator: Adobe Illustrator 23.0.3, SVG Export Plug-In . SVG Version: 6.00 Build 0)  -->
<svg version="1.1" id="Layer_1" xmlns="http://www.w3.org/2000/svg" xmlns:xlink="http://www.w3.org/1999/xlink" x="0px" y="0px"
	 viewBox="0 0 184.3 184.3" style="enable-background:new 0 0 184.3 184.3;" xml:space="preserve">
<style type="text/css">
	.st0{fill:#FFFFFF;}
</style>
<g id="Layer_x0020_1">
	<g id="_2429220710000">
		<path class="st0" d="M132.8,155.2l-92.2,0.4c-2.3-13.9,6.3-11.7,16.9-11.7h57.8C127.4,144.1,133.7,141.7,132.8,155.2z
			 M121.1,138.3H51.8c0.4-24.1,0-48.2,0-72.4c0-6.1-0.9-31.7,1.1-34.7c2.7-3.8,9.9-2.5,15.1-2.5h36.4c20.7,0,16.9-2.9,16.9,37.3
			C121.1,90.1,120.9,114.2,121.1,138.3z M138.6,51.6h5.6c0.2,2.9,0.2,3.6-1.3,5.6l-4-0.4L138.6,51.6z M36.3,161.4h100.3
			c2.9-3.2,1.8-13.3,0.7-15.8c-3.2-7.7-8.3-5-10.6-8.1v-11.2c1.6,2.2,2.5,4.7,5.8,5.8c3.2,1.1,6.8-0.2,8.8-1.8
			c4.1-3.8,2.7-13.9,2.7-20.5c0-15.3,0-30.8,0-46.3c1.1-4.1,5.8,1.3,5.8-14.8c0-2.7,0.7-7.2-1.8-8.3c-4-1.8-3.8,3.4-4.1,5.6h-5.4
			l-0.9-5.2l-4.1-0.4c-1.3,3.6-1.1,9.5-0.7,13.9c0.5,7.6,3.8,5.9,5.6,9.2c0,0.2,0.4,58.5-0.5,62.1c-2.2,1.3-2.5,1.3-4.9,0.2
			c-0.9-3.6,0.5-10.6-2.9-13.9c-1.8-1.8-2.2-0.4-3.4-2.9V37.7c0-10.8-2.2-10.6-9-14.8H55.2c-9.5,6.1-9,4.3-9,22.1
			c0,12.4,0.5,87.7-0.2,93.1c-5.6,1.3-8.8,2.9-10.4,7.4C33.8,150,33.6,158.3,36.3,161.4z"/>
		<path class="st0" d="M63.5,40l46.3,0.2v2.3v24.1v2.5l-2.9,0.2H67.3H66h-2.7V40H63.5z M59,74.4c2.5,0.7,53.1,1.3,55.1-0.4
			c2-1.6,1.3-2.7,1.3-7.4c-0.2-36,2.9-32.2-11.2-32.2H69.3c-8.1,0-11.5-2.2-11.5,6.3C57.8,47.8,56.3,70.3,59,74.4z"/>
		<path class="st0" d="M84,98c0.5-0.9,0.5-1.3,1.3-2c0-0.2,0.2-0.4,0.4-0.4l1.1-1.1c0,9.5-0.2,8.8,9,9.2c-0.7,1.8-7.6,13.5-9,14.8
			c0-1.6,0.2-3.8,0-5c-0.2-1.4,0-0.9-0.5-2.2c-1.1-2.5-5-1.6-8.6-1.8L84,98z M80.6,115.5c0.2,4.5-0.5,13.3,0.9,16.4
			c4.3,1.4,5.4-2.3,7.4-5.4c1.8-2.9,3.4-5.8,5.2-8.8c2-3.1,3.6-5.8,5.2-8.8c2.9-4.9,8.3-10.8-1.4-10.8c-2.2,0-3.8,0.2-5.9-0.2
			c-0.4-5,0.5-12.4-0.7-16.6c-4.9-1.3-5,1.8-8.8,7.7l-13,21.6C67.1,117.1,76.3,114.7,80.6,115.5z"/>
	</g>
</g>
</svg>
