<?xml version="1.0" encoding="utf-8"?>
<!-- Generator: Adobe Illustrator 23.0.3, SVG Export Plug-In . SVG Version: 6.00 Build 0)  -->
<svg version="1.1" id="Layer_1" xmlns="http://www.w3.org/2000/svg" xmlns:xlink="http://www.w3.org/1999/xlink" x="0px" y="0px"
	 viewBox="0 0 184.3 184.3" style="enable-background:new 0 0 184.3 184.3;" xml:space="preserve">
<style type="text/css">
	.st0{fill:#FFFFFF;}
</style>
<g id="Layer_x0020_1">
	<path class="st0" d="M63.6,79l-19.4,63.9c-3.4,11.2-2.9,10.4,3.6,16.6c4.3-3.4,15.1-22.5,19.1-28.8c7-11.3,11.3-20.3,18.5-29.9
		c9.9,11,23,21.4,32.2,31.5c-2.9,12.2-6.5,14.4-0.7,23.4l36.9-34.9c-6.1-10.8-10.6-4-25-2c-16.6-16.9-16.9-18.7-28.1-32.9
		c10.3-9.7,41.2-25.6,52.6-34c8.3-6.1,4.5-1.8,4.7-6.5c-8.8-9-15.8-1.6-38.5,5.2c-14.4,4.3-27,8.6-41.4,13
		c-10.6-7.7-36-42.5-51.3-38.7c-2.3,5.6-0.9,10.8,3.1,16.4C37.4,52.4,56.1,67.7,63.6,79z"/>
</g>
</svg>
