<?xml version="1.0" encoding="utf-8"?>
<!-- Generator: Adobe Illustrator 23.0.3, SVG Export Plug-In . SVG Version: 6.00 Build 0)  -->
<svg version="1.1" id="Livello_1" xmlns="http://www.w3.org/2000/svg" xmlns:xlink="http://www.w3.org/1999/xlink" x="0px" y="0px"
	 viewBox="0 0 184.3 184.3" style="enable-background:new 0 0 184.3 184.3;" xml:space="preserve">
<style type="text/css">
	.st0{fill-rule:evenodd;clip-rule:evenodd;fill:#FFFFFF;}
</style>
<g id="Layer_x0020_1">
	<g id="_1216958377840">
		<path class="st0" d="M92,108.9c-3.4-0.2-20,0.7-21.6-0.5c0.9-1.1-0.5-0.1,0.9-0.5c1.4-0.5,1.6-0.1,3-0.5l6.1-28.9
			c-1.4-0.1-2.4,0.2-3.4-0.5c0.8-1.2,1.4-0.8,3.3-0.8c1.3,0.1,2.7,0.1,4,0.1h24.5l-2.2,11.4l-1.4,0.4c-0.5-7.6-2.3-11-10.4-10.5
			c-0.9,1.4-2.9,11.5-3,13.7c2.4-0.2,3.5-1.1,4.8-2.4c1.7-1.7,1.3-3.4,3.1-3.8c0.1,0.1,0.5-0.3,0.3,1.8l-1.2,5.4
			c-1.2,5.5-0.6,6.4-2.6,6.6c-0.8-1.9,0.6-6.1-4.7-6.4l-2.9,14.1l3.5,0.1V108.9z M58.2,77.2l2.3,0.1l-1.7,9.6
			c-0.4,1.6-0.2,1.5-1.4,2c-1.2-1.4-0.4-2.8-1.1-4.9c-0.5-1.4-0.5-0.9-0.7-1.3c-2.5,8.6-1.2,18.4,3,25.7l5,6.9
			c0.7,0.7,1.3,1,2.2,1.8c2.4,2.2,6,4.3,10.1,5.7c10.2,3.6,23.1,1.7,30.7-4.7c4.5-3.9,7.1-5.6,10.4-13.5
			c10.2-24.5-12.7-53.2-42.2-42.7c-1.8,0.6-3.7,1.7-5.2,2.7c-2.7,1.7-2.3,1.8-4.4,3.5C63.2,69.8,59.2,74,58.2,77.2z"/>
		<path class="st0" d="M123.5,88.8c2.6,0.3,1.4-1.2,5-6c1.5-1.9,3.6-3.9,6.9-4.2l-6.1,28.9c-1.7,0.1-3.4-0.4-4.3,0.8
			c1.3,1,18.4,0.8,20.7,0.6c2.6-0.3,1.3,0.6,1.9-1.1l-3.9-0.3c0.5-3.8,5.4-27.3,6.3-28.9c6.4,1.1,5.1,7.9,6.1,10.3
			c1.8-0.1,1.2,0.5,2.2-5.1c0.4-2.1,0.9-4.4,1.2-6.6l-28.9-0.1c-5.6,0-4.4-1-5.6,4.1C124.5,83.9,123.9,86.3,123.5,88.8z"/>
		<path class="st0" d="M55.7,82.7c0.2,0.4,0.2-0.2,0.7,1.3c0.7,2.1-0.1,3.5,1.1,4.9c1.2-0.5,1-0.4,1.4-2l1.7-9.6l-2.3-0.1h-31
			l-2.4,10.3c-0.2,2.2-0.2,0.8,0.3,1.4c2.8-0.8,3.7-9.5,11.4-10.3l-6.1,29.1c-2-0.1-3.2-0.3-4.4,0.4c0.8,0.9-0.8,0.6,2.1,0.9
			l9.2-0.1c3.5,0,10.6,0.7,11.2-1.1l-3.9-0.3l6.1-28.9C53.4,79,55.3,80.4,55.7,82.7z"/>
		<path class="st0" d="M92,108.9v-1.2l-3.5-0.1l2.9-14.1c5.3,0.4,3.9,4.5,4.7,6.4c2-0.2,1.4-1.1,2.6-6.6l1.2-5.4
			c0.3-2.1-0.2-1.8-0.3-1.8c-1.8,0.4-1.3,2-3.1,3.8c-1.3,1.3-2.3,2.2-4.8,2.4c0.2-2.2,2.1-12.2,3-13.7c8.1-0.5,9.9,2.9,10.4,10.5
			l1.4-0.4l2.2-11.4H84.2c-1.3,0-2.7,0-4-0.1c-1.8,0-2.5-0.4-3.3,0.8c0.9,0.7,1.9,0.4,3.4,0.5l-6.1,28.9c-1.4,0.4-1.6-0.1-3,0.5
			c-1.4,0.5,0.1-0.6-0.9,0.5C72,109.5,88.6,108.7,92,108.9z"/>
	</g>
</g>
</svg>
