<?xml version="1.0" encoding="utf-8"?>
<!-- Generator: Adobe Illustrator 23.0.3, SVG Export Plug-In . SVG Version: 6.00 Build 0)  -->
<svg version="1.1" id="Livello_1" xmlns="http://www.w3.org/2000/svg" xmlns:xlink="http://www.w3.org/1999/xlink" x="0px" y="0px"
	 viewBox="0 0 184.3 184.3" style="enable-background:new 0 0 184.3 184.3;" xml:space="preserve">
<style type="text/css">
	.st0{fill-rule:evenodd;clip-rule:evenodd;}
</style>
<g id="Layer_x0020_1">
	<g id="_1216681282320">
		<path class="st0" d="M57.8,66.7l1,0.6c10,4.9,4.4,3.6,19.1,3.7c0,0.6-1,2.3-1.4,3.1c-0.5,1.1-0.7,2.3-1.2,3.5
			c-2.8,0.6-55.7-0.4-57,0.2l10.8,5.3c1.4,0.7,3,0.7,4.7,0.8c6.4,0.6,13.4,1.1,19.7,1.9c-0.4,2-1.7,4.6,0.2,8.2
			c1,1.9,2.9,3.9,5.6,4.3c3.3,0.5,5.6-1.2,6.9-3c1.8-2.3,2-4.6,1.5-8.1c9.4,0.5,7.4,0.5,8.8,3.6c2.7,6.3,9,11.3,16.5,11.2
			c7.6-0.1,13.3-5.2,16.1-11.4c0.4-1,0.7-2,1.1-3l7-0.8c-0.5,3.7-0.6,5.8,1.4,8.5c1.3,1.7,3.7,3.6,7.2,2.9c4-0.7,6.5-4.8,6.3-8.9
			c-0.1-1.7-1-3.1-1-3.9c2.7-0.4,22.9-2.3,23.9-2.6c1.1-0.4,2.7-1.2,3.7-1.7c2.1-1,5.4-2.2,7.2-3.4h-55.8c-0.8-3.8-2.1-5.1-2.6-6.6
			c2.3-0.3,10.2,0.3,11.6-0.3l7.9-4.2l-22.7-0.1c-0.3-0.1-3.5-2.9-5.3-3.9c-0.8-0.5-2.5-1-3.1-1.6c-0.4-0.7-2.3-25.1-2.6-28.2
			l-2.1-0.2C91,40.5,90.6,49,90,56.6c-0.5,6.2,0.5,4-2.8,5.7c-1.9,1-3.5,2.2-4.9,3.5C81,67,81.5,66.7,79,66.7
			C72.4,66.7,64,66.4,57.8,66.7z"/>
		<path class="st0" d="M88.3,111.9c-5.2-0.3-11.7,0-17.2,0c-1.7-0.1-1.5-0.1-2.6,0.8c-6.2,4.9-13.1,9.9-19.4,14.9
			c-0.9,0.7-30.2,23-30.9,23.9l59.3-0.1L88.3,111.9z"/>
		<path class="st0" d="M107.2,111.9c-4.4,0-8.9-0.1-13.4,0l10.8,39.5l56.7-0.1l-49-37.8C110,111.9,110.7,111.9,107.2,111.9z"/>
	</g>
</g>
</svg>
