<?xml version="1.0" encoding="utf-8"?>
<!-- Generator: Adobe Illustrator 23.1.0, SVG Export Plug-In . SVG Version: 6.00 Build 0)  -->
<svg version="1.1" id="Livello_1" xmlns="http://www.w3.org/2000/svg" xmlns:xlink="http://www.w3.org/1999/xlink" x="0px" y="0px"
	 viewBox="0 0 184.3 184.3" style="enable-background:new 0 0 184.3 184.3;" xml:space="preserve">
<style type="text/css">
	.st0{fill-rule:evenodd;clip-rule:evenodd;fill:#231F20;}
</style>
<g id="Layer_x0020_1">
	<path class="st0" d="M55.4,112.3c3.7-0.9,7.6,2.2,8.4,5.4c1.1,4.4-2,8.4-5.4,9.1C48.3,128.8,46.3,114.6,55.4,112.3z M125.5,112.5
		c9-2.9,12.6,12.4,3.3,14.2C119.4,128.7,116.2,115.5,125.5,112.5z M58.7,103.8c0.6-2.9,6.4-18.5,7.8-19.9c2.8-2.9,20.3-1.5,25.6-1.5
		c4.8,0,23.2-1.3,25.8,1.9c1.4,1.7,6.7,16.4,7.5,19.5H58.7z M143.3,143.6c-0.2-18.5,3.9-33.1-7-38.7c-2.8-1.5-2.3-0.7-3.5-4
		C121.6,71,126.5,74.6,92,74.6c-6.8,0-24-1.1-28.9,1.6c-5.3,3-7.7,13.2-10.1,19.5c-0.8,2-1.4,3.5-2,5.5c-2,5.6-9,3.2-10.2,12.6
		c-1,7.8-0.1,21.3-0.1,29.7l7.9-0.1c0.6,7.6-1.5,17.6,8.1,17.2c9-0.3,7-9.6,7.7-17.1l55.1,0.1c0.6,7.9-1.4,17.5,8.4,17.1
		c9-0.3,6.7-9.2,7.4-17.1L143.3,143.6L143.3,143.6z"/>
	<path class="st0" d="M58.8,39.5c6.6-3,10.8,7.9,4,10.6C55.6,52.9,51.6,42.7,58.8,39.5z M129.1,53.7c1.9-1.1,9.7-8.2,9.7-10.3
		c0-1.1-5.7-8.9-10.9-9c-13-0.3-26.5,0.1-39.5,0.1c-9.6-15.6-29-13.4-36.7-0.5c-9,15,2.6,32.2,18.3,32.2c10,0,14.6-5.3,18.3-10.7
		c15.4,0.2,7.7-2.8,15.9-6.5l5.1,4.5l4.8-4.3l4.9,4.7l4.7-5.2L129.1,53.7z"/>
</g>
</svg>
