<?xml version="1.0" encoding="utf-8"?>
<!-- Generator: Adobe Illustrator 23.0.3, SVG Export Plug-In . SVG Version: 6.00 Build 0)  -->
<svg version="1.1" id="Livello_1" xmlns="http://www.w3.org/2000/svg" xmlns:xlink="http://www.w3.org/1999/xlink" x="0px" y="0px"
	 viewBox="0 0 184.3 184.3" style="enable-background:new 0 0 184.3 184.3;" xml:space="preserve">
<style type="text/css">
	.st0{fill-rule:evenodd;clip-rule:evenodd;fill:#FFFFFF;}
</style>
<g id="Layer_x0020_1">
	<g id="_1216964566496">
		<path class="st0" d="M76.7,143.6H50.9v-19.3c0-0.7,2.1-5.9,2.1-6.4h78.1c0,0.3,0.4,1.3,0.5,1.6c0.3,0.7,1.6,4.3,1.6,4.8v19.3
			h-25.7l-5.1-10.3l-20.8-0.1L76.7,143.6z M72.2,87h40c3.9,0,7,1.5,9.1,4.3c1.1,1.5,1.3,2.9,2,4.7l1.2,3.3c0.4,1.2,2.9,7.7,2.9,8.3
			H56.9c0.1-0.5,0.4-1.2,0.5-1.6c1-2.9,2.6-7.3,3.6-9.9c0.3-0.6,0.4-1.1,0.6-1.6c0.2-0.6,0.4-1.1,0.6-1.6c0.6-1.3,2-2.8,3.1-3.7
			C67,87.8,69.2,87,72.2,87z M46.5,105.7l-9.3-3.1l-3.3,9.8l9.1,3.1c-0.3,0.6-2.3,6.3-2.3,6.9v31.8c0,2.3,2.4,4.7,4.7,4.7h15.7
			c0.4,0,0.9-1.9,1.1-2.6l0.7-2.1c0.1-0.3,0.1-0.5,0.4-0.5h57.9c0.4,0,0.9,1.9,1.1,2.5l0.7,2.1c0.1,0.3,0.1,0.6,0.4,0.6h15.6
			c2.3,0,4.7-2.4,4.7-4.7v-31.7c0-0.8-0.8-2.8-1.1-3.6l-1.3-3.5l9.1-3l-3.3-9.8l-9.4,3.1l-3.5-9.8c-0.9-2.6-2.4-7.4-3.8-9.5
			c-1.9-2.9-3.7-4.8-6.7-6.7c-2.4-1.5-6.4-3.1-10.3-3.1H71c-4.6,0-9.1,2-12.2,4.4c-2.5,1.9-3.8,3.5-5.5,6.3c-0.7,1.2-1,2.3-1.5,3.6
			L46.5,105.7z"/>
		<path class="st0" d="M76.7,36.2v14c0,0.8-6.5,1.9-9.3-3.3c-2.6-4.7,0.4-10.6,5.5-11.3C73.7,35.5,76.7,35.5,76.7,36.2z M56.1,42.3
			c0,2.5-0.1,3,0.6,5.5c0.4,1.6,1.1,3.2,1.9,4.5c0.8,1.3,0.9,1.4,1.8,2.6c0.8,1,2.3,2.2,3.3,3.1c2.4,1.8,6.6,3.3,9.5,3.3
			c1.8,0,2.8,0.1,4.7-0.4c0.5-0.1,0.8-0.2,1.2-0.3c1.4-0.4,3.2-1.2,4.4-1.9c1.4-0.9,3.3-2.4,4.3-3.7c0.5-0.7,0.9-1.2,1.3-1.8
			c0.3-0.5,1-1.6,1.2-2.1h26c1.4,0,1.4,0.2,1.9-0.5c0.4-0.3,4.7-4.4,4.7-4.8v-4.9c0-0.4-3.4-3.5-3.9-4c-0.3-0.3-1.1-1.3-1.4-1.3
			h-10.1c-0.5,0-4.3,4.4-5.3,5.1c-0.4-0.3-3.7-3.6-4.3-4.2c-0.2-0.2-0.3-0.4-0.5-0.5c-0.3-0.3-0.3-0.3-0.8-0.3h-6.5
			c-0.3-1-1.8-3.1-2.5-3.9c-0.9-1.2-2.9-2.9-4.2-3.7c-2.5-1.5-5.7-2.8-8.6-2.8c-3.7,0-5.2,0.3-8.7,1.7c-0.5,0.2-0.9,0.5-1.3,0.7
			c-4.1,2.4-7.2,6.3-8.3,10.9C56.5,39.6,56.1,41,56.1,42.3z"/>
		<path class="st0" d="M112.7,130.4c0,2.5,0.7,4.3,2.2,5.8c4.5,4.5,13.2,2,13.2-5.8c0-3.9-3.5-7.4-7.4-7.4c-2.5,0-4.3,0.8-5.8,2.2
			C113.9,126.4,112.7,128.3,112.7,130.4z"/>
		<path class="st0" d="M56.1,130.4c0,2.5,0.8,4.3,2.2,5.8c4.5,4.5,13.2,2,13.2-5.8c0-3.9-3.5-7.4-7.4-7.4c-2.5,0-4.3,0.8-5.8,2.2
			C57.2,126.4,56.1,128.3,56.1,130.4z"/>
	</g>
</g>
</svg>
