<?xml version="1.0" encoding="utf-8"?>
<!-- Generator: Adobe Illustrator 23.0.3, SVG Export Plug-In . SVG Version: 6.00 Build 0)  -->
<svg version="1.1" id="Layer_1" xmlns="http://www.w3.org/2000/svg" xmlns:xlink="http://www.w3.org/1999/xlink" x="0px" y="0px"
	 viewBox="0 0 184.3 184.3" style="enable-background:new 0 0 184.3 184.3;" xml:space="preserve">
<style type="text/css">
	.st0{fill:#FFFFFF;}
</style>
<g id="Layer_x0020_1">
	<g id="_2429613230864">
		<path class="st0" d="M68.9,80.4c0.4,0.4,0.2,0,0.9,1.3l12.8,32.6L52.9,114L68.9,80.4z M91.2,108.1c-1.8-2.2-13.1-31.1-14.2-35.3
			h37.1C113.5,76.2,94.3,103.2,91.2,108.1z M107.8,40c-3.2,6.5,2,15.8,3.2,23.2l-36.9,0.2c-1.8-0.5-2.3-3.2-2.9-4.5
			c4.1-1.6,7.9-0.9,8.6-5.4c-3.4-2.3-27.4-2-30.6-0.4c-1.6,3.8-0.5,7.7,0.9,10.8c5,0.9,7-0.9,11.3-2.2c4.7,4.7,1.3,9-1.1,14.2
			l-13.9,29.2c-11.3,22.7-8.1,18.2,35.6,18.2c13,0,9,1.4,23.6-20.3c3.8-5.8,8.3-11.9,11.9-17.5l13.9,28.8c1.8,3.4,3.8,5.6,5.8,8.6
			l5.9-0.4c2.9-6.5,0-6.5-5.6-17.3c-7.7-14.9-17.8-40.1-20-57.1c5.9,0.2,11.3-1.8,15.1-4.3c2.3-1.6,9-7.7,4-11.5
			c-4.9-3.6-7.9,3.2-11.9,5C118.8,40,112.8,38.4,107.8,40z"/>
		<path class="st0" d="M115.5,96.6l-3.4,4c-19.1,27.9,11.2,64.6,43.7,48.2c11.2-5.6,22-21.6,15.7-40.1c-4-11.7-18.2-26.6-35.8-22.9
			c0.4,2.3,1.8,5.4,2.9,7.7c1.8,4.9,2.3,2.5,7.7,4.1c28.6,7.9,16.4,52.6-13.3,43.6c-12.4-3.8-18.7-17.5-14.8-28.8
			C119.1,109.2,123.3,108.3,115.5,96.6z"/>
		<path class="st0" d="M76.3,129.7c-17.5-0.2-7.7-0.9-17.8,7.4c-16.7,13.9-45-5.2-33.3-28.8c3.6-7.4,9.5-10.1,19.1-11.9l4.5-10.4
			c-25.4-5-49.3,26.1-32,51.5C33.4,161.7,68.9,153.6,76.3,129.7z"/>
		<path class="st0" d="M64,107.4c3.6,1.1,8.3,0.7,12.1,0.4c-1.4-5.2-4.5-10.3-8.1-12.6C66.4,97.6,63,103.6,64,107.4z"/>
	</g>
</g>
</svg>
