<?xml version="1.0" encoding="utf-8"?>
<!-- Generator: Adobe Illustrator 23.0.3, SVG Export Plug-In . SVG Version: 6.00 Build 0)  -->
<svg version="1.1" id="Layer_1" xmlns="http://www.w3.org/2000/svg" xmlns:xlink="http://www.w3.org/1999/xlink" x="0px" y="0px"
	 viewBox="0 0 184.3 184.3" style="enable-background:new 0 0 184.3 184.3;" xml:space="preserve">
<style type="text/css">
	.st0{fill:#010100;}
</style>
<g id="Layer_x0020_1">
	<g id="_2429622822608">
		<path class="st0" d="M70.8,128.5c0-1.1,1.3-2.2,2.3-2.2h38c3.1,0,3.1,4.3,0,4.3h-38C71.9,130.6,70.8,129.5,70.8,128.5z
			 M134.9,130.6c-4.5,0-8.6-4-8.6-8.6c0-8.6,12.1-12.1,16.2-3.6C145.3,124.1,140.6,130.6,134.9,130.6z M49.4,130.6
			c-4.5,0-8.5-4-8.5-8.6c0-8.6,12.1-12.1,16.2-3.6C59.8,124.1,55.1,130.6,49.4,130.6z M69.4,117.8h45.9c3.1,0,3.1,4.3,0,4.3H68.8
			C65.9,122.2,65.4,117.8,69.4,117.8z M67.6,70.7h49.5c7,0,11.9,4.3,14.2,11l4.7,14c0.5,1.3,1.4,3.6,1.6,4.9H46.9
			c0.2-1.3,1.1-3.4,1.4-4.7c0.5-1.8,1.1-3.1,1.6-4.9c2.3-7.2,3.2-12.8,7.9-17.1c1.1-0.9,2.7-1.6,4.1-2.2
			C63.6,71.2,65.6,70.7,67.6,70.7z M46.3,87.8c-4.1,0-7.2-0.5-9.9,1.1c-7.7,4.5-3.6,15.1,1.6,15.5c-0.4,1.3-5.9,5-5.9,12.2v18.7
			c0,1.6,0.7,2.3,1.4,3.4c0.7,0.9,2,1.6,2.9,2.2c0,2.2-0.4,15.5,0.4,17.1c0.5,1.3,2,2.5,3.4,2.5h13.9c2.7,0,3.8-2.5,3.8-5
			c0-3.1,0-6.1,0-9l11.5,0.9c1.8,0.2,4,0,5.9,0.2c1.6,0.2,35.3,0.4,39.4-0.2c1.4-0.2,4.3-0.4,5.8-0.4c2.2-0.2,4.1-0.2,5.9-0.5
			c0,2.9,0,5.9,0,8.8c0,2.5,0.9,5.2,3.8,5.2h13.9c0.7,0,1.4-0.4,2-0.7c2.3-1.6,1.8-4.1,1.8-7c0-4,0-7.7,0-11.7
			c1.6-1.1,4.3-2.9,4.3-5.4v-18.9c0-2.5-1.1-5.4-2-7c-2-3.4-3.6-4.1-3.8-5.2c1.6-0.2,3.2-1.6,4-2.5c3.1-4,2.3-10.1-2.3-12.8
			c-2.7-1.6-5.8-1.3-10.1-1.3c-1.6-3.4-2.2-9.4-5.9-14.4c-2.5-3.2-8.1-7-13.5-7H65.9c-6.7,0-12.8,4.7-15.5,10.1
			c-1.3,2.5-1.8,4.7-2.7,7.4L46.3,87.8z"/>
		<path class="st0" d="M53.5,43c0-1.6,1.1-3.6,2-4.5c2.5-2.5,6.5-2.5,9,0c5.9,5.9-3.1,14.9-9,9C54.6,46.6,53.5,44.6,53.5,43z
			 M45.1,41.7c0,4.1,0,5.8,1.8,9.4c0.9,2,1.3,2.5,2.7,4.3c1.8,2.2,0.5,0.9,2.3,2.2c7.6,6.7,19.4,5.9,25.9-0.7l2.5-3.2
			c3.2,0,6.7,0,9.9,0s3.4-2.2,6.1-4l4.3,4.1l4.3-4.1l4.3,4.1l4.3-4.1l4.3,4.1l4.3-4.1l4.3,4.1l13-12.8c-0.5-0.9-7.9-8.3-8.5-8.5
			c-0.9-0.4-47.2-0.2-50.4-0.2c-3.1-4.7-8.8-8.6-14.8-8.6h-0.2c-4,0-5.6,0-9.2,1.8C49.9,28.4,45.1,34.9,45.1,41.7z"/>
	</g>
</g>
</svg>
