<?xml version="1.0" encoding="utf-8"?>
<!-- Generator: Adobe Illustrator 23.0.3, SVG Export Plug-In . SVG Version: 6.00 Build 0)  -->
<svg version="1.1" id="Layer_1" xmlns="http://www.w3.org/2000/svg" xmlns:xlink="http://www.w3.org/1999/xlink" x="0px" y="0px"
	 viewBox="0 0 184.3 184.3" style="enable-background:new 0 0 184.3 184.3;" xml:space="preserve">
<style type="text/css">
	.st0{fill:#FFFFFF;}
</style>
<g id="Layer_x0020_1">
	<path class="st0" d="M80.9,77.8L22,109.7c-10.3,5.6-9.4,5.4-9,14.2c5.6,0.5,26.6-5.4,34-7.2c13-3.2,22.3-6.3,34.2-8.1
		c-0.7,14.8,1.3,31.5,0.7,45.2c-10.6,6.7-14.8,5.6-16.9,16l50.8,1.1c3.2-12.1-4.7-10.3-16.6-18.9c0-23.8,1.3-25.2,3.1-43.2
		c14.2,0.2,47.3,10.8,61.2,12.8c10.1,1.4,4.5,1.8,7.9-1.3c0-12.8-10.3-12.2-31.1-23.4c-13.3-7-25.4-13-38.5-19.8
		c-2-13,4.3-55.4-9.2-63.5c-5.6,2.2-8.3,7-9.4,13.7C80.9,40.2,83.4,64.1,80.9,77.8z"/>
</g>
</svg>
