<?xml version="1.0" encoding="utf-8"?>
<!-- Generator: Adobe Illustrator 23.0.3, SVG Export Plug-In . SVG Version: 6.00 Build 0)  -->
<svg version="1.1" id="Layer_1" xmlns="http://www.w3.org/2000/svg" xmlns:xlink="http://www.w3.org/1999/xlink" x="0px" y="0px"
	 viewBox="0 0 184.3 184.3" style="enable-background:new 0 0 184.3 184.3;" xml:space="preserve">
<style type="text/css">
	.st0{fill:#FFFFFF;}
</style>
<g id="Layer_x0020_1">
	<path class="st0" d="M138.7,171.7l-93.2,0.2L52,165c3.6-3.6,5.6-2.7,11.7-2.7h55.8C129.9,162.1,130.3,161.8,138.7,171.7z
		 M58.8,130.1l2.9-2.2l7.4-0.2l9,0.7c6.3,14.4-9.4,12.6-18.7,10.4L58.8,130.1z M124.5,159.1h-65c2.3-4.3,5.9-6.8,11.5-7
		c6.7-0.2,13.9,0,20.5,0.2C105.1,152.1,118.9,149.2,124.5,159.1z M105.6,129.4c3.8-1.6,9.4-2.2,14.9-1.6c7,0.7,5.8,5.6,4.7,10.8
		c-3.6,1.3-9.9,1.8-15.1,1.1C104,138.9,104.3,134.8,105.6,129.4z M56.1,67.1l72-0.4v48.6l-71.6,0.5L56.1,67.1z M71.4,51.3
		c-5.6-12.6,7.7-11.5,16-11.5c7,0,23.4-2.5,25.7,3.2c5.2,12.8-7.7,11.2-16,11.2C90.3,54.1,73.7,56.7,71.4,51.3z M71.6,10.4h41.2
		c-1.1,2.3-2.7,4.3-4.3,6.3c-2.5,3.1-2.9,4.3-4.7,6.5H80.4L71.6,10.4z M107.6,21.9c1.4-0.9,10.3-9.7,9.2-14
		C109,5.4,89.4,7.2,79.7,7.2c-7,0-16.2-2.2-11.5,5c1.3,1.8,6.8,8.6,8.5,9.7c-4.1,5.4-3.4-1.8-6.5,10.8c-14,1.4-23.4,1.6-25.2,15.7
		l-0.2,81.2c0,16.2,3.2,18,16.2,22.9l-13,11.7c-3.1,2.5-11.3,8.5-12.4,12.4c4.3,2.2,1.6,0.5,5.4-0.9c4-1.4,85.3-0.9,96.8-0.7
		c8.6,0.2,6.3,4,10.8,1.6c-1.4-4.3,0.2-0.5-6.1-7c-2.5-2.7-4.3-3.2-7-5.9l-12.4-11.5c13.5-2.9,16.6-8.8,16.4-23.8
		c0-13.7,0-27.2,0-40.7c0-46.4,5.8-51.8-25.4-55.1c-0.7-2.9,0.2-3.6-1.6-6.5c-1.8-2.9-4-2.9-4.3-3.8
		C108.1,22.1,107.8,22.1,107.6,21.9z"/>
</g>
</svg>
