<?xml version="1.0" encoding="utf-8"?>
<!-- Generator: Adobe Illustrator 23.0.3, SVG Export Plug-In . SVG Version: 6.00 Build 0)  -->
<svg version="1.1" id="Layer_1" xmlns="http://www.w3.org/2000/svg" xmlns:xlink="http://www.w3.org/1999/xlink" x="0px" y="0px"
	 viewBox="0 0 184.3 184.3" style="enable-background:new 0 0 184.3 184.3;" xml:space="preserve">
<style type="text/css">
	.st0{fill:#FFFFFF;}
</style>
<g id="Layer_x0020_1">
	<g id="_2429613250032">
		<path class="st0" d="M25.1,95.3v46.4c0,1.3,0.4,2.2,1.1,2.7c0.2-0.9,1.4-2,2-2.7c10.8-14.2,22.3-30.1,33.1-44.5
			c2-2.5,1.6-1.6,1.6-5.9c0-10.4-0.7-16.6,4.3-25.7c11.2-20.2,40.5-20.3,50.6,2c6.7,14.4,1.8,25,4.3,28.4c0.7,1.1,1.4,2,2.2,2.9
			c5.6,7.4,13.9,18.2,18.9,25.4l13.9,18.7c0.5,0.7,0.5,0.9,1.1,1.4c0-1.8,0.9-2.5,0.9-4.1V97.8c0-16.4-6.5-33.5-15.5-45.9
			c-1.3-1.8-2.5-3.2-4-4.9c-4.1-4.9-8.6-8.6-14-12.2c-1.1-0.7-1.6-1.1-2.7-1.8l-5.8-2.9c-1.1-0.5-2-0.9-3.1-1.3
			c-2.2-0.9-4.5-1.6-6.7-2.2c-18.7-5.2-39.4,0-53.6,11.2l-6.8,5.8c-4.1,4.1-8.1,9.5-11.2,14.6l-4.3,8.6
			C28.2,74.4,25.1,84.6,25.1,95.3z"/>
		<path class="st0" d="M86.9,136.3h11.5v15.8H86.9V136.3z M86.9,115.1c1.8,0,2-0.4,3.6-0.4c1.4,0,2,0.4,3.1,0.4
			c6.1-0.2,4.9-2.9,4.9,10.3H86.9C86.9,125.3,86.9,115.1,86.9,115.1z M34.1,157c1.4,1.1,3.1,1.8,5,2.2c3.1,0.9,4.9,0.4,6.7,0.4
			c1.4,0,1.8,0.2,2.9,0.2s1.3-0.2,2.9-0.2c1.4,0,1.8,0.2,2.9,0.2s1.3-0.2,2.7-0.2s1.8,0.2,2.9,0.2s1.3-0.2,2.9-0.2
			c1.4,0,1.8,0.2,2.9,0.2s1.3-0.2,2.7-0.2c1.4,0,1.8,0.2,2.9,0.2c1.1,0,1.3-0.2,2.7-0.2c1.4,0,1.8,0.2,2.9,0.2
			c1.1,0,1.3-0.2,2.9-0.2c1.4,0,1.8,0.2,2.9,0.2c1.1,0,1.3-0.2,2.7-0.2c1.4,0,1.8,0.2,2.9,0.2c1.1,0,1.3-0.2,2.9-0.2
			c1.4,0,1.8,0.2,2.9,0.2c1.1,0,1.3-0.2,2.7-0.2c1.4,0,1.8,0.2,2.9,0.2c1.1,0,1.3-0.2,2.7-0.2s1.8,0.2,2.9,0.2s1.4-0.2,2.9-0.2
			s1.8,0.2,2.9,0.2s1.3-0.2,2.7-0.2c1.4,0,1.8,0.2,2.9,0.2c1.1,0,1.3-0.2,2.9-0.2c1.4,0,1.8,0.2,2.9,0.2c1.1,0,1.3-0.2,2.7-0.2
			c1.4,0,1.8,0.2,2.9,0.2c1.1,0,1.3-0.2,2.9-0.2c1.4,0,1.8,0.2,2.9,0.2c1.1,0,1.3-0.2,2.7-0.2c1.6,0,2.5,0.4,4,0.2
			c1.6-0.2,8.6,0.5,11-2.9l-34.6-45.7c-0.4-0.5-0.5-1.4-1.4-1.4h-45c-1.1,0-0.2-0.2-0.7,0.4l-10.4,14.2c-0.7,1.1-1.6,2-2.3,3.1
			l-17.5,23.8c-0.7,1.1-1.3,1.8-2.2,2.9C35.6,154.7,34.3,156.1,34.1,157z"/>
	</g>
</g>
</svg>
