<?xml version="1.0" encoding="utf-8"?>
<!-- Generator: Adobe Illustrator 23.0.3, SVG Export Plug-In . SVG Version: 6.00 Build 0)  -->
<svg version="1.1" id="Livello_1" xmlns="http://www.w3.org/2000/svg" xmlns:xlink="http://www.w3.org/1999/xlink" x="0px" y="0px"
	 viewBox="0 0 184.3 184.3" style="enable-background:new 0 0 184.3 184.3;" xml:space="preserve">
<style type="text/css">
	.st0{fill-rule:evenodd;clip-rule:evenodd;}
</style>
<g id="Layer_x0020_1">
	<g id="_1216683795008">
		<path class="st0" d="M111.9,109.1l-0.1-5.8c-7,4.2-13.5,8-24.7,6.1c-27.2-4.6-38.6-37.2-19.8-58.2c16.7-18.7,52-9.8,56.9,19.3
			c1.5,9-0.9,20.2-5.8,25.4c1.5,1.1,3.3,1.3,4.6,2.9c1.6,1.8,1.1,2.1,1.7,4.6c0.1,0.2,0.2,0.4,0.2,0.5l0.4,1
			c17.1-6.5,15.6-12.9,9.6-28.1c-4.3-10.9-8.6-22-12.9-33c-10.5-27-12.8-21.3-58.9-3.2C35,51.5,39.5,51.9,57.8,98.5
			c4,10.3,7.1,26.5,21.1,24.2c3.3-0.6,19.7-7.4,25.1-9.5C106.3,112.2,110.7,111.5,111.9,109.1z"/>
		<path class="st0" d="M80.8,57.5l3.4-1.5l6.7,17.3c5.7-1,11.4-5.5,16.6-5.3l0.9,3.2c-2.1,1.9-6.3,3-9.4,4.1
			c-3,1.1-7.2,3.3-10.2,3.1C87.5,76.8,81.1,60.4,80.8,57.5z M85.2,46.2c-40.3,9.8-22.2,66.9,12.4,58.6
			C137.1,95.3,119.8,37.8,85.2,46.2z"/>
		<path class="st0" d="M99.6,122.5c-1.7,4.9,11.1,20.7,14.3,26c1.2,2.1,1.7,3,3.3,4.9c9.7,12.4,25.8,9.4,32-1.4
			c3.4-5.9,4.6-22,1.1-27.3h-3.8c-1.3,1.8-1.3,1.8-1.9,4.4h-2.4l-0.5-7.7c-1.4-1.7-3.4-3-5.5-1.4c-1.9,1.5-1.7,3.9-1.7,6.5H132
			c0-4,1-11.3-4.8-9.8c-4.2,1-2.8,8.5-2.8,12.3H122c0-7.3,1.1-23.7-1-29.2c-11.4-4.2-4.6,14.3-6.8,31
			C112.3,128.6,104.6,120.3,99.6,122.5z"/>
		<path class="st0" d="M107.9,144.1l-4.1-5.7c-19.5,3.1-38.6-1.4-51-15.6c-5-5.7-9.7-11.9-12.6-21.5c-2.4-8.1-3.4-21.7-0.4-29.7
			c2.5,3.9,6.8,16.5,8.8,21.9c3,7.7,5.8,14.8,8.9,22.6c3.2,8.3,6,14.8,15.9,15.4c9.2,0.5,19.6-8.6,23.1-6.1L97,121
			c-2.3-1.1-14.6,8.9-25.6,5.2c-9.9-3.3-11.5-10.5-15.1-19.6c-3.3-8.3-6.4-16.5-9.7-24.8c-3.4-8.6-8.1-16-7.4-26.7L33.6,71
			c-4.6,18.7,0,37.8,11.1,51.8c5.9,7.4,13.9,14.5,25.2,18.8C87,148,93.1,145.4,107.9,144.1z"/>
		<path class="st0" d="M127.4,45.3l0.1-0.2c8.2,4.2,16.1,20.4,18.1,31.7c3,17.7-2.5,28-9,40.1c3.3-0.5,3.6-0.1,6.1,1.1
			c13.9-16.5,13-50.7-3.5-70.3c-4.4-5.3-9.8-10.4-15.8-13.8l-0.9-0.6c0.7,2.2,1.5,4,2.3,6.2c0.5,1.1,0.6,1.7,1,2.8
			C126.5,44.3,125.9,44,127.4,45.3z"/>
		<path class="st0" d="M54.6,38.9c2.7-3.4,10.5-7.6,14.9-9.3c6-2.3,12.3-3.8,19.1-4.3c2.3-0.2,4.8-1.2,6.4-2.3
			C74.3,21.1,52.7,33,45.3,43.4C48.5,41.4,51,40.5,54.6,38.9z"/>
		<path class="st0" d="M106.6,121.3c0.2-2.2-0.2-1.2,2.1-2.2c1.1-0.5,2.2-0.7,3.4-1l-0.4-3.2c-3.6,1.6-7.2,2.2-9.4,4.2
			C104.1,119.7,105.2,120.4,106.6,121.3z"/>
		<path class="st0" d="M124.5,112.9c3.8-1,7.9-2.9,9.7-6.6c-2.9,0.8-7.6,2.3-9.6,4L124.5,112.9z"/>
		<path class="st0" d="M106.6,121.3c2.9,1.2,3,2.2,5.3,3.5l0.2-6.7c-1.2,0.3-2.2,0.5-3.4,1C106.4,120.1,106.7,119,106.6,121.3z"/>
	</g>
</g>
</svg>
