<?xml version="1.0" encoding="utf-8"?>
<!-- Generator: Adobe Illustrator 23.0.3, SVG Export Plug-In . SVG Version: 6.00 Build 0)  -->
<svg version="1.1" id="Livello_1" xmlns="http://www.w3.org/2000/svg" xmlns:xlink="http://www.w3.org/1999/xlink" x="0px" y="0px"
	 viewBox="0 0 184.3 184.3" style="enable-background:new 0 0 184.3 184.3;" xml:space="preserve">
<style type="text/css">
	.st0{fill-rule:evenodd;clip-rule:evenodd;}
</style>
<g id="Layer_x0020_1">
	<path class="st0" d="M62.5,84.7c-1.8-0.5-17.3-0.4-19.6-0.2l-0.1,6.9L55,91.5c-0.9,5.4-7.2,10.1-14.1,9.1
		c-14.3-2.2-14.1-23.4,0.3-25.3c8.4-1.1,9.1,4.2,13.1,4.3c1.9,0.1,4.1-0.1,6.1-0.1c-0.5-3.7-6.2-8.1-9.3-9.5
		c-15.6-7.1-32.4,7.8-26.9,24.1C31.1,115.2,65.2,110.9,62.5,84.7z M101.1,100.2c-0.9,0.9-3.2,0.3-5.9,0.6l0.1,6.9l5.9-0.2
		c7.4-1.2,12.5-6.2,14-13.2c0.8-3.5-0.3-10.1,0.7-12.9c1.2-3.3,4.1-6,7.8-6.1c0.8-0.7,0.9-0.5,2.3-0.5c0.8,0,1.6,0,2.3,0v-6.4h-5.1
		c-6.6-0.8-13.1,6.7-14.3,12.3c-0.9,4.1,0.2,9.2-0.8,12.8C107.3,96.9,104.2,100.3,101.1,100.2z M141.9,107.7l6.5,0.1l0.1-32.5
		l11.1-0.1c0.7-2,0.4-4.5,0.4-6.7h-30l-0.1,6.4l11.4,0.1C142.7,78.4,141,101.4,141.9,107.7z M73.7,107.4c6.2-0.4,13.7,0.6,20.3,0.1
		v-6.5H76c-2.6,0-1.9-0.3-2.2-0.5c-1.5-0.5-2.4-1.5-2.9-3c-0.1-0.1-0.2-0.3-0.2-0.3c-0.1-0.1-0.2-0.3-0.2-0.4
		c-0.5-1.2,0,0.4-0.3-0.7l0.3-4.8l23.3-0.1l0.1-6.3c-4.5-0.4-21,0.6-23.5-0.4c-0.3-1.2-0.5-3.2-0.2-4.5c0.2-0.7,0.4-0.9,0.6-1.1
		c1.3-6.6,13.7-2.1,23.4-3.8l0.1-6.7c-3.9-0.4-15.9-0.4-19.7-0.1c-5.2,0.5-9.5,4-10.7,9.3c-0.5,2-0.4,16.9-0.2,19.7
		C64.1,102.2,68.6,107.5,73.7,107.4z"/>
</g>
</svg>
