<?xml version="1.0" encoding="utf-8"?>
<!-- Generator: Adobe Illustrator 23.0.3, SVG Export Plug-In . SVG Version: 6.00 Build 0)  -->
<svg version="1.1" id="Livello_1" xmlns="http://www.w3.org/2000/svg" xmlns:xlink="http://www.w3.org/1999/xlink" x="0px" y="0px"
	 viewBox="0 0 184.3 184.3" style="enable-background:new 0 0 184.3 184.3;" xml:space="preserve">
<style type="text/css">
	.st0{fill-rule:evenodd;clip-rule:evenodd;fill:#1D1D1B;}
</style>
<g id="Layer_x0020_1">
	<path class="st0" d="M92,72.6c0.9,3.9,4.8,30.2,5.6,31.4c0.8,1.2,2,2.3,1.8,5.4c-0.2,3.8-3.5,7-7.6,7c-5.4-0.1-8.8-5.6-6.7-10.5
		c1.5-3.4,1,1,2.5-8.4C88.1,94.1,91.3,74.6,92,72.6z M115.3,104.2c1.9,0.7,3.7,2.3,5.6,3L120,109l-5.5-3.2L115.3,104.2z M68.5,103.9
		l1,1.7l-6.1,3.4c-0.3-0.9-0.6-0.9-0.8-1.8L68.5,103.9z M118.6,90.6h6.3l-0.1,2h-6.2L118.6,90.6z M62.3,90.6h2l1.2,0.1v1.8l-2.9,0.1
		h-2.2l-1.8-0.1l-0.1-1.8L62.3,90.6z M119.8,74.3c0.2,0.2,0.2,0.1,0.4,0.4l0.7,1.2l-5.5,3.1c-0.4-0.8-0.6-0.8-0.8-1.7L119.8,74.3z
		 M63.2,74.2c1.9,0.6,4.2,2.6,6.1,3.3c-0.3,0.9-0.5,1-0.8,1.9l-6-3.6L63.2,74.2z M90.7,58.3l1.7,0.1c0.3,0.4,0.2-0.1,0.3,0.7
		c0.1,0.1,0.1,0.6,0.1,0.8l-0.1,5.2L90.6,65l-0.1-6.2C90.6,58.6,90.7,58.5,90.7,58.3z M104.2,68c0.5-1.3,2.4-4.3,3.1-5.6
		c0.6,0.2,0.2,0,0.9,0.4l0.8,0.6l-3.1,5.5L104.2,68z M76,62.4c0.9,1.8,2.7,4.2,3.3,6l-1.7,0.8l-3.3-5.9L76,62.4z M58.6,120
		c-1.7-1.5-4.9-6.9-6.2-9.7c-5.9-13.1-4.8-25.7,0.9-38.1c1.8-3.8,4-6.4,6.5-9.4c6.8-8.3,20.2-14.4,32.6-14.2
		c28.2,0.4,46.7,25.5,42.8,50.3c-1,6.4-3.2,11.9-6.5,17c-0.6,1-2.4,3.7-3.5,4.3c-0.7-1.2-3.9-3.9-4.9-5.2c3.5-4.5,6.9-10.5,7.8-18.2
		c1.1-9.4-1.2-18.4-6.3-25.5c-2.7-3.7-5.7-6.8-9.7-9.5c-26.9-17.5-60,5.6-55.8,35c0.7,5,2.4,10.2,5.1,14.3c0.6,1,2.3,3.1,2.6,3.8
		c-0.8,0.9-1.7,1.7-2.6,2.6C59.8,118.8,59.5,119.6,58.6,120z M87.9,155.5h7.9c2.5-0.9,9.7,0.3,23.6-6.1c14-6.4,22.7-16.3,29.7-29.3
		c2.4-4.4,4.6-11.5,5.5-16.7c0.3-1.4,0.6-5.3,0.9-6.2V86.3c-1.1-2.6,0.1-8.6-6.8-22.8c-8.5-17.7-26.8-30.9-46.5-33.9
		c-1.4-0.3-5.4-0.5-6.3-0.8h-7.3c-0.9,0.3-5.3,0.6-6.8,0.9c-30.5,5-52.9,31.5-53,62.3c-0.1,30.7,22.2,57.7,52.6,62.8
		C83,154.9,86.7,155,87.9,155.5z"/>
</g>
</svg>
