<?xml version="1.0" encoding="utf-8"?>
<!-- Generator: Adobe Illustrator 23.0.3, SVG Export Plug-In . SVG Version: 6.00 Build 0)  -->
<svg version="1.1" id="Livello_1" xmlns="http://www.w3.org/2000/svg" xmlns:xlink="http://www.w3.org/1999/xlink" x="0px" y="0px"
	 viewBox="0 0 184.3 184.3" style="enable-background:new 0 0 184.3 184.3;" xml:space="preserve">
<style type="text/css">
	.st0{fill-rule:evenodd;clip-rule:evenodd;}
</style>
<g id="Layer_x0020_1">
	<g id="_1216675745024">
		<path class="st0" d="M117.4,120.2c9.4-3.3,12.8,10.3,4.7,13C113.1,136.3,109.1,123,117.4,120.2z M62.1,120.2
			c9.4-3.3,12.8,10.3,4.7,13C57.8,136.3,53.9,123,62.1,120.2z M74.3,107.9l-3.3,0.8l0.3-16.9l41.8,0.2l-0.1,16.7l-2.6-0.5
			c-0.1-0.2-0.4-0.2-0.5-0.3c-6.1,0.3-12-1.8-18.2-1.7C85.9,106.3,80.1,108.2,74.3,107.9z M126.1,161c7.7-5.6,22.6-34.5,20.9-48.1
			l-19.5-2.8c-1.2-1.4-0.2,0.7-0.7-1.5l-0.4-30.2H99.1v-6.8l-13.8,0.1l-0.2,6.7H57.7c0,5.5,0,10.9,0,16.3c0,3.7,1.1,12.7-0.9,15.7
			l-19.5,2.8c-1.1,8.9,3.2,20.8,6.3,27.6c4.8,10.6,10.2,14.8,13.5,20.3c6-2.2,8.2-6.6,17.8-6.7c6-0.1,14.2,3.3,16.7,6.7
			c5.9-2.5,8.6-6.7,17.9-6.6C115.3,154.5,123.4,157.7,126.1,161z"/>
		<path class="st0" d="M85.3,43.9l-9.9-0.1c2.9,5.1,12.2,11.8,16.2,17c2.8-1.2,15.7-14.2,17.3-17L99,43.9V23.2l-13.9-0.1L85.3,43.9z
			"/>
	</g>
</g>
</svg>
