<?xml version="1.0" encoding="utf-8"?>
<!-- Generator: Adobe Illustrator 23.0.3, SVG Export Plug-In . SVG Version: 6.00 Build 0)  -->
<svg version="1.1" id="Livello_1" xmlns="http://www.w3.org/2000/svg" xmlns:xlink="http://www.w3.org/1999/xlink" x="0px" y="0px"
	 viewBox="0 0 184.3 184.3" style="enable-background:new 0 0 184.3 184.3;" xml:space="preserve">
<style type="text/css">
	.st0{fill:none;}
	.st1{fill-rule:evenodd;clip-rule:evenodd;fill:#B5044A;}
</style>
<g id="Layer_x0020_1">
	<line class="st0" x1="197.4" y1="47.8" x2="362" y2="75.1"/>
	<g id="_1216886440576">
		<path class="st1" d="M4.1,61H2.6c-0.4,0.2-1,0.3-1.5,0.5c-6,2.4-10.6,11.8-12.1,18c-1.2,4.9-0.8,9.6,0,14.5
			c0.4,2.6,2.3,11.1,3.5,12.6c0.4-0.6,0.8-2,1.3-2.7c0.6-1,1.1-1.6,1.7-2.3c1.2-1.5,2.4-2.9,3.6-4.4c2.2-2.9,4.5-5.9,6.1-10.1
			c2-5.3,4-18.5,1.2-24.2c-0.3-0.5-0.6-0.8-0.9-1.1C4.9,61.3,4.6,61.4,4.1,61z"/>
		<path class="st1" d="M-8.3,109.8c-1.5-3.8-2.6-4.5-4.1-9.9c-2-7.1-2.4-17.9-0.9-25.2c0.6-2.6,1.6-5.6,2.6-8c0.3-0.8,0.8-1.7,1-2.5
			c-4,0.8-9.5,4.8-11.9,8.1c-2.9,3.9-4.9,8.9-4.7,15.3c0.3,6,2.4,11.1,5.4,14.6C-17.9,105.6-13,108.9-8.3,109.8z"/>
		<path class="st1" d="M-32.4,99v2.6c0.2,0.5,0.3,1.5,0.4,2.1c0.2,0.7,0.4,1.3,0.6,1.9c0.5,1.2,1.1,2.3,1.8,3.3
			c4.1,5.7,11.1,8.1,17.9,5.4c1.1-0.4,2.7-1.2,3.3-1.9c-1.4-0.8-5.2-0.3-10.9-5c-0.3-0.3-0.4-0.5-0.7-0.7c-0.9-0.8-1.2-1.2-1.9-1.9
			c-1.5-1.5-3.5-4.3-4.4-6.2c-1.7-3.5-1.5-4.8-2.2-8.3c-1.6,1.5-2.7,3.8-3.4,6.1C-32.1,97.1-32.2,98.5-32.4,99z"/>
		<path class="st1" d="M57.9,97.4c-0.1,1.9,0.2,4,0.2,6.1c0,1.8-0.3,4.3-0.2,6.1c0.6,0.1,3.6,0.2,3.9-0.1c0.3-0.3,0.2-0.3,0.2-1.2
			l-0.1-4.3c0-1.9-0.6-4,1.7-4c2.9-0.1,0.9,5.9,1.5,9.5c0.5,0.1,3.4,0.2,3.8,0c0.4-0.3,0.2-5,0.2-5.4c-0.1-1.9-0.6-4,1.5-4.1
			c2.2-0.1,1.7,2.1,1.7,4l-0.1,4.2c0,1.6-0.2,1.4,1.9,1.4c0.7,0,1.4,0.1,2,0c0.3-0.5,0-10.1-0.2-10.8c-0.8-2.4-3.7-2.7-5.7-1.8
			c-0.6,0.3-1.5,0.9-1.9,1c-1-0.9-1.1-1.5-3.1-1.4c-1.7,0.1-2.2,0.6-3.5,1l-0.1-1.1L57.9,97.4z"/>
		<path class="st1" d="M-28.8,114.1c-0.5,3.3,2.1,6.8,3.5,8.2c1.8,1.7,4.6,3.4,8.3,3.6c1.9,0.1,3.5-0.3,4.9-1.1
			c2.6-1.3,4.6-3.4,5.7-6.2c0.4-1,0.9-3.9,0.6-5c-0.3,0.1-1.9,1.5-2.2,1.7c-0.8,0.6-1.6,1-2.6,1.5c-1.9,0.9-4.2,1.3-6.5,1.4
			C-22.9,118.5-25.1,116.8-28.8,114.1z"/>
		<path class="st1" d="M83.8,100c1.7-0.6,2.9,1,3.1,2.4c0.3,1.7-0.6,3.4-1.8,3.8C81.7,107.2,80.7,101,83.8,100z M87.3,108.2
			c0.3,0.5-0.1,0.7,0.1,1.1l0.1,0.3c0.4,0.2,3.2,0.2,3.6,0c0.2-0.1,0.2-0.4,0.2-0.7l-0.1-2.3c0-1,0-2.1,0-3.2
			c-0.1-1.8,0.1-4.5-0.1-6.2c-0.6-0.2-3.1-0.7-3.7-0.6l-0.1,1.6c-0.8-0.4-0.9-1.3-2.7-1.6c-1.4-0.3-2.6,0.2-3.6,0.7
			c-5.3,2.9-3.7,13.1,3.4,12.6C86,109.7,86.7,109,87.3,108.2z"/>
		<path class="st1" d="M27,100c1.6-0.3,2.8,1.2,3,2.7c0.2,1.8-0.8,3.4-2.2,3.7C24.3,107,23.5,100.6,27,100z M26,96.7
			c-3.1,0.7-5.7,3.8-4.9,7.9c0.6,3.2,3.7,6,7.7,5.1c3.1-0.7,5.6-4,4.8-7.9C33.1,98.6,30,95.8,26,96.7z"/>
		<path class="st1" d="M47.7,102.2c-0.1-1.2,0.9-2.1,2-2.2c1.3-0.2,2.3,0.8,2.3,1.9C51.3,102,48.2,102.4,47.7,102.2z M55.4,108.5
			c-0.1-0.5-0.9-2.4-1.2-2.8c-0.5,0-1.1,0.4-1.6,0.6c-2,0.6-4.5,0-4.7-1.4c1.9-0.3,4.1-0.4,6.2-0.6c1.2-0.1,1.9-0.1,2-1.4
			c0.1-1.1-0.2-2.1-0.5-3c-0.6-1.5-1.8-2.7-3.6-3.2c-3.6-1-7.3,1.1-7.9,5c-0.6,3.7,1.9,7.4,5.7,7.7
			C51.1,109.6,54.3,109.3,55.4,108.5z"/>
		<path class="st1" d="M-9.8,129.1H-7c0.8-0.4,3.3-0.3,6-1.8c4.7-2.7,3.7-9.9-0.2-12.9c-0.7-0.5-1.5-1.1-2.5-1.4
			c0.2,2.2,0.5,3.4-0.1,5.7c-0.4,1.6-1.2,3.1-2,4.1c-0.9,1.2-1.9,2.1-3.3,3c-0.7,0.4-1.2,0.8-1.8,1.2c-0.6,0.3-1.8,0.9-1.8,1.3
			C-12.3,129.1-10.6,128.8-9.8,129.1z"/>
		<path class="st1" d="M9.8,95.7c1,0.3,3.4-0.4,4.2,0.1c0.4,0.5-0.3,13.2-0.1,13.6l0.2,0.1c0.1,0,0.1,0.1,0.1,0.1s3.7,0.2,3.9-0.2
			c0.1-0.3-0.1-12.2,0.1-13.7c1.3-0.2,3.1,0.3,4.2,0c0-0.7,0.2-2.9-0.1-3.4c-3.9,0.1-7.3,0.1-11.2-0.1c-1.2,0-1.3-0.3-1.3,1
			C9.7,94,9.7,94.9,9.8,95.7z"/>
		<path class="st1" d="M-3.8,111.3c1.1,0.5,2.2,0.1,4.5,1.8c1.9,1.4,2.8,3.8,3.3,6.1c0.5,2.7,2.4,2.7,3.5,1.9
			c1.7-1.4,2.8-8.6-1.7-11C2.6,108.4-2.6,109.3-3.8,111.3z"/>
		<path class="st1" d="M8.7,109.5c0.5-3-2-6.4-5.2-7.5c-6.8-2.4-12.2,5.9-8.7,7.6c2.7,1.3,3.8-3.4,9.7-2.2
			C6.6,107.7,7.5,108.5,8.7,109.5z"/>
		<path class="st1" d="M35.4,97.4l0.1,6.1c-0.1,1.4-0.3,4.9-0.1,6c0.4,0.1,3.6,0.2,3.9,0.1c0.2-0.1,0.2-0.1,0.3-0.1
			c0.2-0.6,0-3.5-0.1-4.3c-0.1-5.1-0.7-4.7,2.2-4.4c0.1,0,0.3,0.1,0.4,0.1c0.3-0.1,0.2,0,0.3-0.2c0.2-0.3,0.2-3.5,0.1-4
			c-0.2-0.1,0-0.1-0.3-0.1c-0.1,0-0.4,0.1-0.4,0.1c-1.1,0.4-1.5,0.7-2.3,1l0.1-1.3L35.4,97.4z"/>
		<path class="st1" d="M100.4,100.7v-4.2c-1-0.1-2.1,0.9-3,1.1l0.1-1.2c-0.4-0.1-3.9,0.8-4.1,1l0.1,12c0,0.1,0,0.1,0,0.1l4.1,0.1
			c0.5-1.1-0.4-7.3-0.1-8.9C98.4,100.5,99.4,100.9,100.4,100.7z"/>
	</g>
</g>
</svg>
