<?xml version="1.0" encoding="utf-8"?>
<!-- Generator: Adobe Illustrator 23.0.3, SVG Export Plug-In . SVG Version: 6.00 Build 0)  -->
<svg version="1.1" id="Layer_1" xmlns="http://www.w3.org/2000/svg" xmlns:xlink="http://www.w3.org/1999/xlink" x="0px" y="0px"
	 viewBox="0 0 184.3 184.3" style="enable-background:new 0 0 184.3 184.3;" xml:space="preserve">
<style type="text/css">
	.st0{fill:#FFFFFF;}
</style>
<g id="Layer_x0020_1">
	<g id="_2429622811824">
		<path class="st0" d="M142.8,57.4h13.5v16.2h-25c0.4-1.1,8.3-12.4,9.7-14.4C141.4,58.6,141.7,57.4,142.8,57.4z M111.3,73.7H99.3
			v-11H85v11h-5.2v6.1c1.4-0.7,3.2-1.3,4.9-1.8c3.6-1.3,9-2.9,11.9,1.3c2.2,3.1,2.7,6.8,0.7,10.3c-1.3,2-4,3.2-6.3,4.3l-3.2,2h11.2
			v5.6h52.4v-5.6h16.2V43.3H134c-1.1,0-5.2,6.5-5.9,7.4l-14,18.9C113.3,70.5,111.5,72.8,111.3,73.7z"/>
		<path class="st0" d="M85.4,117.8h70.9v10.6H85.4V117.8z M74.2,116v14.8c0,3.1,1.4,5.6,3.2,6.8c2,1.3,4.9,2,7.9,2h73.3
			c5.4,0,8.8-4.7,8.8-10.1v-14.8c0-4.5-3.8-8.3-8.3-8.3H84.5C79.5,106.7,74.2,110.1,74.2,116z"/>
		<path class="st0" d="M27.6,139.3c1.3,0.4,2.7,0.7,4.3,1.1c7.2,1.3,16.4,0.4,23-3.2c7.7-4.1,12.1-10.3,15.7-17.6
			c2.3-5,4.1-10.4,4.1-17.8c-4.3,0.9-13.5,8.3-19.4,8.3c-5.4,0-12.4-11.2-0.7-17.6l9.9-5.4c0.9-0.4,2.2-1.3,2.9-1.4
			c-0.4-1.6-1.3-1.6-1.8-3.6H50.3l-7,13.1c-1.8,3.2-15.5,27.9-15.7,29.3V139.3z"/>
		<path class="st0" d="M52.6,100.7c0,3.1,0.9,4.7,4.3,4.7c2,0,3.8-1.3,5-2l9.7-4.9c1.8-0.9,3.1-1.6,4.9-2.5c3.1-1.4,6.7-3.1,9.5-4.9
			c3.4-2,8.1-2.9,8.1-7c0-3.6-2.7-3.8-4.7-3.8c-2.2,0-7.6,3.2-9.7,4.5L56.2,96.8C54.6,97.5,52.6,98.8,52.6,100.7z"/>
		<path class="st0" d="M16.8,134.2v5.2h8.3v-13.9c-1.3,0.9-2.9,2.9-4.1,4C20.1,130.6,16.8,133.3,16.8,134.2z"/>
	</g>
</g>
</svg>
