<?xml version="1.0" encoding="utf-8"?>
<!-- Generator: Adobe Illustrator 23.0.3, SVG Export Plug-In . SVG Version: 6.00 Build 0)  -->
<svg version="1.1" id="Layer_1" xmlns="http://www.w3.org/2000/svg" xmlns:xlink="http://www.w3.org/1999/xlink" x="0px" y="0px"
	 viewBox="0 0 184.3 184.3" style="enable-background:new 0 0 184.3 184.3;" xml:space="preserve">
<style type="text/css">
	.st0{fill:#FFFFFF;}
</style>
<g id="Layer_x0020_1">
	<g id="_2429220705488">
		<path class="st0" d="M55,44.3h43.7v33.1h-0.5H55.5h-0.7V44.3H55z M126.3,59.9c-0.5-1.1-4.7-6.3-4.7-7c0-0.4,0.5-4.9,0.7-5
			c0.4-0.4,3.8-1.3,4.5-1.3l6.8,11.9c-0.4,0.4-3.8,1.8-4.5,2l-2.9-11.7h-3.4v2.5h1.3L126.3,59.9z M38.1,153v7.4H116v-7.2h-4.3V87.8
			h2.7v-2.7c1.3,0.5,2.5,2.5,3.1,3.6c0.9,2,0.7,4,0.7,6.3v41.4c0,3.2,0.4,5.6,2,8.3c2.3,3.8,6.5,6.1,11,6.3c2.2,0,4.3-0.2,6.1-0.7
			c1.8-0.7,2.9-1.4,4.3-2.5c1.3-0.9,2.2-2.2,3.1-3.8c1.4-2.7,1.3-4.1,1.6-5.2V115c-0.2-0.5-0.5-13-0.7-14.9
			c-0.9-14.2-2.9-26.1-7-39.8l0.4-0.5c-0.5-0.7-1.4-2.7-1.8-3.6c-1.3-2.2-6.8-13.5-7.6-14.2l-8.5-7.7c-0.5,0.4-0.2,0.2-0.7,0.5
			c-0.4-0.5-0.5-0.5-0.9-0.9l-2.9-2.5c-1.4-1.3-2.2-2.2-4.1-3.2c-1.4-0.9-3.4-1.4-5.2-2.2c-1.1-0.4-4.9-1.4-5.6-1.8h-0.2l-1.1,3.4
			c0.9,0.7,8.1,2.3,10.1,3.6c1.1,0.7,7,5.8,7.4,6.5l-0.5,0.5c0.9,2.3,1.3,0.9,0,3.6c-0.5,1.1-1.4,2.9-1.8,3.8
			c-0.2,0.7,1.6,2.7,1.6,3.6c0,0.7-0.5,1.6-0.2,2.3l10.4,14l5.9-2.7c0.5,0.9,2.3,7.4,2.7,8.8c5.2,20.2,4.9,43.6,4.9,64.4
			c0,2,0,3.4-0.7,5c-3.4,7.6-15.1,7-17.3-1.1c-0.5-2.2-0.4-8.6-0.4-11.3V94.1c0-4-0.5-6.7-2.3-9.4c-1.4-2-3.6-4-6.5-5v-4.1h-2
			c-0.2-2.3,0-5.2,0-7.6V45.9c0-4.9,0.9-9.4-2.3-12.4c-3.4-3.4-6.7-2.5-12.2-2.5H52.6c-2.5,0-4.5-0.2-6.5,0.9
			c-4.7,2.3-4.5,6.3-4.5,10.4v95.9c0,4.7,0.2,10.1,0,14.8H38.1z"/>
		<path class="st0" d="M65.2,60.8c-0.2-0.2,0-0.2-0.2,0c0.2,0.5,0.9,1.6,1.4,2.2c0.5,0.9,1.1,1.4,1.6,2.2c0.5,0.7,1.1,1.4,1.6,2.2
			c0.5,0.7,1.1,1.4,1.6,2.2c-0.9,0.9-3.8,2-5.2,5.8h21.2c-0.7-2.3-3.2-4.7-5.4-5.8c-2.9-1.4-6.1-1.6-9.2-0.5l-2-2.2
			C70.3,66.4,65.4,61,65.2,60.8z"/>
	</g>
</g>
</svg>
