<?xml version="1.0" encoding="utf-8"?>
<!-- Generator: Adobe Illustrator 23.0.3, SVG Export Plug-In . SVG Version: 6.00 Build 0)  -->
<svg version="1.1" id="Livello_1" xmlns="http://www.w3.org/2000/svg" xmlns:xlink="http://www.w3.org/1999/xlink" x="0px" y="0px"
	 viewBox="0 0 184.3 184.3" style="enable-background:new 0 0 184.3 184.3;" xml:space="preserve">
<style type="text/css">
	.st0{fill-rule:evenodd;clip-rule:evenodd;fill:#131313;}
</style>
<g id="Layer_x0020_1">
	<path class="st0" d="M89.1,33.2c8-0.4,14.8,0.7,21.6,3.5c5.7,2.3,11.2,5.6,15.5,9.9l3.2,3.1c0.4,0.4,1,1.3,1.4,1.7
		c6.7,8.4,11,18.1,11.6,29.6c1.6,28.9-20.4,52.2-47.3,53.8c-7.8,0.5-15-0.9-21.6-3.5c-4.8-1.9-8.2-4-12.1-6.9
		c-0.6-0.5-1.2-1-1.7-1.4l-3.3-3.1c-1.9-2-2.4-2.5-4.4-5.1c-10.7-14-13.2-33-6.7-49.6c2.4-6.2,5-10.1,9-14.8l2.2-2.4
		c2-2,4.5-4.1,6.8-5.8C70.4,37.2,79.9,33.6,89.1,33.2z M119.2,78.9c4.4-0.1,3.7,0.7,3.7-5.1c0-5.3,0.6-4.4-3.7-4.5V78.9z M61.6,78.7
		c0.8,0.5,2.4,0.2,3.4,0.2v-9.5c-4.3,0.1-3.7-0.6-3.7,4.2C61.3,74.7,61,77.9,61.6,78.7z M74.5,119.6c1.4,0,6.8,0.2,7.9-0.3
		c0.4-2.2,0.2-4.9,0.2-7.3h-9.2c0,1.5,0,3,0,4.4C73.2,119,72.9,119.6,74.5,119.6z M101.9,119.3c0.8,0.4,7.8,0.4,8.8,0.1
		c0.5-0.9,0.3-5.8,0.3-7.4h-9.2C101.7,113.7,101.5,118.1,101.9,119.3z M81.9,53.9l20.5,0.1c0.1-0.7,0.1-3.2,0-3.9
		c-0.3-1.2-1-1.5-2.4-1.5H84.3c-1.3,0-2.2,0.3-2.3,1.5C81.8,50.8,81.9,53,81.9,53.9z M86.9,160h10.4v-14.7c-3.7,0.2-6.6,0.2-10.4,0
		V160z M89.5,36.4c7.2-0.4,14.2,0.9,20.3,3.4c6.8,2.8,12.7,6.9,17.4,12.3c0.5,0.6,1,1,1.4,1.6c0.4,0.6,0.9,1.1,1.3,1.6
		c0.8,1.2,1.7,2.3,2.4,3.6c9.6,16.4,9.5,34.7-0.4,50.9c-2.1,3.5-5.9,7.8-8.9,10.4l-2.4,1.9c-2,1.6-4.6,3.2-7.2,4.5
		c-11.9,6.2-26.4,6.8-39,1.7c-7.3-3-13.8-7.8-18.8-13.9c-2.1-2.7-4.1-5.7-5.8-9c-7.3-14.6-6.6-33.5,2.4-47.1
		c2.8-4.1,2.6-3.5,5.2-6.7c1.5-1.8,2.9-2.9,4.6-4.4C69,41.1,79.8,36.8,89.5,36.4z M43.3,86.5c0.3,7.1,2.2,13.8,5.1,19.5
		c1.4,2.9,3,5.5,4.6,7.7l2.8,3.4c1.5,1.4,3.5,3.7,5.5,5.2c0.3,0.3,0.5,0.4,0.9,0.7c3.1,2.6,7.7,5.1,11.6,6.7
		c12.8,5.4,28.2,4.7,40.4-1.6c6.1-3.2,9.5-6,13.9-10.7c0.4-0.4,0.5-0.4,0.8-0.9c0.3-0.4,0.3-0.4,0.7-0.8c3.1-3.6,6.2-9,8-13.5
		c13-32.7-11.5-69.4-47.9-67.6c-10,0.5-19.6,4.2-27,9.9l-3.3,2.9c-1.8,1.5-4.3,4.4-5.9,6.4C46.3,63,42.8,74.6,43.3,86.5z M102,101.5
		c-0.7-5.7,7.6-6.6,8.4-1.2C111.2,106.1,102.7,106.9,102,101.5z M82.1,101.8c-0.4,2-2.6,3.9-5.1,3.3c-5.3-1.2-3.7-9.6,1.9-8.3
		C81,97.2,82.6,99.3,82.1,101.8z M72.9,68.3c0.7-0.3,32.3-0.1,37.2-0.1c1.3-0.1,2.1,0.2,2.2,1.5c0.2,2,0,11.7,0,14.8
		c0.1,1.2,0.2,2.3-1,2.7c-1,0.3-32.2,0.1-37.2,0.1c-1.4,0-2.2-0.1-2.3-1.5c-0.2-2.7,0-11.3,0-14.8C71.9,69.7,71.8,68.7,72.9,68.3z
		 M71.9,62.4c0-1.5,0.2-2.2,1.8-2.2h36.8c1.4,0,1.8,0.5,1.8,1.9c0,3.4-0.1,3.2-3.8,3.2H75.3C72.3,65.2,71.9,65.5,71.9,62.4z M72,56
		c-2.1,0.3-3.3,1.3-4.1,2.5c-1.1,1.7-0.9,3.6-0.9,5.7v39.1c0,6.4-0.2,6.6,6.4,6.6h39.1c5.6,0.1,4.7-1.8,4.7-8.3V62.5
		c0.1-4.4-2-6.6-6.3-6.6C107.6,56,73.4,55.8,72,56z M33,87.7c0.4,8.3,3,17,6.3,23.5c1.8,3.5,5,8.6,7.4,11.3c0.4,0.4,0.5,0.6,0.8,1
		c0.5,0.5,0.5,0.5,0.9,1l3.7,3.7c6,5.1,10.4,8.4,18.2,11.5c20.8,8.4,44.4,3.9,60.9-10.7c1.9-1.7,3.9-3.6,5.6-5.6
		c4.4-5.3,7.9-10.7,10.5-17.3c6.1-15.8,5.4-34-2.3-49.1c-3.5-6.9-5.1-8.3-9.1-13.3l-1.9-1.9c-3.4-3.4-6.1-5.6-10.3-8.3
		C106.5,22.3,83.3,21,65.1,30.7c-6.5,3.5-7.4,4.5-12.1,8.4c-1.5,1.2-2.6,2.5-3.7,3.7c-0.4,0.4-0.6,0.4-0.9,0.9l-3.4,4.2
		C36.3,59.1,32.3,73,33,87.7z"/>
</g>
</svg>
