<?xml version="1.0" encoding="utf-8"?>
<!-- Generator: Adobe Illustrator 23.0.3, SVG Export Plug-In . SVG Version: 6.00 Build 0)  -->
<svg version="1.1" id="Layer_1" xmlns="http://www.w3.org/2000/svg" xmlns:xlink="http://www.w3.org/1999/xlink" x="0px" y="0px"
	 viewBox="0 0 184.3 184.3" style="enable-background:new 0 0 184.3 184.3;" xml:space="preserve">
<style type="text/css">
	.st0{fill:#FFFFFF;}
</style>
<g id="Layer_x0020_1">
	<g id="_2429341203328">
		<path class="st0" d="M17.5,65.1c0,14.4,0.4,27.9,0.4,42.3H120V50.7c0-3.2-4.3-2.7-7.7-2.7c-3.6,0-7,0-10.6,0c-2,0-2.7-0.4-4.7-0.4
			L20.8,48c-2.3,0-2.9,0.7-2.9,3.8C17.7,56.6,17.5,60.4,17.5,65.1z"/>
		<path class="st0" d="M129.1,72.4c0-2.3-0.2-11.5,0.4-13.5c0.5-1.8,4.7-1.3,6.3-1.3c3.8,0,6.5,0.4,10.4,0.4c0,1.4,2,7.9,2.5,9.7
			c0.5,1.6,0.9,3.2,1.3,4.9c0.4,1.6,1.1,3.4,1.3,4.9h-21.8C129.3,75.5,129.1,74.6,129.1,72.4z M122.8,67.8v42.8H75.7
			c1.4,2,2.3,0.2,6.5,8.1h52c0.7-2.9,2.9-5,4.9-6.7c5-4.1,13-4,18.2,0.2c4.9,4,3.6,6.7,6.1,6.7c2,0,2.7-0.5,3.1-2.3
			c0.4-2,0-12.4,0.2-15.7c0.4-5.8,0-14.2,0-21.1C163,77.3,159,78,154.2,78c-0.5-1.1-1.3-4.1-1.6-5.6c-0.5-1.8-0.9-3.8-1.6-5.6
			c-0.7-2.3-2.5-9.9-3.2-11.3c-7.2,0-11.9-0.5-19.3,0C123,55.9,122.8,52.8,122.8,67.8z"/>
		<path class="st0" d="M36.1,124.8c0-7.7,12.1-8.3,12.1,0.4C48.1,132.2,36.1,132.4,36.1,124.8z M30,124.3c0,4,1.3,6.8,3.2,8.8
			c2,1.8,5.2,3.6,8.8,3.6c16.2,0,17.1-24.1-0.5-24.1C35.7,112.4,30,117.3,30,124.3z"/>
		<path class="st0" d="M148.2,130.4c-8.5,0-8.1-12.1,0-11.7c1.6,0,3.2,0.9,4.1,1.6c2.2,2,2.2,6.3,0,8.5
			C151.6,129.3,149.7,130.4,148.2,130.4z M135.8,123.2c0,4.1,0.5,6.5,3.4,9.5c5.9,6.3,23,4.5,20.9-11.3c-0.2-1.6-1.1-3.4-2.2-4.7
			c-0.4-0.5-0.7-1.1-1.1-1.3c-1.1-1.1-4-2.7-5.8-3.1C143.2,111,135.8,116,135.8,123.2z"/>
		<path class="st0" d="M68.8,130.4c-9.4,0-7.7-11.5-1.3-11.5h1.3C76,118.9,76,130.4,68.8,130.4z M67,136.3c4,0,6.7-0.2,9.9-3.2
			c0.9-0.9,1.6-1.8,2.3-3.1c2.2-4.3,1.4-11.2-2.3-14.6c-7.2-6.3-20.7-3.2-20.9,8.6C56.1,131.3,61.5,136.3,67,136.3z"/>
		<path class="st0" d="M17.5,118.5h10.6c0.7-2.9,3.6-5.9,6.5-7.6c0.5-0.4,0.2-0.2,0.7-0.5H17.7v8.1H17.5z"/>
		<path class="st0" d="M55.3,116.5c0.4-1.1,1.6-2.3,2.3-3.2c1.8-1.8,2.5-1.6,3.2-2.7H49l3.2,2.7C53.4,114,54.1,115.8,55.3,116.5z"/>
	</g>
</g>
</svg>
