<?xml version="1.0" encoding="utf-8"?>
<!-- Generator: Adobe Illustrator 23.0.3, SVG Export Plug-In . SVG Version: 6.00 Build 0)  -->
<svg version="1.1" id="Livello_1" xmlns="http://www.w3.org/2000/svg" xmlns:xlink="http://www.w3.org/1999/xlink" x="0px" y="0px"
	 viewBox="0 0 184.3 184.3" style="enable-background:new 0 0 184.3 184.3;" xml:space="preserve">
<style type="text/css">
	.st0{fill-rule:evenodd;clip-rule:evenodd;}
</style>
<g id="Layer_x0020_1">
	<path class="st0" d="M49.9,132.1c3.7-7,14.7-8.7,19.2-10.8c0.2-0.1,0.6-0.1,0.7-0.4c0.1-0.3,0.5-0.3,0.8-0.4L70.3,109
		c-36.7,4.5-47.9,34.3-7.6,45.1c9.9,2.7,20,3.9,30.5,3.8c54.9-0.4,62.9-29.1,45.6-39.6c-8.5-5.3-13.8-7.1-24.7-9.3l0.1,11.6
		c6.9,5,16.3,3.6,20.5,11.6c-1.8,5.8-9.8,8.5-17.3,10.6c-7.2,2-17.5,3.1-25.2,3C78.8,145.5,54,142.6,49.9,132.1z M108.5,66.5
		c-13,1.6-12,5.6-32.6-0.4c1.2,16.1-4.6,23.5,16.4,23.6C112.7,89.8,107.8,82.6,108.5,66.5z M83.4,45.4l0.4,4.8
		c-3.9,3-4.2,0.2-7.6,5.8c3.2,10.9,31.5,8.4,32.1,1c-1.1-5.4-3.8-3.9-7.3-6.7l0.1-4.8c29.4-7.4,10.6-19.1-8.8-18.9
		c-6.8,0.1-17.8,1.2-21.9,5.8C63.2,40.3,77,43.7,83.4,45.4z M108.4,92.7c-15.6,5.6-17.7,2.9-32.2,0.2c2.2,37.7-7,44.8,16.1,44.8
		C113.4,137.8,107.8,132.4,108.4,92.7z"/>
</g>
</svg>
