<?xml version="1.0" encoding="utf-8"?>
<!-- Generator: Adobe Illustrator 23.0.3, SVG Export Plug-In . SVG Version: 6.00 Build 0)  -->
<svg version="1.1" id="Layer_1" xmlns="http://www.w3.org/2000/svg" xmlns:xlink="http://www.w3.org/1999/xlink" x="0px" y="0px"
	 viewBox="0 0 184.3 184.3" style="enable-background:new 0 0 184.3 184.3;" xml:space="preserve">
<g id="Layer_x0020_1">
	<g id="_2058153917008">
		<path d="M71.3,41.8c6.8-0.7,14.8,0.9,20.3,4.3c1.8,1.1,3.6,2.2,4.9,3.4c6.3,5.6,10.6,12.8,11.7,21.8c2.3,19.8-12.4,35.3-29.5,37.3
			C59.1,110.9,43.4,96.1,41.4,79C39.5,60.5,52.8,43.9,71.3,41.8z M108,97.9c2.3-4.1,4.3-7.4,5.8-13c6.7-26.6-14.6-51.7-41.8-49.7
			c-11.7,0.9-20.5,6.1-27.9,14.4c-0.7,0.7-1.4,1.8-2,2.7c-1.3,2-2.5,3.6-3.4,5.9C31,75.4,36,94.9,49.2,105.9
			c12.1,10.1,28.4,12.2,43,5.6c1.8-0.9,5.2-3.1,5.9-3.2c0.5,0.5,0.7,0.7,1.1,1.1c1.4-1.1,3.6-3.6,5-5c1.3-1.3,4.7-4,5-5.2
			C108.6,98.5,108.4,98.5,108,97.9z"/>
		<path d="M103.4,114.3c0.9,1.1,1.6,1.8,2.5,2.9c0.5,0.5,0.9,0.9,1.3,1.6c0.4,0.5,0.7,0.9,1.3,1.4l6.3,7.2c0.5,0.7,0.5,0.7,1.3,1.4
			l15.8,16.4c5.2,4.3,9.5,5.9,14.6,0.9c5.2-5.2,2.5-9.5-1.3-14.4c-1.6-2-3.6-3.6-5.4-5.2c-0.5-0.5-0.9-0.9-1.4-1.4
			c-2.2-2.2-2.2-2-4-3.8l-8.5-7.7c-3.2-2.7-8.1-7.2-11.3-9.9c-0.5-0.4-0.9-0.7-1.4-1.3c-0.5-0.4-1.1-0.9-1.6-1.3
			c-0.9,0.5-4.1,4.1-5.2,5.2c-1.6,1.6-3.4,3.8-5,5.2L103.4,114.3z"/>
		<path d="M57.1,95.8c-0.5-1.3-11.3-9.5-8.6-25c1.3-7.7,5.9-14.4,12.1-18.2c0.9-0.5,2-0.9,2.5-1.8c-0.2-1.8-0.7-2.5-2.3-1.6
			c-1.3,0.7-2.2,1.3-3.2,2c-1.6,1.1-4.1,3.4-5.2,4.9c-0.7,1.1-1.4,1.8-2.2,2.9c-0.9,1.3-1.3,2-2,3.4c-5.9,11.5-2.9,25.9,6.1,34.6
			C56,98.7,56.9,97,57.1,95.8z"/>
	</g>
</g>
</svg>
