<?xml version="1.0" encoding="utf-8"?>
<!-- Generator: Adobe Illustrator 23.0.3, SVG Export Plug-In . SVG Version: 6.00 Build 0)  -->
<svg version="1.1" id="Layer_1" xmlns="http://www.w3.org/2000/svg" xmlns:xlink="http://www.w3.org/1999/xlink" x="0px" y="0px"
	 viewBox="0 0 184.3 184.3" style="enable-background:new 0 0 184.3 184.3;" xml:space="preserve">
<style type="text/css">
	.st0{fill:#110E12;}
</style>
<g id="Layer_x0020_1">
	<path class="st0" d="M123,139.5l4.5-2c1.8-2.5,12.8-5.4,11.2-21.1c-0.9-8.1-3.8-16.2-6.3-23.6l-65.2,48.8c2.9,1.1,5.6,2,7.6,2.9
		c1.8,0.5,2.7,1.3,4.5,1.8l0.2-0.2l12.6,8.5C99.8,149.4,113.8,141.3,123,139.5z M128.7,81.7c-0.9-3.2-1.8-6.7-2.5-10.1l-77.8,58.1
		c0.2,0.2,0.4,0.4,0.5,0.4l1.1,1.8c1.3,1.6,3.2,3.1,5.6,4.3L128.7,81.7z M125,58.5c0.2-2.9,0.5-5.9,1.3-8.8c0.5-2,1.3-4.1,2.2-6.1
		c0.7-1.4,2.2-3.4,2.2-4.9l-0.2-0.7c-5-1.1-11.7,5.4-30.6-3.4c-3.1-1.4-5.4-3.4-7.9-4.7c-5.8,3.4-8.8,6.3-16.9,8.3
		c-12.8,3.2-18.7-0.9-22.1,0C52.2,43,65.6,48,54,85.1c-2.7,9-8.6,23.4-9,33.3L125,58.5z M130.7,142.7l-7,3.6c-4,2.3-12.1,4-17.1,6.7
		c-4.9,2.7-6.8,4.3-11,7.4c-1.3,0.9-2.5,2.2-3.6,2.9c-3.1-1.8-7.9-7.7-19.3-12.4c-4.9-2-18.2-5.9-21.6-9.5c-4.3-2.3-7.4-5.4-9.5-9.9
		c-4.3-3.8-2.7-18-1.1-24.1C44.1,92.5,53,74.3,52.6,59.7c-0.2-11.3-4-15.7-8.8-21.6c2.3-2.9,6.1-5,7.7-8.1
		c6.8,0.9,11.5,4.7,23.8,1.1c8.1-2.3,11.7-6.1,16.9-9.9l7.6,5.6c6.3,4,13.5,6.1,21.2,5.6c5-0.4,7.7-1.8,11.7-2.5
		c1.3,2.3,5.9,5.9,7.7,8.1c-8.3,9.4-9.7,19.1-8.5,29l0.2,0.2H132c2.5,17.8,14.6,36.4,13.5,54.2c-0.5,6.8-4.5,14.4-9.2,17.5
		C134.1,140.2,132.9,141.8,130.7,142.7z M33.9,131.4l2.2,4.5c1.3,1.4,0.7,0.5,1.1,2.2c2,1.1,2.9,2.9,4,4.3
		c2.5,0.9,4.1,5.8,26.6,13.7c4.7,1.6,9.9,4.7,13.3,7c2.2,1.6,3.6,2.5,5.6,4.5c2,1.8,3.6,3.6,5.6,5c2.7-2,4.3-4.1,7.2-6.5
		c15.8-13.3,28.8-10.1,44.5-24.5c17.5-16,3.1-46.3-2.2-64.3c-4.1-13.9-6.1-26.3,5.8-36.2c1.6-1.4,2.9-2,4.3-3.2l-0.5-0.5
		c-4.7-4.1-12.8-9.4-16.6-15.8c-7.2,2-12.2,6.5-24.3,2.5c-9.5-3.1-13.9-9.7-18-12.6c-7.7,6.3-14.9,15.8-30.6,13.9
		c-5.4-0.7-7.6-2.7-11.5-3.8C47,27.5,35.1,35.8,33,38c1.4,1.3,2.5,1.8,4.1,3.1c1.6,1.3,2.7,2.3,4,4c8.5,10.1,4,25.6,0.5,36.4
		C36.4,97.9,28.7,112.5,33.9,131.4z"/>
</g>
</svg>
