<?xml version="1.0" encoding="utf-8"?>
<!-- Generator: Adobe Illustrator 23.0.3, SVG Export Plug-In . SVG Version: 6.00 Build 0)  -->
<svg version="1.1" id="Layer_1" xmlns="http://www.w3.org/2000/svg" xmlns:xlink="http://www.w3.org/1999/xlink" x="0px" y="0px"
	 viewBox="0 0 184.3 184.3" style="enable-background:new 0 0 184.3 184.3;" xml:space="preserve">
<g id="Layer_x0020_1">
	<g id="_2058153935408">
		<path d="M127.4,160.1c-5.9-11.7-13.9-23.4-20.2-35.3c-14.8,4-23-4.1-31.9-17.8c-6.5-10.3-14-31.7-1.8-39.4L53,31.4
			C8,46.9,64.9,140.3,93.9,159.6C104.7,166.8,117.1,169.8,127.4,160.1z"/>
		<path d="M55.9,26.2c-0.2,5.6,7.4,16.4,10.1,21.1c2.2,3.6,3.8,6.3,5.8,9.9c5.9,10.8,5.9,11.7,16.6,5.6c9.4-5.4,9.2-4.1-3.8-25.9
			C75.9,22.2,74.8,8.9,55.9,26.2z"/>
		<path d="M131.7,158.8c4,0.2,13-4.7,14.9-6.8c4-4.1-1.8-10.8-4.3-14.9c-2.5-4.5-5.2-8.8-7.9-13.5c-2.2-3.6-5.4-12.2-9.2-13.1
			c-2.7-0.5-12.4,4.7-14.2,6.3c-4.7,4.1,0.9,10.4,3.6,14.9c2.7,4.7,5,8.6,7.7,13.7C125,149.7,128.1,156.7,131.7,158.8z"/>
	</g>
</g>
</svg>
