<?xml version="1.0" encoding="utf-8"?>
<!-- Generator: Adobe Illustrator 23.0.3, SVG Export Plug-In . SVG Version: 6.00 Build 0)  -->
<svg version="1.1" id="Layer_1" xmlns="http://www.w3.org/2000/svg" xmlns:xlink="http://www.w3.org/1999/xlink" x="0px" y="0px"
	 viewBox="0 0 184.3 184.3" style="enable-background:new 0 0 184.3 184.3;" xml:space="preserve">
<style type="text/css">
	.st0{fill:#131313;}
</style>
<g id="Layer_x0020_1">
	<path class="st0" d="M27.4,100.2h129.2c-0.5-0.5-1.8-0.9-2.5-1.3c-0.9-0.4-1.6-0.7-2.5-1.3c-1.8-0.9-3.4-1.8-5-2.7
		c-5.8-3.1-13.7-8.5-18.5-12.6c-4.9-4-6.1-5.4-10.3-9.4c-0.4-0.4-0.5-0.7-1.1-1.1l-4.9-5.2c-0.7-0.9-1.1-1.4-1.8-2.2
		c-1.3-1.3-3.2-4-4.5-5.6c-1.1-1.3-6.5-9.4-7.4-10.8c-1.8-2.9-3.6-5.8-5.2-8.8c-0.2-0.5-0.4-0.9-0.9-1.3l-2.9,5.2
		c-2.9,4.9-4.7,7.6-7.9,12.1l-9.7,12.2c-0.9,1.1-4,4-4.9,5c-3.6,4.3-14.4,13-19.3,16.2c-5.9,4-10.8,6.8-17.3,9.9
		C29.4,99.3,28.2,99.9,27.4,100.2z"/>
	<path class="st0" d="M32.8,146c2-0.5,4.5-2.2,6.7-3.1c2.2-0.9,4.5-1.8,6.8-2.7c10.4-3.8,21.2-6.3,31.9-7.4v-23.6h29.2v23.6
		c5.6,0.7,11.2,1.6,16.6,2.9c7,1.8,17.5,5,24.3,8.6c1.1,0.5,2.3,1.3,3.2,1.6v-44.5H32.7L32.8,146z"/>
	<polygon class="st0" points="152.2,122.9 156.9,125.4 156.9,101.5 152.2,101.5 	"/>
	<polygon class="st0" points="27.4,125.4 31.9,122.9 31.9,101.5 27.4,101.5 	"/>
	<polygon class="st0" points="27.4,126.7 27.4,145.4 30.7,145.4 30.7,125.1 	"/>
	<polygon class="st0" points="153.6,145.4 156.9,145.4 156.9,126.9 153.6,125.1 	"/>
</g>
</svg>
