<?xml version="1.0" encoding="utf-8"?>
<!-- Generator: Adobe Illustrator 23.0.3, SVG Export Plug-In . SVG Version: 6.00 Build 0)  -->
<svg version="1.1" id="Layer_1" xmlns="http://www.w3.org/2000/svg" xmlns:xlink="http://www.w3.org/1999/xlink" x="0px" y="0px"
	 viewBox="0 0 184.3 184.3" style="enable-background:new 0 0 184.3 184.3;" xml:space="preserve">
<style type="text/css">
	.st0{fill:#FFFFFF;}
</style>
<g id="Layer_x0020_1">
	<path class="st0" d="M115.1,144.5l7.4,7.4h-14.8L115.1,144.5z M116.9,142.7l5.9-5.9v11.9L116.9,142.7z M107.1,148.7v-12.1
		c0.5,0.4,5.6,5.4,5.9,5.9C112.7,143.5,107.9,148.3,107.1,148.7z M115.1,140.9l-6.8-7l6.8-6.8l6.8,6.8L115.1,140.9z M116.9,125.3
		l5.9-5.9v10.8v1.3L116.9,125.3z M107.1,131.2v-11.9l6.1,5.9L107.1,131.2z M115.1,123.5l-6.8-7l6.8-6.8l6.8,6.8L115.1,123.5z
		 M116.9,107.8l5.9-5.9v11.9L116.9,107.8z M107.1,113.8v-0.9v-9.5v-1.6c0.7,0.5,5.4,5.2,5.9,5.9
		C112.5,108.5,107.9,113.4,107.1,113.8z M115.1,106l-6.8-7l6.8-6.8l6.8,6.8L115.1,106z M116.9,90.5l5.9-5.9v11.9L116.9,90.5z
		 M107.1,96.5v-1.1V86v-1.6c0.5,0.4,5.6,5.4,5.9,5.9L107.1,96.5z M115.1,88.6l-6.8-7l6.8-6.8l6.8,6.8L115.1,88.6z M46.3,51.7h5.6
		v25.7l-5.4-0.2V51.7H46.3z M52.2,52.9c1.4,1.1,2,1.1,3.2,0v23.4c-0.9-1.1-2.3-0.9-3.2,0V52.9z M42.5,52.9c0.7,0.9,2.5,0.9,3.2,0
		v23.4l-0.2-0.2c-1.1-0.7-2.3-1.1-3.2,0.2V52.9H42.5z M120.8,69.1c0.7-0.5,1.1-0.4,2.2-0.4V79l-5.9-5.9L120.8,69.1z M107.1,68.8
		c1.3-0.2,1.6-0.2,2.2,0.4l3.8,4l-5.9,5.9C107.1,79,107.1,68.8,107.1,68.8z M112.5,68.8h4.9c-0.5,0.5-1.8,2-2.5,2.3L112.5,68.8z
		 M107.1,50h11.3v8.8h-14.8L107.1,50z M148.9,46.1c0.4-0.7,3.2-3.4,4-4.1c0.5,0.4,3.8,3.6,4.3,4.1H148.9z M133.6,46.1
		c0.4-0.7,3.2-3.6,4-4.1c0.7,0.4,3.8,3.4,4.3,4.1h-1.1h-6.5H133.6z M118.5,46.1c1.3-1.4,2.9-2.9,4.1-4.1l4.1,4.1H118.5z M107.3,41.9
		l4.1,4.1h-8.3L107.3,41.9z M92,41.9l4.1,4.1h-1.1h-6.3h-1.1L92,41.9z M76.9,41.9l4.1,4.1h-8.3L76.9,41.9z M61.6,41.9l4.1,4.1h-8.3
		L61.6,41.9z M42.2,46.1c0.5-0.7,3.6-3.8,4.3-4.1c0.7,0.7,3.8,3.6,4,4.1h-0.7h-6.5H42.2z M27,46.1c0.4-0.5,3.6-4,4.3-4.1
		c0.7,0.7,3.6,3.4,4,4.1H27z M139.7,40c0.4-0.5,5-5.6,5.8-5.6c0.7,0,5.4,5,5.8,5.6c-0.4,0.7-5,5.4-5.8,5.8L139.7,40z M124.4,40.1
		c0.4-0.7,2-2.3,2.7-2.9c0.5-0.5,2.5-2.7,2.9-2.7c0.7,0,2.5,2.2,3.1,2.7c0.9,0.9,2.2,1.8,2.9,2.9c-0.4,0.5-4.9,5.2-5.8,5.8
		L124.4,40.1z M109.1,40c0.9-0.9,5.2-5.6,5.8-5.4c0.5,0,5.2,4.9,5.8,5.6l-5.8,5.8L109.1,40z M94,40c0.5-0.7,5.2-5.6,5.8-5.6
		c0.5,0,5,4.9,5.8,5.6l-5.8,5.8L94,40z M78.7,40c0.7-0.7,5-5.2,5.6-5.6c0.9,0.2,2.3,2.2,3.1,2.7c0.9,0.9,1.8,1.8,2.9,2.9l-5.8,5.8
		L78.7,40z M63.4,40c0.5-0.7,5-5.2,5.6-5.6c0.9,0.2,4.9,4.7,5.9,5.6L69,45.7L63.4,40z M48.1,40c0.5-0.9,2-2.2,2.9-2.9
		c0.9-0.9,2.3-2.7,3.1-2.5c0.5,0.2,4.9,4.9,5.8,5.6l-5.9,5.8L48.1,40z M33,40c0.5-0.9,3.2-3.2,4.3-4.3c0.4-0.4,0.9-1.3,1.6-1.1
		c0.5,0,5.2,4.9,5.6,5.6l-5.9,5.8L33,40z M137.9,38.2c-0.7-0.4-3.1-2.9-3.8-3.8h7.4C140.6,35.8,138.8,36.9,137.9,38.2z M119,34.4
		h3.8h0.5h0.9l2.2,0.2l-3.8,3.6L119,34.4z M103.7,34.4h0.9h0.5h1.6h2.2l2.2,0.2l-3.8,3.6L103.7,34.4z M88.4,34.4l7.4,0.2L92,38.2
		L88.4,34.4z M73.1,34.6h0.7h0.9h3.1l2.5,0.2l-3.8,3.6L73.1,34.6z M58,34.4l7.4,0.2l-3.8,3.6L58,34.4z M46.1,38.2
		c-0.9-1.3-2.7-2.3-3.6-3.8h1.6h4l1.8,0.2C49.2,35.3,47,37.8,46.1,38.2z M114.5,10.6v15.8L103,26.6v5.2l-61.4-0.2L114.5,10.6z
		 M115.4,11c1.3,0.7,2.5,1.8,3.8,2.7l7.2,5.2c1.3,0.9,2.2,1.6,3.6,2.5c2.5,1.8,4.7,3.4,7.2,5.2c1.6,1.3,5.8,4,7,5.2h-17.3
		c0-1.3,0.2-4.3-0.2-5.4h-11.5V11H115.4z M23.1,48.6h18.4c0,0.7,0,1.4,0,2l0.5,1.3c0.4,0.5,0.2,20.2,0.2,23c0,4.9-0.5,1.1-0.5,3.1
		c0,1.1-0.2,2.9,0.4,3.6l3.8,3.8c1.6,1.6,0.9,1.1,2.3,1.4c0,2.2-1.4,1.3-2,3.6c-0.5,1.8,0.4,3.4,1.3,4.3c2.5,2.2,7,0.2,6.1-3.1
		c-0.2,0.2-2,3.6-4.3,1.8c-2.3-2,1.1-4.3,1.1-4.3v-2.2c1.3-0.2,1.1-0.2,1.8-0.9c0.5-0.5,0.9-0.9,1.4-1.4c0.9-0.9,1.8-1.6,2.7-2.5
		c0.7-0.7,0.5-0.9,0.5-2.2c0-0.4,0-0.9,0-1.3c-0.2-1.3,0-0.2-0.4-0.9c-0.5-0.9-0.2-4-0.2-5.2c0-1.1-0.2-19.4,0.2-20.3
		c0.5-1.3,0.4-0.2,0.4-3.2H105c0,3.2-3.6,9.2-3.6,10.4c0,0.9,3.4,8.5,3.6,10.1c0.2,4.3,0,9.4,0,13.9c0,4.7,0.2,67.5,0,68.8H93.3
		c-0.5,1.4-0.2,2.7-1.3,4.7c-0.5,1.3-1.4,2.5-2.3,3.2c-2.5,2.2-4.1,2.7-8.3,2.9v11.5h68v-11.5c-4.1,0-6.1-0.9-8.5-2.9
		c-2.3-2.2-2.7-3.8-3.4-7.7h-11.9V49l35.6-0.2c0.2-3.1-0.5-2.7-4-6.3l-6.7-6.7c-0.4-0.5-0.9-0.9-1.3-1.3c-1.1-1.3-0.9-0.9-1.4-1.4
		c-0.9-0.9-0.2-0.9-1.6-0.9c-1.1-0.2-1.1-0.4-1.8-0.9l-26.1-18.9c-0.9-0.5-2.2-1.4-2.7-2.3c-0.9,0-10.6,3.1-12.4,3.6l-37.3,11
		c-8.3,2.3-16.7,4.9-25,7.2c-4.3,1.3-1.8-0.9-5.4,2.7L27,42.3c-0.7,0.7-3.2,3.4-4,4V48.6z"/>
	<polygon class="st0" points="82.5,94.1 101.7,94.1 101.7,89.8 82.5,89.8 	"/>
	<polygon class="st0" points="82.5,94.1 101.7,94.1 101.7,89.8 82.5,89.8 	"/>
	<polygon class="st0" points="82.5,94.1 101.7,94.1 101.6,89.8 82.5,90 	"/>
</g>
</svg>
