<?xml version="1.0" encoding="utf-8"?>
<!-- Generator: Adobe Illustrator 23.0.3, SVG Export Plug-In . SVG Version: 6.00 Build 0)  -->
<svg version="1.1" id="Layer_1" xmlns="http://www.w3.org/2000/svg" xmlns:xlink="http://www.w3.org/1999/xlink" x="0px" y="0px"
	 viewBox="0 0 184.3 184.3" style="enable-background:new 0 0 184.3 184.3;" xml:space="preserve">
<style type="text/css">
	.st0{fill:none;}
	.st1{fill:#FFFFFF;}
</style>
<g id="Layer_x0020_1">
	<g id="_2429233776704">
		<line class="st0" x1="28.5" y1="46.2" x2="28.5" y2="132.1"/>
		<polygon class="st1" points="28.7,46.2 28.7,132.1 28.4,132.1 28.4,46.2 		"/>
		<polygon class="st1" points="155.4,46.4 155.4,132.3 154.9,132.3 154.9,46.4 		"/>
		<path class="st1" d="M159.8,43.5c0.5-0.5,0.5-1.4,0.5-2.3c0-0.4-0.2-0.9-0.2-1.3c-0.4-0.9-0.4-0.7-0.9-1.1
			c-0.2-0.9,0.2-0.4-0.5-1.1c-0.2-0.2-1.1-0.5-1.3-0.7c-1.8-0.7-25.7-0.4-28.1-0.4c-10.8,0-21.6,0-32.4,0c0-4.9,1.1-11.7-4.7-11.7
			c-2.2,0-4.1,1.6-4.5,3.6c-0.4,1.8-0.2,6.1-0.2,8.1c-10.8,0-21.6,0-32.4,0c-5.4,0-10.8,0-16.2,0c-4,0-13-1.3-13.9,2.2
			c-1.3,0.9-1.3,3.4-0.5,4.7c0.7,1.6,1.8,2.5,4.1,2.5v2.3h127.1v-2.3C158,46.2,159.2,45.3,159.8,43.5z M99.3,116.8h18.9v-2.3H99.3
			V116.8z M40.2,57.9h18.9v-2.3H40.2V57.9z M40.2,65h18.9v-2.3H40.2V65z M99.3,88.5h44.6v-2.3H99.3V88.5z M99.3,107.4h44.6v-2.3
			H99.3V107.4z M99.3,98.1h44.6v-2.3H99.3V98.1z M40.2,119.1h47.2v-2.3H40.2V119.1z M132,70.2C131.9,70.2,131.9,70.4,132,70.2
			c-1.6-0.7-3.4-2.2-4.9-3.4c-1.4-0.9-3.2-2.7-4.7-3.2c-0.4,0.9-8.6,11.2-9.4,11.7l-9.5-4.7l-5.2,7.9l1.8,1.1l4.1-6.1l9.4,4.5l7-8.6
			c0.9-1.1,1.4-2,2.3-2.7c2,1.1,7.2,5.8,9.4,6.8c1.1-0.9,7.7-11,9.9-13.3l0.5,3.6c3.1-3.4,1.4-3.2,1.1-8.1c-4.1,0.5-5.9,0.4-7.2,3.6
			l3.4-0.5L132,70.2C132,70.2,132,70.4,132,70.2z M42.6,114.5h9.4V95.7h-9.4V114.5z M115.7,137.9l7,21.2h9.4l-7-21.2
			c6.1,0,12.2,0,18.5,0c3.1,0,6.1,0,9.2,0c3.8,0,5.9,0.2,7-2.7c0.5-0.5,0.5-1.4,0.5-2.3c0-0.4-0.2-0.9-0.2-1.3
			c-0.4-0.9-0.4-0.7-0.9-1.1c-0.2-0.9-0.4-0.9-1.3-1.4c-0.7-0.4-1.4-0.5-2.3-0.7H28.5c-2,0.2-3.2,0.9-3.6,2.2
			c-1.3,0.9-1.3,3.4-0.5,4.7c1.1,2.7,3.2,2.7,6.7,2.7c3.2,0,6.3,0,9.4,0c6.1,0,12.4,0,18.5,0l-7,21.1l9.5,0.2l7-21.2H115.7z
			 M59.1,114.5h9.4V81.5h-9.4V114.5z M75.7,114.5h9.4v-47h-9.4V114.5z"/>
	</g>
</g>
</svg>
