<?xml version="1.0" encoding="utf-8"?>
<!-- Generator: Adobe Illustrator 23.0.3, SVG Export Plug-In . SVG Version: 6.00 Build 0)  -->
<svg version="1.1" id="Layer_1" xmlns="http://www.w3.org/2000/svg" xmlns:xlink="http://www.w3.org/1999/xlink" x="0px" y="0px"
	 viewBox="0 0 184.3 184.3" style="enable-background:new 0 0 184.3 184.3;" xml:space="preserve">
<g id="Layer_x0020_1">
	<g id="_2429613260304">
		<path d="M115.6,119.1c6.1-7.7,17.1-5.2,22.3-8.6c7.4-4.7,4.9-14.2,3.2-23.8c-1.4-7.9-0.9-20.7-6.5-24.5c-3.6-2.3-8.8-3.1-13.1-0.9
			c-4.7,2.2-3.6,4-5.9,9.2c-20.5,5.2-33.1-3.6-31.1,11c-5-1.8-9.5-0.5-11.9,3.4c8.1,0.4,13.5-0.5,16.2-0.4
			c11.7,1.3,17.3-0.4,28.6-1.4l2.3,15.8c-17.3,5.8-30.6,23.9-31.5,40.1l-0.2-41.4l11.7-0.4V87.3c-8.6-1.3-30.4,0.5-38.2,0
			c-5.2-0.4-3.8,0.5-4.1-2.2c-0.7,1.3-0.7,1.1-1.6,2l-6.1-1.8c-2.9-1.3-2.7,0.9-2.5-4.3c0.2-0.2,0.5-0.2,0.7-0.2l2-0.5
			c0.2-0.2,0.5-0.2,0.7-0.2l1.4-0.5c0.2-0.4,0.5-0.2,0.7-0.4L51,52.3h-4.7c-0.7,5,0.7,12.2,0.9,17.6c0.2,5.2-1.1,2.3-1.6,7.7
			c-0.4,3.6,0.4,6.7,1.4,8.8l-13.3,0.2V97l6.5,0.2l0.2,51.1h45.9c3.2-1.1,0.9,1.8,2.2-3.2c2.5,3.6,6.5,5,11.2,2.2
			C105.7,143.6,104.5,122.5,115.6,119.1z"/>
		<path d="M115.6,119.1c0.2,2.9-0.5,0.7,0.9,2.7c4.9-0.5,9.4-4.1,14.6-3.8v23.2c-5.4,0.9-8.1-1.6-8.5,4c2.5,1.8,19.3,2.2,22.5,0
			c1.3-4.5-4.3-3.6-8.1-3.6v-24.3c5.2,0.5,10.6,3.6,13-2.5c1.4-4-0.4-11.5-0.9-16c-1.3-11.5,0-28.4-0.4-31.1
			c-0.4-3.6,0.5-1.1-1.3-3.4c-2.3,1.4-2,1.6-2.2,5v21.1c0.2,7.2,3.1,17.8,1.3,24.3c-4,1.1-9.7-1.3-16.2-0.4
			C124.3,115.5,120.9,117.7,115.6,119.1z"/>
		<path d="M109.2,49.5c1.1,5.9,6.8,10.4,14,9.4c5.9-1.1,10.8-6.7,9.5-14.2C130.2,30.4,106.1,33.1,109.2,49.5z"/>
		<path d="M57.7,84.7c2.9,0.2,11.9,1.3,15.1-0.2c-2-2.2,0.2-0.5-2.3-1.6l-10.8,0.2L57.7,84.7z"/>
	</g>
</g>
</svg>
