<?xml version="1.0" encoding="utf-8"?>
<!-- Generator: Adobe Illustrator 23.0.3, SVG Export Plug-In . SVG Version: 6.00 Build 0)  -->
<svg version="1.1" id="Layer_1" xmlns="http://www.w3.org/2000/svg" xmlns:xlink="http://www.w3.org/1999/xlink" x="0px" y="0px"
	 viewBox="0 0 184.3 184.3" style="enable-background:new 0 0 184.3 184.3;" xml:space="preserve">
<g id="Layer_x0020_1">
	<g id="_2429621522672">
		<path d="M74.5,96.1c0.9-0.4,6.8-4,7-5l-25.9,5c-2.5,0.5-4.7,2.2-5.4,4.7L44.2,126c-2.5,10.4-3.2,8.3,3.6,10.4c2,0.7,3.6,1.3,5.8,2
			c5.8,2,2.7,2.5,9.9,5.2c15.7,5.9,41.9,5.9,57.6-0.2c2.2-0.7,3.4-1.6,5-2.7c2.9-1.8,0-0.9,4.9-2.5c13.1-4.3,11.3-2.9,10.1-8.6
			c-0.4-1.3-0.5-2.7-0.9-4.1c-0.7-2.7-1.3-5.6-2-8.5l-2.9-12.4c-0.4-1.4-0.5-2.9-0.9-4c-2-5.2-8.3-5-14.4-6.3l-17.1-3.4
			c0.2,0.9,0.9,1.1,1.6,1.6c1.4,0.9,4.1,2.9,5.4,3.4l-5.8,17.6c-0.5,1.6-0.9,2.9-1.4,4.5c-0.5,2-3.4,12.1-4.3,12.8
			c0-1.4-2.5-10.8-2.9-13c-0.5-2.2-2.9-11.2-2.9-12.8c0-0.4,5.2-7,5.6-8.6c-2-0.2-4.3-1.8-5.9-1.8s-4,1.6-5.9,1.8
			c0.4,1.8,5.6,8.1,5.6,8.6l-4.5,19.4c-0.4,1.8-1.3,4.5-1.4,6.3c-0.9-0.7-2.7-7.4-3.1-8.6L74.5,96.1z"/>
		<path d="M68.7,65.5c0,5.6,2.2,6.7,4,9.4c0.2,0.2,2.7,5.4,4.5,8.3c2.9,4.3,8.6,11,15.1,11c7.6,0,14.6-10.4,17.8-16.7
			c2-4.1,0.2-1.1,2.5-3.8c1.8-2.2,4.1-7.2,2-10.1c-1.1-1.3-0.9-0.2-0.9-2.3c0-1.8-0.4-4.1-0.5-5.9c-0.7-4.1-1.6-6.5-3.2-9.7
			c-2.7-5-8.8-9.4-16.6-9.4H91c-11.9,0-18.2,8.8-19.8,18.7c-0.2,1.6-0.5,4-0.5,5.9c0,2.2,0.2,1.3-0.9,2.5
			C69.2,63.9,68.7,64.4,68.7,65.5z"/>
		<path d="M16.3,117.1v1.6c2.2,0.7,4.1,1.4,6.1,2.2c5.2,1.8,3.4,2.9,11.3,5c1.6,0.4,5,1.3,6.8,1.3l2.7-11.7
			c0.9-3.8,1.6-7.7,2.5-11.5c2.2-8.5,4.3-10.1,13.3-11.5c3.1-0.5,2.2-0.2,2.7-0.9c-2.3-0.2-4.9-1.4-7.4-1.4c1.4-2,3.2-2.5,6.3-9
			c0.4-0.9,4.3-4.9,2.7-8.1c-0.7-1.4-0.9,0.2-0.9-2.5c0-17.8-18.7-18.5-24.5-10.8c-1.1,1.4-2,2.9-2.5,4.9c-1.3,4.3-0.5,4-0.9,6.5
			c-0.2,2.2-2.2,1.8-0.9,5.6c0.7,2.3,1.8,2.9,2.9,4.7c0.9,1.8,1.4,3.1,2.7,4.7c1.1,1.6,2.2,2.5,3.4,4l-16.4,3.8
			c-2,0.5-3.4,0.7-4.5,2.3C20.5,97.7,17.2,116.1,16.3,117.1z"/>
		<path d="M167.9,118.8v-1.4l-4-16.6c-1.1-4.7-0.7-6.3-5.9-7.4c-2.5-0.5-15.1-3.6-16.6-3.6c0.5-0.9,2-2,3.6-4.1
			c1.1-1.6,1.8-3.1,2.7-4.7c0.9-1.8,2-2.2,2.9-4.7c0.4-1.1,0.5-2,0.2-3.1c-0.4-0.9-0.9-1.3-1.1-2.5c-0.2-1.3,0-2.5-0.2-3.6
			c-0.5-3.1-1.3-5.4-3.2-7.7c-5.2-7-24.1-7.9-24.3,11.2c0,2.5-0.7,1.3-1.3,2.7c-0.9,3.2,2.2,6.1,3.1,7.7c0.9,2.2,2.9,5.2,4.3,6.8
			c0.7,0.7,1.3,1.1,1.8,1.8c-2.5,0-5,1.3-7.4,1.4c0.7,0.9-0.2,0.4,1.4,0.7c3.1,0.7,6.7,0.7,9.5,2.9c1.3,0.9,2.5,2.2,3.2,3.8
			c2,4,5.9,26.5,7,28.4c1.8,0,5.4-0.9,7-1.3c4.9-1.4,5-2,8.3-4L167.9,118.8z"/>
	</g>
</g>
</svg>
