<?xml version="1.0" encoding="utf-8"?>
<!-- Generator: Adobe Illustrator 23.0.3, SVG Export Plug-In . SVG Version: 6.00 Build 0)  -->
<svg version="1.1" id="Layer_1" xmlns="http://www.w3.org/2000/svg" xmlns:xlink="http://www.w3.org/1999/xlink" x="0px" y="0px"
	 viewBox="0 0 184.3 184.3" style="enable-background:new 0 0 184.3 184.3;" xml:space="preserve">
<style type="text/css">
	.st0{fill:#FFFFFF;}
</style>
<g id="Layer_x0020_1">
	<g id="_2429380122032">
		<path class="st0" d="M106.1,128.2l-0.4-0.4L106.1,128.2z M105.7,127.8L105.7,127.8z M118.9,111.1L118.9,111.1
			C119.1,111.1,118.9,111.1,118.9,111.1z M119.6,109.6c0,1.8,0,0.5-0.4,1.1C119.2,108.7,119.2,110.2,119.6,109.6z M106.1,128.2
			c3.1,1.6,6.7,6.3,8.5,9.4c2.3,3.8,3.8,8.5,3.8,14.6c0,6.3-3.4,15.1-9,18.2c-0.9,0.5-2,1.1-3.1,1.6l-2.3,0.9
			c-0.2,0-0.4,0.2-0.5,0.2l-0.5,0.2c7.2,0,20-5.8,25.7-10.4c17.5-13.5,23.2-34.7,23.2-56.9c-1.4,1.6-6.8,23.2-17.6,30.4
			c0.4-1.8,6.3-11.7,7.2-22.1c0.9-11.5-0.7-24.3-6.1-33.3c-2.5-4.1-2.3-4.3-5.6-9c-4-5.6-11.3-13.1-16.9-16.9l6.3,11.2
			c5.8,12.4,6.7,28.6,1.4,41.6l-0.9,1.6c0.2-5.2,1.6-6.8-0.2-14.9c-1.3-5.6-4.3-12.6-7.9-16.9c-2.5-3.1-4.7-6.1-7.9-8.6
			c-2.9-2-9.4-9.5-11.7-12.8c-5.2-7.7-8.1-14.8-8.1-24.8c0-5.4,1.8-9.7,3.6-13.3c-5.6,1.3-14,6.8-17.6,11.3
			c-4.9,6.1-7.7,14.4-6.5,22.3c1.3,8.3,4.9,10.6,8.8,20.5c2.2,5.2,4,11.7,4.1,17.6c0.2,2.5-0.7,4.5-0.7,6.8
			c-2.2-3.2,0.5-4.7-12.6-14.6l-5.4-4c-3.6-3.2-5.9-5.4-7.2-11.2c-0.4-1.6-0.4-6.5,0-8.5l2-7.4c-7.9,5.2-12.6,17.1-10.1,26.6
			c1.4,5.4,4.9,8.5,8.3,13.9c4.1,6.5,6.8,14.6,4.5,22.7c-0.7,2.7-2.9,6.8-4.7,8.1c0.2-3.1,1.4-6.8,0.5-11.7
			c-1.3-6.7-4.3-11.7-9.7-15.5c-1.6-1.1-6.5-4-8.6-4.1c1.8,2.9,5.9,4.5,7.7,11.2c1.6,5.6-0.9,12.4-2,16.6c-1.6,5.4-2.9,9.7-2,16.4
			c1.6,11.5,5.2,18,12.6,25.7c8.3,8.3,22.9,12.8,34.9,13.3c1.6,0.2,2.2,0.4,4.3,0.4c2.2,0,2.9-0.4,4.7-0.4v-0.4
			c-6.7,0-12.2-1.8-15.7-5c-10.1-9.9,5.6-10.1-0.2-22.5c-0.5-1.3-1.1-2.2-1.8-3.2c-0.7-1.1-1.4-2-2.2-3.2c-3.2-5-0.7-12.2,2.9-14.8
			c-0.2,1.4-1.4,3.8-0.5,7.4c1.3,6.1,6.8,4.7,11.7,13.1c0.5,0.9,0.2,0.2,0.4,0.7c0.2-4.7,1.1-4.5-1.4-11.2
			c-1.6-4.7-8.3-11.3-1.6-20.2c1.6-2.2,5-4.9,8.1-5.6c-4.5,9.2,1.6,17.6,6.3,22.3c6.1,5.9,11.2,11.2,8.6,21.4
			c1.3-0.9,1.8-3.8,2.2-5.6c1.1-4.7,0.4-9.7-1.1-13.9C107.5,130.9,106.5,129.6,106.1,128.2z"/>
		<path class="st0" d="M102.9,49.3c3.8-2.5,5.4-7.7,5.4-13.3c0-7.9-4-11.5-4-19.3c0-1.8,0.2-6.1,0.7-7.2
			c-4.3,1.1-10.3,12.1-9.5,18.5C96,33.9,98.7,46.6,102.9,49.3z"/>
		<path class="st0" d="M115.1,47.9c0,3.8,2.9,7.7,5,9.4c2.5-3.8,4.5-7,4-12.2c-0.4-4.7-3.2-9.2-6.1-11.2c0,3.4-0.2,4.7-0.9,7.4
			C116.4,43.8,115.1,45.6,115.1,47.9z"/>
	</g>
</g>
</svg>
