<?xml version="1.0" encoding="utf-8"?>
<!-- Generator: Adobe Illustrator 23.0.3, SVG Export Plug-In . SVG Version: 6.00 Build 0)  -->
<svg version="1.1" id="Layer_1" xmlns="http://www.w3.org/2000/svg" xmlns:xlink="http://www.w3.org/1999/xlink" x="0px" y="0px"
	 viewBox="0 0 184.3 184.3" style="enable-background:new 0 0 184.3 184.3;" xml:space="preserve">
<style type="text/css">
	.st0{fill:#010101;}
</style>
<g id="Layer_x0020_1">
	<g id="_2429619225232">
		<path class="st0" d="M39.3,59.7c2.7-0.7,5.8,2.3,3.1,5.4c-9.5,11-12.1,26.5-6.5,40.1c1.1,2.5,2.5,5,3.8,7c0.5,0.9,1.8,2,1.8,3.4
			c0.2,1.8-0.9,2.7-2,3.2c-2.7,1.3-4.7-2-5.9-4.3c-7.7-12.4-9.5-29-3.2-42.5C31.4,69.7,36.4,60.6,39.3,59.7z"/>
		<path class="st0" d="M129.9,71.4c-0.7-2.9,3.2-5.8,5.9-2.2c2.9,3.8,5,7.9,6.3,13c2,8.8,0,18.5-4.1,25c-1.1,1.6-2,3.6-4.5,3.2
			c-2-0.4-3.2-2.7-2.2-4.7c0.5-0.9,1.1-1.4,1.4-2.3c4-6.8,4.9-14.2,2.5-21.8C133.5,75.5,130.2,72.8,129.9,71.4z"/>
		<path class="st0" d="M157.8,90.4l-0.5,6.3c-0.4,1.1-0.9,4.9-2,8.1c-1.3,4-3.6,8.5-6.1,11.9c-3.6,5.2-7,1.4-6.7-1.1
			c0.2-0.9,2.9-4.9,3.8-6.3c4-6.8,6.1-17.6,4.3-25.6c-1.4-6.3-4-12.6-7.9-17.3c-0.7-0.9-1.8-1.6-2-3.1c-0.5-3.2,3.2-4.9,5.6-2.5
			c5.8,5.8,10.1,16.2,11.2,24.8C157.6,86.5,157.6,89.9,157.8,90.4z"/>
		<path class="st0" d="M82.2,44.7h19.3c1.1,0,1.4,0.2,1.3-0.9c-0.9-0.4-14.8-0.2-17.8-0.2c-0.9,0-2.3-0.2-3.1,0
			C80.5,43.8,80.5,44.7,82.2,44.7z"/>
		<path class="st0" d="M49,67.9c4.5-1.3,4.3,1.3,5,2.3c-0.4,1.3-0.4,1.8-1.1,2.7c-4.3,5.6-6.5,11.7-5.8,19.3
			c0.5,4.5,1.8,7.6,3.6,10.8c0.7,1.4,2.3,2.9,1.8,4.9c-0.5,1.8-2.5,2.9-4.7,1.8c-1.6-0.9-4.5-6.7-5.2-9c-3.4-10.1-2.3-20,3.2-28.8
			L49,67.9L49,67.9z"/>
		<path class="st0" d="M119.4,131.1c-0.2,3.2,0.2,4.7-0.5,7.7c-0.4,0.4-0.9,1.8-1.4,2.3c-2.9,3.6-5.2,3.2-7.9,3.6
			c-3.1-0.2-29.5-0.4-30.6,0.2c-0.5-0.9-8.6,2-12.8-4.1c-1.6-2.2-1.6-4-1.6-7V91c0-11.3,0.2-23,0-34.2c-0.2-5.6-0.7-11.3,2.7-14.6
			c1.4-1.4,3.1-2.5,5.8-2.7c0.9-0.2,8.3,0.2,8.3-0.2c0.9,0.4,24.1,0.4,25.2,0c0.5,0.5,7.6-1.4,11.3,4.1c1.3,2,1.6,3.4,1.6,6.1
			c0,2.5,0,5,0,7.6v2.5C119.4,59.7,119.4,131.1,119.4,131.1z M115.5,129.9c0.2-1.3,0-70,0-74.2c0-2.9,0.4-5.2-1.6-6.5
			c-1.8-1.3-5-0.7-7.4-0.7H73.7c-1.6,0-2.3-0.2-3.6,0.5c-2.7,1.6-1.8,6.3-1.8,10.6v66.1c0,2.9-0.4,5.4,1.6,6.7
			c1.6,1.1,5.2,0.7,7.6,0.7h32.8C113.1,133.1,114.9,132.4,115.5,129.9z M88.5,139.9c0.9,4.7,8.1,3.2,7.2-1.4
			C94.6,133.8,87.4,135.1,88.5,139.9z"/>
		<path class="st0" d="M64,125.4C65.6,136.9,62.4,114.2,64,125.4z"/>
	</g>
</g>
</svg>
