<?xml version="1.0" encoding="utf-8"?>
<!-- Generator: Adobe Illustrator 23.0.3, SVG Export Plug-In . SVG Version: 6.00 Build 0)  -->
<svg version="1.1" id="Layer_1" xmlns="http://www.w3.org/2000/svg" xmlns:xlink="http://www.w3.org/1999/xlink" x="0px" y="0px"
	 viewBox="0 0 184.3 184.3" style="enable-background:new 0 0 184.3 184.3;" xml:space="preserve">
<style type="text/css">
	.st0{fill:#FFFFFF;}
</style>
<g id="Layer_x0020_1">
	<path class="st0" d="M41.5,110.1v-1.6h104v32.2c0,4.7-4.1,9-8.1,9H49.8c-2.5,0-5.2-2.2-6.3-3.8c-2.7-4-1.6-8.8-1.6-10.8l-0.2-3.2
		c0-1.3,0.2-1.6,0.2-2.3l-0.4-3.4c0-1.3,0.2-1.6,0.2-2.2l-0.2-3.4c0-1.3,0.2-1.6,0.2-2.3l-0.2-3.4c0-1.3,0.2-1.6,0.2-2.3
		C41.7,111.7,41.5,111.4,41.5,110.1z M136.2,83.8h9.4v16.9h-27.7c1.1-1.6,11.3-10.8,13.5-12.8C132.2,87.3,135.1,83.8,136.2,83.8z
		 M88,100.8l17.1-16c1.3-1.1,3.8-0.7,6.1-0.7c4.5,0,9,0,13.5,0c-0.5,0.9-2.2,2.5-3.2,3.2l-12.1,11.2c-2.5,2.5-1.6,2.3-4.5,2.3H88z
		 M57.9,100.8l17.1-16c1.3-0.9,0.9-0.7,2.7-0.7h16.9c-1.4,2-13,12.1-15.3,14.4c-3.1,3.1-1.3,2.3-7.9,2.3
		C66.9,100.8,62.4,100.8,57.9,100.8z M46.6,100.8c-6.7,0-5,0.5-4.9-5.2l-0.2-3.2c0-1.3,0.2-1.6,0.2-2.3l-0.2-4c0-0.9,0.2-1.1,0.4-2
		h22.9L51.2,96.6c-1.1,0.7-1.4,1.3-2.2,2C48.5,99.3,47.5,100.8,46.6,100.8z M38.5,66c0-2.3,1.8-7.4,3.6-7.4
		c0.9,0,19.1,10.3,21.1,10.8c-0.5,0.7-1.3,0.7-2.5,0.9c-3.1,0.9-18.4,5.2-20,5.2C40.4,73.2,38.5,68.4,38.5,66z M51.8,54.9
		c1.3,0,14.4-3.8,16.7-4.3c1.6-0.4,1.6-0.5,2.7,0.2l20.9,11.3l-5.6,1.3c-1.8,0.5-3.6,0.9-5.6,1.6c-7.2,2-6.3,2.7-10.6,0.2
		c-1.6-0.9-3.1-1.6-4.7-2.5c-1.6-0.9-3.1-1.4-4.7-2.5c-0.9-0.5-1.4-0.7-2.2-1.3c-0.9-0.5-1.4-0.9-2.3-1.3L51.8,54.9z M80.6,47.3
		c2-0.2,17.5-4.9,18.4-4.9c0.4,0,10.1,5.2,11.2,5.8c1.1,0.5,1.8,0.9,2.9,1.4c1.3,0.5,7.7,4,8.1,4.7l-16.7,4.5
		c-2.2,0.5-1.8,0.2-5-1.4L80.6,47.3z M109.9,39.4l13.9-3.6c4.7-1.3,2.3-1.3,7.4-1.3c3.1,0,5.9,2.9,7,4.9c0.5,1.1,2.5,8.1,2.5,9.5
		c-1.4,0-3.4,0.7-4.7,1.1c-7,1.8-2.7,1.8-12.4-2.9c-1.1-0.5-1.8-0.9-2.9-1.4L109.9,39.4z M31.1,65.7c0,4,1.6,8.1,2.5,11.5
		c1.3,4.7,0.9,7.7,0.9,13c0,9.4,0,18.5,0,27.7c0,6.3-0.7,22.5,0.5,27c1.6,6.7,8.5,12.4,15.3,12.4h86.8c4.1,0,9-2.3,11.3-5.2
		c3.1-3.6,4.7-6.8,4.7-12.2V81c0-4.3-3.2-4.5-6.8-4.5H67.1l0.2-0.2c0,0,0.2,0,0.2-0.2l73.1-19.6c9.4-2.5,9.4-2.3,7.6-9.4
		c-0.9-3.8-2.3-9.7-4.1-12.4c-2.3-3.6-5.2-5.9-9.4-7c-4.9-1.6-7.4-0.5-11.9,0.5L48.2,48.4c-5.6,1.6-12.4,3.1-15.5,10.3
		C31.8,60.4,31.1,63.1,31.1,65.7z"/>
</g>
</svg>
