<?xml version="1.0" encoding="utf-8"?>
<!-- Generator: Adobe Illustrator 23.0.3, SVG Export Plug-In . SVG Version: 6.00 Build 0)  -->
<svg version="1.1" id="Layer_1" xmlns="http://www.w3.org/2000/svg" xmlns:xlink="http://www.w3.org/1999/xlink" x="0px" y="0px"
	 viewBox="0 0 184.3 184.3" style="enable-background:new 0 0 184.3 184.3;" xml:space="preserve">
<g id="Layer_x0020_1">
	<g>
		<path d="M162.1,64.4c-1.3-0.2-2.7,0-4,0h-4.3v-8.6c0,0-0.2-0.2-0.2-0.4c-0.7-2.5-2.2-2.3-4.5-2.3v-0.2h-7l0,0h-7.6
			c-4.1-0.2-8.6,0.2-12.8,0c-0.7,0-9.4,0.2-11.7,0h-7.7l0,0H92.1h-9.7h-4.7c-0.2,0-0.2,0-0.2-0.2h-6.7v0.2h-8.1L37,52.7
			c-4.1,0.7-14.9-1.3-16.9,0.9c-1.3,1.4-0.7,6.1-0.7,8.3c0,3.1,0.2,6.1,0,9.2v24.5c0.2,0.7,0.2,15.7,0.2,17.6c0,2.9-0.5,6.1,2.3,6.7
			c2.3,0.4,6.3-0.2,8.8,0.2c0.4,2.5-0.4,6.8,0.2,9c0.7,2.9,4.3,2.2,7,2.2c3.1,0,6.1,0,9.2,0c2.9,0,6.7,0.2,9.4,0l23,0.2h11.2h24.7
			h11.2h24.7c10.8-0.5,13.9,1.8,13.9-4.5c0-3.1,0-5.9,0-9c0-2-0.2-7.4,0-8.6l-0.4-41.4C164.8,66.2,164.3,64.4,162.1,64.4z
			 M78.2,58.8h6.1l-4.1,0.9c-4.9,1.1-8.1,4.5-9,4.7h-23c-2.7,0.5-5.9-0.7-6.5,2.3c-0.4,1.6-0.2,2.2-0.7,3.8
			c-0.9,2.2-2.3,3.6-4.5,4.5c-1.6,0.7-2.2,0.5-3.8,0.7c-3.1,0.5-2.2,4-2.3,7c0.2,0.9,0,4.9,0,6.3c0,8.3-0.9,8.3,4.3,9
			c3.2,0.5,5.9,3.2,6.7,6.7c0.5,2.2,0.2,4,2.3,4.3c3.1,0.7,10.1-0.5,13.1,0.2h12.6c2.3,0,1.6-0.2,3.2,0.9c3.2,2.5,6.7,3.8,11.7,4.7
			H62.9h-36h-2l0.2-24.1V77V58.8h17.5l14.9-0.2L78.2,58.8z M74.1,125.9H61.8H36.1v-2v-3.6h32h33.7h36c3.1-0.2,6.5,0,9.5,0
			c3.2,0,6.3,0.5,6.5-3.1c0.2-3.2-0.2-17.6,0-19.1V69.9h5.6v34v22h-13.7h-13.9h-22H96C96,125.9,74.1,125.9,74.1,125.9z M125.4,69.9
			c1.3,0,0.5-0.2,0.9,0.5c0.4,0.7,0.4,3.2,3.6,6.3c1.6,1.6,4,3.4,7.2,4v5v6.7c-1.4,0.7-2.5,0.7-4,1.6c-2.3,1.4-4.1,3.2-5.4,5.6
			c-0.7,1.3-0.9,2.7-1.4,4h-2.7H107c1.1-1.8,2-3.4,2.9-5.6c1.3-3.2,1.3-4.7,1.8-6.5c0.4-4.9,0.5-7.7-0.5-12.2
			c-1.1-4.1-2.3-6.3-4.1-9.4H125.4z M142.7,86.9c-0.5-10.3,1.4-10.8-4.3-11.5c-2.7-0.4-4.9-2.2-6.1-4.3c-2.2-4.1,1.8-7.7-9-6.7
			c-6.1-0.4-13.9,0-20.2,0c-2.7,0-2.2-1.3-6.7-3.2c-2.9-1.4-4.5-1.6-7.7-2.2l40.3-0.2h19.1v15.8v18.2v22h-13.7H98.7H89
			c3.2-0.9,4.7-0.9,7.7-2.3c7.9-4.3,1.6-3.2,14.6-3.2c5.8,0,12.1-0.2,17.8,0c3.2-1.3,1.8-2.9,2.9-5.9c0.9-2.2,2.3-3.6,4.3-4.5
			c2.3-1.1,5.4-0.2,6.1-2.9C143,93.5,142.3,89.2,142.7,86.9z M53.6,69.9h12.8c-1.4,2.9-2.7,4.7-3.8,8.3c-1.3,4.3-1.1,7-1.3,11.5
			c0.4,0.7,0.5,4.1,1.8,7.7c0.9,2.5,2,4.1,3.1,6.3l-14.8-0.2c-0.9,0.2-3.6,0.2-4.5-0.2c-0.5-0.7-0.9-2.9-1.6-4
			c-0.9-1.4-1.3-2-2.3-3.1c-3.2-3.2-4.3-2.7-7-4v-4.5v-7.2c1.3-0.5,2.5-0.7,4-1.6c2.3-1.3,4.1-3.1,5.6-5.4c0.9-1.4,0.9-2.5,1.6-4
			L53.6,69.9z M101.8,120.3c0.4-0.9-0.2-0.2,0.5-0.9c0.2-0.2,0.4-0.4,0.5-0.4v-0.2l0,0l0,0l0,0c0.5-0.5-0.7,1.3,0,0l0,0l0,0l0,0l0,0
			c0,0,0,0,0,0.2c-0.2,0-0.4-0.2-0.9-0.7c-0.4-0.5-0.7-0.7-1.1-1.1c-1.1-1.1-1.8-1.6-2.2-2.5L101.8,120.3z M102.9,119.1L102.9,119.1
			L102.9,119.1z M92.6,108.1c-10.6,3.6-20.3-2.5-24.1-12.8c-0.9-2.2-2.2-9-1.3-11.2c0-5.4,2.9-10.3,5.4-13.3
			c2.5-2.9,5.9-5.2,9.9-6.3l2.2-0.5c2.7,0.5,4-0.5,9,1.6c7,3.1,12.6,11.9,12.4,20.2c0.4,7.6-3.1,14.6-8.1,18.9
			C95.5,107,94.8,106.8,92.6,108.1z M83.8,73.4c-2.5,0.5-4.9,3.4-5.4,6.3c-0.9,5.2,2.9,9.4,7.6,9.9c1.8,0.2,3.2,0.5,3.4,2.3
			c0.2,1.8-1.1,3.2-2.7,3.2c-3.1,0-1.8-2.7-3.6-2.7h-4.9c0.2,4,2.5,7,5.6,7.7v3.2l5.6,0.2v-3.2c2.7-1.4,4.7-2.7,5.4-6.3
			c1.1-5.2-2.5-9.5-7.4-10.1c-2-0.2-3.2-0.5-3.6-2.2c-0.4-1.8,0.9-3.2,2.5-3.4c3.2-0.2,2.2,2.7,3.8,2.7H95c-0.2-3.2-2.2-7-5.6-7.7
			v-3.2c-1.8-0.4-3.8-0.2-5.6-0.2V73.4z"/>
	</g>
</g>
</svg>
