<?xml version="1.0" encoding="utf-8"?>
<!-- Generator: Adobe Illustrator 23.0.3, SVG Export Plug-In . SVG Version: 6.00 Build 0)  -->
<svg version="1.1" id="Layer_1" xmlns="http://www.w3.org/2000/svg" xmlns:xlink="http://www.w3.org/1999/xlink" x="0px" y="0px"
	 viewBox="0 0 184.3 184.3" style="enable-background:new 0 0 184.3 184.3;" xml:space="preserve">
<g id="Layer_x0020_1">
	<path d="M75.2,160.8c0.4-0.9,0-0.2,0.5-0.9l11.7-10.4c0.7-0.9,1.1-1.1,2-1.8c0.7-0.7,1.1-1.3,2-1.8l16.2-14.4l4.3,29.3H75.2z
		 M79.5,112.7c1.4,0.5,24.7,14.8,25.9,15.7l-24.7,22.1c-0.7,0.7-1.3,1.3-2,1.8l-6.3,5.4L79.5,112.7z M82.9,110.5
		c0.5-1.1,8.1-7.4,9.4-8.6c1.4-1.3,8.6-8.1,9.5-8.5l4.7,31.5l-12.1-7.2c-2.2-1.3-3.8-2.3-5.9-3.6C87.1,113.1,84.2,111.6,82.9,110.5z
		 M82.9,90h16.7c-0.7,1.4-3.6,3.6-4.7,4.7l-13.9,12.6c-0.5,0.5,0.2,0-0.7,0.5L82.9,90z M122.5,76.5c0.4-1.4,0-0.5,0.7-1.3
		c2.5,3.8,9.2,8.6,11,11.3h-13.1L122.5,76.5z M83.5,86.6c0.4-2.7,5.9-10.1,7-11c0.9,1.8,2.3,3.8,3.4,5.6c0.9,1.3,2.7,4,3.2,5.4H83.5
		z M61,75.8v10.8h-9.7L50,86.4L61,75.8z M63.3,86.6c2-2.9,5.2-5.9,7.4-8.3c0.5-0.5,0.9-1.1,1.4-1.8c0.5-0.5,2.5-2.7,3.1-3.1
		c0.7,2,1.6,4.1,2.3,6.1c0.5,1.3,0.9,2.2,0.9,3.6c-0.2,2.7-0.4,3.1-1.1,3.2h-14V86.6z M106.9,86.6c-0.9-0.5-0.5,0-0.9-1.6
		c-1.4-7.4-0.2-5.2,2.9-11.7l9.9,13.1L106.9,86.6z M85.8,71.8c2.3-0.4,2.9,0.4,3.6,2.2l-4.9,6.5L85.8,71.8z M104,71.7h3.8
		c-0.5,1.6-2,4.3-3.1,5.2L104,71.7z M100.2,84.3l-7-12.4l5.4,0.2L100.2,84.3z M79.1,78.7c0-0.5-2.2-5.4-2.7-7h3.8L79.1,78.7z
		 M112.6,75.1c-0.7-1.1-1.6-2-2.2-3.2c4.1,0,10.1-0.9,10.8,1.8c0.2,0.9-1.3,9.5-1.6,10.8L112.6,75.1z M62.8,75.1
		c0-4.5,5.9-3.2,11.3-3.2L64.4,83c-0.5,0.5-0.9,0.9-1.4,1.3L62.8,75.1z M95.9,54l2,14.2h-8.1l-1.4-2.2L95.9,54z M88.9,51.1h4.5
		c-0.5,1.4-2,3.4-2.9,4.9c-0.5,0.9-0.9,1.6-1.6,2.5l-1.6,2.3L88.9,51.1z M114.1,40.7c1.6,1.3,6.7,6.3,7.9,8.1l-9.4-0.2L114.1,40.7z
		 M100.6,48.6c-0.7-2.5,0.5-4.1,2.3-7.2l1.3-2l0.2,0.2l0.2,0.2l0.7,0.9c0.2,0.4,0.5,0.7,0.7,1.1l5,6.8H100.6z M89.4,48.8
		c-0.4-3.4,0.9-7.9,2.9-9.4c1.6,2.2,3.2,5.6,2.9,9.4H89.4z M71.6,48.8c0.7-1.3,0.9-1.1,2-2.2c0.7-0.7,1.3-1.6,2-2.3
		c0.7-0.9,1.4-1.4,2.2-2.3c1.3-1.4,1.3-1.8,2.5-2.3c0.5,2,3.2,7.7,3.2,9.4L71.6,48.8z M62.2,48.8c0.9-1.4,6.3-7,7.7-7.7v7.7H62.2z
		 M99.1,38.2h4.3l-3.6,6.1L99.1,38.2z M84,46.1l-2.9-7.9h4.3L84,46.1z M111.5,46.8c-0.9-0.7-5.6-7.4-6.7-8.6
		c2.3-0.2,7.2-0.7,7.7,1.3C113,40.3,111.9,46.1,111.5,46.8z M71.2,47c0-9-1.4-9.2,8.1-8.8L71.2,47z M92.3,29.7l0.7,5.9h-2L92.3,29.7
		z M85.6,35.7c-3.6,0.2-7.6,0-11.2,0c-3.8,0-2.5-0.2-7.2,4.1c-2.2,2-9.5,9.2-11.2,11.3H61v3.4H64V51h19.1l-2.5,16.9
		c-2.3,0.5-11.9,0.2-14.8,0.2c-3.4,0-4.9,2.5-9,6.5c-1.6,1.6-14.6,13.7-15.5,15.3h7.7v5h4.3v-5h23.8c-0.5,5.6-1.8,12.1-2.7,17.8
		l-6.7,44.3c-0.2,1.6-0.5,2.9-0.7,4.5c-0.2,0.7-0.2,1.6-0.4,2.2c-0.2,1.4,0,1.3-0.9,1.8H48.7v12.4h87.1v-12.4l-17.6-0.2
		c-0.9-0.4-0.9-2.3-1.3-4.1l-4.7-31c-1.4-9.4-4.5-27.2-5.4-35.5h23.8v5l4.3,0.2v-5h7.9c-0.9-1.6-16.7-16.6-19.3-18.9
		c-1.4-1.4-1.8-2.9-4.9-2.9c-3.2,0-12.6,0.4-15.1-0.2l-2.7-16.7h19.3v3.6h3.1v-3.6l4.9-0.2c-2-2.7-11.2-11.2-13.9-14
		c-1.6-1.6-1.3-1.4-4.5-1.4c-3.6,0-7.4,0.2-11,0L95,11.2h-5.6L85.6,35.7z"/>
</g>
</svg>
