<?xml version="1.0" encoding="utf-8"?>
<!-- Generator: Adobe Illustrator 23.0.3, SVG Export Plug-In . SVG Version: 6.00 Build 0)  -->
<svg version="1.1" id="Layer_1" xmlns="http://www.w3.org/2000/svg" xmlns:xlink="http://www.w3.org/1999/xlink" x="0px" y="0px"
	 viewBox="0 0 184.3 184.3" style="enable-background:new 0 0 184.3 184.3;" xml:space="preserve">
<style type="text/css">
	.st0{fill:#FFFFFF;}
</style>
<g id="Layer_x0020_1">
	<g id="_2429229990192">
		<path class="st0" d="M42,42.4c-1.4,7.4-1.6,118.4,2.5,121.5c5,1.6,36.4,1.8,40.9,0.4c2.5-5,1.8-95.9-0.2-99.7
			c-2.9-3.1-4.9,6.1-15.3,6.1l-8.8-32.6C55,37.7,46.7,40.8,42,42.4z"/>
		<path class="st0" d="M112.4,71.6c-4.5-0.5-10.4-5.2-13.9-7.9C95.1,80.6,98,129,98,152.6c0,7.7-0.5,9,2,11.3
			c4.7,3.1,34.6,1.8,40.9,0.4c2.5-6.7,2.5-18.9,1.4-27.7c-8.3-1.1-6.7,4.9-18.9-0.2c-11.7-4.7-11.7-6.1-11.7-18.4
			c0-7.4-0.4-16,1.3-22.3c13.3-2.2,25.7,0,28.3-2.5c2.3-2.9,2.5-44.3,0.5-49c-2.7-4.3-15.3-5.8-19.8-5.9
			C120,47.8,117.8,65.4,112.4,71.6z"/>
		<path class="st0" d="M142.3,131.5c0.2-0.9,1.6-38-1.4-33.1l-4.3-1.4c-4.9-0.7-17.3-0.4-21.2,1.1c-2,5.9-2.7,28.4,1.3,32.2
			c1.1,1.1,10.6,5,12.6,5.4C134.4,136.4,139.4,133.5,142.3,131.5z"/>
		<path class="st0" d="M91.9,54.1c5.2-5.4,8.8-14.6,13-21.8c8.6-15.1,6.3-13.5-13-13.7c-18.7-0.2-21.1-1.8-13.3,12.8
			C80.7,36.1,87.4,51,91.9,54.1z"/>
		<path class="st0" d="M90.1,137.1c1.4-0.9-0.7-3.4,4.3,0c-0.9,0.9,1.8,1.4-1.8,1.6C89.9,139.1,91.5,139.2,90.1,137.1z M90.3,103.8
			c2.9-1.4-0.2-2.5,4.3-0.2C92.6,106.7,93.9,109.5,90.3,103.8z M91.9,71.2c5.9,5.9,0.5,3.2,0,4C91.2,74.6,86.5,76.8,91.9,71.2z
			 M91.9,63.3c5,5.4,0.4,3.2,0,3.8c-1.8-1.8-0.7,0.2-0.9-2.5C90.5,60.2,90.5,64.9,91.9,63.3z M88.8,84.7c0,5.6-0.7,74,1.4,79.7
			l4.1,0.5c2.3-5.2,0.9-57.2,0.7-68.8c0-4.7,0.4-31.9-0.4-34c-0.4-0.9-0.4-4-3.6-2.3C86.9,61.5,88.8,74.4,88.8,84.7z"/>
		<path class="st0" d="M95.1,56.4c1.8,2.7,11.3,10.6,15.8,12.1c3.8-5.9,5-15.5,7-23c2.9-11,3.2-15.1-4.3-21.8
			C110.3,26,96.2,51.8,95.1,56.4z"/>
		<path class="st0" d="M71,68.5c5.9-1.6,12.8-7.7,17.1-12.1c-1.3-5.9-14.4-29.7-18.2-33.1C57.9,34.3,66.7,43.8,71,68.5z"/>
	</g>
</g>
</svg>
