<?xml version="1.0" encoding="utf-8"?>
<!-- Generator: Adobe Illustrator 23.0.3, SVG Export Plug-In . SVG Version: 6.00 Build 0)  -->
<svg version="1.1" id="Layer_1" xmlns="http://www.w3.org/2000/svg" xmlns:xlink="http://www.w3.org/1999/xlink" x="0px" y="0px"
	 viewBox="0 0 184.3 184.3" style="enable-background:new 0 0 184.3 184.3;" xml:space="preserve">
<g id="Layer_x0020_1">
	<g id="_2429622863312">
		<path d="M65.1,148.8H51.2c-3.6,0-6.7-2-6.7-5.4v-35.1c0-3.4,2.5-5.4,5.9-5.4h16.2c3.8,0,5.8,2.9,5.8,6.8v32
			C72.3,146.8,70,148.8,65.1,148.8z M26.6,103.8v47.7c0,11.3,7.4,17.1,18.2,17.1h18.5c7.4,0,11.9-1.6,15.5-7c0.7-1.1,2-4,2-5.6
			v-53.6c0-3.4-1.1-9.7-2-12.8c-2.7-9.4-4.1-12.1-11-18.7c-2.2-2.2-5-5.9-5-9.9V31.1H45.3c-1.4,0-0.9,2.3-0.9,4.9
			c0,4.7,0.4,26.1-0.4,28.1c-2.2,6.3-6.1,7.9-10.1,13.1C29.5,83.3,26.6,96,26.6,103.8z"/>
		<path d="M110.5,160.5l-16.6-5.9l6.3-17.3c0.7-2,1.4-3.8,2.2-5.9l10.8-29.2c2-5.6,14.2-38.2,14.9-41c2.3,0,14.6,5.6,16.6,5.6
			l-2,5.8c-5.2,13-10.1,28.1-15.1,41l-15.1,41C111.9,155.8,110.5,158.9,110.5,160.5z M133,48.2c1.8,0.9,14,4.7,16.2,5.8
			c0,0.9-1.8,5.6-2.2,6.3l-16.2-5.9C130.8,53.4,132.6,48.9,133,48.2z M85.8,155.4c0,1.6-0.2,3.6,1.6,4.7l20.7,7.7
			c4.9,1.8,5.9,1.6,8.3-4.5c0.9-2.5,1.8-4.9,2.7-7.4c3.1-9.2,7.6-20.5,11-29.9l27.5-74.9c0-1.4-1.4-1.8-2.5-2.3
			c-1.3-0.5-2.3-0.9-3.4-1.3c-2.9-1.1-20-7.7-22.1-7.7c-2,0-2.3,2.5-3.8,6.1c-0.5,1.3-0.9,2.2-1.3,3.6c-0.5,1.4-0.9,2.2-1.4,3.6
			L85.8,155.4z"/>
		<path d="M109.6,27.5c0,7-0.2,10.6-3.2,16.9c-4.9,10.3-14,13.1-7,32.2c0.4,0.9,0.7,2.2,1.4,2.7c0-23.6,22.5-31.7,12.8-52.7
			c-0.9-1.8-3.8-6.7-5-7.6C108.8,21.7,109.6,23.5,109.6,27.5z"/>
		<path d="M45.1,21.2v7h14c2,0,2.5-0.4,4.5-0.4c0-3.4,0.5-7.9-1.4-10.1c-1.3-1.4-2.5-2.2-4.1-2.3h-7.4
			C47.8,15.4,45.1,18.1,45.1,21.2z"/>
	</g>
</g>
</svg>
