<?xml version="1.0" encoding="utf-8"?>
<!-- Generator: Adobe Illustrator 23.0.3, SVG Export Plug-In . SVG Version: 6.00 Build 0)  -->
<svg version="1.1" id="Layer_1" xmlns="http://www.w3.org/2000/svg" xmlns:xlink="http://www.w3.org/1999/xlink" x="0px" y="0px"
	 viewBox="0 0 184.3 184.3" style="enable-background:new 0 0 184.3 184.3;" xml:space="preserve">
<style type="text/css">
	.st0{fill:#FFFFFF;}
</style>
<g id="Layer_x0020_1">
	<g id="_2429456699232">
		<path class="st0" d="M60.6,72.6c-0.5-2-2.2-8.6-2.2-11c0.2,0.9,1.6,4.5,2.2,5.6c2.7,7.2,1.6,6.3,17.3,6.1c2,0,2-0.2,3.1,0.7
			c2.9,2.5,12.2,11.9,14.2,13.1c0.5,7-4.5,14-10.1,15.3c1.6,13.5-0.2,9.2-0.5,15.5h18.7c0.5-4.3,0-5.9,1.6-10.1
			c6.1-15.5,26.5-19.3,37.4-7.2c5.4,5.8,5.6,10.4,5.9,17.3h4.7c1.1-2,2.2-5.4,3.1-7.6c5.8-15.1,7.7-15.5-0.4-20.7
			c-4.1-2.7-8.8-5-14.2-6.8c-9.2-3.1-10.3-2-17.5-3.2c-0.2-2.2-0.2-9.9,0.2-11.7c0.7-3.1,3.1-5,6.5-5.2v-3.6
			c-4.9,0.2-8.1,2.7-9.5,6.3c-1.3,3.2-0.9,10.4-0.9,14.4c-4.3,1.1-7.7,0.2-16.2,2.9s-5.2,2.7-11.9-3.1l-7.4-7
			c-4-3.6-1.3-4.5-4.7-4.9c-2.7-0.4-10.3,0.4-13.5-0.2c-1.3-3.1-2.5-6.7-4-9.9c-3.2-8.3-14.4-5.8-14.6,2.2c-0.2,3.6-0.2,9.7,0,13.3
			c1.8-0.2,4-0.5,5.9-0.7C56.4,72.4,58.4,72.6,60.6,72.6z"/>
		<path class="st0" d="M52.8,137.6c-7-6.7-20-7-27.5-0.2c-2,1.8-2.3,1.8-2.3,5.2c0,2.2-0.2,5.4,0.2,7.4h138.2v-10.4
			c-2.7-2.3-3.4-3.6-7.2-5.2c-3.1-1.4-6.8-2.2-10.6-1.8c-10.1,0.9-14,7.9-15.8,9.2c-1.4-2.2-4.7-5-7-6.5
			c-10.4-5.9-21.4-2.2-28.3,6.3c-1.4-1.1-2.2-2.5-3.2-3.6c-7.6-6.3-16.2-7.6-25.2-2.9c-4.3,2.3-5.6,5-7.2,6.3L52.8,137.6z"/>
		<path class="st0" d="M53.9,98.5c13.9-3.4,18.9,17.8,4.7,21.1C45.1,122.8,39.7,102.1,53.9,98.5z M30.3,111.7
			c0.5,4.1,1.4,6.8,3.2,9.9c4.9,9.2,7,6.5,11.7,7.9c3.4,0.9,6.1,2.2,9,4.3c3.6,2.7,2.2,2,6.1-0.7c0.5-0.4,1.3-0.9,2-1.3
			c8.3-4.9,10.1-0.7,13.9-5.8c4-5,7.2-11,6.1-19.6C80.9,92.9,69.2,81.6,53.7,83C40.4,84.3,28.5,96.7,30.3,111.7z"/>
		<path class="st0" d="M123.7,107.9c5.2-1.6,9.9,2.2,10.8,6.1c1.4,5.4-1.8,9.7-6.1,10.8C117.4,127.9,112.2,111.3,123.7,107.9z
			 M126.6,135.2c4.3-0.4,3.1-2.3,9.7-4.9c0.9-0.4,2.5-0.7,3.4-1.3c1.1-0.7,3.1-4,3.8-5.8c0.9-2.2,1.4-5,1.3-7.7
			c-0.5-10.3-8.6-18.5-19.4-18.2c-14,0.4-22.1,15.5-16.2,27.2c3.8,7.2,3.1,2,12.2,6.8C123,132.4,125.9,134,126.6,135.2z"/>
		<path class="st0" d="M26.9,109.1C27.4,85,52.8,73,70.8,83.6c1.3,0.7,2.2,1.4,3.2,2.2c0.9,0.5,2.3,2.2,2.9,2.3l2.5-2.5
			c-2.9-3.4-9.4-7.4-15.8-8.8c-20-4.3-40.1,9.4-40.5,32.2L26.9,109.1z"/>
		<path class="st0" d="M42.9,43.3l29,2l-1.4-0.9c-0.5-0.4-1.3-0.9-1.8-1.3c-1.4-0.9-2.3-0.9-3.1-2.9c-2.5-7.7-11.9-7.2-14.9-1.8
			c-1.6,2.7,0,1.4-3.2,2.9L42.9,43.3z"/>
		<path class="st0" d="M64.5,46.9l-14.4-1.3c0.7,2.5,3.6,4.9,6.7,5C60.4,51.2,64.2,49,64.5,46.9z"/>
	</g>
</g>
</svg>
