<?xml version="1.0" encoding="utf-8"?>
<!-- Generator: Adobe Illustrator 23.0.3, SVG Export Plug-In . SVG Version: 6.00 Build 0)  -->
<svg version="1.1" id="Layer_1" xmlns="http://www.w3.org/2000/svg" xmlns:xlink="http://www.w3.org/1999/xlink" x="0px" y="0px"
	 viewBox="0 0 184.3 184.3" style="enable-background:new 0 0 184.3 184.3;" xml:space="preserve">
<style type="text/css">
	.st0{fill:#010101;}
</style>
<g id="Layer_x0020_1">
	<g id="_2429341160768">
		<path class="st0" d="M101.4,46.9h39.1c1.6,3.2,2.9,11.5,2.9,16.6H98.7C98.7,55.7,99.8,53.6,101.4,46.9z M89.4,60.6
			c0,7.9,0.5,13.3,5,20c4,5.8,9.4,10.4,16,12.6c1.4,0.5,4.3,1.4,5.8,1.4v14.6h9.7V94.6c7.7-0.5,16.9-6.8,21.4-13.7
			c6.8-10.3,6.3-22.5,3.2-34c-0.5-2.2-3.4-9.7-5.4-9.7H96.8c-2.2,0-4.7,8.1-5.2,9.9C90.5,50.5,89.4,56.3,89.4,60.6z"/>
		<path class="st0" d="M37,116.9c0,1.6,1.3,2.9,2,4.5l2.2,4c0.7,1.4,1.3,2.5,2.2,4c0.5,0.9,1.6,3.2,2,4.1h94c0.2-1.1,3.4-7,4.1-8.1
			c0.9-1.4,1.3-2.5,2.2-4.1c0.5-1.3,4-5.6,0.2-5.6H39.5C38.3,115.9,37,115.9,37,116.9z"/>
		<path class="st0" d="M31.4,141.4c0,4,2,5.6,6.1,5.6h109.1c1.8,0,3.1-0.2,4.3-1.1c3.4-2.3,2.2-8.6-2.7-8.6H36.1
			C33.8,137.3,31.4,139.3,31.4,141.4z"/>
		<path class="st0" d="M45.1,109.4H96c0-4-1.8-7.2-5-8.8c-7-3.4-11,1.6-12.6,2.7c-0.2-3.1-4.3-7-6.8-8.6
			C60.8,87.6,45.1,95.2,45.1,109.4z"/>
	</g>
</g>
</svg>
