<?xml version="1.0" encoding="utf-8"?>
<!-- Generator: Adobe Illustrator 23.0.3, SVG Export Plug-In . SVG Version: 6.00 Build 0)  -->
<svg version="1.1" id="Layer_1" xmlns="http://www.w3.org/2000/svg" xmlns:xlink="http://www.w3.org/1999/xlink" x="0px" y="0px"
	 viewBox="0 0 184.3 184.3" style="enable-background:new 0 0 184.3 184.3;" xml:space="preserve">
<style type="text/css">
	.st0{fill:#FFFFFF;}
</style>
<g id="Layer_x0020_1">
	<g id="_2058152443376">
		<path class="st0" d="M47.2,117.1h-2.5c-2.7-8.6,5.2-25.4,11.7-32.9c7-8.3,27.2-16.4,31.1-12.1c-0.5,3.4-3.8,2.5-7.4,3.1
			C66.3,78,55.9,86.3,50.8,99.5C47,109.5,48.5,112.4,47.2,117.1z M34.6,122h118.3c0.7-18.5-7.4-32.9-16.4-41.8
			c-11.2-11-22-15.7-42.8-15.7C76,64.5,63.2,68.1,51,79.8C40.2,90.5,34.6,106.1,34.6,122z"/>
		<path class="st0" d="M29.6,135.6h123.8c0.9-1.1,1.8-2,2.3-4c4.9,0.2,10.8,0.7,14-1.3c1.1-4.5-0.9-5-4.9-5.2c-3.4,0-6.8,0-10.1,0
			H53.2c-4.9,0-37.1-1.3-38.7,1.3c-1.8,7,6.7,5,12.2,5C28.3,133.5,27.4,133.7,29.6,135.6z"/>
		<path class="st0" d="M86.6,58.2c-1.4-2.9-1.4-6.3,2.7-5.9c0.7,2.2,0.9,4.1-0.2,6.3L86.6,58.2z M88.6,49.1
			c-7.2,1.6-8.1,14.8,9.7,11.5c4-0.7,6.8-5.6,3.4-9.5C99.4,48.3,92.6,48.3,88.6,49.1z"/>
	</g>
</g>
</svg>
