<?xml version="1.0" encoding="utf-8"?>
<!-- Generator: Adobe Illustrator 23.0.3, SVG Export Plug-In . SVG Version: 6.00 Build 0)  -->
<svg version="1.1" id="Layer_1" xmlns="http://www.w3.org/2000/svg" xmlns:xlink="http://www.w3.org/1999/xlink" x="0px" y="0px"
	 viewBox="0 0 184.3 184.3" style="enable-background:new 0 0 184.3 184.3;" xml:space="preserve">
<style type="text/css">
	.st0{fill:#FFFFFF;}
</style>
<g id="Layer_x0020_1">
	<g id="_2429456660448">
		<path class="st0" d="M121.9,112.9c0.4-2.2,1.6-5,2.2-7.2c1.6-5.8,1.8-11.2,5.8-13c2.5-1.3,5-0.5,7,1.3c3.1,3.1,2,6.8-0.7,10.1
			C132.7,108.1,127.8,112.2,121.9,112.9z M76.3,113.5c1.3,4.1,5.8,17.6,8.5,20c-1.3,0-6.3-0.9-7.4-1.4c-2-0.9-8.3-16.7-8.6-17.8
			c-2.5-6.8-6.5-21.1-7-28.3c1.6,0.7,2.5,1.6,4.7,2.3c1.8,0.5,3.4,0.9,5.2,1.4C72.9,98,74.2,105.5,76.3,113.5z M88.4,68.6
			c10.3-0.2,27,0.5,33.8,5.9c2.5,2.2,1.3,4.7-1.1,6.1c-10.6,7.2-50.9,6.8-58.9-0.9c-0.7-0.7-1.8-1.8-1.3-3.4
			C63,70.3,83.3,68.8,88.4,68.6z M119.2,119.8c7,0,11.5-2.2,16.2-5.6c1.8-1.4,2.3-2,4-3.6l2.3-2.5c4.7-5.6,5.4-12.4,1.1-17.8
			c-3.2-4-7.4-5.8-14.4-4.3c1.1-10.3,3.4-12.8-4.9-16.9c-13.9-6.8-47.7-6.7-62.1-0.2c-1.8,0.9-3.8,2-4.9,3.1
			c-1.4,1.4-1.6,3.8-1.4,6.3c1.8,14.8,3.6,24.7,9,38.9c1.4,3.8,3.2,7.6,4.9,10.8c2,4,3.6,7.2,7.4,8.6c7.4,2.9,20.5,2.9,28.4,1.1
			c5.8-1.4,6.5-2.7,9-7C115,128.4,118.6,121.9,119.2,119.8z"/>
		<path class="st0" d="M121.3,126.6c0.4,0.2,0.5,0.5,1.1,0.7c2,1.4,3.8,4.3,2.3,7c-1.3,2.7-4.7,4.7-8.1,5.9c-13.3,5-35.6,5-48.8,0
			c-8.3-3.2-11.9-9-4.7-13.9l0.9-0.7c-0.9-2.2-2-4.5-2.9-6.8c-0.9-2.2-1.6-4.9-2.7-7c-2.5,0-11,2.9-13.5,3.8
			c-4,1.6-8.3,3.6-11.2,5.9c-8.5,7-7.7,14.6,1.4,20.7c13.5,9,37.3,12.1,56.2,12.1c19.1,0,44.8-2.3,59.4-13.7
			c3.4-2.7,6.7-7.6,4.7-12.8c-2.3-5.8-10.1-10.3-17.5-12.8c-1.1,0.5-2.2,1.6-3.4,2.5c-4.1,2.9-7.7,4.1-13,4.7l-1.4,3.2L121.3,126.6z
			"/>
		<path class="st0" d="M91.8,57.8c6.3-2,10.1-9.9,7.9-17.3c-2-6.7-6.8-8.8-7-19.6c-6.5,2.2-10.1,10.1-7.9,17.5
			c1.1,3.2,2.9,5.9,4.5,8.8C91.3,51.2,91.3,53,91.8,57.8z"/>
		<path class="st0" d="M54.2,153.1c0.9,1.3,2,2,3.2,2.9c13.7,9,41.4,8.8,56.5,5c4.3-1.1,14.4-4.5,16.2-7.9
			C108.7,159.2,75.8,159,54.2,153.1z"/>
		<path class="st0" d="M68.6,79.8c2.9,2.9,19.1,3.8,23.8,3.8s20.7-0.9,23.8-3.8C104.4,74.6,80.3,74.9,68.6,79.8z"/>
		<path class="st0" d="M75.8,59.3c2-0.5,4-2.7,4.9-4.3c1.3-2.3,1.6-5,0.7-7.9c-0.7-2.3-2-4.1-3.2-6.1c-1.1-2.2-1.8-4.7-1.8-7.6
			c-4.3,1.3-7,6.8-5.6,12.1C72.2,50.1,75.8,52.3,75.8,59.3z"/>
		<path class="st0" d="M110.3,59.3c2-0.4,4-2.7,4.9-4.3c1.3-2.2,1.6-5.2,0.7-7.9c-1.4-5-4.9-6.7-4.9-13.5c-0.9-0.2-2.3,1.1-2.9,1.6
			c-0.7,0.7-1.4,1.6-2,2.7c-1.3,2.3-1.4,5-0.7,7.7C106.7,50.1,110.3,52.3,110.3,59.3z"/>
	</g>
</g>
</svg>
