<?xml version="1.0" encoding="utf-8"?>
<!-- Generator: Adobe Illustrator 23.0.3, SVG Export Plug-In . SVG Version: 6.00 Build 0)  -->
<svg version="1.1" id="Layer_1" xmlns="http://www.w3.org/2000/svg" xmlns:xlink="http://www.w3.org/1999/xlink" x="0px" y="0px"
	 viewBox="0 0 184.3 184.3" style="enable-background:new 0 0 184.3 184.3;" xml:space="preserve">
<style type="text/css">
	.st0{fill:#010103;}
	.st1{fill:#FEFEFE;}
	.st2{fill:#898989;}
</style>
<g id="Layer_x0020_1">
	<g id="_2429456699264">
		<path class="st0" d="M107.6,98.8h1.3h37.6l1.1,0.2v47.5l-1.4,0.2h-37.4l-1.3-0.2V98.8H107.6z M116.9,52.3
			c-0.5,0.5-2.5,1.3-4.9,3.1c-4.3,3.2-8.5,9.9-9,16c-0.5,5.8-0.2,25.9-0.2,33.1c0,22.1,0,44.5,0,66.6h49V87.8
			c0-12.4,1.8-23.6-9.2-32.4c-2-1.6-4.5-2.9-4.9-3.2c-0.5-0.4-0.4,0.2-0.5-1.1V36.1l-19.8,0.2v14.8C117.3,52.3,117.3,52,116.9,52.3z
			"/>
		<polygon class="st1" points="107.6,146.3 108.6,146.6 146.1,146.5 147.5,146.5 147.5,98.8 146.3,98.6 108.6,98.6 107.6,98.8 		"/>
		<path class="st0" d="M80.4,78.4c2,2.9,3.2,9.7,3.4,14c0.2,5.6-1.1,10.1-3.1,14.2c-7.9,17.3-30.6,20.3-40.7-0.5
			c-1.6-3.4-3.1-9.7-2.9-14.2c0.4-4,1.4-11,3.4-13.5H80.4z M56.6,125.6v38.7c-3.2,0.9-13,0.2-13.7,3.2c3.1,4.1,34.6,3.8,35.6-0.2
			c-1.8-2.9-9.7-2.2-13.7-2.9v-38.7c3.8-1.6,7.6-1.4,13.3-6.8c8.3-7.7,11.3-18.2,10.4-29.9C88.3,84,86,77,83.4,73.6H37.5
			c-0.5,1.3-2,3.6-3.2,6.8c-0.7,2-1.8,5.9-1.8,8.1c-1.3,13,3.1,25.2,13.3,32.6c0.9,0.7,1.8,1.3,3.1,2
			C51.9,124.3,53.4,124.5,56.6,125.6z"/>
		<path class="st0" d="M60.2,118.6c14,0.5,20.9-12.8,21.4-25.2l-43.2,0.2c0.5,6.1,3.6,13.1,6.5,16.9
			C48.2,114.8,52.8,118.4,60.2,118.6z"/>
		<path class="st1" d="M38.6,93.4l43.2-0.2c-0.5,12.4-7.4,25.9-21.4,25.2c-7.4-0.4-12.1-4-15.1-8.3C42.2,106.5,39.2,99.7,38.6,93.4z
			 M80.4,78.4H40.8c-2,2.7-3.2,9.7-3.4,13.5c-0.2,4.5,1.3,10.8,2.9,14.2C50.3,127,73,124,80.9,106.7c1.8-4.3,3.1-8.6,3.1-14.2
			C83.8,88.1,82.5,81.3,80.4,78.4z"/>
		<polygon class="st0" points="137.3,13.1 117.3,13.1 117.3,30.5 137.3,30.5 		"/>
		<path class="st2" d="M116.9,52.3c0.2-0.4,0.4,0,0.4-1.3V36.1l19.8-0.2v15.1c0.2,1.3,0,0.5,0.5,1.1c-0.9-4.3,0.5-11.7-0.2-16.4
			c-1.3-0.4-19.1-0.4-20.2,0L116.9,52.3z"/>
	</g>
</g>
</svg>
