<?xml version="1.0" encoding="utf-8"?>
<!-- Generator: Adobe Illustrator 23.0.3, SVG Export Plug-In . SVG Version: 6.00 Build 0)  -->
<svg version="1.1" id="Layer_1" xmlns="http://www.w3.org/2000/svg" xmlns:xlink="http://www.w3.org/1999/xlink" x="0px" y="0px"
	 viewBox="0 0 184.3 184.3" style="enable-background:new 0 0 184.3 184.3;" xml:space="preserve">
<g id="Layer_x0020_1">
	<g id="_2429341181920">
		<path d="M101.7,150.1c1.6,1.1,0.9-1.3,2.3,2.5c0.2,0.7,0.4,1.8,0.4,2.7c-0.2,4.5-2.5,4.9-2.5,4.9v-10.1H101.7z M92.1,160.5
			c-1.3-0.9-2.9-2-2.9-5.4c0-3.6,1.6-4.9,2.9-5.8V160.5z M61.2,155.8c2.2-3.4,2.7-7,4.3-10.6c1.4,2.2,1.8,3.8,0.5,6.7
			C65,154.6,64.2,155.1,61.2,155.8z M52.5,153.1c-1.3-4.7-0.9-9.2,3.6-10.6L52.5,153.1z M101.7,110.3c1.3-2.2-1.4-0.9,3.2-1.8
			c2.5-0.5,4.3-0.2,9.9-1.6c1.8,2.9,13.7,38.3,14.6,42.8c-29.7,0-13.7,1.6-27.5-7.4v-32H101.7z M78.5,106.7l13.7,2v33.7
			c-5.8,2-5.9,6.3-9.2,7.2H72.9c-1.1-9.2-2.9-7-5-12.1L78.5,106.7z M147.9,75.2c2.7-1.4,3.6-0.7,3.8-4.7c0.2-2.5-0.2-4.1-2.9-4.9
			c-3.8-0.9-100.8,1.1-110.2-0.5c-1.3-3.2-1.6-5.8-5.9-5c-3.4,0.5-4,2.7-4,6.5c0,6.8-1.3,13.1,4.5,13.5c4.7,0.4,4.1-2.5,5.4-5.6h7
			c2.2,9.5,2.2,11.7,8.1,17.8c4.1,4.3,8.5,7.9,15.3,10.6l-10.6,32.4c-13.1,1.3-15.5,14.2-10.8,21.1c5.9,8.5,18.7,7.4,22.7-0.5
			l12.2,0.2c1.8,4,1.1,5.6,4.1,8.5c5.8,5.6,20.3,6.8,23.2-8.6h21.2c1.1,2.7,2.2,7.9,3.6,10.1c2.2,3.6,5.8,3.4,8.3-0.2
			c1.6-4.3-7-25.6-8.8-31.1c-3.4-10.1-7.4-20.7-10.3-30.8C129,99.7,145.4,96.3,147.9,75.2z"/>
		<path d="M44.8,54.9c-0.7,2.3-0.5,3.6-0.4,6.3l-1.1,0.5c13.7,0,106.4,0.7,111.8-0.4c0.4-5.6,1.3-6.5-3.6-6.5
			C128.5,54.7,63,53.8,44.8,54.9z"/>
		<path d="M102.4,45.9c2.9-4,6.1-7,2.7-14c-4.1-8.5-4.7-5.6-2.2-16.2c-4.7,2.9-5.2,9.2-2.2,14.2C105.3,37.2,103.3,38.3,102.4,45.9z"
			/>
		<path d="M79.5,48c0.2,0,2.5-0.9,2.7-4.9c0.4-6.3-5.9-5.9-2.9-17.6c-3.4,2.3-4,6.8-2.2,10.6C79.5,41,80.4,40.8,79.5,48z"/>
		<path d="M121.7,48.7c0.2-0.2,0.4-0.5,0.5-0.5l1.4-1.8c0.5-1.1,0.7-2.2,0.9-3.2c0.2-2.5-0.9-4.3-1.8-6.1c-3.8-6.7-1.4-5.4-1.1-11.7
			c-0.5,0.9-5.4,4.5-1.8,11C122.6,41.5,122.7,42.1,121.7,48.7z"/>
	</g>
</g>
</svg>
