<?xml version="1.0" encoding="utf-8"?>
<!-- Generator: Adobe Illustrator 23.0.3, SVG Export Plug-In . SVG Version: 6.00 Build 0)  -->
<svg version="1.1" id="Layer_1" xmlns="http://www.w3.org/2000/svg" xmlns:xlink="http://www.w3.org/1999/xlink" x="0px" y="0px"
	 viewBox="0 0 184.3 184.3" style="enable-background:new 0 0 184.3 184.3;" xml:space="preserve">
<g id="Layer_x0020_1">
	<g id="_2429613293136">
		<path d="M95.7,168.4h46.8c1.3,0,0.9-0.9,0.7-1.6l-14.8-75.4c-0.2-1.3,0-2-1.3-2H95.7V168.4z"/>
		<path d="M41.7,168.4H88V89.2H56.3c-1.4,6.5-2.5,13.1-4,20l-10.8,54.9c-0.2,0.9-0.4,1.6-0.5,2.5C40.8,167.5,40.4,168.4,41.7,168.4z
			"/>
		<path d="M9.5,85h20.3V109c14.2,0,10.8,1.4,13-5.6L47.6,85h89.1c0.2,1.4,1.3,4.5,1.6,5.9c0.5,2,1.1,3.8,1.6,5.9
			c0.5,2.2,0.9,3.6,1.6,5.9c0.5,1.8,1.4,4.3,1.4,6.3h11.7V85h20v-9.4c-3.2,0-5.4-0.4-8.6-0.4H9.5C9.5,75.3,9.5,85,9.5,85z"/>
		<path d="M95.7,71.2h28.8c0-1.8-0.9-4.9-1.3-6.8c-2.3-13.9-6.3-31.1-9-45.5c-0.2-1.3-0.2-2.7-1.4-2.7H95.7V71.2z"/>
		<path d="M59.9,71.2H88V15.9H71.6c-1.4,0-1.6,3.4-2.2,5.9L59.9,71.2z"/>
	</g>
</g>
</svg>
