<?xml version="1.0" encoding="utf-8"?>
<!-- Generator: Adobe Illustrator 23.0.3, SVG Export Plug-In . SVG Version: 6.00 Build 0)  -->
<svg version="1.1" id="Layer_1" xmlns="http://www.w3.org/2000/svg" xmlns:xlink="http://www.w3.org/1999/xlink" x="0px" y="0px"
	 viewBox="0 0 184.3 184.3" style="enable-background:new 0 0 184.3 184.3;" xml:space="preserve">
<style type="text/css">
	.st0{fill:#FFFFFF;}
</style>
<g id="Layer_x0020_1">
	<g id="_2429456709120">
		<path class="st0" d="M149.2,71.6c-10.6,0-21.2-2-21.4,4.7c-0.2,6.7,10.3,4.7,21.2,4.7l0.2,17.6c-20.9,0-24.5-3.2-23.4,13.3
			c0.4,5.9,0.4,11.9,0.7,17.8c0.4,7-1.3,13.1,4.3,15.5c7.2-0.4,4.9-8.3,4.7-14.8c-0.2-6.5-0.5-13-0.7-19.6c9.4,0.2,19.6,0.4,29,0.2
			c8.6-0.2,7.2-8.3,7.2-21.6c0-14.9,4-31.1-15.8-26.8C151.1,63.6,149.5,66.7,149.2,71.6z"/>
		<path class="st0" d="M49.1,112.2c0.2,10.8-4.7,40.1,5.4,33.7c3.2-2,2.7-7.4,2.9-11.9c0.4-7.7,1.6-21.2,0.9-28.3
			c-0.9-8.6-10.4-5.9-23.4-6.1L34.7,82c10.6-0.2,21.2,2,21.4-4.5c0.4-7-10.4-4.9-21.2-4.9c-0.9-4.3-1.3-7.2-5.4-8.6
			c-3.6-1.3-10.3-0.9-13,0.9c-3.6,2.5-3.6,5.2-3.6,10.6l0.2,29C13.8,118.5,28.7,109,49.1,112.2z"/>
		<path class="st0" d="M47.6,91c2.3,5.6,12.1,4.5,19.3,4.7c-0.9,6.8-0.4,30.8-0.4,40.5c0,13.1,8.1,13.1,8.1,0c0-9.4,0.5-34-0.4-40.3
			l36.4-0.2l-0.2,39.8c0,4.7-0.4,8.3,4.1,9.7c4-1.3,4-4,4.1-9c0-11.3,0.4-30.6-0.2-40.5c4.7,0,9.7,0.4,14-0.9
			c5.6-1.6,6.5-5.4,0.7-7.4c-5.2-1.8-22.5-1.1-29.3-1.1c-10.1,0-20.2,0-30.2,0C65.3,86.1,50.7,84,47.6,91z"/>
		<path class="st0" d="M78.6,84c3.6,0.5,24.7,0.7,27.5-0.2c2-25-1.6-23-13.7-22.9c-7,0-12.4-1.4-13.5,5.2
			C78.2,70.7,78.2,79.3,78.6,84z"/>
		<path class="st0" d="M21.2,39c-12.1,4.5-5.9,25.4,5.8,20.7C38.5,55.2,32.7,34.7,21.2,39z"/>
		<path class="st0" d="M158.5,37.7c-13.1,3.6-8.3,24.1,3.6,21.4c4.7-1.1,8.3-7,7-13.1C168.4,41.3,163.7,36.3,158.5,37.7z"/>
		<path class="st0" d="M89.2,39.7c-2,1.1-3.6,2.3-4.7,4.5c-3.8,7.6,3.2,18,11.3,14c3.1-1.4,6.3-7,4.7-12.4
			C99.5,41.5,95,36.6,89.2,39.7z"/>
	</g>
</g>
</svg>
