<?xml version="1.0" encoding="utf-8"?>
<!-- Generator: Adobe Illustrator 23.0.3, SVG Export Plug-In . SVG Version: 6.00 Build 0)  -->
<svg version="1.1" id="Layer_1" xmlns="http://www.w3.org/2000/svg" xmlns:xlink="http://www.w3.org/1999/xlink" x="0px" y="0px"
	 viewBox="0 0 184.3 184.3" style="enable-background:new 0 0 184.3 184.3;" xml:space="preserve">
<g id="Layer_x0020_1">
	<path d="M47.9,85.7c13.7-1.6,35.8,0.7,43.7,8.6c2.2,2.2,4.7,5,2.3,9.5c-4,7.6-19.6,10.8-27.9,11.7C29.2,119,6,102.1,26.9,91.5
		C33.7,87.7,39.5,86.6,47.9,85.7z M17.7,104.5v7.6c0.5,15.5-3.2,20,7.7,26.3c15.7,9.2,55.4,9.5,68.6-4c3.4-3.6,2.5-9,2.5-14.9
		c7,2.5,5.6,3.6,16.7,5.6c15.3,2.9,46.4,1.3,52.7-11.2c1.4-2.9,0.7-16.9,0.7-21.2c0-9.9,1.3-12.4-5.2-17.1
		c-4.1-3.1-9.9-4.9-15.8-6.1c-7.6-1.6-13.1-0.9-20.5-1.8c0-11.9,2-17.1-7-22c-6.3-3.4-14.2-5.4-22.7-5.9
		c-11.2-0.7-26.6,0.4-36.4,5.9c-2.3,1.4-6.7,4.3-6.7,7.6l-0.5,0.9c0,0.2,0,0.2-0.2,0.4v24.3c0,3.4,0,2.7,0.7,3.4l0.2,2.2
		C42,85.2,28.5,87,20.7,93.8C17.9,96.7,17.9,98.9,17.7,104.5z M85.9,48.1L80,49c-2.5,0.2-6.8,1.3-7.6,3.4l-1.8,0.9
		c-0.2,2.7,0.5,3.1,2.2,4.3c1.4,1.1,2.5,1.4,4.3,1.8c5.6,2.5,16.7,1.8,22.7,0.2c2.5-0.7,5.9-2.3,6.5-4.1c0.9-2.7-2.2-4.5-4.7-4.7
		c-0.7-1.3,0.5-0.2-1.3-1.1c-0.4-0.2-1.3-0.4-1.8-0.5c-1.3-0.4-2.3-0.5-3.6-0.7l-6.3-0.5L85.9,48.1z M125.9,76.7
		c-2.2,0.2-4.5,0.2-6.1,0.9c-1.6,0-3.1,0.5-4.7,1.1c-1.8,0.7-2.9,0.7-3.2,2.5c-5.8,2.7,1.1,6.3,4.7,7.4c5.4,2.3,18.4,1.8,23.9,0
		c2.3-0.7,6.1-2.2,6.7-4.3c1.1-4.1-3.8-3.8-5.2-5.6l-6.3-1.6l-6.7-0.5L125.9,76.7z M54.4,93.5l-6.1,0.7c-1.8,0.4-3.2,0.7-5,1.3
		c-2,0.7-3.1,0.9-3.4,2.7c-5.9,2.9,1.4,7,5.2,7.7c5.6,2.5,18.4,1.6,24.1,0c2.5-0.7,6.1-2.2,6.8-4c1.6-3.2-1.8-5.4-4.9-5.6
		c0-1.3-1.4-1.3-2.9-1.6c-1.4-0.4-2.3-0.5-4-0.7l-6.7-0.5H54.4z M91.1,87.5l1.8,2c3.4,4.7,14.2,7.9,15.8,9.4c-2.5,0-15.5-2-17.6-7.2
		V87.5z M127.1,68.6c12.1-0.7,35.6,3.6,37.8,13.3c1.6,6.8-7.7,11.2-12.8,12.8C132.7,101.4,94.4,98,92,84.7
		c-1.3-6.5,7.6-10.8,13-12.6C112.7,69.4,118.5,69.2,127.1,68.6z M86.8,68.8c-9,0-34.9-3.6-33.5-15.1c1.8-13.1,38.2-16.2,56.7-10.4
		C135,51,124.4,68.8,86.8,68.8z"/>
</g>
</svg>
