<?xml version="1.0" encoding="utf-8"?>
<!-- Generator: Adobe Illustrator 23.0.3, SVG Export Plug-In . SVG Version: 6.00 Build 0)  -->
<svg version="1.1" id="Layer_1" xmlns="http://www.w3.org/2000/svg" xmlns:xlink="http://www.w3.org/1999/xlink" x="0px" y="0px"
	 viewBox="0 0 184.3 184.3" style="enable-background:new 0 0 184.3 184.3;" xml:space="preserve">
<style type="text/css">
	.st0{fill:#FFFFFF;}
</style>
<g id="Layer_x0020_1">
	<g id="_2429456578064">
		<path class="st0" d="M48.3,126.7c0-2.2,1.1-3.8,2.9-4.3c5.4-1.6,6.5,7.6,8.1,13c0.7,2.3,6.7,20.7,6.7,23c0,4.1-5.8,5.2-7.7,1.3
			c-0.5-1.3-1.1-3.2-1.4-4.7l-7.2-23.4C49.2,130.3,48.3,127.9,48.3,126.7z M122.5,162.3c-1.1,0-3.6-1.4-3.6-4.3
			c0-1.8,7-23.8,8.3-28.1c0.5-1.8,0.7-2.9,1.3-4.7c1.8-5,7.9-2.9,7.9,0.5c0,1.8-7.7,26.6-8.6,29.2
			C126.8,158.3,126.6,162.3,122.5,162.3z M102.7,162.5c-2,0-4-0.4-4.5-2.9c-0.2-1.3,0.4-4.7,0.5-5.9l2.9-23.2c0.5-5,0.2-8.8,4.9-8.8
			c5,0,3.6,6.3,3.2,8.6c-1.3,8.5-2.5,22-3.8,29C105.7,161,104.7,162.5,102.7,162.5z M78.7,121.6c4.5,0,4,5.6,4.5,9
			c0.5,3.6,4.1,27.5,3.2,29.3c-1.8,4.5-6.7,2.7-7.6-0.2c-0.5-1.3-0.7-4.3-0.9-5.8l-2.9-23.8C74.4,126.1,73.5,121.6,78.7,121.6z
			 M151.6,103.1c-9,0-10.8-8.1-15.3-5.8c-3.2,1.6-3.8,3.6-5,5.8c-3.8,5.9-8.1,9.7-16.2,9.7c-5.6,0-10.4-2.9-13.5-5.6
			c-5.2-4.7-3.8-3.6-6.8-7.2c-2.2-2.5-5.6-2.2-7.7,0.5c-1.1,1.4-1.6,2.2-3.1,3.4c-6.8,6.3-15.7,3.8-21.2-2.2
			c-5.6-5.6-8.3,0-12.2,2.5c-14.4,8.6-28.8-4.1-28.8-10.8c0-7.4,5.6-13.5,12.1-15.5c3.4-1.1,2.5-2.2,3.6-8.5
			c3.8-22.3,20-41.2,42.8-45.7c14.9-2.9,26.1-1.1,39.2,5.4c1.8,0.9,3.4,1.8,5,3.1c5.2,3.6,6.7,5.4,10.4,9.4c1.6,1.6,4,5,5.2,7.2
			c3.2,5.4,5.2,10.8,7,16.9c0.9,3.1,2.3,10.3,2.3,13.9c3.4,0.7,6.3,2,8.8,4c6.1,4.5,6.7,10.1,1.3,15.5
			C157.6,100.7,154.5,103.1,151.6,103.1z M27.6,70.5c-8.3,0.7-23.9,19.3-10.8,34.7c3.6,4.1,4.1,4.7,9.9,7.7l8.1,3.6
			c1.3,0.7,2.5,7,3.1,8.5c0.9,2.9,1.8,5.9,2.7,9l8.3,26.8c1.3,3.6,2.2,9.5,4,10.6c3.1,2,15.7,0.5,19.6,0.5l57.8,0.4
			c2,0,3.6-1.8,4.3-3.2l11.7-40.7c1.3-4,2.2-7.6,3.2-11.5c1.6-5.9-0.2-2.5,9.5-5.6c13.5-4.3,17.5-20.2,9.2-31.3
			c-1.3-1.8-2.9-2.9-4.7-4.3c-1.8-1.4-3.6-2.2-5.6-3.2c0-7-1.6-13.5-4.1-19.1c-2.9-6.5-4.9-9.4-8.8-15.1
			c-11.2-15.8-32.8-26.6-52.4-26.6c-9.7,0-18.5,2.5-25.6,5.4c-8.8,3.6-16.4,9.2-22.7,16.2C36.1,42.8,27.6,57.9,27.6,70.5z"/>
		<path class="st0" d="M87.2,76.6c0,7.2,10.3,6.8,10.3,0.4C97.3,69.8,87.2,70.3,87.2,76.6z"/>
		<path class="st0" d="M120.3,81.5c0,7,10.3,6.7,10.3,1.1C130.6,73.4,120.3,76.3,120.3,81.5z"/>
		<path class="st0" d="M85.4,41.7c0,8.8,10.3,6.5,10.3,1.1C95.7,35,85.4,36.7,85.4,41.7z"/>
		<path class="st0" d="M48,81.8c0,2.2,2,4.9,4.3,4.9h1.8c5.4,0,5.8-10.1-0.7-10.1C50.5,76.6,48,79,48,81.8z"/>
		<path class="st0" d="M117.4,50.9c0,6.8,10.3,6.8,10.3,0.4c0-5.4-5.9-6.8-8.6-3.8C118.3,48,117.4,49.6,117.4,50.9z"/>
		<path class="st0" d="M57.1,56.8c0,10.8,15.1,4,8.8-2.7C62.9,50.9,57.1,52.7,57.1,56.8z"/>
	</g>
</g>
</svg>
