<?xml version="1.0" encoding="utf-8"?>
<!-- Generator: Adobe Illustrator 23.0.3, SVG Export Plug-In . SVG Version: 6.00 Build 0)  -->
<svg version="1.1" id="Layer_1" xmlns="http://www.w3.org/2000/svg" xmlns:xlink="http://www.w3.org/1999/xlink" x="0px" y="0px"
	 viewBox="0 0 184.3 184.3" style="enable-background:new 0 0 184.3 184.3;" xml:space="preserve">
<g id="Layer_x0020_1">
	<path d="M54,66.1c-0.7,0.5-1.4,0.7-2.2,1.3c-4.7,2.9-9.4,12.6-10.1,13.3c-0.2,0.4-0.2,0.7-0.4,1.1c-0.2,0.2-0.2,0.4-0.2,0.5
		l-0.5,0.5c0,0.7-1.1,2.9-1.4,3.8c-0.5,1.3-0.9,2.5-1.3,4c-0.7,2.2-1.6,5.9-1.8,8.6c-0.9,6.3-0.4,10.8,0.4,17.1
		c0.4,1.1,0.7,2.9,0.9,4.1c1.1,4.7,4.3,11.5,4.3,11.7l0.7,1.3c0.2,0.2,2.5,3.8,2.7,4.3c2,3.1,4.3,5.8,6.7,8.3
		c0.7,0.5,1.1,1.1,1.8,1.8l1.8,1.8c0.5,0.2,1.1,0.7,1.6,1.1c0.5,0.5,1.1,0.9,1.4,1.3c0.7,0.4,1.3,0.9,1.8,1.3c0.7,0.5,1.3,0.9,2,1.3
		c1.4,0.9,2.7,1.6,4.1,2.3c3.2,1.6,8.3,3.2,9,3.6c2.7,0.5,5.2,1.4,8.1,1.8c3.1,0.4,6.3,0.5,9.4,0.5c2.5,0,5.6-0.4,8.1-0.7
		c1.3-0.2,7-1.6,7.4-1.6l0.2-0.2c0,0,0.2,0,0.2-0.2l0.2-0.2l1.8-0.5c4.5-1.6,8.8-4,12.8-6.5c0.7-0.5,1.3-1.1,2-1.4
		c0.5-0.5,2-1.6,2.5-1.8c0.4-0.7,2.9-2.5,3.4-3.2c1.8-1.6,3.2-3.6,4.7-5.2c4.9-5.9,9.2-14.9,10.8-22.7c0.2-0.7,0.4-2.3,0.7-2.9
		c-0.2-0.9,0.5-6.1,0.5-7.7c0-1.4,0-2.7,0-4.1c0-1.3-0.4-2.7-0.2-4c-0.2-0.2-1.3-7.2-2-9.4c-1.1-3.8-2-5.4-3.1-8.3l-0.9-1.8
		c-0.4-0.4-1.4-2.5-1.8-3.2c-1.3-1.8-5.2-8.1-6.7-9c-0.4-0.4-0.4-0.4-0.7-0.7c-0.2-0.2-0.2-0.4-0.4-0.4c-0.5-0.4,0-0.2-0.5-0.4
		c-0.4-0.4-1.1-0.9-1.4-1.3l-1.6-0.5c-0.9-0.5-2.3-0.7-3.4-0.7c-1.3,0-2.3,0-3.2,0.5c-1.1,0.2-1.8,0.7-2.7,1.3
		c-0.2,0.2-0.4,0.2-0.5,0.4c-0.5,0.4-0.2,0-0.5,0.5c-0.2,0.2-0.4,0.2-0.5,0.4c-0.5,0.5-0.2,0.2-0.5,0.5c-0.7,0.4-3.6,5.2-4.3,6.5
		c-0.5,0.9-3.8,6.1-4.1,6.3c-0.4,0.7-0.7,1.6-1.3,2c-0.2,0.9-8.3,13.1-9.2,14.6c-0.2,0.4-0.4,0.5-0.7,0.9c-0.2,0.2-0.2,0.4-0.4,0.5
		c-0.2,0.2,0,0.2-0.2,0.2c-0.5,1.3-1.8,3.1-2.5,4.1c-0.9,1.4-2,2.7-2.7,4.1l-0.4,0.4l-4.3-6.1c-0.4-0.5-1.1-1.3-1.3-2
		c-0.9-0.5-15.7-22.7-18-25.7c-3.2-4.3-4-7.7-11.9-8.1c-0.4,0-0.2,0-0.4,0c-0.4,0.2-0.2,0.2-0.5,0.2C55.3,65.8,54.9,66,54,66.1z
		 M129.1,69.2c0.4,0.5,0.2,0.2,0.5,0.5c0.2,0.2,0.4,0.2,0.5,0.5c0.4,0.4,0.7,0.9,1.3,1.3c0.5,0.9,1.3,1.6,2.2,2.5
		c0.7,0.9,1.3,1.6,1.8,2.5s3.1,4.5,3.4,5.8c0.7,0.7,4,8.8,4,10.3c1.3,1.4,2,11,2,13.5c0,3.6-0.4,7-1.1,10.4l-0.7,2.9v0.2
		c0.2,1.8-4.7,12.4-5.6,13.3c-1.6,3.1-5.6,7.9-8.1,10.4c-0.5,0.5-1.1,0.9-1.6,1.4c-0.5,0.5-1.1,1.1-1.8,1.4
		c-0.2,0.5-1.6,1.4-2.2,1.8c-0.5,0.5-1.8,1.4-2.3,1.6c-1.1,1.4-9.7,5.6-12.2,6.3c-5.4,1.8-10.8,2.9-16.9,2.9c-3.2,0-6.3-0.4-9.4-0.9
		c-1.8-0.4-7-1.3-7.9-2.2c-1.6,0-10.4-4.5-11.3-5.6c-1.1-0.5-4.3-3.1-5-3.8c-0.9-0.4-4.9-4.7-5.9-5.8c-1.1-1.3-4.3-5.4-4.9-6.8
		c-2.2-2.9-5.6-10.6-6.3-15.1c-0.2-0.5-0.4-1.3-0.4-2l-0.9-4.5c-0.5-4.9-0.5-10.1,0.4-14.8c0.5-3.2,3.6-14.2,5.6-15.7
		c0-0.7,0.4-1.1,0.9-2l4.7-6.7c1.8-2.2,1.8-2.5,4.9-3.4h2c1.3,0,2.2,0.9,3.1,1.3l-4.1,4.1c-2.2,2-4.7,6.3-5.4,7l-0.2,0.2
		c-0.4,0.9-0.7,1.3-1.1,2l-2.7,6.1c-1.8,4.7-1.8,7.2-2.5,9l-0.2,0.2c0.2,0.9-0.5,6.3-0.4,7.9c0,2,0.7,6.3,0.5,7.7
		c0.4,0.4,0.2,0.4,0.4,0.9c0.7,3.8,2,7.7,3.6,11c0.5,1.1,1.6,2.7,2,3.6l7.7,10.1h0.2c0.4,0.4,0.5,0.7,1.1,0.9c0,0.5,0.7,0.7,1.1,1.1
		c1.3,1.3,2.5,2.2,4,3.1c1.3,0.9,5.4,3.2,5.8,3.6c0.5,0,3.1,1.1,4,1.4c5,2,10.6,3.1,16.9,3.1c3.1,0,5.9-0.2,8.8-0.9
		c2.9-0.5,5-1.4,7.7-2.2c0.7-0.4,4-1.8,4.9-2.2c0.4-0.4,2.9-1.6,3.4-2c3.6-2.2,8.6-6.8,8.8-6.8c0.5-1.1,1.8-2.2,2.5-2.9l2.3-2.9
		c0.5-0.5,0.7-1.6,1.4-2c0.2-0.9,1.4-2.3,1.8-3.4l1.1-2.2c0.7-0.9,1.6-3.8,2-5c0.5-1.6,0.9-4.1,1.6-5.6c0.4-2.9,0.9-5.6,0.9-8.6
		c0-3.1-0.4-5.8-0.7-8.6c-0.9-3.1-1.3-5.8-2.3-8.6c-0.5-1.4-1.1-2.7-1.6-4c-0.4-0.9-1.8-3.1-1.8-3.6l-4.1-5.8
		c-0.4-0.4-1.1-1.4-1.6-1.6c-0.2-0.4,0-0.2-0.2-0.4l-0.5-0.7c-1.6-1.4-2.9-3.1-4.9-4.1c0.2-0.5,0.2-0.5,0.9-0.9
		c0.5-0.4,0.5-0.2,1.3-0.4c0.9-0.7,3.4-0.7,4.3,0c0.9,0.2,0,0,0.5,0.2C129.1,69.2,128.4,69.2,129.1,69.2z M60.3,136.3
		c-0.5-0.9-1.4-1.8-2.2-2.5c-0.5-0.7-1.4-2-1.8-2.5c-0.5-1.1-1.4-2.2-2-3.2c-0.5-1.3-1.3-2.3-1.8-3.6c-1.1-2.3-2.2-5.6-2.7-8.5
		c-1.3-3.6-0.9-12.6-0.2-16.6c1.1-5.2,2.9-10.3,5.4-14.4c1.8-3.1,6.5-9,9-10.6c0.9,1.1,1.8,2.7,2.7,4s1.8,2.5,2.7,4
		c0.5,0.5,0.9,1.4,1.4,2.2c0.5,0.7,0.9,1.3,1.4,2s0.9,1.4,1.4,2.2c0.5,0.7,1.1,1.3,1.3,2.2c0.9,0.5,2.5,3.2,3.1,4.3
		c0.9,1.1,2.5,3.4,2.9,4.5c0.5,0.4,4.7,6.5,5.2,7.4c0.7,1.3,1.6,2.5,2.5,3.8s1.4,2.7,3.1,2.9c1.8-0.2,2.2-1.8,3.2-3.1l7.4-11.3
		c0.5-1.1,5.4-8.8,5.8-9c0.5-1.3,1.6-2.9,2.3-4c0.4-0.5,0.9-1.3,1.3-1.8c0.4-0.5,0.9-1.4,1.3-1.8c0.9-1.4,1.8-3.2,2.9-4.5
		c1.1-1.4,1.8-3.1,2.9-4.3c0.9,0.4,6.7,5.8,6.8,6.8c0.7,0.5,1.3,1.3,1.8,2.2c1.4,1.8,3.1,4.9,4.1,7.2c0.9,1.8,2.7,6.8,2.7,8.8
		c0.9,1.1,1.1,7.4,1.1,9.2l-0.7,7c0,0.4-0.2,0.7-0.2,1.1c0,0.2-0.2,0.4-0.2,0.5c-0.2,0.5-0.2,0.2-0.2,0.4c0.2,1.6-1.3,4.1-1.3,5.6
		c-0.7,0.7-0.5,1.8-1.6,3.4c-0.4,1.1-1.6,3.4-2.2,4.3c-0.5,0.9-0.7,1.3-1.4,2.2c-0.4,0.5-1.1,1.6-1.6,2c-0.5,0.9-0.7,0.9-1.3,1.6
		c-0.5,0.7-0.5,0.9-1.3,1.4l-2,2c-0.2,0.2-0.2,0.2-0.4,0.4c-0.4,0.4,0,0-0.2,0.4c-0.7,0.2-0.9,0.5-1.4,1.1c-0.5,0.5-0.9,0.7-1.4,1.3
		c-0.9,0.5-2.2,1.3-2.9,2.2c-0.5,0-0.4,0-0.9,0.4c-1.3,0.7-4,2.3-5.2,2.5c-1.3,1.3-8.5,2.9-10.8,3.2c-2.3,0.4-11.3,0.9-13-0.2
		c-2,0.2-8.5-1.8-10.1-2.9c-2.3-0.9-4.5-2.2-6.5-3.4c-1.1-0.7-2-1.3-2.9-2c-0.9-0.7-1.8-1.6-2.7-2.2l-0.2-0.4h-0.2
		c-0.2-0.2-0.2-0.2-0.4-0.4c-0.7-0.5-1.3-1.3-1.8-1.6C60.7,136.5,60.7,136.3,60.3,136.3z M74.7,132.9v2.7h0.7
		c0.9-0.2,1.8-0.4,2.5-0.9l-0.4-1.4c-0.7-0.5-0.2-0.5-1.1-0.9c-0.4-0.2-0.7-0.4-1.3-0.4C74.6,132,74.7,132,74.7,132.9z M75.5,110.8
		c0-0.9,0.7-1.1,0-2c-1.1-0.2-2.5-1.4-3.6-1.3c-0.2,1.1,0,3.1,0.2,4C74.2,112.2,74.7,111.3,75.5,110.8z M59.4,121.4
		c0.5-0.2,1.3-0.4,1.4-0.9c0.4-0.5,0.5-1.6,0.2-2.2c-0.5-0.4-1.6-0.5-2.2-0.7c-0.7-0.2-1.3-0.2-1.8,0c0,0.9,0.9,3.2,1.4,3.8H59.4z
		 M77.3,48.7c0.7,0.7,0.7,1.6,2.2,0.7c1.1-0.5,1.3-1.3,1.1-2.7c-0.5-1.1-0.5-0.9-1.8-0.9c-0.9,0-1.8,0-2.7,0.2
		C75.8,47.1,76.9,48,77.3,48.7z M94.7,45.3c0.5,0.4,1.3,1.1,2.2,1.1c0.5,0,1.6-0.9,1.8-1.3c0.4-0.9-1.8-3.8-2.5-4
		C96,41.7,94.9,44.4,94.7,45.3z M92,139.9l0.2,0.7c0.4,0.2,2,2,2.5,2.5c0.5,0.5,0.7,0.9,1.8,0.5c3.1-0.9,1.4-3.8,0.2-4
		C95.4,139.8,93.1,139.8,92,139.9z M104.8,53.9c-1.4,0-2.9,0.7-4.1,1.1c-2.2,0.5-1.3,3.2-0.9,3.4c0.4,0.4,1.6,0.5,2.2,0.5
		c0.9-0.2,0.9-0.7,1.4-1.4C103.5,56.6,104.8,55,104.8,53.9z M108.4,113.7c-0.2-0.5-0.2-0.5-0.5-0.9c-0.2-0.2-0.4-0.4-0.7-0.5
		c-0.5-0.4-0.9-0.7-1.4-1.3c-0.5-0.5-0.5-0.9-1.6-0.9c-2.9,0.2-2.5,4-0.5,4.1C104.8,114.2,107.5,114.2,108.4,113.7z M82.8,60.7
		c0.4,1.8,1.3,1.8,3.2,1.6c1.3-2.3,0.7-2.9-0.5-3.8c-1.1-0.7-2.2-1.8-3.6-2C81.9,58,82.5,59.3,82.8,60.7z M92.2,123.4
		c-0.2-0.9,0-1.1-0.4-2c-0.9-1.8-3.2-0.9-3.6,0.4c-0.4,0.9-1.3,4-0.9,4.7c0.2,0.2,0,0.2,0.5,0L92.2,123.4z M102.8,132.7l1.8-0.2
		c0.4-0.5,0.5-1.8,0.4-2.7c-0.4-1.1-5-3.6-5.8-3.8c0,1.1,0.9,2.9,1.3,3.8C101.4,131.7,101,132.2,102.8,132.7z M61.4,98.9l-0.9,1.8
		c2-0.2,3.8-1.4,5.4-1.8c1.6-0.5,1.8-2.5,1.4-3.8C63.2,93.5,62.9,98,61.4,98.9z M117.6,99.4l0.9,0.4c0.5,0,0.2-0.2,0.9-0.4
		c0.9-2,1.6-0.9,0.7-4.1c-0.5-1.6-1.1-3.1-1.4-4.5c-0.7,0.4-0.7,0.5-1.1,2C115.6,99.4,116.7,97.1,117.6,99.4z M114,123.7
		c1.4,0,4.9-1.4,6.3-2c1.6-0.5,2.5-0.9,3.4-2.9l0.2-1.3v-0.2v-0.2c-3.6-1.4-5.4,1.6-5.9,2.2C117.2,120.1,114.3,122.8,114,123.7z
		 M61.4,87.2c0.4-0.2,1.8-0.9,2.3-0.9c1.1,0,1.8,0.9,1.4,2C64.7,89.9,61.1,90.1,61.4,87.2z M58.7,89.5c0.4,0.2,0.7,0.9,1.3,1.3
		c0.5,0.4,1.3,0.5,1.8,0.7c1.8,0.2,2.7-0.7,3.2-1.8c0.5-1.3,0.9-2.9,0.5-4.3c-0.4-1.6-1.1-1.8-2.2-2.7c-2.2-0.4-3.4,0.2-4.5,1.6
		C57.6,86.1,58.2,87.6,58.7,89.5z M95.3,64.9c2.7-0.9,3.2,2.9,0.5,3.2c-1.3,0.2-2.2-0.4-2.3-1.3C93.3,65.4,94.4,65.2,95.3,64.9z
		 M92.4,61.3c-0.5,0.7-0.9,0.7-1.6,1.8c-0.5,0.9-0.5,1.8-0.5,2.9c0.2,0.7,0.4,1.4,0.5,2c0.2,0.4,0.5,0.7,0.7,0.9
		c0.4,0.4,0.5,0.2,0.5,0.5c3.6,1.4,5.8,0,5.9-4c0-1.8-0.4-3.2-1.6-4C95.1,60.6,93.8,61.3,92.4,61.3z M118.3,84.1
		c-0.4-1.3,0.5-1.6,1.6-2c1.1-0.5,2.2,0,2.3,1.1C122.8,85.6,118.8,85.9,118.3,84.1z M115.1,82.2c-0.2,6.5,8.1,7.6,7.7-0.4
		c-0.2-2.2-1.6-3.8-4.1-3.4C116.7,78.6,115.6,80.2,115.1,82.2z M108.2,48.1c-0.9,2.3-4.9,1.1-4-0.9c0.2-0.4,1.8-1.3,2.5-1.1
		C107.9,46.2,108.6,47.2,108.2,48.1z M101.2,48.7c0.5,1.4,1.6,2.5,3.4,2.7c0.9,0.2,1.8,0,2.3-0.5c0.7-0.5,0.7-1.1,1.4-1.8
		c0.4-1.6,0.7-3.2,0-4.7c-1.3-2.5-4.5-2.9-6.7-0.2C100.8,45.4,100.8,47.1,101.2,48.7z M91.8,52.8c2.5-0.7,2.9,3.2,0,3.2
		c-1.1,0-2-0.5-2.2-1.6C89.7,53.5,90.9,53.2,91.8,52.8z M92.2,57.9c0.5-0.7,0.9-0.5,1.4-1.6c0.7-1.4,0.9-3.8,0.2-5.2
		c-0.5-0.9-0.9-1.1-1.6-1.6c-3.2-0.7-5.8,0.7-5.9,4.1C86.4,57,89,58.6,92.2,57.9z M88.2,132.9c2.3-0.9,3.1,2.9,0.2,3.2
		c-1.1,0.2-2.2-0.4-2.3-1.4C86.1,133.3,87.3,133.3,88.2,132.9z M83,133.1c-0.2,2.5,1.3,4.7,3.6,4.9c2.9,0.4,4-1.8,4.1-4.3
		c0-2.7-0.9-4.9-3.6-4.7C84.8,129.1,83.4,130.9,83,133.1z M85.2,41.3c2-1.1,3.2,2.9,0.5,3.2c-1.1,0.2-2.3-0.4-2.5-1.4
		C83.2,41.8,84.5,41.8,85.2,41.3z M82.8,37.9c-2.5,0.9-3.2,3.2-2.7,5.6c0.5,2,2.7,3.8,5,3.1C89.3,45.3,88.6,35.7,82.8,37.9z
		 M97.2,119.4c0.7-0.4,1.8-1.1,2.9-0.9c0.9,0.2,1.4,1.3,0.9,2.3C100.3,122.5,96.7,122.3,97.2,119.4z M94.9,116.5
		c-2.2,2.9-0.4,7.2,3.1,7.4c2.9,0.2,4-2.7,4-5c0-1.1-0.5-1.8-0.5-2.5c-0.9-0.5-1.4-1.6-3.2-1.4C96.3,114.9,95.4,115.8,94.9,116.5z
		 M118.3,132.9c-0.2,2.2-1.4,3.6-3.6,3.8c-1.3,0.2-2.2-0.2-2.9-0.7c-0.5-0.5-1.4-1.3-1.3-2.2l-0.2-0.7c-0.2-1.6,1.6-3.1,3.6-3.2
		C116.5,129.5,118.1,130.6,118.3,132.9z M108.9,127.2c-0.2,0.2,0,0-0.2,0.4l-0.5,0.9c-0.4,0.4-0.5,0.7-0.7,1.3
		c-0.4,0.9-0.5,2.2-0.5,3.2c0.2,1.1,0.2,1.6,0.7,2.5c0.5,0.9,1.1,1.3,1.4,2c0.9,0.2,1.4,0.9,2.9,1.1c1.3,0.2,2.5,0.2,3.4-0.5
		c2-1.1,2.5-2.3,3.2-4.9c0.2-3.1-0.7-5.6-2.5-6.8c-1.1-0.7-2.3-0.9-4-0.7C110.7,126.1,109.8,126.8,108.9,127.2z M126.4,109.9
		c-1.3,4.5-9.2,3.1-7.9-1.8C119.4,104.3,127.8,104.7,126.4,109.9z M125.7,112.6c0.2-0.7,0.5-1.1,0.9-2s0.4-1.6,0.4-2.5
		c0-2.5-0.7-2.9-1.3-4.5c-0.7-0.2-0.5-1.1-2.9-1.8c-1.3-0.4-2.7-0.2-4,0.4c-4.7,2-5.2,9.4-0.2,11.9C122.8,116,125,112.8,125.7,112.6
		z M58.7,109.5c-0.5-4.7,7.7-5.4,8.1-0.9c0.2,3.6-4.1,5-6.7,3.2C59.6,111.5,58.9,110.4,58.7,109.5z M58.4,102.5
		c-0.5,0.9-2.9,1.8-2.9,5.8c0,4,2.7,5.2,3.1,5.6c2.3,0.9,4.3,1.3,6.3-0.4c3.2-2.5,3.2-8.8-0.2-11.2
		C62.1,100.9,60.9,101.8,58.4,102.5z M75.5,118.5c5.8-0.2,5.2,6.7,0,7C70.4,125.4,69.7,119.1,75.5,118.5z M69.7,116.5
		c-0.2,0.4,0,0-0.2,0.4c-1.1,2-2,3.6-0.9,6.5c0.7,2.2,2.3,3.6,4.9,4.1c3.4,0.2,5-1.3,6.1-3.8c1.6-4.1-0.7-6.7-0.9-7.7
		c-0.5-0.2-0.2-0.2-0.7-0.5c-0.2-0.2-0.4-0.4-0.5-0.5c-0.5-0.4-1.1-0.5-1.6-0.7c-3.2-0.2-3.6,0.4-5.6,1.8
		C69.7,116.5,70.1,116.4,69.7,116.5z M113.4,48.9c-0.4,1.1-1.4,2.2-2.2,3.2c-0.5,0.7-1.8,2.7-2.3,3.1c-0.2,0.7-4.7,6.7-5.2,7.6
		c-0.4,0.5-1.3,2.2-1.8,2.3c-0.5,1.1-1.6,2.3-2.3,3.4c-0.9,1.3-1.6,2.2-2.3,3.4c-1.6,2.2-3.2,4.7-4.9,6.8l-0.9,1.4
		c-0.5-0.4-9.7-13.3-10.4-14.6c-0.7-0.5-2.2-3.1-2.9-4.1c-0.9-1.3-2.3-3.1-2.9-4.3c-0.4-0.2-2.7-3.6-3.1-4c-0.5-0.9-0.9-1.3-1.4-2.2
		c-0.5-0.5-1.3-1.4-1.4-2.2c-0.7-0.5-1.3-1.6-2-2.5c-0.5-0.7-1.4-1.8-1.8-2.5l2.3-1.3c2-1.1,5.8-2.9,7.7-3.2c0.9-0.5,6.1-1.8,7.7-2
		c3.1-0.5,5.8-0.9,9-0.7c3.2,0,13.7,0.9,16.9,2.9c0,0,0.2,0,0.2,0.2c0.9,0,7.2,2.9,8.5,3.4C117.6,43.3,113.8,48.7,113.4,48.9z
		 M94.7,25.6c2.7-0.5,12.1,1.6,14.4,2.5c1.4,0.4,3.1,1.1,4.3,1.6c0.7,0.4,1.3,0.5,2,0.9c0.7,0.4,1.4,0.5,1.8,1.1c0.9,0,4,2,4.3,2.5
		c1.3,2-0.2,4.3-2.2,4.3c-0.5,0-5.8-2.3-7.4-3.1c-0.9-0.4-2-0.5-2.5-0.9c-4-0.9-7-1.8-11.3-2.2c-11.7-1.1-22.7,1.3-32.6,6.7
		c-1.8,1.1-3.8,0.2-4.1-1.6c-0.5-2.2,1.4-3.1,2.7-3.8c2.3-1.6,5.6-3.4,8.6-4.5c3.4-1.3,6.7-2.2,10.4-3.1
		C84.5,26,93.5,24.9,94.7,25.6z M75.3,24c-1.4,0.5-2.9,0.9-4.3,1.6c-3.4,1.6-4.9,2.3-8.1,4.1c-0.5,0.4-3.1,2.2-3.6,2.3
		c-0.2,0.5,0,0.4-0.5,0.5c-0.2,0.4-0.7,0.9-1.1,1.8c-0.7,1.8-0.7,3.6,0,5.2c0.5,1.3,1.1,1.6,1.1,2c0.9,0.5,0.9,0.9,1.4,1.6
		c0.5,0.5,0.9,1.3,1.3,1.8c0.7,1.1,2.2,2.7,2.5,3.8c0,0,11.3,15.3,11.5,16.2c0.5,0.2,0.4,0,0.5,0.5c0.9,0.7,7.7,10.8,8.8,12.2
		c0.4,0.5,2.7,3.6,2.9,4.1c0.5,0.4,0.5,0.5,0.9,1.1c0.4,0.4,0.5,0.7,0.9,1.3c0.5,0.9,1.3,1.6,2.9,1.3c1.6-0.9,1.6-2.3,2.7-3.2
		c0.4-0.9,0.9-1.4,1.4-2.2c3.2-4.7,7.4-10.3,10.4-14.9c0.9-1.6,2-2.9,3.1-4.3l9-12.8l6.8-9.9c0.5-2.9,0.7-4.3-0.9-6.5
		c-1.4-2.2-7.6-5-10.1-6.1c-0.9-0.4-1.8-0.7-2.9-1.3c-0.5-0.2-0.9-0.4-1.4-0.5l-1.3-0.4c-0.4-0.2-0.2,0-0.4-0.2
		c-0.7,0-5.8-1.3-7-1.6c-2.7,0-5.6-0.2-8.1-0.2c-3.6,0-6.3,0.2-9.9,0.5C80.7,22.4,78.2,23.3,75.3,24z"/>
</g>
</svg>
