<?xml version="1.0" encoding="utf-8"?>
<!-- Generator: Adobe Illustrator 23.0.3, SVG Export Plug-In . SVG Version: 6.00 Build 0)  -->
<svg version="1.1" id="Layer_1" xmlns="http://www.w3.org/2000/svg" xmlns:xlink="http://www.w3.org/1999/xlink" x="0px" y="0px"
	 viewBox="0 0 184.3 184.3" style="enable-background:new 0 0 184.3 184.3;" xml:space="preserve">
<style type="text/css">
	.st0{fill:#FFFFFF;}
</style>
<g id="Layer_x0020_1">
	<path class="st0" d="M115.9,146.9c-0.7-6.5,4-11.5,9.7-12.2c6.5-0.9,11.5,4,12.2,9.5c0.9,6.3-4.1,11.7-9.7,12.2
		C121.6,157.1,116.4,152.4,115.9,146.9z M46.7,146.9c1.3,8.8,15.7,7.7,14.6-2.3C60.2,135.3,45.3,136.4,46.7,146.9z M119.5,146.9
		c1.3,9,15.8,7.7,14.6-2.3C132.8,135.2,118,136.6,119.5,146.9z M101.8,56.9c4.5-0.2,8.6-11.9,10.4-15.5c4-7.7,7.4-7.4,15.8-10.6
		c-0.5-1.3-6.3-4-7.4-4.3c-11.9-5.4-12.8-2.2-19.3-2.2c-4.1,0-6.3-1.6-9.9-2l2.7,8.5C96.4,37.8,100.7,50.9,101.8,56.9z M41.9,93.2
		c0.4,2.3,2,4.1,3.8,5.2c2.2,1.3,5.2,0.9,8.1,0.9c11.2,0,25.4,0.4,36.2,0c2.9-0.2,4.9-0.2,6.8-2c4-4,2.9-9.4-1.4-11.7
		c-2.2-1.3-5.2-0.9-8.1-0.9H51.1c-3.4,0-5,0.2-7,2C42.6,88.2,41.3,90.3,41.9,93.2z M43,146.5c-0.4-2.9,1.1-6.3,2.9-8.1
		c7-7.6,18.5-2.9,19.3,6.3C66,158.7,44.9,161.4,43,146.5z M46,110.7h48.8v8.1H46V110.7z M146.5,117.9c-0.5,1.4-2.5,1.1-4.5,1.1
		c-3.6,0-14.8,0.2-16.9,0c-2-0.2-1.6-2-1.6-4c0-2.9-0.2-16,0.2-16.9c0.5-1.3,2.7-0.9,4.5-0.9c12.2,0,10.1-0.9,12.4,4.7
		c1.1,2.7,2,5.2,3.2,8.1C144.3,111,147,116.8,146.5,117.9z M106.3,97c-0.5,3.8-2.5,5.9-5.2,7.2c-2.9,1.6-7.7,1.1-11.2,1.1
		c-8.3,0-16.6,0-24.7,0c-4.5,0-21.1,0.5-24.1-0.5c-2.9-0.9-5.2-3.2-6.1-6.3c-0.7-2-0.7-9.7-0.4-11.9c0.5-3.4,2.9-5.9,5.2-7
		c3.1-1.6,7.4-1.1,11.2-1.1c8.3,0,16.4,0,24.7,0c4.7,0,20.9-0.5,24.1,0.5c2.9,0.9,5.2,3.2,6.1,6.3C106.7,87.6,106.7,94.5,106.3,97z
		 M45.7,59.7c-0.5,7.2-0.4,5.2,8.3,5.4l0.2,3.6c-3.8,0.2-17.5,0-22.3,0c-5.9,0-4.7,0.4-4.7,6.3c0,5.6,0.2,53.8-0.2,55.8
		c-1.3,0-3.4-0.2-4.3,0.4c-0.5,0.4-2.2,1.8-2.3,2.5c-0.2,0.7-0.2,8.5-0.2,9.5c0.4,2.9,5,2,7.7,2c3.1,0,6.7,0.2,9.7,0
		c0.2,9.5,7.2,16.4,16.4,16.6c5,0,9.4-2.3,11.7-4.9c1.1-1.1,2.5-3.1,3.2-4.9c1.3-2.5,1.3-4,1.6-6.8h39.8c0.4,5.6,2,8.6,4.9,11.5
		c6.1,6.5,17.3,6.5,23.2,0c0.4-0.5,0.5-0.5,0.9-0.9c3.2-4,3.2-5.9,4-10.6c4.7-0.2,9.5,0,14.2,0c5.2,0,6.5-2.9,6.5-8.1
		c0-6.7,1.4-13.5-4.5-16.9c-6.3-3.6-2,4-9.4-12.2l-7-14.4c-1.3-2.3-0.7-2-5.2-2c-4.7,0-9.5,0-14.4,0c-0.7-7.6,2.9-20.3-8.3-22.9
		c-3.2-0.7-49.7,0.2-51.8-0.4v-3.6c6.3-0.7,9.7,2.5,8.3-5.6h13.7c1.8,0,1.1-0.2,2,0.9c0.7,0.9,2.3,1.6,4,1.1
		c3.4-0.7,4.9-2.5,3.8-6.5l-7.7-25.4c-0.9-2.9-1.3-6.3-4.3-6.7c-1.3-0.2-3.4,0.5-4.3,1.1c-2,1.3-1.1,2.9-2,3.8
		c-0.2,0.4-2.7,1.8-3.2,2.2c-11,7.6-25.4,16.9-36.5,24.1c-1.1,0.7-2.3,1.4-3.4,2.2c-0.9,1.6-0.7,3.6,0.9,4
		C36.1,60.1,43.5,59.9,45.7,59.7z"/>
</g>
</svg>
