<?xml version="1.0" encoding="utf-8"?>
<!-- Generator: Adobe Illustrator 23.0.3, SVG Export Plug-In . SVG Version: 6.00 Build 0)  -->
<svg version="1.1" id="Layer_1" xmlns="http://www.w3.org/2000/svg" xmlns:xlink="http://www.w3.org/1999/xlink" x="0px" y="0px"
	 viewBox="0 0 184.3 184.3" style="enable-background:new 0 0 184.3 184.3;" xml:space="preserve">
<style type="text/css">
	.st0{fill:#FFFFFF;}
</style>
<g id="Layer_x0020_1">
	<path class="st0" d="M30.8,144.3c-0.2-1.6,1.4-4.9,4.5-5c5.9-0.4,6.7,9,0.5,9.4c-1.4,0.2-2.5-0.5-3.4-1.3c-0.5-0.4-0.7-0.7-1.1-1.3
		L30.8,144.3z M107.6,82.2v0.4l0.4-0.2L107.6,82.2c-0.2-0.9-0.4-0.9-0.7-1.8c-3.2-7.6-3.1-16.2,2.2-22.5c0.9-1.1,1.4-2,2.5-2.9
		c9.4-7.4,1.1-18-4.7-23.8c-1.6-1.6-3.8-4-5.6-5.2c0.5,1.8,5,7.7,5,15.1c0,7.7-2.3,10.1-6.3,13.9c-6.1,6.1-1.6,16.2,2.7,21.8
		C104.2,78.4,106.2,81.1,107.6,82.2z M75.8,26.2v-0.4l-0.4,0.2L75.8,26.2l3.2,6.8c1.4,3.6,2.3,9.4,1.4,13.1c-2.3,8.3-9,8.1-9.2,16.4
		c0,5.4,2.9,10.6,6.1,14.4c1.4,1.6,3.2,4.3,5,5.4c-0.2-0.9-2-3.6-2.7-7.7c-0.5-3.4-0.5-6.8,0.2-9.7c1.6-6.3,5.4-8.3,9-12.4
		c6.7-7.6-4.3-18.7-9.9-23.9C78.1,28,76.7,26.6,75.8,26.2z M43.4,136c0-4,6.3-4,6.3,0S43.4,140.2,43.4,136z M143.3,123.4
		L143.3,123.4z M143.3,123.4c0-6.1,1.3-7.6-1.8-15.5c-2.7-6.8-4.5-6.8-9.2-8.6c-6.7-2.7-13.7-4.7-21.1-5.8c-2.2-0.4-5.8-0.7-7.9-1.3
		c0,7.2,0.7,11.5-2.5,18.5l-0.5,0.9c-1.3-5-2.2-8.1-5.4-12.2c-1.6-2-2.3-2.7-4.5-4.3c-1.3-1.1-3.8-3.2-5.6-3.2
		c-10.3,0.9-13.5,1.6-22.7,4c-2.5,0.5-4.3,1.4-6.8,2c0.9,2.9,5.2,7.6,4.5,20c0,0.5,0.2,0.5-0.2,1.1c-0.7,1.3-0.5-0.4-2.9-3.6
		c-3.4-4.3-8.1-7.4-13.1-9.2c-4.5-1.6-4.3-0.7-7.9,1.6c-10.6,7-24.3,20.2-20.3,34.6c3.1,11.2,19.6,14.2,30.1,14.9l15.7,0.9
		c22.7-0.2,65.3,0.9,83-1.6c8.5-1.3,18.4-3.6,23-10.4c5.4-8.1,0.9-18.7-4-25.2c-1.6-2.2-9-10.3-11.7-11
		C151.2,113.4,146.1,121.6,143.3,123.4z"/>
</g>
</svg>
