<?xml version="1.0" encoding="utf-8"?>
<!-- Generator: Adobe Illustrator 23.0.3, SVG Export Plug-In . SVG Version: 6.00 Build 0)  -->
<svg version="1.1" id="Layer_1" xmlns="http://www.w3.org/2000/svg" xmlns:xlink="http://www.w3.org/1999/xlink" x="0px" y="0px"
	 viewBox="0 0 184.3 184.3" style="enable-background:new 0 0 184.3 184.3;" xml:space="preserve">
<style type="text/css">
	.st0{fill:#FFFFFF;}
</style>
<g id="Layer_x0020_1">
	<g id="_2429380101296">
		<path class="st0" d="M80.7,21.3l3.1,15.5c-2.3,1.8-36.4,3.6-53.1,39.4c-3.2,7-5.9,16.2-5.9,24.8l-13.5,0.2l-0.4,10.6h162.4
			l0.2-10.6h-13.5c0-32.2-29-61.2-59-63.9l3.2-16.6c-12.6-4-8.5-5.6-20.3-1.1C81.6,20.4,81.8,20.4,80.7,21.3z"/>
		<path class="st0" d="M161.7,148.9c-0.9-2.7-2.9-4-4.9-5.9c-19.4-19.4-17.3-22-46.8-22c-6.7,0-13.3,0-20,0
			c-6.3,0-13.9-1.6-14.8,4.5c-1.4,11.7,21.2,2.3,31.5,7.4c1.3,6.3-2.7,5.8-8.5,5.8c-25.6-0.2-23.4,0.9-42.7-17.5
			c-11.9-11.2-16.2,0.2-10.1,5.6L69.6,148c13.7,10.4,32.8,6.3,53.5,7c4.1,0.2,11.2,6.1,14.2,9c1.4,1.4,2.2,2.3,3.8,3.2
			c2.2-1.4,3.4-2.7,5.4-4.9L161.7,148.9z"/>
	</g>
</g>
</svg>
