<?xml version="1.0" encoding="utf-8"?>
<!-- Generator: Adobe Illustrator 23.0.3, SVG Export Plug-In . SVG Version: 6.00 Build 0)  -->
<svg version="1.1" id="Layer_1" xmlns="http://www.w3.org/2000/svg" xmlns:xlink="http://www.w3.org/1999/xlink" x="0px" y="0px"
	 viewBox="0 0 184.3 184.3" style="enable-background:new 0 0 184.3 184.3;" xml:space="preserve">
<style type="text/css">
	.st0{fill:#FFFFFF;}
</style>
<g id="Layer_x0020_1">
	<path class="st0" d="M68.2,85.6c15.1,0,32.8-0.2,47.9,0l-23.4,91.8c-1.6-0.4-1.3-0.9-1.6-2.3l-2.2-8.6
		c-4.7-19.3-10.1-38.7-14.6-57.8C72.2,100.9,69.9,93.2,68.2,85.6z M71.7,37.2c0.2-3.2,0-5.6,2.3-6.8c2.2-1.1,5.6-1.3,8.3-0.7
		c6.5,1.4,7.7,3.8,15.5,1.3c5-1.6,8.3-4.7,14.4-1.3c4.3,2.3,5.4,8.1,1.4,11.9c-3.8-0.9-4.9-2.2-9.5-0.9c-1.4,0.4-6.1,2.5-7.6,3.2
		c7.2-0.7,12.6-4.9,19.3,0.5c5.9,5,5.8,13.1,1.8,16c0.5,0.5,0,0.2,0.5,0.5l1.1,0.9c4,2.7,5.9,8.1,4.9,13c-0.7,3.2-2.5,5.2-4.3,6.5
		c-3.4,2.3-3.8,1.8-8.6,1.8c-13.7,0-27.7,0.4-41.9,0c-8.3-0.2-15.1-18.9-1.4-25.4c8.1-3.8,12.4,0.5,16.2,2.3c11.5,5.6,13.9,2,16.7,2
		c-4.3,0-5,1.4-10.1-0.4c-7.6-2.5-9.4-6.5-14.6-7.9c-4.1-1.1-6.1-0.4-9.5,0.7c-2.9-2.5-4.5-11.3,0.7-15.1
		C68.8,38.5,69.9,38.1,71.7,37.2z M84.3,28.4c-0.9-16.6,16-27.2,22-18.7c-2.7,0.2-4,0.5-5.2,2.2c-5,6.1,2.7,11.7,4.5,14.6
		c-4.7,0.5-6.3,2.2-10.1,3.2C92.4,30.6,86.8,30,84.3,28.4z M119.9,41.5c0.7-3.4,2.5-7-0.9-12.1c-2.7-4.1-5.8-4.5-8.6-5.9
		c-0.4-0.2-7.7-6.8-5.2-8.5c1.4-0.9,3.6,0.2,5.2-2.2c3.8-5.2-3.4-10.8-9-11.2C90.2,1,80.8,12,79.6,24.1c-4.9,0.5-7.4,0.4-10.3,3.6
		c-1.1,1.3-2,2.7-2.3,4.5c-0.5,2.9,0,1.3-3.1,3.8c-2,1.6-4.3,5-4.9,8.8c-0.9,6.1,1.6,8.8,2.2,11.3c-2,2.2-3.4,3.4-4.9,6.7
		C53.8,68.9,54.2,75,58,80.6c0.9,1.4,1.4,2,2.5,3.1c1.6,1.6,2.3,1.8,2.9,2.7c0.7,1.8,1.8,7,2.3,9.2l20.5,80.6c0.7,3.1,2,5.6,5,6.1
		c3.4,0.7,5.8-1.8,6.7-4.3c0.9-2.7,1.6-6.3,2.3-9.2l20.5-80.6c0.5-2.5,0.4-2.2,2.2-3.4c6.3-4.1,8.5-12.6,5.4-20c-2.2-5-4-4.5-3.4-7
		C126.6,51.3,123.9,44.6,119.9,41.5z"/>
</g>
</svg>
