<?xml version="1.0" encoding="utf-8"?>
<!-- Generator: Adobe Illustrator 23.0.3, SVG Export Plug-In . SVG Version: 6.00 Build 0)  -->
<svg version="1.1" id="Layer_1" xmlns="http://www.w3.org/2000/svg" xmlns:xlink="http://www.w3.org/1999/xlink" x="0px" y="0px"
	 viewBox="0 0 184.3 184.3" style="enable-background:new 0 0 184.3 184.3;" xml:space="preserve">
<style type="text/css">
	.st0{fill:#FFFFFF;}
</style>
<g id="Layer_x0020_1">
	<g id="_2429621487344">
		<path class="st0" d="M52.5,81.4c1.3-1.8,24.5-14.6,27.7-15.8C80,90.8,79.1,79.3,92.6,96.4c4,5,11.9,13.3,16.9,4.5
			c2.9-5.2-1.3-9.4-5.8-14.2c-1.4-1.6-2.5-2.2-4-4c-2-2.5-5.4-5-5.6-9c-0.4-7.7,1.1-22-0.2-28.8c-1.3-6.3-9-13-17.5-11.7
			c-3.6,0.5-33.8,17.1-38.9,20c-8.6,4.9-8.5,8.1-8.5,20.5c0,14.4-0.9,82.4,0.7,86.9c2.3,7.2,11.7,11.3,18.5,4.9
			c5.8-5.6,4.1-16.2,4.1-25.4C52.5,120.5,52.5,100.9,52.5,81.4z"/>
		<path class="st0" d="M130.8,110.4h24.5V66.1l-49.1-0.4c-4.9,0.4-8.1,4.1-6.3,9.2C101.1,78.9,126.3,103.9,130.8,110.4z"/>
		<path class="st0" d="M105.2,16.1c-20,5.4-13,34.6,7.7,29.9c7-1.6,13.1-9.5,11-18.2C122.1,20.4,114.8,13.6,105.2,16.1z"/>
		<path class="st0" d="M137.4,54.8c-1.1,0.9-0.5-1.4-1.1,1.4c-0.2,1.4-0.2,1.4,0.5,2.2c1.1,0.9,2.9,0.7,3.8-0.4
			C142.3,56.4,140.1,52.3,137.4,54.8z"/>
		<path class="st0" d="M145.7,53.4l-0.4-3.2C138.7,47.8,139.4,57,145.7,53.4z"/>
		<path class="st0" d="M136.9,49.2c5.2,1.8,5.9-5.4-0.2-3.6c-0.4,1.3-0.5,0.2-0.4,1.8C136.5,49.6,136.7,48.9,136.9,49.2z"/>
		<path class="st0" d="M133.1,50.3l0.2,3.2c2.3,0.5,4.1,0.7,4.1-1.8C137.1,49,134,49.4,133.1,50.3z"/>
		<path class="st0" d="M134.7,46.3c1.8-3.6-1.3-5-3.1-3.1C130.1,44.9,131,48.1,134.7,46.3z"/>
		<path class="st0" d="M128.4,48.7l-0.5,3.2c1.1,0.2,2.2,0.7,3.1,0C133.3,49.8,131,47.6,128.4,48.7z"/>
		<path class="st0" d="M125.7,46.7c1.1,0.2,0.9,0.2,1.6,0.2c3.4-0.7,3.1-4-1.4-3.6L125.7,46.7z"/>
		<path class="st0" d="M121.6,45.3c-0.2,0.4-2.3-0.2,0,3.2l2.9-0.2C124.7,45.4,123.8,44.5,121.6,45.3z"/>
		<path class="st0" d="M116.7,51c1.3,2.5,3.6,2.7,3.6,0C120.5,48,117.3,48.7,116.7,51z"/>
		<path class="st0" d="M120.2,63.8l3.2,0.2c0.2-1.3,0.7-3.1-1.1-3.4C120,59.8,120.2,62,120.2,63.8z"/>
		<path class="st0" d="M126.1,53.4c1.4-2.9,0.2-3.1-2.3-2.9C122.5,53,122.7,55,126.1,53.4z"/>
		<path class="st0" d="M115.8,55c0,0.2-1.6,1.3,0,2.7c0.9,0.9,1.8,0.5,2.5-0.2C119.8,56.1,118.7,54.1,115.8,55z"/>
		<path class="st0" d="M117.8,63.4c0.9-2.7,0.9-0.5,0-2.9c-0.4-0.2,0.9-1.3-1.6-0.2c-0.9,0.4-1.3,0.5-1.3,1.4
			C114.6,63.8,116.2,63.8,117.8,63.4z"/>
		<path class="st0" d="M120.5,58l3.1,0.2C124.1,53.9,120.2,53.2,120.5,58z"/>
	</g>
</g>
</svg>
