<?xml version="1.0" encoding="utf-8"?>
<!-- Generator: Adobe Illustrator 23.0.3, SVG Export Plug-In . SVG Version: 6.00 Build 0)  -->
<svg version="1.1" id="Layer_1" xmlns="http://www.w3.org/2000/svg" xmlns:xlink="http://www.w3.org/1999/xlink" x="0px" y="0px"
	 viewBox="0 0 184.3 184.3" style="enable-background:new 0 0 184.3 184.3;" xml:space="preserve">
<g id="Layer_x0020_1">
	<path d="M101.3,150.6H82.8c-0.7-2.7-1.3-34.6,0.7-38.7c3.2-7,13.5-7,16.9-0.4c1.8,3.4,1.3,8.3,1.3,12.4
		C101.5,129.2,102.2,146.8,101.3,150.6z M74.9,113.7l-0.2,37.4c-2.7,0.7-19.4,0.4-24.5,0.4c-2.5,0-6.3,0.5-7.9-0.5V95.2
		c6.3,0.5,10.4-0.2,15.1-4L61,88c2.9,3.4,8.1,7.2,15.1,7.4c8.6,0.2,11.7-4.1,15.7-7.4c3.6,3.2,7.2,7.2,15.1,7.4
		c7.7,0.2,12.4-3.8,15.7-7.4c3.2,2,6.3,8.3,18.9,7.2V151c-2.3,1.3-31.7,0.4-32.2,0.2l-0.4-37.4c-0.5-8.1-8.5-15.1-17.3-15.1
		C83.3,98.6,75.1,105.6,74.9,113.7z M119,72.8c2,18.9-24.5,19.3-22.7,0H119z M87.8,72.8c1.6,19.6-24.7,18.7-22.7,0H87.8z M149.9,73
		c0.4,7.9-3.4,14-11.3,14.2c-7.9,0.2-12.1-6.1-11.5-14.4L149.9,73z M56.9,72.8c1.4,19.1-23.8,19.3-22.9,0H56.9z M76.7,64.7
		c0.5-2.5,3.6-12.4,5.4-13.5h20.7l4.7,13.5H76.7z M116.3,64.7l-4.9-13.5c3.8,0,7.7,0,11.5,0c5.4,0,6.5-0.9,9.2,2.3
		c3.8,4.5,7.7,6.3,11.3,11.2H116.3z M40.5,64.6c1.3-0.9,1.6-1.3,2.7-2.7c2.3-2.7,6.3-5.2,9-8.3c2.9-3.4,3.6-2.3,9.2-2.3
		c3.8,0,7.7,0,11.7,0l-4.9,13.5L40.5,64.6z M126.7,33.2c1.1,1.8,0.7,7.4,0.5,9.9H57.1l0.5-10.1L126.7,33.2z M55.4,25.5
		c-8.8,2.5-6.3,10.4-6.7,18c-0.2,3.4-1.4,3.4-3.4,5c-1.6,1.4-2.5,2.7-4.1,4.1c-1.6,1.4-2.9,2.5-4.5,4l-8.5,8.3
		c-1.8,1.6-2.2,2.2-2.2,5.6c0,8.3,0,13.1,6.1,19.1c3.2,3.1,2.2,6.5,2.2,14.4c0,15.7-0.5,34.9,0,49.9c0.2,7,5.2,5.2,11.9,5.2
		c5.6,0,11.2,0,16.7,0c22.1,0,44.5,0,66.6,0c22.9,0,20.7,2.2,20.7-12.6V96.8c0-9.4,1.3-4,5.4-11.2c2.3-4,2.7-8.6,2.7-14
		c0-7-2.9-7-6.3-10.4l-12.4-12.1c-1.4-1.4-3.6-2.2-4-4.7c-1.6-10.1,5-19.4-13.9-19.4c-11,0-22,0-32.9,0
		C82.8,25.1,58.9,24.4,55.4,25.5z"/>
</g>
</svg>
