<?xml version="1.0" encoding="utf-8"?>
<!-- Generator: Adobe Illustrator 23.1.0, SVG Export Plug-In . SVG Version: 6.00 Build 0)  -->
<svg version="1.1" id="Livello_1" xmlns="http://www.w3.org/2000/svg" xmlns:xlink="http://www.w3.org/1999/xlink" x="0px" y="0px"
	 viewBox="0 0 184.3 184.3" style="enable-background:new 0 0 184.3 184.3;" xml:space="preserve">
<style type="text/css">
	.st0{fill-rule:evenodd;clip-rule:evenodd;fill:#010101;}
</style>
<g id="Layer_x0020_1">
	<g id="_2437244550336">
		<path class="st0" d="M80.2,15.1h-0.1l-0.3,8.9c-34.1,4.4-58.5,33.8-61.4,65.8c-0.9,9.5,1.1,26.1,5.6,34.5l1.2,1.9l3-18.4l15.4,5.3
			c-4.3-16.1-3.9-30.3,4.7-43.4C55.3,58.9,66.3,49.3,80,47.1L80,56.2c2.8-1.7,3.6-2.8,6-4.7c2-1.6,4.2-3.3,6.1-4.9
			c3.8-3.2,8.9-8.1,12.6-10.1c-1.7-3.3-14.3-12.7-18.1-15.9l-5.2-4.4C80.5,15.5,80.8,15.9,80.2,15.1z"/>
		<path class="st0" d="M112.3,35.9c-3.8,3.2-8.2,7.5-12.2,9.9l2,1.1c0.9,0.4,1.5,0.4,2.7,0.7c25.8,6.7,43.2,35.5,34.4,63.2
			c-2.8-1.2-5.1-3.2-8.2-4.3l5.3,31.3c1.2-0.3,27.1-9.2,29.7-11.2l-6.8-4.1c3.5-13.7,6.4-20.6,4-36.9c-3.1-21.3-15.7-40.8-33.4-51.4
			c-8.1-4.8-20.6-10.5-31.9-10.6C102.5,28.1,107.8,31.6,112.3,35.9z"/>
		<path class="st0" d="M85.3,169.1h12.1c2.3-1,6.5-1.2,9.3-1.8c16.1-3.6,36.5-15.7,43.7-29.2l-17.9,6.5l-2.8-15.8
			c-16,15.7-37.2,23.7-59.6,13.1c-4.7-2.2-14-7.6-15.8-12c2.1-0.9,6.2-2.9,7.8-4.6l-29.5-10.9c-1.1,1.6-0.9,2-1.9,7.8L27,145.9
			l7-3.8c2.5,1.7,3,3,4.9,5C57.3,167,79.7,166.8,85.3,169.1z"/>
	</g>
</g>
</svg>
