<?xml version="1.0" encoding="utf-8"?>
<!-- Generator: Adobe Illustrator 23.1.0, SVG Export Plug-In . SVG Version: 6.00 Build 0)  -->
<svg version="1.1" id="Livello_1" xmlns="http://www.w3.org/2000/svg" xmlns:xlink="http://www.w3.org/1999/xlink" x="0px" y="0px"
	 viewBox="0 0 184.3 184.3" style="enable-background:new 0 0 184.3 184.3;" xml:space="preserve">
<style type="text/css">
	.st0{fill-rule:evenodd;clip-rule:evenodd;fill:#FEFEFE;}
</style>
<g id="Layer_x0020_1">
	<g id="_2437244169904">
		<path class="st0" d="M18.9,30.4l145.8-0.1l0.1,102.2l-145.7,0.1L18.9,30.4z M9.7,16.6c-6.3,2.2-5.3,6.2-5.2,13.7v96.4
			c0,19-2.3,20.3,17.4,20.3c18.2-0.1,146.4,1.6,152.5-0.5c8.2-2.9,4.8-24.1,4.8-33.3V36.5c0-19.3,2.6-20.5-17.4-20.5
			C143.7,16,15.3,14.5,9.7,16.6z"/>
		<path class="st0" d="M128.4,55.1v52.8c0,8.4,2.4,10.3,11,9.4c4.9-7.3,3.3-5.2,3.3-20.8c0-8.3,0-16.6,0-24.9c0-5.1,1-19.7-1.2-23.2
			C137.4,42.3,128.4,43.7,128.4,55.1z"/>
		<path class="st0" d="M56,165.4c2.9,1.8,4.1,3.3,8.4,3.3h54.9c4.3,0,5.6-1.5,8.4-3.3c1-8.6-1-11-9.4-11H64.4
			C56.7,154.4,55.1,157.8,56,165.4z"/>
		<path class="st0" d="M84.7,75.8V109c0,12.1,14.2,12.1,14.2,0V75.8C99,63.7,84.7,63.6,84.7,75.8z"/>
		<path class="st0" d="M44.3,117.3c13.6,1.5,11-5.6,11-26c0-8.4-2.4-10.2-11-9.3c-4.5,6.7-3.3,2.2-3.3,17.7
			C41,114.3,39.7,110.6,44.3,117.3z"/>
	</g>
</g>
</svg>
