<?xml version="1.0" encoding="utf-8"?>
<!-- Generator: Adobe Illustrator 23.1.0, SVG Export Plug-In . SVG Version: 6.00 Build 0)  -->
<svg version="1.1" id="Livello_1" xmlns="http://www.w3.org/2000/svg" xmlns:xlink="http://www.w3.org/1999/xlink" x="0px" y="0px"
	 viewBox="0 0 184.3 184.3" style="enable-background:new 0 0 184.3 184.3;" xml:space="preserve">
<style type="text/css">
	.st0{fill:none;stroke:#000000;stroke-width:12;stroke-miterlimit:10;}
	.st1{stroke:#000000;stroke-width:6;stroke-miterlimit:10;}
</style>
<g>
	<path class="st0" d="M71.5,30.5h85.8c2.3,0,4.2,1.9,4.2,4.2v114.8c0,2.3-1.9,4.2-4.2,4.2H42.5c-2.3,0-4.2-1.9-4.2-4.2V72.9"/>
</g>
<g>
	<path class="st1" d="M21.4,65.2l2.1-3.6c1.3-2.2,2.7-4.1,4.5-5.9c12.9-13,36.2-11.5,54.5,3.3l9.4-9.5l-1.2,29.2l-29.1,1.4l9.4-9.4
		c-14.7-11.8-33.3-15-45.8-7.6L21.4,65.2z M89.3,55.3l-6.9,6.9l-0.8-0.7C64.1,46.8,41.7,45,29.5,57.2c-0.6,0.6-1.2,1.3-1.7,1.9
		c13.5-5.5,31.3-1.6,45.6,10.4l0.9,0.8l-7.1,7.1l21.2-1L89.3,55.3z"/>
</g>
</svg>
