<?xml version="1.0" encoding="utf-8"?>
<!-- Generator: Adobe Illustrator 23.1.0, SVG Export Plug-In . SVG Version: 6.00 Build 0)  -->
<svg version="1.1" id="Livello_1" xmlns="http://www.w3.org/2000/svg" xmlns:xlink="http://www.w3.org/1999/xlink" x="0px" y="0px"
	 viewBox="0 0 184.3 184.3" style="enable-background:new 0 0 184.3 184.3;" xml:space="preserve">
<style type="text/css">
	.st0{fill-rule:evenodd;clip-rule:evenodd;fill:#FEFEFE;}
	.st1{fill-rule:evenodd;clip-rule:evenodd;}
	.st2{fill-rule:evenodd;clip-rule:evenodd;fill:#232323;}
	.st3{fill-rule:evenodd;clip-rule:evenodd;fill:#020202;}
	.st4{fill-rule:evenodd;clip-rule:evenodd;fill:#5A5A5A;}
	.st5{fill-rule:evenodd;clip-rule:evenodd;fill:#595959;}
	.st6{fill-rule:evenodd;clip-rule:evenodd;fill:#6B6B6B;}
	.st7{fill-rule:evenodd;clip-rule:evenodd;fill:#737373;}
	.st8{fill-rule:evenodd;clip-rule:evenodd;fill:#909090;}
	.st9{fill-rule:evenodd;clip-rule:evenodd;fill:#626262;}
	.st10{fill-rule:evenodd;clip-rule:evenodd;fill:#6F6F6F;}
	.st11{fill-rule:evenodd;clip-rule:evenodd;fill:#6C6C6C;}
	.st12{fill-rule:evenodd;clip-rule:evenodd;fill:#8C8C8C;}
	.st13{fill-rule:evenodd;clip-rule:evenodd;fill:#848484;}
	.st14{fill-rule:evenodd;clip-rule:evenodd;fill:#474747;}
	.st15{fill-rule:evenodd;clip-rule:evenodd;fill:#464646;}
	.st16{fill-rule:evenodd;clip-rule:evenodd;fill:#3F3F3F;}
	.st17{fill-rule:evenodd;clip-rule:evenodd;fill:#484848;}
	.st18{fill-rule:evenodd;clip-rule:evenodd;fill:#424242;}
	.st19{fill-rule:evenodd;clip-rule:evenodd;fill:#3E3E3E;}
	.st20{fill-rule:evenodd;clip-rule:evenodd;fill:#414141;}
</style>
<g id="Layer_x0020_1">
	<g id="_2437244586240">
		<path class="st0" d="M18.9,30.4l145.8-0.1l0.1,102.2l-145.7,0.1L18.9,30.4z M9.7,16.6c-6.3,2.2-5.3,6.2-5.2,13.7v96.4
			c0,19-2.3,20.3,17.4,20.3c18.2-0.1,146.4,1.6,152.5-0.5c8.2-2.9,4.8-24.1,4.8-33.3V36.5c0-19.3,2.6-20.5-17.4-20.5
			C143.7,16,15.3,14.5,9.7,16.6z"/>
		<path class="st0" d="M128.4,55.1v52.8c0,8.4,2.4,10.3,11,9.4c4.9-7.3,3.3-5.2,3.3-20.8c0-8.3,0-16.6,0-24.9c0-5.1,1-19.7-1.2-23.2
			C137.4,42.3,128.4,43.7,128.4,55.1z"/>
		<path class="st0" d="M56,165.4c2.9,1.8,4.1,3.3,8.4,3.3h54.9c4.3,0,5.6-1.5,8.4-3.3c1-8.6-1-11-9.4-11H64.4
			C56.7,154.4,55.1,157.8,56,165.4z"/>
		<path class="st0" d="M84.7,75.8V109c0,12.1,14.2,12.1,14.2,0V75.8C99,63.7,84.7,63.6,84.7,75.8z"/>
		<path class="st0" d="M44.3,117.3c13.6,1.5,11-5.6,11-26c0-8.4-2.4-10.2-11-9.3c-4.5,6.7-3.3,2.2-3.3,17.7
			C41,114.3,39.7,110.6,44.3,117.3z"/>
	</g>
	<g id="_2437244564416">
		<path class="st1" d="M33.9,139.3c-0.3-33.8,0-70,0-103.7h113l0.1,113.1h-113L33.9,139.3z M29,104.4c0.3,15.6,0.1,33.7,0,49.1
			h122.8l0.3-122.8H29V104.4z"/>
		<path class="st2" d="M29,30.7h123.1l-0.3,122.8H29c0.1-15.5,0.3-33.5,0-49.1V30.7z M28.7,153.8h123.7h-0.3V30.4h3.5H28.7V153.8z"
			/>
		<polygon class="st1" points="100.6,81.9 111,81.9 111,71.8 100.6,71.7 		"/>
		<path class="st3" d="M116.1,96.8c1.8,0.5,7.9,0.3,10.2,0.3l-0.1-10.2l-10.1,0.1V96.8z"/>
		<path class="st1" d="M131.5,50.6c1.8,0.5,7.9,0.2,10.2,0.2l-0.2-10.1h-10V50.6z"/>
		<polygon class="st1" points="131.5,96.9 141.7,97 141.6,86.9 131.5,86.9 		"/>
		<path class="st1" d="M95,133.2h-9.3c-0.7,1.8-0.3,7.7-0.3,10.1h9.9C95.3,141,95.8,135.1,95,133.2z"/>
		<path class="st1" d="M85.7,51H95c0.8-1.8,0.3-7.7,0.3-10.1h-9.9C85.4,43.3,85,49.2,85.7,51z"/>
		<polygon class="st1" points="69.9,66.3 79.9,66.3 80,56.4 70,56.4 		"/>
		<polygon class="st1" points="116.2,112.5 126.2,112.5 126.1,102.6 116.2,102.6 		"/>
		<polygon class="st1" points="85.4,118.9 85.4,121.8 85.4,127.9 95.3,127.9 95.3,121.5 95.3,118 93.6,117.9 85.4,117.9 		"/>
		<polygon class="st1" points="100.8,60.1 100.9,61.3 100.9,65.1 100.8,66.3 110.7,66.3 110.7,63.6 110.7,57.5 110.7,56.4 
			100.9,56.4 		"/>
		<polygon class="st3" points="54.6,112.5 64.6,112.5 64.5,102.6 54.6,102.6 54.6,107 		"/>
		<polygon class="st1" points="70,97.1 79.9,97.1 79.9,87.2 70,87.2 70,91.6 		"/>
		<polygon class="st1" points="100.8,112.5 104.6,112.5 110.7,112.4 110.6,110.2 110.7,104.9 110.7,102.6 100.8,102.6 		"/>
		<polygon class="st1" points="70,77 70,81.7 79.9,81.7 79.9,71.8 75.5,71.8 73.5,71.8 70.3,71.8 70,71.8 		"/>
		<polygon class="st1" points="131.7,143.3 141.6,143.4 141.5,133.5 131.7,133.5 		"/>
		<polygon class="st3" points="141.5,66.2 141.6,56.3 131.7,56.4 131.7,66.2 		"/>
		<polygon class="st1" points="39.3,50.8 49.1,50.8 49.1,41 39.2,40.9 		"/>
		<polygon class="st1" points="39.3,81.6 49.1,81.6 49.1,71.8 39.2,71.7 		"/>
		<polygon class="st1" points="54.7,50.8 64.5,50.8 64.5,41 54.6,40.9 		"/>
		<polygon class="st1" points="79.9,143.2 79.9,133.4 70.1,133.4 70,143.4 		"/>
		<polygon class="st1" points="116.3,143.2 126.2,143.4 126.1,133.5 116.3,133.5 		"/>
		<polygon class="st1" points="131.7,127.8 141.6,127.9 141.5,118 131.7,118 		"/>
		<polygon class="st1" points="49.1,143.3 49.1,133.5 39.3,133.5 39.2,143.4 		"/>
		<polygon class="st1" points="64.5,127.8 64.5,118 54.7,118 54.6,127.9 		"/>
		<polygon class="st3" points="49.1,112.4 48.9,102.6 39.3,102.6 39.2,112.5 		"/>
		<polygon class="st1" points="54.7,66.2 64.3,66.2 64.5,56.5 54.6,56.3 		"/>
		<path class="st4" d="M70,71.8h0.3l3.2,0.1l2-0.1h4.4l-0.1,9.9H70V77V71.8z M69.7,81.8L80.1,82l0.1-10.4l-10.4-0.1L69.7,81.8z"/>
		<path class="st5" d="M70,91.6v-4.4h9.9l-0.1,9.9H70V91.6z M69.7,97.3l10.4,0.1L80.2,87l-10.4-0.1L69.7,97.3z"/>
		<path class="st5" d="M85.4,117.9h8.2l1.7,0.1v3.5v6.4h-9.9v-6.1v-2.9L85.4,117.9z M85.2,128.2l10.4-0.1l-0.1-10.4l-10.4,0.1
			L85.2,128.2z"/>
		<path class="st5" d="M100.8,102.6h9.9v2.3l-0.1,5.3l0.1,2.2l-6.1,0.1h-3.8V102.6z M100.6,112.8l10.4-0.1l-0.1-10.4l-10.4,0.1
			L100.6,112.8z"/>
		<path class="st4" d="M54.6,107v-4.4l9.8,0.1l0.1,9.8h-9.9V107z M54.4,112.8l10.4-0.1l-0.1-10.4l-10.4,0.2L54.4,112.8z"/>
		<path class="st5" d="M100.9,56.4h9.9v1.1v6.1l-0.1,2.7h-9.9l0.1-1.2v-3.8l-0.1-1.1L100.9,56.4z M100.5,66.5l10.4,0.1l0.1-10.4
			l-10.3-0.1L100.5,66.5z"/>
		<path class="st5" d="M116.2,102.6h9.9l0.1,9.9h-9.9V102.6z M116.1,112.8l10.3-0.2l-0.1-10.3l-10.4,0.1L116.1,112.8z"/>
		<path class="st5" d="M70,56.4h10l-0.1,9.9h-10L70,56.4z M69.7,66.4l10.4,0.2l0.1-10.4l-10.4-0.1L69.7,66.4z"/>
		<path class="st6" d="M64.7,127.6l-0.3,0.2l-9.9,0.2l0.2-9.9l0.2-0.3c-0.7,0.5-0.6-0.8-0.6,2.6c0.1,0.9,0,1.8,0,2.7
			c0,1.5-0.1,3.6,0.2,5.1c1.6,0.3,5.8,0.1,8,0.1C65.3,128.2,64.5,128.2,64.7,127.6z"/>
		<path class="st7" d="M49.3,143.2l-0.3,0.1l-9.9,0.1l0.1-9.8l0.1-0.3c-0.5,0.4-0.6-0.8-0.5,2.6c0,0.9,0,1.7,0,2.6
			c0,1.6-0.2,3.6,0.2,5.1c1.6,0.3,3.7,0.2,5.4,0.2C46.2,143.7,48.9,144,49.3,143.2z"/>
		<path class="st8" d="M131.5,96.9c0.3,0.8,3.2,0.4,4.8,0.4c1.6,0,3.8,0.2,5.4-0.1c0.3-0.6,0.7-9.3-0.1-10.3l0.1,10.2L131.5,96.9z"
			/>
		<path class="st7" d="M39.3,51.1l-0.1-0.3l-0.1-9.9l9.9,0.1l0.3,0.1c-0.4-0.8-3.1-0.5-4.9-0.5c-1.7,0-3.7-0.2-5.4,0.2
			c-0.3,1.5-0.2,5.7-0.2,7.7C38.8,51.7,38.9,50.6,39.3,51.1z"/>
		<path class="st9" d="M95,133.2c0.8,1.8,0.3,7.7,0.3,10.1h-9.9c0-2.3-0.4-8.2,0.3-10.1c-0.7,0.4-0.4-0.7-0.6,1.1l0.2,9.3l10.3-0.1
			c0.4-1.6,0.1-5.8,0.2-8c0-0.2,0-1.4,0-1.5C95.3,132.7,95.9,133.5,95,133.2z"/>
		<path class="st6" d="M54.9,66.5l-0.2-0.3l-0.2-9.9l9.9,0.2l0.3,0.2c-0.4-0.8,0.4-0.3-0.8-0.6l-9.5,0.2c-0.3,1.6-0.1,5.6-0.2,7.8
			c0,0.2-0.1,1.3,0,1.5C54.5,67.1,54.2,66,54.9,66.5z"/>
		<path class="st9" d="M85.7,51c-0.7-1.8-0.3-7.7-0.3-10.1h9.9c0,2.3,0.5,8.2-0.3,10.1c0.6-0.2,0.7,0.7,0.6-2.2
			c-0.1-2.2,0.2-6.4-0.2-8l-10.2-0.1l-0.2,9.3C85.3,51.7,85,50.6,85.7,51z"/>
		<path class="st6" d="M39.4,81.9l-0.1-0.3l-0.2-9.9l9.9,0.1l0.3,0.1c-0.5-0.8-3.2-0.5-4.9-0.5c-1.7,0-3.7-0.2-5.4,0.1l-0.2,9.2
			C39.1,82.4,38.8,81.5,39.4,81.9z"/>
		<path class="st10" d="M54.8,51.1l-0.1-0.3l-0.1-9.9l9.9,0.2l0.3,0.2c-0.2-0.6,0.5-0.7-2.3-0.6c-2.2,0.1-6.3-0.2-8,0.2l-0.2,9.2
			C54.4,51.5,54.3,50.6,54.8,51.1z"/>
		<path class="st10" d="M131.7,127.8l-0.2-0.1c0.4,0.5-0.4,0.4,1.1,0.5l9.2-0.2c0.3-1.7,0.1-5.8,0.1-8c0.1-2.9,0-2.1-0.6-2.3
			l0.2,0.3l0.2,9.9L131.7,127.8z"/>
		<path class="st11" d="M49.3,112.4l-0.2,0.1l-9.9,0.1l0.2-9.9l0.1-0.3c-0.7,0.4-0.4-0.6-0.6,1.1l0.1,9.2c1.5,0.3,5.9,0.1,8.1,0.1
			C48,112.8,48.9,113.1,49.3,112.4z"/>
		<path class="st10" d="M116.3,143.2l-0.3-0.2c0.4,0.6-0.8,0.6,2.6,0.6c2.1-0.1,6.1,0.2,7.8-0.2l0.1-9.5c-0.2-1.3,0.2-0.5-0.5-0.8
			l0.1,0.3l0.1,9.9L116.3,143.2z"/>
		<path class="st10" d="M131.7,56.4l9.9-0.1l-0.2,9.8l-0.2,0.3c0.7-0.4,0.4,0.6,0.6-0.8l-0.1-9.5l-9.3-0.2c-1.4,0.1-0.7-0.1-1.1,0.5
			L131.7,56.4z"/>
		<path class="st12" d="M116.1,96.8c0.3,0.9,3,0.5,4.8,0.5c1.6,0,3.8,0.2,5.4-0.1c0.3-0.7,0.5-8.3,0.2-9.7c-0.1-0.6-0.2-0.4-0.3-0.6
			l0.1,10.2C124,97,117.9,97.3,116.1,96.8z"/>
		<path class="st6" d="M80.1,143l-0.3,0.2l-9.9,0.2l0.1-9.9l0.1-0.2c-0.5,0.4-0.3-0.4-0.5,1.1l0.2,9.2l9.5,0.2
			C80.5,143.4,79.8,143.9,80.1,143z"/>
		<path class="st13" d="M131.5,50.6c0.2,0.5-0.6,0.5,2.2,0.5c2.1,0,6.3,0.2,8-0.1l0.2-9.2c-0.2-1.4-0.1-0.8-0.5-1.1l0.2,10.1
			C139.4,50.7,133.3,51.1,131.5,50.6z"/>
		<polygon class="st14" points="49.1,112.4 49.3,112.4 49.4,102.4 39.4,102.4 39.3,102.6 48.9,102.6 		"/>
		<path class="st7" d="M131.7,143.3l-0.3-0.1c0.4,0.5-0.4,0.3,1.1,0.5l9.2-0.2l0.2-9.5c-0.3-1.3,0.2-0.5-0.5-0.8l0.1,0.3l0.1,9.9
			L131.7,143.3z"/>
		<polygon class="st15" points="54.7,66.2 54.9,66.5 64.7,66.5 64.7,56.6 64.5,56.5 64.3,66.2 		"/>
		<polygon class="st16" points="49.1,143.3 49.3,143.2 49.3,133.2 39.4,133.2 39.3,133.5 49.1,133.5 		"/>
		<polygon class="st17" points="64.5,127.8 64.7,127.6 64.7,117.7 54.9,117.7 54.7,118 64.5,118 		"/>
		<polygon class="st18" points="141.3,66.5 141.5,66.2 131.7,66.2 131.7,56.4 131.4,56.5 131.4,66.5 		"/>
		<polygon class="st19" points="131.5,143.2 131.7,143.3 131.7,133.5 141.5,133.5 141.4,133.2 131.4,133.2 		"/>
		<polygon class="st20" points="131.5,127.7 131.7,127.8 131.7,118 141.5,118 141.3,117.8 131.4,117.8 		"/>
		<polygon class="st19" points="39.3,50.8 39.3,51.1 49.3,51.1 49.3,41 49.1,41 49.1,50.8 		"/>
		<polygon class="st14" points="79.9,143.2 80.1,143 80.1,133.1 70.1,133.2 70.1,133.4 79.9,133.4 		"/>
		<polygon class="st18" points="116.1,143 116.3,143.2 116.3,133.5 126.1,133.5 126,133.2 116,133.2 		"/>
		<polygon class="st18" points="54.7,50.8 54.8,51.1 64.7,51.1 64.7,41.2 64.5,41 64.5,50.8 		"/>
		<polygon class="st15" points="39.3,81.6 39.4,81.9 49.3,81.9 49.3,71.9 49.1,71.8 49.1,81.6 		"/>
	</g>
</g>
</svg>
