<?xml version="1.0" encoding="utf-8"?>
<!-- Generator: Adobe Illustrator 23.1.0, SVG Export Plug-In . SVG Version: 6.00 Build 0)  -->
<svg version="1.1" id="Livello_1" xmlns="http://www.w3.org/2000/svg" xmlns:xlink="http://www.w3.org/1999/xlink" x="0px" y="0px"
	 viewBox="0 0 184.3 184.3" style="enable-background:new 0 0 184.3 184.3;" xml:space="preserve">
<style type="text/css">
	.st0{fill-rule:evenodd;clip-rule:evenodd;fill:#FEFEFE;}
</style>
<g id="Layer_x0020_1">
	<g id="_2437244683728">
		<g>
			<path class="st0" d="M81.3,82.8H82v0.5h-0.7V82.8z M81.2,82.7C81.2,82.7,81.2,82.7,81.2,82.7v0.5c0,0.1,0,0.1,0.1,0.1
				c0.1,0,0.7,0,0.8,0s0-0.1,0-0.2v-0.4c0-0.1,0.1-0.1-0.1-0.1C81.9,82.7,81.3,82.7,81.2,82.7z"/>
			<path class="st0" d="M81.8,82.9v0.3c0,0,0,0,0.1,0c0,0,0,0,0-0.1c0,0,0-0.1,0-0.1L81.8,82.9C81.8,82.8,81.8,82.8,81.8,82.9z"/>
			<path class="st0" d="M81.5,83.4C81.5,83.4,81.5,83.4,81.5,83.4h0.3c0,0,0,0,0.1,0c0-0.1-0.1-0.1-0.1-0.1L81.5,83.4
				C81.5,83.4,81.5,83.4,81.5,83.4z"/>
			<path class="st0" d="M81.6,83v0.2c0,0.1,0.1,0.1,0.1,0V83C81.7,82.9,81.6,82.9,81.6,83z"/>
			<path class="st0" d="M81.4,83.2c0.1,0.1,0.1,0,0.1-0.1c0-0.1-0.1-0.1-0.1-0.1C81.4,83.1,81.4,83,81.4,83.2
				C81.4,83.2,81.4,83.2,81.4,83.2z"/>
		</g>
		<g>
			<path class="st0" d="M81.4,83.3c0-0.2,0-0.3,0-0.5h0.5v0.5L81.4,83.3L81.4,83.3z M81.3,83.1c0,0.1,0,0.2,0,0.3h0.6v-0.6h-0.6
				V83.1z"/>
			<path class="st0" d="M81.3,82.8h0.6v0.6h-0.6c0-0.1,0-0.2,0-0.3V82.8z M81.3,83.4h0.6l0,0v-0.6l0,0h-0.6V83.4z"/>
			<polygon class="st0" points="81.7,83 81.7,83 81.7,83 81.7,83 			"/>
			<path class="st0" d="M81.7,83.1C81.8,83.1,81.8,83.1,81.7,83.1L81.7,83.1L81.7,83.1L81.7,83.1z"/>
			<path class="st0" d="M81.8,82.9L81.8,82.9L81.8,82.9L81.8,82.9L81.8,82.9z"/>
			<polygon class="st0" points="81.8,83.1 81.9,83.1 81.9,83 81.8,83 			"/>
			<path class="st0" d="M81.6,83.3L81.6,83.3C81.6,83.3,81.6,83.3,81.6,83.3L81.6,83.3C81.6,83.3,81.7,83.3,81.6,83.3z"/>
			<path class="st0" d="M81.6,82.9L81.6,82.9C81.7,82.9,81.6,82.8,81.6,82.9L81.6,82.9C81.6,82.8,81.6,82.9,81.6,82.9z"/>
			<polygon class="st0" points="81.5,83 81.6,83 81.6,82.9 81.5,82.9 			"/>
			<polygon class="st0" points="81.7,83.2 81.8,83.2 81.8,83.1 81.7,83.1 			"/>
			<polygon class="st0" points="81.6,83.2 81.6,83.2 81.6,83.2 81.6,83.2 81.6,83.2 81.6,83.2 81.6,83.2 81.6,83.2 			"/>
			<polygon class="st0" points="81.7,82.9 81.7,82.9 81.7,82.9 81.7,83 81.7,83 81.7,82.9 81.7,82.9 81.7,82.9 			"/>
			<polygon class="st0" points="81.5,83.2 81.5,83.2 81.5,83.1 81.5,83.1 81.5,83.1 			"/>
			<polygon class="st0" points="81.5,83.1 81.6,83.1 81.6,83.1 81.5,83.1 			"/>
			<polygon class="st0" points="81.7,83.2 81.7,83.2 81.7,83.2 81.7,83.2 81.7,83.1 81.7,83.1 81.7,83.1 			"/>
			<polygon class="st0" points="81.5,83 81.5,83 81.6,83 81.6,83 81.6,83 81.5,83 81.5,83 81.5,83 			"/>
			<polygon class="st0" points="81.8,83.3 81.9,83.3 81.9,83.3 81.8,83.3 			"/>
			<polygon class="st0" points="81.9,83 81.9,82.9 81.8,82.9 81.8,83 			"/>
			<polygon class="st0" points="81.4,82.9 81.4,82.9 81.4,82.8 81.4,82.8 			"/>
			<polygon class="st0" points="81.4,83 81.4,83 81.4,83 81.4,83 			"/>
			<polygon class="st0" points="81.5,82.9 81.5,82.9 81.5,82.8 81.5,82.8 			"/>
			<polygon class="st0" points="81.6,83.3 81.6,83.3 81.5,83.3 81.5,83.3 			"/>
			<polygon class="st0" points="81.7,83.3 81.8,83.3 81.8,83.3 81.7,83.3 			"/>
			<polygon class="st0" points="81.8,83.2 81.9,83.2 81.9,83.2 81.8,83.2 			"/>
			<polygon class="st0" points="81.4,83.3 81.4,83.3 81.4,83.3 81.4,83.3 			"/>
			<polygon class="st0" points="81.5,83.2 81.5,83.2 81.5,83.2 81.5,83.2 			"/>
			<polygon class="st0" points="81.4,83.2 81.4,83.1 81.4,83.1 81.4,83.2 			"/>
			<polygon class="st0" points="81.5,83 81.5,83 81.5,82.9 81.5,82.9 			"/>
			<path class="st0" d="M81.5,83L81.5,83L81.5,83L81.5,83L81.5,83L81.5,83L81.5,83L81.5,83L81.5,83z M81.5,83L81.5,83L81.5,83
				L81.5,83L81.5,83z"/>
			<path class="st0" d="M81.5,83.1L81.5,83.1L81.5,83.1L81.5,83.1L81.5,83.1L81.5,83.1z M81.5,83.1L81.5,83.1L81.5,83.1L81.5,83.1
				L81.5,83.1z"/>
			<path class="st0" d="M81.6,83.2L81.6,83.2L81.6,83.2L81.6,83.2L81.6,83.2L81.6,83.2L81.6,83.2L81.6,83.2L81.6,83.2z M81.6,83.2
				L81.6,83.2L81.6,83.2L81.6,83.2L81.6,83.2z"/>
			<path class="st0" d="M81.7,83.1L81.7,83.1L81.7,83.1L81.7,83.1L81.7,83.1L81.7,83.1L81.7,83.1L81.7,83.1z M81.7,83.2L81.7,83.2
				L81.7,83.2L81.7,83.2L81.7,83.2z"/>
			<path class="st0" d="M81.5,83.1L81.5,83.1L81.5,83.1L81.5,83.1L81.5,83.1L81.5,83.1z M81.5,83.2L81.5,83.2L81.5,83.2L81.5,83.2
				L81.5,83.2z"/>
			<path class="st0" d="M81.7,82.9L81.7,82.9L81.7,82.9L81.7,82.9L81.7,82.9L81.7,82.9L81.7,82.9L81.7,82.9L81.7,82.9L81.7,82.9z
				 M81.7,83L81.7,83L81.7,83L81.7,83L81.7,83z"/>
			<path class="st0" d="M81.7,83.1L81.7,83.1L81.7,83.1L81.7,83.1L81.7,83.1z M81.7,83.2L81.7,83.2L81.7,83.2L81.7,83.2L81.7,83.2z"
				/>
			<path class="st0" d="M81.5,82.9L81.5,82.9L81.5,82.9L81.5,82.9L81.5,82.9z M81.5,83L81.5,83L81.5,83L81.5,83L81.5,83z"/>
			<path class="st0" d="M81.5,83.2L81.5,83.2L81.5,83.2L81.5,83.2L81.5,83.2C81.5,83.2,81.5,83.2,81.5,83.2L81.5,83.2L81.5,83.2
				L81.5,83.2C81.5,83.2,81.5,83.2,81.5,83.2z"/>
			<path class="st0" d="M81.4,83.3L81.4,83.3L81.4,83.3L81.4,83.3L81.4,83.3L81.4,83.3L81.4,83.3C81.4,83.3,81.4,83.3,81.4,83.3
				C81.4,83.3,81.4,83.3,81.4,83.3L81.4,83.3z"/>
			<path class="st0" d="M81.8,83.1C81.8,83.1,81.8,83.1,81.8,83.1C81.9,83.1,81.9,83.1,81.8,83.1C81.9,83.1,81.9,83.1,81.8,83.1
				L81.8,83.1L81.8,83.1z"/>
			<path class="st0" d="M81.4,82.9L81.4,82.9L81.4,82.9L81.4,82.9L81.4,82.9L81.4,82.9C81.4,82.8,81.4,82.8,81.4,82.9L81.4,82.9
				L81.4,82.9z"/>
			<path class="st0" d="M81.6,83.3C81.7,83.3,81.6,83.3,81.6,83.3L81.6,83.3C81.6,83.3,81.6,83.3,81.6,83.3
				C81.6,83.3,81.6,83.3,81.6,83.3L81.6,83.3L81.6,83.3C81.7,83.3,81.6,83.3,81.6,83.3L81.6,83.3C81.6,83.3,81.7,83.3,81.6,83.3z"/>
			<path class="st0" d="M81.5,83L81.5,83L81.5,83L81.5,83L81.5,83C81.5,82.9,81.5,82.9,81.5,83L81.5,83L81.5,83L81.5,83
				C81.5,83,81.5,83,81.5,83z"/>
			<path class="st0" d="M81.6,82.9C81.6,82.9,81.6,82.8,81.6,82.9L81.6,82.9C81.6,82.8,81.7,82.9,81.6,82.9L81.6,82.9
				C81.6,82.9,81.7,82.8,81.6,82.9L81.6,82.9L81.6,82.9C81.6,82.9,81.6,82.9,81.6,82.9z"/>
			<path class="st0" d="M81.4,83L81.4,83L81.4,83L81.4,83L81.4,83L81.4,83C81.4,83,81.4,83,81.4,83L81.4,83L81.4,83z"/>
			<path class="st0" d="M81.5,82.9L81.5,82.9L81.5,82.9L81.5,82.9L81.5,82.9C81.5,82.8,81.5,82.8,81.5,82.9L81.5,82.9L81.5,82.9
				L81.5,82.9z"/>
			<path class="st0" d="M81.8,83.2L81.8,83.2L81.8,83.2L81.8,83.2L81.8,83.2C81.9,83.2,81.9,83.2,81.8,83.2L81.8,83.2L81.8,83.2
				L81.8,83.2z"/>
			<path class="st0" d="M81.4,83.2L81.4,83.2L81.4,83.2L81.4,83.2L81.4,83.2L81.4,83.2L81.4,83.2L81.4,83.2L81.4,83.2z"/>
			<path class="st0" d="M81.7,83.3L81.7,83.3C81.7,83.3,81.7,83.3,81.7,83.3L81.7,83.3L81.7,83.3L81.7,83.3L81.7,83.3L81.7,83.3
				L81.7,83.3z"/>
			<path class="st0" d="M81.8,82.9L81.8,82.9L81.8,82.9L81.8,82.9C81.9,83,81.9,83,81.8,82.9L81.8,82.9L81.8,82.9L81.8,82.9
				L81.8,82.9z"/>
			<path class="st0" d="M81.7,83.1C81.7,83.1,81.8,83.1,81.7,83.1L81.7,83.1L81.7,83.1C81.8,83,81.8,83.1,81.7,83.1L81.7,83.1
				C81.8,83.1,81.8,83.1,81.7,83.1z"/>
			<path class="st0" d="M81.6,83.3L81.6,83.3L81.6,83.3L81.6,83.3L81.6,83.3L81.6,83.3L81.6,83.3L81.6,83.3L81.6,83.3z"/>
			<path class="st0" d="M81.8,82.9L81.8,82.9L81.8,82.9L81.8,82.9L81.8,82.9L81.8,82.9L81.8,82.9z"/>
			<polygon class="st0" points="81.4,83.2 81.4,83.2 81.4,83.1 81.4,83.1 81.4,83.1 81.4,83.1 			"/>
			<path class="st0" d="M81.8,83.3L81.8,83.3L81.8,83.3L81.8,83.3L81.8,83.3L81.8,83.3L81.8,83.3L81.8,83.3L81.8,83.3z"/>
			<polygon class="st0" points="81.5,83 81.5,83 81.5,83 81.5,82.9 81.5,82.9 81.5,83 			"/>
			<polygon class="st0" points="81.4,83.3 81.4,83.3 81.4,83.3 81.4,83.3 81.4,83.3 81.4,83.3 			"/>
			<polygon class="st0" points="81.5,83.2 81.5,83.2 81.5,83.2 81.5,83.2 81.5,83.2 81.5,83.2 			"/>
			<polygon class="st0" points="81.9,83 81.9,83 81.8,83 81.8,82.9 81.8,82.9 81.8,83 			"/>
			<polygon class="st0" points="81.8,83.3 81.8,83.3 81.8,83.3 81.9,83.3 81.9,83.3 81.8,83.3 			"/>
			<polygon class="st0" points="81.8,83.2 81.8,83.2 81.8,83.2 81.9,83.2 81.9,83.2 81.8,83.2 			"/>
			<polygon class="st0" points="81.4,82.9 81.4,82.9 81.4,82.9 81.4,82.8 81.4,82.8 81.4,82.9 			"/>
			<polygon class="st0" points="81.6,83.3 81.6,83.3 81.6,83.3 81.5,83.3 81.5,83.3 81.6,83.3 			"/>
			<polygon class="st0" points="81.7,83.3 81.7,83.3 81.7,83.3 81.8,83.3 81.8,83.3 81.7,83.3 			"/>
			<polygon class="st0" points="81.5,82.9 81.5,82.9 81.5,82.9 81.5,82.8 81.5,82.8 81.5,82.9 			"/>
			<polygon class="st0" points="81.4,83 81.4,83 81.4,83 81.4,83 81.4,83 81.4,83 			"/>
		</g>
		<path class="st0" d="M136.1,46.7v92.7h37.6V47.7c0-8.7-7.6-16.2-14.8-16.2c-7.9,0-12.3-1-18,4.7C138.1,39,136.1,42.7,136.1,46.7z"
			/>
		<path class="st0" d="M20.8,145.9V28.3h-9.9L11,155.9h161.9v-9.5c-44.4,0-88.9,0-133.3,0L20.8,145.9z"/>
		<path class="st0" d="M85.1,88v51.3h37.5V86.7c0-7.1-7.3-14.8-15.5-14.8c-6.3,0-12.3-0.7-17.5,4.9C87.3,79.2,85.1,83.4,85.1,88z"/>
		<path class="st0" d="M34.4,110.4v28.9H72v-26.9c0-10.3-7.3-17.2-17.9-17.2c-5.3,0-7.3,0.2-11.7,2.4c-1.1,0.6-1.4,1-2.4,1.7
			C37.5,101.3,34.4,106.2,34.4,110.4z"/>
		<path class="st0" d="M52.7,32.6c0.8,1,0.2,0.5,1.8,0.9l7.1,1.8c1.6,0.4,2.9,0.8,4.6,1.2c1.7,0.5,3.1,0.9,4.6,1.2
			c-0.7,1-14.8,8.7-15.7,9.1l-16,8.8c0.1,1.1,0.9,2.2,1.4,3.1c0.6,1.1,1.1,2,1.7,3.1c1.3-0.1,3.1-1.4,4.2-2
			c5.7-3.5,13.9-7.7,19.9-11.1c1.2-0.7,2.6-1.5,3.9-2.3l4.3-2.1c-0.3,1.4-0.9,3.2-1.3,4.5l-4.2,13.4c1.7-0.2,5.1-2.6,7.3-3.7
			c2.8-1.3,2.1-2.7,3.7-7.3L85.4,34c-1.4-0.7-6.4-1.7-8.5-2.2c-3.1-0.8-5.7-1.5-8.7-2.3c-4.8-1.2-6-2.2-8.3-0.8
			C58.7,29.5,53.8,32.3,52.7,32.6z"/>
		<path class="st0" d="M20.8,145.9l18.8,0.5c44.4,0,88.8,0,133.3,0v9.5H11L10.9,28.3h9.9V145.9z M20.8,145.9
			C21.5,143.1,21,30.7,21,28.1H10.6v128.2h163v-10.4H20.8z"/>
	</g>
</g>
</svg>
