<?xml version="1.0" encoding="utf-8"?>
<!-- Generator: Adobe Illustrator 23.1.0, SVG Export Plug-In . SVG Version: 6.00 Build 0)  -->
<svg version="1.1" id="Livello_1" xmlns="http://www.w3.org/2000/svg" xmlns:xlink="http://www.w3.org/1999/xlink" x="0px" y="0px"
	 viewBox="0 0 184.3 184.3" style="enable-background:new 0 0 184.3 184.3;" xml:space="preserve">
<style type="text/css">
	.st0{fill-rule:evenodd;clip-rule:evenodd;fill:#FEFEFE;}
</style>
<g id="Layer_x0020_1">
	<g id="_2437244703040">
		<path class="st0" d="M18.4,22.1c0-2,1.6-3.6,3.6-3.6h140.2c5.1,0,3.6,7.7,3.6,14.7H18.4V22.1z M7.7,26.9v79.7
			c0,8,2.8,14.5,10.2,17.7c5.4,2.3,23.9,1.4,31.3,1.4c10.7,0,9-10.5,1.6-10.8H26.8c-4.1,0-8.4,0.6-8.4-3.6V44h147.5v67.4
			c0,4-3.9,3.6-8,3.6h-23.5c-8.7,0.1-9.6,10.8,0.8,10.8c6.3,0,26.1,0.8,30.7-1.2c7.7-3.2,10.7-9.6,10.7-18V26.9
			c0-3.1-0.3-6.2-1.2-8.4c-3.2-7.7-9.6-10.7-17.9-10.7H26.8c-6.5,0-9.9,0.9-14,5.1c-2.1,2.1-2.7,2.8-3.9,5.7
			C7.9,20.7,7.7,23.8,7.7,26.9z"/>
		<path class="st0" d="M87.3,162.3c0-2.3-0.4-4.3,1.3-5.4c2.2-1.5,8.3-1.4,8.3,2.7c0,5.5-0.3,6.4-6,6.4
			C89,166,87.3,164.3,87.3,162.3z M86.9,146.8c-2.2,0.6-5.5,3.4-6.8,5.1c-8.9,11.1,1.3,24.1,11.7,24.5c9.8,0.4,21.4-12.5,12.5-24.3
			c-1.4-1.8-4.7-4.7-7-5.3V89.1c0-7.1,1.7-14.7-5.6-14.7c-6.4,0-4.8,9.5-4.8,14.3V146.8z"/>
		<path class="st0" d="M128,146c0-3.9,1.2-5.2,5.2-5.2c6.4,0,6.8,9.9-0.4,9.9C129.6,150.8,128,149.2,128,146z M107.3,94.6v26.7
			c0,3.9,2.2,8.4,4.3,10.5c1.8,1.8,5.9,6.3,7.7,7.4c-6.2,11.7,6.7,26.9,20.2,20.2c8.3-4.1,12.8-15.3,4.2-24.3
			c-4.4-4.6-11.3-6.2-17.2-3.1c-3.7-5.5-8.8-6.1-8.8-11.9c0-4.6,0.6-25.7-0.5-27.8C114.7,87.3,107.3,89.7,107.3,94.6z"/>
		<path class="st0" d="M46.3,146c0-7.6,9.9-6.1,9.9-1.2c0,3.7-0.5,6-5.2,6C48,150.8,46.3,149.1,46.3,146z M57.8,132.1
			c-13.9-7.3-31.9,12.4-15.2,26c0.9,0.8,1.1,0.8,2.2,1.4c12.1,6,21.8-5.5,21.8-13c0-3.1,0-4.2-1.6-7.2c1.8-1.2,5.6-5.4,7.5-7.2
			c2.1-2.1,4.4-6.6,4.4-10.7V94.6c0-4.5-6.6-7.3-9.6-2.8c-2.7,4.1,1.6,28.7-2.4,33C63,126.9,59.3,130,57.8,132.1z"/>
		<path class="st0" d="M51.1,31.3c3,0,5.6-2.9,5.6-5.2c0-8-12.5-6.5-10.3,1.5C46.9,29.3,49,31.3,51.1,31.3z"/>
		<path class="st0" d="M25.6,31.3c3,0,5.6-2.9,5.6-5.2c0-8-12.5-6.5-10.3,1.5C21.4,29.3,23.4,31.3,25.6,31.3z"/>
		<path class="st0" d="M38.3,31.3c3,0,5.6-2.9,5.6-5.2c0-8-12.5-6.5-10.3,1.5C34.1,29.3,36.2,31.3,38.3,31.3z"/>
	</g>
</g>
</svg>
