<?xml version="1.0" encoding="utf-8"?>
<!-- Generator: Adobe Illustrator 23.1.0, SVG Export Plug-In . SVG Version: 6.00 Build 0)  -->
<svg version="1.1" id="Livello_1" xmlns="http://www.w3.org/2000/svg" xmlns:xlink="http://www.w3.org/1999/xlink" x="0px" y="0px"
	 viewBox="0 0 184.3 184.3" style="enable-background:new 0 0 184.3 184.3;" xml:space="preserve">
<style type="text/css">
	.st0{fill-rule:evenodd;clip-rule:evenodd;fill:#FEFEFE;}
</style>
<g id="Layer_x0020_1">
	<g id="_2437244592608">
		<path class="st0" d="M119,141.8c0.8-5.4,3.5-9,6.5-11.5c2.1,1.7,5.7,8.2,6.7,11.5H119z M140.9,147.2c2.4-4.6-7.3-15.9-9.2-21
			c2-1.6,10.9-0.8,13.6,0.2c14.1,5.3,15.4,21.4,9.9,29.5c-9.9,14.8-33,10.5-36.2-7.6C124.9,148.4,137,150.1,140.9,147.2z
			 M58.8,130.3c18.8,16.1-3.8,44.4-23.2,31.9c-6.9-4.4-13-14.4-7.7-25.5c4.2-8.8,11.7-12.7,24.7-10.5c-3,7.9-12.2,17.4-9.2,21
			c4.8,3.6,6.6-2.9,8.6-6.3C54.1,137.3,56,132.5,58.8,130.3z M115.2,112.6c2,1.9,6.1,9.4,6.8,11.3c-2.7,4.3-8.3,6.3-9.7,17.9
			L98,141.6L115.2,112.6z M75,108.7l34.4,0.1L91.8,138L75,108.7z M40.8,171.6h9.3c5.3-2.7,16.5-4,21-18.7c5.3-17.2-6.8-25.7-8.9-29
			c0.9-2.2,1.7-3.3,3-5.5l2.7-4.5c0.7-0.9,0.7-0.8,1.2-1.3c2.5,3,5.1,8.3,7.2,11.9l10.8,18.6c4.5,7.8,4.4,5.3,25.1,5.3
			c0.9,6.8,3.4,11.1,7.1,14.9c6.5,6.8,9.3,5.5,14.2,8.2h9.9c4.3-2.4,11.3-3.2,17-11.8c3.8-5.7,5.6-14.4,3.2-22.5
			c-4.5-15-17.9-21.1-35.8-16.7c-1.2-2.6-8.3-13.6-8.3-15.1c-0.2-3.8,7.8-9.4,6-15.9c-2.4-0.8-15.4-1.6-18.3-0.4
			c-2.7,1.2-2.7,4.7,0.1,5.9c1.6,0.7,7.4,0.4,9.4,0.4l-3.2,6.5l-38.5,0.1c6.9-19.6,14.3-10.2,13.6-17c-0.5-4.3-8-2.9-12.5-2.9
			c-6.1,0-11-1.7-10.3,5.3c3.3,2.1,3.8,1.1,8.5,1.6c-2.4,5.2-5.8,10.3-8.8,15.6c-2.8,4.9-6.9,11-9.3,16c-8.9-2.1-14.3-3.4-22.8,1.1
			c-19,10.2-17.9,35-2.7,45.3C34.6,169.5,37.6,169.8,40.8,171.6z"/>
		<path class="st0" d="M93.1,12.7h-2L19.4,39.2l-0.1,12.9c4-0.6,13.5-4.6,17.9-6.2l55-19.6c4.2,0,66.6,24.9,72.8,25.8l0.1-12.8
			L93.1,12.7z"/>
		<path class="st0" d="M19.3,65.9v12.6c7.8-0.9,68.3-25.8,72.8-25.8s65.3,25,72.8,25.8V65.9c-3.1-1.7-71.6-26.5-72.8-26.5
			C91.1,39.4,22.3,64.2,19.3,65.9z"/>
	</g>
</g>
</svg>
