<?xml version="1.0" encoding="utf-8"?>
<!-- Generator: Adobe Illustrator 23.1.0, SVG Export Plug-In . SVG Version: 6.00 Build 0)  -->
<svg version="1.1" id="Livello_1" xmlns="http://www.w3.org/2000/svg" xmlns:xlink="http://www.w3.org/1999/xlink" x="0px" y="0px"
	 viewBox="0 0 184.3 184.3" style="enable-background:new 0 0 184.3 184.3;" xml:space="preserve">
<style type="text/css">
	.st0{fill-rule:evenodd;clip-rule:evenodd;fill:#FEFEFE;}
</style>
<g id="Layer_x0020_1">
	<g id="_2437244705952">
		<path class="st0" d="M55.6,96c0.5-0.8,1.7-5.4,2.1-6.7c0.7-2.2,1.4-4.5,2.1-6.8l8.4-27.2c0.7-2.2,1.4-4.6,2.1-6.8
			c0.5-1.6,2.3-5.7,1.1-6.9c-1.3-1.1-4.7,1.7-6.6,2.9c-1.9,1.2-4,2.6-6,3.8L23,71.2L8,80.7c-1,0.6-1.4,0.8-1.3,2.1
			c1.5,1.5,5.6,1.2,7.9,1.4c27.5,2.2,21.5-0.9,31.2,24.9c0.8,2,1.3,5.5,3.4,5.7c1.2-0.7,1.5-2.6,2-4.3C52.4,106.6,55,99.2,55.6,96z"
			/>
		<path class="st0" d="M82.2,113.1c0.8,0.3,5,0.5,6.2,0.6c2,0.2,4.2,0.3,6.3,0.5l25.1,2c2.1,0.2,4.3,0.3,6.3,0.5
			c1.5,0.1,5.3,0.9,6.1-0.4c0.7-1.3-2.3-3.7-3.7-5.1c-1.5-1.4-3-3-4.5-4.5L97.3,80.3L86.2,69.1c-0.7-0.7-1-1-2.1-0.7
			c-1,1.6-0.1,5,0.3,7.1c3.4,24.1,4.9,18.4-15.5,31.7c-1.6,1-4.5,2.2-4.2,4c0.8,0.9,2.5,0.8,4.1,1C72.4,112.4,79.3,113.2,82.2,113.1
			z"/>
		<path class="st0" d="M139,99.9c-0.1,0.7,0.6,4.3,0.7,5.4c0.3,1.8,0.6,3.6,0.8,5.4l3.1,21.6c0.3,1.8,0.6,3.7,0.8,5.4
			c0.2,1.2,0.3,4.6,1.4,5.1c1.3,0.4,2.8-2.7,3.6-4.1c1-1.5,2-3.1,3-4.6l17.4-27.6l7.3-11.5c0.5-0.8,0.7-1,0.2-1.9
			c-1.5-0.6-4.3,1-6,1.6c-19.8,7.4-14.7,7.7-29.8-7.1c-1.1-1.1-2.7-3.4-4.1-2.9c-0.6,0.9-0.3,2.3-0.1,3.7
			C137.8,91.5,138.5,97.5,139,99.9z"/>
	</g>
</g>
</svg>
