<?xml version="1.0" encoding="utf-8"?>
<!-- Generator: Adobe Illustrator 23.1.0, SVG Export Plug-In . SVG Version: 6.00 Build 0)  -->
<svg version="1.1" id="Livello_1" xmlns="http://www.w3.org/2000/svg" xmlns:xlink="http://www.w3.org/1999/xlink" x="0px" y="0px"
	 viewBox="0 0 184.3 184.3" style="enable-background:new 0 0 184.3 184.3;" xml:space="preserve">
<style type="text/css">
	.st0{fill-rule:evenodd;clip-rule:evenodd;fill:#010100;}
</style>
<g id="Layer_x0020_1">
	<path class="st0" d="M37.5,128.7H65c2,0,2.9,4-0.3,4H37.5C34.7,132.7,34.8,128.7,37.5,128.7z M139.2,76h19.1c0.6,0,0.8-0.2,0.8-0.8
		V58.5c0-5.6-3.1-9.7-8.4-9.7h-11.5V76z M112,31.9v53.3h-8.6c-1.2,0-2.4,1.1-2.4,2.1c0,1.3,1.8,3.1,2.4,4c1,1.3,1.8,2.6,2.8,3.9
		c1.9,2.8,3.8,5.1,5.7,7.8l5.5,7.7c7.2,9.7,5.5,9.6,12.3,0.2l15.4-21.2c1.8-2.5,1.2-4.3-1-4.3h-8.9V31.9c0-1.3-0.9-2.1-2.2-2.1
		h-19.3C112.8,29.7,112,30.9,112,31.9z M38.9,48.8c-6,0-13.7-0.7-13.7,9.7v16.7c0,0.6,0.2,0.8,0.8,0.8h82.3V48.8H81.6l-2.2-5.9
		C78.3,40,78,38,76.3,38H44.5c-2,0-2.1,1.9-3.3,4.8C40.4,44.8,39.7,47,38.9,48.8z M35.4,120.4c0-1.3,1.1-2.2,2.4-2.2h47.6
		c4.2,0,2.7,4,1.1,4H37C36.2,122.2,35.4,121.2,35.4,120.4z M25.1,144.6c0,3.1,0.5,5.1,1.8,6.8c1.1,1.4,3.3,3.2,5.7,3.2h118.6
		c3.9,0,7.6-4,7.6-8.3V80h-20v1.1c3.7,0,7.2-0.6,9.6,1.7c1.4,1.3,1.9,2.6,1.9,4.7c0,2.2-2.4,5.4-3.9,7.3c-0.7,0.8-1,1.3-1.6,2.2
		c-2.1,3.1-4.2,5.8-6.3,8.8l-3.2,4.3c-0.6,0.8-1,1.4-1.6,2.2l-4.7,6.5c-2.8,3.8-7.3,3.5-10.1,0.3l-4.7-6.6c-0.6-0.8-1-1.4-1.6-2.2
		l-9.4-13.1c-1.1-1.5-2.1-2.9-3.2-4.4c-2-3-2.7-2.6-2.7-6.5c0-3.5,3.4-5.6,7.3-5.6h3.8v-1.1H25.1V144.6z"/>
</g>
</svg>
