<?xml version="1.0" encoding="utf-8"?>
<!-- Generator: Adobe Illustrator 23.1.0, SVG Export Plug-In . SVG Version: 6.00 Build 0)  -->
<svg version="1.1" id="Livello_1" xmlns="http://www.w3.org/2000/svg" xmlns:xlink="http://www.w3.org/1999/xlink" x="0px" y="0px"
	 viewBox="0 0 184.3 184.3" style="enable-background:new 0 0 184.3 184.3;" xml:space="preserve">
<style type="text/css">
	.st0{fill-rule:evenodd;clip-rule:evenodd;fill:#333333;}
	.st1{fill-rule:evenodd;clip-rule:evenodd;fill:#FBFBFB;}
	.st2{fill-rule:evenodd;clip-rule:evenodd;fill:#C3C3C4;}
	.st3{fill-rule:evenodd;clip-rule:evenodd;fill:#DCDDE2;}
	.st4{fill-rule:evenodd;clip-rule:evenodd;fill:#DBDBDC;}
	.st5{fill-rule:evenodd;clip-rule:evenodd;fill:#323232;}
	.st6{fill-rule:evenodd;clip-rule:evenodd;fill:#CCCCD3;}
	.st7{fill-rule:evenodd;clip-rule:evenodd;fill:#BCBBBC;}
	.st8{fill-rule:evenodd;clip-rule:evenodd;fill:#FFFFFF;}
</style>
<g id="Layer_x0020_1">
	<path class="st0" d="M-93.7,1038.4c17.8-8.2,26.7,18.5,12.5,25.5C-99.4,1072.7-109,1045.4-93.7,1038.4z M-250.4,1064.2l-0.1,10.7
		c-11.1,2-8.1-1.1-8.1-16.6c0-5.6-0.1-12.5,2.9-16.3c3-3.9,17.8-10.5,25.1,4.9c6.9-14.8,26.4-11.6,27.9,2.8
		c1.4,13.5-11.8,19.4-21.9,14.1c-5.2-2.7-2.9-3.2-6.2-7.9C-233.8,1064.1-239.6,1067.8-250.4,1064.2z M-316.9,1052
		c0,23.6-2.6,16.9-11.8,22c-7.9,4.4-12,8.7-24.4,7.8c-41.2-2.9-39.8-66.8,2.3-67c9.8-0.1,17.5,3.9,23.1,9.1
		C-314.3,1036-316.9,1038.6-316.9,1052z M-51.9,1038.8c17.7-9,27.6,17.5,12.1,25.4C-56,1072.5-68.2,1047-51.9,1038.8z
		 M-126.7,1024.3l6.8-0.3l0.4,14.8c12.1-4.5,11.7,2.1,16.9,16.7c2.7,7.6,1.2,8.9,1.2,8.7c0-0.2-0.2,0.7-0.3,1.1
		c-7.7,0.1-5.9-0.6-8.4-8.9c-1.2-4-2.6-8.6-3.8-11.8c-5.4,0.6-5.9,1.6-6,7.3c0,0.4-0.1,14.8-1.2,12.4c-0.1-0.2-0.3,0.8-0.6,1.1
		c-1.1,0-6,1.6-7-6.4c-0.1-0.5-0.2-0.7-0.4-1c-3.1,8.3-9.8,7.4-19.5,6.4l0,10.5h-5.6c-2.3-2.4-1.2-0.3-2.1-4.2
		c-0.5-2.3-1.2-23.7,3.4-28.7c2.7-2.9,7.9-5.4,13.7-4.6c2.9,0.4,4.5,1.3,6.6,2.9l5.1,4.6L-126.7,1024.3z M-270.8,1058.2l10.6-3.1
		c-0.1,8-2.8,11.2-11.7,10.1c-6.4-0.9-8.7-4.8-11.3-9.4c-3.7,4.2-4.1,7.9-11.4,9.2c-6.9,1.3-11.9-1.6-14.7-7
		c-7-13.1,7.4-25.4,17.8-19.2l0.6-14.6l7.7-0.1l0.3,23.4c-0.5-7,15.6-16.5,24.1-4.3C-261.4,1049.5-267.7,1051.5-270.8,1058.2z
		 M-432.1,1108.4h1920v-120h-1920V1108.4z"/>
	<path class="st1" d="M-321.6,1067.4c-15.4,2.5-24.2,1.4-40.4,1.3c-10.4,0-9-3.6-8.9-12.9c0.1-6.8-0.3-14.4,1.1-20.3
		c4.6-1.7,9.6-0.9,12.6-2.6c5.4-3,0.7-4.2,11.5-3.9c11.2,0.3,4.9,2,10.9,4.4c3.5,1.4,8.3,0.2,13.2,2
		C-319.8,1042.1-319.7,1060.8-321.6,1067.4z M-316.9,1052c0-13.5,2.6-16-10.7-28.1c-5.7-5.2-13.3-9.2-23.1-9.1
		c-42.2,0.2-43.6,64.1-2.3,67c12.4,0.9,16.6-3.4,24.4-7.8C-319.4,1068.9-316.8,1075.7-316.9,1052z"/>
	<path class="st2" d="M-250.4,1064.2c10.8,3.6,16.6,0,19.6-8.3c3.3,4.7,1.1,5.2,6.2,7.9c10.1,5.3,23.3-0.6,21.9-14.1
		c-1.5-14.3-21.1-17.6-27.9-2.8c-7.3-15.4-22.1-8.9-25.1-4.9c-2.9,3.8-2.9,10.7-2.9,16.3c0,15.5-3,18.6,8.1,16.6L-250.4,1064.2z"/>
	<path class="st3" d="M-127.5,1045l-5.1-4.6c-2.1-1.6-3.7-2.5-6.6-2.9c-5.8-0.9-11.1,1.6-13.7,4.6c-4.6,5.1-3.9,26.4-3.4,28.7
		c1,3.9-0.2,1.8,2.1,4.2h5.6l0-10.5c9.7,1.1,16.5,2,19.5-6.4c0.2,0.3,0.3,0.4,0.4,1c1.1,8,5.9,6.4,7,6.4c0.2-0.3,0.5-1.3,0.6-1.1
		c1.1,2.4,1.2-11.9,1.2-12.4c0.1-5.7,0.6-6.7,6-7.3c1.3,3.2,2.7,7.8,3.8,11.8c2.4,8.2,0.7,8.9,8.4,8.9c0.2-0.3,0.3-1.2,0.3-1.1
		c0,0.2,1.5-1.1-1.2-8.7c-5.2-14.7-4.9-21.2-16.9-16.7l-0.4-14.8l-6.8,0.3L-127.5,1045z"/>
	<path class="st4" d="M-270.8,1058.2c3.1-6.7,9.5-8.7,12.2-15c-8.5-12.3-24.6-2.7-24.1,4.3l-0.3-23.4l-7.7,0.1l-0.6,14.6
		c-10.4-6.2-24.8,6-17.8,19.2c2.9,5.4,7.8,8.3,14.7,7c7.2-1.3,7.6-5,11.4-9.2c2.6,4.6,4.9,8.5,11.3,9.4c8.8,1.2,11.6-2,11.7-10.1
		L-270.8,1058.2z"/>
	<path class="st5" d="M-352.9,1039.4c18.7-9.8,27.3,15.8,14.6,23.8C-354.4,1073.4-370.6,1048.7-352.9,1039.4z M-321.6,1067.4
		c1.9-6.6,1.7-25.3,0-32.1c-5-1.8-9.7-0.6-13.2-2c-5.9-2.3,0.3-4.1-10.9-4.4c-10.8-0.3-6.1,0.9-11.5,3.9c-3.1,1.7-8.1,0.8-12.6,2.6
		c-1.4,6-1,13.5-1.1,20.3c-0.1,9.3-1.5,12.9,8.9,12.9C-345.8,1068.8-337,1070-321.6,1067.4z"/>
	<path class="st6" d="M-352.9,1039.4c-17.7,9.3-1.5,34,14.6,23.8C-325.6,1055.2-334.2,1029.6-352.9,1039.4z"/>
	<path class="st7" d="M-51.9,1038.8c-16.3,8.3-4.1,33.7,12.1,25.4C-24.3,1056.2-34.1,1029.8-51.9,1038.8z"/>
	<path class="st2" d="M-93.7,1038.4c-15.3,7-5.7,34.4,12.5,25.5C-66.9,1056.9-75.9,1030.2-93.7,1038.4z"/>
	<path class="st8" d="M120.9,82.5H66.1c-2.5,0-5.2-0.5-6.1,1.5c-1.2,2.4,0.7,4,3.1,4.1c12.4,0.2,26.7,0,39.3,0c5.3,0,10.5,0,15.8,0
		c2.5,0,5.3,0.4,6.2-1.6C125.1,84.7,124.3,82.5,120.9,82.5z M121.7,46.5c3.8-0.7,10,0.1,12.8,1.8c2.9,1.7,5.5,4.4,6.8,8.1
		c1.5,4.4,0.8,22.9,0.8,29.1v44.8c0,8.9,1.8,19.5-4.9,25c-2.9,2.4-6.2,3.9-11.3,3.9H66.1c-8.5,0-17.2,1.3-22.2-7.9
		c-2.3-4.3-1.8-7.8-1.8-13c0-4.9,0-9.8,0-14.8c0-10,0-19.9,0-29.9c0-10,0-19.9,0-29.9c0-5.2,0.6-8.2,3.3-11.5
		c1.9-2.4,5.1-4.8,9.6-5.5c0.7-0.1,6.7-0.3,7.1-0.1c0.7,0.3,0.4,0.8,0.8,2.8c0.2,1.1,0.5,2.1,0.8,3.1c3.5,10.5,12.6,18.9,24.7,20.3
		c9.7,1.2,17.1-2.2,22.7-6.7C116.5,61.6,120.4,55.4,121.7,46.5z M81.7,37.9c-0.1,1.2,0,2.3,0.3,3.6c0.4,2-0.1,1.8,1.4,2.6
		c1,5.4,1,3.6,1.9,5.5c0.7,1.5,0.4,3.7-1.6,5.2c-2.1,1.4-7.4,4.2-10.7,4.2c-6-6.8-7.7-18.1-3-27.2c9.2-18,35.2-18,44.3,0
		c4.7,9.2,3,20.5-3,27.2c-2.9,0-8.9-2.8-11.3-4.7c-1.1-0.9-1.4-2.3-1.2-4.2c0.1-1.2,0.7-0.9,1.4-3.8c1-4.6,1.1-0.8,1.7-3.8l0.5-3.7
		c0-1.8-0.6-0.3-0.7-2c0-1.3,0.3-1.6-0.1-4c-0.1-0.6-0.4-1.4-0.5-1.9c-0.2-1.5,0.4-3.6-2.7-5.5c-2.3-1.4-6.1-1.8-9.1-1
		c-4.9,1.2-4.9,3.5-5.8,4.9c-1.5,2.1-1.5,4.2-1.1,7.1C82.5,37.7,82.6,37.3,81.7,37.9z M88.1,13.7c-9.8,1.4-16.4,6.6-20.5,12.5
		c-2.2,3.3-4,7.1-4.8,11.7c-0.5,2.9,0.9,2.2-5.9,2.3c-2.6,0-4.9,0.4-7.2,1.3c-7.1,2.6-13.6,9.7-13.8,19c-0.3,10.9,0,22.2,0,33.1
		v49.3c0,9.3,4.2,16.8,12.6,20.5c4.8,2.2,9.2,1.8,14.8,1.8h49.5c5.1,0,11.5,0.3,16.4-0.1c9.1-0.8,15.9-7.4,18.1-15
		c1.3-4.3,0.8-10.8,0.8-15.6c0-5.5,0-11,0-16.5V68.5c0-5.7,0.4-10-1.4-15c-2.7-7.1-10-13.3-19.8-13.4c-1.3,0-2.8,0-4.1,0
		c-2.5,0-0.3-1.7-3.5-8.8C114.5,19.9,102.2,11.6,88.1,13.7z M61.8,143.1c-1.7,0.4-2.9,2.5-1.6,4.3c1.2,1.5,3.8,1.1,6.1,1.1
		c4.8,0,40.5,0.3,42-0.1c1.8-0.4,2.7-2.8,1.3-4.5c-1.2-1.4-4-0.9-6.1-0.9C99,143,63,142.8,61.8,143.1z M62.7,136.5h53.4
		c2.4,0,6.4,0.6,7.7-0.9c1.2-1.2,1.3-4.7-2.7-4.7c-5.1,0-57.8-0.2-59.3,0.1C58.8,131.7,58.9,136.5,62.7,136.5z M62,118.9
		c-1.8,0.4-3,2.4-1.9,4.3c1,1.6,3.6,1.2,5.8,1.2l42.1,0c1.8-0.3,3.1-2.5,1.8-4.3c-1.2-1.6-3.5-1.2-5.8-1.2H75.9
		C73,118.8,64.2,118.4,62,118.9z M61.9,106.8c-3,0.9-2.5,4.3-0.6,5.2c1.5,0.7,23.6,0.3,26.1,0.3c4.2,0,33.9,0.3,35.2-0.1
		c2.4-0.7,2.6-4.2,0.5-5.2c-1.4-0.6-23.6-0.3-26.1-0.3C93.1,106.7,62.9,106.5,61.9,106.8z M61.9,94.7c-2.8,0.8-2.7,4.2-0.6,5.2
		c1.4,0.6,23.6,0.3,26.1,0.3c4.2,0,33.8,0.3,35.2-0.1c2.5-0.7,2.7-4.1,0.5-5.2c-1.4-0.7-39.3-0.3-43.7-0.3
		C76.5,94.6,63.6,94.3,61.9,94.7z"/>
</g>
</svg>
