<?xml version="1.0" encoding="utf-8"?>
<!-- Generator: Adobe Illustrator 23.1.0, SVG Export Plug-In . SVG Version: 6.00 Build 0)  -->
<svg version="1.1" id="Livello_1" xmlns="http://www.w3.org/2000/svg" xmlns:xlink="http://www.w3.org/1999/xlink" x="0px" y="0px"
	 viewBox="0 0 184.3 184.3" style="enable-background:new 0 0 184.3 184.3;" xml:space="preserve">
<style type="text/css">
	.st0{fill-rule:evenodd;clip-rule:evenodd;}
</style>
<g id="Layer_x0020_1">
	<path class="st0" d="M91.8,77.7c-2,0-5.1-0.7-6.5-1.4c-2.2-1.1-2.2-1.2-3.8-2.4c-3.3-2.6-6.2-8.3-6.2-12.4
		c0-7.8,7.6-16.3,15.8-16.3c3.3,0,5.6,0.1,8.6,1.7c5.3,3,9.4,10.1,8.9,15.3C107.7,70.8,100.7,77.7,91.8,77.7z M35.7,60.6
		c0,9.2,0.3,13.4,4.4,21.7c1.1,2.2,2.6,4.4,3.9,6.4l4.5,6.2c2,2.8,8.6,10.2,10.8,12.7c0.5,0.6,0.9,0.8,1.3,1.3
		c3.3,4,6.2,7.2,9.3,11.7l8,13.1c4.7,8.7,9.7,25.7,11.7,35.6l1.6,6.2c0.2,0.7,0.6,1.4,0.7,2.1c1.2-0.3,1-1.1,1.5-3.6
		c2.9-13.8,5.9-23.2,11.2-36.2c5.1-12.4,9.9-17.7,17.6-27.2c0.5-0.6,0.7-0.8,1.2-1.4l12.3-14.4c4.4-5.4,9.6-13.7,11.4-20.5
		c2.2-8.7,2.1-17.6-0.5-26.3c-2.7-9.1-6.3-14.5-12.2-21.9c-2.4-3-7.9-7.4-11.1-9.6c-7.9-5.2-18.4-9-28-9.7
		C74.9,5.2,54.1,16.9,43.8,34.1c-2.9,4.9-4.7,8.9-6.3,14.4C36.6,51.9,35.7,56.5,35.7,60.6z"/>
</g>
</svg>
