<?xml version="1.0" encoding="utf-8"?>
<!-- Generator: Adobe Illustrator 23.1.0, SVG Export Plug-In . SVG Version: 6.00 Build 0)  -->
<svg version="1.1" id="Livello_1" xmlns="http://www.w3.org/2000/svg" xmlns:xlink="http://www.w3.org/1999/xlink" x="0px" y="0px"
	 viewBox="0 0 184.3 184.3" style="enable-background:new 0 0 184.3 184.3;" xml:space="preserve">
<style type="text/css">
	.st0{fill:none;stroke:#FFFFFF;stroke-width:11.9653;stroke-miterlimit:10;}
	.st1{fill:none;stroke:#FFFFFF;stroke-width:7;stroke-linecap:round;stroke-miterlimit:10;}
</style>
<circle class="st0" cx="92.1" cy="93.9" r="17.5"/>
<path class="st0" d="M123.2,77.7C125.2,76.8,121,77.7,123.2,77.7c8.9,0,16.2,7.2,16.2,16.2c0,8.9-7.2,16.2-16.2,16.2
	c-2.6,0,2.2,1.1,0,0"/>
<path class="st1" d="M149.8,134.8c-10.6,20.8-32.3,35.1-57.3,35.1c-25.5,0-47.6-14.9-58-36.4"/>
<path class="st1" d="M35.9,47c11-19.5,32-32.6,56-32.6c24.4,0,45.6,13.6,56.5,33.6"/>
<path class="st1" d="M138.4,129.8c-8.4,16.6-25.7,27.9-45.6,27.9c-20.3,0-37.8-11.8-46.1-28.9"/>
<path class="st1" d="M47.8,55.8c8.8-15.5,25.4-26,44.5-26c19.4,0,36.3,10.8,44.9,26.8"/>
<path class="st1" d="M124.9,124.6c-6.1,11.9-18.5,20.1-32.8,20.1c-14.6,0-27.2-8.5-33.2-20.8"/>
<path class="st1" d="M59.8,61.4c6.3-11.2,18.3-18.7,32-18.7c14,0,26.1,7.8,32.3,19.2"/>
<path class="st0" d="M61.1,77.7C59.2,76.8,63.4,77.7,61.1,77.7c-8.9,0-16.2,7.2-16.2,16.2c0,8.9,7.2,16.2,16.2,16.2
	c2.6,0-2.2,1.1,0,0"/>
</svg>
