<?xml version="1.0" encoding="utf-8"?>
<!-- Generator: Adobe Illustrator 23.1.0, SVG Export Plug-In . SVG Version: 6.00 Build 0)  -->
<svg version="1.1" id="Livello_1" xmlns="http://www.w3.org/2000/svg" xmlns:xlink="http://www.w3.org/1999/xlink" x="0px" y="0px"
	 viewBox="0 0 184.3 184.3" style="enable-background:new 0 0 184.3 184.3;" xml:space="preserve">
<style type="text/css">
	.st0{fill-rule:evenodd;clip-rule:evenodd;fill:#231F20;}
</style>
<g id="Layer_x0020_1">
	<g id="_2435250240032">
		<path class="st0" d="M59.7,43.8c-2.4-7,8-9.2,9.7-3.4C71.6,47.4,61.7,49.3,59.7,43.8z M44.7,43.4c-1.7-7,8.6-9.1,9.9-2.5
			C56,47.8,46.2,49.5,44.7,43.4z M39.5,43.8c-2.3,6.1-12.2,3-9.6-3.8C32,34.5,41.8,37.2,39.5,43.8z M81.7,123.9l-0.1-10.7H31.8
			c-1.2-0.5-0.8-0.6-0.8-2.5c-0.1-1.1,0.1-2.5,0.1-3.7v-21c0.1-6.8-0.8-22.3,0.2-28c5.2-1,21.5-0.2,28-0.2l81.1-0.1
			c1.9,0,2.3-0.1,3,0.7l0.1,13.2c2.5,0.6,4.3,1.4,6.6,2.3c2.1,1,3.9,2.3,5.7,2.8c1-1.7,0.3-44.3,0.3-50.4H18.5l0.1,99.6h63.3
			L81.7,123.9z"/>
		<path class="st0" d="M122.8,110.9c0-8.1-2.5-22,7.2-21.8c9.6,0.1,7,14.1,7,21.8c7.9,0,21.9-2.7,21.9,7.2
			c-0.1,9.5-13.4,7.1-21.9,7.1c0,8.7,2.4,21.8-7,21.9c-9.8,0.1-7.2-13.8-7.2-21.8c-7.9-0.6-21.9,2.9-21.8-7.2
			C100.9,108.2,114.5,111.4,122.8,110.9z M90.9,122.2c2.1,20.1,20,37.3,43.2,34.9c20-2.1,37.1-20.1,34.8-43
			c-2.1-20.3-20.3-37.6-43.3-35C105.6,81.4,88.5,99.4,90.9,122.2z"/>
		<path class="st0" d="M31.8,113.1c-1-4.1-0.3-22.2-0.3-27.7c-0.1-9.1,0-18.2,0-27.3l111.9,0.2c-0.8-0.8-1.1-0.7-3-0.7H59.3
			c-6.4,0-22.8-0.8-28,0.2c-1,5.7-0.1,21.3-0.2,28V107c0,1.2-0.1,2.5-0.1,3.7C31,112.5,30.6,112.7,31.8,113.1z"/>
		<path class="st0" d="M81.7,123.9l0.2,2H18.5l-0.1-99.6c-1.2,2.3-0.3,43.3-0.3,49.7c0.1,8.5-0.6,45,0.1,50
			c2.3,0.9,40.3,0.4,48.2,0.3c2.3,0,14,0.7,16-0.6C82.1,124.2,82.5,125,81.7,123.9z"/>
		<path class="st0" d="M155.7,76.8c0.6,0.6,0.1,0.6,0.8,0.1c0.2-8.5-0.1-17,0.1-25.5c0.1-4.6,0.6-22.1-0.3-25.3
			c-3.2-0.7-13.2-0.2-17.2-0.2H19.8c-0.1,0-0.3,0.1-0.4,0.1l-0.7,0.2c-0.1-0.1-0.3,0.1-0.3,0.1l137.7,0
			C156.1,32.4,156.8,75,155.7,76.8z"/>
	</g>
</g>
</svg>
