<?xml version="1.0" encoding="utf-8"?>
<!-- Generator: Adobe Illustrator 23.1.0, SVG Export Plug-In . SVG Version: 6.00 Build 0)  -->
<svg version="1.1" id="Livello_1" xmlns="http://www.w3.org/2000/svg" xmlns:xlink="http://www.w3.org/1999/xlink" x="0px" y="0px"
	 viewBox="0 0 184.3 184.3" style="enable-background:new 0 0 184.3 184.3;" xml:space="preserve">
<style type="text/css">
	.st0{fill:#FEFEFE;}
</style>
<g>
	<path class="st0" d="M58,85c2.6,2.6,12.4,12.9,12.4,12.9l5.5-5.6l-8.6-8.8l16.4-17.4c0,0-7.4-7.2-4.2-4.3
		c3.1-11.5,0.3-24.4-8.5-33.4c-8.7-9-21-11.9-32.1-8.8l18.7,19.4l-5,19L34.4,63L15.7,43.6c-3,11.4-0.1,24.2,8.5,33.1
		C33.4,86.1,46.5,88.9,58,85L58,85z M120.5,103.8l-22.6,22.3l37.3,38.6c3,3.2,7.1,4.7,11,4.7c4,0,8-1.6,11-4.7
		c6.1-6.3,6.1-16.6,0-22.9L120.5,103.8L120.5,103.8z M169.7,39L146,14.5L76,86.9l8.6,8.8L42.7,139l-9.6,5.1l-13.5,22.1l3.4,3.6
		l21.4-14l5-9.9l41.9-43.3l8.6,8.8L169.7,39L169.7,39z"/>
</g>
</svg>
