<?xml version="1.0" encoding="utf-8"?>
<!-- Generator: Adobe Illustrator 23.1.0, SVG Export Plug-In . SVG Version: 6.00 Build 0)  -->
<svg version="1.1" id="Livello_1" xmlns="http://www.w3.org/2000/svg" xmlns:xlink="http://www.w3.org/1999/xlink" x="0px" y="0px"
	 viewBox="0 0 184.3 184.3" style="enable-background:new 0 0 184.3 184.3;" xml:space="preserve">
<style type="text/css">
	.st0{fill-rule:evenodd;clip-rule:evenodd;fill:#FFFFFF;}
</style>
<g id="_2437252228672">
	<path class="st0" d="M57.3,34.4c0.8-0.2,3-1.5,4-2c1.3-0.7,2.6-1.4,4-1.9c5.6-2.3,12.3-4.5,18.7-5.1c4.8-0.5,6.6-0.6,11.3-0.3
		c5.2,0.3,5.4,0.2,10.6,1.2c4.7,1,9.5,2.6,13.7,4.4c1.3,0.6,2.7,1.3,4,1.9l5.7,3.4c0.7,0.5,1,0.9,1.9,1.2c-0.7,0.9-2.8,2.5-3.7,3.3
		l-6.7,5.5c-4.5,3.9-7.8,6-14.8,6c-4.5,0-11.2-1-14.3,0.7c-5.1,2.8-0.3,10-6.4,10c-2.7,0-5.2-0.6-7.3,0.1c-5.7,1.8-4.8,7.4-0.6,9.8
		c2.4,1.4,5.4,1.8,5.4,4.3c0,4.3-10.2,2.8-14.3,13.7c-1.3,3.4-1.6,8.4-0.4,12c1.3,3.5,4.1,5.1,8.1,6c5.1,1.2,11.1,1.4,13.3,7.6
		c1.5,4-0.4,12,1.6,19.6c2.2,8.9,7,11.5,12.3,3.8c3-4.4,11.5-23.2,13.2-28.4c2-5.9,0.6-12,2.2-13.4c0.9-0.9,4.5-0.3,5.7-4.7l0.8-4.6
		c2.2,0,2.5,0.6,4.2,2.3c1.6,1.7,3.2,3.1,4.2,5.4c1.5,3.4,3.6,4.4,7.2,4.4c3.1,0,6.7-5.4,8-6.4c1.1-0.9,1.5-1.2,2.5-2.2
		c6.2-6.2,4.9-7.6,6.7-11.7c0.3-0.8,0.1-0.2,0.3-0.6l1.1,12.2c0.1,1.2-0.3,1.7-0.3,2.8c-0.2,3,0.2,2.6-0.4,6.4c-0.2,1.1-0.5,2-0.5,3
		c-5.5,0.5-10.8,8.4-10.8,14.4c0,2.6-0.2,3.1,0.7,5.6c1.1,3.4,3.1,1.7-3.2,9.4c-1.8,2.3-3.3,3.9-5.4,6c-1,1-1.7,1.8-2.7,2.7
		c-1,1-2,1.6-3.1,2.6c-1.1,0.9-2,1.6-3.3,2.4c-9.6,6.7-21,11.1-32.9,12l-5.4,0.3c-1.3,0-1.2-0.2-2.3-0.3c-3.3-0.3-2.6,0.1-7.9-0.6
		c-3.3-0.5-6.2-1.2-9.3-2c-6.9-1.8-12.9-5.2-18.7-9c-3.3-2.2-3.5-1.9-2.7-7.8c2.3-15.7,11.1-22,1.4-33.1
		c-4.2-4.7-11.3-8.5-14.3-12.9c-6.5-9.4-2.3-21.1,4.7-25.1c3.2-1.8,5.4-1.2,9.3-2c5.7-1.1,7.6-4.6,4.9-9.6c-1.4-2.6-1.6-1.4-1.6-5.2
		c0-4.5,6.3-3.2,3.4-13.3C58.9,37.1,58,35.7,57.3,34.4z M89.6,19.7H95c4.9,0.2,9.9,0.9,14.8,2.1c5.1,1.3,8.6,2.7,13,4.6
		c3.6,1.5,10.6,5.8,13.7,8.4c0.8,0.7,1.5,1.3,2.3,1.9c3.8,3.1,8,7.5,11,11.4c4.2,5.4,8.6,13.4,10.8,19.8c2.4,7.1,3.8,14.4,4.1,21.7
		V95c-0.2,4.9-0.9,9.8-2.1,14.8c-1.6,6.6-4.3,13-7.6,18.7c-4.3,7.4-9.7,13.7-16.2,19.2c-0.9,0.7-1.5,1.3-2.4,2s-1.6,1.1-2.5,1.8
		c-6.4,4.8-16.2,9.2-24.1,11c-4.9,1.2-9.7,1.8-14.4,2.1h-7.1c-15.5-0.8-29.7-6.6-42.6-17l-4.6-4.1c-9-9-16.2-21.4-19.1-33.8
		c-1.9-8-2.1-11.1-2.1-19.4c0-13.7,5.3-28.8,13.2-39.7c1.9-2.7,5.7-7.3,8-9.5c2.6-2.6,6.8-5.9,9.7-8.1c1.6-1.2,3.6-2.4,5.3-3.4
		c1.8-1,3.7-2.1,5.8-3c2.2-0.9,3.9-1.8,6.2-2.6C75,21.4,82.3,20,89.6,19.7z"/>
	<path class="st0" d="M67.2,49.1c0,1.9,1.1,5.8,4,5.2c2.6-0.5,9.1-6,11.4-7.9c7.5-5.9,3.2-12-0.8-12C74.7,34.4,67.2,43,67.2,49.1z"
		/>
	<path class="st0" d="M120.7,141.9c2.7,0,6-7.2,6.9-9.5c0.5-1.3,1.5-5.1,1.2-6.7c-1-6.8-7.2-6.6-10,4.5
		C118.2,132.5,116.7,141.9,120.7,141.9z"/>
</g>
</svg>
