<?xml version="1.0" encoding="utf-8"?>
<!-- Generator: Adobe Illustrator 23.0.3, SVG Export Plug-In . SVG Version: 6.00 Build 0)  -->
<svg version="1.1" id="Livello_1" xmlns="http://www.w3.org/2000/svg" xmlns:xlink="http://www.w3.org/1999/xlink" x="0px" y="0px"
	 viewBox="0 0 184.3 184.3" style="enable-background:new 0 0 184.3 184.3;" xml:space="preserve">
<style type="text/css">
	.st0{fill:#1D1D1B;stroke:#000000;stroke-width:5.5155;stroke-linecap:round;stroke-miterlimit:10;}
	.st1{fill-rule:evenodd;clip-rule:evenodd;fill:#FFFFFF;}
	.st2{fill-rule:evenodd;clip-rule:evenodd;}
</style>
<ellipse class="st0" cx="48.1" cy="91.5" rx="4.4" ry="4.4"/>
<path class="st1" d="M98.8,147h0.7v-2C99.4,145.7,99.2,146.4,98.8,147z"/>
<g id="Layer_x0020_1_1_">
	<g id="_2664763706496">
		<path class="st2" d="M66.3,110.2c-6.1-5.3-16.1-1.7-16.1,8c0,2.5,1.4,4.3,2.4,5.9l-8,11.2c-0.8,1.1-0.7,1.3-1.5,1.5
			c0,0,6.1-31.6,6.3-33.8c4.2,0,9.2-3.9,9.3-7.8h9c0.9,0,1.4,2.5,2.9,4.8c1.4,2.2,2.5,3.1,3.4,4.4c-1.4,0.9-2.6,1.9-3.9,2.9
			L66.3,110.2z M39.3,30.9h0.8c1.4,0,2.8,0.4,4.2,1.1c3.9,2,5,5.6,5,9.8c1.9,0.2,6.4,2,8.5,2.7c9.5,3.2,7.3,3.5,9.9,0.9
			c5.9-6,16.6-1.8,16.6,6.1V53c0,2.6-2.2,6.6-4.1,7.1c0.2,1.1,0.9,2,1.2,3.2c1.5-0.3,2.8-1,4.4-1.5c3.9-1,8.9-1,12.8,0.1
			c1.4,0.4,2.8,1.1,4.2,1.4c0.3-1.2,1-2.1,1.2-3.2c-1.2-0.3-2.2-1.9-2.9-2.9c-0.9-1.4-1.3-3.7-1.3-5.6c0-7.4,10.3-12.5,16.7-6
			c0.3,0.3,1.4,1.7,1.5,1.7c2,0,13.2-4.5,16.8-5.4c0-2.2-0.1-2.9,0.5-4.5c1.6-4.2,5.3-6.4,9.7-6.4c5.4,0,9.2,4.6,9.3,9.6v0.2
			c0,2.4-0.9,4.9-3,6.9c-1.5,1.5-3.4,2.7-6.3,2.7c0,1.7-0.3,2.7-0.5,4.3c-0.2,1.3-0.5,3-0.7,4.2l-3.1,21.2c-0.2,1.3-0.5,2.9-0.6,4
			c3,0.7,6.3,4.6,6.3,8.3v1.5c0,3.7-3.4,7.6-6.3,8.3c0,1.2,0.4,2.9,0.6,4.2l1.9,12.7c0.5,3.1,2.4,13.9,2.4,16.8c3,0,4.9,1.3,6.4,2.9
			c2.1,2.1,2.9,4.5,2.9,7.6c0,4.5-4.5,9-9,9H144c-6.9,0-10.9-8.2-8.1-14c0.7-1.3,1.2-1.6,1.8-2.6c-1.7-1.9-3-4.1-4.4-6.1
			c-0.7-1.2-3.9-5.1-4.2-6.3c-1.4,0.3-2.1,0.7-3.9,0.7c-5.1,0-9.8-4.3-9.8-9.3c0-2,0.6-3.2,0.7-4.6c-3.1-2.1-5.9-4.5-9-6.6l-4.6,2.7
			l-1.9-3.7c3.4-0.8,7.2-4.7,9-7.3c3.3-4.7,4.6-11.1,3.2-16.9c-0.9-4.1-2.9-7.4-5.7-10.3c-1.9-1.9-3.7-3.3-6.3-4.4
			c-17.5-7.8-35.5,9.8-28.8,26.9c0.9,2.3,1.7,3.7,3,5.5c3.5,4.7,5.6,5,9.9,7.3c-0.7,1-1.6,1.8-1.7,3.4c-1-0.1-2.6-0.9-3.3-1.3
			c-3.7-2.2-2.4-2.2-7.1,1.6c-4.2,3.3-4.2,2-3.4,4.8c2,6.9-4.6,13.4-11.6,11.9c-0.5-0.1-1.1-0.4-1.8-0.4c-0.3,0-8.4,11.4-9.3,12.6
			c1.8,2.7,2.4,3.9,2.4,7.3c0,4.5-4.5,9-9,9h-1.5c-4.5,0-9-4.5-9-9V145c0-4.8,4.6-9,9.5-9c0.2-2.3,6.2-33.5,6.3-33.8
			c-3.4-1.9-6.1-4.3-6.1-8.8c0-4.7,2.3-7.2,6.1-9.3c-0.7-1.5-1.3-6.7-1.6-8.6l-3.1-16.8c-0.5-2.8-1.3-5.6-1.6-8.4
			c-4.9,0-9.5-4.2-9.5-9v-1.5C29.8,34.9,34.3,31.1,39.3,30.9z M116.5,95.1h10.9c0.1,3.6,4.8,7.7,9,7.8c0,1.7,0.3,2.7,0.5,4.3
			c0.2,1.3,0.4,3,0.6,4.2l3.5,23.3c0.2,1.1,0.5,1.4-0.2,1.9c-0.2-0.8-5.5-8.1-6.3-9.3l-1.9-2.7c-0.3-0.4-0.1-0.2-0.3-0.4
			c1.9-2.8,2.7-2.9,2.7-7.3c0-5-4.6-9.3-9.7-9.3c-3,0-4.8,1.2-6.6,2.4l-8.3-6.1l3.2-4.3c0.6-0.9,0.8-1.3,1.3-2.3
			C115.6,96.1,115.6,95.1,116.5,95.1z M136.4,83.4c-4.2,0.1-8.9,4.2-9,7.8H117c0.6-1.2,0.5-4.7,0.5-6.3c0-5-2.5-10.4-5.1-13.9
			c-1.2-1.5-4.5-5.2-6.1-5.6l1.5-3.6c3.6,0.8,6.9-0.6,9.1-2.9c2.4-2.5,2.6-4.7,2.6-7.9c1.7-0.2,15.4-5.4,16.8-5.4c0,0,2,2.1,2.2,2.4
			c0.9,0.8,1.8,1.2,2.9,1.7l-2.5,16.8c-0.4,2.7-0.8,5.4-1.2,8.2C137.3,76.9,136.4,81.8,136.4,83.4z M43.2,49.6c1-0.2,2-1,2.7-1.7
			c3.1-3,0.2-3,10.4,0.4c1.4,0.5,7.4,2.6,8.5,2.7c0,2.2-0.1,2.9,0.5,4.5c1.7,4.3,6.2,7.3,11.1,6.2c0.3,1.2,1.2,2.4,1.5,3.6
			c-2.1,0.6-6.2,5.5-7.6,7.8c-2.9,4.7-3.7,8.2-3.7,14.1c0,1.2,0.2,3.2,0.5,3.9h-8.5c-0.1-3.9-5-7.8-9.3-7.8l-5.4-29.6
			C43.9,52.8,43.5,50.3,43.2,49.6z"/>
		<path class="st2" d="M90.2,144.7c0-2.4,3.9-2.4,3.9,0C94.1,147.2,90.2,147.2,90.2,144.7z M85.8,117.8c0,1.1,0.9,2.2,1.7,3.4
			c-3.9,4.4,0,5.1,0,6.8v6.6c0,0.7-0.4,0.8-0.9,1.1c-0.6,0.4-0.6,0.3-1.2,0.8c-7.9,5.9-3.4,19.1,5.9,19.1h1.5c5,0,10-5,10-10V144
			c0-2.7-2.4-7.2-4.4-7.8v-23.1c0-2,0.3-2.8-0.7-4l-3.1-4c-2.1-2.6-4.2,1-4.6,1.5c-0.4,0.5-0.7,0.8-1.1,1.3c-2.8,3.5-1,3-1.6,6.2
			C87.2,115.6,85.8,116.4,85.8,117.8z"/>
		<path class="st2" d="M89.2,90c0,3.9,1-0.4,1,6.1h-5.8V84.4h15.6v11.7h-5.8v-2.9c0-1,1-0.5,1-3.2C95.1,86.7,89.2,86.7,89.2,90z
			 M86.3,77.1c0,1,0.2,2.2,2,2.2c1.7,0,1.9-1.5,2.6-2.7c0.7-1.2,1.5-2.3,1.8-3.6c1,0.1,3.9,2.2,5.4,2.9c-0.8,1.5-1.6,3-2.5,4.6
			c-3.1,0-6.2,0-9.3,0c-1.8,0-2.9-0.3-4,0.6c-0.8,0.5-1.8,1.7-1.8,2.8v12.6c0,1.5,1.9,3.4,3.4,3.4h16.6c1.5,0,3.4-1.9,3.4-3.4V83.9
			c0-1.7-1.9-3.4-3.7-3.4c0.5-2,1.7-1.7,1.7-5.1c0-2.5-3.7-3.9-5.9-5.4c-3.2-2.1-5.5-1.6-7.4,2.1C88,73.5,86.3,76.3,86.3,77.1z"/>
	</g>
</g>
</svg>
