<?xml version="1.0" encoding="utf-8"?>
<!-- Generator: Adobe Illustrator 23.0.3, SVG Export Plug-In . SVG Version: 6.00 Build 0)  -->
<svg version="1.1" id="Livello_1" xmlns="http://www.w3.org/2000/svg" xmlns:xlink="http://www.w3.org/1999/xlink" x="0px" y="0px"
	 viewBox="0 0 184.3 184.3" style="enable-background:new 0 0 184.3 184.3;" xml:space="preserve">
<style type="text/css">
	.st0{fill:none;stroke:#FFFFFF;stroke-width:5.5155;stroke-linecap:round;stroke-miterlimit:10;}
	.st1{fill:#E2E2E4;stroke:#FFFFFF;stroke-width:5.5155;stroke-linecap:round;stroke-miterlimit:10;}
	.st2{fill:#E2E2E4;stroke:#FFFFFF;stroke-width:7.1701;stroke-linecap:round;stroke-miterlimit:10;}
	.st3{fill:#FFFFFF;}
</style>
<g>
	<g>
		<polyline class="st0" points="30.5,26.2 30.5,111.6 153.7,110.5 		"/>
		<g>
			<ellipse class="st1" cx="81.1" cy="51.7" rx="4.4" ry="4.4"/>
			<ellipse class="st2" cx="114.1" cy="51.7" rx="10.1" ry="10.2"/>
			<ellipse class="st1" cx="81.1" cy="91.5" rx="4.4" ry="4.4"/>
			<ellipse class="st1" cx="48.1" cy="51.7" rx="7.8" ry="7.8"/>
			<ellipse class="st1" cx="114.1" cy="91.5" rx="7.8" ry="7.8"/>
		</g>
	</g>
</g>
<ellipse class="st1" cx="48.1" cy="91.5" rx="4.4" ry="4.4"/>
<g id="Layer_x0020_1">
	<path class="st3" d="M46.6,156.4h7.2l3.8-34.6H53l-2.8,27.5h-0.1l-2.7-27.5h-5.2l-2.6,27.3h-0.1l-2.9-27.3h-5.3l3.8,34.6h7.5
		l1.9-18.4h0.1L46.6,156.4z M65.9,141.6H72v14.8h5.5v-34.6H72v14.8h-6.2v-14.8h-5.5v34.6h5.5V141.6z M93.6,121.8h-8l-5.5,34.6h5
		l0.9-6.3h6.7l0.9,6.3h5.5L93.6,121.8z M89.3,127.9L89.3,127.9l2.7,17.5h-5.2L89.3,127.9z M98.2,126.8h5.7v29.7h5.5v-29.7h5.7v-4.9
		H98.2V126.8z M115.5,141.6h9.9v-4.9h-9.9V141.6z M129.1,156.4h5.5v-34.6h-5.5V156.4z M144,126.8h9v-4.9h-14.4v34.6h5.4v-14.3h7
		v-4.9h-7V126.8z"/>
</g>
</svg>
