<?xml version="1.0" encoding="UTF-8" standalone="no"?>
<svg
   xmlns:dc="http://purl.org/dc/elements/1.1/"
   xmlns:cc="http://creativecommons.org/ns#"
   xmlns:rdf="http://www.w3.org/1999/02/22-rdf-syntax-ns#"
   xmlns:svg="http://www.w3.org/2000/svg"
   xmlns="http://www.w3.org/2000/svg"
   xmlns:sodipodi="http://sodipodi.sourceforge.net/DTD/sodipodi-0.dtd"
   xmlns:inkscape="http://www.inkscape.org/namespaces/inkscape"
   version="1.1"
   id="Layer_1"
   x="0px"
   y="0px"
   width="38.091667"
   height="35.070137"
   viewBox="0 0 54.852001 50.500997"
   enable-background="new 0 0 144 144"
   xml:space="preserve"
   inkscape:version="0.48.4 r9939"
   sodipodi:docname="Bus_stop_symbol.svg"><metadata
   id="metadata9"><rdf:RDF><cc:Work
       rdf:about=""><dc:format>image/svg+xml</dc:format><dc:type
         rdf:resource="http://purl.org/dc/dcmitype/StillImage" /><dc:title></dc:title></cc:Work></rdf:RDF></metadata><defs
   id="defs7" /><sodipodi:namedview
   pagecolor="#ffffff"
   bordercolor="#666666"
   borderopacity="1"
   objecttolerance="10"
   gridtolerance="10"
   guidetolerance="10"
   inkscape:pageopacity="0"
   inkscape:pageshadow="2"
   inkscape:window-width="1280"
   inkscape:window-height="972"
   id="namedview5"
   showgrid="false"
   fit-margin-top="3"
   fit-margin-left="3"
   fit-margin-right="3"
   fit-margin-bottom="3"
   inkscape:zoom="2.36"
   inkscape:cx="18.120139"
   inkscape:cy="16.502083"
   inkscape:window-x="-8"
   inkscape:window-y="-8"
   inkscape:window-maximized="1"
   inkscape:current-layer="Layer_1" />
<path
   d="M 9.572,12.731 H 8.47 c -2.282,0 -4.15,1.868 -4.15,4.136 v 1.108 c 0,2.221 1.773,4.036 3.972,4.132 V 43.682 H 7.707 c -1.258,0 -2.281,1.023 -2.281,2.282 h 7.06 c 0,-1.259 -1.027,-2.282 -2.289,-2.282 H 9.748 V 22.108 c 2.2,-0.095 3.961,-1.911 3.961,-4.133 V 16.867 C 13.708,14.599 11.854,12.731 9.572,12.731 z M 45.999,7.6219999 h -7.455 c 0,-1.826 -1.475,-3.302 -3.305,-3.302 h -3.598 c -1.828,0 -3.305,1.476 -3.305,3.302 h -7.349 c -2.51,0 -4.648,2.046 -4.648,4.5530001 v 26.316 c 0,1.69 1.301,3.062 2.98,3.062 h 0.816 v 1.572 c 0,1.69 1.358,3.056 3.062,3.056 1.68,0 3.049,-1.365 3.049,-3.056 v -1.572 h 14.279 v 1.572 c 0,1.69 1.365,3.056 3.057,3.056 1.689,0 3.062,-1.365 3.062,-3.056 v -1.572 h 0.816 c 1.68,0 3.072,-1.372 3.072,-3.062 V 12.175 C 50.534,9.6679999 48.507,7.6219999 45.999,7.6219999 z M 18.599,12.178 c 0,-1.312 1.07,-2.3820001 2.393,-2.3820001 h 25.005 c 1.311,0 2.381,1.0690001 2.381,2.3820001 v 0.338 c 0,1.284 -1.094,2.368 -2.381,2.368 H 20.992 c -1.322,0 -2.393,-1.06 -2.393,-2.368 v -0.338 z m 2.447,25.782 c -1.501,0 -2.721,-1.212 -2.721,-2.721 0,-1.501 1.22,-2.72 2.721,-2.72 1.501,0 2.727,1.219 2.727,2.72 0,1.509 -1.226,2.721 -2.727,2.721 z M 20.992,27.92 c -1.322,0 -2.393,-1.062 -2.393,-2.371 v -6.593 c 0,-1.305 1.07,-2.374 2.393,-2.374 h 25.005 c 1.311,0 2.381,1.069 2.381,2.374 v 6.593 c 0,1.283 -1.094,2.371 -2.381,2.371 H 20.992 z m 24.837,10.04 c -1.512,0 -2.732,-1.212 -2.732,-2.721 0,-1.501 1.221,-2.72 2.732,-2.72 1.5,0 2.721,1.219 2.721,2.72 0,1.509 -1.221,2.721 -2.721,2.721 z"
   id="path3"
   inkscape:connector-curvature="0"
   style="fill:#000000" />
</svg>