<?xml version="1.0" encoding="utf-8"?>
<!-- Generator: Adobe Illustrator 26.3.1, SVG Export Plug-In . SVG Version: 6.00 Build 0)  -->
<svg version="1.1" id="snap4city-logo-01-colorato" xmlns="http://www.w3.org/2000/svg" xmlns:xlink="http://www.w3.org/1999/xlink"
	 x="0px" y="0px" viewBox="0 0 300 300" style="enable-background:new 0 0 300 300;" xml:space="preserve">
<style type="text/css">
	.st0{opacity:0.84;}
	.st1{clip-path:url(#SVGID_00000173863504931384048660000011897387671636351915_);}
	.st2{fill:#199CDC;}
	.st3{clip-path:url(#SVGID_00000093166657934347871660000004127482461254492566_);}
	.st4{opacity:0.69;}
	.st5{clip-path:url(#SVGID_00000103977905082081119570000001391939811974681495_);}
	.st6{clip-path:url(#SVGID_00000121270971139274234650000004259751476620777392_);}
	.st7{clip-path:url(#SVGID_00000067194101749830962740000003600224035204102325_);}
	.st8{clip-path:url(#SVGID_00000052064573918606501450000004710541421118822542_);}
	.st9{clip-path:url(#SVGID_00000042018340198116692200000002489626300925352612_);}
	.st10{clip-path:url(#SVGID_00000128483813886451769340000014377396056937416865_);}
	.st11{clip-path:url(#SVGID_00000013178159850172943620000014861263614168107703_);}
	.st12{clip-path:url(#SVGID_00000069364284774580512710000009710124219534146479_);}
	.st13{fill:none;}
</style>
<g>
	<g id="Group_2023" transform="translate(0.001 3.094)" class="st0">
		<g id="Group_2022" transform="translate(0 0)">
			<g id="Group_97">
				<g id="Group_96">
					<g>
						<defs>
							<rect id="SVGID_1_" x="0" y="44" width="264.1" height="243.6"/>
						</defs>
						<clipPath id="SVGID_00000023987797984480729650000003710813983419909518_">
							<use xlink:href="#SVGID_1_"  style="overflow:visible;"/>
						</clipPath>
						<g id="Group_2021" style="clip-path:url(#SVGID_00000023987797984480729650000003710813983419909518_);">
							<path id="Path_3225" class="st2" d="M105.4,285.4c-54.6-0.1-98.7-44.5-98.5-99c0.1-54.6,44.5-98.7,99-98.5
								c49.1,0.1,90.6,36.3,97.5,84.9c1.5,11.4-6.5,21.9-17.9,23.4c-0.1,0-0.2,0-0.3,0c-11.3,1.4-21.6-6.4-23.4-17.6
								c-4.6-30.7-32.9-52.1-63.7-48.3C67.4,134.9,46,163.2,49.8,194c4.6,30.7,32.8,52,63.6,48.3c2-0.1,4-0.6,5.9-1.5
								c11.5-2.5,22.9,4.6,25.7,16.1c2.3,11.1-4.5,21.9-15.4,24.9C121.8,284.4,113.6,285.6,105.4,285.4z"/>
						</g>
					</g>
				</g>
			</g>
		</g>
	</g>
	<g id="Group_2026" transform="translate(8.857 4.664)">
		<g id="Group_2025">
			<g id="Group_99">
				<g id="Group_98">
					<g>
						<defs>
							<rect id="SVGID_00000078753334450225302170000015105856237455533477_" x="106.5" y="62.8" width="182.2" height="165.4"/>
						</defs>
						<clipPath id="SVGID_00000026153896357651188010000006083565857156554645_">
							<use xlink:href="#SVGID_00000078753334450225302170000015105856237455533477_"  style="overflow:visible;"/>
						</clipPath>
						<g id="Group_2024" style="clip-path:url(#SVGID_00000026153896357651188010000006083565857156554645_);">
							<path id="Line_12" class="st2" d="M174.5,198.2c-5.8,0.2-11.5-2.3-15.4-6.6c-8.1-8.3-7.9-21.6,0.4-29.7
								c0.1-0.1,0.2-0.2,0.3-0.3l37.3-35.9c8.3-8.1,21.6-7.9,29.7,0.4c0.1,0.1,0.2,0.2,0.3,0.4c8.1,8.3,7.9,21.6-0.4,29.7
								c-0.1,0.1-0.2,0.2-0.3,0.3l0,0l-37.3,35.9C185.3,196.2,180,198.3,174.5,198.2z"/>
						</g>
					</g>
				</g>
			</g>
		</g>
	</g>
	<g id="Group_2029" transform="translate(1.404 1.177)" class="st4">
		<g id="Group_2028" transform="translate(0)">
			<g id="Group_101">
				<g id="Group_100">
					<g>
						<defs>
							<rect id="SVGID_00000134961903456015851930000005352654071771206571_" x="16.9" y="20.9" width="155.1" height="144.1"/>
						</defs>
						<clipPath id="SVGID_00000073717232371040657530000002963851834161283478_">
							<use xlink:href="#SVGID_00000134961903456015851930000005352654071771206571_"  style="overflow:visible;"/>
						</clipPath>
						<g id="Group_2027" style="clip-path:url(#SVGID_00000073717232371040657530000002963851834161283478_);">
							<path id="Line_13" class="st2" d="M103.2,140.9c-8.7,0-16.3-6.1-18.2-14.6l-7.3-31.5c-2.7-9.8,3-19.9,12.8-22.6
								c0.1,0,0.2-0.1,0.3-0.1l0,0c10-2.5,20.2,3.7,22.6,13.7c0,0.1,0,0.1,0.1,0.2l0,0l7.3,31.5c2.5,10-3.6,20.2-13.7,22.6
								c-0.1,0-0.2,0-0.3,0.1l0,0C105.8,140.9,104.5,141.1,103.2,140.9z"/>
						</g>
					</g>
				</g>
			</g>
		</g>
	</g>
	<g id="Group_2032" transform="translate(0.025 2.685)" class="st4">
		<g id="Group_2031" transform="translate(0 0)">
			<g id="Group_103">
				<g id="Group_102">
					<g>
						<defs>
							<rect id="SVGID_00000142177153779606376080000017873500347653305229_" x="0.3" y="39" width="131" height="151.5"/>
						</defs>
						<clipPath id="SVGID_00000101071874050066163700000007212149000116585110_">
							<use xlink:href="#SVGID_00000142177153779606376080000017873500347653305229_"  style="overflow:visible;"/>
						</clipPath>
						<g id="Group_2030" style="clip-path:url(#SVGID_00000101071874050066163700000007212149000116585110_);">
							<path id="Line_14" class="st2" d="M66.1,160.5c-7.1,0.1-13.6-3.9-16.8-10.2l-14.6-27.8c-4.9-9-1.7-20.3,7.3-25.2
								c0.2-0.1,0.5-0.3,0.7-0.4l0,0c9-4.9,20.3-1.7,25.2,7.3c0.1,0.2,0.3,0.5,0.4,0.7l0,0L83,132.7c4.9,9,1.7,20.3-7.3,25.2
								c-0.2,0.1-0.5,0.3-0.7,0.4C72.2,159.7,69.2,160.5,66.1,160.5L66.1,160.5z"/>
						</g>
					</g>
				</g>
			</g>
		</g>
	</g>
	<g id="Group_2035" transform="translate(0 6.941)" class="st4">
		<g id="Group_2034">
			<g id="Group_105">
				<g id="Group_104">
					<g>
						<defs>
							<rect id="SVGID_00000039846596271004813950000012735449364302696351_" y="90.2" width="93.6" height="160.2"/>
						</defs>
						<clipPath id="SVGID_00000067232647021828039900000012416070970970020242_">
							<use xlink:href="#SVGID_00000039846596271004813950000012735449364302696351_"  style="overflow:visible;"/>
						</clipPath>
						<g id="Group_2033" style="clip-path:url(#SVGID_00000067232647021828039900000012416070970970020242_);">
							<path id="Line_15" class="st2" d="M37.3,188.3c-5.6,0.2-11-2.3-14.6-6.6L8.8,165.6c-6.1-8.2-4.8-19.7,2.9-26.3l0,0
								c8.1-6.7,20.1-5.7,27.1,2.2l0,0l13.9,16.1c6.7,8.1,5.7,20.1-2.2,27.1l0,0C46.5,187,42,188.3,37.3,188.3z"/>
						</g>
					</g>
				</g>
			</g>
		</g>
	</g>
	<path id="Line_16" class="st2" d="M150.7,148.4c-11.1-0.1-20.3-8.7-21.2-19.8l-2.9-46.9c-0.8-11.7,8.1-21.8,19.8-22.6l0,0
		c11.7-0.8,21.9,8,22.7,19.8l0,0l2.9,46.9c0.8,11.7-8,21.9-19.8,22.7L150.7,148.4L150.7,148.4z"/>
	<g id="Group_2038" transform="translate(6.265 0.203)">
		<g id="Group_2037" transform="translate(0)">
			<g id="Group_107">
				<g id="Group_106">
					<g>
						<defs>
							<rect id="SVGID_00000095299681040768649940000015158013051863729305_" x="75.3" y="9.2" width="155.1" height="96.6"/>
						</defs>
						<clipPath id="SVGID_00000129207366022873977120000017467273755426947995_">
							<use xlink:href="#SVGID_00000095299681040768649940000015158013051863729305_"  style="overflow:visible;"/>
						</clipPath>
						<g id="Group_2036" style="clip-path:url(#SVGID_00000129207366022873977120000017467273755426947995_);">
							<path id="Line_17" class="st2" d="M141.9,90.4c-3.1,0-6.1-0.8-8.8-2.2c-10.6-4.8-15.3-17.3-10.5-27.9
								c0.1-0.2,0.2-0.4,0.3-0.6l0,0l16.8-36.6c4.8-10.6,17.3-15.3,27.9-10.5c0.2,0.1,0.4,0.2,0.6,0.3l0,0
								c10.6,4.8,15.3,17.3,10.5,27.9c-0.1,0.2-0.2,0.4-0.3,0.6l0,0L161.7,78C157.8,85.4,150.3,90.2,141.9,90.4z"/>
						</g>
					</g>
				</g>
			</g>
		</g>
	</g>
	<g id="Group_2041" transform="translate(3.634 15.145)">
		<g id="Group_2040">
			<g id="Group_109">
				<g id="Group_108">
					<g>
						<defs>
							<rect id="SVGID_00000108282549451656035450000000568948208236939171_" x="43.7" y="188.8" width="169" height="89.3"/>
						</defs>
						<clipPath id="SVGID_00000181055459453166632920000012006462709393160859_">
							<use xlink:href="#SVGID_00000108282549451656035450000000568948208236939171_"  style="overflow:visible;"/>
						</clipPath>
						<g id="Group_2039" style="clip-path:url(#SVGID_00000181055459453166632920000012006462709393160859_);">
							<path id="Path_3226" class="st2" d="M120.5,270.8c-11.7,0-21.2-9.5-21.2-21.2c0-9.7,6.7-18.2,16.1-20.5
								c6.1-1.8,12-4.3,17.6-7.3c9.3-6.5,22.1-4.3,28.7,5c0.2,0.3,0.4,0.6,0.6,0.9c6.5,9.3,4.3,22.1-5,28.7
								c-0.3,0.2-0.6,0.4-0.9,0.6c-0.4,0-0.7,0.3-0.7,0.7c0,0,0,0,0,0c-9.3,5.7-19.4,10.2-29.9,13.2H120.5z"/>
						</g>
					</g>
				</g>
			</g>
		</g>
	</g>
	<g id="Group_2044" transform="translate(4.239 0)">
		<g id="Group_2043">
			<g id="Group_111">
				<g id="Group_110">
					<g>
						<defs>
							<rect id="SVGID_00000075161989715480294640000013880333894658171783_" x="51" y="6.8" width="177.1" height="167.6"/>
						</defs>
						<clipPath id="SVGID_00000049906134008801038710000011054635032624697485_">
							<use xlink:href="#SVGID_00000075161989715480294640000013880333894658171783_"  style="overflow:visible;"/>
						</clipPath>
						<g id="Group_2042" style="clip-path:url(#SVGID_00000049906134008801038710000011054635032624697485_);">
							<path id="Line_18" class="st2" d="M146.1,148c-11.1-0.1-20.3-8.7-21.2-19.8L122,81.4c-0.8-11.7,8-21.8,19.7-22.6l0,0
								c11.7-0.8,21.8,8,22.7,19.7l0,0l2.9,46.9c0.8,11.7-8.1,21.8-19.8,22.6H146.1z"/>
						</g>
					</g>
				</g>
			</g>
		</g>
	</g>
	<g id="Group_2047" transform="translate(6.265 0.203)">
		<g id="Group_2046" transform="translate(0)">
			<g id="Group_113">
				<g id="Group_112">
					<g>
						<defs>
							<rect id="SVGID_00000078011512705287701720000010850049689060507831_" x="75.3" y="9.2" width="155.1" height="96.6"/>
						</defs>
						<clipPath id="SVGID_00000105399652741571077410000010786044221433236153_">
							<use xlink:href="#SVGID_00000078011512705287701720000010850049689060507831_"  style="overflow:visible;"/>
						</clipPath>
						<g id="Group_2045" style="clip-path:url(#SVGID_00000105399652741571077410000010786044221433236153_);">
							<path id="Line_19" class="st2" d="M141.9,90.4c-3.1,0-6.1-0.8-8.8-2.2c-10.6-4.8-15.3-17.3-10.5-27.9
								c0.1-0.2,0.2-0.4,0.3-0.6l0,0l16.8-36.6c4.8-10.6,17.3-15.3,27.9-10.5c0.2,0.1,0.4,0.2,0.6,0.3l0,0
								c10.6,4.8,15.3,17.3,10.5,27.9c-0.1,0.2-0.2,0.4-0.3,0.6l0,0L161.7,78C157.8,85.4,150.3,90.2,141.9,90.4z"/>
						</g>
					</g>
				</g>
			</g>
		</g>
	</g>
	<g id="Group_2050" transform="translate(8.857 4.664)">
		<g id="Group_2049">
			<g id="Group_115">
				<g id="Group_114">
					<g>
						<defs>
							<rect id="SVGID_00000103945529787363660270000000466534025045116591_" x="106.5" y="62.8" width="182.2" height="165.4"/>
						</defs>
						<clipPath id="SVGID_00000133500752733005316390000006379578337463331716_">
							<use xlink:href="#SVGID_00000103945529787363660270000000466534025045116591_"  style="overflow:visible;"/>
						</clipPath>
						<g id="Group_2048" style="clip-path:url(#SVGID_00000133500752733005316390000006379578337463331716_);">
							<path id="Line_20" class="st2" d="M174.5,198.2c-5.8,0.2-11.5-2.3-15.4-6.6c-8.1-8.3-7.9-21.6,0.4-29.7
								c0.1-0.1,0.2-0.2,0.3-0.3l37.3-35.9c8.3-8.1,21.6-7.9,29.7,0.4c0.1,0.1,0.2,0.2,0.3,0.4c8.1,8.3,7.9,21.6-0.4,29.7
								c-0.1,0.1-0.2,0.2-0.3,0.3l0,0l-37.3,35.9C185.3,196.2,180,198.3,174.5,198.2z"/>
						</g>
					</g>
				</g>
			</g>
		</g>
	</g>
	<path id="Path_3227" class="st13" d="M268.5,288.9V65.8H0"/>
	<path id="Path_3228" class="st13" d="M300,236.2V79.6H125.1"/>
	<line id="Line_21" class="st13" x1="244.4" y1="122.8" x2="244.4" y2="32.1"/>
	<path id="Path_3229" class="st2" d="M243.6,99.4c1.5,1.7,4,2,5.9,0.7L291.2,76c2.2-1.4,2.9-4.4,1.5-6.6c-1.4-2.2-4.4-2.9-6.6-1.5
		l-41,24.9C242.9,93.6,242.1,96.5,243.6,99.4L243.6,99.4"/>
	<path id="Path_3230" class="st2" d="M234.1,78.9c1.6,2,4.5,2.4,6.5,0.8c0,0,0.1,0,0.1-0.1l0.7-0.7l13.2-19.8
		c1.4-2.2,0.8-5.2-1.5-6.6c-2.2-1.4-5.2-0.8-6.6,1.5l-13.2,19.8C232.6,75.5,232.8,77.5,234.1,78.9"/>
	<path id="Path_3231" class="st2" d="M264.2,47.4c1.6,2,4.5,2.4,6.5,0.8c0,0,0.1,0,0.1-0.1c1.5-1.5,2.2-2.9,1.5-4.4l-5.1-23.4
		c-0.5-2.7-3-4.4-5.7-3.9c-2.7,0.5-4.4,3-3.9,5.7c0,0.1,0.1,0.3,0.1,0.4l0,0l5.1,23.4L264.2,47.4"/>
	<path id="Path_3232" class="st2" d="M250.2,38.7c1.5,1.5,2.9,2.2,4.4,1.5l23.4-5.1c2.6-0.7,4.2-3.2,3.7-5.9c0-2.2-2.9-3.7-5.1-2.9
		l-23.4,5.1c-2.6,0.7-4.2,3.2-3.7,5.9C249.6,37.8,249.8,38.3,250.2,38.7"/>
	<path id="Path_3233" class="st2" d="M211.5,78.2c1.6,2,4.5,2.4,6.5,0.8c0,0,0.1,0,0.1-0.1c0.8-0.8,1.3-1.8,1.5-2.9l5.1-47.6
		c0-2.9-1.5-5.1-4.4-5.1s-5.1,1.5-5.1,4.4L210,75.3C210,76,210.7,76.7,211.5,78.2"/>
</g>
</svg>
